<svg xmlns="http://www.w3.org/2000/svg" xmlns:xlink="http://www.w3.org/1999/xlink" width="230" zoomAndPan="magnify" viewBox="0 0 172.5 172.499994" height="230" preserveAspectRatio="xMidYMid meet" version="1.0"><defs><clipPath id="6d2fff0b14"><path d="M 53 133 L 70 133 L 70 159.703125 L 53 159.703125 Z M 53 133 " clip-rule="nonzero"/></clipPath><clipPath id="c63042e341"><path d="M 124 36 L 172 36 L 172 159.636719 L 124 159.636719 Z M 124 36 " clip-rule="nonzero"/></clipPath><clipPath id="ff7cde78b1"><path d="M 135 12.703125 L 155 12.703125 L 155 26 L 135 26 Z M 135 12.703125 " clip-rule="nonzero"/></clipPath></defs><path fill="#ffffff" d="M 63.480469 124.0625 L 63.324219 124.191406 L 63.695312 97.425781 L 64.386719 96.542969 L 66.082031 116.460938 L 66.230469 116.53125 Z M 77.269531 87.839844 L 72.328125 83.222656 L 53.445312 83.433594 L 50.566406 87.65625 L 48.910156 89.082031 L 52.285156 109.503906 L 54.59375 139.121094 C 54.59375 139.121094 57.449219 142.140625 62.507812 139.894531 L 63.089844 140.007812 L 63.195312 133.476562 C 64.9375 136.21875 69.320312 132.96875 69.320312 132.96875 L 73.9375 119.585938 L 74.035156 119.304688 L 77.269531 87.839844 " fill-opacity="1" fill-rule="nonzero"/><path fill="#100f0d" d="M 51.363281 81.871094 L 73.644531 81.871094 L 73.644531 83.683594 L 51.363281 83.683594 L 51.363281 81.871094 " fill-opacity="1" fill-rule="nonzero"/><path fill="#da624c" d="M 66.003906 47.101562 L 70.089844 49.269531 C 70.089844 49.269531 83.273438 50.226562 84.660156 67.949219 C 86.046875 85.671875 76.378906 88.191406 76.378906 88.191406 C 73.714844 88.371094 72.117188 81.835938 72.117188 81.835938 L 53.316406 82.082031 C 53.421875 86.167969 48.625 88.691406 48.625 88.691406 C 43.011719 87.765625 40.914062 74.730469 43.1875 63.121094 C 45.460938 51.507812 55.875 49.550781 55.875 49.550781 L 58.753906 47.742188 L 66.003906 47.101562 " fill-opacity="1" fill-rule="nonzero"/><path fill="#100f0d" d="M 76.84375 64.183594 C 75.917969 65.820312 75.242188 67.34375 74.746094 68.800781 C 73.359375 61.308594 77.375 53.175781 77.410156 53.105469 L 77.089844 52.925781 C 77.054688 53.035156 72.71875 61.699219 74.496094 69.476562 C 72.898438 74.625 73.609375 78.285156 73.75 78.886719 C 72.1875 81.300781 71.867188 82.652344 71.972656 83.433594 C 72.082031 83.328125 72.1875 83.257812 72.328125 83.222656 C 72.328125 82.546875 72.648438 81.300781 74.105469 79.066406 L 74.140625 78.992188 L 74.140625 78.921875 C 74.140625 78.851562 72.507812 72.636719 77.160156 64.433594 Z M 69.875 50.546875 L 69.519531 50.652344 C 69.804688 51.71875 69.058594 57.863281 68.632812 58.183594 C 68.242188 58.21875 65.507812 56.511719 63.054688 54.808594 L 62.945312 54.738281 L 62.839844 54.808594 C 61.5625 55.625 58.042969 57.753906 57.15625 57.648438 C 56.550781 57.578125 56.230469 54.027344 56.265625 50.796875 L 55.910156 50.796875 C 55.875 52.429688 55.910156 57.863281 57.117188 58.003906 C 57.792969 58.078125 59.570312 57.1875 60.992188 56.371094 L 61.988281 58.75 C 61.988281 58.75 59.039062 75.976562 59.714844 77.359375 C 60.386719 78.710938 62.449219 81.089844 62.910156 80.949219 C 63.375 80.804688 65.753906 78.496094 65.898438 77.503906 C 66.039062 76.507812 63.941406 58.429688 63.941406 58.429688 L 64.722656 56.441406 C 66.289062 57.472656 68.101562 58.574219 68.632812 58.574219 C 68.667969 58.574219 68.703125 58.574219 68.703125 58.574219 C 69.558594 58.253906 70.054688 51.292969 69.875 50.546875 Z M 52.109375 75.621094 L 52.855469 66.28125 C 53.777344 60.277344 49.125 54.242188 49.050781 54.167969 L 48.769531 54.382812 C 48.804688 54.453125 53.386719 60.382812 52.5 66.207031 L 51.789062 74.730469 C 49.796875 69.15625 47.277344 69.191406 47.132812 69.191406 L 47.132812 69.546875 C 47.203125 69.546875 51.71875 69.582031 53.316406 83.929688 L 53.566406 82.972656 C 53.210938 79.492188 52.746094 77.679688 52.109375 75.621094 Z M 58.964844 81.339844 L 58.824219 81.65625 L 61.167969 82.722656 L 62.023438 82.722656 Z M 72.683594 67.132812 C 72.683594 67.734375 72.1875 68.199219 71.617188 68.199219 L 68.917969 68.199219 C 68.3125 68.199219 67.851562 67.734375 67.851562 67.132812 L 67.851562 62.195312 C 67.851562 61.589844 68.3125 61.128906 68.917969 61.128906 L 71.617188 61.128906 C 72.1875 61.128906 72.683594 61.589844 72.683594 62.195312 Z M 71.617188 60.773438 L 68.917969 60.773438 C 68.136719 60.773438 67.496094 61.414062 67.496094 62.195312 L 67.496094 67.132812 C 67.496094 67.914062 68.136719 68.554688 68.917969 68.554688 L 71.617188 68.554688 C 72.398438 68.554688 73.039062 67.914062 73.039062 67.132812 L 73.039062 62.195312 C 73.039062 61.414062 72.398438 60.773438 71.617188 60.773438 " fill-opacity="1" fill-rule="nonzero"/><path fill="#ffffff" d="M 64.121094 58.539062 L 62.414062 58.539062 L 62.414062 58.183594 L 63.871094 58.183594 L 64.6875 56.15625 L 65.007812 56.300781 L 64.121094 58.539062 " fill-opacity="1" fill-rule="nonzero"/><path fill="#ffffff" d="M 61.136719 82.082031 L 65.898438 82.082031 L 65.898438 83.789062 L 61.136719 83.789062 L 61.136719 82.082031 " fill-opacity="1" fill-rule="nonzero"/><path fill="#100f0d" d="M 61.3125 83.609375 L 65.71875 83.609375 L 65.71875 82.261719 L 61.3125 82.261719 Z M 66.074219 83.964844 L 60.957031 83.964844 L 60.957031 81.90625 L 66.074219 81.90625 L 66.074219 83.964844 " fill-opacity="1" fill-rule="nonzero"/><path fill="#da624c" d="M 61.847656 140.363281 L 61.703125 144.199219 L 55.804688 143.988281 L 55.554688 139.972656 C 58.042969 141.535156 61.847656 140.363281 61.847656 140.363281 " fill-opacity="1" fill-rule="nonzero"/><path fill="#100f0d" d="M 55.945312 143.773438 L 61.492188 143.988281 L 61.632812 140.578125 C 60.78125 140.789062 57.902344 141.429688 55.734375 140.257812 Z M 61.847656 144.339844 L 55.625 144.128906 L 55.34375 139.621094 L 55.625 139.796875 C 58.007812 141.324219 61.703125 140.1875 61.738281 140.152344 L 61.988281 140.078125 L 61.847656 144.339844 " fill-opacity="1" fill-rule="nonzero"/><g clip-path="url(#6d2fff0b14)"><path fill="#100f0d" d="M 67.53125 144.839844 C 65.042969 145.335938 63.550781 145.015625 62.839844 143.0625 C 62.984375 143.808594 63.195312 145.015625 63.515625 146.828125 C 64.617188 152.867188 65.898438 159.257812 58.292969 159.257812 C 51.574219 159.257812 52.890625 150.414062 53.921875 147.113281 C 54.949219 143.84375 54.3125 142 54.917969 142 C 55.519531 142 55.945312 143.417969 55.945312 143.417969 C 58.042969 141.109375 61.417969 143.417969 61.417969 143.417969 C 61.597656 142.386719 62.203125 141.960938 62.484375 141.855469 C 62.414062 141.394531 62.34375 140.898438 62.308594 140.328125 L 62.875 139.796875 L 63.019531 133.6875 C 63.019531 133.6875 65.363281 135.640625 68.667969 133.476562 C 68.703125 133.476562 70.871094 144.164062 67.53125 144.839844 " fill-opacity="1" fill-rule="nonzero"/></g><path fill="#ffffff" d="M 66.960938 141.75 C 67.316406 141.714844 67.640625 141.574219 67.886719 141.253906 C 69.203125 139.621094 68.277344 134.328125 68.242188 134.078125 L 67.886719 134.148438 C 67.886719 134.21875 68.808594 139.546875 67.601562 141.039062 C 67.425781 141.253906 67.210938 141.394531 66.929688 141.394531 C 65.898438 141.429688 65.222656 141.464844 64.722656 141.003906 C 63.976562 140.257812 63.65625 138.304688 63.730469 134.257812 L 63.375 134.257812 C 63.339844 138.480469 63.621094 140.433594 64.476562 141.253906 C 64.9375 141.679688 65.507812 141.785156 66.144531 141.785156 C 66.429688 141.785156 66.679688 141.785156 66.960938 141.75 Z M 57.902344 155.496094 C 57.15625 155.496094 56.515625 155.316406 56.015625 154.855469 C 54.808594 153.648438 54.738281 150.558594 55.769531 144.09375 L 56.125 144.164062 C 55.09375 150.414062 55.128906 153.539062 56.265625 154.605469 C 56.976562 155.28125 58.113281 155.246094 59.960938 154.890625 C 60.566406 154.785156 61.027344 154.429688 61.382812 153.894531 C 63.089844 151.195312 61.277344 144.269531 61.277344 144.199219 L 61.632812 144.09375 C 61.703125 144.378906 63.515625 151.234375 61.703125 154.074219 C 61.3125 154.714844 60.742188 155.101562 60.03125 155.246094 C 59.25 155.386719 58.539062 155.496094 57.902344 155.496094 " fill-opacity="1" fill-rule="nonzero"/><path fill="#100f0d" d="M 69.238281 116.996094 L 68.421875 115.183594 L 68.738281 115.042969 L 69.558594 116.855469 Z M 62.734375 94.550781 L 62.34375 83.824219 L 62.699219 83.824219 L 63.089844 94.550781 Z M 72.292969 83.648438 L 72.648438 83.539062 C 72.648438 83.578125 74.140625 88.265625 76.203125 88.015625 L 76.238281 88.265625 L 76.273438 88.265625 L 75.847656 91.496094 L 75.492188 91.460938 L 75.917969 88.371094 C 73.75 88.191406 72.363281 83.824219 72.292969 83.648438 Z M 63.695312 97.425781 L 64.191406 96.824219 L 65.898438 116.746094 L 63.339844 124.0625 Z M 76.949219 87.839844 C 76.914062 88.121094 74.710938 116.429688 73.464844 120.722656 C 72.257812 124.878906 69.203125 132.195312 68.953125 132.730469 C 68.777344 132.941406 67.246094 134.398438 65.507812 134.433594 C 64.652344 134.433594 63.90625 134.113281 63.195312 133.476562 L 63.300781 125.199219 L 66.253906 116.816406 L 64.511719 96.46875 L 67.671875 92.597656 L 67.390625 92.382812 L 63.410156 97.285156 L 63.375 97.320312 L 62.875 133.582031 L 62.804688 139.761719 C 58.328125 141.890625 55.058594 139.476562 54.59375 139.121094 L 52.285156 109.503906 L 48.910156 89.082031 C 53.246094 86.382812 53.671875 82.9375 53.707031 82.792969 L 53.351562 82.757812 C 53.351562 82.792969 52.890625 86.203125 48.625 88.832031 L 48.519531 88.902344 L 51.929688 109.574219 L 54.238281 139.300781 L 54.3125 139.335938 C 54.347656 139.371094 56.195312 140.96875 59.144531 140.96875 C 60.316406 140.96875 61.632812 140.71875 63.089844 140.007812 L 63.195312 139.972656 L 63.265625 133.972656 C 63.941406 134.539062 64.722656 134.824219 65.542969 134.824219 L 65.578125 134.824219 C 67.601562 134.789062 69.238281 133.050781 69.308594 132.976562 L 69.34375 132.941406 C 69.378906 132.871094 72.613281 125.164062 73.859375 120.867188 C 75.101562 116.535156 77.269531 89.082031 77.339844 87.910156 L 76.949219 87.839844 " fill-opacity="1" fill-rule="nonzero"/><path fill="#100f0d" d="M 28.261719 139.832031 L 30.5 149.882812 C 29.507812 158.050781 26.628906 158.191406 23.785156 157.875 C 20.90625 157.554688 19.625 150.308594 19.625 150.308594 L 22.007812 140.007812 L 21.296875 137.382812 C 20.300781 134.113281 22.433594 133.9375 26.769531 133.6875 C 31.140625 133.4375 29.363281 137.382812 29.363281 137.382812 L 28.261719 139.832031 " fill-opacity="1" fill-rule="nonzero"/><path fill="#b56951" d="M 23.570312 123.671875 L 22.71875 134.257812 L 19.945312 134.257812 L 17.421875 123.671875 L 23.570312 123.671875 " fill-opacity="1" fill-rule="nonzero"/><path fill="#100f0d" d="M 26.984375 131.984375 L 23.605469 152.652344 C 23.605469 152.652344 18.097656 147.46875 17.421875 146.191406 C 16.746094 144.910156 19.304688 136.316406 19.304688 136.316406 C 19.304688 136.316406 19.589844 136.566406 18.277344 134.257812 C 16.925781 131.949219 19.304688 131.554688 19.304688 131.554688 L 19.34375 131.554688 C 19.945312 132.339844 20.871094 132.871094 21.9375 132.871094 C 22.859375 132.871094 23.714844 132.480469 24.316406 131.839844 L 26.984375 131.984375 " fill-opacity="1" fill-rule="nonzero"/><path fill="#ffffff" d="M 20.089844 149.066406 L 19.734375 148.996094 L 21.6875 140.402344 C 21.402344 139.761719 19.839844 136.246094 20.335938 135.179688 C 20.835938 134.042969 22.648438 134.078125 22.71875 134.078125 L 22.71875 134.433594 C 22.71875 134.433594 21.082031 134.433594 20.65625 135.359375 C 20.300781 136.136719 21.546875 139.226562 22.042969 140.328125 L 22.078125 140.402344 L 20.089844 149.066406 " fill-opacity="1" fill-rule="nonzero"/><path fill="#b56951" d="M 30.144531 124.132812 L 27.730469 136.246094 C 27.730469 136.246094 23.855469 138.199219 22.859375 135.746094 L 22.894531 125.339844 L 30.144531 124.132812 " fill-opacity="1" fill-rule="nonzero"/><path fill="#b56951" d="M 35.546875 71.960938 C 37.183594 72.921875 40.238281 70.894531 40.238281 70.894531 C 41.339844 76.652344 33.59375 84.003906 33.59375 84.003906 L 32.421875 81.339844 L 35.441406 72.105469 L 35.546875 71.960938 " fill-opacity="1" fill-rule="nonzero"/><path fill="#100f0d" d="M 33.308594 79.171875 L 32.988281 79.066406 L 35.40625 71.925781 L 35.726562 72.035156 L 33.308594 79.171875 " fill-opacity="1" fill-rule="nonzero"/><path fill="#da624c" d="M 31.070312 73.382812 C 31.070312 73.382812 38.425781 81.941406 34.339844 121.117188 C 34.339844 121.117188 25.917969 130.171875 15.363281 123.28125 C 15.363281 123.28125 4.699219 84.820312 13.300781 73.203125 L 31.070312 73.382812 " fill-opacity="1" fill-rule="nonzero"/><path fill="#100f0d" d="M 40.273438 70.863281 L 40.238281 70.933594 C 40.238281 70.96875 38.925781 72.496094 37.039062 72.496094 C 36.542969 72.496094 36.007812 72.390625 35.441406 72.140625 L 35.371094 72.105469 L 33.449219 63.15625 C 32.242188 66.601562 30.253906 69.296875 29.898438 69.761719 L 31.175781 73.667969 L 13.335938 73.242188 L 14.972656 68.484375 L 12.339844 58.75 L 7.722656 69.261719 L 1.289062 69.582031 L 1.394531 69.335938 C 1.679688 68.554688 8.503906 49.980469 10.316406 47.917969 C 12.164062 45.824219 18.988281 45.433594 19.269531 45.433594 L 19.304688 45.789062 C 19.234375 45.789062 12.339844 46.179688 10.597656 48.167969 C 8.859375 50.015625 2.601562 66.882812 1.75 69.15625 L 7.4375 68.871094 L 12.375 57.613281 L 15.292969 68.445312 L 13.761719 72.851562 L 30.605469 73.277344 L 29.46875 69.652344 L 29.542969 69.582031 C 29.613281 69.511719 36.507812 60.703125 33.023438 53.921875 L 33.34375 53.742188 C 34.835938 56.621094 34.480469 59.851562 33.59375 62.65625 L 33.699219 62.621094 L 35.652344 71.785156 C 37.929688 72.746094 39.597656 71.039062 39.917969 70.71875 C 39.847656 69.546875 38.746094 55.019531 37.929688 52.074219 C 37.109375 49.125 29.71875 47.316406 29.648438 47.316406 L 29.71875 46.960938 C 30.039062 47.03125 37.394531 48.84375 38.246094 52.003906 C 39.101562 55.058594 40.203125 70.152344 40.238281 70.789062 L 40.273438 70.863281 " fill-opacity="1" fill-rule="nonzero"/><path fill="#100f0d" d="M 24.816406 95.261719 L 24.496094 95.082031 L 21.902344 99.453125 L 22.222656 99.628906 Z M 22.222656 104.566406 L 21.902344 104.386719 L 26.414062 96.644531 L 26.734375 96.824219 L 22.222656 104.566406 " fill-opacity="1" fill-rule="nonzero"/><path fill="#100f0d" d="M 22.859375 135.746094 L 22.503906 135.746094 L 22.539062 125.839844 L 22.894531 125.839844 L 22.859375 135.746094 " fill-opacity="1" fill-rule="nonzero"/><path fill="#100f0d" d="M 26.449219 58.109375 L 25.738281 65.605469 C 25.703125 65.960938 25.417969 66.246094 25.0625 66.246094 L 21.011719 66.246094 C 20.65625 66.246094 20.371094 65.996094 20.335938 65.640625 L 19.589844 58.148438 C 19.554688 57.96875 19.625 57.753906 19.769531 57.613281 C 19.910156 57.472656 20.089844 57.402344 20.265625 57.402344 L 25.808594 57.402344 C 25.988281 57.402344 26.203125 57.472656 26.308594 57.613281 C 26.414062 57.722656 26.484375 57.933594 26.449219 58.109375 " fill-opacity="1" fill-rule="nonzero"/><path fill="#ffffff" d="M 26.628906 57.402344 L 26.628906 57.753906 C 26.628906 58.003906 26.414062 58.21875 26.164062 58.21875 L 19.804688 58.21875 C 19.554688 58.21875 19.34375 58.003906 19.34375 57.753906 L 19.34375 57.402344 C 19.34375 57.152344 19.554688 56.941406 19.804688 56.941406 L 20.125 56.941406 L 20.445312 56.085938 L 25.492188 56.085938 L 25.847656 56.941406 L 26.164062 56.941406 C 26.449219 56.976562 26.628906 57.152344 26.628906 57.402344 " fill-opacity="1" fill-rule="nonzero"/><path fill="#100f0d" d="M 26.449219 57.792969 C 26.449219 57.933594 26.34375 58.078125 26.164062 58.078125 L 19.804688 58.078125 C 19.660156 58.078125 19.519531 57.96875 19.519531 57.792969 L 19.519531 57.4375 C 19.519531 57.296875 19.625 57.152344 19.804688 57.152344 L 26.164062 57.152344 C 26.308594 57.152344 26.449219 57.257812 26.449219 57.4375 Z M 20.585938 56.265625 L 25.382812 56.265625 L 25.597656 56.761719 L 20.410156 56.761719 Z M 26.203125 56.796875 L 25.988281 56.796875 L 25.632812 55.945312 L 20.335938 55.945312 L 20.015625 56.796875 L 19.839844 56.796875 C 19.484375 56.796875 19.199219 57.082031 19.199219 57.4375 L 19.199219 57.792969 C 19.199219 58.148438 19.484375 58.429688 19.839844 58.429688 L 26.203125 58.429688 C 26.558594 58.429688 26.839844 58.148438 26.839844 57.792969 L 26.839844 57.4375 C 26.804688 57.046875 26.519531 56.796875 26.203125 56.796875 " fill-opacity="1" fill-rule="nonzero"/><path fill="#b56951" d="M 25.097656 62.445312 C 25.5625 62.480469 26.09375 62.621094 25.917969 63.011719 C 25.738281 63.472656 24.671875 63.546875 23.960938 63.582031 C 24.460938 63.617188 25.0625 63.722656 25.136719 64.113281 C 25.277344 64.789062 23.394531 64.894531 20.621094 65.25 C 20.621094 65.25 19.378906 67.027344 16.320312 67.914062 C 12.910156 69.617188 4.664062 73.632812 2.601562 73.171875 C 0.0117188 72.601562 0.863281 68.054688 3.421875 66.136719 C 5.484375 64.609375 12.660156 64.609375 15.363281 64.648438 C 15.363281 64.648438 17.992188 62.550781 18.738281 60.527344 C 19.484375 58.503906 24.671875 59.636719 25.277344 60.207031 C 25.773438 60.667969 25.097656 60.917969 24.03125 60.917969 C 24.851562 60.953125 26.308594 61.128906 26.378906 61.734375 C 26.414062 62.300781 25.667969 62.410156 25.097656 62.445312 " fill-opacity="1" fill-rule="nonzero"/><path fill="#100f0d" d="M 18.773438 61.414062 L 19.058594 61.589844 L 19.449219 60.988281 L 19.164062 60.8125 Z M 19.980469 65.425781 L 20.621094 65.425781 L 20.621094 65.074219 L 19.980469 65.074219 Z M 23.644531 63.792969 L 24 63.757812 L 23.960938 63.402344 L 20.765625 63.722656 L 20.800781 64.078125 L 23.214844 63.867188 C 23.394531 64.078125 23.75 64.398438 24.175781 64.398438 C 24.316406 64.398438 24.496094 64.363281 24.636719 64.253906 L 24.460938 63.9375 C 24.105469 64.113281 23.820312 63.9375 23.644531 63.792969 Z M 26.519531 61.734375 C 26.273438 61.09375 25.597656 60.988281 24.566406 60.847656 C 24.425781 60.8125 24.28125 60.8125 24.105469 60.773438 C 22.789062 60.597656 20.265625 61.058594 20.160156 61.09375 L 20.230469 61.449219 C 20.265625 61.449219 22.824219 60.953125 24.070312 61.128906 C 24.210938 61.164062 24.355469 61.164062 24.460938 61.203125 L 24.355469 61.238281 C 24.496094 61.558594 24.851562 62.054688 25.453125 62.054688 C 25.5625 62.054688 25.703125 62.019531 25.847656 61.984375 L 25.738281 61.664062 C 25.242188 61.839844 24.921875 61.449219 24.78125 61.238281 C 25.667969 61.34375 26.058594 61.449219 26.234375 61.839844 C 26.234375 61.839844 26.273438 61.914062 26.203125 61.984375 C 26.09375 62.089844 25.773438 62.339844 24.425781 62.230469 C 22.113281 62.054688 20.515625 62.410156 20.445312 62.410156 L 20.515625 62.765625 C 20.515625 62.765625 22.078125 62.445312 24.210938 62.585938 L 24.03125 62.691406 C 24.03125 62.726562 24.425781 63.191406 24.886719 63.226562 C 24.921875 63.226562 24.921875 63.226562 24.957031 63.226562 C 25.136719 63.226562 25.3125 63.15625 25.453125 63.011719 L 25.207031 62.726562 C 25.097656 62.835938 24.992188 62.871094 24.886719 62.835938 C 24.707031 62.800781 24.496094 62.65625 24.386719 62.550781 C 25.453125 62.621094 26.164062 62.480469 26.414062 62.160156 C 26.628906 61.984375 26.519531 61.734375 26.519531 61.734375 Z M 18.808594 60.917969 C 18.738281 61.023438 17.070312 63.652344 15.46875 64.859375 L 15.433594 64.894531 L 15.363281 64.894531 C 15.253906 64.894531 3.777344 64.363281 2.246094 67.734375 L 1.929688 67.59375 C 3.492188 64.078125 14.296875 64.46875 15.328125 64.539062 C 16.785156 63.4375 18.3125 61.058594 18.488281 60.773438 C 18.523438 60.632812 18.632812 60.136719 19.09375 59.851562 C 19.128906 59.816406 19.164062 59.816406 19.234375 59.78125 C 19.734375 59.460938 20.550781 58.929688 24.03125 59.605469 L 23.960938 59.921875 C 24.070312 60.101562 24.246094 60.347656 24.496094 60.417969 C 24.671875 60.492188 24.851562 60.457031 25.0625 60.3125 L 25.242188 60.632812 C 25.0625 60.738281 24.851562 60.8125 24.671875 60.8125 C 24.566406 60.8125 24.496094 60.8125 24.386719 60.773438 C 23.855469 60.597656 23.570312 59.957031 23.570312 59.921875 L 23.644531 59.886719 C 20.621094 59.355469 19.910156 59.816406 19.449219 60.0625 C 19.414062 60.101562 19.34375 60.136719 19.304688 60.171875 C 18.917969 60.382812 18.84375 60.847656 18.84375 60.882812 L 18.808594 60.917969 " fill-opacity="1" fill-rule="nonzero"/><path fill="#b56951" d="M 150.761719 129.070312 L 149.554688 131.875 C 149.554688 131.875 149.445312 136.136719 151.898438 135.214844 C 154.351562 134.292969 155.523438 129.285156 155.523438 129.285156 Z M 144.753906 138.800781 L 144.753906 142.707031 C 144.753906 142.707031 144.753906 142.707031 142.835938 141.890625 C 140.917969 141.074219 138.785156 143.347656 138.785156 143.347656 L 138.785156 138.800781 C 138.785156 138.09375 140.136719 137.488281 141.769531 137.488281 C 143.441406 137.523438 144.753906 138.09375 144.753906 138.800781 " fill-opacity="1" fill-rule="nonzero"/><path fill="#da624c" d="M 163.375 81.339844 C 164.90625 88.621094 163.875 98.066406 163.519531 107.230469 C 163.164062 117.171875 157.15625 125.945312 156.410156 128.859375 C 154.597656 135.855469 149.269531 129.460938 149.269531 129.460938 C 153.566406 115.574219 148.558594 90.535156 148.558594 90.535156 L 146.710938 112.910156 L 146.210938 139.796875 C 141.734375 142.460938 137.113281 140.542969 137.113281 140.542969 L 135.726562 113.054688 L 131.960938 85.136719 L 132.921875 83.71875 C 133.523438 84.109375 134.234375 84.320312 134.945312 84.320312 C 137.503906 84.320312 139.566406 81.65625 139.566406 78.320312 C 139.566406 77.644531 139.496094 77.007812 139.316406 76.402344 L 159.644531 76.402344 L 161.457031 83.222656 L 162.984375 82.828125 L 163.375 81.339844 " fill-opacity="1" fill-rule="nonzero"/><path fill="#100f0d" d="M 154.457031 76.402344 L 138.925781 76.402344 L 138.925781 77.789062 L 154.457031 77.789062 Z M 163.910156 86.628906 C 163.910156 86.84375 163.875 109.644531 162.738281 112.308594 C 162.703125 112.414062 159.183594 123.566406 156.484375 128.253906 L 156.445312 128.289062 C 156.234375 129.246094 155.417969 131.769531 154.351562 131.804688 C 154.242188 131.804688 154.136719 131.804688 154.066406 131.804688 C 152.855469 131.875 151.96875 131.910156 149.445312 129.320312 L 149.199219 129.566406 C 151.4375 131.875 152.5 132.195312 153.53125 132.195312 C 153.710938 132.195312 153.921875 132.195312 154.101562 132.160156 C 154.207031 132.160156 154.277344 132.160156 154.386719 132.160156 C 155.84375 132.089844 156.660156 128.859375 156.800781 128.394531 C 159.503906 123.636719 163.058594 112.484375 163.09375 112.414062 C 164.265625 109.679688 164.300781 87.554688 164.300781 86.59375 L 163.910156 86.59375 Z M 139.53125 85.601562 L 141.769531 95.652344 L 142.125 95.578125 L 139.886719 85.53125 Z M 139.886719 81.621094 L 139.53125 81.585938 L 137.613281 98.777344 L 137.96875 98.8125 Z M 157.582031 94.796875 L 156.945312 83.929688 L 156.589844 83.964844 L 157.226562 94.835938 Z M 161.207031 98.316406 L 158.757812 83.894531 L 158.402344 83.964844 L 160.851562 98.386719 Z M 155.238281 84.035156 L 148.804688 90.605469 L 146.957031 112.910156 L 146.425781 139.867188 L 146.355469 139.902344 C 146.320312 139.9375 144.292969 141.464844 141.058594 141.464844 C 139.886719 141.464844 138.535156 141.253906 137.042969 140.683594 L 137.1875 140.363281 C 142.019531 142.246094 145.539062 140.046875 146.070312 139.691406 L 146.566406 112.910156 L 148.414062 90.464844 L 148.734375 90.148438 L 148.734375 77.75 L 149.089844 77.75 L 149.089844 89.753906 L 154.953125 83.789062 L 155.238281 84.035156 " fill-opacity="1" fill-rule="nonzero"/><path fill="#ffffff" d="M 149.660156 77.789062 L 146.566406 77.789062 L 146.566406 76.402344 L 149.660156 76.402344 L 149.660156 77.789062 " fill-opacity="1" fill-rule="nonzero"/><path fill="#100f0d" d="M 146.746094 77.609375 L 149.480469 77.609375 L 149.480469 76.578125 L 146.746094 76.578125 Z M 149.835938 77.964844 L 146.390625 77.964844 L 146.390625 76.222656 L 149.835938 76.222656 L 149.835938 77.964844 " fill-opacity="1" fill-rule="nonzero"/><g clip-path="url(#c63042e341)"><path fill="#100f0d" d="M 153.816406 146.792969 C 152.46875 146.792969 150.976562 146.402344 149.554688 145.265625 C 149.410156 146.152344 149.695312 147.324219 151.863281 147.714844 C 154.386719 148.144531 158.96875 147.324219 158.117188 145.585938 C 157.050781 146.152344 155.523438 146.792969 153.816406 146.792969 Z M 147.207031 136.527344 L 147.101562 137.0625 C 147.066406 137.238281 147.101562 137.417969 147.242188 137.523438 C 147.667969 137.984375 148.699219 139.15625 149.445312 140.683594 C 149.554688 138.660156 147.738281 136.957031 147.207031 136.527344 Z M 149.695312 141.289062 C 149.695312 141.289062 149.695312 141.324219 149.730469 141.324219 C 149.730469 141.714844 149.660156 142.105469 149.585938 142.566406 C 149.375 143.453125 149.445312 144.199219 149.660156 144.804688 C 149.660156 144.839844 149.625 144.875 149.625 144.910156 L 149.660156 144.875 C 153.035156 147.609375 156.589844 146.082031 158.292969 145.050781 C 158.507812 143.703125 157.050781 141.929688 156.128906 140.402344 C 154.847656 138.304688 155.808594 132.765625 155.808594 132.765625 C 153.390625 131.449219 151.007812 133.367188 151.007812 133.367188 C 150.476562 132.339844 149.765625 130.917969 149.765625 130.917969 C 149.765625 130.917969 146.851562 134.042969 147.421875 136.171875 C 147.882812 136.601562 150.296875 138.730469 149.695312 141.289062 Z M 142.550781 158.15625 C 142.160156 158.191406 141.804688 158.230469 141.484375 158.230469 C 138.605469 158.230469 136.792969 156.558594 135.726562 155.175781 C 135.621094 155.496094 135.550781 156.097656 136.011719 156.558594 C 136.652344 157.269531 139.851562 160.074219 143.011719 159.578125 C 145.890625 159.117188 149.019531 156.558594 148.34375 154.535156 C 147.5625 155.921875 145.890625 157.695312 142.550781 158.15625 Z M 142.515625 157.804688 C 146.355469 157.269531 147.8125 155.03125 148.378906 153.71875 C 148.804688 151.480469 146.140625 150.238281 145.429688 141.21875 C 145.429688 141.21875 144.542969 141.644531 144.578125 142.636719 C 144.578125 142.636719 141.804688 139.726562 139.246094 142.78125 C 139.246094 142.78125 138.75 141.644531 138.144531 141.644531 C 138.144531 141.644531 137.398438 148.460938 136.722656 149.847656 C 136.261719 150.769531 135.125 152.617188 135.695312 154.5 C 136.652344 156.027344 138.785156 158.300781 142.515625 157.804688 Z M 138.179688 78.746094 L 138.109375 77.324219 L 130.859375 78.851562 L 130.894531 80.273438 Z M 141.378906 88.726562 C 141.484375 89.4375 140.988281 90.074219 140.277344 90.21875 L 131.855469 91.671875 C 131.640625 91.707031 131.429688 91.78125 131.214844 91.851562 C 130.859375 91.992188 130.113281 91.886719 130.183594 89.117188 C 130.257812 85.957031 129.472656 75.085938 129.222656 71.890625 C 129.222656 71.714844 129.152344 71.535156 129.082031 71.359375 C 129.367188 71.394531 129.6875 71.429688 129.972656 71.429688 C 130.964844 71.429688 131.890625 71.179688 132.742188 70.683594 C 136.9375 68.199219 137.21875 60.457031 137.21875 60.101562 L 136.863281 60.101562 C 136.863281 60.171875 136.582031 68.019531 132.53125 70.363281 C 131.429688 71.003906 130.183594 71.179688 128.726562 70.933594 C 128.621094 70.863281 128.550781 70.789062 128.410156 70.753906 C 126.773438 70.042969 123.042969 67.382812 124.5 58.394531 C 125.957031 49.550781 126.488281 45.433594 126.632812 44.011719 L 129.296875 48.84375 C 127.164062 53.492188 125.066406 59.105469 125.210938 62.765625 L 125.566406 62.765625 C 125.421875 58.75 128.085938 52.109375 130.46875 47.171875 C 130.789062 48.308594 131.75 51.042969 134.128906 52.429688 C 135.089844 52.996094 136.191406 53.28125 137.363281 53.28125 C 137.753906 53.28125 138.179688 53.246094 138.570312 53.175781 C 138.074219 55.554688 137.574219 57.722656 137.433594 58.394531 C 137.398438 58.539062 137.398438 58.679688 137.433594 58.855469 Z M 129.507812 48.488281 C 131.5 44.261719 133.488281 40.886719 133.84375 40.601562 C 134.589844 40.070312 135.480469 40.675781 135.871094 41.0625 L 135.621094 41.3125 C 135.621094 41.3125 134.769531 40.425781 134.09375 40.886719 C 133.808594 41.101562 132.386719 43.480469 130.789062 46.675781 C 130.894531 47.171875 131.75 50.582031 134.414062 52.144531 C 135.65625 52.890625 137.113281 53.105469 138.75 52.820312 C 139.425781 49.730469 140.171875 46.425781 140.347656 45.789062 C 140.527344 45.21875 140.3125 44.757812 140.0625 44.4375 C 139.707031 44.011719 139.671875 43.445312 139.921875 42.980469 C 140.988281 40.921875 143.296875 36.234375 141.449219 36.519531 C 139.105469 36.910156 126.949219 41.882812 126.417969 42.164062 C 126.3125 42.234375 126.238281 42.34375 126.238281 42.449219 Z M 131.214844 79.136719 L 131.25 79.847656 L 137.789062 78.460938 L 137.753906 77.75 Z M 154.8125 74.980469 L 161.882812 72.886719 L 161.707031 71.464844 L 154.597656 73.558594 Z M 161.636719 83.183594 C 159.148438 84.25 153.851562 86.738281 151.757812 87.730469 C 151.363281 87.910156 150.867188 87.625 150.902344 87.164062 L 151.472656 74.09375 L 160.179688 51.082031 L 156.484375 48.558594 L 159.324219 47.707031 L 155.453125 36.910156 C 159.074219 37.691406 167.464844 39.429688 167.75 39.964844 C 167.925781 40.28125 167.925781 40.636719 167.890625 40.957031 C 166.753906 44.9375 162.667969 59.957031 163.519531 68.515625 C 162.203125 72.421875 161.136719 77.503906 161.636719 83.183594 Z M 172.011719 57.898438 C 171.160156 52.5 168.636719 44.296875 167.960938 42.058594 C 166.609375 46.960938 163.339844 59.710938 163.839844 67.699219 C 165.4375 63.367188 167.25 60.667969 167.320312 60.597656 L 167.605469 60.8125 C 167.535156 60.917969 160.960938 70.578125 162.027344 83.042969 C 162.949219 87.410156 164.335938 86.558594 164.335938 86.558594 C 175.460938 73.027344 172.011719 57.898438 172.011719 57.898438 Z M 153.105469 37.511719 L 151.542969 72.921875 L 159.753906 51.183594 L 155.699219 48.378906 L 158.898438 47.421875 L 155.0625 36.800781 C 154.527344 36.695312 154.136719 36.589844 153.960938 36.554688 C 152.679688 36.234375 150.476562 36.089844 150.476562 36.089844 L 150.832031 38.328125 Z M 161.421875 71.925781 L 161.492188 72.636719 L 155.097656 74.519531 L 154.988281 73.84375 L 161.421875 71.925781 " fill-opacity="1" fill-rule="nonzero"/></g><path fill="#100f0d" d="M 34.019531 37.941406 C 33.628906 37.371094 32.953125 37.191406 32.597656 37.121094 C 32.457031 37.085938 32.347656 37.085938 32.3125 37.085938 L 32.277344 37.441406 C 32.277344 37.441406 32.382812 37.441406 32.492188 37.476562 C 32.808594 37.546875 33.378906 37.691406 33.699219 38.152344 C 33.984375 38.542969 34.019531 39.074219 33.84375 39.75 L 34.195312 39.855469 C 34.410156 39.074219 34.339844 38.4375 34.019531 37.941406 " fill-opacity="1" fill-rule="nonzero"/><path fill="#b56951" d="M 32.738281 34.992188 C 32.738281 35.453125 32.703125 35.949219 32.632812 36.484375 C 32.597656 36.695312 32.597656 36.910156 32.5625 37.121094 C 32.527344 37.230469 32.527344 37.371094 32.492188 37.476562 C 32.066406 39.855469 30.890625 42.449219 28.085938 43.835938 L 27.835938 45.859375 L 28.6875 46.464844 L 29.683594 47.171875 C 29.683594 47.171875 26.234375 53.035156 23.890625 52.785156 C 21.546875 52.535156 19.199219 45.574219 19.199219 45.574219 L 21.261719 45.21875 L 21.261719 44.898438 L 21.511719 41.242188 C 21.511719 41.242188 20.371094 39.539062 20.195312 38.683594 C 20.195312 38.683594 19.769531 38.683594 19.304688 38.4375 C 19.164062 38.367188 18.988281 38.292969 18.84375 38.1875 C 18.382812 37.832031 17.957031 37.265625 17.777344 36.339844 C 17.601562 35.382812 17.882812 34.566406 18.3125 34.105469 C 18.84375 33.535156 19.660156 33.464844 20.480469 34.246094 C 20.585938 34.351562 20.65625 34.421875 20.765625 34.566406 L 21.117188 36.089844 L 21.226562 34.246094 C 21.6875 34.777344 23.074219 35.914062 21.792969 37.230469 L 22.007812 37.15625 C 22.964844 35.703125 21.792969 34.671875 21.261719 34.136719 C 21.4375 33.464844 21.757812 32.789062 21.972656 32.257812 C 23.074219 31.085938 24.425781 30.054688 25.347656 29.132812 C 25.453125 29.09375 25.597656 29.023438 25.703125 28.988281 C 25.773438 28.953125 25.808594 28.953125 25.878906 28.917969 C 25.953125 28.882812 25.988281 28.882812 26.058594 28.847656 C 26.234375 28.8125 26.414062 28.742188 26.558594 28.742188 C 26.589844 28.742188 26.664062 28.742188 26.699219 28.707031 C 26.875 29.308594 28.617188 34.421875 32.527344 34.921875 C 32.632812 34.921875 32.667969 34.957031 32.738281 34.992188 " fill-opacity="1" fill-rule="nonzero"/><path fill="#ffffff" d="M 24.671875 40.175781 C 27.054688 43.976562 29.363281 40.957031 29.363281 40.957031 C 27.160156 41.632812 24.742188 40.175781 24.742188 40.175781 Z M 32.171875 35.878906 C 31.496094 35.167969 29.507812 36.695312 29.507812 36.695312 C 30.679688 39.894531 32.847656 36.589844 32.171875 35.878906 Z M 23.605469 35.382812 C 23.605469 35.382812 26.414062 34.066406 26.945312 35.238281 C 27.480469 36.410156 25.917969 38.71875 23.605469 35.382812 " fill-opacity="1" fill-rule="nonzero"/><path fill="#100f0d" d="M 33.132812 36.199219 L 32.382812 36.089844 C 32.347656 35.84375 32.242188 35.59375 31.957031 35.417969 C 31.285156 35.0625 29.507812 36.660156 29.507812 36.660156 C 29.507812 36.660156 30.714844 35.738281 31.601562 35.703125 C 31.746094 35.703125 31.851562 35.703125 31.957031 35.738281 C 31.640625 35.914062 30.890625 36.339844 30.714844 37.121094 C 30.5 38.117188 31.316406 38.367188 32.066406 37.050781 C 32.066406 37.050781 32.3125 36.660156 32.3125 36.234375 C 32.347656 36.445312 32.3125 36.625 32.3125 36.625 C 32.3125 36.625 32.347656 36.519531 32.382812 36.375 Z M 25.878906 44.226562 C 25.167969 44.046875 22.578125 41.917969 21.617188 41.101562 L 21.402344 41.347656 C 21.546875 41.453125 24.851562 44.332031 25.808594 44.542969 C 25.917969 44.582031 26.058594 44.582031 26.203125 44.582031 C 27.089844 44.582031 28.121094 43.976562 28.191406 43.941406 L 28.011719 43.65625 C 27.976562 43.691406 26.734375 44.4375 25.878906 44.226562 Z M 19.625 34.8125 C 18.988281 34.492188 18.382812 34.8125 18.347656 34.8125 L 18.488281 35.097656 C 18.488281 35.097656 18.988281 34.847656 19.449219 35.097656 C 19.875 35.3125 20.160156 35.808594 20.300781 36.554688 L 20.621094 36.484375 C 20.480469 35.632812 20.160156 35.0625 19.625 34.8125 Z M 26.839844 39.464844 L 26.910156 39.785156 L 27.941406 39.5 L 27.871094 39.183594 Z M 29.433594 36.484375 C 29.398438 36.089844 29.363281 35.738281 29.398438 35.558594 C 29.507812 34.882812 30.574219 34.28125 30.605469 34.246094 L 30.464844 33.960938 C 30.429688 33.996094 29.222656 34.636719 29.113281 35.488281 C 29.078125 35.703125 29.113281 36.058594 29.152344 36.484375 C 29.257812 37.65625 29.398438 39.464844 28.367188 39.75 L 28.441406 40.070312 C 29.71875 39.75 29.542969 37.796875 29.433594 36.484375 Z M 26.34375 34.992188 C 25.632812 35.167969 24.707031 37.015625 25.878906 37.121094 C 27.160156 37.230469 27.054688 35.632812 27.054688 35.632812 C 27.054688 35.558594 27.054688 35.453125 27.054688 35.382812 L 27.621094 35.382812 L 26.984375 35.097656 C 26.839844 34.777344 26.519531 34.601562 25.847656 34.601562 C 24.742188 34.601562 23.605469 35.382812 23.605469 35.382812 C 23.605469 35.382812 24.53125 35.097656 25.703125 34.921875 C 25.953125 34.882812 26.164062 34.921875 26.34375 34.992188 Z M 28.867188 41.242188 C 27.375 41.492188 25.878906 40.921875 25.136719 40.566406 C 25.773438 41.417969 26.484375 41.882812 27.195312 41.917969 C 27.90625 41.953125 28.511719 41.5625 28.867188 41.242188 Z M 29.328125 40.78125 L 29.824219 40.636719 L 29.507812 41.027344 C 29.46875 41.101562 28.582031 42.234375 27.265625 42.234375 C 27.230469 42.234375 27.195312 42.234375 27.160156 42.234375 C 26.234375 42.203125 25.382812 41.5625 24.636719 40.390625 C 24.53125 40.460938 24.386719 40.496094 24.246094 40.53125 L 24.246094 40.175781 C 24.566406 40.140625 24.886719 39.820312 24.992188 39.679688 L 25.242188 39.894531 C 25.242188 39.894531 25.167969 40 25.027344 40.105469 C 25.597656 40.425781 27.550781 41.347656 29.328125 40.78125 Z M 26.058594 32.96875 C 25.632812 32.929688 23.605469 32.398438 23.605469 32.398438 C 23.605469 32.398438 25.667969 32.363281 26.449219 32.433594 C 27.230469 32.503906 28.972656 33.640625 28.121094 33.855469 C 27.230469 34.066406 26.484375 33.003906 26.058594 32.96875 " fill-opacity="1" fill-rule="nonzero"/><path fill="#100f0d" d="M 18.238281 47.988281 C 18.277344 47.988281 18.277344 47.988281 18.238281 47.988281 Z M 28.085938 32.578125 C 27.125 31.546875 26.945312 29.984375 26.910156 29.203125 C 26.945312 29.273438 26.984375 29.34375 27.019531 29.449219 C 27.089844 29.628906 27.195312 29.84375 27.300781 30.089844 C 27.339844 30.160156 27.375 30.230469 27.410156 30.339844 C 27.445312 30.410156 27.480469 30.515625 27.515625 30.585938 C 27.585938 30.695312 27.621094 30.800781 27.695312 30.90625 C 27.765625 31.015625 27.800781 31.121094 27.871094 31.261719 C 27.941406 31.371094 27.976562 31.441406 28.050781 31.546875 C 28.226562 31.828125 28.441406 32.148438 28.652344 32.433594 C 28.722656 32.539062 28.796875 32.613281 28.902344 32.71875 C 28.972656 32.824219 29.042969 32.894531 29.113281 32.96875 C 29.1875 33.074219 29.292969 33.144531 29.363281 33.214844 C 29.433594 33.285156 29.542969 33.355469 29.613281 33.429688 L 29.648438 33.464844 C 29.042969 33.355469 28.511719 33.039062 28.085938 32.578125 Z M 26.734375 28.667969 Z M 21.546875 28.207031 L 23.5 29.664062 L 23.289062 29.949219 L 21.261719 28.421875 L 21.226562 28.457031 L 22.148438 31.332031 L 21.792969 31.441406 L 21.082031 29.273438 L 21.011719 33.285156 L 20.65625 33.285156 L 20.726562 28.917969 C 20.65625 29.023438 20.550781 29.09375 20.480469 29.203125 L 20.230469 28.988281 C 21.617188 27.285156 23.464844 26.714844 24.921875 26.574219 C 24.636719 24.371094 22.648438 24.40625 22.539062 24.40625 L 22.539062 24.050781 C 22.578125 24.050781 24.992188 23.980469 25.277344 26.539062 C 26.34375 26.46875 27.125 26.644531 27.125 26.644531 L 27.054688 27 C 27.019531 27 23.960938 26.359375 21.546875 28.207031 Z M 26.945312 24.585938 C 27.550781 25.226562 27.410156 26.359375 27.300781 26.894531 C 27.265625 26.894531 27.230469 26.859375 27.195312 26.859375 C 27.125 26.183594 26.875 24.90625 25.847656 24.125 C 26.308594 24.160156 26.664062 24.300781 26.945312 24.585938 Z M 19.769531 40.851562 C 19.769531 41.703125 19.414062 42.519531 18.738281 43.300781 C 18.773438 43.265625 18.773438 43.230469 18.808594 43.160156 C 20.089844 40.675781 18.632812 39.109375 18.382812 37.726562 C 18.988281 38.398438 19.769531 39.539062 19.769531 40.851562 Z M 32.738281 30.871094 C 32.277344 29.488281 30.890625 27.886719 28.832031 27.605469 C 28.441406 27.355469 28.011719 27.140625 27.585938 27 C 27.695312 26.46875 27.871094 25.117188 27.160156 24.335938 C 26.734375 23.875 26.058594 23.699219 25.167969 23.769531 C 24.566406 23.519531 23.785156 23.414062 22.789062 23.519531 C 18.207031 24.125 16.535156 27.355469 16.074219 30.976562 C 15.609375 34.601562 14.1875 33.960938 13.015625 36.445312 C 11.84375 38.933594 15.789062 40.351562 14.117188 42.234375 C 12.519531 44.082031 10.28125 44.582031 10.707031 47.671875 C 12.058594 46.496094 14.582031 46 16.429688 45.789062 C 16.714844 45.46875 16.960938 45.113281 17.101562 44.722656 C 17.921875 42.875 17.03125 40.816406 16.285156 39.003906 L 16.109375 38.542969 C 14.863281 35.488281 16.359375 34.175781 16.429688 34.105469 L 16.640625 34.386719 C 16.570312 34.421875 15.253906 35.59375 16.429688 38.398438 L 16.605469 38.863281 C 17.351562 40.636719 18.277344 42.875 17.421875 44.863281 C 17.28125 45.183594 17.140625 45.46875 16.925781 45.753906 C 17.316406 45.714844 17.671875 45.679688 17.957031 45.679688 C 17.992188 45.253906 18.097656 44.757812 18.3125 44.226562 C 19.449219 43.230469 20.054688 42.09375 20.054688 40.921875 C 20.054688 40 19.699219 39.148438 19.269531 38.472656 C 19.128906 38.398438 18.988281 38.292969 18.84375 38.1875 C 18.382812 37.832031 17.957031 37.265625 17.8125 36.375 C 17.636719 35.417969 17.851562 34.636719 18.277344 34.175781 C 18.347656 34.105469 18.382812 34.066406 18.453125 34.03125 C 18.132812 31.902344 19.554688 29.84375 19.625 29.769531 L 19.910156 29.984375 C 19.910156 30.019531 18.5625 31.902344 18.773438 33.855469 C 18.988281 33.75 19.269531 33.75 19.519531 33.78125 C 19.554688 33.78125 19.625 33.820312 19.660156 33.820312 C 19.734375 33.855469 19.804688 33.855469 19.839844 33.890625 C 19.875 33.890625 19.910156 33.925781 19.945312 33.960938 C 19.980469 33.996094 20.054688 34.03125 20.089844 34.066406 C 20.195312 34.136719 20.300781 34.246094 20.410156 34.316406 C 20.515625 34.421875 20.585938 34.492188 20.691406 34.636719 L 21.046875 36.164062 L 21.4375 34.636719 C 21.902344 35.167969 22.503906 36.164062 21.757812 37.300781 L 22.042969 37.476562 C 23.003906 36.019531 22.042969 34.742188 21.546875 34.210938 C 21.722656 33.535156 21.902344 32.929688 22.148438 32.433594 C 23.25 31.261719 24.386719 30.125 25.3125 29.203125 C 25.417969 29.167969 25.5625 29.09375 25.667969 29.0625 C 25.738281 29.023438 25.773438 29.023438 25.847656 28.988281 C 25.917969 28.953125 25.953125 28.953125 26.023438 28.917969 C 26.203125 28.882812 26.34375 28.847656 26.484375 28.8125 C 26.484375 29.167969 26.414062 31.441406 27.730469 32.894531 C 28.332031 33.570312 29.152344 33.960938 30.144531 34.066406 C 30.179688 34.105469 30.21875 34.105469 30.253906 34.136719 C 30.324219 34.175781 30.359375 34.210938 30.429688 34.246094 C 30.429688 34.246094 30.464844 34.246094 30.464844 34.28125 C 30.5 34.316406 30.574219 34.351562 30.605469 34.351562 C 30.644531 34.351562 30.679688 34.386719 30.714844 34.386719 C 30.75 34.421875 30.820312 34.457031 30.855469 34.457031 C 30.929688 34.492188 31 34.53125 31.070312 34.566406 L 31.105469 34.566406 C 31.175781 34.601562 31.285156 34.636719 31.355469 34.671875 L 31.390625 34.671875 C 31.460938 34.707031 31.53125 34.742188 31.601562 34.742188 C 31.640625 34.742188 31.710938 34.777344 31.746094 34.777344 C 31.957031 34.847656 32.171875 34.882812 32.421875 34.921875 C 32.492188 34.957031 32.5625 34.992188 32.597656 35.027344 C 33.449219 35.417969 34.375 35.59375 35.335938 35.417969 C 35.511719 35.382812 33.378906 32.753906 32.738281 30.871094 " fill-opacity="1" fill-rule="nonzero"/><path fill="#da624c" d="M 20.125 37.972656 C 20.125 38.1875 19.980469 38.328125 19.769531 38.328125 C 19.554688 38.328125 19.414062 38.1875 19.414062 37.972656 C 19.414062 37.761719 19.554688 37.617188 19.769531 37.617188 C 19.980469 37.617188 20.125 37.761719 20.125 37.972656 " fill-opacity="1" fill-rule="nonzero"/><path fill="#f7ccc6" d="M 66.890625 36.339844 C 65.113281 35.703125 64.011719 33.75 63.695312 33.074219 C 63.695312 33.074219 63.65625 33.074219 63.621094 33.074219 C 63.621094 33.640625 63.765625 34.601562 64.476562 35.3125 C 65.042969 35.878906 65.863281 36.234375 66.890625 36.339844 Z M 68.667969 44.6875 C 68.207031 45.753906 67.566406 46.640625 66.820312 47.351562 L 67.425781 50.226562 C 66.605469 53.316406 63.160156 54.3125 63.160156 54.3125 C 60.671875 54.382812 58.398438 50.476562 58.398438 50.476562 L 59.074219 46.960938 C 58.503906 46.320312 58.007812 45.574219 57.652344 44.6875 C 55.699219 44.96875 54.207031 40.78125 55.128906 39.820312 C 55.378906 39.539062 55.660156 39.464844 55.945312 39.539062 C 56.300781 39.964844 56.550781 40.246094 56.550781 40.246094 L 57.6875 41.136719 L 57.722656 38.292969 C 57.4375 36.339844 59.714844 33.675781 59.714844 33.675781 C 59.714844 33.675781 60.210938 33.640625 60.886719 33.535156 C 61.632812 33.429688 62.589844 33.324219 63.300781 33.179688 C 63.339844 33.820312 63.515625 34.8125 64.261719 35.558594 C 65.007812 36.339844 66.144531 36.730469 67.671875 36.730469 C 68.027344 36.730469 68.382812 36.695312 68.738281 36.660156 L 69.273438 39.574219 L 69.34375 39.964844 L 69.84375 39.574219 C 69.875 39.574219 69.949219 39.539062 69.984375 39.539062 C 70.269531 39.464844 70.585938 39.539062 70.835938 39.820312 C 71.691406 40.707031 70.445312 44.4375 68.667969 44.6875 " fill-opacity="1" fill-rule="nonzero"/><path fill="#ffffff" d="M 62.234375 40.390625 C 62.234375 40.390625 61.808594 38.933594 60.601562 39.003906 C 59.429688 39.109375 58.683594 39.894531 58.683594 39.894531 C 58.683594 39.894531 61.3125 43.65625 62.234375 40.390625 Z M 65.222656 40.601562 C 65.222656 40.601562 65.257812 39.785156 66.714844 39.148438 C 68.171875 38.507812 68.207031 40 68.207031 40 C 67.285156 43.550781 65.222656 40.601562 65.222656 40.601562 " fill-opacity="1" fill-rule="nonzero"/><path fill="#100f0d" d="M 69.519531 41.808594 C 69.699219 41.0625 70.695312 40.53125 70.695312 40.53125 L 70.515625 40.210938 C 70.480469 40.210938 70.019531 40.496094 69.628906 40.921875 C 69.414062 40.210938 69.203125 39.644531 69.378906 39.539062 L 69.34375 39.644531 C 69.34375 39.714844 69.273438 45.113281 66.714844 47.207031 C 66.679688 47.246094 64.832031 48.984375 63.550781 48.984375 C 62.273438 48.984375 59.214844 46.816406 59.179688 46.78125 L 58.964844 47.066406 C 59.109375 47.171875 62.128906 49.339844 63.550781 49.339844 C 64.6875 49.339844 66.179688 48.167969 66.714844 47.671875 L 67.210938 50.191406 C 67.070312 50.582031 65.96875 53.566406 62.910156 54.097656 L 62.984375 54.453125 C 66.429688 53.816406 67.566406 50.296875 67.566406 50.261719 L 67.566406 50.226562 L 67 47.421875 C 68.597656 46.070312 69.238281 43.621094 69.519531 41.808594 Z M 55.875 40.675781 C 55.589844 40.601562 55.414062 40.707031 55.378906 40.707031 L 55.554688 40.992188 C 55.554688 40.992188 55.625 40.957031 55.769531 40.992188 C 55.945312 41.027344 56.335938 41.277344 56.835938 42.203125 L 57.15625 42.023438 C 56.726562 41.277344 56.300781 40.816406 55.875 40.675781 Z M 60.957031 45.078125 L 60.78125 45.398438 C 61.808594 45.929688 62.734375 46.109375 63.550781 46.109375 C 64.972656 46.109375 65.933594 45.539062 66.289062 45.289062 C 66.394531 45.398438 66.429688 45.46875 66.464844 45.503906 L 66.820312 45.503906 C 66.820312 45.433594 66.820312 45.253906 66.039062 44.542969 L 65.789062 44.792969 C 65.898438 44.863281 65.96875 44.96875 66.074219 45.042969 C 65.507812 45.433594 63.621094 46.464844 60.957031 45.078125 Z M 63.410156 44.046875 L 63.585938 43.761719 C 63.410156 43.65625 62.839844 43.300781 62.519531 43.410156 L 62.628906 43.726562 C 62.734375 43.691406 63.089844 43.835938 63.410156 44.046875 Z M 65.1875 43.691406 L 65.292969 43.371094 C 65.042969 43.265625 64.511719 43.585938 64.191406 43.761719 L 64.367188 44.046875 C 64.722656 43.835938 65.078125 43.691406 65.1875 43.691406 Z M 66.714844 39.324219 C 67.105469 39.183594 67.390625 39.21875 67.601562 39.359375 C 67.070312 39.5 65.96875 40.070312 66.714844 41.773438 C 66.714844 41.773438 67.851562 42.058594 68.207031 40.070312 L 68.171875 40 C 68.207031 40.035156 68.207031 40.070312 68.207031 40.070312 C 68.171875 39.074219 67.601562 38.753906 66.574219 39.074219 C 65.542969 39.394531 65.222656 40.675781 65.222656 40.675781 C 65.222656 40.675781 65.648438 39.714844 66.714844 39.324219 Z M 58.683594 39.894531 C 58.683594 39.894531 59.074219 38.828125 60.601562 38.828125 C 62.128906 38.828125 62.203125 40.390625 62.203125 40.390625 C 61.738281 42.308594 60.53125 41.632812 60.53125 41.632812 C 60.105469 40.246094 61.136719 39.644531 61.492188 39.464844 C 60.246094 38.472656 58.683594 39.894531 58.683594 39.894531 " fill-opacity="1" fill-rule="nonzero"/><path fill="#b56951" d="M 68.207031 37.15625 C 68.207031 37.15625 65.96875 36.519531 65.222656 37.65625 C 64.476562 38.792969 67.105469 37.902344 67.78125 37.972656 C 68.492188 38.046875 68.207031 37.15625 68.207031 37.15625 Z M 59.320312 37.050781 C 59.320312 37.050781 62.023438 36.660156 62.234375 37.726562 C 62.414062 38.792969 61.242188 37.726562 59.320312 37.726562 C 57.402344 37.691406 59.320312 37.050781 59.320312 37.050781 " fill-opacity="1" fill-rule="nonzero"/><path fill="#b56951" d="M 64.476562 35.3125 C 63.765625 34.601562 63.621094 33.640625 63.621094 33.074219 C 63.621094 33.074219 63.65625 33.074219 63.695312 33.074219 C 64.011719 33.75 65.113281 35.703125 66.890625 36.339844 C 65.863281 36.234375 65.042969 35.878906 64.476562 35.3125 Z M 64.867188 31.9375 L 66.144531 33.429688 L 65.898438 33.640625 L 64.617188 32.148438 Z M 62.875 32.078125 C 62.875 32.078125 62.34375 31.6875 61.808594 31.796875 C 61.492188 31.867188 61.242188 32.078125 61.027344 32.433594 C 61.027344 32.46875 61.027344 32.503906 61.027344 32.503906 L 60.671875 32.46875 C 60.671875 32.398438 60.886719 31.046875 61.632812 30.695312 C 61.988281 30.550781 62.378906 30.621094 62.804688 30.941406 L 62.589844 31.226562 C 62.273438 30.976562 61.988281 30.90625 61.738281 31.015625 C 61.492188 31.121094 61.3125 31.371094 61.207031 31.652344 C 61.347656 31.546875 61.523438 31.476562 61.667969 31.441406 C 62.378906 31.296875 62.984375 31.757812 63.019531 31.757812 Z M 60.246094 29.914062 C 60.386719 29.699219 60.671875 29.519531 61.027344 29.449219 C 60.425781 29.984375 60.175781 30.730469 60.105469 31.121094 C 60.03125 30.765625 59.960938 30.269531 60.246094 29.914062 Z M 71.582031 36.164062 C 71.085938 36.269531 70.585938 36.304688 70.195312 36.304688 C 69.875 36.304688 69.628906 36.269531 69.59375 36.269531 L 69.628906 35.914062 C 69.628906 35.914062 70.765625 36.019531 71.582031 35.773438 C 71.582031 35.203125 71.476562 34.636719 71.296875 34.105469 C 70.269531 35.097656 69.273438 35.632812 68.382812 35.632812 C 68.3125 35.632812 68.242188 35.632812 68.171875 35.632812 C 66.785156 35.488281 66.179688 34.136719 66.144531 34.105469 L 66.464844 33.960938 C 66.464844 33.960938 67.035156 35.167969 68.207031 35.3125 C 69.058594 35.382812 70.089844 34.882812 71.15625 33.78125 C 71.015625 33.429688 70.871094 33.109375 70.695312 32.824219 C 70.480469 33.324219 70.230469 33.710938 69.875 33.996094 C 69.308594 34.457031 68.703125 34.566406 68.242188 34.566406 C 67.921875 34.566406 67.710938 34.492188 67.671875 34.492188 L 67.746094 34.175781 C 67.746094 34.175781 68.808594 34.421875 69.628906 33.75 C 69.984375 33.429688 70.269531 33.003906 70.445312 32.433594 C 69.914062 31.617188 69.273438 31.046875 68.738281 30.871094 C 69.132812 30.660156 69.488281 30.304688 69.734375 29.734375 L 69.414062 29.628906 C 69.023438 30.660156 68.101562 30.835938 67.566406 30.835938 C 66.605469 30.660156 65.933594 29.734375 63.445312 29.09375 C 62.769531 28.917969 62.234375 28.917969 61.773438 29.0625 C 60.851562 29.0625 60.210938 29.273438 59.890625 29.734375 C 59.570312 30.195312 59.605469 30.730469 59.675781 31.15625 C 59.179688 30.90625 58.183594 30.765625 56.941406 32.578125 C 56.835938 32.753906 56.726562 32.894531 56.621094 33.039062 C 56.160156 33.429688 55.519531 33.820312 54.949219 33.78125 L 54.917969 34.136719 C 55.304688 34.175781 55.660156 34.066406 56.015625 33.890625 C 54.773438 35.558594 54.0625 36.519531 54.632812 37.65625 C 55.023438 38.398438 55.519531 39.109375 55.910156 39.609375 C 56.265625 40.035156 56.515625 40.320312 56.515625 40.320312 L 57.652344 41.207031 L 57.6875 38.367188 C 57.402344 36.410156 59.675781 33.75 59.675781 33.75 C 59.675781 33.75 60.175781 33.710938 60.851562 33.605469 C 61.597656 33.5 62.554688 33.394531 63.265625 33.25 C 63.300781 33.890625 63.480469 34.882812 64.226562 35.632812 C 64.972656 36.410156 66.109375 36.800781 67.640625 36.800781 C 67.996094 36.800781 68.347656 36.765625 68.703125 36.730469 L 69.238281 39.644531 L 69.308594 40.035156 L 69.769531 39.644531 L 69.84375 39.609375 L 69.949219 39.574219 C 70.515625 39.21875 71.546875 37.121094 71.582031 36.164062 " fill-opacity="1" fill-rule="nonzero"/><path fill="#da624c" d="M 69.203125 41.207031 C 69.203125 41.808594 68.703125 42.308594 68.101562 42.308594 L 65.824219 42.308594 C 65.222656 42.308594 64.722656 41.808594 64.722656 41.207031 L 64.722656 39.785156 C 64.722656 39.183594 65.222656 38.683594 65.824219 38.683594 L 68.101562 38.683594 C 68.703125 38.683594 69.203125 39.183594 69.203125 39.785156 Z M 62.519531 41.207031 C 62.519531 41.808594 62.023438 42.308594 61.417969 42.308594 L 59.144531 42.308594 C 58.539062 42.308594 58.042969 41.808594 58.042969 41.207031 L 58.042969 39.785156 C 58.042969 39.183594 58.539062 38.683594 59.144531 38.683594 L 61.417969 38.683594 C 62.023438 38.683594 62.519531 39.183594 62.519531 39.785156 Z M 68.101562 38.257812 L 65.824219 38.257812 C 64.972656 38.257812 64.296875 38.933594 64.296875 39.785156 L 64.296875 40 C 64.121094 39.894531 63.871094 39.820312 63.621094 39.820312 C 63.375 39.820312 63.125 39.894531 62.945312 40.035156 L 62.945312 39.820312 C 62.945312 38.96875 62.273438 38.292969 61.417969 38.292969 L 59.144531 38.292969 C 58.292969 38.292969 57.617188 38.96875 57.617188 39.820312 L 57.617188 41.242188 C 57.617188 42.09375 58.292969 42.769531 59.144531 42.769531 L 61.417969 42.769531 C 62.273438 42.769531 62.945312 42.09375 62.945312 41.242188 L 62.945312 40.53125 C 63.054688 40.390625 63.300781 40.175781 63.621094 40.175781 C 63.941406 40.175781 64.191406 40.390625 64.296875 40.53125 L 64.296875 41.242188 C 64.296875 42.09375 64.972656 42.769531 65.824219 42.769531 L 68.101562 42.769531 C 68.953125 42.769531 69.628906 42.09375 69.628906 41.242188 L 69.628906 39.820312 C 69.628906 38.933594 68.953125 38.257812 68.101562 38.257812 " fill-opacity="1" fill-rule="nonzero"/><path fill="#b56951" d="M 111.351562 40.28125 C 113.589844 44.828125 113.054688 48.417969 112.34375 50.511719 C 112.34375 50.371094 112.34375 50.261719 112.34375 50.121094 C 112.417969 45.859375 112.023438 42.660156 111.351562 40.28125 Z M 103.746094 37.335938 C 103.746094 37.300781 102.925781 35.167969 101.898438 34.777344 C 101.648438 34.671875 101.398438 34.707031 101.1875 34.847656 L 100.617188 35.167969 L 100.9375 34.601562 C 100.9375 34.601562 101.683594 33.285156 103.105469 33.675781 L 103 34.03125 C 102.359375 33.855469 101.898438 34.136719 101.578125 34.386719 C 101.71875 34.386719 101.859375 34.421875 102.003906 34.457031 C 103.210938 34.882812 104.027344 37.121094 104.066406 37.230469 Z M 97.667969 41.136719 L 97.3125 41.101562 C 97.847656 36.554688 99.976562 35.277344 100.050781 35.238281 L 100.226562 35.558594 C 100.226562 35.523438 98.203125 36.765625 97.667969 41.136719 Z M 94.859375 60.417969 L 94.574219 60.207031 C 97.207031 56.902344 96.707031 49.339844 96.707031 49.269531 L 97.0625 49.230469 C 97.097656 49.550781 97.5625 57.011719 94.859375 60.417969 Z M 101.859375 33.179688 C 102.179688 32.96875 102.644531 32.96875 103.210938 33.109375 C 102.179688 33.179688 101.648438 33.535156 101.363281 33.855469 C 101.433594 33.640625 101.578125 33.355469 101.859375 33.179688 Z M 110.746094 38.4375 C 108.933594 34.03125 106.019531 33.285156 104.277344 33.144531 C 103.175781 32.613281 102.289062 32.539062 101.683594 32.894531 C 100.972656 33.324219 100.902344 34.175781 100.902344 34.351562 C 97.3125 33.710938 95.394531 39.394531 94.21875 46.425781 C 93.046875 50.085938 91.269531 54.3125 89.601562 54.132812 L 89.566406 54.488281 C 89.601562 54.488281 89.636719 54.488281 89.671875 54.488281 C 91.269531 54.488281 92.796875 51.398438 93.902344 48.378906 C 93.472656 51.363281 93.152344 54.488281 92.871094 57.4375 C 92.621094 60.03125 93.617188 61.914062 95.25 63.011719 C 99.265625 59.746094 98.945312 51.042969 98.945312 50.9375 L 99.300781 50.9375 C 99.339844 51.363281 99.621094 59.816406 95.570312 63.226562 C 99.835938 65.710938 107.9375 63.472656 111.066406 56.300781 C 111.101562 52.359375 109.609375 49.835938 109.609375 49.800781 L 109.929688 49.625 C 109.964844 49.660156 111.242188 51.894531 111.421875 55.449219 C 111.847656 54.277344 112.132812 52.996094 112.273438 51.613281 C 113.234375 49.585938 114.652344 44.722656 110.746094 38.4375 " fill-opacity="1" fill-rule="nonzero"/><path fill="#f7ccc6" d="M 111.632812 43.515625 C 111.171875 43.230469 110.675781 43.445312 110.285156 43.726562 L 109.464844 44.511719 L 109.074219 39.894531 C 108.1875 38.898438 102.644531 39.003906 102.644531 39.003906 C 102.644531 38.472656 101.683594 36.339844 101.398438 35.738281 C 101.328125 35.773438 101.257812 35.808594 101.1875 35.84375 L 100.296875 39.539062 L 97.632812 41.953125 L 97.632812 45.21875 L 96.992188 44.652344 C 96.671875 44.402344 96.316406 44.296875 95.960938 44.472656 C 94.859375 45.007812 95.820312 48.949219 98.414062 48.523438 C 98.414062 48.523438 98.414062 48.523438 98.449219 48.523438 C 99.160156 49.625 100.082031 50.511719 101.113281 51.082031 L 101.042969 52.605469 L 100.972656 53.816406 L 100.9375 54.558594 C 100.9375 54.558594 102.890625 56.371094 104.632812 56.015625 C 104.738281 55.980469 104.847656 55.980469 104.953125 55.945312 C 105.023438 55.910156 105.09375 55.910156 105.164062 55.875 C 105.238281 55.839844 105.308594 55.800781 105.414062 55.769531 C 105.488281 55.730469 105.519531 55.695312 105.59375 55.695312 C 105.628906 55.660156 105.699219 55.625 105.734375 55.625 C 105.84375 55.589844 105.914062 55.519531 106.019531 55.449219 C 106.054688 55.414062 106.089844 55.375 106.160156 55.34375 C 106.195312 55.304688 106.230469 55.269531 106.269531 55.234375 C 106.980469 54.703125 107.441406 54.027344 107.582031 53.816406 C 107.582031 53.777344 107.617188 53.777344 107.617188 53.777344 L 107.617188 53.707031 L 107.121094 50.40625 C 107.9375 49.730469 108.648438 48.84375 109.183594 47.8125 C 111.527344 48.167969 112.59375 44.082031 111.632812 43.515625 " fill-opacity="1" fill-rule="nonzero"/><path fill="#ffffff" d="M 107.085938 45.753906 C 107.085938 45.753906 103.355469 47.527344 100.652344 46.890625 C 100.652344 46.890625 102.464844 48.984375 104.207031 48.417969 C 105.949219 47.847656 107.085938 45.753906 107.085938 45.753906 Z M 102.074219 42.09375 C 102.074219 42.09375 101.683594 40.957031 100.867188 41.101562 C 100.050781 41.242188 98.484375 43.015625 98.484375 43.015625 C 98.484375 43.015625 101.859375 45.253906 102.074219 42.09375 Z M 105.09375 41.988281 C 105.09375 41.988281 105.203125 40.636719 106.300781 40.636719 C 107.40625 40.636719 108.542969 41.988281 108.542969 41.988281 C 108.542969 41.988281 106.269531 44.792969 105.09375 41.988281 " fill-opacity="1" fill-rule="nonzero"/><path fill="#100f0d" d="M 96.351562 45.363281 C 95.996094 45.324219 95.785156 45.539062 95.75 45.539062 L 95.996094 45.789062 C 95.996094 45.789062 96.105469 45.679688 96.316406 45.714844 C 96.566406 45.753906 96.921875 45.894531 97.453125 46.605469 L 97.738281 46.390625 C 97.277344 45.753906 96.78125 45.398438 96.351562 45.363281 Z M 109.609375 45.609375 L 109.929688 45.714844 C 110.355469 44.511719 111.421875 44.652344 111.457031 44.652344 L 111.527344 44.296875 C 111.492188 44.332031 110.105469 44.117188 109.609375 45.609375 Z M 103.53125 51.613281 L 103.425781 51.96875 C 103.601562 52.003906 103.816406 52.039062 103.992188 52.039062 C 104.703125 52.039062 105.378906 51.753906 105.414062 51.71875 L 105.273438 51.398438 C 105.273438 51.398438 104.3125 51.824219 103.53125 51.613281 Z M 104.808594 44.757812 L 104.277344 44.046875 L 103.992188 44.261719 L 104.527344 44.96875 Z M 103.355469 41.527344 C 103.355469 40.636719 102.25 40 102.214844 39.964844 L 102.039062 40.28125 C 102.289062 40.425781 103 40.957031 103 41.527344 C 103 42.308594 102.5 44.011719 102.5 44.046875 L 102.464844 44.117188 L 103.140625 45.433594 L 103.460938 45.289062 L 102.855469 44.082031 C 102.925781 43.726562 103.355469 42.234375 103.355469 41.527344 Z M 106.625 46.144531 C 106.195312 46.78125 105.308594 47.882812 104.136719 48.238281 C 103 48.59375 101.753906 47.707031 101.148438 47.136719 C 103.210938 47.421875 105.59375 46.570312 106.625 46.144531 Z M 104.242188 48.59375 C 106.019531 48.023438 107.15625 45.929688 107.226562 45.824219 L 107.476562 45.363281 L 106.980469 45.609375 C 106.941406 45.609375 103.28125 47.351562 100.652344 46.746094 L 100.121094 46.605469 L 100.476562 47.03125 C 100.546875 47.101562 101.96875 48.699219 103.53125 48.699219 C 103.816406 48.699219 104.027344 48.664062 104.242188 48.59375 Z M 102.109375 41.953125 C 102.109375 41.953125 101.933594 41.417969 101.542969 41.101562 C 101.363281 40.957031 101.148438 40.851562 100.867188 40.886719 C 99.976562 40.957031 98.589844 42.699219 98.589844 42.699219 L 97.988281 42.699219 L 98.484375 42.980469 C 98.484375 42.980469 99.125 42.308594 99.765625 41.773438 C 99.835938 42.164062 100.082031 43.160156 100.792969 42.980469 C 101.46875 42.804688 101.542969 41.808594 101.578125 41.3125 C 101.898438 41.597656 102.109375 41.953125 102.109375 41.953125 Z M 108.898438 41.703125 L 108.542969 42.09375 C 108.542969 42.09375 108.078125 41.632812 107.546875 41.242188 C 107.511719 41.597656 107.367188 42.484375 106.550781 42.589844 C 105.769531 42.734375 105.734375 41.5625 105.769531 40.992188 C 105.238281 41.347656 104.988281 41.917969 104.988281 41.917969 C 104.988281 41.917969 105.09375 40.601562 106.125 40.460938 C 107.15625 40.320312 108.542969 41.738281 108.542969 41.738281 L 108.898438 41.703125 " fill-opacity="1" fill-rule="nonzero"/><path fill="#b56951" d="M 101.007812 38.863281 C 101.113281 38.863281 101.1875 38.933594 101.257812 39.003906 C 101.433594 39.183594 101.683594 39.539062 101.46875 39.820312 C 101.292969 40.070312 100.296875 40.425781 99.65625 40.636719 C 99.339844 40.746094 99.054688 40.460938 99.125 40.140625 C 99.265625 39.539062 99.726562 38.753906 101.007812 38.863281 " fill-opacity="1" fill-rule="nonzero"/><path fill="#100f0d" d="M 97.773438 45.148438 L 97.417969 45.148438 L 97.417969 41.882812 L 99.976562 39.644531 L 100.972656 35.664062 L 101.328125 35.738281 L 100.296875 39.820312 L 97.773438 42.023438 L 97.773438 45.148438 " fill-opacity="1" fill-rule="nonzero"/><path fill="#b56951" d="M 104.808594 38.71875 C 104.808594 38.71875 105.09375 39.894531 106.625 39.820312 C 108.152344 39.75 107.226562 37.335938 104.808594 38.71875 Z M 101.328125 35.347656 C 101.363281 35.453125 102.179688 37.546875 102.039062 39.21875 L 101.683594 39.183594 C 101.824219 37.617188 101.007812 35.488281 101.007812 35.488281 L 101.328125 35.347656 " fill-opacity="1" fill-rule="nonzero"/><path fill="#b56951" d="M 154.882812 28.386719 C 154.207031 30.019531 152.929688 31.085938 152.003906 30.695312 C 151.898438 30.660156 151.789062 30.585938 151.71875 30.515625 C 151.402344 31.085938 151.007812 31.617188 150.582031 32.113281 L 150.976562 36.839844 L 153.210938 37.15625 C 153.210938 37.15625 150.441406 43.65625 146.070312 43.761719 C 141.699219 43.835938 139.351562 40.675781 139.210938 38.96875 L 142.195312 37.476562 L 142.480469 34.351562 C 141.558594 33.820312 140.773438 33.039062 140.136719 32.042969 C 139.28125 32.007812 138.285156 31.085938 137.683594 29.734375 C 136.972656 28.101562 137.078125 26.46875 137.96875 26.078125 C 138.074219 26.042969 138.214844 26.007812 138.324219 26.007812 C 138.324219 25.898438 138.324219 25.757812 138.324219 25.652344 C 138.324219 20.570312 141.949219 16.453125 146.035156 16.453125 C 150.121094 16.453125 153.425781 19.648438 153.425781 24.726562 C 153.425781 24.800781 153.425781 24.832031 153.425781 24.90625 C 153.816406 24.726562 154.171875 24.65625 154.492188 24.800781 C 155.378906 25.117188 155.558594 26.753906 154.882812 28.386719 " fill-opacity="1" fill-rule="nonzero"/><path fill="#ffffff" d="M 139.140625 24.871094 C 139.140625 24.871094 140.417969 22.277344 141.734375 22.84375 C 143.050781 23.414062 142.90625 24.371094 142.90625 24.371094 C 142.90625 24.371094 141.203125 26.21875 139.140625 24.871094 " fill-opacity="1" fill-rule="nonzero"/><path fill="#100f0d" d="M 142.695312 33.640625 L 142.695312 33.996094 C 140.453125 33.960938 139.28125 31.15625 138.679688 28.882812 C 138.214844 27.886719 137.929688 27.675781 137.824219 27.640625 C 137.789062 27.640625 137.753906 27.640625 137.753906 27.640625 L 137.503906 27.390625 C 137.574219 27.320312 137.683594 27.25 137.859375 27.285156 C 138.039062 27.320312 138.214844 27.460938 138.394531 27.675781 C 138.214844 26.753906 138.144531 26.042969 138.109375 25.96875 L 138.464844 25.933594 C 138.5 26.007812 139.316406 33.605469 142.695312 33.640625 Z M 151.542969 29.984375 L 151.863281 30.445312 L 151.578125 30.660156 L 151.257812 30.195312 Z M 154.882812 25.652344 L 154.742188 25.96875 C 154.742188 25.96875 154.316406 25.792969 153.816406 26.042969 C 153.320312 26.289062 152.929688 26.859375 152.644531 27.746094 L 152.289062 27.640625 C 152.574219 26.644531 153.035156 26.007812 153.640625 25.722656 C 154.316406 25.4375 154.882812 25.652344 154.882812 25.652344 Z M 143.722656 22.738281 L 143.972656 24.195312 L 142.835938 26.148438 L 142.515625 25.96875 L 143.582031 24.160156 L 143.367188 22.808594 Z M 149.375 22.878906 L 149.304688 23.234375 C 147.953125 22.917969 146.390625 24.015625 146.355469 24.015625 L 146.140625 23.734375 C 146.210938 23.660156 147.847656 22.492188 149.375 22.878906 Z M 148.699219 19.472656 C 149.089844 19.507812 149.445312 20.394531 149.410156 20.644531 C 149.375 20.890625 148.664062 20.359375 147.492188 20.539062 C 146.28125 20.75 145.75 21.53125 145.644531 21.390625 C 145.5 21.28125 145.75 19.863281 145.75 19.863281 C 147.207031 19.117188 148.308594 19.4375 148.699219 19.472656 Z M 139.78125 21.175781 C 139.28125 22.097656 139.601562 21.957031 139.601562 21.957031 C 140.808594 21.070312 142.90625 21.671875 143.085938 21.496094 C 143.261719 21.316406 142.835938 20.394531 142.835938 20.394531 C 141.839844 19.933594 140.277344 20.253906 139.78125 21.175781 Z M 142.941406 23.910156 C 142.941406 23.910156 142.195312 22.988281 141.449219 22.917969 C 141.238281 22.878906 140.917969 23.058594 140.632812 23.304688 C 140.917969 23.414062 141.519531 23.839844 141.34375 25.296875 C 141.34375 25.296875 140.382812 25.722656 139.175781 24.871094 L 139.636719 24.300781 C 139.351562 24.621094 139.175781 24.871094 139.175781 24.871094 C 139.175781 24.871094 140.136719 22.917969 141.164062 22.597656 C 142.195312 22.277344 142.941406 23.910156 142.941406 23.910156 " fill-opacity="1" fill-rule="nonzero"/><g clip-path="url(#ff7cde78b1)"><path fill="#100f0d" d="M 151.757812 16.878906 C 152.183594 16.984375 152.644531 17.164062 153.035156 17.589844 C 153.851562 18.40625 154.277344 19.71875 154.277344 21.566406 C 153.996094 19.828125 153.320312 17.835938 151.757812 16.878906 Z M 150.511719 14.425781 C 150.902344 14.570312 151.152344 14.746094 151.222656 14.960938 C 151.328125 15.28125 151.046875 15.636719 150.761719 15.921875 C 150.796875 15.457031 150.761719 14.890625 150.511719 14.425781 Z M 150.40625 15.707031 C 150.296875 15.28125 150.121094 14.746094 149.765625 14.25 C 149.835938 14.25 149.910156 14.285156 149.941406 14.285156 C 150.015625 14.355469 150.085938 14.464844 150.15625 14.570312 C 150.40625 14.890625 150.441406 15.316406 150.40625 15.707031 Z M 149.660156 16.273438 C 149.625 16.273438 149.625 16.273438 149.660156 16.273438 L 149.625 16.273438 C 149.625 16.273438 149.625 16.273438 149.625 16.238281 C 148.023438 14.074219 145.539062 15.492188 145.429688 15.566406 L 145.253906 15.246094 C 145.289062 15.246094 147.5625 13.929688 149.339844 15.421875 C 149.054688 14.890625 148.488281 14.320312 147.386719 14.464844 L 147.347656 14.109375 C 149.660156 13.824219 149.980469 16.203125 149.980469 16.203125 Z M 135.90625 20.074219 C 135.871094 19.4375 136.15625 18.867188 136.507812 18.371094 C 136.191406 19.578125 136.476562 20.964844 136.832031 21.816406 C 136.226562 21.28125 135.90625 20.679688 135.90625 20.074219 Z M 154.492188 23.660156 C 154.917969 20.609375 154.492188 18.476562 153.285156 17.304688 C 152.324219 16.378906 151.117188 16.378906 150.726562 16.417969 C 151.007812 16.167969 151.757812 15.492188 151.542969 14.820312 C 151.4375 14.394531 150.976562 14.109375 150.15625 13.929688 C 149.800781 13.613281 149.304688 13.363281 148.664062 13.292969 C 148.023438 12.972656 147.171875 12.757812 146 12.792969 C 143.867188 12.867188 142.835938 13.433594 141.949219 14.109375 C 140.808594 14.109375 139.957031 13.824219 139.671875 12.757812 L 139.316406 12.867188 C 139.636719 13.96875 140.453125 14.394531 141.484375 14.464844 C 140.738281 15.066406 139.992188 15.707031 138.640625 16.132812 C 137.96875 16.347656 137.433594 16.703125 137.078125 17.128906 C 136.402344 17.730469 135.480469 18.832031 135.515625 20.074219 C 135.550781 20.996094 136.121094 21.851562 137.21875 22.632812 C 137.824219 23.519531 138.394531 23.875 138.394531 23.875 C 138.394531 23.875 139.707031 19.117188 143.261719 17.269531 C 143.226562 17.304688 143.226562 17.375 143.191406 17.410156 C 142.90625 18.121094 143.050781 18.9375 143.652344 19.863281 L 143.9375 19.683594 C 143.40625 18.902344 143.261719 18.15625 143.511719 17.554688 C 143.582031 17.339844 143.722656 17.164062 143.867188 16.984375 C 145.429688 16.378906 147.347656 16.347656 149.730469 17.445312 C 149.765625 17.480469 151.082031 18.796875 150.335938 18.9375 C 150.335938 18.9375 152.929688 22.949219 151.789062 25.828125 L 153.355469 24.832031 C 153.355469 24.832031 153.886719 24.476562 154.421875 24.726562 C 154.457031 24.726562 154.492188 24.300781 154.492188 23.660156 " fill-opacity="1" fill-rule="nonzero"/></g><path fill="#b56951" d="M 146.355469 34.742188 C 146.140625 36.625 140.5625 40.035156 140.5625 40.035156 C 140.882812 33.429688 146.53125 32.859375 146.355469 34.742188 " fill-opacity="1" fill-rule="nonzero"/><path fill="#ffffff" d="M 149.089844 29.308594 C 149.304688 31.191406 147.5625 32.894531 145.253906 33.179688 C 142.90625 33.429688 140.847656 32.148438 140.632812 30.269531 C 140.417969 28.386719 142.160156 26.679688 144.472656 26.398438 C 146.78125 26.113281 148.878906 27.425781 149.089844 29.308594 " fill-opacity="1" fill-rule="nonzero"/><path fill="#100f0d" d="M 145.074219 26.539062 C 144.898438 26.539062 144.683594 26.539062 144.503906 26.574219 C 142.269531 26.824219 140.597656 28.457031 140.808594 30.230469 C 140.917969 31.085938 141.414062 31.828125 142.230469 32.363281 C 143.085938 32.894531 144.117188 33.109375 145.214844 33.003906 C 147.457031 32.753906 149.125 31.121094 148.914062 29.34375 C 148.804688 28.492188 148.308594 27.746094 147.492188 27.210938 C 146.78125 26.753906 145.964844 26.539062 145.074219 26.539062 Z M 144.613281 33.394531 C 143.652344 33.394531 142.765625 33.144531 142.019531 32.683594 C 141.09375 32.113281 140.527344 31.261719 140.417969 30.304688 C 140.207031 28.351562 141.984375 26.503906 144.433594 26.253906 C 145.609375 26.113281 146.746094 26.359375 147.667969 26.929688 C 148.59375 27.496094 149.160156 28.351562 149.269531 29.308594 C 149.480469 31.261719 147.703125 33.109375 145.253906 33.355469 C 145.039062 33.355469 144.828125 33.394531 144.613281 33.394531 " fill-opacity="1" fill-rule="nonzero"/><path fill="#da624c" d="M 145.820312 38.398438 C 143.796875 38.613281 142.445312 37.441406 142.230469 35.808594 L 141.203125 30.660156 C 141.023438 29.023438 142.515625 27.535156 144.542969 27.320312 C 146.566406 27.109375 148.378906 28.242188 148.558594 29.84375 L 148.59375 35.132812 C 148.804688 36.765625 147.847656 38.1875 145.820312 38.398438 " fill-opacity="1" fill-rule="nonzero"/><path fill="#100f0d" d="M 145.183594 38.257812 C 145.144531 38.257812 145.109375 38.257812 145.074219 38.257812 C 145.039062 38.257812 145.003906 38.257812 144.96875 38.257812 C 143.902344 38.117188 143.050781 37.511719 142.980469 36.660156 C 142.90625 36.164062 143.121094 35.664062 143.582031 35.277344 C 144.042969 34.847656 144.683594 34.566406 145.394531 34.492188 C 145.539062 34.492188 145.679688 34.457031 145.820312 34.457031 C 147.101562 34.457031 148.132812 35.132812 148.238281 36.058594 C 148.308594 36.554688 148.09375 37.050781 147.632812 37.441406 C 147.171875 37.867188 146.53125 38.152344 145.855469 38.222656 C 145.570312 38.257812 145.359375 38.257812 145.183594 38.257812 Z M 141.414062 30.660156 C 141.34375 29.949219 141.628906 29.203125 142.195312 28.597656 C 142.800781 27.996094 143.652344 27.605469 144.578125 27.496094 C 144.753906 27.460938 144.898438 27.460938 145.074219 27.460938 C 145.820312 27.460938 146.566406 27.675781 147.171875 28.03125 C 147.882812 28.492188 148.308594 29.132812 148.414062 29.84375 L 148.449219 35.167969 C 148.488281 35.382812 148.488281 35.558594 148.449219 35.738281 C 148.132812 34.671875 146.78125 33.960938 145.289062 34.105469 C 144.503906 34.175781 143.796875 34.492188 143.261719 34.992188 C 142.800781 35.417969 142.550781 35.914062 142.550781 36.410156 C 142.480469 36.199219 142.445312 36.019531 142.410156 35.773438 Z M 148.804688 35.132812 L 148.769531 29.804688 C 148.664062 28.953125 148.167969 28.242188 147.386719 27.710938 C 146.601562 27.210938 145.609375 27 144.578125 27.109375 C 143.546875 27.210938 142.625 27.640625 141.984375 28.3125 C 141.308594 28.988281 140.988281 29.804688 141.09375 30.660156 L 142.125 35.808594 C 142.230469 36.660156 142.625 37.40625 143.296875 37.902344 C 143.796875 38.292969 144.433594 38.507812 145.144531 38.542969 C 145.253906 38.542969 145.324219 38.542969 145.429688 38.542969 C 145.570312 38.542969 145.714844 38.542969 145.890625 38.507812 L 145.925781 38.507812 C 147.8125 38.367188 149.019531 36.980469 148.804688 35.132812 " fill-opacity="1" fill-rule="nonzero"/><path fill="#b56951" d="M 146.921875 31.441406 C 146.921875 31.441406 148.34375 33.324219 146.140625 32.894531 C 146.140625 32.894531 146.992188 33.640625 145.964844 33.75 C 144.898438 33.855469 143.050781 34.066406 143.050781 34.066406 C 143.050781 34.066406 142.65625 37.617188 140.953125 39.609375 C 140.953125 39.609375 140.277344 43.65625 138.925781 45.503906 C 138.109375 46.640625 135.089844 42.34375 135.089844 42.34375 L 138.75 35.84375 C 138.925781 33.78125 139.246094 30.621094 139.707031 29.914062 C 140.382812 28.777344 141.023438 26.753906 141.769531 26.679688 C 142.550781 26.644531 143.546875 26.574219 143.9375 26.679688 C 144.328125 26.785156 145.214844 27.390625 145.253906 27.566406 C 145.253906 27.746094 144.542969 28.667969 142.871094 27.886719 L 142.445312 27.921875 L 142.089844 28.988281 C 142.871094 28.632812 143.796875 28.3125 144.292969 28.386719 C 145.183594 28.527344 147.347656 29.34375 147.527344 30.695312 C 147.703125 32.113281 146.921875 31.441406 146.921875 31.441406 " fill-opacity="1" fill-rule="nonzero"/><path fill="#100f0d" d="M 147.207031 32.328125 C 147.136719 32.042969 146.957031 31.722656 146.816406 31.582031 C 146.710938 31.511719 146.566406 31.402344 146.390625 31.296875 C 146.390625 31.546875 146.496094 32.042969 146.746094 32.257812 C 146.886719 32.328125 147.03125 32.363281 147.207031 32.328125 Z M 147.386719 30.941406 C 147.386719 30.90625 147.386719 30.90625 147.386719 30.871094 C 147.386719 30.621094 147.277344 30.304688 146.78125 29.804688 C 146.78125 30.054688 146.816406 30.445312 146.992188 30.695312 C 147.101562 30.835938 147.242188 30.90625 147.386719 30.941406 Z M 147.3125 31.6875 C 147.492188 31.972656 147.632812 32.398438 147.492188 32.789062 C 147.457031 32.929688 147.347656 33.003906 147.207031 33.074219 C 147.101562 33.109375 146.992188 33.144531 146.851562 33.144531 C 146.78125 33.144531 146.710938 33.144531 146.601562 33.144531 C 146.675781 33.25 146.675781 33.355469 146.636719 33.464844 C 146.460938 34.136719 144.1875 34.246094 143.050781 34.28125 L 142.410156 34.601562 L 142.269531 34.28125 L 142.90625 33.960938 L 142.90625 33.925781 C 144.007812 33.890625 145.074219 33.78125 145.714844 33.640625 C 145.183594 33.5 144.789062 33.039062 144.753906 33.003906 L 145.039062 32.789062 C 145.039062 32.789062 145.679688 33.535156 146.28125 33.324219 C 146.246094 33.285156 146.175781 33.214844 146.035156 33.109375 C 146 33.109375 143.9375 31.902344 142.730469 32.363281 C 141.484375 32.824219 141.023438 33.535156 141.023438 33.535156 L 140.738281 33.324219 C 140.773438 33.285156 141.273438 32.503906 142.625 32.007812 C 143.617188 31.617188 145.003906 32.183594 145.75 32.539062 C 146.140625 32.683594 146.816406 32.894531 147.101562 32.789062 C 147.136719 32.753906 147.171875 32.753906 147.171875 32.71875 C 147.136719 32.71875 147.101562 32.71875 147.066406 32.71875 C 146.886719 32.71875 146.710938 32.683594 146.566406 32.578125 C 146.070312 32.183594 146.070312 31.296875 146.070312 31.261719 L 146.320312 31.261719 C 145.644531 30.800781 144.648438 30.195312 144.1875 30.125 C 143.582031 30.054688 142.160156 30.660156 141.664062 30.871094 L 141.519531 30.550781 C 141.59375 30.515625 143.441406 29.699219 144.257812 29.769531 C 145.039062 29.84375 146.886719 31.191406 147.101562 31.332031 L 147.136719 31.371094 C 147.136719 31.371094 147.171875 31.402344 147.207031 31.441406 C 147.242188 31.402344 147.277344 31.371094 147.347656 31.296875 C 147.136719 31.261719 146.957031 31.15625 146.816406 30.976562 C 146.425781 30.480469 146.53125 29.628906 146.53125 29.59375 C 146.425781 29.488281 146.28125 29.414062 146.105469 29.308594 L 146.320312 29.023438 C 147.347656 29.699219 147.847656 30.375 147.847656 30.941406 C 147.738281 31.332031 147.457031 31.617188 147.3125 31.6875 Z M 141.308594 39.324219 C 141.984375 38.683594 142.480469 37.230469 142.550781 37.050781 L 142.230469 36.945312 C 142.054688 37.476562 141.449219 38.933594 140.882812 39.253906 L 140.988281 39.464844 C 140.5625 41.027344 139.425781 44.9375 138.75 45.503906 L 138.996094 45.753906 C 139.78125 45.042969 140.917969 41.027344 141.273438 39.75 L 141.308594 39.785156 L 143.691406 38.117188 L 143.476562 37.832031 Z M 138.925781 35.949219 L 135.230469 42.449219 L 134.910156 42.273438 L 138.570312 35.808594 C 138.605469 35.382812 138.996094 31.9375 139.175781 30.941406 C 139.210938 30.765625 139.28125 30.621094 139.390625 30.445312 L 139.28125 30.410156 C 139.28125 30.410156 139.851562 28.882812 140.667969 27.566406 C 141.519531 26.148438 143.722656 26.46875 143.832031 26.46875 L 143.796875 26.679688 L 143.902344 26.644531 C 143.902344 26.679688 144.042969 27.535156 144.828125 27.710938 C 145.003906 27.535156 145.039062 27.355469 145.039062 27.355469 L 145.394531 27.460938 C 145.394531 27.496094 145.253906 27.996094 144.683594 28.277344 C 144.433594 28.421875 144.117188 28.492188 143.796875 28.492188 C 143.476562 28.492188 143.121094 28.421875 142.730469 28.3125 L 142.835938 27.960938 C 143.511719 28.171875 144.078125 28.171875 144.503906 27.996094 C 143.9375 27.746094 143.652344 27.179688 143.582031 26.824219 C 143.050781 26.785156 141.558594 26.785156 140.988281 27.78125 C 140.492188 28.597656 140.097656 29.449219 139.886719 30.019531 C 140.667969 29.378906 141.839844 28.988281 142.019531 28.917969 L 142.125 29.238281 C 141.449219 29.488281 139.671875 30.230469 139.53125 31.046875 C 139.351562 32.078125 138.925781 35.878906 138.925781 35.949219 " fill-opacity="1" fill-rule="nonzero"/><path fill="#f7ccc6" d="M 113.730469 146.402344 C 109.003906 154.144531 106.300781 149.066406 105.308594 146.332031 C 106.019531 143.3125 107.050781 138.730469 107.050781 138.730469 C 109.253906 139.511719 112.132812 138.730469 112.132812 138.730469 C 112.132812 138.730469 113.160156 143.488281 113.730469 146.402344 " fill-opacity="1" fill-rule="nonzero"/><path fill="#da624c" d="M 114.121094 148.570312 C 114.15625 149.386719 111.101562 156.417969 110 156.703125 C 108.898438 156.984375 104.492188 149.3125 104.703125 148.886719 C 104.777344 148.746094 105.023438 147.714844 105.34375 146.332031 C 106.339844 149.066406 109.003906 154.109375 113.765625 146.402344 C 113.980469 147.503906 114.121094 148.355469 114.121094 148.570312 " fill-opacity="1" fill-rule="nonzero"/><path fill="#100f0d" d="M 113.160156 142.78125 L 112.308594 138.730469 L 111.953125 138.800781 L 112.804688 142.851562 Z M 113.410156 151.234375 L 113.089844 151.089844 C 114.121094 148.886719 113.910156 147.46875 113.730469 146.863281 C 113.234375 147.824219 111.632812 150.414062 109.359375 150.699219 C 107.15625 150.984375 105.84375 148.25 105.378906 147.003906 L 104.953125 148.816406 C 104.917969 148.957031 104.953125 149.101562 104.988281 149.242188 C 106.625 152.582031 108.933594 156.488281 110.035156 156.558594 L 110 156.914062 C 108.472656 156.808594 105.769531 151.621094 104.667969 149.421875 C 104.5625 149.207031 104.527344 148.996094 104.597656 148.746094 L 105.164062 146.332031 L 106.90625 138.730469 L 107.261719 138.800781 L 105.558594 146.367188 C 105.699219 146.828125 106.980469 150.628906 109.359375 150.34375 C 111.917969 150.023438 113.625 146.402344 113.625 146.367188 L 113.765625 146.082031 L 113.941406 146.367188 C 113.941406 146.402344 114.9375 148.035156 113.410156 151.234375 " fill-opacity="1" fill-rule="nonzero"/><path fill="#100f0d" d="M 109.609375 76.011719 L 98.910156 76.011719 L 98.910156 75.65625 L 109.609375 75.65625 Z M 107.367188 82.972656 C 107.226562 83.042969 107.085938 83.042969 107.011719 83.007812 C 106.625 82.792969 105.734375 80.34375 105.238281 78.640625 L 105.09375 77.789062 L 104.917969 78.640625 C 104.347656 80.378906 103.035156 83.007812 102.074219 82.828125 C 101.257812 82.652344 100.757812 82.011719 100.546875 81.65625 C 100.191406 81.054688 100.121094 80.523438 100.191406 80.238281 C 100.332031 79.8125 102.714844 78.214844 104.917969 76.898438 C 106.835938 77.789062 109.679688 79.457031 109.429688 80.34375 C 109.109375 81.480469 108.042969 82.6875 107.367188 82.972656 Z M 108.078125 85.457031 L 106.550781 85.992188 L 105.699219 81.125 C 106.089844 82.15625 106.515625 83.183594 106.871094 83.363281 C 106.941406 83.398438 107.050781 83.433594 107.121094 83.433594 C 107.226562 83.433594 107.367188 83.398438 107.511719 83.328125 C 107.546875 83.328125 107.582031 83.292969 107.582031 83.292969 Z M 103.316406 85.8125 L 101.683594 85.457031 L 102.5 83.183594 C 103.28125 82.9375 103.957031 81.800781 104.492188 80.734375 Z M 109.75 80.449219 C 110.175781 78.960938 105.519531 76.792969 104.953125 76.542969 L 104.882812 76.507812 L 104.808594 76.542969 C 104.027344 77.007812 100.050781 79.386719 99.835938 80.128906 C 99.695312 80.558594 99.871094 81.230469 100.226562 81.835938 C 100.476562 82.261719 101.042969 82.972656 102.003906 83.183594 C 102.039062 83.183594 102.074219 83.183594 102.074219 83.183594 L 101.1875 85.671875 L 103.566406 86.203125 L 105.058594 79.597656 L 106.269531 86.453125 L 108.507812 85.707031 L 107.902344 83.078125 C 108.683594 82.546875 109.5 81.410156 109.75 80.449219 Z M 105.058594 96.324219 Z M 118.527344 95.828125 L 113.234375 116.074219 L 113.019531 138.125 C 112.628906 138.269531 111.3125 138.695312 109.855469 138.871094 L 109.429688 120.296875 L 109.074219 120.296875 L 109.5 138.871094 C 108.042969 138.980469 106.515625 138.765625 105.804688 137.59375 C 105.628906 136.351562 101.257812 104.921875 106.765625 91.957031 L 106.445312 91.816406 C 105.875 93.128906 105.449219 94.585938 105.058594 96.21875 L 97.523438 88.296875 L 97.277344 88.546875 L 104.382812 95.96875 L 100.792969 94.515625 L 100.652344 94.835938 L 104.988281 96.609375 C 102.855469 106.449219 103.710938 120.972656 104.5625 129.851562 C 98.058594 120.617188 91.304688 92.3125 91.234375 92.027344 L 90.878906 92.101562 C 90.949219 92.382812 97.953125 121.789062 104.597656 130.5625 C 105.023438 134.789062 105.414062 137.59375 105.414062 137.667969 L 105.449219 137.738281 C 106.125 138.871094 107.441406 139.226562 108.828125 139.226562 C 110.921875 139.226562 113.089844 138.410156 113.234375 138.339844 L 113.339844 138.304688 L 113.554688 116.074219 L 118.847656 95.863281 L 118.527344 95.828125 " fill-opacity="1" fill-rule="nonzero"/><path fill="#ffffff" d="M 109.609375 75.691406 L 99.371094 75.691406 L 99.371094 75.511719 L 100.902344 54.382812 C 100.902344 54.382812 102.820312 56.40625 104.5625 56.015625 C 104.667969 55.980469 104.777344 55.980469 104.882812 55.945312 C 104.953125 55.910156 105.023438 55.910156 105.09375 55.875 C 105.164062 55.839844 105.238281 55.800781 105.34375 55.769531 C 105.414062 55.730469 105.449219 55.695312 105.519531 55.695312 C 105.558594 55.660156 105.628906 55.625 105.664062 55.625 C 105.769531 55.589844 105.84375 55.519531 105.949219 55.449219 C 105.984375 55.414062 106.019531 55.375 106.089844 55.34375 C 106.125 55.304688 106.160156 55.269531 106.195312 55.234375 C 106.90625 54.703125 107.367188 54.027344 107.511719 53.816406 C 107.511719 53.777344 107.546875 53.777344 107.546875 53.777344 L 109.609375 75.550781 L 109.609375 75.691406 " fill-opacity="1" fill-rule="nonzero"/><path fill="#100f0d" d="M 104.808594 60.382812 C 104.808594 60.5625 104.667969 60.667969 104.527344 60.667969 C 104.347656 60.667969 104.242188 60.527344 104.242188 60.382812 C 104.242188 60.242188 104.382812 60.101562 104.527344 60.101562 C 104.667969 60.0625 104.808594 60.207031 104.808594 60.382812 Z M 105.164062 60.382812 C 105.164062 60.03125 104.882812 59.746094 104.527344 59.746094 C 104.171875 59.746094 103.886719 60.03125 103.886719 60.382812 C 103.886719 60.738281 104.171875 61.023438 104.527344 61.023438 C 104.882812 61.023438 105.164062 60.738281 105.164062 60.382812 Z M 106.695312 60.738281 C 105.628906 60.738281 104.808594 58.820312 104.453125 57.722656 C 104.242188 58.644531 103.710938 60.171875 102.785156 60.632812 C 101.433594 61.308594 99.65625 58.324219 99.445312 58.003906 L 99.765625 57.828125 C 100.261719 58.679688 101.753906 60.773438 102.644531 60.3125 C 103.78125 59.746094 104.242188 57.011719 104.242188 56.976562 L 104.382812 56.15625 L 104.597656 56.976562 C 104.847656 57.96875 105.734375 60.492188 106.730469 60.382812 C 107.722656 60.3125 108.789062 57.863281 109.109375 56.941406 L 109.429688 57.046875 C 109.289062 57.402344 108.152344 60.597656 106.730469 60.703125 C 106.730469 60.738281 106.730469 60.738281 106.695312 60.738281 " fill-opacity="1" fill-rule="nonzero"/><path fill="#da624c" d="M 101.46875 79.347656 L 99.695312 71.25 L 100.9375 53.777344 C 89.8125 55.519531 87.71875 69.582031 87.71875 69.582031 C 84.589844 78.070312 88.570312 83.257812 88.570312 83.257812 C 88.570312 83.257812 87.21875 98.847656 88.570312 98.953125 C 89.707031 99.027344 92.085938 94.550781 99.230469 92.632812 L 99.339844 81.585938 C 100.6875 80.449219 101.46875 79.347656 101.46875 79.347656 Z M 122.648438 85.5625 C 122.648438 85.5625 124.109375 98.988281 123.183594 98.988281 C 122.472656 98.988281 117.746094 94.265625 110.675781 92.527344 L 109.574219 75.511719 L 107.511719 53.742188 L 107.511719 53.671875 C 111.3125 54.203125 114.511719 56.050781 117 60.242188 L 119.773438 59.285156 C 119.773438 59.285156 126.949219 75.335938 122.1875 80.167969 C 122.367188 81.871094 122.542969 83.648438 122.648438 85.5625 " fill-opacity="1" fill-rule="nonzero"/><path fill="#100f0d" d="M 99.585938 67.984375 C 99.585938 66.917969 100.367188 66.066406 101.398438 65.925781 L 101.398438 69.761719 C 101.398438 69.867188 101.398438 69.972656 101.433594 70.082031 C 100.367188 69.9375 99.585938 69.050781 99.585938 67.984375 Z M 108.1875 64.574219 L 101.398438 64.574219 C 101.398438 64.648438 101.398438 64.753906 101.398438 64.824219 L 101.398438 65.214844 C 99.976562 65.355469 98.875 66.5625 98.875 68.019531 C 98.875 69.582031 100.121094 70.824219 101.683594 70.824219 C 102.039062 71.429688 102.679688 71.820312 103.425781 71.820312 L 106.195312 71.820312 C 107.296875 71.820312 108.222656 70.894531 108.222656 69.796875 L 108.222656 64.824219 C 108.222656 64.71875 108.222656 64.648438 108.1875 64.574219 " fill-opacity="1" fill-rule="nonzero"/><path fill="#f7ccc6" d="M 100.332031 74.199219 C 101.542969 74.164062 102.535156 72.316406 102.535156 72.316406 C 102.535156 72.316406 105.949219 70.753906 105.949219 70.222656 C 105.949219 69.6875 105.378906 69.726562 105.378906 69.726562 C 105.378906 69.726562 105.984375 69.832031 106.300781 69.261719 C 106.625 68.695312 105.628906 68.730469 105.628906 68.730469 C 105.628906 68.730469 106.515625 68.765625 106.585938 68.128906 C 106.695312 67.523438 105.84375 67.664062 105.84375 67.664062 C 105.84375 67.664062 106.625 67.488281 106.445312 66.917969 C 106.269531 66.386719 102.25 66.351562 101.46875 66.917969 C 100.6875 67.488281 99.800781 71.679688 99.800781 71.679688 Z M 115.542969 60.882812 L 115.332031 58.109375 C 115.332031 58.109375 112.949219 55.695312 112.734375 55.058594 C 112.523438 54.417969 111.953125 52.535156 112.59375 52.179688 C 113.269531 51.824219 114.121094 54.417969 114.121094 54.417969 L 115.152344 54.949219 C 115.152344 54.949219 116.289062 48.273438 117.140625 47.632812 C 117.996094 46.996094 117.851562 48.167969 117.851562 48.167969 C 117.851562 48.167969 118.101562 47.457031 118.597656 47.457031 C 119.097656 47.457031 118.882812 48.449219 118.882812 48.449219 C 118.882812 48.449219 119.132812 47.917969 119.59375 47.953125 C 120.058594 47.988281 119.558594 50.796875 119.273438 52.429688 C 119.273438 52.429688 119.914062 50.40625 120.445312 50.261719 C 120.980469 50.121094 120.414062 53.707031 119.027344 57.367188 L 119.417969 59.460938 L 115.542969 60.882812 " fill-opacity="1" fill-rule="nonzero"/><path fill="#da624c" d="M 106.269531 67.773438 C 105.984375 67.453125 105.273438 67.773438 105.273438 67.773438 C 105.34375 68.835938 106.550781 68.089844 106.269531 67.773438 Z M 105.628906 69.761719 C 105.058594 69.617188 104.597656 70.117188 104.597656 70.117188 C 105.132812 70.683594 106.195312 69.867188 105.628906 69.761719 Z M 106.089844 68.765625 C 105.628906 68.625 105.09375 68.800781 105.09375 68.800781 C 105.59375 69.511719 106.515625 68.871094 106.089844 68.765625 Z M 105.914062 67.097656 C 105.34375 67.167969 105.09375 66.527344 105.09375 66.527344 C 106.980469 66.527344 106.480469 67.027344 105.914062 67.097656 " fill-opacity="1" fill-rule="nonzero"/><path fill="#100f0d" d="M 120.660156 50.191406 C 120.625 50.121094 120.519531 50.085938 120.445312 50.085938 C 120.234375 50.085938 120.019531 50.296875 119.84375 50.617188 C 120.019531 49.585938 120.128906 48.558594 119.949219 48.167969 C 119.808594 47.847656 119.628906 47.777344 119.488281 47.777344 C 119.347656 47.777344 119.203125 47.847656 119.0625 47.953125 C 119.027344 47.742188 118.992188 47.492188 118.882812 47.386719 C 118.8125 47.316406 118.742188 47.277344 118.636719 47.277344 C 118.386719 47.277344 118.171875 47.492188 118.03125 47.671875 C 117.996094 47.492188 117.886719 47.316406 117.746094 47.246094 C 117.570312 47.171875 117.390625 47.246094 117.214844 47.457031 L 117.179688 47.492188 C 117.105469 47.597656 115.792969 49.835938 115.082031 54.703125 L 114.335938 54.3125 C 114.15625 53.777344 113.445312 51.824219 112.59375 52.039062 C 112.449219 52.074219 112.34375 52.144531 112.273438 52.285156 C 111.882812 52.960938 112.523438 54.914062 112.59375 55.128906 L 112.628906 55.164062 C 112.84375 55.449219 114.761719 57.933594 115.257812 58.253906 L 115.4375 57.96875 C 115.082031 57.753906 113.730469 56.050781 112.914062 54.988281 C 112.664062 54.203125 112.34375 52.855469 112.558594 52.464844 C 112.59375 52.394531 112.628906 52.394531 112.664062 52.394531 C 113.089844 52.285156 113.695312 53.601562 114.015625 54.488281 L 114.050781 54.558594 L 116.21875 55.695312 L 116.394531 55.375 L 115.4375 54.878906 C 116.113281 50.191406 117.390625 47.882812 117.496094 47.671875 C 117.605469 47.5625 117.640625 47.5625 117.640625 47.5625 C 117.710938 47.597656 117.78125 47.917969 117.78125 48.132812 L 116.824219 53.066406 L 117.179688 53.140625 L 118.101562 48.273438 C 118.242188 48.023438 118.492188 47.671875 118.671875 47.671875 C 118.742188 47.742188 118.777344 48.097656 118.777344 48.449219 L 118.101562 52.960938 L 118.457031 52.996094 L 119.132812 48.59375 L 119.167969 48.59375 C 119.167969 48.558594 119.167969 48.523438 119.167969 48.488281 C 119.273438 48.34375 119.453125 48.132812 119.558594 48.132812 C 119.59375 48.132812 119.664062 48.203125 119.734375 48.308594 C 119.949219 48.734375 119.59375 50.757812 119.273438 52.25 C 119.238281 52.359375 119.238281 52.429688 119.203125 52.535156 C 119.097656 52.855469 118.882812 53.742188 119.273438 53.992188 L 119.453125 53.707031 C 119.378906 53.636719 119.378906 53.316406 119.453125 52.925781 C 119.453125 52.890625 119.488281 52.785156 119.523438 52.679688 L 119.523438 52.640625 C 119.523438 52.570312 119.558594 52.464844 119.59375 52.394531 C 119.878906 51.507812 120.269531 50.6875 120.445312 50.511719 C 120.554688 51.222656 119.84375 55.199219 118.882812 57.507812 L 118.847656 57.542969 L 119.308594 59.496094 L 119.664062 59.425781 L 119.238281 57.578125 C 120.089844 55.304688 121.015625 50.726562 120.660156 50.191406 Z M 118.386719 57.367188 L 118.457031 57.933594 L 118.8125 57.898438 L 118.742188 57.328125 Z M 104.703125 66.707031 L 104.703125 66.351562 C 104.421875 66.351562 102.074219 66.28125 101.433594 66.707031 C 100.722656 67.167969 100.867188 67.773438 100.867188 67.808594 L 101.222656 67.734375 C 101.222656 67.734375 101.148438 67.34375 101.648438 66.988281 C 102.109375 66.707031 103.992188 66.707031 104.703125 66.707031 Z M 102.039062 72.351562 L 102.429688 72.496094 L 102.535156 72.175781 L 102.144531 72.035156 Z M 102.644531 70.363281 L 102.890625 70.613281 C 103.070312 70.398438 104.207031 70.152344 104.917969 70.042969 L 104.847656 69.6875 C 104.5625 69.726562 102.960938 70.007812 102.644531 70.363281 Z M 102.394531 69.15625 L 102.644531 69.40625 C 102.855469 69.191406 104.171875 68.980469 105.058594 68.871094 L 105.023438 68.515625 C 104.632812 68.589844 102.785156 68.765625 102.394531 69.15625 Z M 105.09375 67.453125 L 105.09375 67.808594 C 104.492188 67.773438 102.820312 67.84375 102.324219 68.269531 L 102.109375 67.984375 C 102.785156 67.382812 105.023438 67.453125 105.09375 67.453125 " fill-opacity="1" fill-rule="nonzero"/><path fill="#100f0d" d="M 89.246094 95.828125 L 89.601562 95.828125 L 89.601562 98.277344 L 89.246094 98.277344 Z M 90.914062 94.585938 L 91.269531 94.585938 L 91.269531 97.070312 L 90.914062 97.070312 Z M 92.761719 93.199219 L 93.117188 93.199219 L 93.117188 95.578125 L 92.761719 95.578125 Z M 94.824219 92.132812 L 95.179688 92.132812 L 95.179688 94.335938 L 94.824219 94.335938 Z M 96.921875 91.035156 L 97.277344 91.035156 L 97.277344 93.199219 L 96.921875 93.199219 Z M 101.007812 77.679688 L 101.222656 77.964844 L 98.378906 80.308594 L 98.164062 80.023438 Z M 97.027344 78.035156 L 100.617188 75.796875 L 100.792969 76.082031 L 97.207031 78.320312 Z M 96.140625 76.222656 L 100.261719 74.023438 L 100.4375 74.34375 L 96.316406 76.542969 Z M 95.285156 74.554688 L 99.871094 72.316406 L 100.011719 72.636719 L 95.429688 74.875 Z M 89.496094 75.511719 L 95.003906 72.992188 C 94.292969 72.496094 92.054688 71.074219 90.382812 71.21875 L 90.347656 70.863281 C 91.839844 70.753906 93.617188 71.679688 94.648438 72.316406 L 91.875 59.425781 L 92.230469 59.355469 L 95.074219 72.601562 C 95.214844 72.707031 95.320312 72.777344 95.394531 72.816406 L 97.738281 71.714844 C 96.070312 66.707031 97.988281 54.988281 98.09375 54.488281 L 98.449219 54.558594 C 98.414062 54.667969 96.460938 66.632812 98.09375 71.605469 L 99.65625 70.894531 L 99.800781 71.21875 L 98.203125 71.960938 L 98.203125 71.996094 L 97.878906 72.140625 L 89.671875 75.90625 Z M 99.195312 81.480469 L 99.480469 81.695312 C 99.371094 81.835938 96.742188 84.890625 93.507812 85.351562 C 92.085938 86.097656 90.5625 87.128906 90.5625 87.484375 C 90.523438 88.191406 90.5625 91.246094 90.5625 91.28125 L 90.207031 91.28125 C 90.207031 91.140625 90.167969 88.191406 90.207031 87.484375 C 90.238281 86.878906 91.699219 85.957031 92.65625 85.421875 C 91.234375 85.421875 89.882812 84.820312 88.746094 83.683594 C 88.214844 90.75 88.035156 98.351562 88.710938 98.8125 L 88.5 99.097656 C 87.324219 98.316406 88.214844 85.742188 88.429688 83.257812 L 88.464844 82.828125 L 88.746094 83.148438 C 89.921875 84.464844 91.269531 85.101562 92.761719 85.066406 C 96.140625 85.03125 99.160156 81.515625 99.195312 81.480469 Z M 112.84375 90.679688 L 113.199219 90.679688 L 113.199219 93.234375 L 112.84375 93.234375 Z M 115.007812 91.316406 L 115.363281 91.316406 L 115.363281 94.160156 L 115.007812 94.160156 Z M 116.679688 91.886719 L 117.035156 91.886719 L 117.035156 94.941406 L 116.679688 94.941406 Z M 118.351562 92.527344 L 118.707031 92.527344 L 118.707031 95.863281 L 118.351562 95.863281 Z M 120.554688 93.308594 L 120.730469 97.214844 L 120.375 97.214844 L 120.199219 93.308594 Z M 110.675781 54.417969 C 110.78125 55.199219 113.234375 73.347656 110.675781 79.421875 L 110.355469 79.277344 C 112.878906 73.277344 110.355469 54.632812 110.355469 54.453125 Z M 118.527344 66.457031 L 117.53125 60.0625 L 117.886719 59.992188 L 118.882812 66.386719 Z M 120.519531 65.605469 L 118.742188 59.636719 L 119.097656 59.53125 L 120.875 65.5 Z M 120.199219 90.679688 L 120.199219 86.488281 C 119.773438 85.742188 115.71875 84.214844 113.269531 83.398438 L 113.375 83.042969 C 114.050781 83.257812 120.058594 85.210938 120.554688 86.34375 L 120.554688 90.644531 L 120.199219 90.644531 Z M 117.070312 82.582031 C 117.390625 82.722656 117.710938 82.792969 118.066406 82.792969 C 119.273438 82.792969 120.695312 81.976562 122.292969 80.308594 L 122.046875 80.058594 C 120.089844 82.082031 118.457031 82.828125 117.179688 82.261719 C 112.773438 80.273438 113.835938 63.191406 113.941406 61.664062 L 114.546875 61.414062 L 114.832031 66.953125 L 115.1875 66.953125 L 114.902344 61.378906 L 114.726562 61.378906 L 116.113281 60.847656 L 116.394531 66.8125 L 116.75 66.8125 L 116.46875 60.738281 L 117.070312 60.492188 L 116.929688 60.171875 L 113.625 61.484375 L 113.625 61.589844 C 113.554688 62.300781 112.238281 80.414062 117.070312 82.582031 Z M 122.082031 98.457031 L 121.832031 94.195312 L 122.1875 94.160156 L 122.4375 98.421875 L 122.082031 98.457031 " fill-opacity="1" fill-rule="nonzero"/></svg>