<svg xmlns="http://www.w3.org/2000/svg" xmlns:xlink="http://www.w3.org/1999/xlink" width="540" zoomAndPan="magnify" viewBox="0 0 404.88 299.999988" height="400" preserveAspectRatio="xMidYMid meet" version="1.0"><defs><clipPath id="5afd5a3392"><path d="M 95 273 L 156 273 L 156 284.960938 L 95 284.960938 Z M 95 273 " clip-rule="nonzero"/></clipPath><clipPath id="7ac9a5c333"><path d="M 334 260 L 374.683594 260 L 374.683594 284.960938 L 334 284.960938 Z M 334 260 " clip-rule="nonzero"/></clipPath><clipPath id="70a9d914ba"><path d="M 111 15.039062 L 238 15.039062 L 238 56 L 111 56 Z M 111 15.039062 " clip-rule="nonzero"/></clipPath></defs><path fill="#26b1d8" d="M 196.3125 224.316406 L 166.78125 224.316406 L 166.78125 204.230469 L 196.3125 204.230469 Z M 318.105469 33.613281 L 270.671875 33.613281 L 270.671875 55.425781 L 318.105469 55.425781 Z M 319.003906 246.4375 L 290.273438 246.4375 L 290.273438 267.613281 L 319.003906 267.613281 Z M 319.003906 246.4375 " fill-opacity="1" fill-rule="nonzero"/><g clip-path="url(#5afd5a3392)"><path fill="#000000" d="M 114.878906 284.902344 L 96.285156 284.902344 C 96.144531 284.902344 96.011719 284.871094 95.886719 284.8125 C 95.765625 284.75 95.660156 284.664062 95.574219 284.554688 C 95.492188 284.441406 95.433594 284.320312 95.40625 284.183594 C 95.382812 284.046875 95.386719 283.914062 95.421875 283.777344 L 96.371094 280.167969 L 96.371094 273.78125 L 105.03125 273.78125 L 105.03125 278.667969 L 115.109375 283.929688 C 115.246094 283.960938 115.347656 284.039062 115.417969 284.15625 C 115.492188 284.273438 115.511719 284.398438 115.480469 284.53125 C 115.445312 284.664062 115.371094 284.769531 115.253906 284.839844 C 115.140625 284.914062 115.011719 284.933594 114.878906 284.902344 Z M 154.785156 283.960938 L 144.695312 278.699219 L 144.695312 273.78125 L 136.054688 273.78125 L 136.054688 280.167969 L 135.097656 283.792969 C 135.0625 283.929688 135.058594 284.0625 135.085938 284.199219 C 135.113281 284.335938 135.171875 284.460938 135.257812 284.570312 C 135.339844 284.679688 135.445312 284.765625 135.570312 284.828125 C 135.695312 284.886719 135.828125 284.917969 135.964844 284.921875 L 154.59375 284.921875 C 154.714844 284.925781 154.824219 284.894531 154.921875 284.816406 C 155.019531 284.742188 155.078125 284.644531 155.105469 284.527344 C 155.128906 284.40625 155.113281 284.292969 155.054688 284.1875 C 154.996094 284.078125 154.90625 284.003906 154.792969 283.960938 Z M 154.785156 283.960938 " fill-opacity="1" fill-rule="nonzero"/></g><path fill="#000000" d="M 73.886719 254.742188 L 54.917969 254.742188 C 54.773438 254.742188 54.640625 254.710938 54.511719 254.648438 C 54.386719 254.585938 54.28125 254.496094 54.195312 254.382812 C 54.109375 254.269531 54.050781 254.144531 54.023438 254.007812 C 53.996094 253.867188 54 253.730469 54.039062 253.589844 L 55.027344 249.824219 L 55.027344 242.636719 L 63.808594 242.636719 L 63.808594 248.417969 L 74.121094 253.816406 C 74.3125 253.949219 74.378906 254.128906 74.324219 254.359375 C 74.265625 254.585938 74.121094 254.714844 73.886719 254.742188 Z M 73.886719 254.742188 " fill-opacity="1" fill-rule="nonzero"/><path fill="#000000" d="M 53.71875 247.089844 L 37.644531 237.046875 C 37.527344 236.96875 37.429688 236.875 37.351562 236.753906 C 37.277344 236.632812 37.234375 236.503906 37.21875 236.363281 C 37.207031 236.222656 37.222656 236.085938 37.273438 235.953125 C 37.324219 235.820312 37.398438 235.703125 37.503906 235.609375 L 40.917969 232.414062 L 44.109375 227.136719 L 51.566406 231.796875 L 48.644531 236.589844 L 54.414062 246.429688 C 54.507812 246.648438 54.472656 246.839844 54.296875 247.003906 C 54.125 247.167969 53.933594 247.195312 53.71875 247.089844 Z M 53.71875 247.089844 " fill-opacity="1" fill-rule="nonzero"/><path fill="#ffffff" d="M 327.058594 83.589844 L 327.058594 180.21875 C 327.058594 180.832031 326.996094 181.4375 326.878906 182.039062 C 326.757812 182.636719 326.582031 183.222656 326.347656 183.785156 C 326.113281 184.351562 325.824219 184.890625 325.484375 185.398438 C 325.144531 185.90625 324.757812 186.378906 324.324219 186.8125 C 323.894531 187.246094 323.421875 187.632812 322.914062 187.972656 C 322.40625 188.3125 321.867188 188.597656 321.304688 188.832031 C 320.738281 189.066406 320.15625 189.246094 319.554688 189.363281 C 318.953125 189.484375 318.347656 189.546875 317.738281 189.546875 L 163.5 189.546875 C 162.890625 189.546875 162.28125 189.484375 161.683594 189.363281 C 161.082031 189.246094 160.5 189.066406 159.933594 188.832031 C 159.371094 188.597656 158.832031 188.3125 158.324219 187.972656 C 157.816406 187.632812 157.34375 187.246094 156.910156 186.8125 C 156.480469 186.378906 156.09375 185.90625 155.753906 185.398438 C 155.410156 184.890625 155.125 184.351562 154.890625 183.785156 C 154.65625 183.222656 154.480469 182.636719 154.359375 182.039062 C 154.238281 181.4375 154.179688 180.832031 154.179688 180.21875 L 154.179688 83.589844 C 154.179688 82.976562 154.238281 82.371094 154.359375 81.769531 C 154.480469 81.171875 154.65625 80.585938 154.890625 80.023438 C 155.125 79.457031 155.410156 78.917969 155.753906 78.410156 C 156.09375 77.902344 156.480469 77.429688 156.910156 76.996094 C 157.34375 76.5625 157.816406 76.175781 158.324219 75.835938 C 158.832031 75.496094 159.371094 75.210938 159.933594 74.976562 C 160.5 74.742188 161.082031 74.5625 161.683594 74.441406 C 162.28125 74.324219 162.890625 74.261719 163.5 74.261719 L 317.738281 74.261719 C 318.347656 74.261719 318.953125 74.324219 319.554688 74.441406 C 320.15625 74.5625 320.738281 74.742188 321.304688 74.976562 C 321.867188 75.210938 322.40625 75.496094 322.914062 75.835938 C 323.421875 76.175781 323.894531 76.5625 324.324219 76.996094 C 324.757812 77.429688 325.144531 77.902344 325.484375 78.410156 C 325.824219 78.917969 326.113281 79.457031 326.347656 80.023438 C 326.582031 80.585938 326.757812 81.171875 326.878906 81.769531 C 326.996094 82.371094 327.058594 82.976562 327.058594 83.589844 Z M 327.058594 83.589844 " fill-opacity="1" fill-rule="nonzero"/><path fill="#000000" d="M 317.738281 189.808594 L 163.5 189.808594 C 162.867188 189.808594 162.242188 189.746094 161.625 189.621094 C 161.003906 189.5 160.402344 189.316406 159.820312 189.074219 C 159.234375 188.832031 158.679688 188.535156 158.15625 188.183594 C 157.628906 187.832031 157.144531 187.433594 156.695312 186.984375 C 156.25 186.539062 155.851562 186.050781 155.5 185.527344 C 155.148438 185 154.851562 184.445312 154.609375 183.863281 C 154.367188 183.277344 154.183594 182.675781 154.0625 182.058594 C 153.9375 181.4375 153.875 180.808594 153.875 180.179688 L 153.875 83.589844 C 153.875 82.957031 153.9375 82.332031 154.0625 81.710938 C 154.183594 81.089844 154.367188 80.488281 154.609375 79.90625 C 154.851562 79.320312 155.148438 78.765625 155.5 78.242188 C 155.851562 77.714844 156.25 77.230469 156.695312 76.78125 C 157.144531 76.335938 157.628906 75.9375 158.15625 75.585938 C 158.679688 75.234375 159.234375 74.9375 159.820312 74.695312 C 160.402344 74.453125 161.003906 74.269531 161.625 74.144531 C 162.242188 74.023438 162.867188 73.960938 163.5 73.960938 L 317.738281 73.960938 C 318.367188 73.960938 318.988281 74.027344 319.605469 74.152344 C 320.222656 74.28125 320.824219 74.464844 321.402344 74.707031 C 321.984375 74.953125 322.535156 75.25 323.058594 75.601562 C 323.582031 75.953125 324.066406 76.351562 324.507812 76.800781 C 324.953125 77.246094 325.351562 77.730469 325.699219 78.257812 C 326.046875 78.78125 326.34375 79.335938 326.582031 79.917969 C 326.824219 80.5 327.007812 81.097656 327.128906 81.71875 C 327.25 82.335938 327.3125 82.960938 327.3125 83.589844 L 327.3125 180.21875 C 327.3125 180.847656 327.246094 181.46875 327.121094 182.085938 C 326.996094 182.699219 326.8125 183.300781 326.574219 183.878906 C 326.332031 184.460938 326.035156 185.011719 325.6875 185.53125 C 325.335938 186.054688 324.9375 186.539062 324.496094 186.984375 C 324.050781 187.429688 323.570312 187.824219 323.046875 188.175781 C 322.523438 188.527344 321.972656 188.820312 321.394531 189.0625 C 320.816406 189.304688 320.21875 189.492188 319.601562 189.617188 C 318.988281 189.742188 318.363281 189.804688 317.738281 189.808594 Z M 163.5 74.558594 C 162.90625 74.558594 162.320312 74.617188 161.738281 74.734375 C 161.160156 74.847656 160.59375 75.019531 160.046875 75.246094 C 159.5 75.476562 158.980469 75.753906 158.488281 76.082031 C 157.996094 76.414062 157.539062 76.785156 157.121094 77.207031 C 156.703125 77.625 156.328125 78.082031 155.996094 78.574219 C 155.667969 79.066406 155.390625 79.585938 155.164062 80.136719 C 154.9375 80.683594 154.765625 81.246094 154.648438 81.828125 C 154.53125 82.410156 154.472656 82.996094 154.472656 83.589844 L 154.472656 180.21875 C 154.472656 180.8125 154.53125 181.398438 154.648438 181.980469 C 154.765625 182.5625 154.9375 183.125 155.164062 183.671875 C 155.390625 184.222656 155.667969 184.742188 155.996094 185.234375 C 156.328125 185.726562 156.703125 186.183594 157.121094 186.601562 C 157.539062 187.023438 157.996094 187.394531 158.488281 187.726562 C 158.980469 188.054688 159.5 188.332031 160.046875 188.558594 C 160.59375 188.789062 161.160156 188.960938 161.738281 189.074219 C 162.320312 189.191406 162.90625 189.25 163.5 189.25 L 317.738281 189.25 C 318.328125 189.25 318.914062 189.191406 319.496094 189.074219 C 320.078125 188.957031 320.640625 188.785156 321.1875 188.558594 C 321.734375 188.332031 322.253906 188.050781 322.746094 187.722656 C 323.238281 187.394531 323.695312 187.019531 324.113281 186.601562 C 324.53125 186.179688 324.90625 185.722656 325.234375 185.230469 C 325.5625 184.738281 325.839844 184.21875 326.066406 183.671875 C 326.292969 183.125 326.464844 182.558594 326.582031 181.980469 C 326.695312 181.398438 326.753906 180.8125 326.753906 180.21875 L 326.753906 83.589844 C 326.753906 82.996094 326.695312 82.410156 326.582031 81.828125 C 326.464844 81.25 326.292969 80.683594 326.066406 80.136719 C 325.839844 79.589844 325.5625 79.070312 325.234375 78.578125 C 324.90625 78.082031 324.53125 77.628906 324.113281 77.207031 C 323.695312 76.789062 323.238281 76.414062 322.746094 76.085938 C 322.253906 75.757812 321.734375 75.476562 321.1875 75.25 C 320.640625 75.023438 320.078125 74.851562 319.496094 74.734375 C 318.914062 74.617188 318.328125 74.558594 317.738281 74.558594 Z M 163.5 74.558594 " fill-opacity="1" fill-rule="nonzero"/><path fill="#000000" d="M 228.019531 173.328125 L 172.152344 173.328125 C 171.890625 173.328125 171.628906 173.300781 171.375 173.25 C 171.117188 173.199219 170.867188 173.121094 170.625 173.023438 C 170.382812 172.921875 170.152344 172.800781 169.933594 172.652344 C 169.71875 172.507812 169.515625 172.34375 169.332031 172.15625 C 169.144531 171.972656 168.980469 171.769531 168.835938 171.550781 C 168.6875 171.332031 168.566406 171.105469 168.464844 170.863281 C 168.363281 170.621094 168.289062 170.371094 168.238281 170.113281 C 168.1875 169.855469 168.160156 169.597656 168.160156 169.332031 L 168.160156 150 C 168.160156 149.738281 168.1875 149.476562 168.238281 149.222656 C 168.289062 148.964844 168.363281 148.714844 168.464844 148.472656 C 168.566406 148.230469 168.6875 148 168.835938 147.78125 C 168.980469 147.5625 169.144531 147.363281 169.332031 147.175781 C 169.515625 146.992188 169.71875 146.824219 169.933594 146.679688 C 170.152344 146.535156 170.382812 146.410156 170.625 146.3125 C 170.867188 146.210938 171.117188 146.136719 171.375 146.082031 C 171.628906 146.03125 171.890625 146.007812 172.152344 146.007812 L 228.019531 146.007812 C 228.28125 146.007812 228.542969 146.03125 228.800781 146.082031 C 229.054688 146.136719 229.304688 146.210938 229.546875 146.3125 C 229.789062 146.410156 230.019531 146.535156 230.238281 146.679688 C 230.457031 146.824219 230.65625 146.992188 230.84375 147.175781 C 231.027344 147.363281 231.191406 147.5625 231.339844 147.78125 C 231.484375 148 231.605469 148.230469 231.707031 148.472656 C 231.808594 148.714844 231.882812 148.964844 231.933594 149.222656 C 231.984375 149.476562 232.011719 149.738281 232.011719 150 L 232.011719 169.375 C 232.003906 169.898438 231.902344 170.40625 231.695312 170.890625 C 231.492188 171.375 231.203125 171.800781 230.828125 172.171875 C 230.453125 172.542969 230.023438 172.828125 229.539062 173.027344 C 229.050781 173.226562 228.546875 173.328125 228.019531 173.328125 Z M 172.152344 146.582031 C 171.703125 146.585938 171.273438 146.671875 170.859375 146.84375 C 170.445312 147.015625 170.082031 147.261719 169.765625 147.578125 C 169.445312 147.894531 169.203125 148.261719 169.03125 148.675781 C 168.859375 149.089844 168.769531 149.519531 168.769531 149.96875 L 168.769531 169.339844 C 168.769531 169.789062 168.855469 170.222656 169.027344 170.636719 C 169.199219 171.050781 169.445312 171.417969 169.761719 171.734375 C 170.078125 172.050781 170.445312 172.296875 170.859375 172.46875 C 171.273438 172.640625 171.703125 172.726562 172.152344 172.726562 L 228.019531 172.726562 C 228.46875 172.726562 228.902344 172.640625 229.316406 172.46875 C 229.730469 172.296875 230.097656 172.054688 230.414062 171.734375 C 230.730469 171.417969 230.976562 171.050781 231.148438 170.636719 C 231.320312 170.222656 231.40625 169.789062 231.40625 169.339844 L 231.40625 150 C 231.402344 149.550781 231.316406 149.121094 231.144531 148.707031 C 230.972656 148.292969 230.726562 147.925781 230.410156 147.609375 C 230.09375 147.289062 229.726562 147.046875 229.3125 146.875 C 228.898438 146.703125 228.46875 146.613281 228.019531 146.613281 Z M 172.152344 146.582031 " fill-opacity="1" fill-rule="nonzero"/><path fill="#000000" d="M 174.738281 167.679688 C 174.660156 167.671875 174.59375 167.632812 174.546875 167.570312 C 174.492188 167.507812 174.464844 167.4375 174.464844 167.355469 C 174.464844 167.277344 174.492188 167.207031 174.546875 167.144531 L 182.566406 159.160156 C 182.699219 159.039062 182.832031 159.039062 182.964844 159.160156 L 191.667969 166.125 L 204.875 152.613281 C 204.9375 152.558594 205.007812 152.527344 205.089844 152.523438 C 205.175781 152.523438 205.246094 152.558594 205.304688 152.621094 L 217.15625 165.4375 L 225.25 155.308594 C 225.296875 155.234375 225.367188 155.1875 225.457031 155.171875 C 225.546875 155.15625 225.628906 155.175781 225.699219 155.230469 C 225.769531 155.289062 225.808594 155.363281 225.8125 155.453125 C 225.816406 155.542969 225.785156 155.621094 225.722656 155.6875 L 217.40625 166.066406 C 217.34375 166.136719 217.269531 166.171875 217.179688 166.171875 C 217.085938 166.171875 217.011719 166.136719 216.949219 166.066406 L 205.113281 153.257812 L 191.882812 166.707031 C 191.746094 166.8125 191.609375 166.8125 191.476562 166.707031 L 182.773438 159.734375 L 174.945312 167.570312 C 174.894531 167.640625 174.824219 167.675781 174.738281 167.679688 Z M 174.738281 167.679688 " fill-opacity="1" fill-rule="nonzero"/><path fill="#26b1d8" d="M 239.679688 60.957031 L 121.808594 60.957031 C 119.859375 60.957031 117.480469 59.359375 117.480469 57.4375 L 117.480469 24.214844 C 117.480469 23.746094 117.570312 23.296875 117.75 22.863281 C 117.929688 22.433594 118.183594 22.050781 118.515625 21.71875 C 118.84375 21.390625 119.226562 21.132812 119.660156 20.953125 C 120.089844 20.777344 120.542969 20.6875 121.007812 20.6875 L 238.882812 20.6875 C 239.347656 20.6875 239.796875 20.78125 240.226562 20.960938 C 240.65625 21.140625 241.035156 21.398438 241.363281 21.726562 C 241.691406 22.058594 241.941406 22.441406 242.121094 22.871094 C 242.296875 23.300781 242.386719 23.75 242.386719 24.214844 L 242.386719 57.4375 C 242.386719 59.386719 241.628906 60.957031 239.679688 60.957031 Z M 239.679688 60.957031 " fill-opacity="1" fill-rule="nonzero"/><path fill="#26b1d8" d="M 203.988281 92.949219 C 208.714844 96.144531 211.285156 108.226562 213.605469 113.367188 C 216.800781 120.460938 223.488281 116.15625 224.90625 113.703125 C 226.058594 111.722656 228.976562 103.035156 230.804688 99.707031 C 234.796875 92.390625 241.261719 93.964844 243.792969 96.511719 C 247.375 100.097656 251.132812 112.882812 254.925781 117.433594 C 260.824219 124.523438 267.390625 116.851562 270.089844 114.0625 C 282.492188 101.285156 289.652344 111.363281 289.652344 111.363281 L 289.652344 126.839844 L 191.179688 126.839844 L 191.179688 88.734375 C 191.179688 88.734375 199.289062 89.746094 203.988281 92.949219 Z M 203.988281 92.949219 " fill-opacity="1" fill-rule="nonzero"/><path fill="#000000" d="M 275.644531 125.125 C 268.988281 125.125 264.742188 114.742188 262.203125 108.53125 L 262.203125 108.457031 C 261.78125 107.417969 261.40625 106.523438 261.078125 105.796875 C 257.726562 98.378906 256.578125 96.78125 253.847656 95.703125 C 252.839844 95.261719 251.785156 95.039062 250.683594 95.039062 C 249.582031 95.039062 248.527344 95.261719 247.519531 95.703125 C 246.304688 96.296875 245.238281 97.089844 244.324219 98.085938 C 243.40625 99.078125 242.703125 100.203125 242.210938 101.460938 C 241.660156 102.964844 241.164062 104.335938 240.726562 105.566406 L 240.621094 105.855469 C 238.148438 112.746094 237.015625 115.894531 234.238281 118.933594 C 232.074219 121.332031 229.554688 122.457031 226.949219 122.210938 C 225.59375 122.046875 224.332031 121.609375 223.167969 120.894531 C 222.003906 120.179688 221.039062 119.257812 220.277344 118.121094 C 219.324219 116.488281 218.511719 114.789062 217.835938 113.027344 C 216.089844 108.4375 213.667969 104.242188 210.574219 100.433594 C 204.789062 93.316406 189.421875 96.855469 188.769531 97.015625 C 188.6875 97.03125 188.613281 97.019531 188.542969 96.976562 C 188.472656 96.933594 188.429688 96.871094 188.410156 96.789062 C 188.390625 96.710938 188.40625 96.636719 188.449219 96.566406 C 188.492188 96.496094 188.554688 96.449219 188.632812 96.429688 C 189.304688 96.273438 205.019531 92.652344 211.035156 100.050781 C 214.171875 103.914062 216.621094 108.171875 218.386719 112.824219 C 219.046875 114.5625 219.84375 116.230469 220.78125 117.832031 C 221.492188 118.890625 222.386719 119.75 223.472656 120.417969 C 224.554688 121.082031 225.726562 121.496094 226.992188 121.652344 C 229.386719 121.867188 231.78125 120.796875 233.789062 118.558594 C 236.464844 115.613281 237.582031 112.5 240.03125 105.679688 L 240.136719 105.398438 C 240.582031 104.167969 241.078125 102.789062 241.628906 101.285156 C 242.144531 99.957031 242.882812 98.765625 243.847656 97.714844 C 244.8125 96.664062 245.933594 95.824219 247.214844 95.195312 C 248.296875 94.71875 249.429688 94.480469 250.609375 94.480469 C 251.792969 94.480469 252.925781 94.71875 254.007812 95.195312 C 256.929688 96.34375 258.125 97.996094 261.566406 105.574219 C 261.890625 106.308594 262.269531 107.171875 262.691406 108.257812 L 262.691406 108.332031 C 265.171875 114.398438 269.332031 124.550781 275.582031 124.550781 C 276.367188 124.542969 277.125 124.402344 277.863281 124.125 C 281.285156 122.863281 282.0625 120.324219 283.632812 110.871094 C 283.886719 109.335938 284.558594 107.261719 286.289062 106.078125 C 287.742188 105.113281 289.714844 104.902344 292.164062 105.464844 C 292.246094 105.480469 292.308594 105.523438 292.351562 105.597656 C 292.394531 105.667969 292.410156 105.742188 292.386719 105.824219 C 292.367188 105.902344 292.324219 105.964844 292.253906 106.007812 C 292.183594 106.050781 292.109375 106.0625 292.027344 106.046875 C 289.746094 105.519531 287.925781 105.703125 286.625 106.574219 C 285.070312 107.621094 284.464844 109.535156 284.230469 110.949219 C 282.636719 120.683594 281.796875 123.296875 278.078125 124.667969 C 277.292969 124.960938 276.480469 125.113281 275.644531 125.125 Z M 275.644531 125.125 " fill-opacity="1" fill-rule="nonzero"/><path fill="#ffffff" d="M 118.089844 208.648438 L 106.011719 276.296875 L 92.339844 276.296875 L 92.386719 275.808594 C 92.460938 270.050781 98.628906 213.246094 98.773438 212.378906 C 98.925781 211.316406 98.542969 182.660156 98.414062 173.246094 L 98.367188 169.214844 C 98.363281 169.148438 98.363281 169.082031 98.367188 169.015625 L 98.367188 168.933594 C 98.367188 168.679688 98.46875 168.472656 98.789062 168.464844 L 99.226562 168.464844 L 99.226562 168.6875 L 111.328125 176.984375 L 111.328125 177.152344 Z M 118.089844 208.648438 " fill-opacity="1" fill-rule="nonzero"/><path fill="#000000" d="M 106.011719 276.589844 L 92.339844 276.589844 C 92.25 276.59375 92.175781 276.5625 92.117188 276.496094 C 92.054688 276.429688 92.03125 276.351562 92.039062 276.261719 L 92.085938 275.777344 C 92.164062 269.722656 98.46875 212.6875 98.46875 212.320312 C 98.566406 211.640625 98.46875 198.496094 98.109375 173.253906 L 98.054688 169.214844 L 98.054688 168.941406 C 98.050781 168.90625 98.050781 168.875 98.054688 168.839844 C 98.058594 168.648438 98.132812 168.484375 98.269531 168.351562 C 98.410156 168.21875 98.574219 168.15625 98.765625 168.160156 L 99.195312 168.160156 C 99.28125 168.15625 99.355469 168.183594 99.414062 168.242188 C 99.476562 168.296875 99.507812 168.371094 99.507812 168.457031 L 99.507812 168.527344 L 111.480469 176.738281 C 111.546875 176.777344 111.589844 176.839844 111.605469 176.921875 L 111.605469 177.085938 L 118.296875 208.589844 C 118.304688 208.632812 118.304688 208.671875 118.296875 208.710938 L 106.210938 276.351562 C 106.195312 276.472656 106.128906 276.550781 106.011719 276.589844 Z M 92.683594 275.992188 L 105.757812 275.992188 L 117.785156 208.65625 L 111.097656 177.152344 L 99.125 168.925781 C 99.058594 168.886719 99.019531 168.832031 99.003906 168.757812 L 98.851562 168.757812 C 98.765625 168.757812 98.742188 168.757812 98.726562 168.957031 L 98.726562 169.117188 L 98.78125 173.214844 C 98.996094 189.5625 99.277344 211.410156 99.132812 212.34375 C 99.078125 212.6875 92.8125 269.707031 92.746094 275.738281 Z M 92.683594 275.992188 " fill-opacity="1" fill-rule="nonzero"/><path fill="#ffffff" d="M 148.390625 276.296875 L 133.882812 276.296875 L 116.953125 210.691406 L 99.300781 169.84375 L 122.375 176.234375 L 136.324219 205.535156 C 137.054688 207.074219 137.558594 208.6875 137.832031 210.371094 Z M 148.390625 276.296875 " fill-opacity="1" fill-rule="nonzero"/><path fill="#000000" d="M 148.390625 276.589844 L 133.882812 276.589844 C 133.726562 276.59375 133.628906 276.519531 133.59375 276.367188 L 116.667969 210.757812 L 99.027344 169.964844 C 98.976562 169.847656 98.992188 169.742188 99.078125 169.644531 C 99.160156 169.550781 99.257812 169.519531 99.378906 169.558594 L 122.453125 175.945312 C 122.542969 175.96875 122.609375 176.019531 122.644531 176.105469 L 136.597656 205.40625 C 137.339844 206.976562 137.851562 208.617188 138.128906 210.332031 L 148.6875 276.253906 C 148.703125 276.34375 148.683594 276.425781 148.625 276.496094 C 148.5625 276.5625 148.484375 276.59375 148.390625 276.589844 Z M 134.113281 275.992188 L 148.050781 275.992188 L 137.539062 210.421875 C 137.273438 208.75 136.777344 207.15625 136.054688 205.628906 L 122.167969 176.449219 L 99.820312 170.277344 L 117.21875 210.53125 Z M 134.113281 275.992188 " fill-opacity="1" fill-rule="nonzero"/><path fill="#f7ead0" d="M 171.585938 163.574219 L 170.875 165.972656 L 168.335938 168.054688 L 167.078125 168.261719 L 150.011719 184.691406 C 149.257812 185.429688 148.355469 185.800781 147.300781 185.800781 C 146.789062 185.800781 146.296875 185.703125 145.824219 185.511719 C 145.46875 185.375 145.144531 185.191406 144.84375 184.957031 C 144.546875 184.722656 144.289062 184.453125 144.066406 184.144531 C 143.847656 183.835938 143.675781 183.503906 143.554688 183.144531 C 143.433594 182.785156 143.363281 182.417969 143.347656 182.039062 L 142.734375 168.664062 L 152.375 163.488281 L 152.375 172.695312 L 163.316406 163.910156 L 166.292969 157.953125 L 169.34375 154.902344 L 169.621094 155.046875 C 169.804688 155.136719 170.347656 155.550781 169.847656 157.074219 C 169.558594 157.910156 169.117188 158.65625 168.519531 159.3125 L 168.175781 160.109375 C 168.457031 160.105469 168.722656 160.171875 168.96875 160.308594 C 169.214844 160.441406 169.410156 160.628906 169.558594 160.867188 C 169.875 160.992188 170.140625 161.1875 170.351562 161.453125 C 170.566406 161.722656 170.695312 162.023438 170.738281 162.363281 C 171.183594 162.59375 171.449219 162.953125 171.539062 163.449219 Z M 171.585938 163.574219 " fill-opacity="1" fill-rule="nonzero"/><path fill="#f7ead0" d="M 162.429688 131.457031 L 162.289062 131.785156 C 162.097656 132.214844 157.5 142.46875 151.910156 144.042969 C 151.238281 144.238281 150.554688 144.285156 149.859375 144.195312 C 149.167969 144.101562 148.519531 143.871094 147.921875 143.507812 L 145.3125 148.011719 L 137.148438 142.347656 L 144.855469 131.746094 L 151.617188 123.574219 Z M 162.429688 131.457031 " fill-opacity="1" fill-rule="nonzero"/><path fill="#000000" d="M 145.015625 127.015625 C 145.015625 127.015625 139.039062 122.226562 145.65625 117.363281 C 152.269531 112.5 153.316406 120.730469 153.316406 120.730469 C 153.316406 120.730469 168.402344 125.101562 161.808594 134.164062 C 160.761719 134.234375 159.730469 134.144531 158.710938 133.894531 L 156.78125 137.765625 L 155.496094 137.71875 C 155.496094 137.71875 156.191406 134.027344 154.242188 134.828125 C 152.296875 135.625 152.078125 137.222656 152.480469 138.164062 C 152.480469 138.164062 148.273438 142.15625 143.09375 135.953125 C 143.09375 135.976562 140.785156 131.886719 145.015625 127.015625 Z M 145.015625 127.015625 " fill-opacity="1" fill-rule="nonzero"/><path fill="#26b1d8" d="M 150.898438 148.953125 C 152.605469 150.085938 153.582031 153.441406 153.582031 155.496094 L 153.636719 167.632812 L 142.335938 173.160156 L 142.335938 161.417969 C 142.335938 161.417969 129.652344 177.773438 127.523438 183.109375 C 127.523438 183.109375 105.742188 184.578125 96.777344 167.289062 L 106.976562 159.65625 C 104.894531 156.613281 102.1875 151.308594 103.609375 149.570312 C 106.171875 146.375 125.910156 140.28125 125.910156 140.28125 L 137.882812 140.28125 Z M 150.898438 148.953125 " fill-opacity="1" fill-rule="nonzero"/><path fill="#c59a94" d="M 346.628906 271.886719 L 354.921875 271.886719 L 354.921875 280.816406 L 346.628906 280.816406 Z M 366.160156 255.277344 L 360.140625 260.378906 L 363.949219 267.207031 L 371.058594 262.488281 Z M 366.160156 255.277344 " fill-opacity="1" fill-rule="nonzero"/><path fill="#c59a94" d="M 327.546875 147.363281 L 318.71875 151.199219 C 318.257812 151.398438 317.777344 151.511719 317.273438 151.535156 C 316.773438 151.5625 316.285156 151.496094 315.804688 151.339844 C 315.328125 151.183594 314.894531 150.945312 314.503906 150.628906 C 314.113281 150.316406 313.792969 149.9375 313.539062 149.503906 L 303.785156 132.824219 C 302.796875 132.710938 301.835938 132.492188 300.894531 132.167969 C 298.894531 131.496094 297.863281 129.324219 297.703125 129.046875 C 297.597656 128.84375 297.535156 128.628906 297.507812 128.398438 C 297.484375 128.171875 297.5 127.949219 297.554688 127.726562 C 297.613281 127.507812 297.710938 127.304688 297.84375 127.117188 C 297.972656 126.933594 298.136719 126.777344 298.328125 126.648438 C 298.328125 126.277344 298.414062 125.921875 298.585938 125.589844 C 298.757812 125.257812 298.996094 124.984375 299.300781 124.765625 C 299.339844 124.371094 299.472656 124.007812 299.695312 123.679688 C 299.917969 123.355469 300.207031 123.101562 300.5625 122.921875 C 299.792969 122.359375 298.976562 121.875 298.117188 121.464844 C 295.183594 119.996094 296.292969 117.570312 296.300781 117.546875 L 296.492188 117.15625 L 301.695312 119.550781 L 305.84375 122.609375 L 317.089844 140.019531 L 323.179688 137.414062 Z M 327.546875 147.363281 " fill-opacity="1" fill-rule="nonzero"/><path fill="#ffffff" d="M 362.566406 175.234375 L 357.832031 208.382812 L 356.980469 275.769531 L 341.488281 275.769531 L 342.558594 208.601562 L 346.222656 173.726562 Z M 362.566406 175.234375 " fill-opacity="1" fill-rule="nonzero"/><path fill="#000000" d="M 356.980469 276.070312 L 341.488281 276.070312 C 341.402344 276.074219 341.328125 276.042969 341.273438 275.976562 C 341.214844 275.917969 341.183594 275.851562 341.183594 275.769531 L 342.261719 208.601562 L 345.917969 173.695312 C 345.929688 173.613281 345.964844 173.546875 346.027344 173.496094 C 346.09375 173.445312 346.164062 173.421875 346.246094 173.429688 L 362.597656 174.929688 C 362.6875 174.941406 362.753906 174.980469 362.804688 175.050781 C 362.855469 175.117188 362.878906 175.191406 362.871094 175.273438 L 358.113281 208.433594 L 357.316406 275.777344 C 357.3125 275.863281 357.277344 275.9375 357.210938 275.996094 C 357.144531 276.054688 357.066406 276.082031 356.980469 276.070312 Z M 341.816406 275.472656 L 356.707031 275.472656 L 357.5625 208.390625 L 362.253906 175.507812 L 346.507812 174.0625 L 342.886719 208.640625 Z M 341.816406 275.472656 " fill-opacity="1" fill-rule="nonzero"/><path fill="#ffffff" d="M 357.945312 173.621094 L 346.222656 209.03125 L 367.515625 255.964844 L 356.339844 264.570312 L 330.617188 212.496094 C 329.402344 210.046875 328.988281 207.46875 329.375 204.757812 L 333.960938 172.214844 Z M 357.945312 173.621094 " fill-opacity="1" fill-rule="nonzero"/><path fill="#000000" d="M 356.332031 264.875 L 356.261719 264.875 C 356.171875 264.851562 356.105469 264.800781 356.0625 264.714844 L 330.339844 212.625 C 329.101562 210.117188 328.679688 207.480469 329.070312 204.710938 L 333.660156 172.175781 C 333.667969 172.097656 333.703125 172.035156 333.761719 171.984375 C 333.824219 171.933594 333.890625 171.914062 333.96875 171.921875 L 357.960938 173.320312 C 358.058594 173.328125 358.136719 173.371094 358.191406 173.453125 C 358.234375 173.539062 358.234375 173.625 358.191406 173.710938 L 346.539062 209.015625 L 367.792969 255.84375 C 367.855469 255.988281 367.824219 256.109375 367.699219 256.203125 L 356.523438 264.8125 C 356.46875 264.855469 356.40625 264.875 356.332031 264.875 Z M 334.210938 172.535156 L 329.660156 204.796875 C 329.285156 207.445312 329.6875 209.964844 330.875 212.359375 L 356.414062 264.117188 L 367.125 255.867188 L 345.925781 209.160156 C 345.898438 209.085938 345.898438 209.007812 345.925781 208.933594 L 357.53125 173.894531 Z M 334.210938 172.535156 " fill-opacity="1" fill-rule="nonzero"/><path fill="#c59a94" d="M 355.980469 123.980469 L 356.277344 136.960938 L 345.589844 136.160156 L 346.390625 125.585938 C 345.304688 125.683594 342.894531 125.667969 341.265625 123.878906 C 339.367188 121.777344 339.238281 118 340.890625 112.652344 C 341.863281 109.503906 343.460938 107.59375 345.679688 106.964844 C 349.835938 105.773438 354.5625 109.710938 354.90625 110.015625 C 355.246094 110.320312 357.316406 112.417969 355.980469 123.980469 Z M 355.980469 123.980469 " fill-opacity="1" fill-rule="nonzero"/><path fill="#26b1d8" d="M 372.257812 160.453125 C 372.167969 160.980469 371.578125 161.691406 367.851562 162.953125 C 366.34375 163.457031 364.839844 163.878906 364.195312 164.054688 L 364.082031 180.875 L 363.476562 180.625 C 363.414062 180.625 357.089844 178.046875 346.238281 181.335938 C 345.195312 181.652344 344.132812 181.8125 343.042969 181.816406 C 337.066406 181.816406 332.382812 177.070312 332.160156 176.832031 L 332.015625 176.6875 L 334.167969 152.195312 L 333.691406 147.109375 L 325.121094 150.398438 L 319.804688 137.328125 L 337.753906 129.683594 C 339.105469 129.109375 340.515625 128.902344 341.976562 129.070312 L 355.257812 130.601562 C 357.042969 130.804688 358.59375 131.523438 359.902344 132.757812 C 371.035156 143.417969 372.480469 159.296875 372.257812 160.453125 Z M 372.257812 160.453125 " fill-opacity="1" fill-rule="nonzero"/><g clip-path="url(#7ac9a5c333)"><path fill="#000000" d="M 356.515625 283.476562 C 356.554688 283.621094 356.558594 283.765625 356.53125 283.910156 C 356.5 284.058594 356.441406 284.191406 356.347656 284.308594 C 356.257812 284.425781 356.144531 284.519531 356.007812 284.585938 C 355.875 284.648438 355.734375 284.683594 355.582031 284.679688 L 335.511719 284.679688 C 335.386719 284.683594 335.273438 284.644531 335.175781 284.570312 C 335.074219 284.492188 335.011719 284.394531 334.980469 284.273438 C 334.953125 284.152344 334.964844 284.035156 335.015625 283.917969 C 335.070312 283.804688 335.152344 283.722656 335.261719 283.667969 L 346.621094 277.773438 C 350.453125 281.230469 355.007812 277.773438 355.007812 277.773438 Z M 369.6875 260.363281 C 369.6875 260.363281 367.660156 265.714844 362.574219 264.8125 L 356.09375 275.863281 C 356.027344 275.972656 356.003906 276.085938 356.019531 276.210938 C 356.035156 276.335938 356.085938 276.441406 356.175781 276.527344 C 356.269531 276.617188 356.375 276.664062 356.5 276.675781 C 356.625 276.6875 356.738281 276.660156 356.84375 276.589844 L 373.851562 265.9375 C 373.980469 265.859375 374.082031 265.753906 374.160156 265.628906 C 374.238281 265.5 374.285156 265.363281 374.300781 265.214844 C 374.3125 265.066406 374.292969 264.921875 374.242188 264.78125 C 374.1875 264.640625 374.105469 264.523438 373.996094 264.421875 Z M 369.6875 260.363281 " fill-opacity="1" fill-rule="nonzero"/></g><path fill="#000000" d="M 346.324219 112.90625 L 346.539062 116.785156 L 348.050781 116.785156 C 348.050781 116.785156 349.09375 112.96875 351.703125 115.492188 C 352.160156 115.933594 352.566406 117.21875 352.136719 118.933594 C 352.449219 119.59375 352.898438 120.140625 353.484375 120.578125 C 354.070312 121.011719 354.726562 121.28125 355.449219 121.386719 C 355.867188 121.261719 356.269531 121.089844 356.652344 120.875 C 359.175781 118.792969 362.0625 110.710938 358.160156 107.523438 C 358.160156 107.523438 350.628906 98.484375 342.0625 103.699219 C 339.890625 105.023438 338.800781 109.679688 346.324219 112.90625 Z M 346.324219 112.90625 " fill-opacity="1" fill-rule="nonzero"/><path fill="#ffffff" d="M 63.769531 149.847656 L 67.222656 182.820312 L 68.238281 246.316406 L 53.601562 246.316406 L 52.800781 182.613281 L 48.324219 151.269531 Z M 63.769531 149.847656 " fill-opacity="1" fill-rule="nonzero"/><path fill="#000000" d="M 68.238281 246.628906 L 53.601562 246.628906 C 53.515625 246.628906 53.445312 246.601562 53.386719 246.542969 C 53.328125 246.488281 53.296875 246.414062 53.296875 246.332031 L 52.5 182.636719 L 48.027344 151.332031 C 48.011719 151.246094 48.035156 151.167969 48.09375 151.101562 C 48.144531 151.035156 48.214844 150.996094 48.300781 150.988281 L 63.753906 149.570312 C 63.835938 149.558594 63.90625 149.578125 63.972656 149.628906 C 64.039062 149.679688 64.074219 149.75 64.078125 149.832031 L 67.535156 182.804688 L 68.558594 246.324219 C 68.554688 246.410156 68.527344 246.480469 68.46875 246.539062 C 68.40625 246.605469 68.328125 246.632812 68.238281 246.628906 Z M 53.871094 246.027344 L 67.933594 246.027344 L 66.929688 182.820312 L 63.496094 150.175781 L 48.652344 151.542969 L 53.082031 182.574219 Z M 53.871094 246.027344 " fill-opacity="1" fill-rule="nonzero"/><path fill="#ffffff" d="M 75.355469 148.402344 L 79.699219 179.15625 C 80.058594 181.714844 79.667969 184.152344 78.523438 186.472656 L 54.207031 235.734375 L 43.65625 227.589844 L 63.769531 183.222656 L 52.683594 149.746094 Z M 75.355469 148.402344 " fill-opacity="1" fill-rule="nonzero"/><path fill="#000000" d="M 54.207031 236.03125 C 54.140625 236.027344 54.078125 236.007812 54.023438 235.96875 L 43.449219 227.828125 C 43.324219 227.734375 43.292969 227.613281 43.359375 227.46875 L 63.449219 183.203125 L 52.433594 149.839844 C 52.40625 149.746094 52.421875 149.660156 52.476562 149.578125 C 52.53125 149.5 52.609375 149.453125 52.707031 149.449219 L 75.378906 148.125 C 75.566406 148.113281 75.671875 148.195312 75.699219 148.378906 L 80.035156 179.140625 C 80.410156 181.761719 80.011719 184.257812 78.835938 186.628906 L 54.476562 235.863281 C 54.4375 235.949219 54.371094 236.003906 54.277344 236.023438 Z M 44 227.460938 L 54.101562 235.242188 L 78.253906 186.335938 C 79.375 184.070312 79.757812 181.691406 79.402344 179.1875 L 75.101562 148.738281 L 53.089844 150 L 64.046875 183.109375 C 64.078125 183.179688 64.078125 183.253906 64.046875 183.324219 Z M 44 227.460938 " fill-opacity="1" fill-rule="nonzero"/><path fill="#ffffff" d="M 99.101562 96.152344 L 98.859375 103.117188 L 83.800781 114.742188 L 77.128906 106.925781 Z M 99.101562 96.152344 " fill-opacity="1" fill-rule="nonzero"/><path fill="#000000" d="M 83.800781 115.039062 C 83.707031 115.042969 83.628906 115.007812 83.570312 114.933594 L 76.90625 107.117188 C 76.839844 107.042969 76.816406 106.957031 76.839844 106.859375 C 76.863281 106.765625 76.914062 106.695312 77 106.652344 L 98.964844 95.878906 C 99.0625 95.824219 99.160156 95.824219 99.261719 95.878906 C 99.351562 95.941406 99.398438 96.023438 99.394531 96.136719 L 99.15625 103.097656 C 99.15625 103.195312 99.117188 103.273438 99.035156 103.332031 L 83.976562 114.980469 C 83.925781 115.023438 83.867188 115.039062 83.800781 115.039062 Z M 77.609375 107.050781 L 83.839844 114.359375 L 98.566406 102.964844 L 98.78125 96.640625 Z M 77.609375 107.050781 " fill-opacity="1" fill-rule="nonzero"/><path fill="#000000" d="M 116.15625 88.070312 L 111.550781 116.019531 C 111.519531 116.222656 111.457031 116.410156 111.355469 116.585938 C 111.257812 116.765625 111.132812 116.917969 110.980469 117.050781 C 110.824219 117.183594 110.652344 117.285156 110.464844 117.355469 C 110.273438 117.429688 110.078125 117.464844 109.875 117.464844 L 92.867188 117.464844 C 92.613281 117.464844 92.375 117.410156 92.148438 117.300781 C 91.917969 117.191406 91.722656 117.042969 91.5625 116.847656 C 91.398438 116.65625 91.285156 116.4375 91.21875 116.191406 C 91.152344 115.949219 91.140625 115.703125 91.183594 115.453125 L 95.789062 87.503906 C 95.820312 87.300781 95.882812 87.113281 95.980469 86.9375 C 96.078125 86.757812 96.207031 86.601562 96.359375 86.46875 C 96.511719 86.335938 96.683594 86.234375 96.875 86.164062 C 97.066406 86.09375 97.261719 86.058594 97.464844 86.058594 L 114.472656 86.058594 C 114.726562 86.058594 114.964844 86.113281 115.191406 86.222656 C 115.421875 86.332031 115.617188 86.480469 115.777344 86.675781 C 115.941406 86.867188 116.054688 87.085938 116.121094 87.332031 C 116.1875 87.574219 116.199219 87.820312 116.15625 88.070312 Z M 116.15625 88.070312 " fill-opacity="1" fill-rule="nonzero"/><path fill="#ffffff" d="M 86.347656 98.890625 C 85.902344 99.257812 85.394531 99.492188 84.828125 99.597656 C 84.261719 99.703125 83.703125 99.667969 83.15625 99.488281 L 81.300781 106.492188 L 71.726562 105.582031 L 76.042969 80.761719 L 87.800781 82.3125 L 87.855469 82.625 C 87.917969 83.152344 90.074219 95.695312 86.347656 98.890625 Z M 86.347656 98.890625 " fill-opacity="1" fill-rule="nonzero"/><path fill="#000000" d="M 81.269531 106.789062 L 71.695312 105.878906 C 71.605469 105.867188 71.535156 105.828125 71.476562 105.757812 C 71.425781 105.6875 71.40625 105.613281 71.421875 105.527344 L 75.738281 80.699219 C 75.753906 80.617188 75.789062 80.554688 75.855469 80.507812 C 75.921875 80.457031 75.996094 80.441406 76.074219 80.453125 L 87.832031 82.050781 C 87.980469 82.066406 88.0625 82.148438 88.085938 82.296875 L 88.140625 82.609375 C 88.238281 83.144531 90.417969 95.847656 86.546875 99.144531 C 86.105469 99.519531 85.601562 99.769531 85.039062 99.898438 C 84.476562 100.027344 83.914062 100.023438 83.355469 99.882812 L 81.574219 106.605469 C 81.519531 106.746094 81.417969 106.808594 81.269531 106.789062 Z M 72.042969 105.28125 L 81.046875 106.132812 L 82.835938 99.378906 C 82.855469 99.296875 82.898438 99.238281 82.96875 99.195312 C 83.039062 99.152344 83.113281 99.140625 83.195312 99.164062 C 83.699219 99.332031 84.214844 99.367188 84.742188 99.269531 C 85.265625 99.171875 85.734375 98.957031 86.148438 98.621094 C 89.027344 96.152344 88.308594 87.085938 87.527344 82.648438 L 87.527344 82.550781 L 76.257812 81.082031 Z M 72.042969 105.28125 " fill-opacity="1" fill-rule="nonzero"/><path fill="#ffffff" d="M 114.050781 88.75 L 109.605469 115.445312 C 109.5625 115.6875 109.484375 115.917969 109.363281 116.132812 C 109.242188 116.347656 109.085938 116.535156 108.898438 116.695312 C 108.710938 116.851562 108.5 116.976562 108.269531 117.058594 C 108.039062 117.144531 107.800781 117.1875 107.554688 117.1875 L 91.113281 117.1875 C 90.464844 117.1875 89.933594 116.941406 89.515625 116.453125 C 89.105469 115.957031 88.949219 115.394531 89.050781 114.757812 L 93.496094 88.0625 C 93.539062 87.820312 93.617188 87.59375 93.738281 87.378906 C 93.859375 87.167969 94.011719 86.980469 94.199219 86.820312 C 94.386719 86.660156 94.59375 86.539062 94.820312 86.453125 C 95.050781 86.367188 95.289062 86.324219 95.53125 86.320312 L 111.972656 86.320312 C 112.277344 86.320312 112.566406 86.382812 112.84375 86.511719 C 113.117188 86.636719 113.355469 86.816406 113.550781 87.046875 C 113.75 87.277344 113.886719 87.539062 113.972656 87.828125 C 114.054688 88.121094 114.070312 88.417969 114.027344 88.71875 Z M 114.050781 88.75 " fill-opacity="1" fill-rule="nonzero"/><path fill="#000000" d="M 107.554688 117.480469 L 91.113281 117.480469 C 90.761719 117.480469 90.429688 117.402344 90.113281 117.257812 C 89.800781 117.109375 89.527344 116.902344 89.304688 116.636719 C 89.078125 116.367188 88.917969 116.066406 88.824219 115.730469 C 88.730469 115.394531 88.710938 115.054688 88.765625 114.710938 L 93.210938 88.015625 C 93.257812 87.738281 93.351562 87.480469 93.488281 87.238281 C 93.625 86.996094 93.800781 86.78125 94.011719 86.601562 C 94.226562 86.417969 94.460938 86.277344 94.722656 86.179688 C 94.984375 86.082031 95.253906 86.03125 95.53125 86.027344 L 111.972656 86.027344 C 112.699219 86.019531 113.304688 86.285156 113.785156 86.824219 C 114.261719 87.386719 114.4375 88.03125 114.320312 88.757812 L 109.898438 115.492188 C 109.851562 115.769531 109.757812 116.03125 109.617188 116.273438 C 109.480469 116.519531 109.300781 116.734375 109.085938 116.914062 C 108.871094 117.097656 108.632812 117.234375 108.371094 117.332031 C 108.105469 117.429688 107.832031 117.480469 107.554688 117.480469 Z M 95.53125 86.625 C 95.324219 86.625 95.117188 86.660156 94.921875 86.730469 C 94.722656 86.804688 94.542969 86.90625 94.382812 87.042969 C 94.222656 87.179688 94.089844 87.339844 93.984375 87.523438 C 93.878906 87.707031 93.8125 87.902344 93.777344 88.109375 L 89.332031 114.804688 C 89.289062 115.066406 89.304688 115.320312 89.375 115.570312 C 89.441406 115.824219 89.5625 116.050781 89.730469 116.25 C 89.902344 116.449219 90.101562 116.605469 90.339844 116.714844 C 90.578125 116.824219 90.828125 116.882812 91.085938 116.882812 L 107.527344 116.882812 C 107.738281 116.882812 107.945312 116.847656 108.140625 116.777344 C 108.339844 116.703125 108.519531 116.601562 108.679688 116.464844 C 108.839844 116.328125 108.972656 116.167969 109.078125 115.984375 C 109.179688 115.800781 109.25 115.605469 109.285156 115.398438 L 113.730469 88.691406 C 113.773438 88.433594 113.761719 88.179688 113.691406 87.925781 C 113.621094 87.675781 113.503906 87.449219 113.332031 87.25 C 113.164062 87.050781 112.960938 86.894531 112.722656 86.785156 C 112.484375 86.675781 112.234375 86.625 111.972656 86.625 Z M 95.53125 86.625 " fill-opacity="1" fill-rule="nonzero"/><path fill="#ffffff" d="M 115.636719 102.707031 C 115.730469 103.507812 115.484375 104.1875 114.902344 104.746094 C 114.679688 105.113281 113.824219 106.023438 110.730469 106.75 L 108.046875 107.546875 L 105.910156 114.816406 L 99.875 112.640625 L 100.011719 112.234375 C 100.105469 111.964844 102.40625 105.445312 105.101562 102.5 C 107.109375 100.46875 109.367188 98.773438 111.878906 97.414062 L 112.507812 97.078125 L 112.507812 97.796875 C 112.457031 98.835938 112.097656 99.753906 111.429688 100.550781 C 111.867188 100.5 112.246094 100.324219 112.566406 100.023438 L 115.230469 95.425781 L 115.589844 96.144531 C 116.054688 97.058594 116.160156 98.015625 115.910156 99.011719 C 116.054688 99.273438 116.128906 99.554688 116.128906 99.855469 C 116.128906 100.160156 116.054688 100.441406 115.910156 100.703125 C 116.050781 101.039062 116.09375 101.382812 116.046875 101.742188 C 116 102.101562 115.863281 102.421875 115.636719 102.707031 Z M 115.636719 102.707031 " fill-opacity="1" fill-rule="nonzero"/><path fill="#000000" d="M 105.910156 115.109375 C 105.875 115.117188 105.839844 115.117188 105.804688 115.109375 L 99.769531 112.9375 C 99.695312 112.910156 99.640625 112.859375 99.605469 112.785156 C 99.570312 112.714844 99.5625 112.640625 99.585938 112.5625 L 99.722656 112.15625 C 99.96875 111.453125 102.164062 105.238281 104.878906 102.316406 C 106.910156 100.261719 109.195312 98.542969 111.734375 97.164062 L 112.375 96.832031 C 112.472656 96.777344 112.570312 96.777344 112.667969 96.832031 C 112.761719 96.890625 112.8125 96.972656 112.8125 97.085938 L 112.8125 97.804688 C 112.777344 98.566406 112.578125 99.28125 112.207031 99.945312 L 112.332031 99.847656 L 114.96875 95.28125 C 115.027344 95.179688 115.117188 95.128906 115.238281 95.136719 C 115.355469 95.136719 115.441406 95.191406 115.492188 95.296875 L 115.851562 96.015625 C 116.339844 96.960938 116.46875 97.957031 116.234375 98.996094 C 116.503906 99.570312 116.503906 100.144531 116.234375 100.71875 C 116.359375 101.070312 116.394531 101.429688 116.347656 101.796875 C 116.296875 102.164062 116.167969 102.5 115.957031 102.804688 C 116.027344 103.644531 115.761719 104.363281 115.160156 104.953125 C 114.824219 105.445312 113.824219 106.339844 110.824219 107.050781 L 108.3125 107.769531 L 106.1875 114.863281 C 106.164062 114.945312 106.113281 115.007812 106.035156 115.046875 C 106 115.078125 105.957031 115.101562 105.910156 115.109375 Z M 100.242188 112.464844 L 105.699219 114.429688 L 107.761719 107.445312 C 107.789062 107.339844 107.855469 107.269531 107.960938 107.234375 L 110.648438 106.4375 C 113.730469 105.710938 114.488281 104.839844 114.640625 104.5625 L 114.6875 104.480469 C 115.191406 103.992188 115.398438 103.398438 115.320312 102.699219 C 115.3125 102.632812 115.328125 102.566406 115.367188 102.507812 C 115.558594 102.265625 115.671875 101.992188 115.714844 101.683594 C 115.757812 101.378906 115.71875 101.085938 115.597656 100.800781 C 115.5625 100.714844 115.5625 100.628906 115.597656 100.542969 C 115.863281 100.070312 115.863281 99.597656 115.597656 99.121094 C 115.558594 99.035156 115.558594 98.945312 115.597656 98.859375 C 115.8125 97.949219 115.707031 97.082031 115.285156 96.246094 L 115.175781 96.023438 L 112.78125 100.144531 L 112.722656 100.214844 C 112.355469 100.5625 111.917969 100.761719 111.414062 100.816406 C 111.28125 100.835938 111.183594 100.785156 111.121094 100.664062 C 111.039062 100.550781 111.039062 100.441406 111.121094 100.328125 C 111.746094 99.585938 112.082031 98.734375 112.132812 97.765625 L 112.132812 97.542969 L 111.933594 97.644531 C 109.457031 98.996094 107.226562 100.671875 105.238281 102.675781 C 102.566406 105.558594 100.304688 112.027344 100.210938 112.257812 Z M 100.242188 112.464844 " fill-opacity="1" fill-rule="nonzero"/><path fill="#26b1d8" d="M 98.191406 96.421875 L 97.273438 97.382812 L 98.117188 98.890625 L 99.453125 98.613281 C 100.121094 99.292969 100.917969 99.742188 101.847656 99.96875 L 102.222656 101.292969 L 103.9375 101.292969 L 104.3125 99.929688 C 105.203125 99.695312 105.96875 99.246094 106.609375 98.585938 L 107.945312 98.867188 L 108.796875 97.382812 L 107.871094 96.421875 C 108 95.972656 108.066406 95.515625 108.0625 95.050781 C 108.0625 94.601562 108.003906 94.164062 107.886719 93.730469 L 108.835938 92.652344 L 107.96875 91.183594 L 106.625 91.527344 C 105.980469 90.863281 105.207031 90.410156 104.3125 90.171875 L 103.929688 88.851562 L 102.222656 88.851562 L 101.796875 90.164062 C 100.890625 90.394531 100.105469 90.847656 99.453125 91.519531 L 98.136719 91.183594 L 97.265625 92.652344 L 98.191406 93.707031 C 98.066406 94.148438 98.007812 94.59375 98.007812 95.050781 C 98.007812 95.515625 98.066406 95.972656 98.191406 96.421875 Z M 100.257812 95.035156 C 100.257812 94.660156 100.328125 94.300781 100.472656 93.957031 C 100.613281 93.613281 100.816406 93.308594 101.082031 93.046875 C 101.34375 92.78125 101.648438 92.578125 101.992188 92.4375 C 102.335938 92.292969 102.695312 92.222656 103.066406 92.222656 C 103.441406 92.222656 103.796875 92.292969 104.140625 92.4375 C 104.488281 92.578125 104.789062 92.78125 105.054688 93.046875 C 105.316406 93.308594 105.519531 93.613281 105.664062 93.957031 C 105.804688 94.300781 105.875 94.660156 105.875 95.035156 C 105.875 95.40625 105.804688 95.765625 105.664062 96.109375 C 105.519531 96.453125 105.316406 96.757812 105.054688 97.019531 C 104.789062 97.285156 104.488281 97.488281 104.140625 97.628906 C 103.796875 97.773438 103.441406 97.84375 103.066406 97.84375 C 102.695312 97.847656 102.335938 97.773438 101.992188 97.632812 C 101.644531 97.492188 101.34375 97.289062 101.078125 97.023438 C 100.816406 96.761719 100.613281 96.457031 100.46875 96.109375 C 100.328125 95.765625 100.257812 95.40625 100.257812 95.035156 Z M 93.9375 104.21875 L 93.371094 104.800781 L 93.890625 105.703125 L 94.6875 105.535156 C 95.089844 105.933594 95.566406 106.203125 96.117188 106.332031 L 96.339844 107.132812 L 97.375 107.132812 L 97.648438 106.332031 C 98.183594 106.195312 98.644531 105.925781 99.035156 105.535156 L 99.835938 105.703125 L 100.320312 104.800781 L 99.761719 104.21875 C 99.839844 103.957031 99.882812 103.691406 99.882812 103.417969 C 99.882812 103.148438 99.84375 102.882812 99.769531 102.621094 L 100.347656 101.964844 L 99.820312 101.070312 L 99.019531 101.277344 C 98.621094 100.882812 98.152344 100.617188 97.609375 100.480469 L 97.375 99.679688 L 96.332031 99.679688 L 96.066406 100.480469 C 95.523438 100.617188 95.054688 100.882812 94.65625 101.277344 L 93.855469 101.070312 L 93.332031 101.964844 L 93.890625 102.605469 C 93.816406 102.867188 93.777344 103.132812 93.777344 103.402344 C 93.789062 103.683594 93.84375 103.953125 93.9375 104.21875 Z M 95.183594 103.417969 C 95.183594 103.191406 95.226562 102.976562 95.3125 102.769531 C 95.398438 102.558594 95.519531 102.375 95.679688 102.214844 C 95.839844 102.054688 96.023438 101.933594 96.230469 101.847656 C 96.441406 101.761719 96.65625 101.71875 96.882812 101.71875 C 97.105469 101.71875 97.324219 101.761719 97.53125 101.847656 C 97.742188 101.933594 97.925781 102.054688 98.085938 102.214844 C 98.242188 102.375 98.367188 102.558594 98.453125 102.769531 C 98.539062 102.976562 98.582031 103.191406 98.582031 103.417969 C 98.582031 103.644531 98.539062 103.863281 98.453125 104.070312 C 98.367188 104.277344 98.242188 104.460938 98.085938 104.621094 C 97.925781 104.78125 97.742188 104.902344 97.53125 104.992188 C 97.324219 105.078125 97.105469 105.121094 96.882812 105.121094 C 96.652344 105.121094 96.429688 105.078125 96.21875 104.992188 C 96.003906 104.902344 95.820312 104.777344 95.65625 104.613281 C 95.496094 104.449219 95.375 104.257812 95.289062 104.046875 C 95.207031 103.832031 95.167969 103.609375 95.175781 103.378906 Z M 95.183594 103.417969 " fill-opacity="1" fill-rule="nonzero"/><g clip-path="url(#70a9d914ba)"><path fill="#000000" d="M 233.535156 55.910156 L 115.660156 55.910156 C 115.15625 55.910156 114.667969 55.8125 114.199219 55.617188 C 113.730469 55.421875 113.320312 55.148438 112.960938 54.789062 C 112.601562 54.429688 112.324219 54.015625 112.132812 53.546875 C 111.9375 53.082031 111.839844 52.59375 111.839844 52.085938 L 111.839844 18.863281 C 111.839844 18.359375 111.9375 17.871094 112.132812 17.402344 C 112.324219 16.933594 112.601562 16.519531 112.960938 16.164062 C 113.320312 15.804688 113.730469 15.527344 114.199219 15.332031 C 114.667969 15.140625 115.15625 15.042969 115.660156 15.039062 L 233.535156 15.039062 C 234.042969 15.039062 234.53125 15.136719 235 15.332031 C 235.46875 15.523438 235.882812 15.800781 236.242188 16.160156 C 236.601562 16.519531 236.878906 16.933594 237.074219 17.402344 C 237.265625 17.871094 237.367188 18.359375 237.367188 18.863281 L 237.367188 52.085938 C 237.367188 52.59375 237.265625 53.082031 237.074219 53.550781 C 236.878906 54.019531 236.601562 54.433594 236.242188 54.792969 C 235.882812 55.148438 235.46875 55.425781 235 55.621094 C 234.53125 55.8125 234.042969 55.910156 233.535156 55.910156 Z M 115.660156 15.640625 C 115.238281 15.640625 114.832031 15.71875 114.441406 15.882812 C 114.046875 16.042969 113.703125 16.273438 113.402344 16.574219 C 113.105469 16.875 112.875 17.21875 112.710938 17.609375 C 112.550781 18.003906 112.46875 18.410156 112.46875 18.832031 L 112.46875 52.054688 C 112.46875 52.476562 112.550781 52.886719 112.710938 53.277344 C 112.875 53.667969 113.105469 54.011719 113.402344 54.3125 C 113.703125 54.613281 114.046875 54.84375 114.441406 55.003906 C 114.832031 55.167969 115.238281 55.25 115.660156 55.25 L 233.535156 55.25 C 233.960938 55.25 234.371094 55.167969 234.761719 55.007812 C 235.15625 54.84375 235.503906 54.613281 235.808594 54.316406 C 236.109375 54.015625 236.34375 53.671875 236.511719 53.28125 C 236.675781 52.886719 236.761719 52.480469 236.769531 52.054688 L 236.769531 18.863281 C 236.761719 18.441406 236.675781 18.03125 236.511719 17.640625 C 236.34375 17.25 236.109375 16.902344 235.808594 16.605469 C 235.503906 16.304688 235.15625 16.074219 234.761719 15.914062 C 234.371094 15.75 233.960938 15.671875 233.535156 15.671875 Z M 115.660156 15.640625 " fill-opacity="1" fill-rule="nonzero"/></g><path fill="#000000" d="M 293.265625 131.632812 L 187.914062 131.632812 C 187.527344 131.632812 187.15625 131.558594 186.796875 131.410156 C 186.4375 131.261719 186.121094 131.050781 185.847656 130.777344 C 185.570312 130.503906 185.359375 130.1875 185.210938 129.828125 C 185.0625 129.472656 184.988281 129.097656 184.984375 128.710938 L 184.984375 86.386719 C 184.988281 85.996094 185.0625 85.625 185.210938 85.265625 C 185.359375 84.90625 185.570312 84.59375 185.847656 84.316406 C 186.121094 84.042969 186.4375 83.832031 186.796875 83.683594 C 187.15625 83.535156 187.527344 83.460938 187.914062 83.460938 L 293.265625 83.460938 C 293.652344 83.460938 294.027344 83.535156 294.386719 83.683594 C 294.742188 83.832031 295.058594 84.042969 295.335938 84.316406 C 295.609375 84.59375 295.820312 84.90625 295.96875 85.265625 C 296.121094 85.625 296.195312 85.996094 296.195312 86.386719 L 296.195312 128.710938 C 296.195312 129.097656 296.121094 129.472656 295.96875 129.828125 C 295.820312 130.1875 295.609375 130.503906 295.335938 130.777344 C 295.058594 131.050781 294.742188 131.261719 294.386719 131.410156 C 294.027344 131.558594 293.652344 131.632812 293.265625 131.632812 Z M 187.914062 84.039062 C 187.605469 84.039062 187.308594 84.097656 187.023438 84.214844 C 186.738281 84.332031 186.488281 84.5 186.269531 84.71875 C 186.050781 84.933594 185.882812 85.1875 185.765625 85.472656 C 185.644531 85.757812 185.585938 86.050781 185.585938 86.359375 L 185.585938 128.6875 C 185.585938 128.996094 185.644531 129.292969 185.765625 129.574219 C 185.882812 129.859375 186.050781 130.113281 186.269531 130.328125 C 186.488281 130.546875 186.738281 130.714844 187.023438 130.832031 C 187.308594 130.949219 187.605469 131.007812 187.914062 131.007812 L 293.265625 131.007812 C 293.574219 131.007812 293.871094 130.949219 294.15625 130.832031 C 294.441406 130.714844 294.691406 130.546875 294.910156 130.328125 C 295.128906 130.113281 295.296875 129.859375 295.417969 129.574219 C 295.535156 129.292969 295.597656 128.996094 295.597656 128.6875 L 295.597656 86.359375 C 295.597656 86.050781 295.535156 85.757812 295.417969 85.472656 C 295.296875 85.1875 295.128906 84.933594 294.910156 84.71875 C 294.691406 84.5 294.441406 84.332031 294.15625 84.214844 C 293.871094 84.097656 293.574219 84.039062 293.265625 84.039062 Z M 187.914062 84.039062 " fill-opacity="1" fill-rule="nonzero"/><path fill="#26b1d8" d="M 261.15625 160.988281 L 268.445312 148.402344 C 269.601562 149.070312 270.644531 149.882812 271.578125 150.835938 C 272.507812 151.789062 273.296875 152.855469 273.9375 154.023438 C 274.578125 155.195312 275.046875 156.429688 275.347656 157.730469 C 275.648438 159.03125 275.769531 160.351562 275.707031 161.683594 Z M 285.261719 173.261719 C 286.386719 173.980469 287.585938 174.535156 288.859375 174.925781 C 290.136719 175.3125 291.441406 175.523438 292.773438 175.554688 C 294.109375 175.585938 295.421875 175.433594 296.714844 175.101562 C 298.007812 174.773438 299.230469 174.273438 300.386719 173.605469 L 293.105469 160.988281 Z M 285.261719 173.261719 " fill-opacity="1" fill-rule="nonzero"/><path fill="#000000" d="M 261.15625 173.046875 C 260.382812 173.046875 259.613281 172.972656 258.851562 172.820312 C 258.09375 172.671875 257.351562 172.445312 256.636719 172.148438 C 255.917969 171.851562 255.238281 171.488281 254.59375 171.058594 C 253.949219 170.628906 253.351562 170.136719 252.800781 169.589844 C 252.253906 169.039062 251.761719 168.445312 251.332031 167.796875 C 250.898438 167.152344 250.535156 166.472656 250.238281 165.753906 C 249.941406 165.039062 249.71875 164.296875 249.566406 163.535156 C 249.414062 162.777344 249.339844 162.007812 249.339844 161.230469 C 249.335938 160.453125 249.414062 159.6875 249.566406 158.925781 C 249.714844 158.164062 249.941406 157.421875 250.238281 156.707031 C 250.535156 155.988281 250.898438 155.308594 251.328125 154.664062 C 251.757812 154.015625 252.25 153.417969 252.796875 152.871094 C 253.347656 152.320312 253.941406 151.832031 254.589844 151.402344 C 255.234375 150.96875 255.914062 150.605469 256.632812 150.308594 C 257.347656 150.011719 258.085938 149.785156 258.847656 149.636719 C 259.609375 149.484375 260.378906 149.410156 261.152344 149.410156 C 261.929688 149.410156 262.695312 149.484375 263.457031 149.636719 C 264.21875 149.789062 264.957031 150.011719 265.675781 150.308594 C 266.390625 150.609375 267.070312 150.972656 267.714844 151.402344 C 268.363281 151.835938 268.957031 152.324219 269.507812 152.875 C 270.054688 153.421875 270.542969 154.019531 270.976562 154.667969 C 271.40625 155.3125 271.769531 155.992188 272.066406 156.710938 C 272.363281 157.429688 272.585938 158.167969 272.738281 158.929688 C 272.886719 159.691406 272.960938 160.460938 272.960938 161.234375 C 272.960938 162.011719 272.882812 162.777344 272.734375 163.539062 C 272.582031 164.300781 272.355469 165.039062 272.058594 165.753906 C 271.761719 166.46875 271.398438 167.148438 270.96875 167.792969 C 270.539062 168.4375 270.046875 169.035156 269.5 169.582031 C 268.953125 170.132812 268.355469 170.621094 267.710938 171.050781 C 267.070312 171.484375 266.386719 171.847656 265.671875 172.144531 C 264.957031 172.441406 264.21875 172.664062 263.460938 172.816406 C 262.699219 172.96875 261.933594 173.046875 261.15625 173.046875 Z M 261.15625 149.886719 C 260.414062 149.886719 259.675781 149.960938 258.945312 150.105469 C 258.214844 150.25 257.507812 150.464844 256.820312 150.75 C 256.132812 151.03125 255.480469 151.382812 254.859375 151.796875 C 254.242188 152.207031 253.667969 152.679688 253.140625 153.203125 C 252.613281 153.730469 252.144531 154.304688 251.730469 154.921875 C 251.316406 155.542969 250.96875 156.195312 250.683594 156.882812 C 250.398438 157.570312 250.179688 158.28125 250.035156 159.011719 C 249.890625 159.742188 249.816406 160.476562 249.816406 161.222656 C 249.816406 161.96875 249.890625 162.703125 250.035156 163.433594 C 250.179688 164.164062 250.394531 164.875 250.679688 165.5625 C 250.960938 166.25 251.3125 166.90625 251.722656 167.523438 C 252.136719 168.144531 252.609375 168.71875 253.132812 169.242188 C 253.660156 169.769531 254.230469 170.242188 254.851562 170.65625 C 255.46875 171.070312 256.121094 171.417969 256.808594 171.703125 C 257.496094 171.988281 258.207031 172.203125 258.9375 172.347656 C 259.667969 172.496094 260.402344 172.566406 261.148438 172.566406 C 261.890625 172.566406 262.628906 172.496094 263.359375 172.351562 C 264.089844 172.207031 264.796875 171.992188 265.484375 171.707031 C 266.171875 171.421875 266.828125 171.070312 267.445312 170.65625 C 268.0625 170.242188 268.636719 169.773438 269.164062 169.246094 C 269.6875 168.722656 270.160156 168.148438 270.574219 167.527344 C 270.988281 166.910156 271.335938 166.257812 271.621094 165.566406 C 271.90625 164.878906 272.121094 164.171875 272.265625 163.441406 C 272.410156 162.710938 272.484375 161.972656 272.484375 161.226562 C 272.480469 160.484375 272.410156 159.746094 272.261719 159.019531 C 272.117188 158.289062 271.902344 157.582031 271.617188 156.894531 C 271.332031 156.207031 270.984375 155.554688 270.570312 154.9375 C 270.15625 154.316406 269.6875 153.746094 269.160156 153.21875 C 268.636719 152.695312 268.0625 152.222656 267.445312 151.8125 C 266.828125 151.398438 266.175781 151.046875 265.488281 150.761719 C 264.804688 150.476562 264.09375 150.261719 263.367188 150.117188 C 262.636719 149.96875 261.902344 149.898438 261.15625 149.894531 Z M 293.082031 173.046875 C 292.308594 173.046875 291.539062 172.972656 290.777344 172.820312 C 290.015625 172.671875 289.277344 172.445312 288.5625 172.148438 C 287.84375 171.851562 287.164062 171.488281 286.515625 171.058594 C 285.871094 170.628906 285.273438 170.136719 284.726562 169.589844 C 284.175781 169.039062 283.6875 168.445312 283.257812 167.796875 C 282.824219 167.152344 282.460938 166.472656 282.164062 165.753906 C 281.867188 165.039062 281.640625 164.296875 281.492188 163.535156 C 281.339844 162.777344 281.261719 162.007812 281.261719 161.230469 C 281.261719 160.453125 281.339844 159.6875 281.488281 158.925781 C 281.640625 158.164062 281.863281 157.421875 282.160156 156.707031 C 282.457031 155.988281 282.820312 155.308594 283.253906 154.664062 C 283.683594 154.015625 284.171875 153.417969 284.722656 152.871094 C 285.269531 152.320312 285.867188 151.832031 286.511719 151.402344 C 287.15625 150.96875 287.839844 150.605469 288.554688 150.308594 C 289.273438 150.011719 290.011719 149.785156 290.773438 149.636719 C 291.535156 149.484375 292.300781 149.410156 293.078125 149.410156 C 293.851562 149.410156 294.621094 149.484375 295.382812 149.636719 C 296.144531 149.789062 296.882812 150.011719 297.597656 150.308594 C 298.316406 150.609375 298.996094 150.972656 299.640625 151.402344 C 300.285156 151.835938 300.882812 152.324219 301.429688 152.875 C 301.980469 153.421875 302.46875 154.019531 302.898438 154.667969 C 303.332031 155.3125 303.695312 155.992188 303.992188 156.710938 C 304.285156 157.429688 304.511719 158.167969 304.660156 158.929688 C 304.8125 159.691406 304.886719 160.460938 304.886719 161.234375 C 304.886719 162.011719 304.808594 162.777344 304.65625 163.535156 C 304.507812 164.296875 304.28125 165.03125 303.988281 165.746094 C 303.691406 166.464844 303.328125 167.144531 302.898438 167.785156 C 302.46875 168.429688 301.980469 169.027344 301.433594 169.574219 C 300.886719 170.121094 300.292969 170.613281 299.648438 171.042969 C 299.007812 171.472656 298.328125 171.839844 297.613281 172.136719 C 296.898438 172.433594 296.164062 172.660156 295.40625 172.8125 C 294.648438 172.964844 293.878906 173.042969 293.105469 173.046875 Z M 293.082031 149.886719 C 292.339844 149.886719 291.601562 149.960938 290.871094 150.105469 C 290.140625 150.25 289.433594 150.464844 288.746094 150.75 C 288.058594 151.03125 287.402344 151.382812 286.785156 151.796875 C 286.164062 152.207031 285.59375 152.679688 285.066406 153.203125 C 284.539062 153.730469 284.070312 154.304688 283.65625 154.921875 C 283.242188 155.542969 282.890625 156.195312 282.605469 156.882812 C 282.320312 157.570312 282.105469 158.28125 281.960938 159.011719 C 281.816406 159.742188 281.742188 160.476562 281.742188 161.222656 C 281.742188 161.96875 281.8125 162.703125 281.957031 163.433594 C 282.101562 164.164062 282.316406 164.875 282.601562 165.5625 C 282.886719 166.25 283.234375 166.90625 283.648438 167.523438 C 284.0625 168.144531 284.53125 168.71875 285.058594 169.242188 C 285.585938 169.769531 286.15625 170.242188 286.773438 170.65625 C 287.394531 171.070312 288.046875 171.417969 288.734375 171.703125 C 289.421875 171.988281 290.132812 172.203125 290.859375 172.347656 C 291.589844 172.496094 292.328125 172.566406 293.070312 172.566406 C 293.816406 172.566406 294.554688 172.496094 295.285156 172.351562 C 296.011719 172.207031 296.722656 171.992188 297.410156 171.707031 C 298.097656 171.421875 298.75 171.070312 299.371094 170.65625 C 299.988281 170.242188 300.5625 169.773438 301.085938 169.246094 C 301.613281 168.722656 302.082031 168.148438 302.496094 167.527344 C 302.910156 166.910156 303.261719 166.257812 303.546875 165.566406 C 303.828125 164.878906 304.046875 164.171875 304.191406 163.441406 C 304.335938 162.710938 304.40625 161.972656 304.40625 161.226562 C 304.40625 160.484375 304.332031 159.75 304.1875 159.023438 C 304.042969 158.292969 303.828125 157.585938 303.542969 156.902344 C 303.257812 156.214844 302.910156 155.5625 302.496094 154.945312 C 302.085938 154.328125 301.617188 153.757812 301.09375 153.230469 C 300.566406 152.703125 299.996094 152.234375 299.382812 151.820312 C 298.765625 151.40625 298.113281 151.058594 297.429688 150.773438 C 296.746094 150.484375 296.039062 150.269531 295.3125 150.121094 C 294.582031 149.972656 293.847656 149.898438 293.105469 149.894531 Z M 293.082031 149.886719 " fill-opacity="1" fill-rule="nonzero"/><path fill="#ffffff" d="M 186.628906 31.441406 L 130.761719 31.441406 C 130.667969 31.457031 130.585938 31.433594 130.515625 31.375 C 130.445312 31.3125 130.410156 31.238281 130.410156 31.144531 C 130.410156 31.050781 130.445312 30.972656 130.515625 30.910156 C 130.585938 30.851562 130.667969 30.828125 130.761719 30.84375 L 186.628906 30.84375 C 186.722656 30.828125 186.804688 30.851562 186.875 30.910156 C 186.945312 30.972656 186.980469 31.050781 186.980469 31.144531 C 186.980469 31.238281 186.945312 31.3125 186.875 31.375 C 186.804688 31.433594 186.722656 31.457031 186.628906 31.441406 Z M 186.933594 36.738281 C 186.933594 36.652344 186.902344 36.582031 186.84375 36.523438 C 186.785156 36.464844 186.714844 36.433594 186.628906 36.433594 L 130.761719 36.433594 C 130.679688 36.433594 130.605469 36.464844 130.546875 36.523438 C 130.488281 36.582031 130.457031 36.652344 130.457031 36.738281 C 130.457031 36.820312 130.488281 36.890625 130.546875 36.949219 C 130.609375 37.007812 130.679688 37.035156 130.761719 37.03125 L 186.628906 37.03125 C 186.714844 37.035156 186.785156 37.007812 186.84375 36.949219 C 186.902344 36.890625 186.933594 36.820312 186.933594 36.738281 Z M 186.933594 43.125 C 186.929688 43.042969 186.902344 42.972656 186.839844 42.917969 C 186.78125 42.859375 186.710938 42.832031 186.628906 42.832031 L 130.761719 42.832031 C 130.667969 42.816406 130.585938 42.839844 130.515625 42.898438 C 130.445312 42.960938 130.410156 43.035156 130.410156 43.128906 C 130.410156 43.222656 130.445312 43.300781 130.515625 43.359375 C 130.585938 43.421875 130.667969 43.445312 130.761719 43.429688 L 186.628906 43.429688 C 186.714844 43.429688 186.785156 43.398438 186.84375 43.339844 C 186.902344 43.28125 186.933594 43.210938 186.933594 43.125 Z M 186.933594 43.125 " fill-opacity="1" fill-rule="nonzero"/><path fill="#26b1d8" d="M 184.539062 159.359375 C 184.539062 159.597656 184.496094 159.824219 184.40625 160.046875 C 184.316406 160.265625 184.1875 160.460938 184.019531 160.628906 C 183.851562 160.796875 183.660156 160.925781 183.4375 161.019531 C 183.21875 161.109375 182.992188 161.15625 182.753906 161.15625 C 182.515625 161.15625 182.289062 161.109375 182.066406 161.019531 C 181.847656 160.929688 181.65625 160.800781 181.488281 160.632812 C 181.320312 160.464844 181.191406 160.269531 181.097656 160.050781 C 181.007812 159.832031 180.964844 159.601562 180.964844 159.363281 C 180.964844 159.128906 181.007812 158.898438 181.101562 158.679688 C 181.191406 158.460938 181.324219 158.265625 181.492188 158.097656 C 181.660156 157.929688 181.851562 157.800781 182.074219 157.710938 C 182.292969 157.621094 182.523438 157.578125 182.757812 157.578125 C 182.996094 157.578125 183.222656 157.625 183.441406 157.714844 C 183.660156 157.804688 183.851562 157.933594 184.019531 158.101562 C 184.183594 158.265625 184.3125 158.460938 184.402344 158.679688 C 184.492188 158.894531 184.539062 159.125 184.539062 159.359375 Z M 191.667969 164.152344 C 191.429688 164.152344 191.203125 164.195312 190.984375 164.285156 C 190.765625 164.375 190.574219 164.503906 190.40625 164.671875 C 190.242188 164.839844 190.113281 165.03125 190.023438 165.25 C 189.929688 165.46875 189.886719 165.695312 189.886719 165.933594 C 189.886719 166.167969 189.929688 166.394531 190.023438 166.613281 C 190.113281 166.832031 190.242188 167.023438 190.40625 167.191406 C 190.574219 167.359375 190.765625 167.488281 190.984375 167.578125 C 191.203125 167.667969 191.429688 167.710938 191.667969 167.710938 C 191.902344 167.710938 192.128906 167.667969 192.347656 167.578125 C 192.566406 167.488281 192.757812 167.359375 192.925781 167.191406 C 193.089844 167.023438 193.21875 166.832031 193.308594 166.613281 C 193.402344 166.394531 193.445312 166.167969 193.445312 165.933594 C 193.453125 165.691406 193.410156 165.460938 193.320312 165.238281 C 193.234375 165.015625 193.105469 164.820312 192.9375 164.648438 C 192.769531 164.480469 192.578125 164.347656 192.355469 164.253906 C 192.136719 164.164062 191.90625 164.117188 191.667969 164.117188 Z M 205.027344 151.515625 C 204.789062 151.515625 204.558594 151.5625 204.339844 151.652344 C 204.121094 151.742188 203.925781 151.871094 203.757812 152.039062 C 203.589844 152.203125 203.460938 152.398438 203.367188 152.617188 C 203.277344 152.835938 203.230469 153.066406 203.230469 153.304688 C 203.230469 153.542969 203.277344 153.769531 203.367188 153.988281 C 203.457031 154.210938 203.585938 154.402344 203.753906 154.570312 C 203.921875 154.738281 204.117188 154.867188 204.335938 154.960938 C 204.554688 155.050781 204.785156 155.09375 205.019531 155.09375 C 205.257812 155.09375 205.488281 155.046875 205.707031 154.957031 C 205.925781 154.867188 206.117188 154.734375 206.285156 154.566406 C 206.453125 154.398438 206.582031 154.203125 206.671875 153.984375 C 206.761719 153.765625 206.808594 153.535156 206.804688 153.296875 C 206.8125 153.058594 206.769531 152.828125 206.679688 152.605469 C 206.59375 152.386719 206.464844 152.1875 206.296875 152.019531 C 206.128906 151.847656 205.933594 151.714844 205.714844 151.625 C 205.496094 151.53125 205.265625 151.484375 205.027344 151.484375 Z M 216.605469 163.777344 C 216.371094 163.777344 216.140625 163.820312 215.921875 163.910156 C 215.703125 164.003906 215.511719 164.132812 215.34375 164.300781 C 215.175781 164.46875 215.046875 164.664062 214.953125 164.882812 C 214.863281 165.101562 214.820312 165.328125 214.820312 165.566406 C 214.820312 165.804688 214.867188 166.03125 214.957031 166.253906 C 215.046875 166.472656 215.179688 166.664062 215.347656 166.832031 C 215.515625 167 215.707031 167.128906 215.925781 167.21875 C 216.148438 167.308594 216.375 167.355469 216.613281 167.351562 C 216.851562 167.351562 217.078125 167.304688 217.296875 167.214844 C 217.515625 167.125 217.710938 166.992188 217.875 166.824219 C 218.042969 166.65625 218.171875 166.460938 218.261719 166.242188 C 218.351562 166.023438 218.394531 165.792969 218.394531 165.554688 C 218.398438 165.316406 218.355469 165.085938 218.269531 164.863281 C 218.179688 164.640625 218.050781 164.445312 217.882812 164.273438 C 217.714844 164.101562 217.519531 163.972656 217.296875 163.878906 C 217.078125 163.789062 216.847656 163.742188 216.605469 163.742188 Z M 216.605469 163.777344 " fill-opacity="1" fill-rule="nonzero"/><path fill="#000000" d="M 287.175781 237.84375 L 208.769531 237.84375 C 208.5 237.84375 208.234375 237.816406 207.972656 237.765625 C 207.710938 237.710938 207.453125 237.632812 207.207031 237.53125 C 206.960938 237.425781 206.722656 237.300781 206.5 237.152344 C 206.277344 237.003906 206.074219 236.832031 205.882812 236.644531 C 205.691406 236.453125 205.523438 236.246094 205.375 236.023438 C 205.226562 235.800781 205.097656 235.566406 204.996094 235.320312 C 204.894531 235.070312 204.816406 234.816406 204.761719 234.550781 C 204.710938 234.289062 204.683594 234.023438 204.683594 233.753906 L 204.683594 208.757812 C 204.683594 208.492188 204.710938 208.226562 204.761719 207.960938 C 204.816406 207.699219 204.894531 207.445312 204.996094 207.195312 C 205.097656 206.949219 205.226562 206.710938 205.375 206.488281 C 205.523438 206.265625 205.691406 206.058594 205.882812 205.871094 C 206.074219 205.679688 206.277344 205.511719 206.5 205.363281 C 206.722656 205.214844 206.960938 205.085938 207.207031 204.984375 C 207.453125 204.882812 207.710938 204.804688 207.972656 204.75 C 208.234375 204.699219 208.5 204.671875 208.769531 204.671875 L 287.175781 204.671875 C 287.445312 204.671875 287.710938 204.699219 287.972656 204.75 C 288.234375 204.804688 288.492188 204.882812 288.738281 204.984375 C 288.984375 205.085938 289.21875 205.214844 289.441406 205.363281 C 289.664062 205.511719 289.871094 205.679688 290.0625 205.871094 C 290.25 206.0625 290.417969 206.265625 290.566406 206.492188 C 290.714844 206.714844 290.84375 206.949219 290.945312 207.195312 C 291.046875 207.445312 291.125 207.699219 291.175781 207.960938 C 291.230469 208.226562 291.253906 208.492188 291.253906 208.757812 L 291.253906 233.722656 C 291.257812 233.992188 291.234375 234.257812 291.183594 234.523438 C 291.132812 234.789062 291.054688 235.046875 290.953125 235.296875 C 290.851562 235.546875 290.726562 235.78125 290.578125 236.007812 C 290.429688 236.234375 290.261719 236.441406 290.074219 236.632812 C 289.882812 236.824219 289.675781 236.996094 289.453125 237.144531 C 289.230469 237.296875 288.992188 237.421875 288.746094 237.527344 C 288.496094 237.632812 288.242188 237.710938 287.976562 237.761719 C 287.710938 237.816406 287.445312 237.84375 287.175781 237.84375 Z M 208.769531 205.300781 C 208.308594 205.300781 207.863281 205.390625 207.433594 205.566406 C 207.007812 205.746094 206.628906 205.996094 206.304688 206.324219 C 205.976562 206.652344 205.722656 207.027344 205.546875 207.457031 C 205.371094 207.882812 205.28125 208.328125 205.28125 208.792969 L 205.28125 233.753906 C 205.28125 234.21875 205.371094 234.664062 205.546875 235.089844 C 205.722656 235.519531 205.976562 235.894531 206.304688 236.222656 C 206.628906 236.550781 207.007812 236.800781 207.433594 236.980469 C 207.863281 237.15625 208.308594 237.246094 208.769531 237.246094 L 287.175781 237.246094 C 287.636719 237.242188 288.082031 237.15625 288.507812 236.976562 C 288.933594 236.800781 289.3125 236.546875 289.636719 236.21875 C 289.964844 235.894531 290.214844 235.515625 290.390625 235.089844 C 290.566406 234.660156 290.65625 234.21875 290.65625 233.753906 L 290.65625 208.757812 C 290.65625 208.296875 290.566406 207.851562 290.390625 207.425781 C 290.214844 207 289.964844 206.621094 289.636719 206.292969 C 289.3125 205.96875 288.933594 205.714844 288.507812 205.539062 C 288.082031 205.359375 287.636719 205.269531 287.175781 205.269531 Z M 208.769531 205.300781 " fill-opacity="1" fill-rule="nonzero"/><path fill="#26b1d8" d="M 231.714844 220.125 C 231.714844 220.738281 231.65625 221.347656 231.539062 221.953125 C 231.417969 222.554688 231.242188 223.140625 231.007812 223.710938 C 230.769531 224.277344 230.484375 224.816406 230.140625 225.328125 C 229.800781 225.839844 229.414062 226.316406 228.976562 226.75 C 228.542969 227.1875 228.070312 227.574219 227.558594 227.917969 C 227.050781 228.257812 226.511719 228.546875 225.941406 228.785156 C 225.375 229.019531 224.789062 229.195312 224.1875 229.316406 C 223.582031 229.4375 222.972656 229.5 222.359375 229.5 C 221.746094 229.5 221.136719 229.4375 220.53125 229.320312 C 219.929688 229.199219 219.34375 229.023438 218.777344 228.789062 C 218.207031 228.550781 217.667969 228.265625 217.15625 227.921875 C 216.644531 227.582031 216.171875 227.191406 215.738281 226.757812 C 215.300781 226.324219 214.914062 225.851562 214.570312 225.339844 C 214.230469 224.828125 213.941406 224.289062 213.707031 223.71875 C 213.46875 223.152344 213.292969 222.566406 213.171875 221.960938 C 213.050781 221.359375 212.992188 220.75 212.992188 220.132812 C 212.992188 219.519531 213.050781 218.910156 213.171875 218.304688 C 213.292969 217.703125 213.46875 217.117188 213.703125 216.546875 C 213.9375 215.980469 214.226562 215.441406 214.570312 214.929688 C 214.910156 214.417969 215.296875 213.945312 215.734375 213.507812 C 216.167969 213.074219 216.640625 212.683594 217.152344 212.34375 C 217.664062 212 218.203125 211.710938 218.769531 211.476562 C 219.339844 211.242188 219.925781 211.0625 220.527344 210.945312 C 221.128906 210.824219 221.738281 210.765625 222.355469 210.765625 C 222.96875 210.765625 223.578125 210.824219 224.179688 210.945312 C 224.78125 211.0625 225.367188 211.242188 225.933594 211.476562 C 226.503906 211.710938 227.042969 212 227.550781 212.339844 C 228.0625 212.683594 228.535156 213.070312 228.972656 213.503906 C 229.40625 213.9375 229.792969 214.410156 230.136719 214.921875 C 230.476562 215.433594 230.765625 215.972656 231 216.539062 C 231.234375 217.109375 231.414062 217.695312 231.535156 218.296875 C 231.65625 218.898438 231.714844 219.507812 231.714844 220.125 Z M 231.714844 220.125 " fill-opacity="1" fill-rule="nonzero"/><path fill="#000000" d="M 280.808594 227.277344 L 238.035156 227.277344 C 237.867188 227.25 237.78125 227.152344 237.78125 226.980469 C 237.78125 226.808594 237.867188 226.707031 238.035156 226.679688 L 280.808594 226.679688 C 280.976562 226.707031 281.0625 226.808594 281.0625 226.980469 C 281.0625 227.152344 280.976562 227.25 280.808594 227.277344 Z M 281.101562 220.585938 C 281.101562 220.503906 281.070312 220.4375 281.015625 220.378906 C 280.957031 220.324219 280.886719 220.292969 280.808594 220.289062 L 238.035156 220.289062 C 237.867188 220.320312 237.78125 220.417969 237.78125 220.589844 C 237.78125 220.761719 237.867188 220.863281 238.035156 220.890625 L 280.808594 220.890625 C 280.890625 220.886719 280.960938 220.855469 281.015625 220.796875 C 281.074219 220.738281 281.101562 220.667969 281.101562 220.585938 Z M 249.179688 214.996094 C 249.179688 214.914062 249.148438 214.839844 249.089844 214.78125 C 249.03125 214.722656 248.957031 214.691406 248.875 214.691406 L 238.035156 214.691406 C 237.953125 214.695312 237.886719 214.726562 237.828125 214.785156 C 237.769531 214.84375 237.742188 214.914062 237.742188 214.996094 C 237.742188 215.078125 237.769531 215.148438 237.828125 215.207031 C 237.886719 215.261719 237.957031 215.292969 238.035156 215.292969 L 248.859375 215.292969 C 248.941406 215.292969 249.011719 215.265625 249.074219 215.207031 C 249.132812 215.148438 249.164062 215.078125 249.164062 214.996094 Z M 249.179688 214.996094 " fill-opacity="1" fill-rule="nonzero"/><path fill="#ffffff" d="M 210.71875 46.71875 C 210.089844 46.71875 209.464844 46.660156 208.847656 46.535156 C 208.230469 46.414062 207.632812 46.230469 207.050781 45.988281 C 206.472656 45.75 205.917969 45.453125 205.394531 45.105469 C 204.875 44.753906 204.390625 44.359375 203.945312 43.914062 C 203.5 43.46875 203.101562 42.984375 202.753906 42.460938 C 202.40625 41.9375 202.109375 41.386719 201.867188 40.804688 C 201.628906 40.222656 201.445312 39.625 201.324219 39.007812 C 201.203125 38.390625 201.140625 37.765625 201.140625 37.136719 C 201.140625 36.507812 201.203125 35.882812 201.324219 35.265625 C 201.445312 34.648438 201.628906 34.050781 201.867188 33.46875 C 202.109375 32.886719 202.40625 32.335938 202.753906 31.8125 C 203.101562 31.289062 203.5 30.804688 203.945312 30.359375 C 204.390625 29.914062 204.875 29.519531 205.394531 29.167969 C 205.917969 28.820312 206.472656 28.523438 207.050781 28.28125 C 207.632812 28.042969 208.230469 27.859375 208.847656 27.738281 C 209.464844 27.613281 210.089844 27.554688 210.71875 27.554688 C 211.347656 27.554688 211.96875 27.613281 212.585938 27.738281 C 213.203125 27.859375 213.800781 28.042969 214.382812 28.28125 C 214.964844 28.523438 215.515625 28.820312 216.039062 29.167969 C 216.5625 29.519531 217.042969 29.914062 217.488281 30.359375 C 217.933594 30.804688 218.332031 31.289062 218.679688 31.8125 C 219.03125 32.335938 219.324219 32.886719 219.566406 33.46875 C 219.804688 34.050781 219.988281 34.648438 220.109375 35.265625 C 220.234375 35.882812 220.292969 36.507812 220.292969 37.136719 C 220.292969 37.765625 220.234375 38.390625 220.109375 39.007812 C 219.988281 39.625 219.804688 40.222656 219.566406 40.804688 C 219.324219 41.386719 219.03125 41.9375 218.679688 42.460938 C 218.332031 42.984375 217.933594 43.46875 217.488281 43.914062 C 217.042969 44.359375 216.5625 44.753906 216.039062 45.105469 C 215.515625 45.453125 214.964844 45.75 214.382812 45.988281 C 213.800781 46.230469 213.203125 46.414062 212.585938 46.535156 C 211.96875 46.660156 211.347656 46.71875 210.71875 46.71875 Z M 210.71875 28.128906 C 210.125 28.128906 209.542969 28.1875 208.960938 28.300781 C 208.382812 28.417969 207.820312 28.585938 207.273438 28.8125 C 206.730469 29.039062 206.210938 29.316406 205.71875 29.644531 C 205.230469 29.972656 204.773438 30.347656 204.355469 30.765625 C 203.9375 31.183594 203.566406 31.636719 203.238281 32.128906 C 202.910156 32.621094 202.632812 33.136719 202.40625 33.683594 C 202.179688 34.230469 202.011719 34.792969 201.894531 35.371094 C 201.78125 35.953125 201.722656 36.539062 201.722656 37.128906 C 201.722656 37.71875 201.78125 38.304688 201.894531 38.882812 C 202.011719 39.464844 202.179688 40.027344 202.40625 40.574219 C 202.632812 41.117188 202.910156 41.636719 203.238281 42.128906 C 203.566406 42.621094 203.9375 43.074219 204.355469 43.492188 C 204.773438 43.910156 205.230469 44.285156 205.71875 44.613281 C 206.210938 44.941406 206.730469 45.21875 207.273438 45.445312 C 207.820312 45.667969 208.382812 45.839844 208.960938 45.957031 C 209.542969 46.070312 210.125 46.128906 210.71875 46.128906 C 211.308594 46.128906 211.894531 46.070312 212.472656 45.957031 C 213.050781 45.839844 213.613281 45.667969 214.160156 45.445312 C 214.703125 45.21875 215.222656 44.941406 215.714844 44.613281 C 216.207031 44.285156 216.660156 43.910156 217.078125 43.492188 C 217.496094 43.074219 217.867188 42.621094 218.195312 42.128906 C 218.523438 41.636719 218.800781 41.117188 219.027344 40.574219 C 219.253906 40.027344 219.425781 39.464844 219.539062 38.882812 C 219.65625 38.304688 219.710938 37.71875 219.710938 37.128906 C 219.710938 36.539062 219.652344 35.953125 219.539062 35.375 C 219.421875 34.792969 219.25 34.230469 219.023438 33.6875 C 218.800781 33.140625 218.523438 32.621094 218.195312 32.128906 C 217.867188 31.640625 217.492188 31.183594 217.074219 30.765625 C 216.65625 30.347656 216.203125 29.976562 215.710938 29.648438 C 215.222656 29.320312 214.703125 29.042969 214.15625 28.816406 C 213.613281 28.589844 213.050781 28.417969 212.472656 28.304688 C 211.890625 28.1875 211.308594 28.128906 210.71875 28.128906 Z M 210.71875 28.128906 " fill-opacity="1" fill-rule="nonzero"/><path fill="#26b1d8" d="M 221.253906 33.144531 L 211.617188 37.464844 L 214.882812 27.234375 C 219.894531 27.585938 221.253906 33.144531 221.253906 33.144531 Z M 221.253906 33.144531 " fill-opacity="1" fill-rule="nonzero"/><path fill="#ffffff" d="M 211.617188 37.765625 C 211.542969 37.765625 211.476562 37.738281 211.417969 37.6875 C 211.324219 37.601562 211.296875 37.496094 211.339844 37.375 L 214.597656 27.136719 C 214.648438 26.992188 214.75 26.921875 214.90625 26.929688 C 220.078125 27.296875 221.523438 33.015625 221.539062 33.070312 C 221.582031 33.234375 221.527344 33.351562 221.371094 33.421875 L 211.746094 37.734375 C 211.707031 37.757812 211.664062 37.769531 211.617188 37.765625 Z M 215.089844 27.554688 L 212.113281 36.921875 L 220.894531 32.976562 C 220.574219 31.960938 219.074219 27.976562 215.089844 27.554688 Z M 215.089844 27.554688 " fill-opacity="1" fill-rule="nonzero"/><path fill="#000000" d="M 364.195312 164.375 C 364.019531 164.371094 363.917969 164.285156 363.890625 164.109375 L 362.535156 152.394531 C 362.3125 150.515625 361.925781 148.667969 361.378906 146.855469 L 359.78125 141.574219 C 359.757812 141.496094 359.765625 141.421875 359.800781 141.347656 C 359.839844 141.277344 359.898438 141.226562 359.976562 141.203125 C 360.054688 141.179688 360.128906 141.1875 360.203125 141.222656 C 360.277344 141.261719 360.324219 141.320312 360.347656 141.398438 L 361.945312 146.679688 C 362.511719 148.527344 362.90625 150.410156 363.125 152.332031 L 364.5 164.023438 C 364.507812 164.105469 364.488281 164.175781 364.433594 164.242188 C 364.382812 164.304688 364.316406 164.34375 364.234375 164.351562 Z M 364.195312 164.375 " fill-opacity="1" fill-rule="nonzero"/><path fill="#26b1d8" d="M 108.238281 114.0625 L 100.144531 133.515625 C 100.050781 133.742188 99.933594 133.953125 99.789062 134.148438 C 99.644531 134.347656 99.480469 134.523438 99.292969 134.679688 C 99.105469 134.835938 98.902344 134.96875 98.683594 135.078125 C 98.464844 135.1875 98.238281 135.269531 98 135.324219 C 97.761719 135.378906 97.523438 135.402344 97.277344 135.398438 C 97.035156 135.394531 96.796875 135.363281 96.558594 135.304688 C 96.324219 135.242188 96.097656 135.15625 95.882812 135.042969 C 95.667969 134.925781 95.46875 134.789062 95.285156 134.628906 L 82.5625 123.34375 C 82.496094 125.039062 82.140625 126.671875 81.496094 128.242188 C 80.855469 129.8125 79.964844 131.226562 78.828125 132.488281 C 79.785156 133.179688 80.632812 133.984375 81.371094 134.90625 C 82.109375 135.828125 82.710938 136.832031 83.175781 137.917969 C 83.640625 139.003906 83.953125 140.132812 84.109375 141.304688 C 84.265625 142.476562 84.265625 143.648438 84.105469 144.816406 C 83.417969 151.339844 81.167969 156.386719 73.417969 157.441406 C 73.207031 157.472656 73 157.492188 72.785156 157.5 C 70.214844 158.175781 67.59375 158.527344 64.933594 158.554688 C 63.140625 158.5625 61.375 158.359375 59.632812 157.9375 C 56.296875 157.140625 47.757812 155.734375 47.664062 155.71875 L 47.296875 155.660156 L 47.296875 155.285156 C 47.296875 155.039062 47.566406 130.066406 52.539062 118.457031 C 57.511719 106.84375 61.214844 101.652344 61.214844 101.605469 L 61.332031 101.4375 L 61.542969 101.4375 C 62.292969 101.4375 80.042969 100.34375 83.886719 105.6875 C 87.082031 110.144531 94.074219 118.382812 95.910156 120.539062 L 100.617188 109.695312 Z M 108.238281 114.0625 " fill-opacity="1" fill-rule="nonzero"/><path fill="#000000" d="M 81.167969 76.652344 C 81.167969 76.652344 87.417969 74.359375 88.453125 83.320312 C 88.453125 83.320312 89.476562 89.867188 83.144531 90.921875 C 81.894531 91.128906 80.027344 91.71875 80.855469 96.335938 C 80.855469 96.335938 83.976562 104.042969 80.234375 107.378906 C 79.050781 108.425781 77.941406 109.039062 74.191406 109.257812 C 72.332031 109.351562 72.667969 110.933594 70.449219 115.707031 C 67.03125 123.0625 52.960938 132.789062 38.59375 121.753906 C 36.019531 119.78125 32.289062 114.457031 41.90625 109.273438 C 48.164062 105.886719 61.683594 103.433594 64.183594 91.558594 C 64.183594 91.542969 67.304688 73.007812 81.167969 76.652344 Z M 81.167969 76.652344 " fill-opacity="1" fill-rule="nonzero"/><path fill="#ffffff" d="M 177.292969 218.574219 C 176.484375 218.917969 175.640625 219.070312 174.761719 219.039062 C 174.171875 219.070312 173.597656 218.980469 173.042969 218.773438 C 172.488281 218.566406 171.996094 218.257812 171.570312 217.847656 C 170.734375 216.945312 170.347656 215.878906 170.40625 214.652344 C 170.378906 214.015625 170.480469 213.394531 170.707031 212.796875 C 170.933594 212.199219 171.269531 211.671875 171.714844 211.210938 C 172.164062 210.769531 172.683594 210.433594 173.273438 210.203125 C 173.863281 209.972656 174.472656 209.871094 175.105469 209.894531 C 175.851562 209.875 176.582031 209.984375 177.292969 210.222656 L 177.292969 212.144531 C 176.667969 211.773438 175.992188 211.597656 175.265625 211.609375 C 174.476562 211.582031 173.808594 211.847656 173.253906 212.410156 C 172.707031 213.011719 172.453125 213.71875 172.496094 214.535156 C 172.453125 215.3125 172.695312 215.996094 173.214844 216.578125 C 173.738281 217.136719 174.386719 217.40625 175.152344 217.375 C 175.917969 217.382812 176.632812 217.195312 177.292969 216.808594 Z M 178.746094 218.574219 L 178.746094 216.59375 C 179.445312 217.191406 180.257812 217.492188 181.179688 217.496094 C 181.398438 217.496094 181.617188 217.476562 181.832031 217.433594 C 182 217.394531 182.15625 217.328125 182.304688 217.242188 C 182.417969 217.167969 182.511719 217.078125 182.582031 216.960938 C 182.648438 216.851562 182.679688 216.730469 182.679688 216.601562 C 182.679688 216.429688 182.628906 216.277344 182.527344 216.136719 C 182.417969 215.988281 182.28125 215.863281 182.121094 215.761719 C 181.925781 215.636719 181.726562 215.523438 181.515625 215.425781 L 180.757812 215.101562 C 180.15625 214.878906 179.640625 214.527344 179.214844 214.046875 C 178.859375 213.609375 178.691406 213.109375 178.703125 212.542969 C 178.695312 212.125 178.785156 211.726562 178.984375 211.355469 C 179.167969 211.027344 179.417969 210.761719 179.734375 210.554688 C 180.078125 210.335938 180.449219 210.179688 180.84375 210.085938 C 181.28125 209.984375 181.726562 209.933594 182.175781 209.933594 C 182.585938 209.929688 182.992188 209.960938 183.398438 210.019531 C 183.738281 210.070312 184.066406 210.15625 184.386719 210.277344 L 184.386719 212.121094 C 184.234375 212.015625 184.070312 211.925781 183.902344 211.851562 C 183.726562 211.769531 183.542969 211.707031 183.359375 211.660156 C 183.175781 211.601562 182.992188 211.5625 182.808594 211.539062 C 182.632812 211.527344 182.460938 211.527344 182.289062 211.539062 C 182.082031 211.535156 181.875 211.554688 181.671875 211.601562 C 181.503906 211.636719 181.347656 211.695312 181.203125 211.785156 C 181.078125 211.851562 180.980469 211.945312 180.90625 212.066406 C 180.835938 212.175781 180.800781 212.300781 180.804688 212.433594 C 180.804688 212.574219 180.84375 212.710938 180.914062 212.832031 C 181.007812 212.960938 181.121094 213.070312 181.25 213.160156 C 181.417969 213.277344 181.59375 213.382812 181.777344 213.472656 C 181.984375 213.570312 182.214844 213.675781 182.472656 213.78125 C 182.800781 213.921875 183.121094 214.078125 183.429688 214.253906 C 183.695312 214.410156 183.933594 214.601562 184.148438 214.820312 C 184.355469 215.027344 184.507812 215.265625 184.609375 215.539062 C 184.867188 216.28125 184.828125 217.007812 184.492188 217.71875 C 184.292969 218.054688 184.027344 218.320312 183.691406 218.519531 C 183.347656 218.738281 182.976562 218.886719 182.574219 218.964844 C 182.132812 219.058594 181.679688 219.105469 181.226562 219.101562 C 180.761719 219.101562 180.296875 219.0625 179.839844 218.980469 C 179.453125 218.890625 179.089844 218.746094 178.746094 218.550781 Z M 186.136719 218.574219 L 186.136719 216.59375 C 186.484375 216.890625 186.871094 217.117188 187.300781 217.273438 C 187.714844 217.421875 188.140625 217.496094 188.578125 217.496094 C 188.796875 217.496094 189.015625 217.476562 189.230469 217.433594 C 189.398438 217.390625 189.554688 217.328125 189.703125 217.242188 C 189.816406 217.167969 189.910156 217.074219 189.980469 216.960938 C 190.039062 216.847656 190.070312 216.726562 190.070312 216.601562 C 190.070312 216.433594 190.023438 216.277344 189.925781 216.136719 C 189.8125 215.988281 189.675781 215.863281 189.519531 215.761719 C 189.324219 215.636719 189.121094 215.527344 188.914062 215.425781 L 188.15625 215.101562 C 187.550781 214.878906 187.035156 214.527344 186.605469 214.046875 C 186.257812 213.605469 186.089844 213.105469 186.101562 212.542969 C 186.085938 212.140625 186.167969 211.761719 186.351562 211.402344 C 186.535156 211.042969 186.796875 210.753906 187.132812 210.53125 C 187.476562 210.3125 187.847656 210.15625 188.242188 210.0625 C 188.679688 209.960938 189.125 209.910156 189.574219 209.910156 C 189.984375 209.90625 190.390625 209.9375 190.796875 209.996094 C 191.132812 210.042969 191.460938 210.128906 191.777344 210.253906 L 191.777344 212.097656 C 191.628906 211.992188 191.46875 211.902344 191.300781 211.824219 C 190.949219 211.675781 190.582031 211.574219 190.207031 211.515625 C 190.03125 211.503906 189.859375 211.503906 189.6875 211.515625 C 189.476562 211.511719 189.269531 211.53125 189.0625 211.578125 C 188.898438 211.613281 188.746094 211.671875 188.601562 211.761719 C 188.476562 211.828125 188.378906 211.921875 188.304688 212.042969 C 188.230469 212.152344 188.195312 212.273438 188.195312 212.410156 C 188.195312 212.554688 188.234375 212.6875 188.3125 212.808594 C 188.40625 212.9375 188.519531 213.042969 188.648438 213.136719 C 188.816406 213.253906 188.992188 213.355469 189.175781 213.445312 C 189.402344 213.5625 189.632812 213.667969 189.871094 213.757812 C 190.199219 213.894531 190.515625 214.050781 190.820312 214.230469 C 191.089844 214.386719 191.332031 214.574219 191.546875 214.796875 C 191.75 215.003906 191.902344 215.246094 192.007812 215.515625 C 192.121094 215.820312 192.175781 216.132812 192.167969 216.457031 C 192.183594 216.894531 192.089844 217.308594 191.890625 217.695312 C 191.703125 218.023438 191.449219 218.289062 191.132812 218.496094 C 190.785156 218.714844 190.410156 218.863281 190.007812 218.941406 C 189.5625 219.035156 189.113281 219.082031 188.65625 219.078125 C 188.195312 219.078125 187.734375 219.039062 187.277344 218.957031 C 186.875 218.875 186.496094 218.742188 186.136719 218.550781 Z M 283.503906 49.148438 L 281.335938 49.148438 L 281.335938 45.203125 L 277.34375 45.203125 L 277.34375 49.125 L 275.179688 49.125 L 275.179688 39.539062 L 277.34375 39.539062 L 277.34375 43.375 L 281.335938 43.375 L 281.335938 39.539062 L 283.503906 39.539062 Z M 292.796875 41.289062 L 290.058594 41.289062 L 290.058594 49.148438 L 287.878906 49.148438 L 287.878906 41.265625 L 285.164062 41.265625 L 285.164062 39.507812 L 292.804688 39.507812 Z M 305.382812 49.148438 L 303.242188 49.148438 L 303.242188 43.367188 C 303.242188 42.742188 303.242188 42.0625 303.324219 41.304688 L 303.273438 41.304688 C 303.199219 41.738281 303.101562 42.164062 302.972656 42.582031 L 300.722656 49.125 L 298.949219 49.125 L 296.660156 42.648438 C 296.527344 42.207031 296.425781 41.757812 296.355469 41.304688 L 296.300781 41.304688 C 296.355469 42.253906 296.378906 43.085938 296.378906 43.804688 L 296.378906 49.125 L 294.429688 49.125 L 294.429688 39.539062 L 297.625 39.539062 L 299.585938 45.234375 C 299.742188 45.683594 299.859375 46.140625 299.929688 46.609375 L 299.96875 46.609375 C 300.074219 46.140625 300.199219 45.679688 300.355469 45.226562 L 302.316406 39.539062 L 305.40625 39.539062 Z M 313.632812 49.148438 L 307.910156 49.148438 L 307.910156 39.5625 L 310.074219 39.5625 L 310.074219 47.421875 L 313.632812 47.421875 Z M 300.304688 261.265625 L 294.71875 257.042969 L 300.304688 252.785156 L 299.554688 251.804688 L 293.339844 256.554688 C 293.179688 256.679688 293.097656 256.847656 293.097656 257.050781 C 293.101562 257.253906 293.183594 257.414062 293.347656 257.535156 L 299.59375 262.257812 Z M 315.980469 257.535156 C 316.054688 257.476562 316.113281 257.40625 316.15625 257.320312 C 316.199219 257.234375 316.21875 257.140625 316.21875 257.046875 C 316.21875 256.949219 316.199219 256.859375 316.15625 256.773438 C 316.113281 256.6875 316.054688 256.613281 315.980469 256.554688 L 309.769531 251.804688 L 309.019531 252.785156 L 314.609375 257.042969 L 309.019531 261.265625 L 309.769531 262.257812 Z M 306.625 251.621094 L 305.429688 251.324219 L 302.667969 262.433594 L 303.867188 262.734375 Z M 306.625 251.621094 " fill-opacity="1" fill-rule="nonzero"/></svg>