<svg xmlns="http://www.w3.org/2000/svg" xmlns:xlink="http://www.w3.org/1999/xlink" width="70" zoomAndPan="magnify" viewBox="0 0 52.5 52.499999" height="70" preserveAspectRatio="xMidYMid meet" version="1.0"><defs><clipPath id="da0d3841c4"><path d="M 11 5.25 L 43.238281 5.25 L 43.238281 35.25 L 11 35.25 Z M 11 5.25 " clip-rule="nonzero"/></clipPath></defs><path fill="#26b1d8" d="M 18.324219 27.796875 L 20.136719 27.796875 C 20.238281 27.796875 20.328125 27.757812 20.398438 27.6875 C 20.472656 27.613281 20.507812 27.527344 20.507812 27.421875 C 20.507812 27.320312 20.46875 27.234375 20.398438 27.164062 C 20.324219 27.089844 20.238281 27.054688 20.136719 27.050781 L 18.324219 27.050781 C 18.222656 27.050781 18.132812 27.089844 18.0625 27.160156 C 17.988281 27.234375 17.953125 27.320312 17.953125 27.421875 C 17.953125 27.527344 17.988281 27.613281 18.0625 27.6875 C 18.132812 27.757812 18.222656 27.796875 18.324219 27.796875 Z M 18.324219 27.796875 " fill-opacity="1" fill-rule="nonzero"/><path fill="#26b1d8" d="M 20.277344 28.722656 L 17.074219 28.722656 C 16.972656 28.722656 16.886719 28.761719 16.8125 28.832031 C 16.742188 28.90625 16.703125 28.992188 16.703125 29.097656 C 16.703125 29.199219 16.742188 29.285156 16.8125 29.359375 C 16.886719 29.429688 16.972656 29.46875 17.074219 29.46875 L 20.277344 29.46875 C 20.382812 29.46875 20.46875 29.429688 20.542969 29.359375 C 20.613281 29.285156 20.648438 29.199219 20.648438 29.097656 C 20.648438 28.992188 20.613281 28.90625 20.542969 28.832031 C 20.46875 28.761719 20.382812 28.722656 20.277344 28.722656 Z M 20.277344 28.722656 " fill-opacity="1" fill-rule="nonzero"/><path fill="#26b1d8" d="M 20.136719 30.269531 L 15.574219 30.269531 C 15.472656 30.269531 15.382812 30.308594 15.3125 30.378906 C 15.238281 30.453125 15.203125 30.539062 15.203125 30.640625 C 15.203125 30.746094 15.238281 30.832031 15.3125 30.90625 C 15.382812 30.976562 15.472656 31.015625 15.574219 31.015625 L 20.136719 31.015625 C 20.238281 31.015625 20.328125 30.976562 20.398438 30.90625 C 20.472656 30.832031 20.507812 30.746094 20.507812 30.640625 C 20.507812 30.539062 20.472656 30.453125 20.398438 30.378906 C 20.328125 30.308594 20.238281 30.269531 20.136719 30.269531 Z M 20.136719 30.269531 " fill-opacity="1" fill-rule="nonzero"/><path fill="#26b1d8" d="M 34.472656 27.796875 L 36.320312 27.796875 C 36.425781 27.796875 36.511719 27.757812 36.585938 27.6875 C 36.65625 27.613281 36.691406 27.527344 36.691406 27.421875 C 36.691406 27.320312 36.65625 27.234375 36.585938 27.160156 C 36.511719 27.089844 36.425781 27.050781 36.320312 27.050781 L 34.472656 27.050781 C 34.371094 27.054688 34.28125 27.089844 34.210938 27.164062 C 34.140625 27.234375 34.101562 27.320312 34.101562 27.421875 C 34.101562 27.527344 34.136719 27.613281 34.207031 27.6875 C 34.28125 27.757812 34.367188 27.796875 34.472656 27.796875 Z M 34.472656 27.796875 " fill-opacity="1" fill-rule="nonzero"/><path fill="#26b1d8" d="M 37.601562 29.46875 C 37.703125 29.46875 37.789062 29.429688 37.863281 29.359375 C 37.933594 29.285156 37.972656 29.199219 37.972656 29.097656 C 37.972656 28.992188 37.933594 28.90625 37.863281 28.832031 C 37.789062 28.761719 37.703125 28.722656 37.601562 28.722656 L 34.308594 28.722656 C 34.207031 28.722656 34.117188 28.761719 34.046875 28.832031 C 33.972656 28.90625 33.9375 28.992188 33.9375 29.097656 C 33.9375 29.199219 33.976562 29.285156 34.046875 29.355469 C 34.121094 29.429688 34.207031 29.464844 34.308594 29.46875 Z M 37.601562 29.46875 " fill-opacity="1" fill-rule="nonzero"/><path fill="#26b1d8" d="M 34.101562 30.640625 C 34.101562 30.746094 34.136719 30.832031 34.207031 30.90625 C 34.28125 30.976562 34.367188 31.015625 34.472656 31.015625 L 39.128906 31.015625 C 39.234375 31.015625 39.320312 30.976562 39.394531 30.90625 C 39.464844 30.832031 39.503906 30.746094 39.503906 30.640625 C 39.503906 30.539062 39.464844 30.453125 39.394531 30.378906 C 39.320312 30.308594 39.234375 30.269531 39.128906 30.269531 L 34.472656 30.269531 C 34.367188 30.269531 34.28125 30.308594 34.207031 30.378906 C 34.136719 30.453125 34.101562 30.539062 34.101562 30.640625 Z M 34.101562 30.640625 " fill-opacity="1" fill-rule="nonzero"/><path fill="#26b1d8" d="M 23.019531 27.050781 L 21.929688 27.050781 C 21.828125 27.054688 21.738281 27.089844 21.667969 27.164062 C 21.59375 27.234375 21.558594 27.320312 21.554688 27.421875 C 21.554688 27.527344 21.59375 27.613281 21.664062 27.6875 C 21.738281 27.757812 21.824219 27.796875 21.929688 27.796875 L 23.019531 27.796875 C 23.125 27.796875 23.210938 27.757812 23.285156 27.6875 C 23.355469 27.613281 23.390625 27.527344 23.390625 27.421875 C 23.390625 27.320312 23.351562 27.234375 23.28125 27.164062 C 23.210938 27.089844 23.121094 27.054688 23.019531 27.050781 Z M 23.019531 27.050781 " fill-opacity="1" fill-rule="nonzero"/><path fill="#26b1d8" d="M 23.019531 28.722656 L 21.929688 28.722656 C 21.824219 28.722656 21.738281 28.761719 21.664062 28.832031 C 21.59375 28.90625 21.554688 28.992188 21.554688 29.097656 C 21.558594 29.199219 21.59375 29.285156 21.667969 29.355469 C 21.738281 29.429688 21.828125 29.464844 21.929688 29.46875 L 23.019531 29.46875 C 23.121094 29.464844 23.210938 29.429688 23.28125 29.355469 C 23.351562 29.285156 23.390625 29.199219 23.390625 29.097656 C 23.390625 28.992188 23.355469 28.90625 23.285156 28.832031 C 23.210938 28.761719 23.125 28.722656 23.019531 28.722656 Z M 23.019531 28.722656 " fill-opacity="1" fill-rule="nonzero"/><path fill="#26b1d8" d="M 23.019531 30.382812 L 21.929688 30.382812 C 21.824219 30.382812 21.738281 30.417969 21.664062 30.492188 C 21.59375 30.5625 21.554688 30.652344 21.554688 30.753906 C 21.554688 30.855469 21.59375 30.945312 21.664062 31.015625 C 21.738281 31.089844 21.824219 31.125 21.929688 31.125 L 23.019531 31.125 C 23.125 31.125 23.210938 31.089844 23.285156 31.015625 C 23.355469 30.945312 23.390625 30.855469 23.390625 30.753906 C 23.390625 30.652344 23.355469 30.5625 23.285156 30.492188 C 23.210938 30.417969 23.125 30.382812 23.019531 30.382812 Z M 23.019531 30.382812 " fill-opacity="1" fill-rule="nonzero"/><path fill="#26b1d8" d="M 26.269531 27.050781 L 25.183594 27.050781 C 25.082031 27.050781 24.992188 27.089844 24.921875 27.160156 C 24.847656 27.234375 24.8125 27.320312 24.8125 27.421875 C 24.8125 27.527344 24.847656 27.613281 24.921875 27.6875 C 24.992188 27.757812 25.082031 27.796875 25.183594 27.796875 L 26.269531 27.796875 C 26.371094 27.796875 26.457031 27.757812 26.53125 27.6875 C 26.601562 27.613281 26.640625 27.527344 26.640625 27.421875 C 26.640625 27.320312 26.601562 27.234375 26.53125 27.160156 C 26.457031 27.089844 26.371094 27.050781 26.269531 27.050781 Z M 26.269531 27.050781 " fill-opacity="1" fill-rule="nonzero"/><path fill="#26b1d8" d="M 26.269531 28.722656 L 25.183594 28.722656 C 25.082031 28.722656 24.992188 28.761719 24.921875 28.832031 C 24.847656 28.90625 24.8125 28.992188 24.8125 29.097656 C 24.8125 29.199219 24.847656 29.285156 24.921875 29.359375 C 24.992188 29.429688 25.082031 29.46875 25.183594 29.46875 L 26.269531 29.46875 C 26.371094 29.46875 26.457031 29.429688 26.53125 29.359375 C 26.601562 29.285156 26.640625 29.199219 26.640625 29.097656 C 26.640625 28.992188 26.601562 28.90625 26.53125 28.832031 C 26.457031 28.761719 26.371094 28.722656 26.269531 28.722656 Z M 26.269531 28.722656 " fill-opacity="1" fill-rule="nonzero"/><path fill="#26b1d8" d="M 26.269531 30.382812 L 25.183594 30.382812 C 25.082031 30.382812 24.992188 30.417969 24.921875 30.492188 C 24.847656 30.5625 24.8125 30.652344 24.8125 30.753906 C 24.8125 30.855469 24.847656 30.945312 24.921875 31.015625 C 24.992188 31.089844 25.082031 31.125 25.183594 31.125 L 26.269531 31.125 C 26.371094 31.125 26.457031 31.089844 26.53125 31.015625 C 26.601562 30.945312 26.640625 30.855469 26.640625 30.753906 C 26.640625 30.652344 26.601562 30.5625 26.53125 30.492188 C 26.457031 30.417969 26.371094 30.382812 26.269531 30.382812 Z M 26.269531 30.382812 " fill-opacity="1" fill-rule="nonzero"/><path fill="#26b1d8" d="M 29.523438 27.050781 L 28.453125 27.050781 C 28.351562 27.050781 28.261719 27.089844 28.191406 27.160156 C 28.117188 27.234375 28.082031 27.320312 28.082031 27.421875 C 28.082031 27.527344 28.117188 27.613281 28.191406 27.6875 C 28.261719 27.757812 28.351562 27.796875 28.453125 27.796875 L 29.539062 27.796875 C 29.640625 27.796875 29.726562 27.757812 29.800781 27.6875 C 29.871094 27.613281 29.910156 27.527344 29.910156 27.421875 C 29.910156 27.316406 29.871094 27.226562 29.792969 27.15625 C 29.71875 27.082031 29.628906 27.046875 29.523438 27.050781 Z M 29.523438 27.050781 " fill-opacity="1" fill-rule="nonzero"/><path fill="#26b1d8" d="M 29.523438 28.722656 L 28.453125 28.722656 C 28.351562 28.722656 28.261719 28.761719 28.191406 28.832031 C 28.117188 28.90625 28.082031 28.992188 28.082031 29.097656 C 28.082031 29.199219 28.117188 29.285156 28.191406 29.359375 C 28.261719 29.429688 28.351562 29.46875 28.453125 29.46875 L 29.539062 29.46875 C 29.640625 29.46875 29.726562 29.429688 29.800781 29.359375 C 29.871094 29.285156 29.910156 29.199219 29.910156 29.097656 C 29.910156 28.992188 29.871094 28.902344 29.792969 28.828125 C 29.71875 28.753906 29.628906 28.71875 29.523438 28.722656 Z M 29.523438 28.722656 " fill-opacity="1" fill-rule="nonzero"/><path fill="#26b1d8" d="M 29.523438 30.382812 L 28.453125 30.382812 C 28.351562 30.382812 28.261719 30.417969 28.191406 30.492188 C 28.117188 30.5625 28.082031 30.652344 28.082031 30.753906 C 28.082031 30.855469 28.117188 30.945312 28.191406 31.015625 C 28.261719 31.089844 28.351562 31.125 28.453125 31.125 L 29.539062 31.125 C 29.640625 31.125 29.726562 31.089844 29.800781 31.015625 C 29.871094 30.945312 29.910156 30.855469 29.910156 30.753906 C 29.910156 30.652344 29.871094 30.5625 29.800781 30.492188 C 29.726562 30.417969 29.640625 30.382812 29.539062 30.382812 Z M 29.523438 30.382812 " fill-opacity="1" fill-rule="nonzero"/><path fill="#26b1d8" d="M 32.777344 27.050781 L 31.691406 27.050781 C 31.589844 27.050781 31.503906 27.089844 31.429688 27.160156 C 31.355469 27.234375 31.320312 27.320312 31.320312 27.421875 C 31.320312 27.527344 31.355469 27.613281 31.429688 27.6875 C 31.503906 27.757812 31.589844 27.796875 31.691406 27.796875 L 32.777344 27.796875 C 32.878906 27.796875 32.96875 27.757812 33.039062 27.6875 C 33.113281 27.613281 33.148438 27.527344 33.148438 27.421875 C 33.148438 27.320312 33.109375 27.234375 33.039062 27.164062 C 32.964844 27.089844 32.878906 27.054688 32.777344 27.050781 Z M 32.777344 27.050781 " fill-opacity="1" fill-rule="nonzero"/><path fill="#26b1d8" d="M 32.777344 28.722656 L 31.691406 28.722656 C 31.589844 28.722656 31.503906 28.761719 31.429688 28.832031 C 31.355469 28.90625 31.320312 28.992188 31.320312 29.097656 C 31.320312 29.199219 31.355469 29.285156 31.429688 29.359375 C 31.503906 29.429688 31.589844 29.46875 31.691406 29.46875 L 32.777344 29.46875 C 32.878906 29.464844 32.964844 29.429688 33.039062 29.355469 C 33.109375 29.285156 33.148438 29.199219 33.148438 29.097656 C 33.148438 28.992188 33.113281 28.90625 33.039062 28.832031 C 32.96875 28.761719 32.878906 28.722656 32.777344 28.722656 Z M 32.777344 28.722656 " fill-opacity="1" fill-rule="nonzero"/><path fill="#26b1d8" d="M 32.777344 30.382812 L 31.691406 30.382812 C 31.589844 30.382812 31.503906 30.417969 31.429688 30.492188 C 31.355469 30.5625 31.320312 30.652344 31.320312 30.753906 C 31.320312 30.855469 31.355469 30.945312 31.429688 31.015625 C 31.503906 31.089844 31.589844 31.125 31.691406 31.125 L 32.777344 31.125 C 32.878906 31.125 32.96875 31.089844 33.039062 31.015625 C 33.113281 30.945312 33.148438 30.855469 33.148438 30.753906 C 33.148438 30.652344 33.113281 30.5625 33.039062 30.492188 C 32.96875 30.417969 32.878906 30.382812 32.777344 30.382812 Z M 32.777344 30.382812 " fill-opacity="1" fill-rule="nonzero"/><g clip-path="url(#da0d3841c4)"><path fill="#26b1d8" d="M 12.304688 10.265625 L 15.464844 14.230469 L 15.464844 25.945312 L 12.542969 31.964844 C 12.53125 32.015625 12.53125 32.070312 12.542969 32.121094 L 12.542969 33.339844 C 12.542969 33.566406 12.582031 33.785156 12.667969 33.996094 C 12.753906 34.207031 12.875 34.394531 13.035156 34.558594 C 13.191406 34.71875 13.375 34.847656 13.585938 34.9375 C 13.792969 35.027344 14.011719 35.074219 14.238281 35.082031 L 40.097656 35.082031 C 40.328125 35.082031 40.546875 35.035156 40.757812 34.949219 C 40.972656 34.859375 41.160156 34.734375 41.320312 34.574219 C 41.484375 34.410156 41.609375 34.222656 41.695312 34.011719 C 41.785156 33.796875 41.828125 33.578125 41.828125 33.347656 L 41.828125 32.128906 C 41.835938 32.085938 41.835938 32.039062 41.828125 31.996094 L 39.300781 25.914062 L 39.300781 13.945312 L 42.46875 11.105469 C 42.988281 10.59375 43.234375 9.972656 43.210938 9.242188 C 43.199219 8.890625 43.117188 8.558594 42.964844 8.242188 C 42.8125 7.925781 42.605469 7.652344 42.339844 7.421875 C 42.074219 7.195312 41.773438 7.027344 41.441406 6.921875 C 41.105469 6.820312 40.765625 6.785156 40.417969 6.824219 C 39.679688 6.902344 39.089844 7.238281 38.648438 7.835938 L 36.722656 10.808594 L 19.425781 10.808594 L 16.414062 6.980469 L 15.820312 6.273438 C 15.636719 6.042969 15.414062 5.855469 15.152344 5.714844 C 14.894531 5.574219 14.617188 5.484375 14.324219 5.453125 C 14.027344 5.421875 13.738281 5.445312 13.457031 5.53125 C 13.171875 5.613281 12.914062 5.746094 12.683594 5.933594 L 12.105469 6.421875 C 11.875 6.609375 11.6875 6.828125 11.542969 7.085938 C 11.402344 7.34375 11.3125 7.621094 11.28125 7.914062 C 11.246094 8.207031 11.269531 8.496094 11.351562 8.78125 C 11.433594 9.0625 11.566406 9.320312 11.746094 9.554688 Z M 14.332031 9.152344 L 17.523438 13.144531 C 17.59375 13.238281 17.691406 13.285156 17.8125 13.285156 C 17.898438 13.285156 17.972656 13.257812 18.042969 13.203125 C 18.121094 13.140625 18.167969 13.054688 18.179688 12.953125 C 18.191406 12.855469 18.164062 12.761719 18.101562 12.683594 L 14.875 8.691406 L 16.058594 7.722656 L 23.652344 17.261719 C 23.082031 17.25 22.550781 17.390625 22.0625 17.683594 L 20.722656 16.011719 C 20.660156 15.933594 20.578125 15.886719 20.476562 15.875 C 20.375 15.867188 20.28125 15.894531 20.203125 15.960938 C 20.125 16.023438 20.078125 16.105469 20.066406 16.207031 C 20.054688 16.308594 20.082031 16.402344 20.144531 16.480469 L 21.476562 18.132812 L 21.378906 18.242188 C 21.300781 18.328125 21.230469 18.417969 21.164062 18.511719 C 21.132812 18.550781 21.105469 18.59375 21.082031 18.636719 C 21 18.769531 20.925781 18.910156 20.867188 19.054688 C 20.863281 19.078125 20.863281 19.101562 20.867188 19.128906 C 20.816406 19.253906 20.777344 19.382812 20.746094 19.515625 L 20.746094 19.582031 L 16.125 13.863281 L 13.152344 10.09375 Z M 25.136719 22.136719 L 24.980469 22.0625 L 25.101562 21.972656 Z M 21.378906 20.363281 C 21.359375 20.191406 21.359375 20.019531 21.378906 19.847656 C 21.378906 19.847656 21.378906 19.804688 21.378906 19.789062 C 21.414062 19.625 21.464844 19.46875 21.535156 19.3125 C 21.53125 19.296875 21.53125 19.277344 21.535156 19.261719 C 21.601562 19.109375 21.6875 18.964844 21.792969 18.835938 C 21.792969 18.835938 21.792969 18.835938 21.832031 18.800781 C 21.9375 18.664062 22.0625 18.546875 22.203125 18.445312 C 22.316406 18.359375 22.433594 18.289062 22.558594 18.226562 L 22.597656 18.226562 C 23.105469 18.019531 23.625 17.988281 24.15625 18.125 L 24.839844 21.203125 L 24.15625 21.746094 Z M 38.527344 25.640625 L 16.234375 25.640625 L 16.234375 24.894531 L 38.527344 24.894531 Z M 41.085938 33.347656 C 41.085938 33.480469 41.0625 33.605469 41.011719 33.726562 C 40.960938 33.847656 40.890625 33.957031 40.796875 34.050781 C 40.703125 34.140625 40.597656 34.214844 40.476562 34.261719 C 40.355469 34.3125 40.226562 34.335938 40.097656 34.335938 L 14.238281 34.335938 C 14.105469 34.335938 13.980469 34.3125 13.859375 34.261719 C 13.738281 34.210938 13.632812 34.140625 13.539062 34.046875 C 13.445312 33.953125 13.375 33.847656 13.324219 33.726562 C 13.273438 33.605469 13.25 33.480469 13.25 33.347656 L 13.25 32.5 L 41.085938 32.5 Z M 13.472656 31.757812 L 16.078125 26.382812 L 38.664062 26.382812 L 40.890625 31.757812 Z M 30.683594 17.121094 C 30.585938 16.726562 30.546875 16.539062 30.683594 16.308594 C 30.953125 15.984375 31.289062 15.738281 31.683594 15.578125 C 32.078125 15.417969 32.488281 15.359375 32.910156 15.402344 C 33.320312 15.402344 33.714844 15.472656 34.101562 15.613281 L 34.160156 15.613281 C 34.433594 15.710938 34.679688 15.851562 34.902344 16.035156 C 34.972656 16.097656 35.039062 16.167969 35.09375 16.242188 C 35.242188 16.398438 35.359375 16.570312 35.453125 16.761719 C 35.683594 17.34375 35.773438 17.945312 35.71875 18.566406 C 35.664062 19.1875 35.472656 19.765625 35.140625 20.292969 C 34.242188 21.78125 32.257812 22.257812 30.683594 22.167969 C 30.070312 22.195312 29.507812 22.042969 28.996094 21.714844 C 29.105469 21.527344 29.246094 21.359375 29.410156 21.214844 C 30.15625 20.546875 30.628906 19.722656 30.824219 18.742188 C 30.894531 18.191406 30.847656 17.652344 30.683594 17.121094 Z M 39.21875 8.246094 C 39.371094 8.046875 39.554688 7.886719 39.769531 7.765625 C 39.984375 7.640625 40.21875 7.570312 40.464844 7.542969 C 40.710938 7.515625 40.953125 7.539062 41.191406 7.613281 C 41.425781 7.6875 41.640625 7.808594 41.828125 7.96875 C 42.015625 8.128906 42.164062 8.320312 42.269531 8.539062 C 42.378906 8.761719 42.4375 8.992188 42.453125 9.238281 C 42.464844 9.484375 42.425781 9.722656 42.339844 9.953125 C 42.253906 10.183594 42.125 10.386719 41.953125 10.5625 L 38.675781 13.5 L 35.839844 16.042969 L 35.839844 15.996094 C 35.710938 15.8125 35.558594 15.644531 35.386719 15.5 C 35.214844 15.359375 35.03125 15.234375 34.835938 15.128906 L 37.296875 11.367188 Z M 30.152344 11.507812 L 29.695312 11.984375 C 29.488281 12.191406 29.242188 12.292969 28.949219 12.296875 L 25.777344 12.296875 C 25.488281 12.292969 25.238281 12.191406 25.035156 11.984375 L 24.574219 11.507812 Z M 23.546875 11.507812 L 24.507812 12.496094 C 24.855469 12.855469 25.277344 13.035156 25.777344 13.039062 L 28.949219 13.039062 C 29.449219 13.039062 29.875 12.855469 30.222656 12.496094 L 31.1875 11.507812 L 36.203125 11.507812 L 34.027344 14.832031 C 32.496094 14.390625 30.628906 14.890625 30.050781 15.953125 C 29.835938 16.394531 29.8125 16.839844 29.992188 17.300781 C 30.121094 17.734375 30.152344 18.179688 30.085938 18.628906 C 29.917969 19.457031 29.515625 20.148438 28.875 20.703125 C 28.488281 21.097656 28.132812 21.445312 28.296875 21.960938 C 28.570312 22.703125 29.984375 22.859375 30.40625 22.894531 C 30.613281 22.90625 30.824219 22.90625 31.03125 22.894531 C 32.710938 22.894531 34.746094 22.324219 35.757812 20.667969 C 36.109375 20.070312 36.324219 19.425781 36.394531 18.734375 C 36.464844 18.042969 36.390625 17.367188 36.164062 16.710938 L 38.527344 14.59375 L 38.527344 24.175781 L 16.234375 24.175781 L 16.234375 15.15625 L 20.761719 20.828125 C 20.792969 20.871094 20.832031 20.90625 20.878906 20.925781 L 24.140625 22.464844 L 25.515625 23.121094 L 25.671875 23.121094 C 25.761719 23.121094 25.839844 23.09375 25.910156 23.046875 C 26.023438 22.945312 26.066406 22.820312 26.039062 22.671875 L 25.710938 21.1875 L 24.929688 17.664062 C 24.914062 17.613281 24.894531 17.570312 24.863281 17.527344 L 20.054688 11.492188 Z M 12 8 C 12.039062 7.582031 12.222656 7.242188 12.550781 6.980469 L 13.167969 6.492188 C 13.441406 6.269531 13.753906 6.160156 14.101562 6.164062 L 14.265625 6.164062 C 14.675781 6.210938 15.007812 6.390625 15.261719 6.714844 L 15.597656 7.128906 L 12.625 9.484375 L 12.289062 9.0625 C 12.050781 8.746094 11.957031 8.390625 12 8 Z M 12 8 " fill-opacity="1" fill-rule="nonzero"/></g><path fill="#26b1d8" d="M 19.351562 15.476562 C 19.421875 15.574219 19.519531 15.621094 19.640625 15.617188 C 19.726562 15.617188 19.800781 15.589844 19.871094 15.535156 C 19.949219 15.472656 19.996094 15.390625 20.007812 15.289062 C 20.019531 15.1875 19.992188 15.097656 19.929688 15.015625 L 19.113281 13.992188 C 19.046875 13.910156 18.964844 13.867188 18.863281 13.855469 C 18.757812 13.84375 18.667969 13.871094 18.589844 13.933594 C 18.507812 14 18.460938 14.082031 18.453125 14.1875 C 18.441406 14.289062 18.46875 14.378906 18.53125 14.460938 Z M 19.351562 15.476562 " fill-opacity="1" fill-rule="nonzero"/></svg>