<svg xmlns="http://www.w3.org/2000/svg" xmlns:xlink="http://www.w3.org/1999/xlink" width="70" zoomAndPan="magnify" viewBox="0 0 52.5 52.499999" height="70" preserveAspectRatio="xMidYMid meet" version="1.0"><defs><clipPath id="5b6f7a490f"><path d="M 9.367188 8.234375 L 41 8.234375 L 41 31 L 9.367188 31 Z M 9.367188 8.234375 " clip-rule="nonzero"/></clipPath><clipPath id="a7fe983dee"><path d="M 21.445312 29.738281 L 22.332031 29.738281 L 22.332031 35.222656 L 21.445312 35.222656 Z M 21.445312 29.738281 " clip-rule="nonzero"/></clipPath><clipPath id="756566ca24"><path d="M 27.574219 29.738281 L 28.460938 29.738281 L 28.460938 35.222656 L 27.574219 35.222656 Z M 27.574219 29.738281 " clip-rule="nonzero"/></clipPath><clipPath id="1ad4c9eecf"><path d="M 18.691406 34.355469 L 31.214844 34.355469 L 31.214844 35.222656 L 18.691406 35.222656 Z M 18.691406 34.355469 " clip-rule="nonzero"/></clipPath><clipPath id="573fe9090a"><path d="M 9.367188 25 L 33 25 L 33 27 L 9.367188 27 Z M 9.367188 25 " clip-rule="nonzero"/></clipPath><clipPath id="dc28e9a179"><path d="M 31 18 L 43.117188 18 L 43.117188 20 L 31 20 Z M 31 18 " clip-rule="nonzero"/></clipPath><clipPath id="d7f0c1f0c1"><path d="M 31 31 L 43.117188 31 L 43.117188 33 L 31 33 Z M 31 31 " clip-rule="nonzero"/></clipPath><clipPath id="42c055faa9"><path d="M 31.925781 15.882812 L 43.117188 15.882812 L 43.117188 35.222656 L 31.925781 35.222656 Z M 31.925781 15.882812 " clip-rule="nonzero"/></clipPath></defs><g clip-path="url(#5b6f7a490f)"><path fill="#26b1d8" d="M 32.367188 30.621094 L 10.519531 30.621094 C 9.882812 30.621094 9.367188 30.101562 9.367188 29.464844 L 9.367188 9.398438 C 9.367188 8.765625 9.882812 8.246094 10.519531 8.246094 L 39.421875 8.246094 C 40.054688 8.246094 40.574219 8.765625 40.574219 9.398438 L 40.574219 16.347656 C 40.574219 16.570312 40.398438 16.746094 40.175781 16.746094 C 39.957031 16.746094 39.777344 16.570312 39.777344 16.347656 L 39.777344 9.398438 C 39.777344 9.203125 39.617188 9.042969 39.421875 9.042969 L 10.519531 9.042969 C 10.324219 9.042969 10.164062 9.203125 10.164062 9.398438 L 10.164062 29.464844 C 10.164062 29.664062 10.324219 29.824219 10.519531 29.824219 L 32.367188 29.824219 C 32.585938 29.824219 32.765625 30 32.765625 30.222656 C 32.765625 30.441406 32.585938 30.621094 32.367188 30.621094 " fill-opacity="1" fill-rule="nonzero"/></g><path fill="#26b1d8" d="M 24.929688 27.367188 C 25.371094 27.367188 25.730469 27.726562 25.730469 28.167969 C 25.730469 28.609375 25.371094 28.964844 24.929688 28.964844 C 24.488281 28.964844 24.132812 28.609375 24.132812 28.167969 C 24.132812 27.726562 24.488281 27.367188 24.929688 27.367188 " fill-opacity="1" fill-rule="nonzero"/><g clip-path="url(#a7fe983dee)"><path fill="#26b1d8" d="M 21.914062 35.222656 C 21.695312 35.222656 21.515625 35.046875 21.515625 34.824219 L 21.515625 30.222656 C 21.515625 30 21.695312 29.824219 21.914062 29.824219 C 22.136719 29.824219 22.3125 30 22.3125 30.222656 L 22.3125 34.824219 C 22.3125 35.046875 22.136719 35.222656 21.914062 35.222656 " fill-opacity="1" fill-rule="nonzero"/></g><g clip-path="url(#756566ca24)"><path fill="#26b1d8" d="M 28.023438 35.222656 C 27.804688 35.222656 27.625 35.046875 27.625 34.824219 L 27.625 30.222656 C 27.625 30 27.804688 29.824219 28.023438 29.824219 C 28.246094 29.824219 28.421875 30 28.421875 30.222656 L 28.421875 34.824219 C 28.421875 35.046875 28.246094 35.222656 28.023438 35.222656 " fill-opacity="1" fill-rule="nonzero"/></g><g clip-path="url(#1ad4c9eecf)"><path fill="#26b1d8" d="M 30.78125 35.222656 L 19.160156 35.222656 C 18.941406 35.222656 18.761719 35.046875 18.761719 34.824219 C 18.761719 34.605469 18.941406 34.425781 19.160156 34.425781 L 30.78125 34.425781 C 31 34.425781 31.179688 34.605469 31.179688 34.824219 C 31.179688 35.046875 31 35.222656 30.78125 35.222656 " fill-opacity="1" fill-rule="nonzero"/></g><g clip-path="url(#573fe9090a)"><path fill="#26b1d8" d="M 32.367188 26.511719 L 9.765625 26.511719 C 9.542969 26.511719 9.367188 26.335938 9.367188 26.113281 C 9.367188 25.894531 9.542969 25.714844 9.765625 25.714844 L 32.367188 25.714844 C 32.585938 25.714844 32.765625 25.894531 32.765625 26.113281 C 32.765625 26.335938 32.585938 26.511719 32.367188 26.511719 " fill-opacity="1" fill-rule="nonzero"/></g><path fill="#26b1d8" d="M 37.53125 31.605469 L 37.554688 31.605469 L 37.554688 32.421875 L 37.53125 32.421875 L 37.53125 31.605469 " fill-opacity="1" fill-rule="nonzero"/><path fill="#26b1d8" d="M 12.777344 11.390625 C 12.632812 11.390625 12.511719 11.511719 12.511719 11.65625 L 12.511719 14.074219 C 12.511719 14.222656 12.632812 14.339844 12.777344 14.339844 L 20.785156 14.339844 C 20.933594 14.339844 21.050781 14.222656 21.050781 14.074219 L 21.050781 11.65625 C 21.050781 11.511719 20.933594 11.390625 20.785156 11.390625 Z M 20.785156 15.140625 L 12.777344 15.140625 C 12.191406 15.140625 11.714844 14.660156 11.714844 14.074219 L 11.714844 11.65625 C 11.714844 11.070312 12.191406 10.59375 12.777344 10.59375 L 20.785156 10.59375 C 21.371094 10.59375 21.847656 11.070312 21.847656 11.65625 L 21.847656 14.074219 C 21.847656 14.660156 21.371094 15.140625 20.785156 15.140625 " fill-opacity="1" fill-rule="nonzero"/><path fill="#26b1d8" d="M 12.777344 17.761719 C 12.632812 17.761719 12.511719 17.882812 12.511719 18.027344 L 12.511719 20.449219 C 12.511719 20.59375 12.632812 20.714844 12.777344 20.714844 L 16.117188 20.714844 C 16.265625 20.714844 16.382812 20.59375 16.382812 20.449219 L 16.382812 18.027344 C 16.382812 17.882812 16.265625 17.761719 16.117188 17.761719 Z M 16.117188 21.511719 L 12.777344 21.511719 C 12.191406 21.511719 11.714844 21.035156 11.714844 20.449219 L 11.714844 18.027344 C 11.714844 17.441406 12.191406 16.964844 12.777344 16.964844 L 16.117188 16.964844 C 16.703125 16.964844 17.179688 17.441406 17.179688 18.027344 L 17.179688 20.449219 C 17.179688 21.035156 16.703125 21.511719 16.117188 21.511719 " fill-opacity="1" fill-rule="nonzero"/><path fill="#26b1d8" d="M 19.148438 17.761719 C 19 17.761719 18.882812 17.882812 18.882812 18.027344 L 18.882812 20.449219 C 18.882812 20.59375 19 20.714844 19.148438 20.714844 L 22.484375 20.714844 C 22.632812 20.714844 22.753906 20.59375 22.753906 20.449219 L 22.753906 18.027344 C 22.753906 17.882812 22.632812 17.761719 22.484375 17.761719 Z M 22.484375 21.511719 L 19.148438 21.511719 C 18.5625 21.511719 18.082031 21.035156 18.082031 20.449219 L 18.082031 18.027344 C 18.082031 17.441406 18.5625 16.964844 19.148438 16.964844 L 22.484375 16.964844 C 23.074219 16.964844 23.550781 17.441406 23.550781 18.027344 L 23.550781 20.449219 C 23.550781 21.035156 23.074219 21.511719 22.484375 21.511719 " fill-opacity="1" fill-rule="nonzero"/><path fill="#26b1d8" d="M 25.515625 17.761719 C 25.367188 17.761719 25.25 17.882812 25.25 18.027344 L 25.25 20.449219 C 25.25 20.59375 25.367188 20.714844 25.515625 20.714844 L 28.855469 20.714844 C 29 20.714844 29.121094 20.59375 29.121094 20.449219 L 29.121094 18.027344 C 29.121094 17.882812 29 17.761719 28.855469 17.761719 Z M 28.855469 21.511719 L 25.515625 21.511719 C 24.929688 21.511719 24.453125 21.035156 24.453125 20.449219 L 24.453125 18.027344 C 24.453125 17.441406 24.929688 16.964844 25.515625 16.964844 L 28.855469 16.964844 C 29.441406 16.964844 29.917969 17.441406 29.917969 18.027344 L 29.917969 20.449219 C 29.917969 21.035156 29.441406 21.511719 28.855469 21.511719 " fill-opacity="1" fill-rule="nonzero"/><path fill="#26b1d8" d="M 29.519531 11.648438 L 23.167969 11.648438 C 22.949219 11.648438 22.769531 11.46875 22.769531 11.25 C 22.769531 11.03125 22.949219 10.851562 23.167969 10.851562 L 29.519531 10.851562 C 29.738281 10.851562 29.917969 11.03125 29.917969 11.25 C 29.917969 11.46875 29.738281 11.648438 29.519531 11.648438 " fill-opacity="1" fill-rule="nonzero"/><path fill="#26b1d8" d="M 29.519531 13.265625 L 23.167969 13.265625 C 22.949219 13.265625 22.769531 13.085938 22.769531 12.867188 C 22.769531 12.644531 22.949219 12.46875 23.167969 12.46875 L 29.519531 12.46875 C 29.738281 12.46875 29.917969 12.644531 29.917969 12.867188 C 29.917969 13.085938 29.738281 13.265625 29.519531 13.265625 " fill-opacity="1" fill-rule="nonzero"/><path fill="#26b1d8" d="M 29.519531 14.882812 L 23.167969 14.882812 C 22.949219 14.882812 22.769531 14.703125 22.769531 14.484375 C 22.769531 14.261719 22.949219 14.085938 23.167969 14.085938 L 29.519531 14.085938 C 29.738281 14.085938 29.917969 14.261719 29.917969 14.484375 C 29.917969 14.703125 29.738281 14.882812 29.519531 14.882812 " fill-opacity="1" fill-rule="nonzero"/><g clip-path="url(#dc28e9a179)"><path fill="#26b1d8" d="M 42.71875 19.664062 L 32.367188 19.664062 C 32.148438 19.664062 31.96875 19.488281 31.96875 19.265625 C 31.96875 19.046875 32.148438 18.867188 32.367188 18.867188 L 42.71875 18.867188 C 42.9375 18.867188 43.117188 19.046875 43.117188 19.265625 C 43.117188 19.488281 42.9375 19.664062 42.71875 19.664062 " fill-opacity="1" fill-rule="nonzero"/></g><g clip-path="url(#d7f0c1f0c1)"><path fill="#26b1d8" d="M 42.71875 32.304688 L 32.367188 32.304688 C 32.148438 32.304688 31.96875 32.125 31.96875 31.90625 C 31.96875 31.6875 32.148438 31.507812 32.367188 31.507812 L 42.71875 31.507812 C 42.9375 31.507812 43.117188 31.6875 43.117188 31.90625 C 43.117188 32.125 42.9375 32.304688 42.71875 32.304688 " fill-opacity="1" fill-rule="nonzero"/></g><path fill="#26b1d8" d="M 36.332031 21.925781 C 36.1875 21.925781 36.066406 22.042969 36.066406 22.191406 L 36.066406 23.867188 C 36.066406 24.015625 36.1875 24.132812 36.332031 24.132812 L 38.75 24.132812 C 38.898438 24.132812 39.015625 24.015625 39.015625 23.867188 L 39.015625 22.191406 C 39.015625 22.042969 38.898438 21.925781 38.75 21.925781 Z M 38.75 24.929688 L 36.332031 24.929688 C 35.746094 24.929688 35.269531 24.453125 35.269531 23.867188 L 35.269531 22.191406 C 35.269531 21.605469 35.746094 21.128906 36.332031 21.128906 L 38.75 21.128906 C 39.335938 21.128906 39.8125 21.605469 39.8125 22.191406 L 39.8125 23.867188 C 39.8125 24.453125 39.335938 24.929688 38.75 24.929688 " fill-opacity="1" fill-rule="nonzero"/><path fill="#26b1d8" d="M 40.996094 30.046875 L 34.085938 30.046875 C 33.867188 30.046875 33.6875 29.867188 33.6875 29.648438 C 33.6875 29.425781 33.867188 29.25 34.085938 29.25 L 40.996094 29.25 C 41.21875 29.25 41.394531 29.425781 41.394531 29.648438 C 41.394531 29.867188 41.21875 30.046875 40.996094 30.046875 " fill-opacity="1" fill-rule="nonzero"/><path fill="#26b1d8" d="M 40.996094 28.542969 L 34.085938 28.542969 C 33.867188 28.542969 33.6875 28.363281 33.6875 28.144531 C 33.6875 27.921875 33.867188 27.746094 34.085938 27.746094 L 40.996094 27.746094 C 41.21875 27.746094 41.394531 27.921875 41.394531 28.144531 C 41.394531 28.363281 41.21875 28.542969 40.996094 28.542969 " fill-opacity="1" fill-rule="nonzero"/><path fill="#26b1d8" d="M 40.996094 27.039062 L 34.085938 27.039062 C 33.867188 27.039062 33.6875 26.859375 33.6875 26.640625 C 33.6875 26.417969 33.867188 26.242188 34.085938 26.242188 L 40.996094 26.242188 C 41.21875 26.242188 41.394531 26.417969 41.394531 26.640625 C 41.394531 26.859375 41.21875 27.039062 40.996094 27.039062 " fill-opacity="1" fill-rule="nonzero"/><g clip-path="url(#42c055faa9)"><path fill="#26b1d8" d="M 33.148438 16.746094 C 32.9375 16.746094 32.765625 16.917969 32.765625 17.128906 L 32.765625 34.042969 C 32.765625 34.253906 32.9375 34.425781 33.148438 34.425781 L 41.9375 34.425781 C 42.039062 34.425781 42.132812 34.386719 42.207031 34.3125 C 42.277344 34.242188 42.316406 34.144531 42.316406 34.042969 L 42.316406 17.128906 C 42.316406 16.917969 42.148438 16.746094 41.9375 16.746094 Z M 41.9375 35.222656 L 33.148438 35.222656 C 32.496094 35.222656 31.96875 34.695312 31.96875 34.042969 L 31.96875 17.128906 C 31.96875 16.480469 32.496094 15.949219 33.148438 15.949219 L 41.9375 15.949219 C 42.585938 15.949219 43.117188 16.480469 43.117188 17.128906 L 43.117188 34.042969 C 43.117188 34.359375 42.992188 34.65625 42.769531 34.878906 C 42.546875 35.101562 42.25 35.222656 41.9375 35.222656 " fill-opacity="1" fill-rule="nonzero"/></g></svg>