<svg xmlns="http://www.w3.org/2000/svg" xmlns:xlink="http://www.w3.org/1999/xlink" width="70" zoomAndPan="magnify" viewBox="0 0 52.5 52.499999" height="70" preserveAspectRatio="xMidYMid meet" version="1.0"><defs><clipPath id="b929ac5af9"><path d="M 12 3.898438 L 44.078125 3.898438 L 44.078125 36.148438 L 12 36.148438 Z M 12 3.898438 " clip-rule="nonzero"/></clipPath></defs><path fill="#26b1d8" d="M 22.023438 12.566406 L 16.28125 12.566406 L 16.28125 7.679688 L 22.023438 7.679688 Z M 23.03125 13.070312 L 23.03125 7.175781 C 23.03125 6.871094 22.832031 6.671875 22.527344 6.671875 L 15.777344 6.671875 C 15.472656 6.671875 15.273438 6.871094 15.273438 7.175781 L 15.273438 13.023438 C 15.273438 13.324219 15.472656 13.527344 15.777344 13.527344 L 22.527344 13.527344 C 22.832031 13.574219 23.03125 13.324219 23.03125 13.070312 " fill-opacity="1" fill-rule="nonzero"/><path fill="#26b1d8" d="M 16.234375 17.300781 C 16.234375 17.605469 16.433594 17.804688 16.738281 17.804688 L 27.71875 17.804688 C 28.023438 17.804688 28.222656 17.605469 28.222656 17.300781 C 28.222656 17 28.023438 16.796875 27.71875 16.796875 L 16.738281 16.796875 C 16.433594 16.796875 16.234375 17.054688 16.234375 17.300781 " fill-opacity="1" fill-rule="nonzero"/><path fill="#26b1d8" d="M 27.71875 21.332031 L 16.734375 21.332031 C 16.433594 21.332031 16.230469 21.535156 16.230469 21.835938 C 16.230469 22.140625 16.433594 22.339844 16.734375 22.339844 L 27.71875 22.339844 C 28.023438 22.339844 28.222656 22.140625 28.222656 21.835938 C 28.222656 21.589844 28.023438 21.332031 27.71875 21.332031 " fill-opacity="1" fill-rule="nonzero"/><path fill="#26b1d8" d="M 30.289062 25.867188 L 16.734375 25.867188 C 16.433594 25.867188 16.230469 26.070312 16.230469 26.371094 C 16.230469 26.675781 16.433594 26.875 16.734375 26.875 L 30.289062 26.875 C 30.589844 26.875 30.792969 26.675781 30.792969 26.371094 C 30.792969 26.070312 30.542969 25.867188 30.289062 25.867188 " fill-opacity="1" fill-rule="nonzero"/><path fill="#26b1d8" d="M 30.289062 30.457031 L 16.734375 30.457031 C 16.433594 30.457031 16.230469 30.660156 16.230469 30.960938 C 16.230469 31.261719 16.433594 31.464844 16.734375 31.464844 L 30.289062 31.464844 C 30.589844 31.464844 30.792969 31.261719 30.792969 30.960938 C 30.792969 30.660156 30.542969 30.457031 30.289062 30.457031 " fill-opacity="1" fill-rule="nonzero"/><g clip-path="url(#b929ac5af9)"><path fill="#26b1d8" d="M 36.1875 27.582031 L 32.960938 26.425781 L 38.148438 12.261719 L 41.375 13.421875 Z M 32.605469 32.320312 L 32.808594 27.433594 L 35.683594 28.492188 Z M 34.019531 35.195312 L 13.007812 35.195312 L 13.007812 4.960938 L 27.921875 4.960938 L 27.921875 9.59375 C 27.921875 9.894531 28.125 10.097656 28.425781 10.097656 L 34.019531 10.097656 L 34.019531 20.679688 C 33.0625 23.300781 31.851562 26.523438 31.851562 26.675781 L 31.597656 33.832031 C 31.597656 34.335938 32.207031 34.539062 32.507812 34.1875 L 34.070312 32.21875 L 34.070312 35.195312 Z M 28.929688 5.5625 L 33.109375 9.140625 L 28.929688 9.140625 Z M 39.261719 9.390625 C 39.308594 9.238281 39.511719 9.140625 39.714844 9.191406 L 42.285156 10.148438 C 42.484375 10.199219 42.535156 10.398438 42.484375 10.601562 L 41.730469 12.519531 L 38.503906 11.359375 Z M 40.621094 20.476562 C 40.519531 20.730469 40.667969 21.03125 40.921875 21.132812 C 40.972656 21.132812 41.023438 21.183594 41.074219 21.183594 C 41.277344 21.183594 41.476562 21.03125 41.527344 20.828125 L 44.046875 13.925781 C 44.148438 13.675781 43.996094 13.375 43.746094 13.273438 L 42.683594 12.820312 L 43.390625 10.902344 C 43.644531 10.199219 43.292969 9.441406 42.585938 9.140625 L 40.015625 8.183594 C 39.308594 7.929688 38.503906 8.285156 38.253906 8.992188 L 34.976562 17.957031 L 34.976562 9.59375 C 34.976562 9.390625 34.875 9.242188 34.726562 9.140625 L 28.679688 4 C 28.628906 3.953125 28.574219 3.953125 28.527344 3.898438 L 12.503906 3.898438 C 12.199219 3.898438 12 4.101562 12 4.402344 L 12 35.644531 C 12 35.945312 12.199219 36.148438 12.503906 36.148438 L 34.523438 36.148438 C 34.824219 36.148438 35.027344 35.945312 35.027344 35.644531 L 35.027344 30.910156 L 36.890625 28.539062 C 36.992188 28.441406 36.589844 29.398438 42.332031 13.773438 L 42.988281 14.03125 L 40.621094 20.476562 " fill-opacity="1" fill-rule="nonzero"/></g></svg>