<svg xmlns="http://www.w3.org/2000/svg" xmlns:xlink="http://www.w3.org/1999/xlink" width="70" zoomAndPan="magnify" viewBox="0 0 52.5 52.499999" height="70" preserveAspectRatio="xMidYMid meet" version="1.0"><defs><clipPath id="a76e40e7c7"><path d="M 9.589844 4.050781 L 42.589844 4.050781 L 42.589844 35.550781 L 9.589844 35.550781 Z M 9.589844 4.050781 " clip-rule="nonzero"/></clipPath></defs><g clip-path="url(#a76e40e7c7)"><path fill="#26b1d8" d="M 42.058594 31.40625 L 37.203125 26.609375 C 36.953125 26.359375 36.621094 26.226562 36.265625 26.234375 C 36.074219 26.234375 35.890625 26.28125 35.722656 26.363281 L 33.777344 24.4375 L 41.082031 24.4375 C 41.226562 24.4375 41.367188 24.375 41.464844 24.265625 C 41.558594 24.15625 41.605469 24.007812 41.589844 23.859375 C 41.382812 21.886719 40.109375 20.28125 38.390625 19.601562 C 38.988281 19.074219 39.367188 18.296875 39.367188 17.429688 C 39.367188 15.851562 38.105469 14.5625 36.554688 14.5625 C 35.632812 14.5625 34.8125 15.015625 34.296875 15.714844 C 32.925781 12.1875 29.542969 9.6875 25.597656 9.6875 C 21.652344 9.6875 18.269531 12.1875 16.898438 15.714844 C 16.386719 15.015625 15.566406 14.5625 14.644531 14.5625 C 13.09375 14.5625 11.828125 15.851562 11.828125 17.429688 C 11.828125 18.296875 12.210938 19.074219 12.808594 19.601562 C 11.085938 20.28125 9.8125 21.886719 9.605469 23.859375 C 9.589844 24.007812 9.636719 24.15625 9.734375 24.265625 C 9.832031 24.375 9.972656 24.4375 10.117188 24.4375 L 17.789062 24.4375 C 19.460938 27.023438 22.335938 28.730469 25.597656 28.730469 C 27.78125 28.730469 29.789062 27.96875 31.378906 26.6875 L 33.417969 28.703125 C 33.285156 28.917969 33.214844 29.167969 33.21875 29.429688 C 33.222656 29.789062 33.367188 30.125 33.617188 30.375 L 38.472656 35.167969 C 38.726562 35.421875 39.058594 35.546875 39.386719 35.546875 C 39.730469 35.546875 40.074219 35.410156 40.332031 35.140625 L 42.085938 33.300781 C 42.589844 32.769531 42.578125 31.921875 42.058594 31.40625 Z M 40.46875 23.394531 L 34 23.394531 C 34.402344 22.554688 34.691406 21.644531 34.835938 20.6875 C 35.371094 20.433594 35.957031 20.300781 36.550781 20.300781 C 36.550781 20.300781 36.550781 20.300781 36.554688 20.300781 C 38.429688 20.300781 40.023438 21.59375 40.46875 23.394531 Z M 36.554688 15.609375 C 37.539062 15.609375 38.34375 16.425781 38.34375 17.429688 C 38.34375 18.4375 37.539062 19.253906 36.554688 19.253906 C 36.550781 19.253906 36.550781 19.253906 36.550781 19.253906 C 35.792969 19.253906 35.144531 18.769531 34.886719 18.09375 C 34.855469 17.832031 34.816406 17.578125 34.765625 17.328125 C 34.820312 16.371094 35.601562 15.609375 36.554688 15.609375 Z M 12.855469 17.429688 C 12.855469 16.425781 13.660156 15.609375 14.644531 15.609375 C 15.597656 15.609375 16.378906 16.371094 16.433594 17.328125 C 16.382812 17.578125 16.34375 17.835938 16.3125 18.09375 C 16.050781 18.769531 15.402344 19.253906 14.644531 19.253906 C 13.660156 19.253906 12.855469 18.4375 12.855469 17.429688 Z M 10.730469 23.394531 C 11.175781 21.59375 12.769531 20.300781 14.644531 20.300781 C 15.238281 20.300781 15.828125 20.433594 16.359375 20.6875 C 16.507812 21.644531 16.796875 22.554688 17.199219 23.394531 Z M 17.273438 19.210938 C 17.273438 14.535156 21.007812 10.734375 25.597656 10.734375 C 30.1875 10.734375 33.921875 14.535156 33.921875 19.210938 C 33.921875 23.882812 30.1875 27.6875 25.597656 27.6875 C 21.007812 27.6875 17.273438 23.882812 17.273438 19.210938 Z M 32.957031 25.082031 L 34.949219 27.050781 L 34.109375 27.929688 L 32.152344 25.996094 C 32.4375 25.707031 32.707031 25.402344 32.957031 25.082031 Z M 41.347656 32.574219 L 39.597656 34.414062 C 39.488281 34.527344 39.300781 34.53125 39.1875 34.417969 L 34.332031 29.625 C 34.277344 29.570312 34.246094 29.496094 34.246094 29.414062 C 34.246094 29.335938 34.273438 29.261719 34.328125 29.207031 L 36.078125 27.367188 C 36.132812 27.308594 36.203125 27.277344 36.28125 27.277344 C 36.285156 27.277344 36.285156 27.277344 36.289062 27.277344 C 36.363281 27.277344 36.433594 27.308594 36.488281 27.359375 L 41.34375 32.15625 C 41.457031 32.265625 41.457031 32.457031 41.347656 32.574219 Z M 25.597656 12.296875 C 21.855469 12.296875 18.8125 15.398438 18.8125 19.210938 C 18.8125 23.019531 21.855469 26.121094 25.597656 26.121094 C 29.34375 26.121094 32.386719 23.019531 32.386719 19.210938 C 32.386719 15.398438 29.34375 12.296875 25.597656 12.296875 Z M 25.597656 13.34375 C 28.777344 13.34375 31.359375 15.976562 31.359375 19.210938 C 31.359375 20.511719 30.941406 21.714844 30.238281 22.6875 C 29.773438 21.289062 28.730469 20.183594 27.402344 19.652344 C 27.96875 19.140625 28.328125 18.398438 28.328125 17.570312 C 28.328125 16.039062 27.105469 14.792969 25.597656 14.792969 C 24.09375 14.792969 22.871094 16.039062 22.871094 17.570312 C 22.871094 18.398438 23.226562 19.140625 23.792969 19.652344 C 22.46875 20.183594 21.421875 21.289062 20.960938 22.6875 C 20.253906 21.714844 19.835938 20.511719 19.835938 19.210938 C 19.835938 15.976562 22.421875 13.34375 25.597656 13.34375 Z M 25.597656 19.304688 C 24.660156 19.304688 23.898438 18.523438 23.898438 17.570312 C 23.898438 16.613281 24.660156 15.835938 25.597656 15.835938 C 26.539062 15.835938 27.300781 16.613281 27.300781 17.570312 C 27.300781 18.527344 26.539062 19.304688 25.601562 19.304688 C 25.601562 19.304688 25.597656 19.304688 25.597656 19.304688 Z M 21.789062 23.605469 C 22.109375 21.730469 23.703125 20.347656 25.597656 20.347656 C 25.597656 20.347656 25.601562 20.347656 25.601562 20.347656 C 27.496094 20.347656 29.089844 21.730469 29.410156 23.605469 C 28.394531 24.519531 27.058594 25.078125 25.597656 25.078125 C 24.140625 25.078125 22.804688 24.519531 21.789062 23.605469 Z M 25.085938 7.136719 L 25.085938 4.570312 C 25.085938 4.28125 25.316406 4.046875 25.597656 4.046875 C 25.882812 4.046875 26.113281 4.28125 26.113281 4.570312 L 26.113281 7.136719 C 26.113281 7.425781 25.882812 7.660156 25.597656 7.660156 C 25.316406 7.660156 25.085938 7.425781 25.085938 7.136719 Z M 29.6875 7.726562 L 31.246094 5.707031 C 31.417969 5.480469 31.742188 5.441406 31.964844 5.617188 C 32.1875 5.796875 32.226562 6.125 32.050781 6.351562 L 30.496094 8.371094 C 30.394531 8.503906 30.242188 8.570312 30.089844 8.570312 C 29.980469 8.570312 29.867188 8.535156 29.773438 8.457031 C 29.550781 8.28125 29.511719 7.953125 29.6875 7.726562 Z M 19.144531 6.351562 C 18.972656 6.125 19.011719 5.796875 19.234375 5.617188 C 19.457031 5.441406 19.777344 5.480469 19.953125 5.707031 L 21.511719 7.726562 C 21.6875 7.953125 21.648438 8.28125 21.425781 8.457031 C 21.332031 8.535156 21.21875 8.570312 21.109375 8.570312 C 20.957031 8.570312 20.804688 8.503906 20.703125 8.371094 Z M 19.144531 6.351562 " fill-opacity="1" fill-rule="nonzero"/></g></svg>