<svg xmlns="http://www.w3.org/2000/svg" xmlns:xlink="http://www.w3.org/1999/xlink" width="70" zoomAndPan="magnify" viewBox="0 0 52.5 52.499999" height="70" preserveAspectRatio="xMidYMid meet" version="1.0"><defs><clipPath id="dfa1ca513b"><path d="M 12.109375 5.25 L 40.609375 5.25 L 40.609375 35.25 L 12.109375 35.25 Z M 12.109375 5.25 " clip-rule="nonzero"/></clipPath></defs><path fill="#26b1d8" d="M 34.675781 16.5625 C 34.675781 16.828125 34.496094 17.066406 34.265625 17.105469 C 34.0625 17.140625 33.921875 17.050781 33.855469 16.996094 C 33.746094 16.902344 33.679688 16.765625 33.679688 16.621094 L 33.679688 15.554688 C 33.679688 15.355469 33.558594 15.175781 33.371094 15.101562 C 33.1875 15.023438 32.972656 15.066406 32.828125 15.207031 L 27.554688 20.402344 C 27.367188 20.589844 27.046875 20.589844 26.855469 20.398438 L 25.566406 19.132812 C 25.371094 18.941406 25.054688 18.941406 24.859375 19.132812 L 21.574219 22.363281 C 21.382812 22.550781 21.066406 22.550781 20.875 22.363281 C 20.683594 22.171875 20.683594 21.863281 20.875 21.671875 L 24.863281 17.746094 C 24.957031 17.652344 25.082031 17.601562 25.210938 17.601562 C 25.34375 17.601562 25.46875 17.652344 25.5625 17.75 L 26.851562 19.015625 C 27.046875 19.207031 27.363281 19.207031 27.558594 19.015625 L 32.128906 14.519531 C 32.273438 14.378906 32.3125 14.167969 32.238281 13.984375 C 32.160156 13.800781 31.980469 13.679688 31.777344 13.679688 L 30.753906 13.679688 C 30.480469 13.679688 30.242188 13.503906 30.203125 13.277344 C 30.167969 13.082031 30.253906 12.941406 30.308594 12.875 C 30.40625 12.765625 30.546875 12.699219 30.691406 12.699219 L 34.179688 12.699219 C 34.453125 12.699219 34.675781 12.921875 34.675781 13.191406 Z M 34.179688 11.71875 L 30.691406 11.71875 C 30.253906 11.71875 29.835938 11.910156 29.550781 12.242188 C 29.265625 12.574219 29.144531 13.011719 29.21875 13.441406 C 29.328125 14.082031 29.898438 14.582031 30.582031 14.652344 L 27.203125 17.972656 L 26.269531 17.058594 C 25.703125 16.496094 24.71875 16.496094 24.15625 17.054688 L 20.167969 20.980469 C 19.589844 21.550781 19.589844 22.484375 20.171875 23.054688 C 20.460938 23.339844 20.84375 23.484375 21.222656 23.484375 C 21.605469 23.484375 21.988281 23.339844 22.277344 23.054688 L 25.210938 20.171875 L 26.148438 21.089844 C 26.710938 21.652344 27.699219 21.652344 28.257812 21.089844 L 32.6875 16.734375 C 32.71875 17.125 32.90625 17.488281 33.214844 17.746094 C 33.550781 18.023438 33.992188 18.144531 34.429688 18.070312 C 35.140625 17.957031 35.671875 17.304688 35.671875 16.5625 L 35.671875 13.191406 C 35.671875 12.378906 35.003906 11.71875 34.179688 11.71875 " fill-opacity="1" fill-rule="nonzero"/><g clip-path="url(#dfa1ca513b)"><path fill="#26b1d8" d="M 39.0625 19.585938 C 38.734375 22.085938 37.519531 24.4375 35.644531 26.203125 C 35.265625 26.5625 35.097656 27.074219 35.199219 27.570312 L 36.4375 33.683594 C 36.46875 33.828125 36.429688 33.976562 36.335938 34.089844 C 36.242188 34.203125 36.101562 34.269531 35.949219 34.269531 L 24.199219 34.269531 C 23.933594 34.269531 23.714844 34.058594 23.703125 33.789062 C 23.683594 33.367188 23.632812 32.859375 23.464844 32.375 L 25.425781 31.652344 C 26.15625 31.378906 26.761719 30.816406 27.082031 30.109375 L 27.769531 28.585938 C 27.882812 28.339844 27.769531 28.046875 27.519531 27.9375 C 27.265625 27.828125 26.972656 27.941406 26.859375 28.1875 L 26.171875 29.710938 C 25.960938 30.179688 25.558594 30.554688 25.074219 30.738281 L 22.621094 31.636719 C 22.617188 31.640625 22.613281 31.644531 22.609375 31.644531 C 22.605469 31.648438 22.601562 31.644531 22.597656 31.648438 L 19.496094 32.976562 C 18.929688 33.183594 18.335938 33.289062 17.742188 33.289062 C 17.191406 33.289062 16.746094 32.847656 16.746094 32.308594 L 16.746094 30.839844 C 16.746094 30.179688 16.402344 29.683594 15.804688 29.484375 C 15.890625 29.1875 16.058594 29.011719 16.058594 29.011719 C 16.179688 28.894531 16.230469 28.722656 16.195312 28.558594 C 16.160156 28.398438 16.042969 28.261719 15.882812 28.203125 C 15.828125 28.183594 15.65625 28.101562 15.371094 27.855469 C 15.542969 27.523438 15.75 26.917969 15.75 25.9375 C 15.75 25.675781 15.539062 25.460938 15.273438 25.449219 C 14.628906 25.417969 13.832031 25.355469 13.675781 25.304688 C 13.484375 25.25 13.339844 25.105469 13.28125 24.917969 C 13.226562 24.726562 13.265625 24.53125 13.394531 24.375 C 13.96875 23.691406 14.566406 22.859375 15.222656 21.824219 C 15.890625 20.769531 16.25 19.539062 16.25 18.273438 L 16.25 18.109375 C 16.242188 12.835938 19.808594 8.324219 24.917969 7.140625 C 28.722656 6.257812 32.535156 7.203125 35.375 9.71875 C 38.207031 12.234375 39.550781 15.832031 39.0625 19.585938 Z M 36.039062 8.992188 C 32.953125 6.253906 28.816406 5.230469 24.6875 6.1875 C 19.125 7.476562 15.246094 12.378906 15.25 18.109375 L 15.25 18.273438 C 15.25 19.355469 14.949219 20.40625 14.375 21.304688 C 13.746094 22.300781 13.171875 23.101562 12.625 23.753906 C 12.285156 24.160156 12.175781 24.703125 12.328125 25.203125 C 12.484375 25.699219 12.875 26.089844 13.382812 26.246094 C 13.628906 26.320312 14.257812 26.371094 14.734375 26.398438 C 14.6875 26.941406 14.5625 27.253906 14.480469 27.414062 C 14.292969 27.789062 14.367188 28.238281 14.675781 28.527344 C 14.789062 28.636719 14.898438 28.730469 15.003906 28.8125 C 14.945312 28.925781 14.890625 29.058594 14.847656 29.207031 C 14.699219 29.695312 14.964844 30.203125 15.472656 30.398438 C 15.667969 30.464844 15.75 30.597656 15.75 30.839844 L 15.75 32.308594 C 15.75 33.390625 16.640625 34.269531 17.742188 34.269531 C 18.453125 34.269531 19.160156 34.144531 19.867188 33.886719 L 22.542969 32.742188 C 22.632812 33.023438 22.6875 33.378906 22.707031 33.835938 C 22.746094 34.628906 23.402344 35.25 24.199219 35.25 L 35.949219 35.25 C 36.402344 35.25 36.820312 35.054688 37.105469 34.710938 C 37.390625 34.371094 37.503906 33.925781 37.417969 33.492188 L 36.175781 27.378906 C 36.140625 27.210938 36.203125 27.039062 36.335938 26.914062 C 38.375 24.992188 39.691406 22.433594 40.050781 19.710938 C 40.574219 15.691406 39.074219 11.683594 36.039062 8.992188 " fill-opacity="1" fill-rule="nonzero"/></g></svg>