<svg xmlns="http://www.w3.org/2000/svg" xmlns:xlink="http://www.w3.org/1999/xlink" width="70" zoomAndPan="magnify" viewBox="0 0 52.5 52.499999" height="70" preserveAspectRatio="xMidYMid meet" version="1.0"><defs><clipPath id="a07f0f830e"><path d="M 16.269531 9 L 36 9 L 36 34 L 16.269531 34 Z M 16.269531 9 " clip-rule="nonzero"/></clipPath><clipPath id="92e273aed1"><path d="M 16.269531 6.449219 L 36 6.449219 L 36 11 L 16.269531 11 Z M 16.269531 6.449219 " clip-rule="nonzero"/></clipPath><clipPath id="aa46797cfd"><path d="M 16.269531 32 L 36 32 L 36 36.449219 L 16.269531 36.449219 Z M 16.269531 32 " clip-rule="nonzero"/></clipPath><clipPath id="0c2577cd92"><path d="M 39 16 L 42.519531 16 L 42.519531 21 L 39 21 Z M 39 16 " clip-rule="nonzero"/></clipPath></defs><g clip-path="url(#a07f0f830e)"><path fill="#26b1d8" d="M 34.527344 33.410156 L 16.761719 33.410156 C 16.46875 33.410156 16.269531 33.210938 16.269531 32.910156 L 16.269531 9.988281 C 16.269531 9.6875 16.46875 9.488281 16.761719 9.488281 L 34.527344 9.488281 C 34.820312 9.488281 35.019531 9.6875 35.019531 9.988281 L 35.019531 13.976562 C 35.019531 14.273438 34.820312 14.472656 34.527344 14.472656 C 34.230469 14.472656 34.03125 14.273438 34.03125 13.976562 L 34.03125 10.488281 L 17.257812 10.488281 L 17.257812 32.414062 L 34.03125 32.414062 L 34.03125 31.417969 C 34.03125 31.117188 34.230469 30.917969 34.527344 30.917969 C 34.820312 30.917969 35.019531 31.117188 35.019531 31.417969 L 35.019531 32.910156 C 35.019531 33.210938 34.820312 33.410156 34.527344 33.410156 Z M 34.527344 33.410156 " fill-opacity="1" fill-rule="nonzero"/></g><g clip-path="url(#92e273aed1)"><path fill="#26b1d8" d="M 34.527344 10.488281 L 16.761719 10.488281 C 16.46875 10.488281 16.269531 10.285156 16.269531 9.988281 L 16.269531 7.996094 C 16.269531 7.148438 16.910156 6.5 17.75 6.5 L 33.539062 6.5 C 34.378906 6.5 35.019531 7.148438 35.019531 7.996094 L 35.019531 9.988281 C 35.019531 10.285156 34.820312 10.488281 34.527344 10.488281 Z M 17.257812 9.488281 L 34.03125 9.488281 L 34.03125 7.996094 C 34.03125 7.695312 33.835938 7.496094 33.539062 7.496094 L 17.75 7.496094 C 17.453125 7.496094 17.257812 7.695312 17.257812 7.996094 Z M 17.257812 9.488281 " fill-opacity="1" fill-rule="nonzero"/></g><path fill="#26b1d8" d="M 26.632812 8.992188 L 24.65625 8.992188 C 24.363281 8.992188 24.164062 8.792969 24.164062 8.492188 C 24.164062 8.195312 24.363281 7.996094 24.65625 7.996094 L 26.632812 7.996094 C 26.925781 7.996094 27.125 8.195312 27.125 8.492188 C 27.125 8.792969 26.925781 8.992188 26.632812 8.992188 Z M 26.632812 8.992188 " fill-opacity="1" fill-rule="nonzero"/><g clip-path="url(#aa46797cfd)"><path fill="#26b1d8" d="M 33.539062 36.398438 L 17.75 36.398438 C 16.910156 36.398438 16.269531 35.753906 16.269531 34.90625 L 16.269531 32.910156 C 16.269531 32.613281 16.46875 32.414062 16.761719 32.414062 L 34.527344 32.414062 C 34.820312 32.414062 35.019531 32.613281 35.019531 32.910156 L 35.019531 34.90625 C 35.019531 35.753906 34.378906 36.398438 33.539062 36.398438 Z M 17.257812 33.410156 L 17.257812 34.90625 C 17.257812 35.203125 17.453125 35.402344 17.75 35.402344 L 33.539062 35.402344 C 33.835938 35.402344 34.03125 35.203125 34.03125 34.90625 L 34.03125 33.410156 Z M 17.257812 33.410156 " fill-opacity="1" fill-rule="nonzero"/></g><path fill="#26b1d8" d="M 26.632812 34.90625 L 24.65625 34.90625 C 24.363281 34.90625 24.164062 34.707031 24.164062 34.40625 C 24.164062 34.109375 24.363281 33.910156 24.65625 33.910156 L 26.632812 33.910156 C 26.925781 33.910156 27.125 34.109375 27.125 34.40625 C 27.125 34.707031 26.925781 34.90625 26.632812 34.90625 Z M 26.632812 34.90625 " fill-opacity="1" fill-rule="nonzero"/><path fill="#26b1d8" d="M 31.714844 21.597656 C 30.972656 21.597656 30.332031 21 30.234375 20.253906 L 30.035156 18.261719 C 29.9375 17.464844 30.53125 16.714844 31.367188 16.617188 L 33.835938 16.367188 L 34.328125 21.351562 L 31.863281 21.597656 C 31.8125 21.597656 31.761719 21.597656 31.714844 21.597656 Z M 32.945312 17.464844 L 31.46875 17.613281 C 31.21875 17.664062 30.972656 17.863281 31.023438 18.160156 L 31.21875 20.15625 C 31.269531 20.402344 31.515625 20.601562 31.761719 20.601562 L 33.242188 20.453125 Z M 32.945312 17.464844 " fill-opacity="1" fill-rule="nonzero"/><path fill="#26b1d8" d="M 39.804688 23.292969 C 39.65625 23.292969 39.507812 23.292969 39.363281 23.242188 L 33.292969 21.300781 L 32.847656 16.664062 L 38.425781 13.574219 C 38.867188 13.328125 39.410156 13.328125 39.804688 13.574219 C 40.25 13.824219 40.546875 14.273438 40.59375 14.773438 L 41.285156 21.699219 C 41.335938 22.199219 41.136719 22.695312 40.742188 22.996094 C 40.445312 23.144531 40.152344 23.292969 39.804688 23.292969 Z M 39.65625 22.246094 C 39.804688 22.296875 40.003906 22.246094 40.101562 22.148438 C 40.25 22.046875 40.300781 21.898438 40.300781 21.699219 L 39.609375 14.773438 C 39.609375 14.621094 39.507812 14.472656 39.363281 14.375 C 39.214844 14.273438 39.066406 14.273438 38.917969 14.375 L 33.933594 17.164062 L 34.28125 20.453125 Z M 39.65625 22.246094 " fill-opacity="1" fill-rule="nonzero"/><g clip-path="url(#0c2577cd92)"><path fill="#26b1d8" d="M 40.152344 20.253906 L 39.757812 16.265625 L 40.25 16.21875 C 41.335938 16.117188 42.320312 16.914062 42.421875 18.011719 C 42.519531 19.109375 41.730469 20.105469 40.644531 20.203125 Z M 40.84375 17.3125 L 40.988281 19.007812 C 41.285156 18.808594 41.433594 18.460938 41.382812 18.109375 C 41.382812 17.761719 41.136719 17.464844 40.84375 17.3125 Z M 40.84375 17.3125 " fill-opacity="1" fill-rule="nonzero"/></g><path fill="#26b1d8" d="M 33.285156 20.953125 L 34.269531 20.855469 L 34.484375 23.089844 L 33.503906 23.1875 Z M 33.285156 20.953125 " fill-opacity="1" fill-rule="nonzero"/><path fill="#26b1d8" d="M 35.296875 21.601562 L 36.28125 21.503906 L 36.414062 22.894531 L 35.433594 22.992188 Z M 35.296875 21.601562 " fill-opacity="1" fill-rule="nonzero"/><path fill="#26b1d8" d="M 24.65625 23.445312 C 21.945312 23.445312 19.722656 21.199219 19.722656 18.460938 C 19.722656 15.71875 21.945312 13.476562 24.65625 13.476562 C 27.371094 13.476562 29.59375 15.71875 29.59375 18.460938 C 29.59375 21.199219 27.371094 23.445312 24.65625 23.445312 Z M 24.65625 14.472656 C 22.488281 14.472656 20.710938 16.265625 20.710938 18.460938 C 20.710938 20.652344 22.488281 22.445312 24.65625 22.445312 C 26.828125 22.445312 28.605469 20.652344 28.605469 18.460938 C 28.605469 16.265625 26.828125 14.472656 24.65625 14.472656 Z M 24.65625 14.472656 " fill-opacity="1" fill-rule="nonzero"/><path fill="#26b1d8" d="M 31.070312 33.410156 L 19.722656 33.410156 C 19.425781 33.410156 19.230469 33.210938 19.230469 32.910156 L 19.230469 26.933594 C 19.230469 24.988281 20.757812 23.445312 22.683594 23.445312 L 25.152344 23.445312 C 27.222656 23.445312 29.148438 24.441406 30.382812 26.132812 C 30.53125 26.332031 30.480469 26.683594 30.28125 26.832031 C 30.085938 26.980469 29.738281 26.933594 29.59375 26.734375 C 28.554688 25.289062 26.878906 24.441406 25.152344 24.441406 L 22.683594 24.441406 C 21.300781 24.441406 20.21875 25.535156 20.21875 26.933594 L 20.21875 32.414062 L 30.578125 32.414062 L 30.578125 29.921875 C 30.578125 29.773438 30.578125 29.621094 30.578125 29.472656 C 30.578125 29.175781 30.777344 28.976562 31.023438 28.925781 C 31.320312 28.875 31.515625 29.125 31.566406 29.375 C 31.566406 29.574219 31.566406 29.722656 31.566406 29.921875 L 31.566406 32.910156 C 31.566406 33.210938 31.367188 33.410156 31.070312 33.410156 Z M 31.070312 33.410156 " fill-opacity="1" fill-rule="nonzero"/><path fill="#26b1d8" d="M 33.539062 29.921875 L 25.152344 29.921875 C 24.066406 29.921875 23.175781 29.023438 23.175781 27.929688 C 23.175781 26.832031 24.066406 25.933594 25.152344 25.933594 L 32.550781 25.933594 C 32.847656 25.933594 33.046875 25.734375 33.046875 25.4375 L 33.046875 23.941406 C 33.046875 23.09375 33.6875 22.445312 34.527344 22.445312 L 35.511719 22.445312 C 36.351562 22.445312 36.992188 23.09375 36.992188 23.941406 L 36.992188 26.433594 C 36.992188 28.378906 35.464844 29.921875 33.539062 29.921875 Z M 25.152344 26.933594 C 24.609375 26.933594 24.164062 27.378906 24.164062 27.929688 C 24.164062 28.476562 24.609375 28.925781 25.152344 28.925781 L 33.539062 28.925781 C 34.921875 28.925781 36.007812 27.828125 36.007812 26.433594 L 36.007812 23.941406 C 36.007812 23.644531 35.808594 23.445312 35.511719 23.445312 L 34.527344 23.445312 C 34.230469 23.445312 34.03125 23.644531 34.03125 23.941406 L 34.03125 25.4375 C 34.03125 26.285156 33.390625 26.933594 32.550781 26.933594 Z M 25.152344 26.933594 " fill-opacity="1" fill-rule="nonzero"/></svg>