<svg xmlns="http://www.w3.org/2000/svg" xmlns:xlink="http://www.w3.org/1999/xlink" width="80" zoomAndPan="magnify" viewBox="0 0 60 60" height="80" preserveAspectRatio="xMidYMid meet" version="1.0"><defs><clipPath id="994a134712"><path d="M 3.226562 1 L 56.476562 1 L 56.476562 60 L 3.226562 60 Z M 3.226562 1 " clip-rule="nonzero"/></clipPath></defs><g clip-path="url(#994a134712)"><path fill="#ffffff" d="M 28.386719 28.933594 C 28.121094 28.933594 27.863281 28.835938 27.667969 28.65625 L 24.171875 25.503906 C 23.886719 25.246094 23.472656 25.179688 23.121094 25.34375 C 22.773438 25.503906 22.550781 25.859375 22.558594 26.246094 L 22.710938 33.820312 C 22.722656 34.351562 23.148438 34.773438 23.675781 34.773438 L 27.371094 34.773438 C 27.925781 34.773438 28.390625 35.191406 28.445312 35.75 L 29.652344 47.421875 C 29.683594 47.710938 29.597656 47.992188 29.417969 48.21875 C 29.234375 48.441406 28.976562 48.585938 28.574219 48.621094 C 28.019531 48.621094 27.558594 48.199219 27.5 47.644531 L 26.484375 37.820312 C 26.433594 37.324219 26.019531 36.949219 25.523438 36.949219 L 17.660156 36.949219 C 17.125 36.949219 16.691406 37.382812 16.691406 37.921875 L 16.691406 53.640625 C 16.691406 54.238281 16.207031 54.726562 15.613281 54.726562 C 15.015625 54.726562 14.53125 54.238281 14.53125 53.640625 L 14.511719 34.644531 C 14.53125 34.582031 14.558594 34.429688 14.566406 34.363281 C 14.566406 34.335938 14.558594 34.183594 14.558594 34.15625 L 14.421875 27.4375 C 14.414062 27.027344 14.152344 26.664062 13.765625 26.535156 C 13.660156 26.5 13.558594 26.484375 13.457031 26.484375 C 13.164062 26.484375 12.882812 26.617188 12.699219 26.855469 L 10.710938 29.394531 C 10.648438 29.472656 10.597656 29.5625 10.5625 29.660156 L 7.644531 37.605469 C 7.445312 38.152344 6.789062 38.445312 6.257812 38.25 C 5.695312 38.042969 5.410156 37.414062 5.613281 36.851562 L 8.640625 28.609375 C 8.683594 28.496094 8.738281 28.394531 8.808594 28.304688 L 13.515625 22.289062 C 13.722656 22.027344 14.035156 21.875 14.367188 21.875 L 22.972656 21.875 C 23.238281 21.875 23.496094 21.972656 23.695312 22.152344 L 28.527344 26.507812 C 28.703125 26.671875 28.933594 26.757812 29.171875 26.757812 L 34.957031 26.757812 C 35.554688 26.757812 36.039062 27.246094 36.039062 27.84375 C 36.039062 28.445312 35.554688 28.933594 34.957031 28.933594 Z M 32.34375 45.679688 C 32.035156 45.6875 31.722656 45.6875 31.417969 45.707031 L 30.367188 35.546875 C 30.210938 34 28.921875 32.832031 27.371094 32.832031 L 24.621094 32.832031 L 24.535156 28.441406 L 26.378906 30.101562 C 26.929688 30.601562 27.644531 30.875 28.386719 30.875 L 32.34375 30.875 Z M 18.625 49.441406 L 18.625 38.890625 L 24.652344 38.890625 L 25.453125 46.65625 C 22.980469 47.304688 20.679688 48.25 18.625 49.441406 Z M 14.722656 15.386719 C 14.691406 14.417969 15.039062 13.496094 15.699219 12.789062 C 16.359375 12.082031 17.253906 11.675781 18.21875 11.648438 C 18.253906 11.648438 18.292969 11.648438 18.328125 11.648438 C 20.265625 11.648438 21.875 13.203125 21.933594 15.164062 C 21.964844 16.132812 21.617188 17.054688 20.957031 17.761719 C 20.296875 18.464844 19.402344 18.871094 18.441406 18.898438 C 18.4375 18.898438 18.4375 18.898438 18.4375 18.898438 C 17.460938 18.929688 16.558594 18.578125 15.855469 17.917969 C 15.15625 17.253906 14.75 16.351562 14.722656 15.386719 Z M 34.277344 5.515625 C 37.746094 7.175781 40.550781 5.871094 43.054688 4.699219 C 45.675781 3.476562 47.953125 2.414062 51.027344 4.34375 L 51.027344 17.722656 C 47.550781 16.046875 44.746094 17.359375 42.242188 18.535156 C 39.621094 19.761719 37.34375 20.828125 34.277344 18.894531 Z M 56.277344 58.464844 C 53.40625 51.148438 44.441406 45.988281 34.277344 45.679688 L 34.277344 30.875 L 34.957031 30.875 C 36.621094 30.875 37.972656 29.515625 37.972656 27.84375 C 37.972656 26.175781 36.621094 24.816406 34.957031 24.816406 L 34.277344 24.816406 L 34.277344 21.09375 C 35.457031 21.664062 36.566406 21.902344 37.609375 21.902344 C 39.625 21.902344 41.402344 21.070312 43.058594 20.296875 C 45.792969 19.015625 48.15625 17.910156 51.441406 20.214844 C 51.738281 20.421875 52.121094 20.445312 52.441406 20.277344 C 52.757812 20.109375 52.960938 19.777344 52.960938 19.417969 L 52.960938 3.820312 C 52.960938 3.503906 52.804688 3.203125 52.546875 3.023438 C 48.34375 0.0820312 45.105469 1.601562 42.238281 2.9375 C 39.503906 4.214844 37.140625 5.316406 33.859375 3.023438 C 33.566406 2.816406 33.179688 2.792969 32.863281 2.960938 C 32.542969 3.128906 32.34375 3.460938 32.34375 3.820312 L 32.34375 24.816406 L 29.539062 24.816406 L 24.984375 20.707031 C 24.429688 20.207031 23.714844 19.933594 22.972656 19.933594 L 21.339844 19.933594 C 21.707031 19.691406 22.054688 19.421875 22.363281 19.089844 C 23.378906 18.007812 23.910156 16.589844 23.867188 15.105469 C 23.773438 12.035156 21.265625 9.648438 18.160156 9.707031 C 16.683594 9.75 15.308594 10.371094 14.292969 11.457031 C 13.277344 12.539062 12.746094 13.957031 12.789062 15.445312 C 12.835938 16.933594 13.453125 18.3125 14.53125 19.332031 C 14.769531 19.558594 15.03125 19.753906 15.300781 19.933594 L 14.367188 19.933594 C 13.4375 19.933594 12.574219 20.355469 12 21.089844 L 7.289062 27.105469 C 7.101562 27.347656 6.945312 27.621094 6.832031 27.929688 L 3.804688 36.179688 C 3.226562 37.746094 4.027344 39.492188 5.585938 40.070312 C 7.082031 40.628906 8.894531 39.804688 9.457031 38.28125 L 12.324219 30.476562 L 12.542969 30.191406 L 12.625 34.175781 C 12.625 34.191406 12.625 34.207031 12.628906 34.226562 C 12.609375 34.316406 12.597656 34.417969 12.597656 34.476562 L 12.597656 53.640625 C 12.597656 53.910156 12.644531 54.167969 12.710938 54.417969 C 11.710938 55.671875 10.910156 57.023438 10.34375 58.464844 C 10.148438 58.960938 10.390625 59.527344 10.886719 59.722656 C 11.386719 59.921875 11.945312 59.675781 12.140625 59.175781 C 12.566406 58.09375 13.160156 57.070312 13.867188 56.101562 C 14.359375 56.457031 14.960938 56.671875 15.613281 56.671875 C 17.273438 56.671875 18.625 55.308594 18.625 53.640625 L 18.625 51.6875 C 20.703125 50.339844 23.125 49.285156 25.757812 48.582031 C 26.226562 49.84375 27.492188 50.703125 28.886719 50.546875 C 29.6875 50.464844 30.40625 50.070312 30.914062 49.445312 C 31.332031 48.925781 31.554688 48.300781 31.574219 47.644531 C 32.148438 47.609375 32.726562 47.589844 33.3125 47.589844 C 43.097656 47.589844 51.800781 52.355469 54.480469 59.175781 C 54.628906 59.558594 54.992188 59.792969 55.378906 59.792969 C 55.496094 59.792969 55.617188 59.769531 55.734375 59.722656 C 56.230469 59.527344 56.472656 58.960938 56.277344 58.464844 " fill-opacity="1" fill-rule="nonzero"/></g></svg>