<svg xmlns="http://www.w3.org/2000/svg" xmlns:xlink="http://www.w3.org/1999/xlink" width="80" zoomAndPan="magnify" viewBox="0 0 60 60" height="80" preserveAspectRatio="xMidYMid meet" version="1.0"><defs><clipPath id="532f163283"><path d="M 3.75 3 L 56.25 3 L 56.25 60 L 3.75 60 Z M 3.75 3 " clip-rule="nonzero"/></clipPath></defs><g clip-path="url(#532f163283)"><path fill="#ffffff" d="M 53.4375 12.890625 L 43.769531 12.890625 C 41.980469 8.777344 39.234375 5.507812 36.378906 4.175781 C 31.984375 2.019531 28.347656 5.378906 27.78125 9.90625 L 23.585938 12.890625 L 6.5625 12.890625 C 5.011719 12.890625 3.75 14.152344 3.75 15.703125 L 3.75 45.703125 C 3.75 47.253906 5.011719 48.515625 6.5625 48.515625 L 26.25 48.515625 C 26.199219 51.03125 25.59375 53.457031 24.480469 55.582031 C 23.980469 56.574219 22.949219 57.613281 23.636719 58.777344 C 23.964844 59.386719 24.597656 59.765625 25.289062 59.765625 L 34.710938 59.765625 C 36.148438 59.8125 37.113281 58.058594 36.28125 56.875 C 36.007812 56.457031 35.75 56.023438 35.519531 55.578125 C 34.40625 53.457031 33.800781 51.03125 33.75 48.515625 L 53.4375 48.515625 C 54.988281 48.515625 56.25 47.253906 56.25 45.703125 L 56.25 15.703125 C 56.25 14.152344 54.988281 12.890625 53.4375 12.890625 Z M 40.066406 29.097656 C 37.132812 29.179688 34.875 26.65625 33.304688 24.441406 C 41.214844 22.140625 37.144531 10.707031 29.554688 14.007812 C 28.84375 0.253906 39.160156 4.828125 42.613281 15.058594 C 44.488281 20.140625 44.804688 28.449219 40.066406 29.097656 Z M 30.132812 30.347656 C 30.144531 31.164062 29.371094 31.421875 28.726562 31.625 L 27.964844 30.304688 L 30.09375 30.132812 C 30.109375 30.203125 30.132812 30.273438 30.132812 30.347656 Z M 16.996094 23.578125 L 17.210938 23.5 L 18.160156 26.117188 C 16.363281 26.964844 15.183594 24.335938 16.996094 23.578125 Z M 25.894531 30.46875 L 28.617188 35.183594 C 29.5 36.785156 27.140625 38.136719 26.207031 36.570312 C 26.207031 36.570312 22.828125 30.714844 22.828125 30.714844 Z M 26.3125 28.554688 C 26.304688 28.582031 21.820312 28.894531 21.800781 28.917969 C 21.445312 28.945312 21.105469 28.726562 20.980469 28.386719 L 18.660156 21.992188 C 18.65625 21.980469 17.917969 19.957031 17.914062 19.945312 C 17.789062 19.609375 17.910156 19.226562 18.207031 19.015625 L 27.589844 12.34375 C 27.625 17.867188 29.898438 23.996094 33.773438 27.957031 Z M 31.777344 21.800781 C 30.855469 19.976562 30.214844 17.996094 29.84375 15.992188 C 32.179688 14.195312 35.824219 16.042969 35.738281 19 C 35.738281 20.972656 34.195312 22.589844 32.25 22.710938 C 32.085938 22.414062 31.929688 22.109375 31.777344 21.800781 Z M 33.855469 56.449219 C 34.117188 56.949219 34.40625 57.4375 34.714844 57.890625 C 34.714844 57.890625 25.285156 57.910156 25.28125 57.910156 C 27.109375 55.140625 28.058594 51.929688 28.128906 48.515625 L 31.871094 48.515625 C 31.921875 51.335938 32.605469 54.0625 33.855469 56.449219 Z M 54.375 45.703125 C 54.375 46.21875 53.953125 46.640625 53.4375 46.640625 L 6.5625 46.640625 C 6.046875 46.640625 5.625 46.21875 5.625 45.703125 L 5.625 15.703125 C 5.625 15.1875 6.046875 14.765625 6.5625 14.765625 L 20.949219 14.765625 L 17.121094 17.488281 C 16.136719 18.183594 15.738281 19.460938 16.152344 20.589844 L 16.570312 21.738281 C 12.203125 23.214844 14.535156 29.558594 18.800781 27.878906 C 19.121094 28.847656 19.535156 30.09375 20.542969 30.511719 L 24.582031 37.503906 C 26.835938 41.1875 32.289062 38.023438 30.242188 34.25 C 30.242188 34.25 29.679688 33.273438 29.679688 33.273438 C 31.128906 32.898438 32.207031 31.496094 31.976562 29.980469 L 35.828125 29.671875 C 44.835938 35.082031 47.746094 22.875 44.492188 14.765625 L 53.4375 14.765625 C 53.953125 14.765625 54.375 15.1875 54.375 15.703125 Z M 54.375 45.703125 " fill-opacity="1" fill-rule="nonzero"/></g></svg>