<svg xmlns="http://www.w3.org/2000/svg" xmlns:xlink="http://www.w3.org/1999/xlink" width="80" zoomAndPan="magnify" viewBox="0 0 60 60" height="80" preserveAspectRatio="xMidYMid meet" version="1.0"><path fill="#ffffff" d="M 3.554688 33.453125 L 6.304688 34.964844 C 6.488281 35.859375 6.726562 36.746094 7.011719 37.609375 L 5.496094 40.222656 C 5.351562 40.472656 5.335938 40.78125 5.453125 41.042969 C 6.207031 42.722656 7.136719 44.328125 8.214844 45.820312 C 8.382812 46.050781 8.65625 46.191406 8.945312 46.191406 L 11.96875 46.183594 C 12.578125 46.863281 13.226562 47.511719 13.90625 48.121094 L 13.898438 51.144531 C 13.898438 51.433594 14.035156 51.707031 14.269531 51.875 C 15.757812 52.953125 17.367188 53.882812 19.046875 54.636719 C 19.308594 54.753906 19.613281 54.738281 19.867188 54.59375 L 22.480469 53.078125 C 23.34375 53.363281 24.230469 53.601562 25.125 53.785156 L 26.636719 56.535156 C 26.796875 56.820312 27.097656 57 27.425781 57 L 32.753906 57 C 33.082031 57 33.386719 56.820312 33.542969 56.535156 L 35.054688 53.785156 C 35.949219 53.601562 36.835938 53.363281 37.699219 53.078125 L 40.3125 54.59375 C 40.566406 54.738281 40.871094 54.753906 41.132812 54.636719 C 42.8125 53.882812 44.417969 52.953125 45.910156 51.875 C 46.144531 51.707031 46.28125 51.433594 46.28125 51.144531 L 46.273438 48.121094 C 46.953125 47.511719 47.601562 46.863281 48.210938 46.183594 L 51.234375 46.191406 C 51.234375 46.191406 51.234375 46.191406 51.238281 46.191406 C 51.523438 46.191406 51.796875 46.050781 51.964844 45.820312 C 53.042969 44.332031 53.972656 42.722656 54.726562 41.042969 C 54.84375 40.78125 54.828125 40.472656 54.683594 40.222656 L 53.167969 37.609375 C 53.453125 36.742188 53.691406 35.851562 53.878906 34.957031 L 56.503906 33.445312 C 56.78125 33.285156 56.953125 32.988281 56.953125 32.664062 L 56.953125 27.335938 C 56.953125 27.011719 56.78125 26.714844 56.503906 26.554688 L 53.878906 25.042969 C 53.691406 24.148438 53.453125 23.257812 53.167969 22.390625 L 54.683594 19.777344 C 54.828125 19.527344 54.84375 19.21875 54.726562 18.957031 C 53.972656 17.277344 53.042969 15.671875 51.964844 14.179688 C 51.796875 13.949219 51.523438 13.808594 51.238281 13.808594 C 51.234375 13.808594 51.234375 13.808594 51.234375 13.808594 L 48.210938 13.816406 C 47.601562 13.136719 46.953125 12.488281 46.273438 11.878906 L 46.28125 8.855469 C 46.28125 8.566406 46.144531 8.292969 45.910156 8.125 C 44.421875 7.046875 42.8125 6.117188 41.132812 5.363281 C 40.871094 5.246094 40.566406 5.261719 40.3125 5.40625 L 37.699219 6.921875 C 36.832031 6.636719 35.949219 6.398438 35.054688 6.214844 L 33.542969 3.46875 C 33.386719 3.179688 33.082031 3 32.753906 3 L 27.425781 3 C 27.097656 3 26.796875 3.179688 26.636719 3.464844 L 25.125 6.214844 C 24.230469 6.398438 23.34375 6.636719 22.480469 6.921875 L 19.867188 5.40625 C 19.613281 5.257812 19.308594 5.242188 19.046875 5.363281 C 17.367188 6.117188 15.757812 7.046875 14.269531 8.125 C 14.035156 8.292969 13.898438 8.566406 13.898438 8.855469 L 13.90625 11.878906 C 13.226562 12.488281 12.578125 13.136719 11.96875 13.816406 L 8.945312 13.808594 C 8.65625 13.765625 8.382812 13.945312 8.214844 14.179688 C 7.136719 15.667969 6.207031 17.277344 5.453125 18.957031 C 5.335938 19.21875 5.351562 19.527344 5.496094 19.777344 L 7.011719 22.390625 C 6.730469 23.253906 6.492188 24.140625 6.304688 25.035156 L 3.558594 26.546875 C 3.269531 26.707031 3.089844 27.007812 3.089844 27.335938 L 3.089844 32.664062 C 3.089844 32.992188 3.269531 33.292969 3.554688 33.453125 Z M 4.890625 27.867188 L 7.539062 26.410156 C 7.773438 26.28125 7.9375 26.050781 7.988281 25.789062 C 8.195312 24.703125 8.480469 23.628906 8.84375 22.589844 C 8.929688 22.339844 8.90625 22.066406 8.773438 21.839844 L 7.285156 19.277344 C 7.890625 17.996094 8.601562 16.765625 9.40625 15.609375 L 12.375 15.617188 C 12.636719 15.617188 12.886719 15.503906 13.058594 15.304688 C 13.777344 14.472656 14.5625 13.6875 15.398438 12.964844 C 15.597656 12.792969 15.710938 12.542969 15.710938 12.28125 L 15.699219 9.316406 C 16.859375 8.507812 18.089844 7.796875 19.367188 7.195312 L 21.929688 8.683594 C 22.160156 8.8125 22.433594 8.839844 22.679688 8.753906 C 23.714844 8.390625 24.792969 8.101562 25.878906 7.898438 C 26.144531 7.847656 26.371094 7.683594 26.5 7.445312 L 27.957031 4.800781 L 32.222656 4.800781 L 33.679688 7.449219 C 33.808594 7.683594 34.035156 7.847656 34.300781 7.898438 C 35.382812 8.105469 36.460938 8.390625 37.5 8.753906 C 37.746094 8.839844 38.019531 8.816406 38.25 8.683594 L 40.8125 7.195312 C 42.089844 7.796875 43.320312 8.511719 44.480469 9.316406 L 44.46875 12.285156 C 44.46875 12.546875 44.582031 12.796875 44.78125 12.96875 C 45.617188 13.6875 46.402344 14.476562 47.121094 15.308594 C 47.292969 15.503906 47.542969 15.621094 47.804688 15.621094 L 50.773438 15.609375 C 51.582031 16.769531 52.292969 18 52.894531 19.277344 L 51.40625 21.839844 C 51.273438 22.066406 51.25 22.34375 51.335938 22.589844 C 51.699219 23.628906 51.984375 24.707031 52.191406 25.789062 C 52.242188 26.046875 52.398438 26.269531 52.625 26.402344 L 55.15625 27.855469 L 55.15625 32.144531 L 52.625 33.597656 C 52.398438 33.730469 52.238281 33.953125 52.191406 34.210938 C 51.984375 35.296875 51.699219 36.371094 51.335938 37.410156 C 51.25 37.660156 51.273438 37.933594 51.40625 38.160156 L 52.894531 40.722656 C 52.289062 42.003906 51.578125 43.234375 50.773438 44.390625 L 47.804688 44.382812 C 47.542969 44.382812 47.292969 44.496094 47.121094 44.695312 C 46.402344 45.527344 45.613281 46.316406 44.78125 47.035156 C 44.582031 47.207031 44.46875 47.457031 44.46875 47.71875 L 44.480469 50.683594 C 43.320312 51.492188 42.089844 52.203125 40.8125 52.804688 L 38.25 51.316406 C 38.019531 51.1875 37.746094 51.160156 37.5 51.246094 C 36.464844 51.609375 35.386719 51.898438 34.300781 52.101562 C 34.035156 52.152344 33.808594 52.316406 33.679688 52.554688 L 32.222656 55.199219 L 27.957031 55.199219 L 26.5 52.550781 C 26.371094 52.316406 26.144531 52.152344 25.878906 52.101562 C 24.792969 51.894531 23.71875 51.609375 22.679688 51.246094 C 22.433594 51.160156 22.160156 51.183594 21.929688 51.316406 L 19.367188 52.804688 C 18.089844 52.203125 16.859375 51.492188 15.699219 50.683594 L 15.710938 47.71875 C 15.710938 47.453125 15.597656 47.207031 15.398438 47.035156 C 14.5625 46.3125 13.777344 45.527344 13.058594 44.695312 C 12.886719 44.496094 12.636719 44.382812 12.375 44.382812 L 9.40625 44.390625 C 8.601562 43.230469 7.886719 42 7.285156 40.722656 L 8.773438 38.160156 C 8.90625 37.933594 8.929688 37.660156 8.84375 37.410156 C 8.480469 36.371094 8.195312 35.296875 7.988281 34.210938 C 7.9375 33.949219 7.773438 33.71875 7.539062 33.589844 L 4.890625 32.132812 Z M 4.890625 27.867188 " fill-opacity="1" fill-rule="nonzero"/><path fill="#ffffff" d="M 30.089844 49.800781 C 41.007812 49.800781 49.890625 40.917969 49.890625 30 C 49.890625 19.082031 41.007812 10.199219 30.089844 10.199219 C 19.171875 10.199219 10.289062 19.082031 10.289062 30 C 10.289062 40.917969 19.171875 49.800781 30.089844 49.800781 Z M 30.089844 12 C 40.015625 12 48.089844 20.074219 48.089844 30 C 48.089844 39.925781 40.015625 48 30.089844 48 C 20.164062 48 12.089844 39.925781 12.089844 30 C 12.089844 20.074219 20.164062 12 30.089844 12 Z M 30.089844 12 " fill-opacity="1" fill-rule="nonzero"/><path fill="#ffffff" d="M 19.289062 40.800781 L 40.890625 40.800781 C 41.386719 40.800781 41.789062 40.398438 41.789062 39.898438 L 41.789062 26.398438 C 41.789062 26.054688 41.59375 25.742188 41.285156 25.59375 C 40.976562 25.441406 40.609375 25.476562 40.335938 25.691406 L 33.691406 30.859375 L 33.691406 26.398438 C 33.691406 26.054688 33.492188 25.742188 33.183594 25.59375 C 32.875 25.441406 32.511719 25.476562 32.238281 25.691406 L 25.589844 30.859375 L 25.589844 20.101562 C 25.589844 19.601562 25.1875 19.199219 24.691406 19.199219 L 19.289062 19.199219 C 18.792969 19.199219 18.390625 19.601562 18.390625 20.101562 L 18.390625 39.898438 C 18.390625 40.398438 18.792969 40.800781 19.289062 40.800781 Z M 20.191406 21 L 23.789062 21 L 23.789062 32.699219 C 23.789062 33.042969 23.984375 33.355469 24.292969 33.507812 C 24.605469 33.660156 24.972656 33.621094 25.242188 33.410156 L 31.890625 28.238281 L 31.890625 32.699219 C 31.890625 33.042969 32.085938 33.355469 32.394531 33.507812 C 32.703125 33.660156 33.070312 33.621094 33.34375 33.410156 L 39.988281 28.238281 L 39.988281 39 L 20.191406 39 Z M 20.191406 21 " fill-opacity="1" fill-rule="nonzero"/><path fill="#ffffff" d="M 24.304688 17.109375 C 24.699219 16.675781 24.878906 16.5 25.292969 16.5 C 25.707031 16.5 25.882812 16.675781 26.28125 17.109375 C 26.738281 17.613281 27.371094 18.300781 28.59375 18.300781 C 29.816406 18.300781 30.445312 17.609375 30.90625 17.109375 C 31.300781 16.675781 31.480469 16.5 31.890625 16.5 L 31.890625 14.699219 C 30.671875 14.699219 30.039062 15.390625 29.578125 15.890625 C 29.183594 16.324219 29.003906 16.5 28.59375 16.5 C 28.179688 16.5 28.003906 16.324219 27.605469 15.890625 C 27.144531 15.386719 26.511719 14.699219 25.292969 14.699219 C 24.070312 14.699219 23.4375 15.390625 22.976562 15.890625 C 22.582031 16.324219 22.402344 16.5 21.988281 16.5 L 21.988281 18.300781 C 23.210938 18.300781 23.84375 17.613281 24.304688 17.109375 Z M 24.304688 17.109375 " fill-opacity="1" fill-rule="nonzero"/></svg>