<svg xmlns="http://www.w3.org/2000/svg" xmlns:xlink="http://www.w3.org/1999/xlink" width="80" zoomAndPan="magnify" viewBox="0 0 60 60" height="80" preserveAspectRatio="xMidYMid meet" version="1.0"><defs><clipPath id="956df4b015"><path d="M 4 18 L 43 18 L 43 56.082031 L 4 56.082031 Z M 4 18 " clip-rule="nonzero"/></clipPath><clipPath id="e21a45f424"><path d="M 40 3.582031 L 51 3.582031 L 51 14 L 40 14 Z M 40 3.582031 " clip-rule="nonzero"/></clipPath><clipPath id="76b4d26cd4"><path d="M 50 4 L 57.265625 4 L 57.265625 21 L 50 21 Z M 50 4 " clip-rule="nonzero"/></clipPath></defs><g clip-path="url(#956df4b015)"><path fill="#ffffff" d="M 36.058594 38.199219 C 35.730469 37.871094 35.234375 37.871094 34.90625 38.199219 L 29.5625 43.53125 C 26.230469 46.851562 20.722656 46.769531 17.269531 43.367188 C 13.980469 40.085938 13.773438 34.425781 17.105469 31.101562 C 17.105469 31.101562 22.449219 25.769531 22.449219 25.769531 C 22.777344 25.441406 22.777344 24.949219 22.449219 24.621094 L 16.363281 18.59375 C 16.035156 18.265625 15.5 18.265625 15.214844 18.59375 L 9.867188 23.925781 C 2.632812 31.144531 2.796875 43.039062 10.199219 50.421875 C 13.980469 54.195312 18.871094 56.082031 23.765625 56.082031 C 28.492188 56.082031 33.179688 54.316406 36.757812 50.75 C 36.757812 50.75 42.101562 45.417969 42.101562 45.417969 C 42.429688 45.089844 42.429688 44.554688 42.101562 44.269531 C 42.101562 44.269531 36.058594 38.238281 36.058594 38.199219 Z M 36.058594 38.199219 " fill-opacity="1" fill-rule="nonzero"/></g><path fill="#ffffff" d="M 21.378906 19.988281 C 21.585938 19.988281 21.792969 19.90625 21.957031 19.742188 L 24.503906 17.199219 L 24.875 18.386719 C 24.957031 18.675781 25.164062 18.878906 25.449219 18.960938 C 25.738281 19.042969 26.027344 18.960938 26.230469 18.757812 L 30.179688 14.820312 C 30.507812 14.492188 30.507812 14 30.179688 13.671875 C 29.851562 13.34375 29.355469 13.34375 29.027344 13.671875 L 26.027344 16.664062 L 25.65625 15.476562 C 25.574219 15.1875 25.367188 14.984375 25.082031 14.902344 C 24.792969 14.820312 24.503906 14.902344 24.300781 15.105469 C 24.300781 15.105469 20.804688 18.59375 20.804688 18.59375 C 20.269531 19.085938 20.640625 19.988281 21.378906 19.988281 Z M 21.378906 19.988281 " fill-opacity="1" fill-rule="nonzero"/><path fill="#ffffff" d="M 45.882812 30.488281 L 41.9375 34.425781 C 41.730469 34.628906 41.648438 34.917969 41.730469 35.203125 C 41.8125 35.492188 42.019531 35.695312 42.308594 35.777344 L 43.5 36.148438 L 40.949219 38.691406 C 40.621094 39.019531 40.621094 39.511719 40.949219 39.839844 C 41.28125 40.167969 41.8125 40.167969 42.101562 39.839844 L 45.597656 36.351562 C 45.800781 36.148438 45.882812 35.859375 45.800781 35.574219 C 45.71875 35.285156 45.515625 35.082031 45.226562 35 L 44.035156 34.628906 L 47.035156 31.636719 C 47.363281 31.308594 47.363281 30.816406 47.035156 30.488281 C 46.707031 30.160156 46.214844 30.160156 45.882812 30.488281 Z M 45.882812 30.488281 " fill-opacity="1" fill-rule="nonzero"/><path fill="#ffffff" d="M 53.492188 16.582031 C 53.367188 15.804688 52.667969 15.148438 51.804688 15.023438 L 48.1875 14.449219 C 48.105469 14.449219 48.0625 14.410156 48.023438 14.410156 C 47.527344 14.65625 46.996094 14.820312 46.417969 14.941406 C 46.664062 15.558594 47.242188 15.96875 47.941406 16.089844 L 51.558594 16.664062 C 51.722656 16.707031 51.847656 16.789062 51.847656 16.828125 L 52.460938 20.808594 L 37.949219 20.808594 L 38.566406 16.828125 C 38.566406 16.789062 38.648438 16.707031 38.855469 16.664062 L 42.472656 16.089844 C 43.171875 15.96875 43.746094 15.558594 43.992188 14.941406 C 43.417969 14.820312 42.882812 14.65625 42.390625 14.410156 C 42.347656 14.449219 42.308594 14.449219 42.226562 14.449219 L 38.648438 15.066406 C 37.785156 15.1875 37.085938 15.804688 36.960938 16.582031 L 36.179688 21.503906 C 36.140625 21.75 36.222656 21.996094 36.386719 22.160156 C 36.550781 22.324219 36.757812 22.449219 37.003906 22.449219 L 53.449219 22.449219 C 53.695312 22.449219 53.902344 22.324219 54.066406 22.160156 C 54.230469 21.996094 54.273438 21.75 54.273438 21.503906 Z M 53.492188 16.582031 " fill-opacity="1" fill-rule="nonzero"/><g clip-path="url(#e21a45f424)"><path fill="#ffffff" d="M 45.226562 13.425781 C 47.941406 13.425781 50.160156 11.210938 50.160156 8.503906 C 50.160156 5.796875 47.941406 3.582031 45.226562 3.582031 C 42.511719 3.582031 40.292969 5.796875 40.292969 8.503906 C 40.292969 11.210938 42.511719 13.425781 45.226562 13.425781 Z M 45.226562 13.425781 " fill-opacity="1" fill-rule="nonzero"/></g><path fill="#ffffff" d="M 35.152344 17.527344 C 35.03125 16.871094 34.949219 16.171875 34.949219 15.476562 C 34.949219 12.277344 36.429688 9.40625 38.730469 7.558594 C 38.855469 6.617188 39.222656 5.714844 39.71875 4.933594 C 35.894531 6.945312 33.304688 10.882812 33.304688 15.476562 C 33.304688 17.445312 33.796875 19.25 34.621094 20.890625 Z M 35.152344 17.527344 " fill-opacity="1" fill-rule="nonzero"/><g clip-path="url(#76b4d26cd4)"><path fill="#ffffff" d="M 50.734375 4.933594 C 51.230469 5.714844 51.597656 6.574219 51.722656 7.519531 C 54.023438 9.40625 55.503906 12.277344 55.503906 15.476562 C 55.503906 16.171875 55.421875 16.871094 55.300781 17.527344 L 55.832031 20.890625 C 56.65625 19.25 57.148438 17.402344 57.148438 15.476562 C 57.148438 10.882812 54.558594 6.902344 50.734375 4.933594 Z M 50.734375 4.933594 " fill-opacity="1" fill-rule="nonzero"/></g><path fill="#ffffff" d="M 45.226562 25.730469 C 43.171875 25.730469 41.28125 25.113281 39.675781 24.089844 L 37.003906 24.089844 C 39.140625 26.097656 42.019531 27.371094 45.226562 27.371094 C 48.433594 27.371094 51.3125 26.140625 53.449219 24.089844 L 50.816406 24.089844 C 49.171875 25.113281 47.28125 25.730469 45.226562 25.730469 Z M 45.226562 25.730469 " fill-opacity="1" fill-rule="nonzero"/></svg>