<svg xmlns="http://www.w3.org/2000/svg" xmlns:xlink="http://www.w3.org/1999/xlink" width="70" zoomAndPan="magnify" viewBox="0 0 52.5 52.499999" height="70" preserveAspectRatio="xMidYMid meet" version="1.0"><defs><clipPath id="4ccef490f6"><path d="M 4.75 5.472656 L 47.5 5.472656 L 47.5 46.722656 L 4.75 46.722656 Z M 4.75 5.472656 " clip-rule="nonzero"/></clipPath><clipPath id="18a807eff9"><path d="M 29 5.472656 L 32 5.472656 L 32 9 L 29 9 Z M 29 5.472656 " clip-rule="nonzero"/></clipPath></defs><g clip-path="url(#4ccef490f6)"><path fill="#6630e0" d="M 47.066406 14.667969 L 47.363281 13.019531 C 47.398438 12.820312 47.394531 12.621094 47.351562 12.421875 C 47.308594 12.222656 47.230469 12.039062 47.113281 11.871094 C 46.996094 11.703125 46.855469 11.566406 46.683594 11.457031 C 46.511719 11.34375 46.324219 11.273438 46.125 11.234375 C 44.742188 10.71875 40.453125 11.144531 36.601562 7.304688 C 36.613281 7.109375 36.589844 6.917969 36.53125 6.734375 C 36.46875 6.550781 36.375 6.382812 36.246094 6.238281 C 36.117188 6.089844 35.96875 5.972656 35.792969 5.886719 C 35.621094 5.796875 35.4375 5.746094 35.242188 5.734375 C 35.046875 5.71875 34.859375 5.742188 34.671875 5.804688 C 34.488281 5.867188 34.320312 5.960938 34.175781 6.085938 C 34.027344 6.214844 33.910156 6.363281 33.824219 6.539062 C 33.734375 6.710938 33.683594 6.898438 33.671875 7.089844 L 33.394531 8.71875 C 32.777344 8.890625 32.25 9.214844 31.816406 9.683594 C 31.382812 10.15625 31.105469 10.707031 30.984375 11.339844 C 30.863281 12.015625 30.941406 12.664062 31.222656 13.292969 L 23.871094 13.292969 L 23.871094 6.152344 C 23.871094 6 23.816406 5.871094 23.710938 5.761719 C 23.601562 5.65625 23.472656 5.601562 23.320312 5.601562 L 8.769531 5.601562 C 8.621094 5.601562 8.488281 5.65625 8.382812 5.761719 C 8.273438 5.871094 8.222656 6 8.222656 6.152344 L 8.222656 13.304688 L 7.347656 13.304688 C 7 13.304688 6.671875 13.371094 6.351562 13.503906 C 6.035156 13.636719 5.753906 13.824219 5.511719 14.066406 C 5.265625 14.308594 5.078125 14.589844 4.949219 14.90625 C 4.816406 15.226562 4.75 15.554688 4.75 15.898438 L 4.75 38.800781 C 4.75 39.144531 4.816406 39.476562 4.949219 39.792969 C 5.078125 40.109375 5.265625 40.390625 5.511719 40.632812 C 5.753906 40.878906 6.035156 41.066406 6.351562 41.195312 C 6.671875 41.328125 7 41.394531 7.347656 41.394531 L 20.699219 41.394531 L 20.699219 45.601562 L 17.734375 45.601562 C 17.582031 45.601562 17.453125 45.65625 17.347656 45.761719 C 17.238281 45.871094 17.183594 46 17.183594 46.152344 C 17.183594 46.300781 17.238281 46.433594 17.347656 46.539062 C 17.453125 46.644531 17.582031 46.699219 17.734375 46.699219 L 34.445312 46.699219 C 34.597656 46.699219 34.726562 46.644531 34.835938 46.539062 C 34.941406 46.433594 34.996094 46.300781 34.996094 46.152344 C 34.996094 46 34.941406 45.871094 34.835938 45.761719 C 34.726562 45.65625 34.597656 45.601562 34.445312 45.601562 L 31.484375 45.601562 L 31.484375 41.394531 L 44.792969 41.394531 C 45.136719 41.394531 45.46875 41.328125 45.785156 41.195312 C 46.101562 41.066406 46.382812 40.878906 46.628906 40.632812 C 46.871094 40.390625 47.058594 40.109375 47.191406 39.792969 C 47.320312 39.476562 47.386719 39.144531 47.390625 38.800781 L 47.390625 15.898438 C 47.386719 15.460938 47.28125 15.050781 47.066406 14.667969 Z M 46.277344 12.835938 L 45.851562 15.28125 C 45.828125 15.402344 45.769531 15.492188 45.667969 15.5625 C 45.570312 15.628906 45.460938 15.652344 45.339844 15.628906 L 42.65625 15.148438 L 43.253906 11.835938 L 45.941406 12.320312 C 46.058594 12.34375 46.148438 12.402344 46.214844 12.5 C 46.28125 12.601562 46.300781 12.707031 46.277344 12.824219 Z M 43.503906 16.433594 L 42.972656 18.261719 L 41.730469 18.058594 L 42.371094 16.230469 Z M 41.5625 14.96875 C 39.34375 14.726562 37.191406 15 35.105469 15.792969 C 35.238281 15.0625 34.628906 18.449219 36.394531 8.621094 C 38.074219 10.085938 39.996094 11.085938 42.160156 11.628906 Z M 35.195312 6.980469 C 35.296875 6.996094 35.375 7.046875 35.4375 7.132812 C 35.496094 7.21875 35.515625 7.3125 35.496094 7.414062 L 33.84375 16.613281 C 33.824219 16.714844 33.773438 16.792969 33.6875 16.851562 C 33.605469 16.910156 33.511719 16.929688 33.410156 16.910156 C 33.308594 16.894531 33.226562 16.84375 33.167969 16.757812 C 33.109375 16.671875 33.089844 16.578125 33.109375 16.476562 C 34.496094 8.777344 32.625 19.160156 34.761719 7.285156 C 34.777344 7.183594 34.828125 7.101562 34.914062 7.039062 C 35 6.980469 35.089844 6.960938 35.195312 6.980469 Z M 32.070312 11.546875 C 32.195312 10.859375 32.5625 10.339844 33.167969 9.992188 L 32.558594 13.378906 C 32.105469 12.84375 31.945312 12.234375 32.070312 11.546875 Z M 9.320312 6.699219 L 22.773438 6.699219 L 22.773438 17.125 L 9.320312 17.125 Z M 7.347656 14.402344 L 8.222656 14.402344 L 8.222656 17.675781 C 8.222656 17.824219 8.273438 17.957031 8.382812 18.0625 C 8.488281 18.167969 8.621094 18.222656 8.769531 18.222656 L 23.3125 18.222656 C 23.464844 18.222656 23.59375 18.167969 23.703125 18.0625 C 23.808594 17.957031 23.863281 17.824219 23.863281 17.675781 L 23.863281 14.402344 L 32.023438 14.402344 C 32.117188 14.492188 32.210938 14.574219 32.316406 14.65625 L 32.023438 16.289062 C 31.972656 16.476562 31.957031 16.667969 31.976562 16.859375 C 32 17.054688 32.058594 17.238281 32.15625 17.40625 C 32.25 17.578125 32.375 17.722656 32.527344 17.84375 C 32.679688 17.964844 32.851562 18.054688 33.039062 18.105469 C 33.226562 18.160156 33.417969 18.175781 33.613281 18.152344 C 33.804688 18.132812 33.988281 18.074219 34.160156 17.980469 C 34.328125 17.882812 34.476562 17.761719 34.597656 17.605469 C 34.71875 17.453125 34.808594 17.285156 34.859375 17.097656 C 36.910156 16.1875 39.050781 15.835938 41.285156 16.042969 L 40.476562 18.289062 C 40.417969 18.449219 40.429688 18.605469 40.515625 18.753906 C 40.605469 18.90625 40.734375 18.992188 40.90625 19.019531 C 43.058594 19.386719 43.289062 19.414062 43.359375 19.414062 C 43.632812 19.414062 43.808594 19.285156 43.886719 19.019531 L 44.597656 16.628906 L 45.136719 16.726562 C 45.554688 16.800781 45.9375 16.71875 46.285156 16.476562 L 46.285156 34.816406 L 5.847656 34.816406 L 5.847656 15.898438 C 5.847656 15.703125 5.886719 15.511719 5.960938 15.328125 C 6.039062 15.144531 6.144531 14.980469 6.285156 14.84375 C 6.425781 14.703125 6.589844 14.59375 6.773438 14.515625 C 6.957031 14.441406 7.148438 14.402344 7.347656 14.402344 Z M 30.382812 45.601562 L 21.796875 45.601562 L 21.796875 41.394531 L 30.382812 41.394531 Z M 44.792969 40.296875 L 7.347656 40.296875 C 7.148438 40.296875 6.957031 40.257812 6.773438 40.183594 C 6.589844 40.109375 6.425781 40 6.285156 39.859375 C 6.144531 39.71875 6.039062 39.558594 5.960938 39.375 C 5.886719 39.191406 5.847656 39 5.847656 38.800781 L 5.847656 35.914062 L 46.289062 35.914062 L 46.289062 38.800781 C 46.289062 39 46.25 39.191406 46.175781 39.375 C 46.101562 39.558594 45.992188 39.71875 45.851562 39.859375 C 45.710938 40 45.546875 40.109375 45.363281 40.183594 C 45.179688 40.257812 44.992188 40.296875 44.792969 40.296875 Z M 44.792969 40.296875 " fill-opacity="1" fill-rule="nonzero"/></g><path fill="#6630e0" d="M 27.824219 37.628906 L 24.3125 37.628906 C 24.164062 37.628906 24.03125 37.683594 23.925781 37.792969 C 23.816406 37.898438 23.765625 38.027344 23.765625 38.179688 C 23.765625 38.332031 23.816406 38.460938 23.925781 38.566406 C 24.03125 38.675781 24.164062 38.726562 24.3125 38.726562 L 27.824219 38.726562 C 27.976562 38.726562 28.105469 38.675781 28.210938 38.566406 C 28.320312 38.460938 28.371094 38.332031 28.371094 38.179688 C 28.371094 38.027344 28.320312 37.898438 28.210938 37.792969 C 28.105469 37.683594 27.976562 37.628906 27.824219 37.628906 Z M 27.824219 37.628906 " fill-opacity="1" fill-rule="nonzero"/><path fill="#6630e0" d="M 27.015625 11.339844 L 28.84375 11.667969 C 28.996094 11.695312 29.136719 11.664062 29.261719 11.574219 C 29.386719 11.488281 29.464844 11.367188 29.492188 11.214844 C 29.519531 11.0625 29.488281 10.925781 29.398438 10.800781 C 29.3125 10.671875 29.191406 10.597656 29.039062 10.570312 L 27.207031 10.242188 C 27.058594 10.21875 26.917969 10.25 26.792969 10.335938 C 26.667969 10.425781 26.589844 10.542969 26.5625 10.695312 C 26.539062 10.84375 26.566406 10.984375 26.65625 11.109375 C 26.742188 11.234375 26.863281 11.3125 27.015625 11.339844 Z M 27.015625 11.339844 " fill-opacity="1" fill-rule="nonzero"/><g clip-path="url(#18a807eff9)"><path fill="#6630e0" d="M 30.648438 7.890625 C 30.734375 8.019531 30.855469 8.09375 31.003906 8.121094 C 31.15625 8.148438 31.292969 8.121094 31.421875 8.035156 C 31.546875 7.945312 31.625 7.828125 31.652344 7.679688 C 31.679688 7.527344 31.652344 7.390625 31.5625 7.261719 L 30.496094 5.738281 C 30.410156 5.609375 30.292969 5.535156 30.140625 5.507812 C 29.992188 5.480469 29.855469 5.507812 29.726562 5.59375 C 29.601562 5.679688 29.527344 5.800781 29.496094 5.949219 C 29.46875 6.097656 29.5 6.238281 29.585938 6.363281 Z M 30.648438 7.890625 " fill-opacity="1" fill-rule="nonzero"/></g><path fill="#6630e0" d="M 28.714844 16.65625 L 30.242188 15.597656 C 30.367188 15.511719 30.441406 15.390625 30.46875 15.242188 C 30.496094 15.09375 30.464844 14.957031 30.378906 14.832031 C 30.292969 14.707031 30.175781 14.632812 30.027344 14.605469 C 29.875 14.578125 29.738281 14.605469 29.613281 14.691406 L 28.085938 15.757812 C 27.953125 15.839844 27.871094 15.957031 27.839844 16.113281 C 27.808594 16.265625 27.835938 16.40625 27.925781 16.535156 C 28.015625 16.664062 28.136719 16.742188 28.292969 16.765625 C 28.449219 16.789062 28.589844 16.753906 28.714844 16.65625 Z M 28.714844 16.65625 " fill-opacity="1" fill-rule="nonzero"/><path fill="#6630e0" d="M 13.648438 15.027344 C 13.878906 15.164062 14.132812 15.234375 14.402344 15.238281 C 14.671875 15.238281 14.925781 15.175781 15.164062 15.042969 L 18.40625 13.246094 C 18.648438 13.113281 18.839844 12.925781 18.980469 12.6875 C 19.121094 12.449219 19.191406 12.191406 19.191406 11.914062 C 19.191406 11.636719 19.121094 11.378906 18.980469 11.140625 C 18.839844 10.902344 18.648438 10.714844 18.40625 10.582031 L 15.164062 8.777344 C 14.925781 8.640625 14.671875 8.574219 14.398438 8.574219 C 14.125 8.578125 13.867188 8.648438 13.632812 8.785156 C 13.398438 8.921875 13.210938 9.113281 13.078125 9.347656 C 12.941406 9.585938 12.878906 9.84375 12.882812 10.117188 L 12.882812 13.707031 C 12.878906 13.980469 12.949219 14.234375 13.085938 14.46875 C 13.222656 14.707031 13.410156 14.890625 13.648438 15.027344 Z M 13.980469 10.117188 C 13.980469 10.039062 14 9.972656 14.039062 9.90625 C 14.074219 9.839844 14.128906 9.789062 14.191406 9.753906 C 14.257812 9.714844 14.328125 9.695312 14.402344 9.695312 C 14.476562 9.695312 14.546875 9.714844 14.613281 9.75 L 17.855469 11.546875 C 17.917969 11.585938 17.96875 11.636719 18.007812 11.703125 C 18.042969 11.769531 18.0625 11.835938 18.0625 11.914062 C 18.0625 11.988281 18.042969 12.058594 18.007812 12.121094 C 17.96875 12.1875 17.917969 12.238281 17.855469 12.277344 L 14.613281 14.078125 C 14.546875 14.113281 14.476562 14.132812 14.402344 14.128906 C 14.328125 14.128906 14.257812 14.109375 14.195312 14.074219 C 14.128906 14.035156 14.078125 13.984375 14.039062 13.921875 C 14 13.855469 13.980469 13.785156 13.980469 13.710938 Z M 13.980469 10.117188 " fill-opacity="1" fill-rule="nonzero"/><path fill="#6630e0" d="M 8.222656 20.273438 L 8.222656 31.613281 C 8.222656 31.765625 8.273438 31.894531 8.382812 32 C 8.488281 32.109375 8.621094 32.160156 8.769531 32.160156 L 26.070312 32.160156 C 26.21875 32.160156 26.351562 32.109375 26.457031 32 C 26.566406 31.894531 26.617188 31.765625 26.617188 31.613281 L 26.617188 20.273438 C 26.621094 20.117188 26.570312 19.984375 26.460938 19.875 C 26.355469 19.765625 26.222656 19.714844 26.070312 19.714844 L 8.765625 19.714844 C 8.617188 19.714844 8.488281 19.769531 8.382812 19.878906 C 8.273438 19.984375 8.222656 20.113281 8.222656 20.265625 Z M 9.320312 31.046875 L 9.320312 21.277344 L 17.121094 26.398438 C 17.320312 26.527344 17.519531 26.527344 17.71875 26.398438 L 25.519531 21.277344 L 25.519531 31.046875 Z M 10.609375 20.800781 L 24.238281 20.800781 L 17.417969 25.273438 Z M 10.609375 20.800781 " fill-opacity="1" fill-rule="nonzero"/><path fill="#6630e0" d="M 28.347656 20.265625 L 28.347656 28.503906 C 28.347656 28.65625 28.402344 28.785156 28.507812 28.890625 C 28.617188 29 28.746094 29.050781 28.898438 29.050781 L 31.753906 29.050781 L 31.753906 31.613281 C 31.753906 31.765625 31.808594 31.894531 31.914062 32 C 32.023438 32.109375 32.152344 32.160156 32.304688 32.160156 L 44.175781 32.160156 C 44.328125 32.160156 44.457031 32.109375 44.566406 32 C 44.671875 31.894531 44.726562 31.765625 44.726562 31.613281 L 44.726562 23.355469 C 44.726562 23.203125 44.671875 23.074219 44.566406 22.96875 C 44.457031 22.859375 44.328125 22.808594 44.175781 22.808594 L 41.320312 22.808594 L 41.320312 20.246094 C 41.320312 20.09375 41.265625 19.964844 41.15625 19.859375 C 41.050781 19.75 40.921875 19.699219 40.769531 19.699219 L 28.898438 19.699219 C 28.742188 19.695312 28.609375 19.753906 28.5 19.863281 C 28.394531 19.976562 28.34375 20.109375 28.347656 20.265625 Z M 43.625 31.046875 L 32.851562 31.046875 L 32.851562 23.90625 L 43.625 23.90625 Z M 29.445312 20.800781 L 40.21875 20.800781 L 40.21875 22.796875 L 32.296875 22.796875 C 32.144531 22.796875 32.015625 22.847656 31.90625 22.957031 C 31.800781 23.0625 31.746094 23.191406 31.746094 23.34375 L 31.746094 27.953125 L 29.4375 27.953125 Z M 29.445312 20.800781 " fill-opacity="1" fill-rule="nonzero"/><path fill="#6630e0" d="M 34.464844 25.875 L 35.492188 25.875 C 35.640625 25.875 35.773438 25.824219 35.878906 25.714844 C 35.988281 25.609375 36.039062 25.480469 36.039062 25.328125 C 36.039062 25.175781 35.988281 25.046875 35.878906 24.9375 C 35.773438 24.832031 35.640625 24.777344 35.492188 24.777344 L 34.464844 24.777344 C 34.3125 24.777344 34.183594 24.832031 34.078125 24.9375 C 33.96875 25.046875 33.914062 25.175781 33.914062 25.328125 C 33.914062 25.480469 33.96875 25.609375 34.078125 25.714844 C 34.183594 25.824219 34.3125 25.875 34.464844 25.875 Z M 34.464844 25.875 " fill-opacity="1" fill-rule="nonzero"/><path fill="#6630e0" d="M 36.65625 25.328125 C 36.65625 25.480469 36.710938 25.609375 36.816406 25.714844 C 36.921875 25.824219 37.054688 25.875 37.203125 25.875 L 42.011719 25.875 C 42.164062 25.875 42.292969 25.824219 42.398438 25.714844 C 42.507812 25.609375 42.5625 25.480469 42.5625 25.328125 C 42.5625 25.175781 42.507812 25.046875 42.398438 24.9375 C 42.292969 24.832031 42.164062 24.777344 42.011719 24.777344 L 37.203125 24.777344 C 37.054688 24.777344 36.921875 24.832031 36.816406 24.9375 C 36.710938 25.046875 36.65625 25.175781 36.65625 25.328125 Z M 36.65625 25.328125 " fill-opacity="1" fill-rule="nonzero"/><path fill="#6630e0" d="M 35.492188 29.070312 L 34.464844 29.070312 C 34.3125 29.070312 34.183594 29.125 34.078125 29.230469 C 33.96875 29.335938 33.914062 29.46875 33.914062 29.617188 C 33.914062 29.769531 33.96875 29.898438 34.078125 30.007812 C 34.183594 30.113281 34.3125 30.167969 34.464844 30.167969 L 35.492188 30.167969 C 35.640625 30.167969 35.773438 30.113281 35.878906 30.007812 C 35.988281 29.898438 36.039062 29.769531 36.039062 29.617188 C 36.039062 29.46875 35.988281 29.335938 35.878906 29.230469 C 35.773438 29.125 35.640625 29.070312 35.492188 29.070312 Z M 35.492188 29.070312 " fill-opacity="1" fill-rule="nonzero"/><path fill="#6630e0" d="M 42.011719 29.070312 L 37.203125 29.070312 C 37.054688 29.070312 36.921875 29.125 36.816406 29.230469 C 36.710938 29.335938 36.65625 29.46875 36.65625 29.617188 C 36.65625 29.769531 36.710938 29.898438 36.816406 30.007812 C 36.921875 30.113281 37.054688 30.167969 37.203125 30.167969 L 42.011719 30.167969 C 42.164062 30.167969 42.292969 30.113281 42.398438 30.007812 C 42.507812 29.898438 42.5625 29.769531 42.5625 29.617188 C 42.5625 29.46875 42.507812 29.335938 42.398438 29.230469 C 42.292969 29.125 42.164062 29.070312 42.011719 29.070312 Z M 42.011719 29.070312 " fill-opacity="1" fill-rule="nonzero"/><path fill="#6630e0" d="M 42.011719 26.925781 L 40.988281 26.925781 C 40.835938 26.925781 40.707031 26.980469 40.601562 27.085938 C 40.492188 27.195312 40.441406 27.324219 40.441406 27.476562 C 40.441406 27.625 40.492188 27.753906 40.601562 27.863281 C 40.707031 27.96875 40.835938 28.023438 40.988281 28.023438 L 42.011719 28.023438 C 42.164062 28.023438 42.292969 27.96875 42.398438 27.863281 C 42.507812 27.753906 42.5625 27.625 42.5625 27.476562 C 42.5625 27.324219 42.507812 27.195312 42.398438 27.085938 C 42.292969 26.980469 42.164062 26.925781 42.011719 26.925781 Z M 42.011719 26.925781 " fill-opacity="1" fill-rule="nonzero"/><path fill="#6630e0" d="M 34.464844 28.023438 L 39.273438 28.023438 C 39.425781 28.023438 39.554688 27.96875 39.664062 27.863281 C 39.769531 27.753906 39.824219 27.625 39.824219 27.476562 C 39.824219 27.324219 39.769531 27.195312 39.664062 27.085938 C 39.554688 26.980469 39.425781 26.925781 39.273438 26.925781 L 34.464844 26.925781 C 34.3125 26.925781 34.183594 26.980469 34.078125 27.085938 C 33.96875 27.195312 33.914062 27.324219 33.914062 27.476562 C 33.914062 27.625 33.96875 27.753906 34.078125 27.863281 C 34.183594 27.96875 34.3125 28.023438 34.464844 28.023438 Z M 34.464844 28.023438 " fill-opacity="1" fill-rule="nonzero"/></svg>