<svg xmlns="http://www.w3.org/2000/svg" xmlns:xlink="http://www.w3.org/1999/xlink" width="75" zoomAndPan="magnify" viewBox="0 0 56.25 56.249997" height="75" preserveAspectRatio="xMidYMid meet" version="1.0"><defs><clipPath id="200a708866"><path d="M 0 43 L 27 43 L 27 55.511719 L 0 55.511719 Z M 0 43 " clip-rule="nonzero"/></clipPath><clipPath id="fcfcd8c7fb"><path d="M 28 43 L 55.511719 43 L 55.511719 55.511719 L 28 55.511719 Z M 28 43 " clip-rule="nonzero"/></clipPath><clipPath id="56462bab46"><path d="M 28 15 L 55.511719 15 L 55.511719 28 L 28 28 Z M 28 15 " clip-rule="nonzero"/></clipPath><clipPath id="856c3e6170"><path d="M 42 29 L 55.511719 29 L 55.511719 42 L 42 42 Z M 42 29 " clip-rule="nonzero"/></clipPath></defs><path fill="#f7993e" d="M 5.753906 2.292969 C 5.753906 2.53125 5.667969 2.734375 5.5 2.90625 C 5.332031 3.074219 5.128906 3.160156 4.890625 3.160156 C 4.648438 3.160156 4.445312 3.074219 4.277344 2.90625 C 4.109375 2.734375 4.023438 2.53125 4.023438 2.292969 C 4.023438 2.054688 4.109375 1.851562 4.277344 1.679688 C 4.445312 1.511719 4.648438 1.429688 4.890625 1.429688 C 5.128906 1.429688 5.332031 1.511719 5.5 1.679688 C 5.667969 1.851562 5.753906 2.054688 5.753906 2.292969 Z M 5.753906 2.292969 " fill-opacity="1" fill-rule="nonzero"/><g clip-path="url(#200a708866)"><path fill="#f7993e" d="M 26.953125 52.914062 L 26.953125 45.992188 C 26.953125 44.5625 25.785156 43.394531 24.359375 43.394531 L 2.726562 43.394531 C 1.296875 43.394531 0.128906 44.5625 0.128906 45.992188 L 0.128906 52.914062 C 0.128906 54.339844 1.296875 55.511719 2.726562 55.511719 L 24.359375 55.511719 C 25.785156 55.511719 26.953125 54.339844 26.953125 52.914062 Z M 12.675781 53.777344 L 2.726562 53.777344 C 2.25 53.777344 1.859375 53.390625 1.859375 52.914062 L 1.859375 45.992188 C 1.859375 45.515625 2.25 45.125 2.726562 45.125 L 12.675781 45.125 Z M 14.40625 45.125 L 24.359375 45.125 C 24.835938 45.125 25.222656 45.515625 25.222656 45.992188 L 25.222656 52.914062 C 25.222656 53.390625 24.835938 53.777344 24.359375 53.777344 L 14.40625 53.777344 Z M 14.40625 45.125 " fill-opacity="1" fill-rule="nonzero"/></g><g clip-path="url(#fcfcd8c7fb)"><path fill="#f7993e" d="M 52.914062 43.394531 L 31.28125 43.394531 C 29.851562 43.394531 28.683594 44.5625 28.683594 45.992188 L 28.683594 52.914062 C 28.683594 54.339844 29.851562 55.511719 31.28125 55.511719 L 52.914062 55.511719 C 54.339844 55.511719 55.511719 54.339844 55.511719 52.914062 L 55.511719 45.992188 C 55.511719 44.5625 54.339844 43.394531 52.914062 43.394531 Z M 41.230469 53.777344 L 31.28125 53.777344 C 30.804688 53.777344 30.414062 53.390625 30.414062 52.914062 L 30.414062 45.992188 C 30.414062 45.515625 30.804688 45.125 31.28125 45.125 L 41.230469 45.125 Z M 53.777344 52.914062 C 53.777344 53.390625 53.390625 53.777344 52.914062 53.777344 L 42.960938 53.777344 L 42.960938 45.125 L 52.914062 45.125 C 53.390625 45.125 53.777344 45.515625 53.777344 45.992188 Z M 53.777344 52.914062 " fill-opacity="1" fill-rule="nonzero"/></g><path fill="#f7993e" d="M 41.230469 39.070312 L 41.230469 32.144531 C 41.230469 30.71875 40.0625 29.550781 38.636719 29.550781 L 17.003906 29.550781 C 15.574219 29.550781 14.40625 30.71875 14.40625 32.144531 L 14.40625 39.070312 C 14.40625 40.496094 15.574219 41.664062 17.003906 41.664062 L 38.636719 41.664062 C 40.0625 41.664062 41.230469 40.496094 41.230469 39.070312 Z M 26.953125 39.933594 L 17.003906 39.933594 C 16.527344 39.933594 16.136719 39.542969 16.136719 39.070312 L 16.136719 32.144531 C 16.136719 31.671875 16.527344 31.28125 17.003906 31.28125 L 26.953125 31.28125 Z M 28.683594 31.28125 L 38.636719 31.28125 C 39.113281 31.28125 39.5 31.671875 39.5 32.144531 L 39.5 39.070312 C 39.5 39.542969 39.113281 39.933594 38.636719 39.933594 L 28.683594 39.933594 Z M 28.683594 31.28125 " fill-opacity="1" fill-rule="nonzero"/><g clip-path="url(#56462bab46)"><path fill="#f7993e" d="M 52.914062 15.707031 L 31.28125 15.707031 C 29.851562 15.707031 28.683594 16.875 28.683594 18.300781 L 28.683594 25.222656 C 28.683594 26.652344 29.851562 27.820312 31.28125 27.820312 L 52.914062 27.820312 C 54.339844 27.820312 55.511719 26.652344 55.511719 25.222656 L 55.511719 18.300781 C 55.511719 16.875 54.339844 15.707031 52.914062 15.707031 Z M 41.230469 26.089844 L 31.28125 26.089844 C 30.804688 26.089844 30.414062 25.699219 30.414062 25.222656 L 30.414062 18.300781 C 30.414062 17.824219 30.804688 17.4375 31.28125 17.4375 L 41.230469 17.4375 Z M 53.777344 25.222656 C 53.777344 25.699219 53.390625 26.089844 52.914062 26.089844 L 42.960938 26.089844 L 42.960938 17.4375 L 52.914062 17.4375 C 53.390625 17.4375 53.777344 17.824219 53.777344 18.300781 Z M 53.777344 25.222656 " fill-opacity="1" fill-rule="nonzero"/></g><g clip-path="url(#856c3e6170)"><path fill="#f7993e" d="M 45.644531 31.28125 L 54.644531 31.28125 C 55.121094 31.28125 55.511719 30.890625 55.511719 30.414062 C 55.511719 29.941406 55.121094 29.550781 54.644531 29.550781 L 45.644531 29.550781 C 44.175781 29.550781 42.960938 30.71875 42.960938 32.144531 L 42.960938 39.070312 C 42.960938 40.496094 44.175781 41.664062 45.644531 41.664062 L 54.644531 41.664062 C 55.121094 41.664062 55.511719 41.277344 55.511719 40.800781 C 55.511719 40.324219 55.121094 39.933594 54.644531 39.933594 L 45.644531 39.933594 C 45.125 39.933594 44.695312 39.542969 44.695312 39.070312 L 44.695312 32.144531 C 44.695312 31.671875 45.125 31.28125 45.644531 31.28125 Z M 45.644531 31.28125 " fill-opacity="1" fill-rule="nonzero"/></g><path fill="#f7993e" d="M 25.960938 16.269531 L 26.046875 16.136719 C 26.132812 15.964844 26.132812 15.75 26.089844 15.574219 L 24.746094 9.648438 C 24.703125 9.386719 24.53125 9.214844 24.316406 9.085938 L 18.257812 5.796875 C 18.34375 5.582031 18.386719 5.320312 18.257812 5.0625 L 16.355469 0.734375 C 16.179688 0.347656 15.835938 0.128906 15.445312 0.128906 C 15.316406 0.128906 15.1875 0.171875 15.054688 0.214844 L 3.980469 5.0625 L 1.773438 0.605469 C 1.558594 0.171875 1.039062 0 0.605469 0.214844 C 0.171875 0.433594 0 0.953125 0.214844 1.382812 L 2.378906 5.753906 L 1.558594 6.101562 C 1.082031 6.316406 0.867188 6.835938 1.039062 7.3125 L 2.941406 11.636719 C 3.113281 12.027344 3.460938 12.246094 3.851562 12.246094 C 3.9375 12.246094 3.980469 12.246094 4.066406 12.199219 L 4.457031 14.148438 C 4.542969 14.539062 4.890625 14.839844 5.320312 14.839844 L 18.734375 14.839844 L 19.382812 15.707031 L 2.726562 15.707031 C 1.296875 15.707031 0.128906 16.875 0.128906 18.300781 L 0.128906 25.222656 C 0.128906 26.652344 1.296875 27.820312 2.726562 27.820312 L 24.359375 27.820312 C 25.785156 27.820312 26.953125 26.652344 26.953125 25.222656 L 26.953125 18.300781 C 26.953125 17.480469 26.566406 16.742188 25.960938 16.269531 Z M 4.238281 10.296875 L 2.984375 7.398438 L 3.765625 7.050781 C 3.851562 7.050781 3.894531 7.007812 3.980469 6.964844 C 4.023438 6.964844 4.066406 6.921875 4.066406 6.921875 L 15.054688 2.078125 L 16.3125 4.976562 Z M 19.167969 13.109375 L 6.015625 13.109375 L 5.667969 11.550781 L 16.441406 6.835938 L 23.0625 10.425781 L 24.273438 15.707031 L 21.546875 21.417969 C 21.375 21.71875 21.070312 21.890625 20.722656 21.761719 C 20.378906 21.632812 20.203125 21.285156 20.25 20.941406 L 21.328125 15.921875 C 21.375 15.664062 21.328125 15.445312 21.199219 15.230469 L 19.902344 13.457031 C 19.6875 13.238281 19.425781 13.109375 19.167969 13.109375 Z M 12.675781 26.089844 L 2.726562 26.089844 C 2.25 26.089844 1.859375 25.699219 1.859375 25.222656 L 1.859375 18.300781 C 1.859375 17.824219 2.25 17.4375 2.726562 17.4375 L 12.675781 17.4375 Z M 25.222656 25.222656 C 25.222656 25.699219 24.835938 26.089844 24.359375 26.089844 L 14.40625 26.089844 L 14.40625 17.4375 L 19.253906 17.4375 L 18.605469 20.550781 C 18.34375 21.761719 19.035156 22.972656 20.203125 23.363281 C 20.464844 23.449219 20.722656 23.492188 20.941406 23.492188 C 21.847656 23.492188 22.714844 22.972656 23.105469 22.109375 L 25.09375 17.910156 C 25.136719 18.042969 25.179688 18.128906 25.179688 18.300781 L 25.179688 25.222656 Z M 25.222656 25.222656 " fill-opacity="1" fill-rule="nonzero"/></svg>