<svg xmlns="http://www.w3.org/2000/svg" xmlns:xlink="http://www.w3.org/1999/xlink" width="70" zoomAndPan="magnify" viewBox="0 0 52.5 52.499999" height="70" preserveAspectRatio="xMidYMid meet" version="1.0"><defs><clipPath id="d552266fb5"><path d="M 16.269531 6 L 34 6 L 34 30 L 16.269531 30 Z M 16.269531 6 " clip-rule="nonzero"/></clipPath><clipPath id="253f21eba4"><path d="M 16.269531 3.601562 L 34 3.601562 L 34 8 L 16.269531 8 Z M 16.269531 3.601562 " clip-rule="nonzero"/></clipPath><clipPath id="541dcf5e80"><path d="M 16.269531 28 L 34 28 L 34 32.101562 L 16.269531 32.101562 Z M 16.269531 28 " clip-rule="nonzero"/></clipPath></defs><g clip-path="url(#d552266fb5)"><path fill="#26b1d8" d="M 33.484375 29.207031 L 16.734375 29.207031 C 16.457031 29.207031 16.269531 29.019531 16.269531 28.734375 L 16.269531 6.964844 C 16.269531 6.679688 16.457031 6.492188 16.734375 6.492188 L 33.484375 6.492188 C 33.761719 6.492188 33.949219 6.679688 33.949219 6.964844 L 33.949219 10.75 C 33.949219 11.035156 33.761719 11.222656 33.484375 11.222656 C 33.203125 11.222656 33.019531 11.035156 33.019531 10.75 L 33.019531 7.4375 L 17.199219 7.4375 L 17.199219 28.261719 L 33.019531 28.261719 L 33.019531 27.316406 C 33.019531 27.03125 33.203125 26.839844 33.484375 26.839844 C 33.761719 26.839844 33.949219 27.03125 33.949219 27.316406 L 33.949219 28.734375 C 33.949219 29.019531 33.761719 29.207031 33.484375 29.207031 Z M 33.484375 29.207031 " fill-opacity="1" fill-rule="nonzero"/></g><g clip-path="url(#253f21eba4)"><path fill="#26b1d8" d="M 33.484375 7.4375 L 16.734375 7.4375 C 16.457031 7.4375 16.269531 7.25 16.269531 6.964844 L 16.269531 5.070312 C 16.269531 4.269531 16.875 3.652344 17.664062 3.652344 L 32.550781 3.652344 C 33.34375 3.652344 33.949219 4.269531 33.949219 5.070312 L 33.949219 6.964844 C 33.949219 7.25 33.761719 7.4375 33.484375 7.4375 Z M 17.199219 6.492188 L 33.019531 6.492188 L 33.019531 5.070312 C 33.019531 4.789062 32.832031 4.597656 32.550781 4.597656 L 17.664062 4.597656 C 17.386719 4.597656 17.199219 4.789062 17.199219 5.070312 Z M 17.199219 6.492188 " fill-opacity="1" fill-rule="nonzero"/></g><path fill="#26b1d8" d="M 26.039062 6.019531 L 24.179688 6.019531 C 23.898438 6.019531 23.714844 5.828125 23.714844 5.546875 C 23.714844 5.261719 23.898438 5.070312 24.179688 5.070312 L 26.039062 5.070312 C 26.316406 5.070312 26.503906 5.261719 26.503906 5.546875 C 26.503906 5.828125 26.316406 6.019531 26.039062 6.019531 Z M 26.039062 6.019531 " fill-opacity="1" fill-rule="nonzero"/><g clip-path="url(#541dcf5e80)"><path fill="#26b1d8" d="M 32.550781 32.046875 L 17.664062 32.046875 C 16.875 32.046875 16.269531 31.433594 16.269531 30.628906 L 16.269531 28.734375 C 16.269531 28.449219 16.457031 28.261719 16.734375 28.261719 L 33.484375 28.261719 C 33.761719 28.261719 33.949219 28.449219 33.949219 28.734375 L 33.949219 30.628906 C 33.949219 31.433594 33.34375 32.046875 32.550781 32.046875 Z M 17.199219 29.207031 L 17.199219 30.628906 C 17.199219 30.910156 17.386719 31.101562 17.664062 31.101562 L 32.550781 31.101562 C 32.832031 31.101562 33.019531 30.910156 33.019531 30.628906 L 33.019531 29.207031 Z M 17.199219 29.207031 " fill-opacity="1" fill-rule="nonzero"/></g><path fill="#26b1d8" d="M 26.039062 30.628906 L 24.179688 30.628906 C 23.898438 30.628906 23.714844 30.4375 23.714844 30.15625 C 23.714844 29.871094 23.898438 29.679688 24.179688 29.679688 L 26.039062 29.679688 C 26.316406 29.679688 26.503906 29.871094 26.503906 30.15625 C 26.503906 30.4375 26.316406 30.628906 26.039062 30.628906 Z M 26.039062 30.628906 " fill-opacity="1" fill-rule="nonzero"/><path fill="#26b1d8" d="M 30.832031 17.992188 C 30.132812 17.992188 29.527344 17.425781 29.433594 16.714844 L 29.25 14.820312 C 29.15625 14.0625 29.714844 13.355469 30.503906 13.257812 L 32.832031 13.023438 L 33.296875 17.753906 L 30.96875 17.992188 C 30.925781 17.992188 30.878906 17.992188 30.832031 17.992188 Z M 31.992188 14.0625 L 30.597656 14.207031 C 30.367188 14.253906 30.132812 14.441406 30.179688 14.726562 L 30.367188 16.621094 C 30.414062 16.855469 30.644531 17.046875 30.878906 17.046875 L 32.273438 16.902344 Z M 31.992188 14.0625 " fill-opacity="1" fill-rule="nonzero"/><path fill="#26b1d8" d="M 38.460938 19.601562 C 38.320312 19.601562 38.179688 19.601562 38.042969 19.554688 L 32.320312 17.707031 L 31.902344 13.308594 L 37.15625 10.371094 C 37.578125 10.136719 38.089844 10.136719 38.460938 10.371094 C 38.878906 10.609375 39.160156 11.035156 39.207031 11.507812 L 39.855469 18.085938 C 39.902344 18.558594 39.71875 19.03125 39.34375 19.316406 C 39.066406 19.460938 38.785156 19.601562 38.460938 19.601562 Z M 38.320312 18.605469 C 38.460938 18.65625 38.648438 18.605469 38.738281 18.511719 C 38.878906 18.417969 38.925781 18.277344 38.925781 18.085938 L 38.273438 11.507812 C 38.273438 11.367188 38.179688 11.222656 38.042969 11.128906 C 37.902344 11.035156 37.761719 11.035156 37.625 11.128906 L 32.925781 13.78125 L 33.25 16.902344 Z M 38.320312 18.605469 " fill-opacity="1" fill-rule="nonzero"/><path fill="#26b1d8" d="M 38.785156 16.714844 L 38.414062 12.929688 L 38.878906 12.882812 C 39.902344 12.785156 40.832031 13.542969 40.925781 14.585938 C 41.019531 15.625 40.273438 16.570312 39.25 16.667969 Z M 39.4375 13.921875 L 39.578125 15.53125 C 39.855469 15.339844 39.996094 15.011719 39.949219 14.679688 C 39.949219 14.347656 39.71875 14.0625 39.4375 13.921875 Z M 39.4375 13.921875 " fill-opacity="1" fill-rule="nonzero"/><path fill="#26b1d8" d="M 32.3125 17.378906 L 33.238281 17.285156 L 33.445312 19.40625 L 32.519531 19.5 Z M 32.3125 17.378906 " fill-opacity="1" fill-rule="nonzero"/><path fill="#26b1d8" d="M 34.210938 17.996094 L 35.136719 17.902344 L 35.265625 19.222656 L 34.339844 19.3125 Z M 34.210938 17.996094 " fill-opacity="1" fill-rule="nonzero"/><path fill="#26b1d8" d="M 24.179688 19.742188 C 21.621094 19.742188 19.527344 17.613281 19.527344 15.011719 C 19.527344 12.40625 21.621094 10.277344 24.179688 10.277344 C 26.738281 10.277344 28.832031 12.40625 28.832031 15.011719 C 28.832031 17.613281 26.738281 19.742188 24.179688 19.742188 Z M 24.179688 11.222656 C 22.132812 11.222656 20.457031 12.929688 20.457031 15.011719 C 20.457031 17.09375 22.132812 18.796875 24.179688 18.796875 C 26.226562 18.796875 27.898438 17.09375 27.898438 15.011719 C 27.898438 12.929688 26.226562 11.222656 24.179688 11.222656 Z M 24.179688 11.222656 " fill-opacity="1" fill-rule="nonzero"/><path fill="#26b1d8" d="M 30.226562 29.207031 L 19.527344 29.207031 C 19.246094 29.207031 19.0625 29.019531 19.0625 28.734375 L 19.0625 23.054688 C 19.0625 21.210938 20.503906 19.742188 22.316406 19.742188 L 24.644531 19.742188 C 26.597656 19.742188 28.410156 20.691406 29.574219 22.296875 C 29.714844 22.488281 29.667969 22.820312 29.480469 22.960938 C 29.296875 23.101562 28.96875 23.054688 28.832031 22.867188 C 27.855469 21.492188 26.273438 20.691406 24.644531 20.691406 L 22.316406 20.691406 C 21.015625 20.691406 19.992188 21.730469 19.992188 23.054688 L 19.992188 28.261719 L 29.761719 28.261719 L 29.761719 25.894531 C 29.761719 25.753906 29.761719 25.609375 29.761719 25.46875 C 29.761719 25.183594 29.945312 24.996094 30.179688 24.949219 C 30.457031 24.902344 30.644531 25.136719 30.691406 25.375 C 30.691406 25.5625 30.691406 25.707031 30.691406 25.894531 L 30.691406 28.734375 C 30.691406 29.019531 30.503906 29.207031 30.226562 29.207031 Z M 30.226562 29.207031 " fill-opacity="1" fill-rule="nonzero"/><path fill="#26b1d8" d="M 32.550781 25.894531 L 24.644531 25.894531 C 23.621094 25.894531 22.78125 25.042969 22.78125 24.003906 C 22.78125 22.960938 23.621094 22.109375 24.644531 22.109375 L 31.621094 22.109375 C 31.902344 22.109375 32.085938 21.921875 32.085938 21.636719 L 32.085938 20.214844 C 32.085938 19.410156 32.691406 18.796875 33.484375 18.796875 L 34.414062 18.796875 C 35.203125 18.796875 35.808594 19.410156 35.808594 20.214844 L 35.808594 22.582031 C 35.808594 24.429688 34.367188 25.894531 32.550781 25.894531 Z M 24.644531 23.054688 C 24.132812 23.054688 23.714844 23.480469 23.714844 24.003906 C 23.714844 24.523438 24.132812 24.949219 24.644531 24.949219 L 32.550781 24.949219 C 33.855469 24.949219 34.878906 23.90625 34.878906 22.582031 L 34.878906 20.214844 C 34.878906 19.933594 34.691406 19.742188 34.414062 19.742188 L 33.484375 19.742188 C 33.203125 19.742188 33.019531 19.933594 33.019531 20.214844 L 33.019531 21.636719 C 33.019531 22.441406 32.414062 23.054688 31.621094 23.054688 Z M 24.644531 23.054688 " fill-opacity="1" fill-rule="nonzero"/></svg>