<svg xmlns="http://www.w3.org/2000/svg" xmlns:xlink="http://www.w3.org/1999/xlink" width="70" zoomAndPan="magnify" viewBox="0 0 52.5 52.499999" height="70" preserveAspectRatio="xMidYMid meet" version="1.0"><defs><clipPath id="f11c4da24e"><path d="M 20 20 L 47.25 20 L 47.25 47.25 L 20 47.25 Z M 20 20 " clip-rule="nonzero"/></clipPath><clipPath id="317823fee0"><path d="M 5.25 5.25 L 42 5.25 L 42 42 L 5.25 42 Z M 5.25 5.25 " clip-rule="nonzero"/></clipPath></defs><g clip-path="url(#f11c4da24e)"><path fill="#fb4754" d="M 46.910156 36.039062 L 43.21875 31.960938 L 40.523438 24.957031 C 40.378906 24.574219 40.097656 24.371094 39.6875 24.347656 C 33.738281 24.023438 24.148438 22.800781 22.113281 20.765625 C 22.023438 20.675781 21.921875 20.601562 21.804688 20.554688 C 21.6875 20.503906 21.566406 20.476562 21.4375 20.476562 C 21.308594 20.472656 21.1875 20.496094 21.066406 20.546875 C 20.949219 20.59375 20.84375 20.664062 20.753906 20.753906 C 20.664062 20.84375 20.59375 20.949219 20.546875 21.066406 C 20.5 21.183594 20.476562 21.308594 20.476562 21.4375 C 20.476562 21.5625 20.503906 21.6875 20.554688 21.804688 C 20.605469 21.921875 20.675781 22.023438 20.765625 22.113281 C 22.800781 24.148438 24.023438 33.738281 24.347656 39.6875 C 24.371094 40.097656 24.574219 40.375 24.957031 40.523438 L 31.960938 43.21875 L 36.039062 46.90625 C 36.230469 47.078125 36.449219 47.160156 36.703125 47.152344 C 36.957031 47.148438 37.171875 47.054688 37.351562 46.875 L 46.875 37.351562 C 47.054688 37.171875 47.148438 36.957031 47.15625 36.703125 C 47.160156 36.449219 47.078125 36.226562 46.910156 36.039062 Z M 24.335938 25.679688 L 29.34375 30.683594 L 29.367188 30.660156 C 29.164062 31.054688 29.0625 31.472656 29.058594 31.917969 C 29.058594 32.296875 29.132812 32.660156 29.277344 33.011719 C 29.421875 33.359375 29.628906 33.667969 29.894531 33.9375 C 30.164062 34.203125 30.472656 34.410156 30.824219 34.554688 C 31.171875 34.703125 31.539062 34.773438 31.917969 34.773438 C 32.296875 34.773438 32.660156 34.703125 33.011719 34.554688 C 33.359375 34.410156 33.667969 34.203125 33.9375 33.9375 C 34.203125 33.667969 34.410156 33.359375 34.554688 33.011719 C 34.703125 32.660156 34.773438 32.296875 34.773438 31.917969 C 34.773438 31.539062 34.703125 31.171875 34.554688 30.824219 C 34.410156 30.472656 34.203125 30.164062 33.9375 29.894531 C 33.667969 29.628906 33.359375 29.421875 33.011719 29.277344 C 32.660156 29.132812 32.296875 29.058594 31.917969 29.058594 C 31.472656 29.0625 31.054688 29.164062 30.660156 29.363281 L 30.683594 29.339844 L 25.679688 24.332031 C 30.054688 25.335938 34.484375 25.960938 38.964844 26.214844 L 41.277344 32.234375 L 32.230469 41.28125 L 26.214844 38.964844 C 25.960938 34.484375 25.332031 30.054688 24.332031 25.679688 Z M 30.964844 31.917969 C 30.964844 31.652344 31.058594 31.429688 31.242188 31.242188 C 31.429688 31.058594 31.652344 30.964844 31.917969 30.964844 C 32.179688 30.964844 32.402344 31.058594 32.589844 31.242188 C 32.777344 31.429688 32.867188 31.652344 32.867188 31.917969 C 32.867188 32.179688 32.777344 32.402344 32.589844 32.589844 C 32.402344 32.777344 32.179688 32.867188 31.917969 32.867188 C 31.652344 32.867188 31.429688 32.777344 31.242188 32.589844 C 31.058594 32.402344 30.964844 32.179688 30.964844 31.917969 Z M 36.644531 44.886719 L 33.851562 42.359375 L 42.359375 33.851562 L 44.886719 36.644531 Z M 36.644531 44.886719 " fill-opacity="1" fill-rule="nonzero"/></g><g clip-path="url(#317823fee0)"><path fill="#fb4754" d="M 17.351562 34.101562 C 17.164062 33.914062 16.941406 33.820312 16.679688 33.820312 C 16.414062 33.820312 16.191406 33.914062 16.003906 34.101562 L 15.175781 34.929688 C 14.425781 33.773438 13.855469 32.53125 13.464844 31.210938 C 13.074219 29.886719 12.878906 28.535156 12.878906 27.15625 C 12.878906 25.777344 13.074219 24.425781 13.464844 23.105469 C 13.855469 21.78125 14.425781 20.542969 15.175781 19.382812 L 16.003906 20.210938 C 16.1875 20.394531 16.414062 20.488281 16.675781 20.488281 C 16.9375 20.488281 17.164062 20.394531 17.347656 20.210938 L 20.207031 17.351562 C 20.390625 17.167969 20.484375 16.941406 20.484375 16.679688 C 20.484375 16.417969 20.390625 16.191406 20.207031 16.007812 L 19.378906 15.179688 C 20.539062 14.429688 21.777344 13.859375 23.101562 13.46875 C 24.421875 13.078125 25.773438 12.882812 27.152344 12.882812 C 28.53125 12.882812 29.882812 13.078125 31.207031 13.46875 C 32.527344 13.859375 33.769531 14.429688 34.925781 15.179688 L 34.097656 16.007812 C 33.910156 16.195312 33.816406 16.417969 33.816406 16.683594 C 33.816406 16.945312 33.910156 17.167969 34.097656 17.355469 L 36.953125 20.210938 C 37.140625 20.398438 37.363281 20.492188 37.628906 20.492188 C 37.890625 20.492188 38.113281 20.398438 38.300781 20.210938 L 41.15625 17.355469 C 41.34375 17.167969 41.4375 16.945312 41.4375 16.683594 C 41.4375 16.417969 41.34375 16.195312 41.15625 16.007812 L 38.300781 13.152344 C 38.113281 12.964844 37.890625 12.875 37.628906 12.875 C 37.363281 12.875 37.140625 12.964844 36.953125 13.152344 L 36.289062 13.820312 C 35.332031 13.164062 34.316406 12.617188 33.246094 12.179688 C 32.171875 11.738281 31.066406 11.421875 29.925781 11.21875 C 28.785156 11.019531 27.636719 10.941406 26.476562 10.984375 C 25.320312 11.03125 24.179688 11.199219 23.058594 11.488281 L 25.675781 8.976562 C 25.847656 9.03125 26.023438 9.058594 26.203125 9.058594 C 26.453125 9.058594 26.699219 9.011719 26.929688 8.914062 C 27.164062 8.816406 27.371094 8.679688 27.550781 8.5 C 27.726562 8.324219 27.867188 8.117188 27.960938 7.882812 C 28.058594 7.648438 28.105469 7.40625 28.105469 7.15625 C 28.105469 6.902344 28.058594 6.660156 27.960938 6.425781 C 27.867188 6.191406 27.726562 5.988281 27.550781 5.808594 C 27.371094 5.628906 27.164062 5.492188 26.929688 5.394531 C 26.699219 5.296875 26.453125 5.25 26.203125 5.25 C 25.949219 5.25 25.707031 5.296875 25.472656 5.394531 C 25.238281 5.492188 25.035156 5.628906 24.855469 5.808594 C 24.675781 5.988281 24.539062 6.191406 24.441406 6.425781 C 24.347656 6.660156 24.296875 6.902344 24.296875 7.15625 C 24.300781 7.308594 24.320312 7.457031 24.359375 7.605469 L 17.957031 13.753906 L 17.351562 13.148438 C 17.164062 12.960938 16.941406 12.871094 16.679688 12.871094 C 16.414062 12.871094 16.191406 12.960938 16.003906 13.148438 L 13.148438 16.003906 C 12.960938 16.191406 12.871094 16.414062 12.871094 16.679688 C 12.871094 16.941406 12.960938 17.164062 13.148438 17.351562 L 13.753906 17.957031 L 7.605469 24.359375 C 7.457031 24.320312 7.308594 24.300781 7.15625 24.296875 C 6.902344 24.296875 6.660156 24.347656 6.425781 24.441406 C 6.191406 24.539062 5.988281 24.675781 5.808594 24.855469 C 5.628906 25.035156 5.492188 25.238281 5.394531 25.472656 C 5.296875 25.707031 5.25 25.949219 5.25 26.203125 C 5.25 26.453125 5.296875 26.699219 5.394531 26.929688 C 5.492188 27.164062 5.628906 27.371094 5.808594 27.550781 C 5.988281 27.726562 6.191406 27.867188 6.425781 27.960938 C 6.660156 28.058594 6.902344 28.105469 7.15625 28.105469 C 7.40625 28.105469 7.648438 28.058594 7.882812 27.960938 C 8.117188 27.867188 8.324219 27.726562 8.5 27.550781 C 8.679688 27.371094 8.816406 27.164062 8.914062 26.929688 C 9.011719 26.699219 9.058594 26.453125 9.058594 26.203125 C 9.058594 26.023438 9.03125 25.851562 8.976562 25.679688 L 11.488281 23.058594 C 11.199219 24.179688 11.03125 25.320312 10.988281 26.480469 C 10.941406 27.636719 11.019531 28.785156 11.222656 29.925781 C 11.421875 31.066406 11.742188 32.175781 12.179688 33.246094 C 12.617188 34.320312 13.164062 35.332031 13.820312 36.289062 L 13.15625 36.957031 C 12.96875 37.140625 12.875 37.367188 12.875 37.628906 C 12.875 37.890625 12.96875 38.117188 13.15625 38.300781 L 16.011719 41.160156 C 16.199219 41.34375 16.421875 41.4375 16.683594 41.4375 C 16.949219 41.4375 17.171875 41.34375 17.359375 41.160156 L 20.214844 38.300781 C 20.402344 38.117188 20.496094 37.890625 20.496094 37.628906 C 20.496094 37.367188 20.402344 37.140625 20.214844 36.957031 Z M 39.140625 16.679688 L 37.632812 18.1875 L 36.121094 16.679688 L 37.632812 15.167969 Z M 16.679688 15.167969 L 18.1875 16.679688 L 16.679688 18.1875 L 15.167969 16.679688 Z M 16.679688 39.140625 L 15.167969 37.632812 L 16.679688 36.121094 L 18.1875 37.632812 Z M 16.679688 39.140625 " fill-opacity="1" fill-rule="nonzero"/></g></svg>