<svg xmlns="http://www.w3.org/2000/svg" xmlns:xlink="http://www.w3.org/1999/xlink" width="70" zoomAndPan="magnify" viewBox="0 0 52.5 52.499999" height="70" preserveAspectRatio="xMidYMid meet" version="1.0"><defs><clipPath id="d379a8f237"><path d="M 5.25 6.546875 L 47 6.546875 L 47 46 L 5.25 46 Z M 5.25 6.546875 " clip-rule="nonzero"/></clipPath><clipPath id="46d3c26960"><path d="M 5.25 6.546875 L 47.25 6.546875 L 47.25 46.296875 L 5.25 46.296875 Z M 5.25 6.546875 " clip-rule="nonzero"/></clipPath><clipPath id="ac53ab34e2"><path d="M 45 21 L 47.25 21 L 47.25 26 L 45 26 Z M 45 21 " clip-rule="nonzero"/></clipPath><clipPath id="38c985cf68"><path d="M 45 15 L 47.25 15 L 47.25 20 L 45 20 Z M 45 15 " clip-rule="nonzero"/></clipPath><clipPath id="eba7d76f9b"><path d="M 5.25 33 L 47 33 L 47 37 L 5.25 37 Z M 5.25 33 " clip-rule="nonzero"/></clipPath></defs><path fill="#26b1d8" d="M 36.25 15.277344 C 32.144531 15.277344 28.800781 18.652344 28.800781 22.792969 C 28.800781 26.933594 32.144531 30.304688 36.25 30.304688 C 40.351562 30.304688 43.695312 26.933594 43.695312 22.792969 C 43.695312 18.652344 40.351562 15.277344 36.25 15.277344 Z M 36.25 29.472656 C 32.589844 29.472656 29.625 26.46875 29.625 22.777344 C 29.625 19.085938 32.601562 16.085938 36.25 16.085938 C 39.90625 16.085938 42.882812 19.085938 42.882812 22.777344 C 42.882812 26.46875 39.90625 29.472656 36.25 29.472656 Z M 36.25 29.472656 " fill-opacity="1" fill-rule="nonzero"/><path fill="#26b1d8" d="M 39.433594 19.933594 C 39.304688 19.933594 39.171875 20 39.105469 20.105469 L 35.644531 25.09375 L 33.390625 22.210938 C 33.3125 22.105469 33.191406 22.050781 33.074219 22.050781 C 32.984375 22.050781 32.890625 22.078125 32.824219 22.144531 C 32.734375 22.210938 32.683594 22.316406 32.667969 22.421875 C 32.65625 22.527344 32.683594 22.632812 32.746094 22.726562 L 35.34375 26.046875 C 35.421875 26.152344 35.539062 26.203125 35.660156 26.203125 L 35.671875 26.203125 C 35.800781 26.203125 35.921875 26.140625 36 26.03125 L 39.777344 20.59375 C 39.90625 20.410156 39.855469 20.160156 39.671875 20.027344 C 39.605469 19.960938 39.511719 19.933594 39.433594 19.933594 Z M 39.433594 19.933594 " fill-opacity="1" fill-rule="nonzero"/><path fill="#26b1d8" d="M 36.25 15.792969 C 32.433594 15.792969 29.324219 18.929688 29.324219 22.792969 C 29.324219 26.640625 32.433594 29.789062 36.25 29.789062 C 40.0625 29.789062 43.183594 26.65625 43.183594 22.792969 C 43.171875 18.929688 40.0625 15.792969 36.25 15.792969 Z M 36.25 29.167969 C 32.761719 29.167969 29.914062 26.3125 29.914062 22.777344 C 29.914062 19.257812 32.746094 16.386719 36.25 16.386719 C 39.738281 16.386719 42.582031 19.246094 42.582031 22.777344 C 42.582031 26.3125 39.738281 29.167969 36.25 29.167969 Z M 36.25 29.167969 " fill-opacity="1" fill-rule="nonzero"/><path fill="#26b1d8" d="M 36.25 14.972656 C 31.972656 14.972656 28.5 18.480469 28.5 22.792969 C 28.5 27.105469 31.972656 30.609375 36.25 30.609375 C 40.523438 30.609375 43.996094 27.105469 43.996094 22.792969 C 43.996094 18.480469 40.523438 14.972656 36.25 14.972656 Z M 36.25 29.988281 C 32.316406 29.988281 29.101562 26.761719 29.101562 22.777344 C 29.101562 18.808594 32.300781 15.566406 36.25 15.566406 C 40.183594 15.566406 43.394531 18.796875 43.394531 22.777344 C 43.394531 26.761719 40.183594 29.988281 36.25 29.988281 Z M 36.25 29.988281 " fill-opacity="1" fill-rule="nonzero"/><path fill="#26b1d8" d="M 39.433594 19.628906 C 39.210938 19.628906 38.988281 19.734375 38.859375 19.933594 L 35.617188 24.589844 L 33.613281 22.023438 C 33.46875 21.839844 33.257812 21.746094 33.050781 21.746094 C 32.890625 21.746094 32.746094 21.800781 32.617188 21.90625 C 32.316406 22.144531 32.261719 22.59375 32.5 22.910156 L 35.09375 26.230469 C 35.226562 26.402344 35.433594 26.507812 35.644531 26.507812 C 35.660156 26.507812 35.660156 26.507812 35.660156 26.507812 C 35.882812 26.507812 36.089844 26.390625 36.222656 26.203125 L 40 20.765625 C 40.222656 20.449219 40.144531 20 39.828125 19.773438 C 39.722656 19.667969 39.578125 19.628906 39.433594 19.628906 Z M 39.527344 20.410156 L 35.75 25.847656 C 35.738281 25.875 35.699219 25.886719 35.660156 25.886719 C 35.632812 25.886719 35.59375 25.875 35.578125 25.847656 L 32.984375 22.527344 C 32.945312 22.472656 32.957031 22.40625 32.996094 22.382812 C 33.007812 22.367188 33.035156 22.355469 33.0625 22.355469 C 33.074219 22.355469 33.113281 22.355469 33.140625 22.394531 L 35.148438 24.960938 L 35.644531 25.609375 L 36.105469 24.933594 L 39.34375 20.277344 C 39.371094 20.238281 39.410156 20.238281 39.433594 20.238281 C 39.460938 20.238281 39.472656 20.238281 39.5 20.25 C 39.527344 20.277344 39.539062 20.304688 39.539062 20.316406 C 39.539062 20.34375 39.539062 20.382812 39.527344 20.410156 Z M 39.527344 20.410156 " fill-opacity="1" fill-rule="nonzero"/><path fill="#26b1d8" d="M 46.527344 16.257812 C 46.304688 16.257812 46.121094 16.441406 46.121094 16.667969 L 46.121094 18.675781 C 46.121094 18.902344 46.304688 19.085938 46.527344 19.085938 C 46.75 19.085938 46.933594 18.902344 46.933594 18.675781 L 46.933594 16.667969 C 46.933594 16.441406 46.75 16.257812 46.527344 16.257812 Z M 46.527344 16.257812 " fill-opacity="1" fill-rule="nonzero"/><path fill="#26b1d8" d="M 46.527344 22.300781 C 46.304688 22.300781 46.121094 22.488281 46.121094 22.710938 L 46.121094 24.722656 C 46.121094 24.949219 46.304688 25.132812 46.527344 25.132812 C 46.75 25.132812 46.933594 24.949219 46.933594 24.722656 L 46.933594 22.710938 C 46.933594 22.472656 46.75 22.300781 46.527344 22.300781 Z M 46.527344 22.300781 " fill-opacity="1" fill-rule="nonzero"/><path fill="#26b1d8" d="M 25.050781 11.507812 C 25.050781 11.28125 24.867188 11.097656 24.644531 11.097656 L 9.945312 11.097656 C 9.722656 11.097656 9.539062 11.28125 9.539062 11.507812 L 9.539062 19.101562 C 9.539062 19.324219 9.722656 19.511719 9.945312 19.511719 L 24.644531 19.511719 C 24.867188 19.511719 25.050781 19.324219 25.050781 19.101562 Z M 24.238281 18.691406 L 10.351562 18.691406 L 10.351562 11.917969 L 24.238281 11.917969 Z M 24.238281 18.691406 " fill-opacity="1" fill-rule="nonzero"/><path fill="#26b1d8" d="M 24.644531 22.660156 L 9.945312 22.660156 C 9.722656 22.660156 9.539062 22.84375 9.539062 23.070312 C 9.539062 23.292969 9.722656 23.480469 9.945312 23.480469 L 24.644531 23.480469 C 24.867188 23.480469 25.050781 23.292969 25.050781 23.070312 C 25.050781 22.84375 24.867188 22.660156 24.644531 22.660156 Z M 24.644531 22.660156 " fill-opacity="1" fill-rule="nonzero"/><path fill="#26b1d8" d="M 24.644531 25.769531 L 9.945312 25.769531 C 9.722656 25.769531 9.539062 25.953125 9.539062 26.179688 C 9.539062 26.402344 9.722656 26.589844 9.945312 26.589844 L 24.644531 26.589844 C 24.867188 26.589844 25.050781 26.402344 25.050781 26.179688 C 25.050781 25.953125 24.867188 25.769531 24.644531 25.769531 Z M 24.644531 25.769531 " fill-opacity="1" fill-rule="nonzero"/><g clip-path="url(#d379a8f237)"><path fill="#26b1d8" d="M 43.472656 6.890625 L 9.011719 6.890625 C 7.097656 6.890625 5.550781 8.449219 5.550781 10.382812 L 5.550781 33.257812 C 5.550781 35.1875 7.097656 36.75 9.011719 36.75 L 21.628906 36.75 L 21.628906 38.996094 L 20.789062 38.996094 C 20.566406 38.996094 20.382812 39.183594 20.382812 39.40625 L 20.382812 42.265625 L 19.449219 42.265625 C 19.226562 42.265625 19.042969 42.449219 19.042969 42.675781 L 19.042969 45.148438 L 14.519531 45.148438 C 14.296875 45.148438 14.113281 45.335938 14.113281 45.558594 C 14.113281 45.785156 14.296875 45.96875 14.519531 45.96875 L 37.964844 45.96875 C 38.1875 45.96875 38.371094 45.785156 38.371094 45.558594 C 38.371094 45.335938 38.1875 45.148438 37.964844 45.148438 L 33.441406 45.148438 L 33.441406 42.675781 C 33.441406 42.449219 33.257812 42.265625 33.035156 42.265625 L 32.105469 42.265625 L 32.105469 39.40625 C 32.105469 39.183594 31.921875 38.996094 31.699219 38.996094 L 30.859375 38.996094 L 30.859375 36.761719 L 43.472656 36.761719 C 45.386719 36.761719 46.933594 35.199219 46.933594 33.269531 L 46.933594 28.746094 C 46.933594 28.519531 46.75 28.335938 46.527344 28.335938 C 46.304688 28.335938 46.121094 28.519531 46.121094 28.746094 L 46.121094 32.859375 L 6.363281 32.859375 L 6.363281 10.382812 C 6.363281 8.914062 7.558594 7.710938 9.011719 7.710938 L 43.472656 7.710938 C 44.929688 7.710938 46.121094 8.914062 46.121094 10.382812 L 46.121094 12.644531 C 46.121094 12.871094 46.304688 13.054688 46.527344 13.054688 C 46.75 13.054688 46.933594 12.871094 46.933594 12.644531 L 46.933594 10.382812 C 46.933594 8.449219 45.386719 6.890625 43.472656 6.890625 Z M 31.304688 39.816406 L 31.304688 42.675781 C 31.304688 42.902344 31.488281 43.085938 31.710938 43.085938 L 32.640625 43.085938 L 32.640625 45.148438 L 19.871094 45.148438 L 19.871094 43.085938 L 28.523438 43.085938 C 28.746094 43.085938 28.929688 42.902344 28.929688 42.675781 C 28.929688 42.449219 28.746094 42.265625 28.523438 42.265625 L 21.207031 42.265625 L 21.207031 39.816406 Z M 22.441406 38.996094 L 22.441406 36.761719 L 30.046875 36.761719 L 30.046875 38.996094 Z M 46.121094 33.679688 L 45.992188 34.078125 C 45.636719 35.1875 44.628906 35.941406 43.472656 35.941406 L 9.011719 35.941406 C 7.859375 35.941406 6.851562 35.1875 6.496094 34.078125 L 6.363281 33.679688 Z M 46.121094 33.679688 " fill-opacity="1" fill-rule="nonzero"/></g><path fill="#26b1d8" d="M 24.644531 28.890625 L 9.945312 28.890625 C 9.722656 28.890625 9.539062 29.074219 9.539062 29.300781 C 9.539062 29.527344 9.722656 29.710938 9.945312 29.710938 L 24.644531 29.710938 C 24.867188 29.710938 25.050781 29.527344 25.050781 29.300781 C 25.050781 29.074219 24.867188 28.890625 24.644531 28.890625 Z M 24.644531 28.890625 " fill-opacity="1" fill-rule="nonzero"/><g clip-path="url(#46d3c26960)"><path fill="#26b1d8" d="M 43.472656 6.585938 L 9.011719 6.585938 C 6.941406 6.585938 5.25 8.292969 5.25 10.382812 L 5.25 33.257812 C 5.25 35.347656 6.941406 37.054688 9.011719 37.054688 L 21.328125 37.054688 L 21.328125 38.679688 L 20.789062 38.679688 C 20.394531 38.679688 20.082031 38.996094 20.082031 39.394531 L 20.082031 41.949219 L 19.449219 41.949219 C 19.058594 41.949219 18.742188 42.265625 18.742188 42.664062 L 18.742188 44.832031 L 14.519531 44.832031 C 14.128906 44.832031 13.8125 45.148438 13.8125 45.546875 C 13.8125 45.945312 14.128906 46.261719 14.519531 46.261719 L 37.980469 46.261719 C 38.371094 46.261719 38.6875 45.945312 38.6875 45.546875 C 38.6875 45.148438 38.371094 44.832031 37.980469 44.832031 L 33.757812 44.832031 L 33.757812 42.664062 C 33.757812 42.265625 33.441406 41.949219 33.050781 41.949219 L 32.417969 41.949219 L 32.417969 39.394531 C 32.417969 38.996094 32.105469 38.679688 31.710938 38.679688 L 31.171875 38.679688 L 31.171875 37.054688 L 43.488281 37.054688 C 45.558594 37.054688 47.25 35.347656 47.25 33.257812 L 47.25 28.730469 C 47.25 28.335938 46.933594 28.015625 46.542969 28.015625 C 46.148438 28.015625 45.832031 28.335938 45.832031 28.730469 L 45.832031 32.542969 L 6.667969 32.542969 L 6.667969 10.382812 C 6.667969 9.074219 7.714844 8.015625 9.011719 8.015625 L 43.472656 8.015625 C 44.773438 8.015625 45.820312 9.074219 45.820312 10.382812 L 45.820312 12.644531 C 45.820312 13.042969 46.136719 13.359375 46.527344 13.359375 C 46.921875 13.359375 47.238281 13.042969 47.238281 12.644531 L 47.238281 10.382812 C 47.238281 8.292969 45.558594 6.585938 43.472656 6.585938 Z M 46.632812 11.507812 L 46.632812 12.644531 C 46.632812 12.699219 46.582031 12.75 46.527344 12.75 C 46.476562 12.75 46.425781 12.699219 46.425781 12.644531 L 46.425781 10.382812 C 46.425781 8.742188 45.097656 7.40625 43.472656 7.40625 L 9.011719 7.40625 C 7.386719 7.40625 6.0625 8.742188 6.0625 10.382812 L 6.0625 33.152344 L 46.425781 33.152344 L 46.425781 28.730469 C 46.425781 28.679688 46.476562 28.625 46.527344 28.625 C 46.582031 28.625 46.632812 28.679688 46.632812 28.730469 L 46.632812 33.257812 C 46.632812 35.015625 45.21875 36.445312 43.472656 36.445312 L 30.558594 36.445312 L 30.558594 39.289062 L 31.699219 39.289062 C 31.75 39.289062 31.804688 39.34375 31.804688 39.394531 L 31.804688 42.558594 L 33.035156 42.558594 C 33.089844 42.558594 33.140625 42.609375 33.140625 42.664062 L 33.140625 45.441406 L 37.964844 45.441406 C 38.019531 45.441406 38.070312 45.492188 38.070312 45.546875 C 38.070312 45.601562 38.019531 45.652344 37.964844 45.652344 L 14.519531 45.652344 C 14.46875 45.652344 14.414062 45.601562 14.414062 45.546875 C 14.414062 45.492188 14.46875 45.441406 14.519531 45.441406 L 19.347656 45.441406 L 19.347656 42.664062 C 19.347656 42.609375 19.398438 42.558594 19.449219 42.558594 L 20.683594 42.558594 L 20.683594 39.394531 C 20.683594 39.34375 20.734375 39.289062 20.789062 39.289062 L 21.929688 39.289062 L 21.929688 36.445312 L 9.011719 36.445312 C 7.269531 36.445312 5.851562 35.015625 5.851562 33.257812 L 5.851562 10.382812 C 5.851562 8.621094 7.269531 7.195312 9.011719 7.195312 L 43.472656 7.195312 C 45.21875 7.195312 46.632812 8.621094 46.632812 10.382812 Z M 46.632812 11.507812 " fill-opacity="1" fill-rule="nonzero"/></g><path fill="#26b1d8" d="M 24.644531 25.464844 L 9.945312 25.464844 C 9.550781 25.464844 9.234375 25.78125 9.234375 26.179688 C 9.234375 26.574219 9.550781 26.894531 9.945312 26.894531 L 24.644531 26.894531 C 25.035156 26.894531 25.351562 26.574219 25.351562 26.179688 C 25.351562 25.78125 25.035156 25.464844 24.644531 25.464844 Z M 24.644531 26.296875 L 9.945312 26.296875 C 9.890625 26.296875 9.839844 26.246094 9.839844 26.191406 C 9.839844 26.140625 9.890625 26.085938 9.945312 26.085938 L 24.644531 26.085938 C 24.695312 26.085938 24.75 26.140625 24.75 26.191406 C 24.75 26.246094 24.710938 26.296875 24.644531 26.296875 Z M 24.644531 26.296875 " fill-opacity="1" fill-rule="nonzero"/><path fill="#26b1d8" d="M 25.351562 11.507812 C 25.351562 11.109375 25.035156 10.792969 24.644531 10.792969 L 9.945312 10.792969 C 9.550781 10.792969 9.234375 11.109375 9.234375 11.507812 L 9.234375 19.101562 C 9.234375 19.496094 9.550781 19.816406 9.945312 19.816406 L 24.644531 19.816406 C 25.035156 19.816406 25.351562 19.496094 25.351562 19.101562 Z M 24.75 19.101562 C 24.75 19.152344 24.695312 19.207031 24.644531 19.207031 L 9.945312 19.207031 C 9.890625 19.207031 9.839844 19.152344 9.839844 19.101562 L 9.839844 11.507812 C 9.839844 11.453125 9.890625 11.402344 9.945312 11.402344 L 24.644531 11.402344 C 24.695312 11.402344 24.75 11.453125 24.75 11.507812 Z M 24.75 19.101562 " fill-opacity="1" fill-rule="nonzero"/><path fill="#26b1d8" d="M 24.644531 28.585938 L 9.945312 28.585938 C 9.550781 28.585938 9.234375 28.902344 9.234375 29.300781 C 9.234375 29.699219 9.550781 30.015625 9.945312 30.015625 L 24.644531 30.015625 C 25.035156 30.015625 25.351562 29.699219 25.351562 29.300781 C 25.351562 28.902344 25.035156 28.585938 24.644531 28.585938 Z M 24.644531 29.40625 L 9.945312 29.40625 C 9.890625 29.40625 9.839844 29.355469 9.839844 29.300781 C 9.839844 29.246094 9.890625 29.195312 9.945312 29.195312 L 24.644531 29.195312 C 24.695312 29.195312 24.75 29.246094 24.75 29.300781 C 24.75 29.367188 24.710938 29.40625 24.644531 29.40625 Z M 24.644531 29.40625 " fill-opacity="1" fill-rule="nonzero"/><g clip-path="url(#ac53ab34e2)"><path fill="#26b1d8" d="M 46.527344 21.984375 C 46.136719 21.984375 45.820312 22.300781 45.820312 22.699219 L 45.820312 24.710938 C 45.820312 25.105469 46.136719 25.425781 46.527344 25.425781 C 46.921875 25.425781 47.238281 25.105469 47.238281 24.710938 L 47.238281 22.699219 C 47.238281 22.316406 46.921875 21.984375 46.527344 21.984375 Z M 46.632812 24.722656 C 46.632812 24.777344 46.582031 24.828125 46.527344 24.828125 C 46.476562 24.828125 46.425781 24.777344 46.425781 24.722656 L 46.425781 22.710938 C 46.425781 22.660156 46.476562 22.605469 46.527344 22.605469 C 46.582031 22.605469 46.632812 22.660156 46.632812 22.710938 Z M 46.632812 24.722656 " fill-opacity="1" fill-rule="nonzero"/></g><g clip-path="url(#38c985cf68)"><path fill="#26b1d8" d="M 46.527344 15.953125 C 46.136719 15.953125 45.820312 16.269531 45.820312 16.667969 L 45.820312 18.675781 C 45.820312 19.074219 46.136719 19.390625 46.527344 19.390625 C 46.921875 19.390625 47.238281 19.074219 47.238281 18.675781 L 47.238281 16.667969 C 47.238281 16.28125 46.921875 15.953125 46.527344 15.953125 Z M 46.632812 18.675781 C 46.632812 18.730469 46.582031 18.78125 46.527344 18.78125 C 46.476562 18.78125 46.425781 18.730469 46.425781 18.675781 L 46.425781 16.667969 C 46.425781 16.613281 46.476562 16.558594 46.527344 16.558594 C 46.582031 16.558594 46.632812 16.613281 46.632812 16.667969 Z M 46.632812 18.675781 " fill-opacity="1" fill-rule="nonzero"/></g><path fill="#26b1d8" d="M 10.652344 11.613281 L 10.050781 11.613281 L 10.050781 18.996094 L 24.539062 18.996094 L 24.539062 11.613281 Z M 23.9375 18.386719 L 10.652344 18.386719 L 10.652344 12.222656 L 23.9375 12.222656 Z M 23.9375 18.386719 " fill-opacity="1" fill-rule="nonzero"/><path fill="#26b1d8" d="M 22.035156 39.515625 L 20.894531 39.515625 L 20.894531 42.570312 L 28.511719 42.570312 C 28.5625 42.570312 28.617188 42.621094 28.617188 42.675781 C 28.617188 42.730469 28.5625 42.78125 28.511719 42.78125 L 19.554688 42.78125 L 19.554688 45.453125 L 32.929688 45.453125 L 32.929688 42.78125 L 31.699219 42.78125 C 31.644531 42.78125 31.59375 42.730469 31.59375 42.675781 L 31.59375 39.515625 Z M 31.710938 43.390625 L 32.339844 43.390625 L 32.339844 44.84375 L 20.171875 44.84375 L 20.171875 43.390625 L 28.523438 43.390625 C 28.917969 43.390625 29.234375 43.074219 29.234375 42.675781 C 29.234375 42.277344 28.917969 41.960938 28.523438 41.960938 L 21.507812 41.960938 L 21.507812 40.121094 L 31.003906 40.121094 L 31.003906 42.675781 C 31.003906 43.074219 31.316406 43.390625 31.710938 43.390625 Z M 31.710938 43.390625 " fill-opacity="1" fill-rule="nonzero"/><g clip-path="url(#eba7d76f9b)"><path fill="#26b1d8" d="M 6.21875 34.167969 C 6.613281 35.414062 7.742188 36.246094 9.027344 36.246094 L 43.472656 36.246094 C 44.757812 36.246094 45.886719 35.414062 46.28125 34.167969 L 46.527344 33.375 L 5.957031 33.375 Z M 45.703125 33.984375 C 45.402344 34.9375 44.523438 35.636719 43.472656 35.636719 L 9.011719 35.636719 C 7.964844 35.636719 7.085938 34.9375 6.785156 33.984375 Z M 45.703125 33.984375 " fill-opacity="1" fill-rule="nonzero"/></g><path fill="#26b1d8" d="M 24.644531 22.355469 L 9.945312 22.355469 C 9.550781 22.355469 9.234375 22.671875 9.234375 23.070312 C 9.234375 23.464844 9.550781 23.785156 9.945312 23.785156 L 24.644531 23.785156 C 25.035156 23.785156 25.351562 23.464844 25.351562 23.070312 C 25.351562 22.671875 25.035156 22.355469 24.644531 22.355469 Z M 24.644531 23.175781 L 9.945312 23.175781 C 9.890625 23.175781 9.839844 23.121094 9.839844 23.070312 C 9.839844 23.015625 9.890625 22.964844 9.945312 22.964844 L 24.644531 22.964844 C 24.695312 22.964844 24.75 23.015625 24.75 23.070312 C 24.75 23.121094 24.710938 23.175781 24.644531 23.175781 Z M 24.644531 23.175781 " fill-opacity="1" fill-rule="nonzero"/><path fill="#26b1d8" d="M 30.347656 39.300781 L 30.347656 36.457031 L 22.140625 36.457031 L 22.140625 39.300781 Z M 22.742188 37.066406 L 29.746094 37.066406 L 29.746094 38.695312 L 22.742188 38.695312 Z M 22.742188 37.066406 " fill-opacity="1" fill-rule="nonzero"/></svg>