<svg xmlns="http://www.w3.org/2000/svg" xmlns:xlink="http://www.w3.org/1999/xlink" width="100" zoomAndPan="magnify" viewBox="0 0 75 74.999997" height="100" preserveAspectRatio="xMidYMid meet" version="1.0"><defs><clipPath id="fee643e97a"><path d="M 9.449219 14 L 65.699219 14 L 65.699219 61.335938 L 9.449219 61.335938 Z M 9.449219 14 " clip-rule="nonzero"/></clipPath><clipPath id="1ecf97a32e"><path d="M 40 1.335938 L 43 1.335938 L 43 9 L 40 9 Z M 40 1.335938 " clip-rule="nonzero"/></clipPath></defs><g clip-path="url(#fee643e97a)"><path fill="#26b1d8" d="M 65.179688 45.949219 L 57.28125 39.296875 C 57.535156 38.820312 57.699219 38.292969 57.742188 37.738281 C 57.835938 36.667969 57.503906 35.628906 56.8125 34.8125 C 56.304688 34.210938 55.644531 33.78125 54.90625 33.558594 C 56.003906 32.097656 55.992188 30.015625 54.761719 28.5625 C 54.226562 27.929688 53.527344 27.488281 52.738281 27.277344 C 53.617188 25.84375 53.527344 23.949219 52.382812 22.589844 C 51.746094 21.839844 50.871094 21.359375 49.902344 21.214844 C 50.347656 19.921875 50.121094 18.433594 49.175781 17.316406 C 48.488281 16.5 47.511719 16 46.4375 15.90625 C 45.359375 15.8125 44.320312 16.148438 43.5 16.835938 L 43.351562 16.960938 L 38.824219 14.855469 C 36.453125 13.628906 34.378906 14.59375 33.375 16.089844 C 33.042969 16.585938 32.835938 17.125 32.730469 17.667969 L 31.742188 16.835938 C 30.046875 15.410156 27.5 15.625 26.066406 17.316406 C 25.125 18.433594 24.898438 19.921875 25.34375 21.214844 C 24.375 21.359375 23.5 21.839844 22.863281 22.589844 C 22.175781 23.410156 21.84375 24.449219 21.933594 25.519531 C 21.988281 26.152344 22.183594 26.75 22.507812 27.277344 C 21.742188 27.484375 21.03125 27.914062 20.484375 28.5625 C 19.253906 30.015625 19.242188 32.097656 20.339844 33.558594 C 19.621094 33.777344 18.953125 34.195312 18.433594 34.808594 C 17.34375 36.101562 17.214844 37.886719 17.96875 39.296875 L 10.066406 45.949219 C 9.65625 46.292969 9.605469 46.902344 9.949219 47.3125 C 10.144531 47.539062 10.417969 47.65625 10.695312 47.65625 C 10.914062 47.65625 11.136719 47.582031 11.320312 47.425781 L 19.25 40.753906 L 22.429688 43.425781 C 23.160156 44.042969 24.070312 44.371094 25.015625 44.371094 C 25.132812 44.371094 25.25 44.367188 25.363281 44.355469 C 26.4375 44.265625 27.410156 43.765625 28.097656 42.949219 C 28.789062 42.132812 29.121094 41.09375 29.03125 40.023438 C 28.984375 39.457031 28.816406 38.921875 28.550781 38.441406 C 29.355469 38.246094 30.105469 37.816406 30.675781 37.140625 C 31.460938 36.210938 31.734375 35.027344 31.550781 33.914062 C 31.554688 33.914062 31.554688 33.914062 31.554688 33.914062 C 32.6875 33.914062 33.800781 33.445312 34.566406 32.546875 C 35.277344 31.832031 35.648438 30.855469 35.601562 29.804688 C 35.597656 29.769531 35.585938 29.738281 35.585938 29.703125 C 35.746094 29.722656 35.902344 29.75 36.0625 29.75 C 36.179688 29.75 36.296875 29.746094 36.414062 29.734375 C 37.488281 29.644531 38.460938 29.144531 39.089844 28.386719 C 39.808594 27.675781 40.179688 26.707031 40.136719 25.652344 C 40.097656 24.699219 39.707031 23.800781 39.078125 23.09375 L 44.75 18.316406 C 45.175781 17.960938 45.710938 17.785156 46.273438 17.835938 C 46.832031 17.882812 47.335938 18.140625 47.691406 18.5625 C 48.429688 19.4375 48.320312 20.757812 47.441406 21.496094 L 46.707031 22.113281 C 46.707031 22.117188 46.707031 22.117188 46.707031 22.117188 C 46.296875 22.460938 46.246094 23.070312 46.59375 23.480469 C 46.9375 23.886719 47.550781 23.9375 47.960938 23.59375 L 47.964844 23.585938 C 48.386719 23.238281 48.925781 23.070312 49.476562 23.113281 C 50.035156 23.160156 50.539062 23.417969 50.894531 23.839844 C 51.636719 24.714844 51.523438 26.03125 50.644531 26.769531 L 49.089844 28.085938 C 49.089844 28.085938 49.089844 28.085938 49.085938 28.085938 C 48.679688 28.429688 48.628906 29.042969 48.972656 29.449219 C 49.320312 29.855469 49.933594 29.90625 50.339844 29.5625 L 50.34375 29.5625 C 50.765625 29.203125 51.320312 29.039062 51.859375 29.082031 C 52.417969 29.128906 52.921875 29.386719 53.277344 29.808594 C 54.015625 30.683594 53.90625 32 53.027344 32.742188 L 51.140625 34.328125 L 51.136719 34.332031 C 50.726562 34.675781 50.675781 35.285156 51.019531 35.695312 C 51.367188 36.101562 51.976562 36.15625 52.386719 35.808594 L 52.390625 35.808594 C 52.816406 35.453125 53.347656 35.289062 53.910156 35.332031 C 54.464844 35.378906 54.96875 35.636719 55.324219 36.058594 C 55.683594 36.480469 55.855469 37.019531 55.808594 37.574219 C 55.761719 38.128906 55.503906 38.632812 55.078125 38.988281 L 46.261719 46.414062 C 42.660156 49.445312 39.691406 49.125 35.234375 48.238281 C 34.941406 48.179688 34.644531 48.257812 34.417969 48.449219 L 21.136719 59.628906 C 20.726562 59.972656 20.675781 60.582031 21.023438 60.992188 C 21.214844 61.21875 21.488281 61.335938 21.765625 61.335938 C 21.984375 61.335938 22.207031 61.261719 22.390625 61.105469 L 35.3125 50.226562 C 37.15625 50.582031 38.839844 50.828125 40.46875 50.769531 L 52.863281 61.109375 C 53.046875 61.261719 53.265625 61.335938 53.484375 61.335938 C 53.765625 61.335938 54.039062 61.21875 54.230469 60.988281 C 54.574219 60.578125 54.523438 59.96875 54.109375 59.625 L 43.03125 50.382812 C 44.503906 49.964844 45.96875 49.191406 47.511719 47.894531 L 56 40.75 L 63.925781 47.425781 C 64.109375 47.582031 64.332031 47.65625 64.554688 47.65625 C 64.828125 47.65625 65.101562 47.539062 65.296875 47.3125 C 65.640625 46.902344 65.589844 46.292969 65.179688 45.949219 Z M 35.09375 19.652344 C 34.355469 19.035156 34.492188 17.910156 34.992188 17.164062 C 35.238281 16.796875 36.179688 15.667969 37.96875 16.589844 L 41.71875 18.335938 L 37.625 21.785156 L 35.101562 19.660156 L 35.09375 19.65625 C 35.09375 19.65625 35.09375 19.652344 35.09375 19.652344 Z M 26.617188 41.699219 C 26.261719 42.121094 25.757812 42.378906 25.203125 42.425781 C 24.640625 42.476562 24.105469 42.300781 23.683594 41.945312 L 20.167969 38.992188 C 19.289062 38.25 19.175781 36.933594 19.917969 36.058594 C 20.65625 35.1875 21.957031 35.070312 22.839844 35.796875 L 26.371094 38.769531 C 26.796875 39.125 27.054688 39.628906 27.101562 40.183594 C 27.144531 40.738281 26.976562 41.277344 26.617188 41.699219 Z M 29.195312 35.890625 C 28.453125 36.765625 27.136719 36.878906 26.257812 36.140625 L 24.113281 34.339844 C 24.109375 34.335938 24.109375 34.332031 24.105469 34.332031 L 24.105469 34.328125 L 22.21875 32.742188 C 21.339844 32 21.226562 30.683594 21.964844 29.808594 C 22.324219 29.386719 22.828125 29.128906 23.386719 29.082031 C 23.945312 29.035156 24.484375 29.207031 24.90625 29.5625 C 24.910156 29.566406 24.914062 29.566406 24.914062 29.566406 L 28.945312 32.960938 C 29.824219 33.699219 29.933594 35.015625 29.195312 35.890625 Z M 33.136719 31.234375 C 32.394531 32.109375 31.078125 32.222656 30.199219 31.484375 L 26.148438 28.070312 C 26.144531 28.070312 26.144531 28.070312 26.144531 28.070312 L 24.597656 26.769531 C 24.175781 26.414062 23.917969 25.910156 23.867188 25.355469 C 23.820312 24.800781 23.992188 24.257812 24.347656 23.839844 C 24.707031 23.417969 25.210938 23.160156 25.765625 23.113281 C 26.3125 23.0625 26.859375 23.234375 27.28125 23.585938 L 27.289062 23.59375 L 32.886719 28.304688 C 33.347656 28.691406 33.640625 29.285156 33.664062 29.886719 C 33.6875 30.390625 33.519531 30.851562 33.136719 31.234375 Z M 37.667969 27.078125 C 37.3125 27.5 36.808594 27.757812 36.253906 27.804688 C 35.691406 27.855469 35.15625 27.679688 34.734375 27.328125 C 34.6875 27.289062 34.644531 27.285156 34.605469 27.308594 C 34.460938 27.140625 34.3125 26.96875 34.140625 26.824219 L 28.539062 22.113281 C 28.535156 22.109375 28.53125 22.105469 28.527344 22.101562 L 27.804688 21.496094 C 26.925781 20.753906 26.8125 19.4375 27.550781 18.5625 C 28.292969 17.6875 29.613281 17.574219 30.492188 18.3125 L 31.820312 19.429688 C 31.820312 19.429688 31.820312 19.429688 31.820312 19.433594 L 33.929688 21.207031 L 34.582031 21.757812 L 37.421875 24.148438 C 37.882812 24.539062 38.171875 25.128906 38.199219 25.734375 C 38.21875 26.234375 38.050781 26.691406 37.667969 27.078125 Z M 37.667969 27.078125 " fill-opacity="1" fill-rule="nonzero"/></g><g clip-path="url(#1ecf97a32e)"><path fill="#26b1d8" d="M 41.507812 8.363281 C 42.046875 8.363281 42.480469 7.929688 42.480469 7.394531 L 42.480469 2.304688 C 42.480469 1.769531 42.046875 1.335938 41.507812 1.335938 C 40.972656 1.335938 40.539062 1.769531 40.539062 2.304688 L 40.539062 7.394531 C 40.539062 7.929688 40.972656 8.363281 41.507812 8.363281 Z M 41.507812 8.363281 " fill-opacity="1" fill-rule="nonzero"/></g><path fill="#26b1d8" d="M 54.367188 11.144531 C 54.664062 11.144531 54.957031 11.007812 55.148438 10.75 L 58.167969 6.644531 C 58.484375 6.214844 58.390625 5.609375 57.960938 5.292969 C 57.523438 4.976562 56.917969 5.070312 56.601562 5.5 L 53.585938 9.605469 C 53.269531 10.035156 53.359375 10.640625 53.792969 10.957031 C 53.964844 11.082031 54.167969 11.144531 54.367188 11.144531 Z M 54.367188 11.144531 " fill-opacity="1" fill-rule="nonzero"/><path fill="#26b1d8" d="M 27.871094 10.75 C 28.058594 11.007812 28.355469 11.144531 28.652344 11.144531 C 28.851562 11.144531 29.050781 11.082031 29.226562 10.957031 C 29.65625 10.640625 29.75 10.035156 29.433594 9.605469 L 26.414062 5.5 C 26.097656 5.070312 25.488281 4.976562 25.058594 5.292969 C 24.625 5.609375 24.53125 6.214844 24.847656 6.644531 Z M 27.871094 10.75 " fill-opacity="1" fill-rule="nonzero"/></svg>