<svg xmlns="http://www.w3.org/2000/svg" xmlns:xlink="http://www.w3.org/1999/xlink" width="100" zoomAndPan="magnify" viewBox="0 0 75 74.999997" height="100" preserveAspectRatio="xMidYMid meet" version="1.0"><defs><clipPath id="2bdc35bf44"><path d="M 10 23 L 33 23 L 33 62.382812 L 10 62.382812 Z M 10 23 " clip-rule="nonzero"/></clipPath><clipPath id="097b8e7e47"><path d="M 7.5 28 L 20 28 L 20 62 L 7.5 62 Z M 7.5 28 " clip-rule="nonzero"/></clipPath><clipPath id="683059a9e6"><path d="M 42 23 L 65 23 L 65 62.382812 L 42 62.382812 Z M 42 23 " clip-rule="nonzero"/></clipPath><clipPath id="6474aee73c"><path d="M 56 28 L 67.5 28 L 67.5 62 L 56 62 Z M 56 28 " clip-rule="nonzero"/></clipPath></defs><path fill="#26b1d8" d="M 41.980469 23.152344 C 41.386719 23.183594 40.851562 23.496094 40.503906 24.019531 L 38.09375 27.609375 L 34.605469 24.886719 C 33.957031 24.386719 33.226562 23.765625 32.203125 23.765625 L 24.90625 23.765625 C 24.136719 23.765625 23.460938 24.070312 23.042969 24.53125 L 22.648438 24.972656 C 21.917969 25.78125 22.539062 26.652344 23.476562 26.105469 C 23.714844 25.964844 23.957031 25.699219 24.195312 25.5625 C 24.480469 25.390625 24.6875 25.398438 24.90625 25.398438 L 32.203125 25.398438 C 32.375 25.398438 33.015625 25.722656 33.609375 26.183594 L 37.785156 29.433594 C 38.15625 29.722656 38.691406 29.636719 38.957031 29.246094 L 41.757812 25.066406 C 41.929688 24.804688 42.148438 24.789062 42.402344 24.851562 L 45.488281 25.648438 C 46.152344 25.824219 46.027344 26.5 45.472656 26.53125 L 43.03125 26.660156 C 42.785156 26.675781 42.558594 26.804688 42.417969 27.011719 L 39 31.933594 C 38.851562 32.078125 38.726562 32.144531 38.601562 32.160156 C 38.464844 32.167969 38.277344 32.140625 37.960938 31.921875 L 35.113281 29.90625 C 34.574219 29.527344 33.835938 29.910156 33.832031 30.574219 L 33.777344 38.15625 L 22.992188 38.15625 C 21.894531 38.140625 21.894531 39.808594 22.992188 39.792969 L 52.292969 39.792969 C 53.390625 39.808594 53.390625 38.140625 52.292969 38.15625 L 35.402344 38.15625 L 35.453125 32.140625 L 37.023438 33.257812 C 37.574219 33.644531 38.175781 33.839844 38.75 33.785156 C 39.320312 33.734375 39.878906 33.5 40.167969 33.078125 L 43.523438 28.265625 L 45.386719 28.15625 C 46.609375 28.082031 47.496094 27.1875 47.542969 26.230469 C 47.589844 25.273438 46.929688 24.335938 45.890625 24.066406 L 42.585938 23.214844 C 42.382812 23.160156 42.175781 23.140625 41.980469 23.152344 Z M 41.980469 23.152344 " fill-opacity="1" fill-rule="nonzero"/><path fill="#26b1d8" d="M 35.863281 41 C 35.214844 41.019531 34.84375 41.761719 35.222656 42.292969 L 37.152344 45.082031 C 37.425781 45.476562 37.585938 45.910156 37.585938 46.289062 L 37.585938 54.6875 C 37.585938 55.308594 37.378906 55.671875 37.058594 55.945312 C 36.734375 56.222656 36.261719 56.378906 35.78125 56.378906 C 35.296875 56.378906 34.824219 56.222656 34.503906 55.945312 C 34.183594 55.671875 33.972656 55.308594 33.972656 54.6875 L 33.972656 46.988281 C 33.972656 46.84375 33.933594 46.699219 33.859375 46.574219 L 32.03125 43.933594 C 31.414062 43.042969 30.625 43.84375 30.933594 44.441406 L 32.351562 47.207031 L 32.351562 54.671875 C 32.351562 55.234375 32.152344 55.644531 31.8125 55.945312 C 31.496094 56.226562 31.015625 56.378906 30.527344 56.378906 C 29.425781 56.367188 29.425781 58.03125 30.527344 58.019531 C 31.355469 58.015625 32.195312 57.757812 32.859375 57.195312 L 33.453125 57.195312 C 34.113281 57.757812 34.953125 58.019531 35.78125 58.019531 C 36.605469 58.019531 37.445312 57.757812 38.105469 57.195312 C 38.761719 56.632812 39.214844 55.742188 39.214844 54.691406 L 39.214844 46.289062 C 39.214844 45.503906 38.910156 44.765625 38.464844 44.121094 L 36.554688 41.363281 C 36.402344 41.132812 36.140625 40.996094 35.863281 41 Z M 35.863281 41 " fill-opacity="1" fill-rule="nonzero"/><path fill="#26b1d8" d="M 27.679688 13.015625 C 28.703125 12.617188 29.875 12.601562 30.96875 13.066406 C 33.160156 14.003906 34.148438 16.484375 33.210938 18.648438 C 32.265625 20.8125 29.753906 21.804688 27.5625 20.867188 C 25.375 19.933594 24.390625 17.441406 25.328125 15.292969 C 25.800781 14.210938 26.664062 13.421875 27.679688 13.015625 Z M 27.085938 11.5 C 25.679688 12.054688 24.488281 13.148438 23.839844 14.636719 C 22.546875 17.609375 23.941406 21.097656 26.925781 22.371094 C 29.914062 23.652344 33.40625 22.285156 34.699219 19.300781 C 35.992188 16.324219 34.597656 12.84375 31.601562 11.5625 C 30.113281 10.929688 28.492188 10.949219 27.085938 11.503906 Z M 27.085938 11.5 " fill-opacity="1" fill-rule="evenodd"/><g clip-path="url(#2bdc35bf44)"><path fill="#26b1d8" d="M 14.019531 25 L 16.863281 25.003906 C 17.25 25.003906 18.195312 25.507812 18.894531 26.203125 L 24.089844 31.34375 C 24.238281 31.496094 24.445312 31.582031 24.65625 31.582031 L 29.589844 31.582031 C 30.109375 31.582031 30.542969 31.746094 30.808594 32.015625 C 31.0625 32.273438 31.199219 32.695312 31.199219 33.113281 C 31.199219 33.53125 31.082031 33.964844 30.808594 34.210938 C 30.359375 34.609375 30.015625 34.640625 29.589844 34.640625 L 23.699219 34.640625 C 23.242188 34.640625 22.875 34.4375 22.632812 34.199219 L 20.371094 31.957031 C 19.859375 31.453125 18.992188 31.820312 18.988281 32.539062 L 18.988281 41.628906 C 18.992188 41.960938 19.195312 42.257812 19.503906 42.382812 L 23.859375 44.113281 C 24.488281 44.359375 24.941406 44.925781 25.054688 45.597656 L 27.171875 58.355469 C 27.292969 59.058594 27.132812 59.523438 26.839844 59.886719 C 26.550781 60.253906 26.089844 60.5 25.59375 60.585938 C 25.09375 60.667969 24.582031 60.582031 24.191406 60.335938 C 23.800781 60.085938 23.492188 59.699219 23.378906 59 L 21.519531 47.765625 C 21.46875 47.484375 21.277344 47.25 21.015625 47.144531 L 13.703125 44.246094 C 12.972656 43.953125 12.488281 43.242188 12.488281 42.445312 L 12.488281 42.441406 L 12.511719 26.652344 C 12.511719 25.714844 13.140625 24.996094 14.019531 25 Z M 14.023438 23.363281 C 12.234375 23.363281 10.886719 24.90625 10.886719 26.652344 L 10.867188 42.441406 C 10.867188 43.90625 11.761719 45.230469 13.109375 45.765625 L 19.988281 48.492188 L 21.773438 59.265625 C 21.960938 60.371094 22.558594 61.234375 23.328125 61.722656 C 24.101562 62.207031 25.007812 62.339844 25.863281 62.199219 C 26.710938 62.054688 27.53125 61.625 28.101562 60.910156 C 28.671875 60.195312 28.957031 59.191406 28.773438 58.082031 L 26.652344 45.324219 C 26.449219 44.085938 25.617188 43.046875 24.457031 42.589844 L 20.609375 41.070312 L 20.609375 34.492188 L 21.492188 35.367188 C 22.074219 35.949219 22.867188 36.273438 23.695312 36.273438 L 29.558594 36.273438 C 30.570312 36.3125 31.445312 35.925781 32.007812 35.308594 C 32.566406 34.695312 32.820312 33.898438 32.820312 33.113281 C 32.820312 32.328125 32.566406 31.523438 32.007812 30.910156 C 31.445312 30.292969 30.570312 29.90625 29.558594 29.949219 L 24.988281 29.949219 L 20.035156 25.035156 C 19.167969 24.175781 18.113281 23.375 16.871094 23.371094 Z M 14.023438 23.363281 " fill-opacity="1" fill-rule="nonzero"/></g><path fill="#26b1d8" d="M 17.425781 12.035156 C 18.507812 12.46875 19.429688 13.320312 19.933594 14.488281 C 20.929688 16.820312 19.867188 19.511719 17.550781 20.519531 C 15.226562 21.527344 12.554688 20.464844 11.550781 18.121094 C 10.554688 15.789062 11.609375 13.097656 13.933594 12.089844 C 15.09375 11.585938 16.339844 11.605469 17.425781 12.035156 Z M 18.023438 10.523438 C 16.550781 9.9375 14.851562 9.914062 13.289062 10.589844 C 10.15625 11.949219 8.714844 15.625 10.058594 18.773438 C 11.414062 21.921875 15.0625 23.382812 18.199219 22.023438 C 21.320312 20.667969 22.769531 16.984375 21.417969 13.839844 C 20.746094 12.265625 19.496094 11.113281 18.023438 10.523438 Z M 18.023438 10.523438 " fill-opacity="1" fill-rule="evenodd"/><g clip-path="url(#097b8e7e47)"><path fill="#26b1d8" d="M 8.703125 28.539062 C 8.253906 28.539062 7.898438 28.910156 7.902344 29.363281 L 7.902344 40.996094 C 7.902344 42.632812 7.960938 44.101562 8.527344 45.410156 C 9.097656 46.71875 10.222656 47.765625 11.992188 48.402344 L 12.511719 48.585938 L 12.511719 57.371094 C 10.660156 57.605469 9 58.640625 8.03125 60.222656 C 7.464844 61.15625 8.847656 62.011719 9.417969 61.082031 C 10.210938 59.78125 11.699219 58.953125 13.324219 58.953125 C 14.945312 58.953125 16.429688 59.78125 17.222656 61.082031 C 17.457031 61.46875 17.960938 61.585938 18.34375 61.351562 C 18.722656 61.113281 18.84375 60.609375 18.605469 60.222656 C 17.644531 58.640625 15.980469 57.605469 14.132812 57.371094 L 14.132812 49.171875 L 18.011719 50.566406 C 18.433594 50.71875 18.902344 50.496094 19.050781 50.070312 C 19.203125 49.644531 18.980469 49.175781 18.554688 49.023438 L 12.535156 46.863281 C 11.0625 46.332031 10.417969 45.671875 10.019531 44.753906 C 9.625 43.839844 9.527344 42.578125 9.527344 40.992188 L 9.527344 29.363281 C 9.53125 28.902344 9.164062 28.53125 8.703125 28.539062 Z M 8.703125 28.539062 " fill-opacity="1" fill-rule="nonzero"/></g><g clip-path="url(#683059a9e6)"><path fill="#26b1d8" d="M 61.261719 25 L 58.417969 25.003906 C 58.035156 25.003906 57.089844 25.507812 56.390625 26.203125 L 51.191406 31.34375 C 51.042969 31.496094 50.839844 31.582031 50.628906 31.582031 L 45.46875 31.582031 C 44.949219 31.582031 44.519531 31.746094 44.253906 32.015625 C 43.996094 32.273438 43.859375 32.695312 43.859375 33.113281 C 43.859375 33.53125 43.980469 33.964844 44.253906 34.210938 C 44.699219 34.609375 45.042969 34.640625 45.46875 34.640625 L 51.585938 34.640625 C 52.039062 34.640625 52.410156 34.4375 52.65625 34.199219 L 54.914062 31.957031 C 55.429688 31.453125 56.292969 31.820312 56.292969 32.539062 L 56.292969 41.628906 C 56.292969 41.960938 56.089844 42.257812 55.785156 42.382812 L 51.429688 44.113281 C 50.796875 44.359375 50.34375 44.925781 50.230469 45.597656 L 48.113281 58.355469 C 47.996094 59.058594 48.15625 59.523438 48.445312 59.886719 C 48.734375 60.253906 49.199219 60.5 49.695312 60.585938 C 50.191406 60.667969 50.699219 60.582031 51.09375 60.335938 C 51.484375 60.085938 51.792969 59.699219 51.910156 59 L 53.769531 47.765625 C 53.816406 47.484375 54.003906 47.25 54.269531 47.144531 L 61.578125 44.246094 C 62.316406 43.953125 62.792969 43.242188 62.792969 42.445312 L 62.792969 42.441406 L 62.777344 26.652344 C 62.773438 25.714844 62.140625 24.996094 61.261719 25 Z M 61.257812 23.363281 C 63.050781 23.363281 64.394531 24.90625 64.398438 26.652344 L 64.417969 42.441406 C 64.417969 43.902344 63.523438 45.226562 62.171875 45.765625 L 55.292969 48.488281 L 53.507812 59.265625 C 53.324219 60.371094 52.726562 61.230469 51.953125 61.722656 C 51.183594 62.207031 50.273438 62.339844 49.425781 62.195312 C 48.570312 62.054688 47.753906 61.621094 47.183594 60.910156 C 46.609375 60.195312 46.324219 59.191406 46.511719 58.082031 L 48.628906 45.324219 C 48.835938 44.085938 49.671875 43.046875 50.832031 42.589844 L 54.671875 41.066406 L 54.671875 34.492188 L 53.796875 35.367188 C 53.207031 35.945312 52.414062 36.273438 51.589844 36.273438 L 45.5 36.273438 C 44.488281 36.3125 43.613281 35.925781 43.054688 35.308594 C 42.496094 34.695312 42.238281 33.898438 42.238281 33.113281 C 42.238281 32.328125 42.496094 31.523438 43.054688 30.910156 C 43.613281 30.292969 44.488281 29.90625 45.5 29.949219 L 50.292969 29.949219 L 55.246094 25.035156 C 56.117188 24.175781 57.171875 23.375 58.410156 23.371094 Z M 61.257812 23.363281 " fill-opacity="1" fill-rule="nonzero"/></g><path fill="#26b1d8" d="M 57.859375 12.035156 C 56.773438 12.46875 55.855469 13.320312 55.355469 14.488281 C 54.351562 16.820312 55.414062 19.511719 57.734375 20.519531 C 60.058594 21.527344 62.726562 20.464844 63.730469 18.121094 C 64.730469 15.789062 63.679688 13.097656 61.347656 12.089844 C 60.1875 11.585938 58.941406 11.605469 57.859375 12.035156 Z M 57.261719 10.523438 C 58.734375 9.9375 60.429688 9.914062 61.992188 10.589844 C 65.125 11.949219 66.570312 15.625 65.222656 18.773438 C 63.867188 21.921875 60.21875 23.382812 57.089844 22.023438 C 53.957031 20.667969 52.511719 16.984375 53.863281 13.839844 C 54.539062 12.265625 55.789062 11.113281 57.261719 10.523438 Z M 57.261719 10.523438 " fill-opacity="1" fill-rule="evenodd"/><g clip-path="url(#6474aee73c)"><path fill="#26b1d8" d="M 66.578125 28.539062 C 67.027344 28.539062 67.386719 28.910156 67.382812 29.363281 L 67.382812 40.996094 C 67.382812 42.632812 67.320312 44.101562 66.753906 45.410156 C 66.1875 46.71875 65.0625 47.765625 63.289062 48.402344 L 62.773438 48.585938 L 62.773438 57.371094 C 64.625 57.605469 66.289062 58.640625 67.25 60.222656 C 67.484375 60.609375 67.363281 61.113281 66.984375 61.351562 C 66.601562 61.585938 66.101562 61.46875 65.867188 61.082031 C 65.070312 59.78125 63.582031 58.953125 61.957031 58.953125 C 60.335938 58.953125 58.851562 59.78125 58.058594 61.082031 C 57.488281 62.011719 56.105469 61.15625 56.671875 60.222656 C 57.636719 58.640625 59.296875 57.605469 61.152344 57.371094 L 61.152344 49.171875 L 57.269531 50.566406 C 56.847656 50.71875 56.382812 50.496094 56.230469 50.070312 C 56.078125 49.644531 56.300781 49.175781 56.726562 49.023438 L 62.746094 46.863281 C 64.21875 46.332031 64.863281 45.671875 65.261719 44.753906 C 65.660156 43.839844 65.753906 42.578125 65.753906 40.992188 L 65.753906 29.363281 C 65.75 28.902344 66.125 28.53125 66.578125 28.539062 Z M 66.578125 28.539062 " fill-opacity="1" fill-rule="nonzero"/></g></svg>