<svg xmlns="http://www.w3.org/2000/svg" xmlns:xlink="http://www.w3.org/1999/xlink" width="70" zoomAndPan="magnify" viewBox="0 0 52.5 52.499999" height="70" preserveAspectRatio="xMidYMid meet" version="1.0"><defs><clipPath id="a8039d5e84"><path d="M 39 17 L 42.976562 17 L 42.976562 20 L 39 20 Z M 39 17 " clip-rule="nonzero"/></clipPath><clipPath id="98c108c346"><path d="M 9.226562 17 L 13 17 L 13 20 L 9.226562 20 Z M 9.226562 17 " clip-rule="nonzero"/></clipPath><clipPath id="4592bc9c98"><path d="M 13 5.25 L 40 5.25 L 40 32 L 13 32 Z M 13 5.25 " clip-rule="nonzero"/></clipPath><clipPath id="f2f33f49e5"><path d="M 19 32 L 33 32 L 33 39 L 19 39 Z M 19 32 " clip-rule="nonzero"/></clipPath></defs><g clip-path="url(#a8039d5e84)"><path fill="#26b1d8" d="M 39.90625 17.523438 L 42.976562 17.523438 L 42.976562 19.058594 L 39.90625 19.058594 Z M 39.90625 17.523438 " fill-opacity="1" fill-rule="nonzero"/></g><path fill="#26b1d8" d="M 36.183594 8.828125 L 38.535156 6.855469 L 39.519531 8.03125 L 37.167969 10 Z M 36.183594 8.828125 " fill-opacity="1" fill-rule="nonzero"/><path fill="#26b1d8" d="M 36.183594 27.753906 L 37.167969 26.578125 L 39.519531 28.546875 L 38.535156 29.722656 Z M 36.183594 27.753906 " fill-opacity="1" fill-rule="nonzero"/><g clip-path="url(#98c108c346)"><path fill="#26b1d8" d="M 9.226562 17.523438 L 12.292969 17.523438 L 12.292969 19.058594 L 9.226562 19.058594 Z M 9.226562 17.523438 " fill-opacity="1" fill-rule="nonzero"/></g><path fill="#26b1d8" d="M 12.679688 8.03125 L 13.667969 6.855469 L 16.015625 8.828125 L 15.03125 10.003906 Z M 12.679688 8.03125 " fill-opacity="1" fill-rule="nonzero"/><path fill="#26b1d8" d="M 12.679688 28.550781 L 15.03125 26.578125 L 16.015625 27.753906 L 13.664062 29.726562 Z M 12.679688 28.550781 " fill-opacity="1" fill-rule="nonzero"/><g clip-path="url(#4592bc9c98)"><path fill="#26b1d8" d="M 38.371094 20.589844 C 38.585938 20.589844 38.765625 20.515625 38.914062 20.367188 C 39.066406 20.214844 39.140625 20.035156 39.140625 19.824219 L 39.140625 16.753906 C 39.140625 16.542969 39.066406 16.363281 38.914062 16.214844 C 38.765625 16.0625 38.585938 15.988281 38.371094 15.988281 L 37.367188 15.988281 C 37.136719 14.886719 36.753906 13.839844 36.21875 12.847656 C 35.683594 11.859375 35.019531 10.964844 34.222656 10.167969 C 33.425781 9.371094 32.53125 8.707031 31.542969 8.171875 C 30.550781 7.632812 29.503906 7.25 28.402344 7.023438 L 28.402344 6.015625 C 28.402344 5.804688 28.328125 5.625 28.175781 5.476562 C 28.027344 5.324219 27.847656 5.25 27.632812 5.25 L 24.566406 5.25 C 24.355469 5.25 24.171875 5.324219 24.023438 5.476562 C 23.875 5.625 23.800781 5.804688 23.800781 6.015625 L 23.800781 7.023438 C 22.695312 7.25 21.648438 7.632812 20.660156 8.171875 C 19.667969 8.707031 18.773438 9.371094 17.976562 10.167969 C 17.179688 10.964844 16.515625 11.859375 15.980469 12.847656 C 15.445312 13.839844 15.0625 14.886719 14.832031 15.988281 L 13.828125 15.988281 C 13.617188 15.988281 13.433594 16.0625 13.285156 16.214844 C 13.136719 16.363281 13.058594 16.542969 13.058594 16.753906 L 13.058594 19.824219 C 13.058594 20.035156 13.136719 20.214844 13.285156 20.367188 C 13.433594 20.515625 13.617188 20.589844 13.828125 20.589844 L 14.832031 20.589844 C 15.320312 22.988281 16.460938 25.023438 18.246094 26.695312 C 18.789062 27.203125 19.210938 27.800781 19.511719 28.484375 C 19.808594 29.164062 19.960938 29.878906 19.964844 30.625 L 19.964844 31.328125 L 32.238281 31.328125 L 32.238281 30.625 C 32.238281 29.878906 32.390625 29.164062 32.6875 28.484375 C 32.988281 27.800781 33.410156 27.203125 33.953125 26.695312 C 35.738281 25.023438 36.878906 22.988281 37.367188 20.589844 Z M 27.925781 20.589844 L 24.273438 20.589844 L 23.15625 18.359375 L 25.332031 15.3125 L 25.332031 18.289062 L 26.867188 18.289062 L 26.867188 15.3125 L 29.046875 18.359375 Z M 35.304688 20.589844 L 35.804688 20.589844 C 35.339844 22.539062 34.375 24.199219 32.910156 25.570312 C 32.105469 26.324219 31.511719 27.222656 31.132812 28.261719 L 29.867188 28.261719 L 29.183594 21.503906 L 30.617188 18.636719 C 30.761719 18.359375 30.738281 18.09375 30.554688 17.84375 L 26.722656 12.476562 C 26.648438 12.378906 26.554688 12.304688 26.445312 12.25 C 26.335938 12.199219 26.222656 12.171875 26.101562 12.171875 C 25.976562 12.171875 25.863281 12.199219 25.753906 12.25 C 25.644531 12.304688 25.554688 12.378906 25.480469 12.476562 L 21.644531 17.84375 C 21.460938 18.09375 21.441406 18.359375 21.582031 18.636719 L 23.015625 21.503906 L 22.332031 28.261719 L 21.066406 28.261719 C 20.6875 27.222656 20.09375 26.324219 19.289062 25.570312 C 17.824219 24.199219 16.859375 22.539062 16.398438 20.589844 L 16.894531 20.589844 C 17.105469 20.589844 17.289062 20.515625 17.4375 20.367188 C 17.585938 20.214844 17.664062 20.035156 17.664062 19.824219 L 17.664062 16.753906 C 17.664062 16.542969 17.585938 16.363281 17.4375 16.214844 C 17.289062 16.0625 17.105469 15.988281 16.894531 15.988281 L 16.398438 15.988281 C 16.613281 15.089844 16.949219 14.238281 17.398438 13.433594 C 17.851562 12.628906 18.402344 11.898438 19.058594 11.246094 C 19.710938 10.59375 20.4375 10.042969 21.246094 9.589844 C 22.050781 9.136719 22.902344 8.804688 23.800781 8.585938 L 23.800781 9.085938 C 23.800781 9.296875 23.875 9.476562 24.023438 9.628906 C 24.171875 9.777344 24.355469 9.851562 24.566406 9.851562 L 27.632812 9.851562 C 27.847656 9.851562 28.027344 9.777344 28.175781 9.628906 C 28.328125 9.476562 28.402344 9.296875 28.402344 9.085938 L 28.402344 8.585938 C 29.296875 8.804688 30.148438 9.136719 30.957031 9.589844 C 31.761719 10.042969 32.492188 10.59375 33.144531 11.246094 C 33.796875 11.898438 34.347656 12.628906 34.800781 13.433594 C 35.253906 14.238281 35.585938 15.089844 35.804688 15.988281 L 35.304688 15.988281 C 35.09375 15.988281 34.910156 16.0625 34.761719 16.214844 C 34.613281 16.363281 34.539062 16.542969 34.539062 16.753906 L 34.539062 19.824219 C 34.539062 20.035156 34.613281 20.214844 34.761719 20.367188 C 34.910156 20.515625 35.09375 20.589844 35.304688 20.589844 Z M 35.304688 20.589844 " fill-opacity="1" fill-rule="nonzero"/></g><g clip-path="url(#f2f33f49e5)"><path fill="#26b1d8" d="M 19.964844 33.628906 C 19.964844 33.933594 20.023438 34.230469 20.140625 34.511719 C 20.257812 34.792969 20.425781 35.039062 20.640625 35.253906 C 20.855469 35.472656 21.105469 35.636719 21.386719 35.753906 C 21.667969 35.871094 21.960938 35.929688 22.265625 35.933594 L 22.339844 35.933594 C 22.429688 36.367188 22.585938 36.769531 22.816406 37.148438 C 23.042969 37.527344 23.332031 37.859375 23.671875 38.136719 C 24.015625 38.417969 24.394531 38.632812 24.8125 38.78125 C 25.226562 38.929688 25.65625 39.003906 26.101562 39.003906 C 26.542969 39.003906 26.972656 38.929688 27.386719 38.78125 C 27.804688 38.632812 28.183594 38.417969 28.527344 38.136719 C 28.871094 37.859375 29.15625 37.527344 29.382812 37.148438 C 29.613281 36.769531 29.769531 36.367188 29.859375 35.933594 L 29.933594 35.933594 C 30.238281 35.929688 30.535156 35.871094 30.816406 35.753906 C 31.097656 35.636719 31.34375 35.472656 31.558594 35.253906 C 31.777344 35.039062 31.941406 34.792969 32.058594 34.511719 C 32.175781 34.230469 32.234375 33.9375 32.238281 33.628906 L 32.238281 32.863281 L 19.964844 32.863281 Z M 19.964844 33.628906 " fill-opacity="1" fill-rule="nonzero"/></g></svg>