<svg xmlns="http://www.w3.org/2000/svg" xmlns:xlink="http://www.w3.org/1999/xlink" width="100" zoomAndPan="magnify" viewBox="0 0 75 74.999997" height="100" preserveAspectRatio="xMidYMid meet" version="1.0"><defs><clipPath id="a339b5bd9a"><path d="M 16.652344 6.472656 L 65.511719 6.472656 L 65.511719 66.472656 L 16.652344 66.472656 Z M 16.652344 6.472656 " clip-rule="nonzero"/></clipPath></defs><g clip-path="url(#a339b5bd9a)"><path fill="#26b1d8" d="M 53.15625 51.21875 C 53.15625 50.375 52.875 50.65625 45.609375 44.472656 C 44.855469 43.726562 44.761719 42.605469 45.421875 41.761719 C 46.082031 40.824219 47.683594 40.636719 48.535156 41.480469 L 51.554688 44.472656 C 52.117188 45.039062 53.15625 44.664062 53.15625 43.824219 L 53.15625 33.058594 C 55.890625 34.929688 60.609375 38.859375 60.699219 41.761719 L 60.699219 58.609375 L 53.15625 58.609375 Z M 50.230469 54.769531 L 19.578125 54.769531 C 19.011719 54.769531 18.542969 54.300781 18.542969 53.742188 L 18.542969 18.453125 L 51.363281 18.453125 L 51.363281 41.570312 L 49.949219 40.167969 C 48.25 38.390625 45.328125 38.671875 43.910156 40.636719 C 42.777344 42.230469 42.96875 44.382812 44.382812 45.789062 L 51.269531 51.5 L 51.269531 53.644531 C 51.269531 54.300781 50.796875 54.769531 50.230469 54.769531 Z M 19.578125 8.34375 L 50.230469 8.34375 C 50.796875 8.34375 51.269531 8.8125 51.269531 9.375 L 51.269531 16.582031 L 18.539062 16.582031 L 18.539062 9.375 C 18.539062 8.8125 19.011719 8.34375 19.578125 8.34375 Z M 63.625 60.480469 L 63.625 64.507812 C 63.625 64.507812 63.625 64.597656 63.53125 64.597656 L 50.136719 64.507812 L 50.230469 60.480469 Z M 50.230469 58.519531 C 49.195312 58.519531 48.25 59.355469 48.25 60.480469 L 48.25 64.507812 C 48.25 65.535156 49.101562 66.472656 50.230469 66.472656 L 63.53125 66.472656 C 64.570312 66.472656 65.511719 65.632812 65.511719 64.507812 L 65.511719 60.480469 C 65.511719 59.453125 64.664062 58.519531 63.53125 58.519531 L 62.492188 58.519531 L 62.492188 41.667969 C 62.398438 37.078125 54.949219 32.023438 53.0625 30.808594 L 53.0625 9.375 C 53.0625 7.78125 51.742188 6.472656 50.136719 6.472656 L 19.578125 6.472656 C 17.878906 6.472656 16.652344 7.78125 16.652344 9.375 L 16.652344 53.742188 C 16.652344 55.335938 17.972656 56.644531 19.578125 56.644531 L 50.230469 56.644531 C 50.609375 56.644531 50.988281 56.554688 51.269531 56.457031 L 51.269531 58.519531 L 50.230469 58.519531 " fill-opacity="1" fill-rule="nonzero"/></g><path fill="#26b1d8" d="M 31.933594 13.402344 L 37.875 13.402344 C 38.441406 13.402344 38.820312 13.023438 38.820312 12.464844 C 38.820312 11.902344 38.441406 11.527344 37.875 11.527344 L 31.933594 11.527344 C 31.371094 11.527344 30.992188 11.902344 30.992188 12.464844 C 30.992188 12.933594 31.371094 13.402344 31.933594 13.402344 " fill-opacity="1" fill-rule="nonzero"/><path fill="#26b1d8" d="M 42.027344 13.402344 L 44.007812 13.402344 C 44.570312 13.402344 44.949219 13.023438 44.949219 12.464844 C 44.949219 11.902344 44.570312 11.527344 44.007812 11.527344 L 42.027344 11.527344 C 41.460938 11.527344 41.082031 11.902344 41.082031 12.464844 C 41.082031 12.933594 41.460938 13.402344 42.027344 13.402344 " fill-opacity="1" fill-rule="nonzero"/><path fill="#26b1d8" d="M 39.855469 24.632812 L 44.480469 24.632812 C 45.042969 24.632812 45.421875 24.257812 45.421875 23.699219 C 45.421875 23.132812 45.042969 22.761719 44.480469 22.761719 L 39.855469 22.761719 C 39.292969 22.761719 38.914062 23.132812 38.914062 23.699219 C 38.914062 24.257812 39.292969 24.632812 39.855469 24.632812 " fill-opacity="1" fill-rule="nonzero"/><path fill="#26b1d8" d="M 48.34375 29.597656 C 48.34375 29.03125 47.96875 28.660156 47.402344 28.660156 L 39.855469 28.660156 C 39.289062 28.660156 38.914062 29.03125 38.914062 29.597656 C 38.914062 30.15625 39.289062 30.527344 39.855469 30.527344 L 47.402344 30.527344 C 47.96875 30.527344 48.34375 30.058594 48.34375 29.597656 " fill-opacity="1" fill-rule="nonzero"/><path fill="#26b1d8" d="M 47.402344 36.425781 C 47.96875 36.425781 48.347656 36.050781 48.347656 35.492188 C 48.347656 34.929688 47.96875 34.554688 47.402344 34.554688 L 43.820312 34.554688 C 43.253906 34.554688 42.875 34.929688 42.875 35.492188 C 42.875 36.050781 43.253906 36.425781 43.820312 36.425781 L 47.402344 36.425781 " fill-opacity="1" fill-rule="nonzero"/><path fill="#26b1d8" d="M 30.519531 23.320312 C 31.746094 23.320312 32.6875 24.257812 32.6875 25.472656 C 32.6875 26.691406 31.746094 27.628906 30.519531 27.628906 C 29.292969 27.628906 28.351562 26.691406 28.351562 25.472656 C 28.351562 24.257812 29.292969 23.320312 30.519531 23.320312 Z M 30.519531 29.5 C 32.78125 29.5 34.574219 27.722656 34.574219 25.472656 C 34.574219 23.230469 32.78125 21.453125 30.519531 21.453125 C 28.257812 21.453125 26.464844 23.230469 26.464844 25.472656 C 26.464844 27.722656 28.257812 29.5 30.519531 29.5 " fill-opacity="1" fill-rule="nonzero"/><path fill="#26b1d8" d="M 30.519531 40.167969 C 26.464844 40.167969 23.726562 39.046875 23.726562 37.925781 C 23.726562 35.582031 24.957031 33.335938 27.027344 32.121094 L 29.859375 34.929688 C 30.238281 35.300781 30.800781 35.300781 31.179688 34.929688 L 34.007812 32.121094 C 35.988281 33.335938 37.308594 35.492188 37.308594 37.925781 C 37.3125 38.953125 34.574219 40.167969 30.519531 40.167969 Z M 34.292969 30.15625 C 33.914062 29.96875 33.539062 30.058594 33.253906 30.339844 L 30.613281 32.960938 L 27.878906 30.339844 C 27.59375 30.058594 27.125 29.96875 26.839844 30.15625 C 23.824219 31.5625 21.9375 34.644531 21.9375 37.925781 C 21.9375 41.015625 26.652344 42.042969 30.613281 42.042969 C 34.667969 42.042969 39.292969 40.921875 39.292969 37.925781 C 39.195312 34.554688 37.3125 31.5625 34.292969 30.15625 " fill-opacity="1" fill-rule="nonzero"/><path fill="#26b1d8" d="M 37.6875 44.949219 L 22.3125 44.949219 C 21.746094 44.949219 21.371094 45.320312 21.371094 45.878906 C 21.371094 46.4375 21.746094 46.816406 22.3125 46.816406 L 37.6875 46.816406 C 38.253906 46.816406 38.628906 46.4375 38.628906 45.878906 C 38.628906 45.410156 38.253906 44.949219 37.6875 44.949219 " fill-opacity="1" fill-rule="nonzero"/><path fill="#26b1d8" d="M 37.6875 49.90625 L 22.3125 49.90625 C 21.746094 49.90625 21.371094 50.28125 21.371094 50.839844 C 21.371094 51.402344 21.746094 51.777344 22.3125 51.777344 L 37.6875 51.777344 C 38.253906 51.777344 38.628906 51.402344 38.628906 50.839844 C 38.628906 50.28125 38.253906 49.90625 37.6875 49.90625 " fill-opacity="1" fill-rule="nonzero"/></svg>