<svg xmlns="http://www.w3.org/2000/svg" xmlns:xlink="http://www.w3.org/1999/xlink" width="70" zoomAndPan="magnify" viewBox="0 0 52.5 52.499999" height="70" preserveAspectRatio="xMidYMid meet" version="1.0"><defs><clipPath id="f0bf3b59cf"><path d="M 5 5.578125 L 47 5.578125 L 47 46.828125 L 5 46.828125 Z M 5 5.578125 " clip-rule="nonzero"/></clipPath></defs><g clip-path="url(#f0bf3b59cf)"><path fill="#f7993e" d="M 33.132812 5.578125 C 31.964844 5.578125 30.8125 5.730469 29.679688 6.035156 C 28.550781 6.339844 27.476562 6.78125 26.464844 7.367188 C 25.449219 7.949219 24.527344 8.652344 23.699219 9.480469 C 22.871094 10.304688 22.164062 11.222656 21.578125 12.230469 L 9.082031 12.230469 C 8.898438 12.230469 8.742188 12.296875 8.609375 12.425781 C 8.480469 12.554688 8.414062 12.714844 8.414062 12.898438 L 8.414062 38.023438 L 5.144531 44.535156 C 5.09375 44.636719 5.070312 44.746094 5.074219 44.863281 C 5.078125 44.976562 5.113281 45.085938 5.171875 45.183594 C 5.234375 45.28125 5.316406 45.355469 5.417969 45.414062 C 5.515625 45.46875 5.625 45.496094 5.742188 45.496094 L 28.457031 45.496094 C 28.457031 45.675781 28.492188 45.84375 28.558594 46.007812 C 28.628906 46.167969 28.722656 46.3125 28.847656 46.4375 C 28.972656 46.5625 29.117188 46.660156 29.28125 46.726562 C 29.445312 46.792969 29.617188 46.828125 29.792969 46.828125 L 36.476562 46.828125 C 36.652344 46.828125 36.824219 46.792969 36.988281 46.726562 C 37.148438 46.660156 37.292969 46.5625 37.421875 46.4375 C 37.546875 46.3125 37.640625 46.167969 37.710938 46.007812 C 37.777344 45.84375 37.8125 45.675781 37.8125 45.496094 L 45.828125 45.496094 C 45.945312 45.5 46.054688 45.46875 46.15625 45.414062 C 46.257812 45.359375 46.339844 45.28125 46.398438 45.183594 C 46.460938 45.085938 46.496094 44.980469 46.5 44.863281 C 46.503906 44.746094 46.480469 44.636719 46.429688 44.535156 L 43.15625 38.023438 L 43.15625 27.65625 C 44.007812 26.695312 44.703125 25.636719 45.246094 24.476562 C 45.789062 23.316406 46.15625 22.105469 46.347656 20.839844 C 46.539062 19.574219 46.546875 18.308594 46.371094 17.042969 C 46.195312 15.773438 45.839844 14.558594 45.3125 13.390625 C 44.78125 12.226562 44.097656 11.15625 43.257812 10.1875 C 42.421875 9.21875 41.460938 8.386719 40.382812 7.695312 C 39.300781 7.003906 38.144531 6.476562 36.910156 6.117188 C 35.679688 5.753906 34.417969 5.574219 33.132812 5.578125 Z M 28.457031 44.167969 L 6.824219 44.167969 L 9.496094 38.84375 L 28.457031 38.84375 Z M 28.457031 37.511719 L 9.75 37.511719 L 9.75 13.5625 L 20.894531 13.5625 C 20.621094 14.1875 20.394531 14.832031 20.21875 15.492188 C 20.042969 16.152344 19.917969 16.820312 19.84375 17.5 C 19.773438 18.179688 19.753906 18.859375 19.789062 19.542969 C 19.824219 20.226562 19.910156 20.902344 20.046875 21.570312 C 20.1875 22.238281 20.378906 22.894531 20.617188 23.535156 C 20.859375 24.175781 21.148438 24.792969 21.484375 25.386719 C 21.820312 25.980469 22.203125 26.546875 22.628906 27.085938 C 23.050781 27.621094 23.515625 28.121094 24.019531 28.585938 L 22.28125 30.675781 L 16.753906 27.613281 C 16.609375 27.535156 16.453125 27.511719 16.289062 27.546875 C 16.128906 27.582031 15.996094 27.667969 15.898438 27.800781 L 11.886719 33.121094 L 12.957031 33.921875 L 16.617188 29.0625 L 22.121094 32.109375 C 22.261719 32.1875 22.410156 32.210938 22.570312 32.179688 C 22.726562 32.152344 22.855469 32.074219 22.960938 31.949219 L 25.039062 29.445312 C 26.46875 30.535156 28.050781 31.304688 29.792969 31.753906 L 29.792969 36.183594 C 29.617188 36.183594 29.445312 36.214844 29.28125 36.285156 C 29.117188 36.351562 28.972656 36.449219 28.847656 36.574219 C 28.722656 36.699219 28.628906 36.839844 28.558594 37.003906 C 28.492188 37.167969 28.457031 37.335938 28.457031 37.511719 Z M 29.792969 45.496094 L 29.792969 37.511719 L 36.476562 37.511719 L 36.476562 45.496094 Z M 31.128906 36.183594 L 31.128906 32.023438 C 32.464844 32.246094 33.800781 32.246094 35.140625 32.023438 L 35.140625 36.183594 Z M 36.476562 36.183594 L 36.476562 31.753906 C 38.472656 31.238281 40.253906 30.3125 41.820312 28.976562 L 41.820312 37.511719 L 37.8125 37.511719 C 37.8125 37.335938 37.777344 37.167969 37.710938 37.003906 C 37.640625 36.839844 37.546875 36.699219 37.421875 36.574219 C 37.292969 36.449219 37.148438 36.351562 36.988281 36.285156 C 36.824219 36.214844 36.652344 36.183594 36.476562 36.183594 Z M 44.746094 44.167969 L 37.8125 44.167969 L 37.8125 38.84375 L 42.074219 38.84375 Z M 33.132812 30.859375 C 32.34375 30.859375 31.5625 30.785156 30.789062 30.628906 C 30.015625 30.476562 29.261719 30.25 28.53125 29.949219 C 27.804688 29.648438 27.109375 29.277344 26.453125 28.84375 C 25.796875 28.40625 25.1875 27.910156 24.628906 27.351562 C 24.074219 26.796875 23.574219 26.191406 23.136719 25.539062 C 22.695312 24.882812 22.324219 24.195312 22.023438 23.46875 C 21.722656 22.742188 21.492188 21.992188 21.339844 21.222656 C 21.183594 20.449219 21.109375 19.671875 21.109375 18.882812 C 21.109375 18.097656 21.183594 17.320312 21.339844 16.546875 C 21.492188 15.777344 21.722656 15.027344 22.023438 14.300781 C 22.324219 13.574219 22.695312 12.886719 23.136719 12.230469 C 23.574219 11.578125 24.074219 10.972656 24.628906 10.417969 C 25.1875 9.859375 25.796875 9.363281 26.453125 8.925781 C 27.109375 8.488281 27.804688 8.121094 28.53125 7.820312 C 29.261719 7.519531 30.015625 7.292969 30.789062 7.140625 C 31.5625 6.984375 32.34375 6.910156 33.132812 6.910156 C 33.925781 6.910156 34.707031 6.984375 35.480469 7.140625 C 36.253906 7.292969 37.007812 7.519531 37.738281 7.820312 C 38.464844 8.121094 39.160156 8.488281 39.816406 8.925781 C 40.472656 9.363281 41.078125 9.859375 41.636719 10.417969 C 42.195312 10.972656 42.695312 11.578125 43.132812 12.230469 C 43.574219 12.886719 43.941406 13.574219 44.246094 14.300781 C 44.546875 15.027344 44.777344 15.777344 44.929688 16.546875 C 45.082031 17.320312 45.160156 18.097656 45.160156 18.882812 C 45.160156 19.671875 45.082031 20.449219 44.925781 21.21875 C 44.773438 21.992188 44.542969 22.738281 44.242188 23.464844 C 43.9375 24.191406 43.566406 24.882812 43.128906 25.535156 C 42.691406 26.1875 42.191406 26.792969 41.632812 27.347656 C 41.074219 27.90625 40.46875 28.402344 39.8125 28.835938 C 39.15625 29.273438 38.464844 29.644531 37.734375 29.945312 C 37.003906 30.246094 36.253906 30.472656 35.480469 30.628906 C 34.707031 30.78125 33.925781 30.859375 33.132812 30.859375 Z M 33.132812 30.859375 " fill-opacity="1" fill-rule="nonzero"/></g><path fill="#f7993e" d="M 33.132812 8.238281 C 32.433594 8.238281 31.738281 8.308594 31.050781 8.445312 C 30.359375 8.582031 29.691406 8.78125 29.042969 9.050781 C 28.394531 9.316406 27.777344 9.644531 27.195312 10.035156 C 26.613281 10.421875 26.070312 10.863281 25.574219 11.355469 C 25.078125 11.851562 24.636719 12.390625 24.246094 12.96875 C 23.855469 13.550781 23.527344 14.164062 23.257812 14.8125 C 22.988281 15.457031 22.785156 16.121094 22.648438 16.808594 C 22.511719 17.492188 22.445312 18.1875 22.445312 18.882812 C 22.445312 19.582031 22.511719 20.277344 22.648438 20.960938 C 22.785156 21.648438 22.988281 22.3125 23.257812 22.957031 C 23.527344 23.605469 23.855469 24.21875 24.246094 24.796875 C 24.636719 25.378906 25.078125 25.917969 25.574219 26.410156 C 26.070312 26.90625 26.613281 27.347656 27.195312 27.734375 C 27.777344 28.125 28.394531 28.453125 29.042969 28.71875 C 29.691406 28.988281 30.359375 29.1875 31.050781 29.324219 C 31.738281 29.460938 32.433594 29.53125 33.132812 29.53125 C 33.835938 29.53125 34.53125 29.460938 35.21875 29.324219 C 35.910156 29.1875 36.578125 28.988281 37.226562 28.71875 C 37.875 28.453125 38.488281 28.125 39.074219 27.734375 C 39.65625 27.347656 40.195312 26.90625 40.691406 26.410156 C 41.191406 25.917969 41.632812 25.378906 42.023438 24.796875 C 42.414062 24.21875 42.742188 23.605469 43.011719 22.957031 C 43.277344 22.3125 43.480469 21.648438 43.617188 20.960938 C 43.757812 20.277344 43.824219 19.582031 43.824219 18.882812 C 43.824219 18.1875 43.753906 17.492188 43.617188 16.808594 C 43.480469 16.125 43.277344 15.457031 43.007812 14.8125 C 42.738281 14.167969 42.410156 13.554688 42.019531 12.972656 C 41.628906 12.390625 41.1875 11.855469 40.691406 11.359375 C 40.195312 10.867188 39.652344 10.425781 39.070312 10.039062 C 38.488281 9.648438 37.871094 9.320312 37.222656 9.054688 C 36.574219 8.785156 35.90625 8.582031 35.21875 8.445312 C 34.53125 8.308594 33.835938 8.242188 33.132812 8.238281 Z M 33.132812 28.199219 C 31.082031 28.199219 29.234375 27.589844 27.589844 26.367188 L 34.644531 17.863281 L 34.882812 20.035156 L 36.210938 19.894531 L 35.800781 16.152344 C 35.78125 15.96875 35.699219 15.820312 35.558594 15.707031 C 35.414062 15.589844 35.25 15.542969 35.066406 15.5625 L 31.308594 15.96875 L 31.453125 17.289062 L 33.578125 17.0625 L 26.570312 25.511719 C 26.316406 25.261719 26.074219 24.996094 25.851562 24.71875 C 25.628906 24.441406 25.421875 24.152344 25.230469 23.847656 C 25.039062 23.546875 24.867188 23.238281 24.710938 22.914062 C 24.558594 22.59375 24.421875 22.265625 24.304688 21.929688 C 24.1875 21.59375 24.089844 21.25 24.015625 20.902344 C 23.9375 20.554688 23.878906 20.203125 23.84375 19.847656 C 23.804688 19.496094 23.789062 19.140625 23.792969 18.785156 C 23.796875 18.425781 23.824219 18.074219 23.867188 17.71875 C 23.914062 17.367188 23.976562 17.015625 24.0625 16.671875 C 24.148438 16.324219 24.253906 15.984375 24.378906 15.652344 C 24.503906 15.316406 24.644531 14.992188 24.808594 14.675781 C 24.96875 14.355469 25.148438 14.050781 25.347656 13.753906 C 25.542969 13.457031 25.757812 13.171875 25.988281 12.898438 C 26.21875 12.625 26.464844 12.367188 26.722656 12.121094 C 26.984375 11.878906 27.257812 11.648438 27.542969 11.4375 C 27.832031 11.222656 28.128906 11.027344 28.4375 10.847656 C 28.746094 10.667969 29.066406 10.507812 29.390625 10.363281 C 29.71875 10.222656 30.054688 10.097656 30.398438 9.992188 C 30.738281 9.890625 31.085938 9.804688 31.4375 9.738281 C 31.789062 9.675781 32.144531 9.628906 32.5 9.605469 C 32.855469 9.582031 33.214844 9.578125 33.570312 9.59375 C 33.929688 9.609375 34.285156 9.644531 34.636719 9.703125 C 34.988281 9.761719 35.339844 9.835938 35.683594 9.933594 C 36.027344 10.03125 36.363281 10.148438 36.695312 10.28125 C 37.027344 10.417969 37.347656 10.570312 37.660156 10.746094 C 37.972656 10.917969 38.277344 11.105469 38.566406 11.3125 C 38.859375 11.519531 39.136719 11.742188 39.402344 11.980469 C 39.667969 12.21875 39.917969 12.472656 40.15625 12.738281 C 40.390625 13.007812 40.613281 13.285156 40.816406 13.578125 C 41.019531 13.871094 41.207031 14.175781 41.375 14.488281 C 41.542969 14.804688 41.695312 15.125 41.828125 15.457031 C 41.960938 15.789062 42.070312 16.125 42.164062 16.46875 C 42.257812 16.8125 42.332031 17.160156 42.382812 17.511719 C 42.4375 17.863281 42.46875 18.21875 42.480469 18.574219 C 42.492188 18.929688 42.484375 19.285156 42.457031 19.640625 C 42.429688 19.996094 42.378906 20.347656 42.308594 20.699219 C 42.238281 21.046875 42.152344 21.390625 42.042969 21.730469 C 41.933594 22.070312 41.804688 22.402344 41.65625 22.726562 C 41.507812 23.050781 41.34375 23.367188 41.160156 23.671875 C 40.976562 23.976562 40.777344 24.273438 40.558594 24.554688 C 40.339844 24.835938 40.109375 25.105469 39.859375 25.363281 C 39.609375 25.617188 39.347656 25.859375 39.070312 26.085938 C 38.792969 26.3125 38.507812 26.519531 38.207031 26.714844 C 37.90625 26.90625 37.59375 27.082031 37.273438 27.238281 C 36.953125 27.398438 36.625 27.535156 36.289062 27.65625 C 35.949219 27.777344 35.609375 27.875 35.257812 27.957031 C 34.910156 28.039062 34.558594 28.097656 34.203125 28.136719 C 33.847656 28.179688 33.492188 28.199219 33.132812 28.199219 Z M 33.132812 28.199219 " fill-opacity="1" fill-rule="nonzero"/></svg>