<svg xmlns="http://www.w3.org/2000/svg" xmlns:xlink="http://www.w3.org/1999/xlink" width="50" zoomAndPan="magnify" viewBox="0 0 37.5 37.499999" height="50" preserveAspectRatio="xMidYMid meet" version="1.0"><defs><clipPath id="cba2dce2e5"><path d="M 0 29 L 19 29 L 19 37.007812 L 0 37.007812 Z M 0 29 " clip-rule="nonzero"/></clipPath><clipPath id="21f103a7c0"><path d="M 19 29 L 37.007812 29 L 37.007812 37.007812 L 19 37.007812 Z M 19 29 " clip-rule="nonzero"/></clipPath><clipPath id="4cded5c53d"><path d="M 19 10 L 37.007812 10 L 37.007812 19 L 19 19 Z M 19 10 " clip-rule="nonzero"/></clipPath><clipPath id="f934d869ab"><path d="M 29 19 L 37.007812 19 L 37.007812 29 L 29 29 Z M 29 19 " clip-rule="nonzero"/></clipPath></defs><path fill="#f7993e" d="M 3.886719 1.550781 C 3.886719 1.710938 3.832031 1.847656 3.714844 1.960938 C 3.601562 2.078125 3.464844 2.132812 3.304688 2.132812 C 3.140625 2.132812 3.003906 2.078125 2.890625 1.960938 C 2.773438 1.847656 2.71875 1.710938 2.71875 1.550781 C 2.71875 1.386719 2.773438 1.25 2.890625 1.136719 C 3.003906 1.023438 3.140625 0.964844 3.304688 0.964844 C 3.464844 0.964844 3.601562 1.023438 3.714844 1.136719 C 3.832031 1.25 3.886719 1.386719 3.886719 1.550781 Z M 3.886719 1.550781 " fill-opacity="1" fill-rule="nonzero"/><g clip-path="url(#cba2dce2e5)"><path fill="#f7993e" d="M 18.210938 35.746094 L 18.210938 31.070312 C 18.210938 30.105469 17.421875 29.316406 16.457031 29.316406 L 1.839844 29.316406 C 0.875 29.316406 0.0859375 30.105469 0.0859375 31.070312 L 0.0859375 35.746094 C 0.0859375 36.710938 0.875 37.5 1.839844 37.5 L 16.457031 37.5 C 17.421875 37.5 18.210938 36.710938 18.210938 35.746094 Z M 8.5625 36.332031 L 1.839844 36.332031 C 1.519531 36.332031 1.257812 36.066406 1.257812 35.746094 L 1.257812 31.070312 C 1.257812 30.75 1.519531 30.484375 1.839844 30.484375 L 8.5625 30.484375 Z M 9.734375 30.484375 L 16.457031 30.484375 C 16.777344 30.484375 17.039062 30.75 17.039062 31.070312 L 17.039062 35.746094 C 17.039062 36.066406 16.777344 36.332031 16.457031 36.332031 L 9.734375 36.332031 Z M 9.734375 30.484375 " fill-opacity="1" fill-rule="nonzero"/></g><g clip-path="url(#21f103a7c0)"><path fill="#f7993e" d="M 35.746094 29.316406 L 21.132812 29.316406 C 20.167969 29.316406 19.378906 30.105469 19.378906 31.070312 L 19.378906 35.746094 C 19.378906 36.710938 20.167969 37.5 21.132812 37.5 L 35.746094 37.5 C 36.710938 37.5 37.5 36.710938 37.5 35.746094 L 37.5 31.070312 C 37.5 30.105469 36.710938 29.316406 35.746094 29.316406 Z M 27.855469 36.332031 L 21.132812 36.332031 C 20.8125 36.332031 20.546875 36.066406 20.546875 35.746094 L 20.546875 31.070312 C 20.546875 30.75 20.8125 30.484375 21.132812 30.484375 L 27.855469 30.484375 Z M 36.332031 35.746094 C 36.332031 36.066406 36.066406 36.332031 35.746094 36.332031 L 29.023438 36.332031 L 29.023438 30.484375 L 35.746094 30.484375 C 36.066406 30.484375 36.332031 30.75 36.332031 31.070312 Z M 36.332031 35.746094 " fill-opacity="1" fill-rule="nonzero"/></g><path fill="#f7993e" d="M 27.855469 26.394531 L 27.855469 21.714844 C 27.855469 20.753906 27.066406 19.964844 26.101562 19.964844 L 11.488281 19.964844 C 10.523438 19.964844 9.734375 20.753906 9.734375 21.714844 L 9.734375 26.394531 C 9.734375 27.359375 10.523438 28.148438 11.488281 28.148438 L 26.101562 28.148438 C 27.066406 28.148438 27.855469 27.359375 27.855469 26.394531 Z M 18.210938 26.976562 L 11.488281 26.976562 C 11.164062 26.976562 10.902344 26.714844 10.902344 26.394531 L 10.902344 21.714844 C 10.902344 21.394531 11.164062 21.132812 11.488281 21.132812 L 18.210938 21.132812 Z M 19.378906 21.132812 L 26.101562 21.132812 C 26.421875 21.132812 26.683594 21.394531 26.683594 21.714844 L 26.683594 26.394531 C 26.683594 26.714844 26.421875 26.976562 26.101562 26.976562 L 19.378906 26.976562 Z M 19.378906 21.132812 " fill-opacity="1" fill-rule="nonzero"/><g clip-path="url(#4cded5c53d)"><path fill="#f7993e" d="M 35.746094 10.609375 L 21.132812 10.609375 C 20.167969 10.609375 19.378906 11.398438 19.378906 12.363281 L 19.378906 17.039062 C 19.378906 18.003906 20.167969 18.792969 21.132812 18.792969 L 35.746094 18.792969 C 36.710938 18.792969 37.5 18.003906 37.5 17.039062 L 37.5 12.363281 C 37.5 11.398438 36.710938 10.609375 35.746094 10.609375 Z M 27.855469 17.625 L 21.132812 17.625 C 20.8125 17.625 20.546875 17.363281 20.546875 17.039062 L 20.546875 12.363281 C 20.546875 12.042969 20.8125 11.777344 21.132812 11.777344 L 27.855469 11.777344 Z M 36.332031 17.039062 C 36.332031 17.363281 36.066406 17.625 35.746094 17.625 L 29.023438 17.625 L 29.023438 11.777344 L 35.746094 11.777344 C 36.066406 11.777344 36.332031 12.042969 36.332031 12.363281 Z M 36.332031 17.039062 " fill-opacity="1" fill-rule="nonzero"/></g><g clip-path="url(#f934d869ab)"><path fill="#f7993e" d="M 30.835938 21.132812 L 36.914062 21.132812 C 37.238281 21.132812 37.5 20.867188 37.5 20.546875 C 37.5 20.226562 37.238281 19.964844 36.914062 19.964844 L 30.835938 19.964844 C 29.84375 19.964844 29.023438 20.753906 29.023438 21.714844 L 29.023438 26.394531 C 29.023438 27.359375 29.84375 28.148438 30.835938 28.148438 L 36.914062 28.148438 C 37.238281 28.148438 37.5 27.882812 37.5 27.5625 C 37.5 27.242188 37.238281 26.976562 36.914062 26.976562 L 30.835938 26.976562 C 30.484375 26.976562 30.191406 26.714844 30.191406 26.394531 L 30.191406 21.714844 C 30.191406 21.394531 30.484375 21.132812 30.835938 21.132812 Z M 30.835938 21.132812 " fill-opacity="1" fill-rule="nonzero"/></g><path fill="#f7993e" d="M 17.535156 10.988281 L 17.59375 10.902344 C 17.652344 10.785156 17.652344 10.640625 17.625 10.523438 L 16.71875 6.519531 C 16.6875 6.34375 16.574219 6.226562 16.425781 6.136719 L 12.335938 3.917969 C 12.394531 3.769531 12.421875 3.59375 12.335938 3.417969 L 11.046875 0.496094 C 10.929688 0.234375 10.699219 0.0859375 10.433594 0.0859375 C 10.347656 0.0859375 10.257812 0.117188 10.171875 0.144531 L 2.6875 3.417969 L 1.199219 0.410156 C 1.050781 0.117188 0.703125 0 0.410156 0.144531 C 0.117188 0.292969 0 0.644531 0.144531 0.933594 L 1.609375 3.886719 L 1.050781 4.121094 C 0.730469 4.265625 0.585938 4.617188 0.703125 4.941406 L 1.988281 7.863281 C 2.105469 8.125 2.339844 8.273438 2.601562 8.273438 C 2.660156 8.273438 2.6875 8.273438 2.746094 8.242188 L 3.011719 9.558594 C 3.070312 9.820312 3.304688 10.023438 3.59375 10.023438 L 12.65625 10.023438 L 13.09375 10.609375 L 1.839844 10.609375 C 0.875 10.609375 0.0859375 11.398438 0.0859375 12.363281 L 0.0859375 17.039062 C 0.0859375 18.003906 0.875 18.792969 1.839844 18.792969 L 16.457031 18.792969 C 17.421875 18.792969 18.210938 18.003906 18.210938 17.039062 L 18.210938 12.363281 C 18.210938 11.808594 17.945312 11.3125 17.535156 10.988281 Z M 2.863281 6.957031 L 2.015625 5 L 2.542969 4.765625 C 2.601562 4.765625 2.628906 4.734375 2.6875 4.707031 C 2.71875 4.707031 2.746094 4.675781 2.746094 4.675781 L 10.171875 1.402344 L 11.019531 3.359375 Z M 12.949219 8.855469 L 4.0625 8.855469 L 3.828125 7.804688 L 11.105469 4.617188 L 15.578125 7.042969 L 16.398438 10.609375 L 14.554688 14.46875 C 14.4375 14.671875 14.234375 14.789062 14 14.703125 C 13.765625 14.613281 13.648438 14.378906 13.679688 14.148438 L 14.410156 10.757812 C 14.4375 10.582031 14.410156 10.433594 14.320312 10.289062 L 13.445312 9.089844 C 13.300781 8.945312 13.125 8.855469 12.949219 8.855469 Z M 8.5625 17.625 L 1.839844 17.625 C 1.519531 17.625 1.257812 17.363281 1.257812 17.039062 L 1.257812 12.363281 C 1.257812 12.042969 1.519531 11.777344 1.839844 11.777344 L 8.5625 11.777344 Z M 17.039062 17.039062 C 17.039062 17.363281 16.777344 17.625 16.457031 17.625 L 9.734375 17.625 L 9.734375 11.777344 L 13.007812 11.777344 L 12.566406 13.882812 C 12.394531 14.703125 12.859375 15.519531 13.648438 15.785156 C 13.824219 15.839844 14 15.871094 14.148438 15.871094 C 14.761719 15.871094 15.34375 15.519531 15.609375 14.9375 L 16.953125 12.101562 C 16.980469 12.1875 17.011719 12.246094 17.011719 12.363281 L 17.011719 17.039062 Z M 17.039062 17.039062 " fill-opacity="1" fill-rule="nonzero"/></svg>