<svg xmlns="http://www.w3.org/2000/svg" xmlns:xlink="http://www.w3.org/1999/xlink" width="50" zoomAndPan="magnify" viewBox="0 0 37.5 37.499999" height="50" preserveAspectRatio="xMidYMid meet" version="1.0"><defs><clipPath id="60b38843ea"><path d="M 28 6 L 36.820312 6 L 36.820312 23 L 28 23 Z M 28 6 " clip-rule="nonzero"/></clipPath><clipPath id="3100fb4a5e"><path d="M 31 23 L 36.820312 23 L 36.820312 30 L 31 30 Z M 31 23 " clip-rule="nonzero"/></clipPath></defs><path fill="#f7993e" d="M 28.378906 22.257812 L 28.378906 15.574219 C 28.378906 15.421875 28.324219 15.292969 28.214844 15.183594 C 28.105469 15.074219 27.976562 15.019531 27.820312 15.019531 L 24.464844 15.019531 C 24.3125 15.019531 24.179688 15.074219 24.070312 15.183594 C 23.960938 15.292969 23.90625 15.421875 23.90625 15.574219 L 23.90625 22.257812 C 23.90625 22.410156 23.960938 22.542969 24.070312 22.652344 C 24.179688 22.761719 24.3125 22.816406 24.464844 22.816406 L 27.820312 22.816406 C 27.976562 22.816406 28.105469 22.761719 28.214844 22.652344 C 28.324219 22.542969 28.378906 22.410156 28.378906 22.257812 Z M 27.261719 21.699219 L 25.023438 21.699219 L 25.023438 16.132812 L 27.261719 16.132812 Z M 27.261719 21.699219 " fill-opacity="1" fill-rule="nonzero"/><path fill="#f7993e" d="M 17.757812 18.359375 C 17.605469 18.359375 17.472656 18.414062 17.363281 18.523438 C 17.253906 18.632812 17.199219 18.761719 17.199219 18.917969 L 17.199219 22.257812 C 17.199219 22.410156 17.253906 22.542969 17.363281 22.652344 C 17.472656 22.761719 17.605469 22.816406 17.757812 22.816406 L 21.113281 22.816406 C 21.265625 22.816406 21.398438 22.761719 21.507812 22.652344 C 21.617188 22.542969 21.671875 22.410156 21.671875 22.257812 L 21.671875 18.917969 C 21.671875 18.761719 21.617188 18.632812 21.507812 18.523438 C 21.398438 18.414062 21.265625 18.359375 21.113281 18.359375 Z M 20.554688 21.699219 L 18.316406 21.699219 L 18.316406 19.472656 L 20.554688 19.472656 Z M 20.554688 21.699219 " fill-opacity="1" fill-rule="nonzero"/><g clip-path="url(#60b38843ea)"><path fill="#f7993e" d="M 32.402344 6.890625 L 29.050781 11.34375 C 28.910156 11.527344 28.894531 11.722656 28.996094 11.925781 C 29.101562 12.132812 29.265625 12.234375 29.496094 12.234375 L 30.617188 12.234375 L 30.617188 22.257812 C 30.617188 22.410156 30.667969 22.542969 30.777344 22.652344 C 30.886719 22.761719 31.019531 22.816406 31.175781 22.816406 L 34.527344 22.816406 C 34.683594 22.816406 34.816406 22.761719 34.921875 22.652344 C 35.03125 22.542969 35.085938 22.410156 35.085938 22.257812 L 35.085938 12.234375 L 36.207031 12.234375 C 36.4375 12.234375 36.601562 12.132812 36.707031 11.925781 C 36.808594 11.722656 36.789062 11.527344 36.652344 11.34375 L 33.296875 6.890625 C 33.242188 6.824219 33.175781 6.769531 33.097656 6.734375 C 33.019531 6.699219 32.9375 6.679688 32.851562 6.679688 C 32.765625 6.679688 32.683594 6.699219 32.605469 6.734375 C 32.527344 6.769531 32.460938 6.824219 32.402344 6.890625 Z M 34.527344 11.121094 C 34.375 11.121094 34.242188 11.175781 34.132812 11.285156 C 34.023438 11.394531 33.96875 11.523438 33.96875 11.679688 L 33.96875 21.699219 L 31.734375 21.699219 L 31.734375 11.679688 C 31.734375 11.523438 31.679688 11.394531 31.570312 11.285156 C 31.460938 11.175781 31.328125 11.121094 31.175781 11.121094 L 30.617188 11.121094 L 32.851562 8.152344 L 35.085938 11.121094 Z M 34.527344 11.121094 " fill-opacity="1" fill-rule="nonzero"/></g><path fill="#f7993e" d="M 4.902344 17.550781 L 4.902344 20.28125 C 4.902344 20.527344 4.949219 20.761719 5.042969 20.988281 C 5.136719 21.214844 5.269531 21.414062 5.445312 21.585938 C 5.617188 21.757812 5.816406 21.890625 6.042969 21.984375 C 6.269531 22.078125 6.507812 22.125 6.75 22.125 C 6.914062 22.125 7.0625 22.167969 7.195312 22.261719 C 7.328125 22.355469 7.421875 22.480469 7.472656 22.636719 C 7.699219 23.351562 7.984375 24.042969 8.335938 24.707031 C 8.410156 24.855469 8.433594 25.007812 8.40625 25.171875 C 8.378906 25.332031 8.304688 25.46875 8.1875 25.582031 C 8.015625 25.757812 7.882812 25.957031 7.789062 26.183594 C 7.695312 26.40625 7.648438 26.640625 7.648438 26.886719 C 7.648438 27.128906 7.695312 27.367188 7.789062 27.589844 C 7.882812 27.816406 8.015625 28.015625 8.1875 28.1875 L 10.128906 30.121094 C 10.304688 30.289062 10.503906 30.417969 10.730469 30.507812 C 10.957031 30.597656 11.191406 30.644531 11.4375 30.644531 C 11.679688 30.644531 11.914062 30.597656 12.140625 30.507812 C 12.367188 30.417969 12.570312 30.289062 12.746094 30.121094 C 12.859375 30.003906 13 29.933594 13.160156 29.90625 C 13.320312 29.878906 13.476562 29.902344 13.621094 29.972656 C 14.289062 30.324219 14.984375 30.609375 15.703125 30.835938 C 15.855469 30.886719 15.980469 30.980469 16.074219 31.109375 C 16.167969 31.242188 16.214844 31.390625 16.214844 31.554688 C 16.214844 31.796875 16.261719 32.03125 16.355469 32.257812 C 16.449219 32.484375 16.585938 32.683594 16.757812 32.855469 C 16.929688 33.027344 17.132812 33.160156 17.355469 33.253906 C 17.582031 33.347656 17.820312 33.394531 18.066406 33.394531 L 20.804688 33.394531 C 21.050781 33.394531 21.285156 33.347656 21.511719 33.253906 C 21.738281 33.160156 21.9375 33.027344 22.113281 32.855469 C 22.285156 32.679688 22.417969 32.480469 22.511719 32.257812 C 22.605469 32.03125 22.652344 31.796875 22.652344 31.550781 C 22.652344 31.390625 22.699219 31.242188 22.792969 31.109375 C 22.886719 30.976562 23.011719 30.882812 23.167969 30.832031 C 23.886719 30.609375 24.582031 30.320312 25.25 29.972656 C 25.394531 29.898438 25.550781 29.875 25.710938 29.902344 C 25.875 29.929688 26.011719 30.003906 26.128906 30.121094 C 26.304688 30.285156 26.503906 30.414062 26.730469 30.507812 C 26.957031 30.597656 27.191406 30.640625 27.433594 30.640625 C 27.679688 30.640625 27.914062 30.597656 28.140625 30.507812 C 28.367188 30.414062 28.566406 30.285156 28.742188 30.121094 L 30.683594 28.1875 C 30.855469 28.015625 30.988281 27.816406 31.082031 27.589844 C 31.175781 27.363281 31.222656 27.128906 31.222656 26.882812 C 31.222656 26.640625 31.175781 26.402344 31.082031 26.179688 C 30.988281 25.953125 30.855469 25.753906 30.683594 25.578125 C 30.566406 25.464844 30.492188 25.328125 30.464844 25.167969 C 30.4375 25.007812 30.460938 24.851562 30.535156 24.707031 C 30.667969 24.453125 30.785156 24.191406 30.902344 23.925781 L 29.664062 23.925781 C 29.621094 24.011719 29.585938 24.101562 29.542969 24.1875 C 29.351562 24.550781 29.289062 24.933594 29.355469 25.335938 C 29.417969 25.738281 29.597656 26.082031 29.890625 26.367188 C 30.03125 26.511719 30.105469 26.683594 30.105469 26.882812 C 30.105469 27.085938 30.03125 27.257812 29.890625 27.398438 L 27.949219 29.332031 C 27.804688 29.46875 27.632812 29.539062 27.433594 29.539062 C 27.230469 29.539062 27.058594 29.46875 26.914062 29.332031 C 26.628906 29.039062 26.28125 28.863281 25.878906 28.796875 C 25.472656 28.734375 25.089844 28.796875 24.726562 28.984375 C 24.121094 29.304688 23.488281 29.5625 22.832031 29.769531 C 22.445312 29.890625 22.128906 30.117188 21.890625 30.445312 C 21.652344 30.777344 21.53125 31.144531 21.535156 31.550781 C 21.535156 31.753906 21.464844 31.925781 21.324219 32.066406 C 21.179688 32.207031 21.007812 32.28125 20.804688 32.28125 L 18.066406 32.28125 C 17.863281 32.28125 17.691406 32.210938 17.550781 32.066406 C 17.40625 31.925781 17.335938 31.753906 17.335938 31.550781 C 17.339844 31.144531 17.21875 30.777344 16.980469 30.449219 C 16.742188 30.117188 16.425781 29.890625 16.039062 29.769531 C 15.382812 29.566406 14.753906 29.304688 14.144531 28.988281 C 13.875 28.84375 13.589844 28.773438 13.285156 28.773438 C 12.765625 28.773438 12.320312 28.960938 11.953125 29.328125 C 11.808594 29.46875 11.636719 29.535156 11.433594 29.535156 C 11.234375 29.535156 11.0625 29.46875 10.917969 29.328125 L 8.980469 27.402344 C 8.839844 27.257812 8.765625 27.085938 8.765625 26.882812 C 8.765625 26.683594 8.839844 26.511719 8.980469 26.367188 C 9.273438 26.082031 9.453125 25.738281 9.515625 25.335938 C 9.582031 24.933594 9.515625 24.550781 9.328125 24.1875 C 9.007812 23.585938 8.746094 22.957031 8.542969 22.304688 C 8.417969 21.914062 8.191406 21.601562 7.863281 21.363281 C 7.53125 21.125 7.160156 21.007812 6.753906 21.011719 C 6.550781 21.011719 6.378906 20.941406 6.234375 20.796875 C 6.089844 20.65625 6.019531 20.484375 6.019531 20.28125 L 6.019531 17.550781 C 6.019531 17.351562 6.089844 17.179688 6.234375 17.035156 C 6.378906 16.894531 6.550781 16.824219 6.75 16.824219 C 7.160156 16.828125 7.527344 16.707031 7.859375 16.46875 C 8.191406 16.230469 8.417969 15.917969 8.539062 15.53125 C 8.742188 14.878906 9.003906 14.25 9.324219 13.644531 C 9.511719 13.285156 9.574219 12.902344 9.511719 12.496094 C 9.445312 12.09375 9.269531 11.75 8.976562 11.464844 C 8.832031 11.320312 8.761719 11.148438 8.761719 10.949219 C 8.761719 10.746094 8.832031 10.574219 8.976562 10.433594 L 10.917969 8.503906 C 11.0625 8.367188 11.234375 8.296875 11.4375 8.296875 C 11.636719 8.296875 11.808594 8.367188 11.953125 8.503906 C 12.242188 8.796875 12.585938 8.972656 12.992188 9.035156 C 13.394531 9.101562 13.777344 9.039062 14.140625 8.847656 C 14.757812 8.527344 15.398438 8.261719 16.0625 8.058594 C 16.445312 7.933594 16.753906 7.707031 16.988281 7.378906 C 17.222656 7.050781 17.339844 6.683594 17.332031 6.28125 C 17.332031 6.082031 17.402344 5.910156 17.546875 5.765625 C 17.691406 5.625 17.863281 5.554688 18.066406 5.554688 L 20.804688 5.554688 C 21.003906 5.554688 21.179688 5.625 21.320312 5.765625 C 21.464844 5.910156 21.535156 6.082031 21.535156 6.28125 C 21.53125 6.6875 21.648438 7.058594 21.890625 7.386719 C 22.128906 7.714844 22.445312 7.941406 22.832031 8.066406 C 23.488281 8.269531 24.117188 8.53125 24.726562 8.847656 C 25.089844 9.035156 25.472656 9.097656 25.878906 9.035156 C 26.28125 8.972656 26.628906 8.792969 26.914062 8.5 C 27.058594 8.363281 27.234375 8.292969 27.433594 8.292969 C 27.632812 8.292969 27.804688 8.363281 27.949219 8.5 L 28.976562 9.523438 L 29.664062 8.632812 L 28.742188 7.714844 C 28.566406 7.546875 28.367188 7.417969 28.140625 7.328125 C 27.914062 7.238281 27.679688 7.191406 27.433594 7.191406 C 27.191406 7.191406 26.957031 7.238281 26.730469 7.328125 C 26.503906 7.417969 26.300781 7.546875 26.125 7.714844 C 26.011719 7.832031 25.871094 7.902344 25.710938 7.929688 C 25.546875 7.957031 25.394531 7.933594 25.246094 7.863281 C 24.582031 7.511719 23.886719 7.226562 23.167969 7 C 23.015625 6.949219 22.890625 6.855469 22.796875 6.722656 C 22.699219 6.589844 22.65625 6.445312 22.65625 6.28125 C 22.65625 6.039062 22.609375 5.800781 22.515625 5.578125 C 22.421875 5.351562 22.285156 5.152344 22.113281 4.980469 C 21.941406 4.808594 21.738281 4.675781 21.511719 4.582031 C 21.285156 4.488281 21.050781 4.441406 20.804688 4.441406 L 18.066406 4.441406 C 17.820312 4.441406 17.582031 4.488281 17.355469 4.585938 C 17.125 4.679688 16.925781 4.816406 16.75 4.992188 C 16.578125 5.167969 16.445312 5.367188 16.351562 5.597656 C 16.257812 5.824219 16.214844 6.0625 16.214844 6.308594 C 16.21875 6.464844 16.175781 6.605469 16.085938 6.730469 C 15.996094 6.855469 15.878906 6.945312 15.730469 6.992188 C 15.003906 7.21875 14.296875 7.507812 13.621094 7.863281 C 13.472656 7.933594 13.320312 7.957031 13.15625 7.929688 C 12.996094 7.902344 12.859375 7.832031 12.742188 7.714844 C 12.566406 7.546875 12.367188 7.417969 12.140625 7.328125 C 11.914062 7.238281 11.679688 7.191406 11.433594 7.191406 C 11.191406 7.191406 10.957031 7.238281 10.730469 7.328125 C 10.503906 7.417969 10.304688 7.546875 10.128906 7.714844 L 8.1875 9.644531 C 8.015625 9.820312 7.882812 10.019531 7.789062 10.246094 C 7.695312 10.46875 7.648438 10.707031 7.648438 10.949219 C 7.648438 11.195312 7.695312 11.429688 7.789062 11.65625 C 7.882812 11.882812 8.015625 12.082031 8.1875 12.253906 C 8.304688 12.367188 8.378906 12.503906 8.40625 12.667969 C 8.433594 12.828125 8.410156 12.980469 8.335938 13.128906 C 7.984375 13.792969 7.695312 14.480469 7.472656 15.199219 C 7.421875 15.351562 7.328125 15.476562 7.195312 15.570312 C 7.0625 15.664062 6.914062 15.710938 6.75 15.707031 C 6.503906 15.710938 6.269531 15.757812 6.042969 15.851562 C 5.816406 15.941406 5.617188 16.078125 5.441406 16.25 C 5.269531 16.421875 5.136719 16.621094 5.042969 16.847656 C 4.949219 17.070312 4.902344 17.308594 4.902344 17.550781 Z M 4.902344 17.550781 " fill-opacity="1" fill-rule="nonzero"/><path fill="#f7993e" d="M 25.515625 14.015625 L 26.210938 13.117188 C 25.804688 12.648438 25.355469 12.226562 24.863281 11.851562 C 24.371094 11.476562 23.847656 11.152344 23.289062 10.886719 C 22.726562 10.621094 22.148438 10.414062 21.542969 10.269531 C 20.941406 10.125 20.332031 10.039062 19.710938 10.023438 C 19.09375 10.003906 18.476562 10.046875 17.867188 10.15625 C 17.257812 10.261719 16.664062 10.433594 16.089844 10.664062 C 15.511719 10.894531 14.96875 11.183594 14.453125 11.527344 C 13.9375 11.871094 13.464844 12.261719 13.03125 12.707031 C 12.597656 13.148438 12.214844 13.628906 11.882812 14.152344 C 11.550781 14.671875 11.277344 15.222656 11.058594 15.800781 C 10.84375 16.378906 10.6875 16.972656 10.59375 17.582031 C 10.5 18.195312 10.472656 18.808594 10.507812 19.425781 C 10.542969 20.042969 10.640625 20.648438 10.800781 21.242188 C 10.964844 21.839844 11.1875 22.414062 11.46875 22.964844 C 11.75 23.511719 12.085938 24.027344 12.472656 24.511719 C 12.863281 24.992188 13.296875 25.425781 13.777344 25.816406 C 14.257812 26.207031 14.773438 26.546875 15.324219 26.828125 C 15.875 27.113281 16.449219 27.335938 17.046875 27.503906 C 17.644531 27.667969 18.25 27.769531 18.871094 27.808594 C 19.488281 27.847656 20.105469 27.820312 20.71875 27.734375 C 21.332031 27.644531 21.929688 27.492188 22.511719 27.28125 C 23.09375 27.066406 23.648438 26.796875 24.171875 26.46875 C 24.699219 26.144531 25.183594 25.765625 25.632812 25.335938 C 26.078125 24.910156 26.476562 24.4375 26.824219 23.929688 L 25.421875 23.929688 C 25.078125 24.335938 24.695312 24.707031 24.273438 25.035156 C 23.855469 25.367188 23.40625 25.648438 22.925781 25.886719 C 22.449219 26.125 21.949219 26.3125 21.433594 26.449219 C 20.917969 26.585938 20.390625 26.671875 19.855469 26.699219 C 19.320312 26.730469 18.789062 26.703125 18.261719 26.625 C 17.730469 26.546875 17.21875 26.414062 16.714844 26.226562 C 16.214844 26.042969 15.734375 25.808594 15.28125 25.527344 C 14.828125 25.246094 14.40625 24.921875 14.019531 24.550781 C 13.632812 24.183594 13.289062 23.78125 12.984375 23.339844 C 12.679688 22.902344 12.425781 22.4375 12.21875 21.945312 C 12.007812 21.457031 11.851562 20.949219 11.75 20.425781 C 11.644531 19.902344 11.597656 19.375 11.601562 18.84375 C 11.605469 18.308594 11.664062 17.78125 11.78125 17.261719 C 11.894531 16.742188 12.058594 16.238281 12.277344 15.75 C 12.492188 15.261719 12.757812 14.804688 13.070312 14.371094 C 13.382812 13.9375 13.734375 13.539062 14.128906 13.179688 C 14.523438 12.820312 14.949219 12.5 15.40625 12.226562 C 15.867188 11.953125 16.347656 11.730469 16.855469 11.554688 C 17.359375 11.378906 17.878906 11.257812 18.40625 11.1875 C 18.9375 11.117188 19.46875 11.101562 20.003906 11.140625 C 20.539062 11.179688 21.0625 11.273438 21.574219 11.421875 C 22.089844 11.566406 22.585938 11.761719 23.058594 12.011719 C 23.53125 12.257812 23.976562 12.550781 24.390625 12.886719 C 24.804688 13.226562 25.179688 13.601562 25.515625 14.015625 Z M 25.515625 14.015625 " fill-opacity="1" fill-rule="nonzero"/><path fill="#f7993e" d="M 6.882812 29.136719 C 6.296875 28.421875 5.773438 27.660156 5.320312 26.855469 C 4.863281 26.050781 4.480469 25.210938 4.167969 24.339844 C 3.859375 23.46875 3.625 22.578125 3.464844 21.667969 C 3.308594 20.757812 3.230469 19.839844 3.230469 18.917969 C 3.230469 17.992188 3.308594 17.074219 3.464844 16.164062 C 3.625 15.253906 3.859375 14.363281 4.167969 13.492188 C 4.480469 12.621094 4.863281 11.785156 5.320312 10.980469 C 5.773438 10.175781 6.296875 9.414062 6.882812 8.695312 L 6.019531 7.992188 C 5.390625 8.757812 4.835938 9.570312 4.347656 10.429688 C 3.863281 11.292969 3.453125 12.1875 3.117188 13.117188 C 2.785156 14.050781 2.535156 15 2.367188 15.976562 C 2.199219 16.949219 2.113281 17.929688 2.113281 18.917969 C 2.113281 19.90625 2.199219 20.886719 2.367188 21.859375 C 2.535156 22.832031 2.785156 23.785156 3.117188 24.714844 C 3.453125 25.648438 3.863281 26.542969 4.347656 27.402344 C 4.835938 28.265625 5.390625 29.078125 6.019531 29.84375 Z M 6.882812 29.136719 " fill-opacity="1" fill-rule="nonzero"/><path fill="#f7993e" d="M 7.183594 31.121094 C 7.316406 31.257812 7.457031 31.390625 7.597656 31.523438 L 8.359375 30.710938 C 8.230469 30.585938 8.101562 30.460938 7.96875 30.335938 C 7.835938 30.207031 7.714844 30.078125 7.59375 29.945312 L 6.78125 30.710938 C 6.914062 30.847656 7.046875 30.988281 7.183594 31.121094 Z M 7.183594 31.121094 " fill-opacity="1" fill-rule="nonzero"/><path fill="#f7993e" d="M 9.175781 31.421875 L 8.46875 32.28125 C 9.234375 32.90625 10.050781 33.460938 10.917969 33.945312 C 11.78125 34.429688 12.679688 34.839844 13.613281 35.167969 C 14.546875 35.5 15.503906 35.75 16.480469 35.917969 C 17.457031 36.085938 18.445312 36.171875 19.433594 36.171875 C 20.425781 36.171875 21.410156 36.085938 22.390625 35.917969 C 23.367188 35.75 24.324219 35.5 25.257812 35.167969 C 26.191406 34.839844 27.089844 34.429688 27.953125 33.945312 C 28.820312 33.460938 29.636719 32.90625 30.402344 32.28125 L 29.695312 31.421875 C 28.976562 32.003906 28.210938 32.523438 27.402344 32.976562 C 26.597656 33.429688 25.753906 33.8125 24.878906 34.121094 C 24.007812 34.433594 23.113281 34.664062 22.199219 34.824219 C 21.285156 34.980469 20.363281 35.058594 19.433594 35.058594 C 18.507812 35.058594 17.585938 34.980469 16.671875 34.824219 C 15.757812 34.667969 14.863281 34.433594 13.988281 34.121094 C 13.117188 33.8125 12.273438 33.429688 11.464844 32.976562 C 10.65625 32.523438 9.894531 32.003906 9.175781 31.421875 Z M 9.175781 31.421875 " fill-opacity="1" fill-rule="nonzero"/><path fill="#f7993e" d="M 30.898438 30.335938 C 30.769531 30.460938 30.640625 30.585938 30.511719 30.710938 L 31.273438 31.523438 C 31.414062 31.394531 31.550781 31.257812 31.6875 31.125 C 31.824219 30.988281 31.957031 30.847656 32.089844 30.710938 L 31.277344 29.949219 C 31.152344 30.078125 31.027344 30.207031 30.898438 30.335938 Z M 30.898438 30.335938 " fill-opacity="1" fill-rule="nonzero"/><path fill="#f7993e" d="M 7.972656 7.5 C 8.101562 7.371094 8.230469 7.246094 8.359375 7.125 L 7.597656 6.3125 C 7.457031 6.441406 7.320312 6.574219 7.183594 6.710938 C 7.046875 6.847656 6.914062 6.984375 6.78125 7.125 L 7.59375 7.886719 C 7.71875 7.757812 7.84375 7.625 7.972656 7.5 Z M 7.972656 7.5 " fill-opacity="1" fill-rule="nonzero"/><path fill="#f7993e" d="M 30.6875 7.308594 L 31.371094 6.417969 C 30.613281 5.699219 29.796875 5.054688 28.921875 4.484375 C 28.046875 3.910156 27.125 3.421875 26.164062 3.015625 C 25.199219 2.609375 24.207031 2.292969 23.183594 2.066406 C 22.164062 1.839844 21.128906 1.707031 20.082031 1.667969 C 19.039062 1.628906 17.996094 1.683594 16.960938 1.832031 C 15.925781 1.980469 14.910156 2.222656 13.917969 2.554688 C 12.925781 2.882812 11.972656 3.300781 11.054688 3.808594 C 10.140625 4.3125 9.277344 4.894531 8.46875 5.554688 L 9.175781 6.414062 C 9.9375 5.792969 10.75 5.246094 11.609375 4.773438 C 12.472656 4.300781 13.371094 3.910156 14.304688 3.597656 C 15.238281 3.289062 16.191406 3.066406 17.164062 2.929688 C 18.140625 2.792969 19.117188 2.742188 20.101562 2.785156 C 21.085938 2.824219 22.054688 2.953125 23.015625 3.171875 C 23.976562 3.390625 24.90625 3.691406 25.8125 4.078125 C 26.714844 4.464844 27.578125 4.929688 28.394531 5.472656 C 29.214844 6.015625 29.980469 6.628906 30.6875 7.308594 Z M 30.6875 7.308594 " fill-opacity="1" fill-rule="nonzero"/><g clip-path="url(#3100fb4a5e)"><path fill="#f7993e" d="M 36.015625 23.929688 L 34.832031 23.929688 C 34.210938 25.839844 33.261719 27.578125 31.988281 29.136719 L 32.851562 29.84375 C 34.296875 28.078125 35.351562 26.109375 36.015625 23.929688 Z M 36.015625 23.929688 " fill-opacity="1" fill-rule="nonzero"/></g></svg>