<svg xmlns="http://www.w3.org/2000/svg" xmlns:xlink="http://www.w3.org/1999/xlink" width="50" zoomAndPan="magnify" viewBox="0 0 37.5 37.499999" height="50" preserveAspectRatio="xMidYMid meet" version="1.0"><defs><clipPath id="33e22e5996"><path d="M 2.34375 0 L 34 0 L 34 37.007812 L 2.34375 37.007812 Z M 2.34375 0 " clip-rule="nonzero"/></clipPath></defs><g clip-path="url(#33e22e5996)"><path fill="#f7993e" d="M 29.546875 21.84375 C 27.738281 23.207031 26.9375 24.996094 27.222656 27.023438 L 27.613281 35.738281 C 27.617188 35.882812 27.546875 35.980469 27.503906 36.023438 C 27.460938 36.070312 27.367188 36.144531 27.222656 36.144531 L 16.941406 36.144531 C 16.75 36.144531 16.589844 36.007812 16.554688 35.820312 L 15.65625 30.601562 C 15.4375 29.332031 14.335938 28.410156 13.039062 28.410156 L 9.171875 28.410156 C 8.832031 28.410156 8.527344 28.21875 8.375 27.917969 L 7.296875 22.921875 C 7.246094 22.203125 6.582031 21.570312 5.835938 21.570312 L 3.757812 21.574219 L 5.414062 19.039062 C 5.992188 18.15625 6.296875 17.136719 6.296875 16.082031 L 6.296875 12.925781 C 6.296875 9.753906 7.585938 6.777344 9.835938 4.765625 C 12.359375 2.5 15.742188 1.355469 19.882812 1.355469 C 31.183594 1.355469 32.351562 10.996094 32.40625 11.472656 C 32.421875 11.542969 33.828125 18.621094 29.546875 21.84375 Z M 33.738281 11.265625 C 33.730469 11.152344 32.421875 0.015625 19.882812 0.015625 C 15.398438 0.015625 11.714844 1.277344 8.929688 3.769531 C 6.402344 6.039062 4.949219 9.375 4.949219 12.925781 L 4.949219 16.082031 C 4.949219 16.875 4.71875 17.644531 4.285156 18.308594 L 2.625 20.839844 C 2.347656 21.265625 2.328125 21.800781 2.570312 22.246094 C 2.8125 22.691406 3.28125 22.964844 3.804688 22.964844 L 5.839844 22.910156 C 5.875 22.921875 5.941406 22.984375 5.949219 23.007812 C 5.949219 23.050781 5.957031 23.097656 5.964844 23.144531 L 7.070312 28.269531 C 7.082031 28.308594 7.089844 28.351562 7.109375 28.390625 C 7.460938 29.214844 8.269531 29.75 9.171875 29.75 L 13.039062 29.75 C 13.675781 29.75 14.21875 30.203125 14.328125 30.828125 L 15.226562 36.050781 C 15.371094 36.882812 16.089844 37.484375 16.941406 37.484375 L 27.222656 37.484375 C 27.699219 37.484375 28.144531 37.296875 28.476562 36.953125 C 28.808594 36.609375 28.980469 36.15625 28.960938 35.679688 L 28.570312 26.929688 C 28.570312 26.90625 28.566406 26.882812 28.566406 26.859375 C 28.335938 25.3125 28.941406 23.984375 30.363281 22.914062 C 35.3125 19.1875 33.796875 11.527344 33.738281 11.265625 " fill-opacity="1" fill-rule="nonzero"/></g><path fill="#f7993e" d="M 15.941406 13.886719 C 14.847656 13.886719 13.957031 13 13.957031 11.914062 C 13.957031 10.828125 14.847656 9.941406 15.941406 9.941406 C 17.035156 9.941406 17.925781 10.828125 17.925781 11.914062 C 17.925781 13 17.035156 13.886719 15.941406 13.886719 Z M 15.941406 8.597656 C 14.101562 8.597656 12.605469 10.085938 12.605469 11.914062 C 12.605469 13.742188 14.101562 15.230469 15.941406 15.230469 C 17.777344 15.230469 19.277344 13.742188 19.277344 11.914062 C 19.277344 10.085938 17.777344 8.597656 15.941406 8.597656 " fill-opacity="1" fill-rule="nonzero"/><path fill="#f7993e" d="M 24.773438 12.839844 C 25.398438 12.839844 25.910156 13.347656 25.910156 13.972656 C 25.910156 14.597656 25.398438 15.105469 24.773438 15.105469 C 24.144531 15.105469 23.632812 14.597656 23.632812 13.972656 C 23.632812 13.347656 24.144531 12.839844 24.773438 12.839844 Z M 22.285156 13.972656 C 22.285156 15.335938 23.398438 16.449219 24.773438 16.449219 C 26.144531 16.449219 27.261719 15.335938 27.261719 13.972656 C 27.261719 12.609375 26.144531 11.496094 24.773438 11.496094 C 23.398438 11.496094 22.285156 12.609375 22.285156 13.972656 " fill-opacity="1" fill-rule="nonzero"/><path fill="#f7993e" d="M 20.550781 12.992188 C 20.433594 13.492188 20.234375 13.964844 19.960938 14.402344 C 19.789062 14.675781 19.835938 15.027344 20.070312 15.25 L 21.011719 16.128906 C 20.847656 16.324219 20.671875 16.511719 20.484375 16.6875 L 19.542969 15.804688 C 19.308594 15.585938 18.949219 15.566406 18.6875 15.75 C 17.84375 16.347656 16.800781 16.648438 15.78125 16.621094 C 15.464844 16.59375 15.175781 16.824219 15.101562 17.136719 L 14.808594 18.386719 C 14.679688 18.363281 14.554688 18.339844 14.425781 18.308594 C 14.304688 18.28125 14.175781 18.25 14.054688 18.210938 L 14.351562 16.960938 C 14.425781 16.652344 14.265625 16.332031 13.972656 16.199219 C 13.035156 15.773438 12.25 15.042969 11.761719 14.128906 C 11.613281 13.847656 11.28125 13.710938 10.972656 13.804688 L 9.734375 14.171875 C 9.644531 13.933594 9.570312 13.6875 9.511719 13.441406 L 10.746094 13.066406 C 11.054688 12.976562 11.257812 12.683594 11.226562 12.363281 C 11.175781 11.847656 11.210938 11.335938 11.332031 10.835938 C 11.449219 10.335938 11.648438 9.863281 11.921875 9.425781 C 12.089844 9.152344 12.042969 8.796875 11.808594 8.578125 L 10.867188 7.699219 C 11.03125 7.503906 11.210938 7.316406 11.394531 7.140625 L 12.339844 8.023438 C 12.574219 8.242188 12.929688 8.261719 13.195312 8.078125 C 14.039062 7.480469 15.058594 7.179688 16.097656 7.207031 C 16.414062 7.226562 16.707031 7 16.777344 6.691406 L 17.074219 5.441406 C 17.199219 5.464844 17.328125 5.488281 17.453125 5.519531 C 17.578125 5.546875 17.703125 5.578125 17.824219 5.617188 L 17.53125 6.863281 C 17.457031 7.175781 17.613281 7.496094 17.90625 7.628906 C 18.847656 8.054688 19.628906 8.785156 20.117188 9.695312 C 20.269531 9.980469 20.597656 10.117188 20.90625 10.023438 L 22.144531 9.65625 C 22.234375 9.894531 22.308594 10.140625 22.371094 10.386719 L 21.132812 10.761719 C 20.824219 10.851562 20.625 11.144531 20.65625 11.464844 C 20.703125 11.976562 20.671875 12.492188 20.550781 12.992188 Z M 22.382812 15.566406 L 21.378906 14.628906 C 21.59375 14.207031 21.757812 13.761719 21.863281 13.296875 C 21.976562 12.835938 22.027344 12.363281 22.027344 11.894531 L 23.339844 11.5 C 23.660156 11.402344 23.863281 11.089844 23.816406 10.757812 C 23.703125 9.996094 23.476562 9.253906 23.144531 8.550781 C 23.003906 8.25 22.65625 8.09375 22.339844 8.195312 L 21.023438 8.585938 C 20.5 7.796875 19.789062 7.132812 18.964844 6.660156 L 19.277344 5.335938 C 19.355469 5.011719 19.183594 4.679688 18.871094 4.554688 C 18.511719 4.414062 18.136719 4.300781 17.761719 4.210938 C 17.378906 4.125 16.996094 4.0625 16.613281 4.03125 C 16.273438 3.992188 15.976562 4.222656 15.898438 4.542969 L 15.585938 5.871094 C 14.636719 5.929688 13.707031 6.207031 12.878906 6.683594 L 11.878906 5.75 C 11.636719 5.519531 11.257812 5.503906 11 5.710938 C 10.386719 6.195312 9.851562 6.757812 9.410156 7.394531 C 9.214844 7.664062 9.253906 8.035156 9.5 8.261719 L 10.503906 9.199219 C 10.289062 9.621094 10.125 10.066406 10.015625 10.527344 C 9.90625 10.992188 9.855469 11.464844 9.855469 11.933594 L 8.539062 12.328125 C 8.21875 12.425781 8.015625 12.738281 8.066406 13.070312 C 8.179688 13.832031 8.402344 14.574219 8.738281 15.277344 C 8.878906 15.578125 9.222656 15.730469 9.542969 15.632812 L 10.859375 15.242188 C 11.382812 16.03125 12.09375 16.695312 12.914062 17.167969 L 12.601562 18.492188 C 12.523438 18.816406 12.699219 19.148438 13.007812 19.273438 C 13.371094 19.414062 13.746094 19.527344 14.121094 19.617188 C 14.496094 19.703125 14.882812 19.765625 15.265625 19.796875 C 15.285156 19.800781 15.304688 19.800781 15.324219 19.800781 C 15.636719 19.800781 15.910156 19.589844 15.984375 19.285156 L 16.292969 17.957031 C 17.242188 17.898438 18.175781 17.621094 19 17.144531 L 20.003906 18.078125 C 20.246094 18.308594 20.621094 18.324219 20.882812 18.117188 C 21.496094 17.636719 22.027344 17.070312 22.472656 16.4375 C 22.664062 16.164062 22.625 15.792969 22.382812 15.566406 " fill-opacity="1" fill-rule="nonzero"/><path fill="#f7993e" d="M 31.171875 13.402344 L 30.066406 13.226562 C 29.824219 11.488281 28.738281 9.992188 27.15625 9.214844 L 27.335938 8.117188 C 27.386719 7.789062 27.1875 7.472656 26.871094 7.371094 C 26.546875 7.273438 26.210938 7.195312 25.878906 7.140625 C 25.542969 7.085938 25.203125 7.058594 24.867188 7.050781 C 24.863281 7.050781 24.859375 7.050781 24.855469 7.050781 C 24.488281 7.050781 24.1875 7.34375 24.179688 7.710938 C 24.175781 8.082031 24.472656 8.386719 24.84375 8.394531 C 25.121094 8.398438 25.394531 8.421875 25.664062 8.464844 C 25.746094 8.476562 25.824219 8.492188 25.902344 8.507812 L 25.738281 9.515625 C 25.6875 9.832031 25.867188 10.140625 26.171875 10.253906 C 27.691406 10.8125 28.710938 12.21875 28.769531 13.828125 C 28.78125 14.148438 29.019531 14.414062 29.335938 14.46875 L 30.351562 14.628906 C 30.34375 14.707031 30.328125 14.789062 30.316406 14.867188 C 30.304688 14.945312 30.289062 15.023438 30.273438 15.105469 L 29.261719 14.941406 C 28.941406 14.890625 28.632812 15.070312 28.519531 15.371094 C 27.957031 16.882812 26.542969 17.894531 24.925781 17.957031 C 24.601562 17.964844 24.335938 18.203125 24.28125 18.519531 L 24.117188 19.527344 C 24.039062 19.519531 23.960938 19.507812 23.878906 19.496094 C 23.605469 19.449219 23.335938 19.386719 23.078125 19.304688 C 22.722656 19.195312 22.34375 19.390625 22.234375 19.742188 C 22.121094 20.097656 22.316406 20.476562 22.671875 20.585938 C 22.992188 20.6875 23.324219 20.761719 23.664062 20.816406 C 24.003906 20.875 24.34375 20.902344 24.675781 20.90625 C 24.679688 20.90625 24.683594 20.90625 24.6875 20.90625 C 25.015625 20.90625 25.300781 20.667969 25.351562 20.339844 L 25.53125 19.246094 C 27.277344 19 28.78125 17.921875 29.5625 16.347656 L 30.667969 16.523438 C 30.996094 16.578125 31.316406 16.382812 31.414062 16.066406 C 31.519531 15.746094 31.597656 15.414062 31.648438 15.082031 C 31.703125 14.746094 31.734375 14.410156 31.738281 14.074219 C 31.746094 13.742188 31.5 13.457031 31.171875 13.402344 " fill-opacity="1" fill-rule="nonzero"/></svg>