<svg xmlns="http://www.w3.org/2000/svg" xmlns:xlink="http://www.w3.org/1999/xlink" width="50" zoomAndPan="magnify" viewBox="0 0 37.5 37.499999" height="50" preserveAspectRatio="xMidYMid meet" version="1.0"><defs><clipPath id="e6b995a2f3"><path d="M 4 0.5625 L 22 0.5625 L 22 12 L 4 12 Z M 4 0.5625 " clip-rule="nonzero"/></clipPath><clipPath id="2e11e4b75f"><path d="M 15 27 L 33 27 L 33 37.007812 L 15 37.007812 Z M 15 27 " clip-rule="nonzero"/></clipPath></defs><path fill="#f7993e" d="M 10.453125 23.96875 C 9.652344 23.496094 9.324219 22.753906 9.523438 21.898438 C 10 22.136719 10.5 22.34375 11.082031 22.367188 C 11.328125 22.375 11.585938 22.371094 11.8125 22.265625 C 12.015625 22.167969 12.261719 21.953125 12.28125 21.480469 C 12.289062 21.316406 12.261719 21.183594 12.21875 21.070312 C 12.230469 21.074219 12.242188 21.074219 12.253906 21.074219 C 12.304688 21.074219 12.355469 21.070312 12.410156 21.066406 C 13.054688 20.996094 13.765625 20.851562 14.132812 20.28125 C 14.726562 19.375 15.53125 18.671875 16.667969 18.070312 C 16.96875 17.914062 17.167969 17.65625 17.21875 17.363281 C 17.269531 17.078125 17.175781 16.789062 16.957031 16.542969 C 16.382812 15.90625 15.746094 16.414062 15.539062 16.582031 C 14.90625 17.089844 14.171875 17.230469 13.53125 16.976562 C 12.878906 16.722656 12.4375 16.105469 12.308594 15.28125 C 12.25 14.894531 12.140625 14.167969 11.265625 14.257812 C 10.980469 14.289062 10.761719 14.394531 10.617188 14.574219 C 10.378906 14.875 10.425781 15.289062 10.453125 15.511719 C 10.636719 17.085938 11.496094 18.1875 13.011719 18.789062 C 12.808594 19.03125 12.546875 19.152344 12.191406 19.179688 C 11.875 19.199219 11.625 19.320312 11.460938 19.523438 C 11.355469 19.65625 11.234375 19.890625 11.285156 20.253906 C 11.296875 20.351562 11.328125 20.445312 11.363281 20.527344 C 11.328125 20.523438 11.296875 20.519531 11.265625 20.515625 C 10.421875 20.414062 9.855469 19.992188 9.582031 19.261719 C 9.289062 18.472656 9.421875 17.777344 9.980469 17.195312 C 10.398438 16.765625 10.503906 16.347656 10.339844 15.761719 C 10.1875 15.214844 10.257812 14.660156 10.535156 14.195312 C 10.800781 13.746094 11.230469 13.433594 11.746094 13.320312 C 12.28125 13.203125 12.808594 13.296875 13.238281 13.582031 C 13.6875 13.882812 13.996094 14.371094 14.105469 14.957031 C 14.117188 15.023438 14.125 15.097656 14.128906 15.179688 C 14.140625 15.507812 14.246094 15.757812 14.4375 15.929688 C 14.5625 16.039062 14.789062 16.164062 15.144531 16.132812 C 15.53125 16.101562 15.992188 15.882812 15.976562 15.035156 C 15.953125 13.554688 14.933594 12.148438 13.5 11.613281 C 13.382812 11.570312 13.265625 11.542969 13.152344 11.515625 C 12.726562 11.410156 12.667969 11.375 12.695312 11.074219 C 12.75 10.515625 13 10.167969 13.460938 10.015625 C 13.949219 9.855469 14.351562 9.976562 14.6875 10.382812 C 14.71875 10.421875 14.746094 10.46875 14.773438 10.515625 C 14.8125 10.578125 14.859375 10.652344 14.917969 10.726562 C 15.265625 11.152344 15.726562 11.238281 16.152344 10.957031 C 16.585938 10.667969 16.707031 10.226562 16.492188 9.742188 C 16.28125 9.28125 15.953125 8.941406 15.59375 8.664062 C 16.023438 8.460938 16.4375 8.347656 16.875 8.304688 C 17.089844 8.285156 17.382812 8.296875 17.574219 8.464844 C 17.71875 8.59375 17.796875 8.808594 17.800781 9.101562 C 17.820312 9.738281 17.816406 10.367188 17.816406 11.03125 C 17.8125 11.175781 17.8125 11.324219 17.8125 11.472656 C 17.613281 11.433594 17.421875 11.398438 17.21875 11.382812 C 16.644531 11.332031 16.238281 11.667969 16.1875 12.230469 C 16.160156 12.519531 16.222656 13.035156 16.933594 13.230469 C 17.765625 13.457031 17.816406 13.523438 17.820312 14.375 C 17.828125 18.550781 17.835938 22.726562 17.84375 26.902344 C 17.847656 28.210938 17.269531 29.128906 16.214844 29.480469 C 15.152344 29.835938 14.210938 29.460938 13.429688 28.355469 C 13.210938 28.050781 12.9375 27.921875 12.679688 27.816406 C 11.515625 27.339844 10.992188 26.472656 11.128906 25.238281 C 11.210938 24.519531 10.832031 24.195312 10.453125 23.96875 Z M 13.84375 18.46875 C 13.804688 18.375 13.726562 18.304688 13.632812 18.273438 C 12.117188 17.800781 11.300781 16.867188 11.132812 15.429688 C 11.125 15.335938 11.09375 15.082031 11.152344 15.007812 C 11.175781 14.980469 11.242188 14.957031 11.332031 14.945312 C 11.371094 14.941406 11.402344 14.941406 11.425781 14.941406 C 11.550781 14.941406 11.574219 15.007812 11.632812 15.394531 C 11.792969 16.445312 12.410156 17.277344 13.277344 17.621094 C 14.15625 17.96875 15.132812 17.789062 15.964844 17.125 C 16.308594 16.851562 16.355469 16.90625 16.449219 17.007812 C 16.5 17.066406 16.5625 17.15625 16.546875 17.242188 C 16.53125 17.320312 16.460938 17.402344 16.351562 17.457031 C 15.105469 18.113281 14.21875 18.890625 13.5625 19.902344 C 13.347656 20.230469 12.847656 20.324219 12.339844 20.378906 C 11.992188 20.414062 11.976562 20.265625 11.960938 20.15625 C 11.953125 20.09375 11.953125 20.007812 11.992188 19.960938 C 12.03125 19.910156 12.121094 19.878906 12.238281 19.871094 C 12.976562 19.816406 13.5 19.453125 13.835938 18.757812 C 13.882812 18.667969 13.882812 18.5625 13.84375 18.46875 Z M 12.421875 28.457031 C 12.640625 28.546875 12.769531 28.617188 12.871094 28.761719 C 13.597656 29.785156 14.476562 30.304688 15.449219 30.304688 C 15.769531 30.304688 16.097656 30.25 16.433594 30.136719 C 17.769531 29.6875 18.535156 28.507812 18.53125 26.898438 C 18.523438 22.722656 18.511719 18.550781 18.503906 14.375 C 18.5 13.210938 18.242188 12.871094 17.113281 12.5625 C 16.851562 12.488281 16.859375 12.398438 16.871094 12.292969 C 16.882812 12.160156 16.914062 12.054688 17.164062 12.070312 C 17.359375 12.085938 17.5625 12.128906 17.777344 12.167969 C 17.882812 12.1875 17.988281 12.210938 18.097656 12.226562 C 18.199219 12.246094 18.300781 12.21875 18.378906 12.152344 C 18.453125 12.085938 18.5 11.988281 18.5 11.886719 C 18.5 11.601562 18.5 11.316406 18.5 11.03125 C 18.503906 10.363281 18.503906 9.730469 18.488281 9.082031 C 18.472656 8.597656 18.316406 8.203125 18.027344 7.945312 C 17.734375 7.683594 17.3125 7.570312 16.8125 7.613281 C 16.117188 7.679688 15.449219 7.914062 14.761719 8.328125 C 14.65625 8.390625 14.59375 8.5 14.59375 8.621094 C 14.589844 8.742188 14.652344 8.851562 14.75 8.917969 C 15.265625 9.25 15.65625 9.566406 15.867188 10.035156 C 15.945312 10.199219 15.921875 10.277344 15.773438 10.378906 C 15.695312 10.429688 15.609375 10.484375 15.445312 10.285156 C 15.410156 10.242188 15.386719 10.199219 15.355469 10.152344 C 15.316406 10.085938 15.273438 10.011719 15.214844 9.941406 C 14.699219 9.316406 14.003906 9.109375 13.246094 9.355469 C 12.523438 9.597656 12.097656 10.167969 12.015625 11.007812 C 11.925781 11.929688 12.621094 12.097656 12.992188 12.1875 C 13.089844 12.210938 13.183594 12.234375 13.261719 12.261719 C 14.417969 12.695312 15.273438 13.867188 15.292969 15.046875 C 15.296875 15.425781 15.210938 15.433594 15.085938 15.445312 C 15.03125 15.449219 14.9375 15.449219 14.890625 15.410156 C 14.847656 15.371094 14.816406 15.277344 14.8125 15.152344 C 14.808594 15.039062 14.796875 14.925781 14.777344 14.828125 C 14.632812 14.054688 14.222656 13.40625 13.617188 13.003906 C 13.03125 12.613281 12.316406 12.484375 11.597656 12.644531 C 10.898438 12.800781 10.3125 13.222656 9.945312 13.839844 C 9.570312 14.46875 9.476562 15.21875 9.679688 15.945312 C 9.777344 16.292969 9.734375 16.460938 9.488281 16.714844 C 8.738281 17.492188 8.550781 18.460938 8.941406 19.507812 C 9.308594 20.484375 10.082031 21.070312 11.1875 21.203125 C 11.605469 21.253906 11.601562 21.300781 11.597656 21.453125 C 11.589844 21.605469 11.546875 21.625 11.523438 21.636719 C 11.414062 21.6875 11.199219 21.679688 11.109375 21.675781 C 10.558594 21.652344 10.0625 21.402344 9.539062 21.132812 L 9.46875 21.097656 C 9.382812 21.054688 9.285156 21.050781 9.195312 21.085938 C 9.105469 21.121094 9.03125 21.191406 8.996094 21.28125 C 8.476562 22.621094 8.890625 23.847656 10.105469 24.566406 C 10.410156 24.746094 10.480469 24.871094 10.449219 25.164062 C 10.277344 26.699219 10.980469 27.867188 12.421875 28.457031 " fill-opacity="1" fill-rule="nonzero"/><path fill="#f7993e" d="M 13.0625 24.335938 C 13.195312 24.296875 13.292969 24.183594 13.308594 24.042969 C 13.429688 23.023438 13.867188 22.25 14.648438 21.675781 C 15.082031 21.359375 15.558594 21.210938 16.136719 21.210938 C 16.210938 21.210938 16.285156 21.210938 16.359375 21.214844 L 16.394531 21.21875 C 16.488281 21.222656 16.625 21.230469 16.648438 21.242188 C 16.648438 21.242188 16.660156 21.261719 16.664062 21.328125 C 16.671875 21.496094 16.632812 21.585938 16.402344 21.613281 C 16.351562 21.621094 16.300781 21.625 16.25 21.632812 C 16.015625 21.65625 15.769531 21.683594 15.515625 21.785156 C 14.800781 22.070312 14.292969 22.578125 14.003906 23.296875 C 13.78125 23.859375 13.664062 24.503906 14.523438 25.019531 C 15.367188 25.527344 15.816406 26.347656 15.859375 27.457031 C 15.871094 27.765625 15.804688 27.769531 15.679688 27.78125 C 15.492188 27.792969 15.414062 27.789062 15.371094 27.484375 C 15.128906 25.878906 14.46875 25.214844 12.847656 24.949219 C 12.519531 24.898438 12.515625 24.789062 12.511719 24.675781 C 12.507812 24.578125 12.503906 24.492188 13.0625 24.335938 Z M 12.738281 25.632812 C 14.058594 25.847656 14.496094 26.289062 14.691406 27.589844 C 14.800781 28.304688 15.238281 28.476562 15.625 28.476562 C 15.660156 28.476562 15.695312 28.472656 15.730469 28.46875 C 16.046875 28.445312 16.578125 28.28125 16.542969 27.429688 C 16.492188 26.089844 15.914062 25.050781 14.875 24.425781 C 14.464844 24.179688 14.457031 24.019531 14.640625 23.554688 C 14.859375 23.015625 15.226562 22.644531 15.769531 22.429688 C 15.9375 22.363281 16.125 22.34375 16.324219 22.320312 C 16.378906 22.316406 16.433594 22.308594 16.488281 22.300781 C 17.046875 22.234375 17.375 21.84375 17.347656 21.289062 C 17.3125 20.578125 16.71875 20.542969 16.433594 20.527344 L 16.402344 20.527344 C 15.5625 20.472656 14.859375 20.667969 14.246094 21.117188 C 13.375 21.753906 12.839844 22.636719 12.660156 23.734375 C 12.210938 23.882812 11.800781 24.125 11.828125 24.707031 C 11.84375 25.0625 12.015625 25.515625 12.738281 25.632812 " fill-opacity="1" fill-rule="nonzero"/><path fill="#f7993e" d="M 25.074219 24.855469 C 25.578125 24.921875 25.570312 25.007812 25.554688 25.171875 C 25.542969 25.3125 25.539062 25.347656 25.125 25.402344 L 25.042969 25.410156 C 23.75 25.585938 22.882812 26.480469 22.722656 27.804688 C 22.660156 28.296875 22.601562 28.292969 22.441406 28.28125 C 22.390625 28.273438 22.304688 28.261719 22.269531 28.21875 C 22.195312 28.128906 22.226562 27.828125 22.238281 27.714844 C 22.339844 26.6875 22.824219 25.90625 23.679688 25.390625 C 24.304688 25.011719 24.28125 24.527344 24.175781 24.109375 C 23.894531 22.984375 23.019531 22.234375 21.835938 22.09375 C 21.375 22.039062 21.382812 21.96875 21.402344 21.796875 C 21.421875 21.636719 21.429688 21.570312 21.925781 21.601562 C 23.402344 21.699219 24.46875 22.808594 24.777344 24.574219 C 24.804688 24.722656 24.921875 24.835938 25.074219 24.855469 Z M 21.96875 20.910156 C 21.625 20.890625 20.820312 20.835938 20.722656 21.722656 C 20.621094 22.644531 21.476562 22.746094 21.757812 22.78125 C 22.660156 22.886719 23.300781 23.433594 23.511719 24.277344 C 23.589844 24.578125 23.5625 24.652344 23.328125 24.792969 C 22.289062 25.417969 21.675781 26.40625 21.554688 27.648438 C 21.519531 27.984375 21.503906 28.371094 21.742188 28.660156 C 21.886719 28.839844 22.101562 28.945312 22.382812 28.96875 C 22.421875 28.972656 22.460938 28.972656 22.5 28.972656 C 23.265625 28.972656 23.359375 28.222656 23.398438 27.890625 C 23.523438 26.882812 24.15625 26.230469 25.132812 26.097656 L 25.210938 26.085938 C 25.570312 26.039062 26.171875 25.964844 26.238281 25.234375 C 26.304688 24.511719 25.773438 24.289062 25.402344 24.210938 C 24.984375 22.28125 23.6875 21.023438 21.96875 20.910156 " fill-opacity="1" fill-rule="nonzero"/><path fill="#f7993e" d="M 22.847656 18.839844 C 23.253906 19.5625 23.816406 19.929688 24.574219 19.960938 C 24.652344 19.964844 24.730469 19.96875 24.726562 20.167969 C 24.726562 20.285156 24.726562 20.394531 24.433594 20.414062 C 23.640625 20.472656 22.730469 19.859375 22.410156 19.054688 C 22.214844 18.558594 21.921875 18.292969 21.425781 18.179688 C 21.097656 18.101562 20.769531 17.910156 20.390625 17.582031 C 20.179688 17.398438 20.140625 17.292969 20.136719 17.25 C 20.132812 17.191406 20.183594 17.121094 20.222656 17.074219 C 20.265625 17.027344 20.300781 16.988281 20.359375 16.988281 C 20.425781 16.988281 20.523438 17.039062 20.707031 17.183594 C 21.460938 17.777344 22.375 17.976562 23.214844 17.730469 C 23.992188 17.503906 24.601562 16.914062 24.886719 16.113281 C 24.976562 15.867188 25.011719 15.617188 25.046875 15.375 L 25.0625 15.238281 C 25.109375 14.945312 25.214844 14.957031 25.328125 14.964844 C 25.441406 14.976562 25.539062 14.984375 25.550781 15.304688 C 25.589844 16.394531 24.796875 17.585938 23.707031 18.074219 C 23.578125 18.132812 23.445312 18.183594 23.289062 18.246094 C 23.207031 18.277344 23.117188 18.3125 23.019531 18.351562 C 22.929688 18.386719 22.855469 18.460938 22.824219 18.554688 C 22.789062 18.648438 22.800781 18.753906 22.847656 18.839844 Z M 25.433594 22.035156 C 25.542969 22.160156 25.75 22.316406 26.109375 22.339844 C 26.847656 22.378906 27.480469 22.140625 27.992188 21.867188 C 28.195312 22.667969 27.882812 23.449219 27.148438 23.882812 C 26.539062 24.246094 26.324219 24.683594 26.417969 25.394531 C 26.546875 26.398438 25.957031 27.34375 24.949219 27.75 C 24.53125 27.914062 24.230469 28.164062 23.96875 28.550781 C 23.398438 29.410156 22.390625 29.785156 21.40625 29.503906 C 20.460938 29.238281 19.757812 28.339844 19.695312 27.328125 C 19.636719 26.367188 20.222656 25.449219 21.152344 25.046875 C 21.191406 25.027344 21.230469 25.011719 21.273438 24.996094 C 21.582031 24.867188 21.964844 24.710938 22.09375 24.339844 C 22.167969 24.125 22.136719 23.886719 21.996094 23.628906 C 21.824219 23.3125 21.5 23.144531 21.113281 23.144531 C 20.875 23.144531 20.613281 23.207031 20.34375 23.335938 C 20.121094 23.441406 19.90625 23.566406 19.6875 23.703125 L 19.683594 22.066406 C 19.679688 20.644531 19.675781 19.234375 19.675781 17.828125 C 19.761719 17.941406 19.859375 18.035156 19.945312 18.109375 C 20.410156 18.511719 20.832031 18.746094 21.269531 18.851562 C 21.546875 18.917969 21.660156 19.019531 21.773438 19.3125 C 22.183594 20.34375 23.285156 21.109375 24.335938 21.109375 C 24.382812 21.109375 24.433594 21.109375 24.480469 21.105469 C 25.0625 21.0625 25.410156 20.714844 25.414062 20.171875 C 25.414062 19.644531 25.097656 19.292969 24.601562 19.269531 C 24.21875 19.253906 23.921875 19.117188 23.675781 18.835938 C 23.785156 18.792969 23.886719 18.75 23.988281 18.707031 C 25.339844 18.097656 26.285156 16.65625 26.234375 15.277344 C 26.207031 14.46875 25.691406 14.300781 25.390625 14.273438 C 24.847656 14.226562 24.472656 14.550781 24.386719 15.136719 L 24.367188 15.277344 C 24.335938 15.496094 24.308594 15.699219 24.242188 15.878906 C 24.03125 16.476562 23.597656 16.898438 23.023438 17.066406 C 22.398438 17.25 21.707031 17.089844 21.128906 16.636719 C 20.917969 16.472656 20.277344 15.96875 19.710938 16.617188 C 19.699219 16.632812 19.6875 16.648438 19.675781 16.664062 C 19.675781 16.339844 19.675781 16.015625 19.675781 15.691406 C 19.675781 15.238281 19.882812 14.988281 20.304688 14.921875 C 20.59375 14.875 20.953125 14.78125 21.152344 14.496094 C 21.289062 14.308594 21.328125 14.070312 21.28125 13.789062 C 21.125 12.898438 20.292969 13.015625 19.980469 13.058594 C 19.875 13.074219 19.769531 13.09375 19.667969 13.117188 C 19.667969 12.820312 19.664062 12.523438 19.664062 12.226562 C 19.65625 11.128906 19.652344 10.09375 19.667969 9.035156 C 19.671875 8.863281 19.710938 8.628906 19.882812 8.46875 C 20.027344 8.332031 20.246094 8.273438 20.519531 8.289062 C 20.972656 8.320312 21.421875 8.441406 21.875 8.652344 C 21.613281 8.855469 21.367188 9.082031 21.175781 9.386719 C 21 9.667969 20.527344 10.417969 21.320312 10.9375 C 22.085938 11.4375 22.550781 10.726562 22.726562 10.460938 C 23.023438 10 23.425781 9.84375 23.953125 9.984375 C 24.421875 10.105469 24.683594 10.410156 24.757812 10.917969 C 24.8125 11.3125 24.761719 11.394531 24.433594 11.472656 C 22.8125 11.859375 21.644531 13.214844 21.527344 14.847656 C 21.5 15.195312 21.441406 16.011719 22.320312 16.117188 C 23.226562 16.21875 23.332031 15.390625 23.375 15.074219 C 23.457031 14.441406 23.75 13.914062 24.203125 13.585938 C 24.628906 13.28125 25.167969 13.175781 25.71875 13.292969 C 26.238281 13.402344 26.667969 13.699219 26.933594 14.136719 C 27.222656 14.621094 27.292969 15.222656 27.121094 15.839844 C 26.953125 16.453125 27.203125 16.828125 27.5 17.140625 C 28.085938 17.761719 28.226562 18.472656 27.90625 19.257812 C 27.597656 20.023438 26.996094 20.429688 26.074219 20.503906 C 25.574219 20.542969 25.265625 20.84375 25.226562 21.328125 C 25.199219 21.683594 25.324219 21.90625 25.433594 22.035156 Z M 26.125 21.195312 C 27.300781 21.101562 28.136719 20.523438 28.542969 19.519531 C 28.964844 18.472656 28.777344 17.484375 27.992188 16.664062 C 27.753906 16.40625 27.710938 16.28125 27.78125 16.023438 C 28.003906 15.222656 27.910156 14.425781 27.519531 13.777344 C 27.15625 13.175781 26.566406 12.761719 25.859375 12.613281 C 25.117188 12.457031 24.390625 12.605469 23.808594 13.023438 C 23.195312 13.460938 22.800781 14.160156 22.695312 14.988281 C 22.632812 15.453125 22.570312 15.445312 22.398438 15.425781 C 22.234375 15.40625 22.175781 15.402344 22.210938 14.898438 C 22.308594 13.546875 23.242188 12.46875 24.589844 12.148438 C 25.585938 11.910156 25.476562 11.117188 25.433594 10.820312 C 25.324219 10.039062 24.859375 9.503906 24.125 9.3125 C 23.3125 9.097656 22.613281 9.371094 22.152344 10.082031 C 21.890625 10.484375 21.832031 10.445312 21.695312 10.355469 C 21.535156 10.253906 21.46875 10.210938 21.753906 9.753906 C 21.949219 9.449219 22.242188 9.230469 22.585938 8.980469 L 22.71875 8.882812 C 22.8125 8.8125 22.863281 8.703125 22.859375 8.585938 C 22.855469 8.46875 22.789062 8.363281 22.691406 8.304688 C 21.980469 7.878906 21.285156 7.648438 20.566406 7.601562 C 20.101562 7.566406 19.707031 7.691406 19.417969 7.960938 C 19.140625 8.214844 18.988281 8.585938 18.984375 9.023438 C 18.964844 10.089844 18.972656 11.128906 18.976562 12.230469 C 18.980469 12.667969 18.980469 13.113281 18.984375 13.558594 C 18.984375 13.664062 19.03125 13.761719 19.113281 13.828125 C 19.195312 13.894531 19.300781 13.917969 19.402344 13.894531 C 19.488281 13.875 19.574219 13.855469 19.652344 13.835938 C 19.808594 13.796875 19.941406 13.761719 20.074219 13.742188 C 20.566406 13.675781 20.578125 13.757812 20.605469 13.910156 C 20.617188 13.960938 20.625 14.054688 20.597656 14.09375 C 20.566406 14.136719 20.476562 14.191406 20.199219 14.238281 C 19.441406 14.359375 18.992188 14.902344 18.992188 15.6875 C 18.988281 17.804688 18.992188 19.921875 18.996094 22.066406 L 19 24.316406 C 19.003906 24.441406 19.066406 24.554688 19.175781 24.617188 C 19.28125 24.675781 19.410156 24.675781 19.515625 24.613281 C 19.660156 24.53125 19.792969 24.449219 19.917969 24.371094 C 20.179688 24.210938 20.402344 24.070312 20.636719 23.960938 C 20.84375 23.863281 21.273438 23.734375 21.398438 23.964844 C 21.449219 24.058594 21.449219 24.105469 21.445312 24.113281 C 21.421875 24.1875 21.144531 24.300781 21.015625 24.355469 C 20.96875 24.375 20.925781 24.390625 20.878906 24.410156 C 19.6875 24.929688 18.933594 26.117188 19.011719 27.371094 C 19.09375 28.695312 19.980469 29.820312 21.21875 30.171875 C 21.5 30.25 21.78125 30.289062 22.058594 30.289062 C 23.042969 30.289062 23.960938 29.804688 24.539062 28.9375 C 24.71875 28.664062 24.910156 28.507812 25.199219 28.394531 C 26.484375 27.878906 27.265625 26.609375 27.097656 25.304688 C 27.039062 24.871094 27.121094 24.699219 27.492188 24.480469 C 28.640625 23.800781 29.050781 22.460938 28.488281 21.21875 C 28.445312 21.128906 28.367188 21.0625 28.273438 21.03125 C 28.179688 21.003906 28.078125 21.015625 27.996094 21.066406 C 27.289062 21.5 26.722656 21.679688 26.148438 21.648438 C 26.054688 21.640625 25.984375 21.617188 25.949219 21.578125 C 25.90625 21.53125 25.90625 21.4375 25.910156 21.382812 C 25.917969 21.269531 25.933594 21.207031 26.125 21.195312 " fill-opacity="1" fill-rule="nonzero"/><g clip-path="url(#e6b995a2f3)"><path fill="#f7993e" d="M 18.6875 1.332031 C 19.386719 1.332031 20.074219 1.378906 20.734375 1.476562 C 20.226562 2.316406 19.605469 3.351562 18.921875 4.503906 C 18.867188 4.503906 18.808594 4.503906 18.753906 4.503906 C 14.933594 4.503906 11.34375 6.007812 8.640625 8.734375 C 8.222656 9.160156 7.824219 9.613281 7.457031 10.085938 L 5.585938 7.480469 C 8.59375 3.738281 13.707031 1.332031 18.6875 1.332031 Z M 7.175781 10.871094 C 7.238281 10.960938 7.34375 11.015625 7.453125 11.015625 C 7.5625 11.015625 7.664062 10.960938 7.730469 10.875 C 8.152344 10.289062 8.621094 9.734375 9.125 9.222656 C 11.699219 6.625 15.117188 5.195312 18.753906 5.195312 C 18.871094 5.195312 18.988281 5.199219 19.105469 5.199219 C 19.234375 5.203125 19.34375 5.140625 19.410156 5.03125 C 20.203125 3.691406 20.921875 2.496094 21.476562 1.578125 C 21.503906 1.535156 21.535156 1.492188 21.570312 1.445312 L 21.308594 1.222656 L 21.582031 1.429688 C 21.652344 1.335938 21.671875 1.207031 21.628906 1.097656 C 21.585938 0.984375 21.488281 0.902344 21.371094 0.878906 C 20.515625 0.71875 19.613281 0.640625 18.6875 0.640625 C 13.414062 0.640625 7.996094 3.238281 4.886719 7.257812 C 4.792969 7.378906 4.789062 7.550781 4.878906 7.675781 L 7.175781 10.871094 " fill-opacity="1" fill-rule="nonzero"/></g><g clip-path="url(#2e11e4b75f)"><path fill="#f7993e" d="M 20.59375 36.460938 C 19.328125 36.605469 18.066406 36.601562 16.816406 36.449219 C 17.171875 35.808594 17.757812 34.785156 18.566406 33.394531 C 18.628906 33.394531 18.691406 33.394531 18.753906 33.394531 C 22.570312 33.394531 26.160156 31.890625 28.863281 29.164062 C 29.242188 28.777344 29.605469 28.371094 29.941406 27.945312 C 31.066406 29.625 31.523438 30.394531 31.707031 30.738281 C 28.6875 34.042969 24.949219 35.964844 20.59375 36.460938 Z M 30.242188 27.160156 C 30.179688 27.066406 30.078125 27.011719 29.96875 27.007812 C 29.855469 27 29.75 27.058594 29.683594 27.148438 C 29.289062 27.683594 28.847656 28.199219 28.378906 28.675781 C 25.804688 31.273438 22.390625 32.703125 18.753906 32.703125 C 18.636719 32.703125 18.511719 32.699219 18.386719 32.695312 C 18.257812 32.691406 18.140625 32.757812 18.078125 32.867188 C 16.988281 34.742188 16.28125 35.984375 15.972656 36.5625 C 15.921875 36.660156 15.917969 36.78125 15.96875 36.878906 C 16.019531 36.980469 16.113281 37.050781 16.222656 37.066406 C 17.054688 37.195312 17.902344 37.257812 18.738281 37.257812 C 19.375 37.257812 20.027344 37.222656 20.671875 37.148438 C 25.273438 36.625 29.210938 34.566406 32.375 31.027344 C 32.464844 30.925781 32.488281 30.78125 32.433594 30.65625 C 32.289062 30.332031 31.792969 29.460938 30.242188 27.160156 " fill-opacity="1" fill-rule="nonzero"/></g><path fill="#f7993e" d="M 13.625 35.789062 C 8.742188 34.144531 5.242188 31.054688 2.945312 26.359375 L 6.472656 26.359375 C 7.074219 27.375 7.804688 28.316406 8.640625 29.164062 C 10.464844 31.003906 12.714844 32.304688 15.179688 32.941406 C 14.398438 34.300781 13.894531 35.222656 13.625 35.789062 Z M 16.023438 32.574219 C 15.980469 32.472656 15.890625 32.398438 15.785156 32.375 C 13.269531 31.8125 10.96875 30.535156 9.125 28.675781 C 8.285156 27.824219 7.558594 26.871094 6.964844 25.839844 C 6.902344 25.734375 6.789062 25.667969 6.667969 25.667969 L 2.402344 25.667969 C 2.285156 25.667969 2.175781 25.726562 2.113281 25.828125 C 2.050781 25.925781 2.042969 26.050781 2.089844 26.160156 C 4.507812 31.414062 8.308594 34.808594 13.707031 36.542969 C 13.742188 36.554688 13.777344 36.558594 13.808594 36.558594 C 13.945312 36.558594 14.070312 36.480469 14.125 36.347656 C 14.34375 35.824219 14.941406 34.722656 16.007812 32.886719 C 16.0625 32.792969 16.066406 32.675781 16.023438 32.574219 " fill-opacity="1" fill-rule="nonzero"/><path fill="#f7993e" d="M 23.933594 2.179688 C 28.25 3.304688 32.769531 7.308594 34.519531 11.53125 L 31.027344 11.53125 C 30.425781 10.519531 29.695312 9.578125 28.863281 8.734375 C 27.050781 6.902344 24.808594 5.605469 22.355469 4.964844 C 23.164062 3.585938 23.667969 2.699219 23.933594 2.179688 Z M 21.507812 5.328125 C 21.554688 5.429688 21.640625 5.503906 21.75 5.53125 C 24.253906 6.09375 26.546875 7.371094 28.378906 9.222656 C 29.21875 10.074219 29.945312 11.023438 30.535156 12.050781 C 30.597656 12.15625 30.710938 12.222656 30.832031 12.222656 L 35.023438 12.222656 C 35.132812 12.222656 35.238281 12.167969 35.304688 12.074219 C 35.367188 11.980469 35.382812 11.863281 35.34375 11.757812 C 33.640625 7.085938 28.582031 2.554688 23.824219 1.441406 C 23.667969 1.40625 23.503906 1.484375 23.4375 1.632812 C 23.222656 2.097656 22.617188 3.171875 21.53125 5.015625 C 21.472656 5.109375 21.464844 5.226562 21.507812 5.328125 " fill-opacity="1" fill-rule="nonzero"/><path fill="#f7993e" d="M 33.929688 27.617188 C 33.199219 26.585938 32.484375 25.601562 31.859375 24.742188 C 32.648438 22.917969 33.050781 20.972656 33.050781 18.949219 C 33.050781 17.550781 32.855469 16.171875 32.46875 14.847656 L 35.707031 14.847656 C 36.722656 19.3125 36.140625 23.5 33.929688 27.617188 Z M 36.308594 14.417969 C 36.273438 14.265625 36.132812 14.15625 35.976562 14.15625 L 32 14.15625 C 31.890625 14.15625 31.789062 14.207031 31.722656 14.300781 C 31.660156 14.386719 31.640625 14.503906 31.675781 14.609375 C 32.132812 16.003906 32.367188 17.460938 32.367188 18.949219 C 32.367188 20.941406 31.957031 22.855469 31.152344 24.640625 C 31.101562 24.757812 31.113281 24.890625 31.1875 24.992188 C 31.925781 26.003906 32.800781 27.207031 33.6875 28.460938 C 33.75 28.554688 33.855469 28.609375 33.964844 28.609375 C 33.972656 28.609375 33.976562 28.609375 33.984375 28.605469 C 34.101562 28.601562 34.203125 28.535156 34.261719 28.433594 C 36.828125 23.921875 37.496094 19.335938 36.308594 14.417969 " fill-opacity="1" fill-rule="nonzero"/><path fill="#f7993e" d="M 1.792969 23.003906 C 0.777344 18.554688 1.359375 14.394531 3.574219 10.308594 C 4.277344 11.292969 4.972656 12.257812 5.636719 13.179688 C 4.851562 14.996094 4.453125 16.933594 4.453125 18.949219 C 4.453125 20.332031 4.644531 21.695312 5.023438 23.003906 Z M 5.765625 23.554688 C 5.828125 23.464844 5.847656 23.347656 5.8125 23.242188 C 5.367188 21.863281 5.140625 20.417969 5.140625 18.949219 C 5.140625 16.964844 5.542969 15.058594 6.34375 13.277344 C 6.394531 13.164062 6.378906 13.03125 6.308594 12.933594 C 5.511719 11.832031 4.667969 10.660156 3.816406 9.460938 C 3.75 9.367188 3.640625 9.3125 3.523438 9.320312 C 3.40625 9.324219 3.300781 9.390625 3.242188 9.492188 C 0.675781 13.972656 0.00390625 18.53125 1.191406 23.433594 C 1.226562 23.589844 1.363281 23.699219 1.523438 23.699219 L 5.488281 23.699219 C 5.597656 23.699219 5.699219 23.644531 5.765625 23.554688 " fill-opacity="1" fill-rule="nonzero"/></svg>