<svg xmlns="http://www.w3.org/2000/svg" xmlns:xlink="http://www.w3.org/1999/xlink" width="540" zoomAndPan="magnify" viewBox="0 0 404.88 299.999988" height="400" preserveAspectRatio="xMidYMid meet" version="1.0"><defs><clipPath id="021cc15f63"><path d="M 301 36.195312 L 303 36.195312 L 303 41 L 301 41 Z M 301 36.195312 " clip-rule="nonzero"/></clipPath><clipPath id="45e157bbd6"><path d="M 24.117188 37 L 381.011719 37 L 381.011719 264.128906 L 24.117188 264.128906 Z M 24.117188 37 " clip-rule="nonzero"/></clipPath><clipPath id="1f7bb80221"><path d="M 24.117188 63 L 367 63 L 367 259 L 24.117188 259 Z M 24.117188 63 " clip-rule="nonzero"/></clipPath><clipPath id="4b923bd7a2"><path d="M 42 36.195312 L 377 36.195312 L 377 264.128906 L 42 264.128906 Z M 42 36.195312 " clip-rule="nonzero"/></clipPath><clipPath id="2c69732450"><path d="M 26 46 L 381.011719 46 L 381.011719 252 L 26 252 Z M 26 46 " clip-rule="nonzero"/></clipPath></defs><path fill="#f5f5f5" d="M 50.160156 258.578125 C 50.160156 258.769531 50.316406 258.925781 50.503906 258.925781 L 50.519531 258.925781 C 50.550781 259.574219 50.605469 260.25 50.695312 260.945312 L 78.742188 260.945312 C 78.742188 260.945312 78.960938 259.988281 78.457031 258.882812 C 78.566406 258.824219 78.644531 258.710938 78.644531 258.578125 C 78.644531 258.386719 78.492188 258.234375 78.300781 258.234375 L 78.074219 258.234375 C 77.605469 257.582031 76.839844 256.929688 75.585938 256.4375 C 72.136719 255.082031 67.71875 254.03125 62.722656 248.613281 C 58.257812 253.214844 51.613281 250.675781 51.613281 250.675781 C 51.613281 250.675781 50.429688 253.757812 50.503906 258.234375 C 50.3125 258.234375 50.160156 258.390625 50.160156 258.578125 Z M 50.160156 258.578125 " fill-opacity="1" fill-rule="nonzero"/><path fill="#f5f5f5" d="M 296.640625 63.089844 L 296.640625 65.910156 C 296.640625 67.070312 297.578125 68.007812 298.738281 68.007812 L 298.386719 68.007812 C 297.8125 68.007812 297.347656 68.472656 297.347656 69.050781 C 297.347656 69.625 297.8125 70.089844 298.386719 70.089844 L 299.867188 70.089844 C 299.859375 70.097656 299.851562 70.105469 299.84375 70.113281 L 298.386719 70.113281 C 297.8125 70.113281 297.347656 70.582031 297.347656 71.15625 C 297.347656 71.730469 297.8125 72.195312 298.386719 72.195312 L 299.117188 72.195312 C 299.230469 73.597656 300.40625 74.722656 301.835938 74.722656 C 303.242188 74.722656 304.429688 73.640625 304.5625 72.242188 L 304.566406 72.195312 L 305.285156 72.195312 C 305.859375 72.195312 306.324219 71.730469 306.324219 71.15625 C 306.324219 70.582031 305.859375 70.113281 305.285156 70.113281 L 303.828125 70.113281 C 303.820312 70.105469 303.8125 70.097656 303.804688 70.089844 L 305.285156 70.089844 C 305.859375 70.089844 306.324219 69.625 306.324219 69.050781 C 306.324219 68.472656 305.859375 68.007812 305.285156 68.007812 L 304.9375 68.007812 C 306.09375 68.007812 307.03125 67.070312 307.03125 65.910156 L 307.03125 63.089844 C 310.207031 61.28125 312.347656 57.863281 312.347656 53.945312 C 312.347656 48.136719 307.640625 43.429688 301.835938 43.429688 C 296.03125 43.429688 291.328125 48.136719 291.328125 53.945312 C 291.328125 57.863281 293.46875 61.28125 296.640625 63.089844 Z M 296.640625 63.089844 " fill-opacity="1" fill-rule="nonzero"/><g clip-path="url(#021cc15f63)"><path fill="#f5f5f5" d="M 301.457031 36.289062 L 302.449219 36.289062 L 302.449219 40.585938 L 301.457031 40.585938 Z M 301.457031 36.289062 " fill-opacity="1" fill-rule="nonzero"/></g><path fill="#f5f5f5" d="M 310.789062 44.378906 L 313.921875 41.441406 L 314.597656 42.167969 L 311.464844 45.105469 Z M 310.789062 44.378906 " fill-opacity="1" fill-rule="nonzero"/><path fill="#f5f5f5" d="M 284.226562 53.101562 L 288.519531 53.101562 L 288.519531 54.09375 L 284.226562 54.09375 Z M 284.226562 53.101562 " fill-opacity="1" fill-rule="nonzero"/><path fill="#f5f5f5" d="M 314.8125 53.101562 L 319.105469 53.101562 L 319.105469 54.09375 L 314.8125 54.09375 Z M 314.8125 53.101562 " fill-opacity="1" fill-rule="nonzero"/><path fill="#f5f5f5" d="M 288.628906 42.179688 L 289.304688 41.457031 L 292.4375 44.394531 L 291.761719 45.117188 Z M 288.628906 42.179688 " fill-opacity="1" fill-rule="nonzero"/><g clip-path="url(#45e157bbd6)"><path fill="#f5f5f5" d="M 380.996094 157.925781 C 380.996094 157.921875 381 157.914062 381 157.910156 C 380.980469 157.464844 380.875 156.296875 380.730469 154.835938 L 380.726562 154.835938 C 380.34375 150.984375 379.691406 145.109375 379.691406 145.105469 L 376.574219 117.195312 L 375.679688 102.070312 L 367.824219 102.386719 L 376.941406 102.019531 C 376.777344 99.382812 376.585938 96.746094 376.386719 94.109375 C 376.121094 91 375.859375 87.890625 375.472656 84.789062 C 375.109375 81.867188 373.246094 79.503906 370.753906 78.355469 C 370.757812 78.335938 370.757812 78.320312 370.757812 78.320312 C 364.828125 75.757812 359.035156 74.09375 353.289062 73.316406 L 351.5 62.304688 C 353.617188 58.933594 355.988281 54.226562 356.195312 49.542969 C 356.496094 42.59375 354.382812 40.421875 351.125 41.144531 C 346.957031 37.582031 343.878906 36.3125 345.085938 38.304688 C 336.996094 37.941406 327.160156 39.390625 327.882812 43.984375 C 328.417969 47.363281 330.09375 52.445312 330.941406 54.890625 L 330.792969 50.808594 L 331.1875 61.59375 C 331.324219 65.109375 333.640625 68.328125 337.191406 69.417969 C 337.382812 69.476562 337.578125 69.519531 337.773438 69.5625 L 338.1875 74.921875 L 338.066406 73.371094 C 333.058594 74.097656 328.027344 75.519531 322.921875 77.652344 C 322.914062 77.65625 322.90625 77.664062 322.894531 77.667969 C 320.945312 78.34375 319.261719 79.777344 318.328125 81.808594 L 317.753906 82.953125 L 285.507812 82.953125 C 285.46875 82.183594 285.4375 81.445312 285.476562 80.75 C 285.558594 79.351562 285.585938 79.003906 284.898438 78.863281 C 284.136719 78.703125 282.582031 79.578125 281.816406 82.417969 C 281.769531 82.601562 281.71875 82.777344 281.667969 82.953125 L 280.554688 82.953125 C 279.964844 81.226562 279.511719 80.015625 279.464844 79.890625 C 279.464844 79.886719 279.460938 79.878906 279.460938 79.875 C 279.460938 79.875 279.457031 79.867188 279.457031 79.867188 C 279.246094 79.363281 278.8125 78.976562 278.238281 78.871094 C 277.289062 78.695312 276.414062 79.359375 276.289062 80.292969 L 275.3125 80.425781 C 275.296875 80.160156 275.285156 79.941406 275.273438 79.804688 C 275.179688 78.863281 274.398438 78.140625 273.457031 78.222656 C 272.554688 78.300781 271.902344 79.078125 271.9375 79.949219 C 271.617188 79.199219 270.835938 78.742188 270.019531 78.945312 C 269.300781 79.121094 268.824219 79.734375 268.765625 80.417969 C 268.390625 79.96875 267.789062 79.75 267.191406 79.929688 C 266.324219 80.191406 265.886719 81.160156 266.261719 81.988281 L 266.800781 82.953125 L 258.289062 82.953125 L 258.289062 69.929688 C 258.289062 66.261719 255.320312 63.292969 251.660156 63.292969 C 247.996094 63.292969 245.027344 66.261719 245.027344 69.929688 L 245.027344 82.953125 L 227.628906 82.953125 L 227.628906 69.929688 C 227.628906 66.261719 224.660156 63.292969 221 63.292969 C 217.335938 63.292969 214.367188 66.261719 214.367188 69.929688 L 214.367188 82.953125 L 196.96875 82.953125 L 196.96875 69.929688 C 196.96875 66.261719 194 63.292969 190.335938 63.292969 C 186.675781 63.292969 183.707031 66.261719 183.707031 69.929688 L 183.707031 82.953125 L 166.308594 82.953125 L 166.308594 69.929688 C 166.308594 66.261719 163.339844 63.292969 159.675781 63.292969 C 156.957031 63.292969 154.625 64.929688 153.601562 67.273438 C 153.035156 67.0625 152.457031 66.890625 151.871094 66.773438 C 151.023438 66.433594 150.042969 66.210938 148.90625 66.132812 C 145.460938 65.582031 137.492188 65.945312 135.648438 71.945312 L 135.648438 69.929688 C 135.648438 66.265625 132.679688 63.292969 129.015625 63.292969 C 125.355469 63.292969 122.386719 66.265625 122.386719 69.929688 L 122.386719 82.953125 L 105.628906 82.953125 L 105.9375 82.394531 C 106.253906 81.699219 105.882812 80.878906 105.152344 80.65625 C 104.644531 80.503906 104.140625 80.6875 103.820312 81.070312 C 103.773438 80.492188 103.367188 79.972656 102.761719 79.824219 C 102.070312 79.65625 101.414062 80.039062 101.140625 80.675781 C 101.167969 79.9375 100.621094 79.28125 99.855469 79.214844 C 99.058594 79.144531 98.398438 79.753906 98.320312 80.554688 C 98.308594 80.691406 98.292969 80.929688 98.28125 81.210938 L 97.484375 81.140625 L 97.480469 81.085938 C 97.441406 80.230469 96.65625 79.609375 95.8125 79.761719 C 95.109375 79.890625 94.65625 80.523438 94.671875 81.222656 C 94.617188 81.5625 94.519531 82.160156 94.402344 82.953125 L 93.183594 82.953125 C 92.132812 80.773438 90.742188 80.28125 90.136719 80.523438 C 89.585938 80.746094 89.660156 81.027344 89.933594 82.183594 C 89.992188 82.429688 90.039062 82.6875 90.082031 82.953125 L 86.265625 82.953125 C 86.265625 82.9375 86.269531 82.925781 86.273438 82.910156 L 87.46875 73.671875 C 87.542969 73.101562 87.542969 72.542969 87.507812 71.988281 C 88.082031 69.382812 88.25 65.535156 85.511719 62.535156 C 82.1875 58.890625 77.625 57.09375 73.078125 57.863281 C 72.683594 54.429688 69.773438 51.757812 66.230469 51.757812 C 62.421875 51.757812 59.335938 54.847656 59.335938 58.660156 C 59.335938 61.304688 60.820312 63.597656 63 64.757812 C 61.453125 67.425781 61.277344 70.46875 62.035156 74.226562 C 63.019531 79.128906 63.59375 85.199219 63.796875 87.589844 L 61.847656 92.371094 L 62.425781 90.949219 C 61.910156 90.894531 61.390625 90.863281 60.859375 90.863281 C 54.394531 90.863281 48.8125 95.398438 47.484375 101.734375 L 42.503906 123.351562 C 42.265625 124.382812 42.636719 125.417969 43.390625 126.082031 C 40.152344 129.054688 31.519531 138.042969 31.519531 149.359375 L 32.082031 179.257812 C 32.144531 183.382812 31.457031 187.488281 30.039062 191.367188 C 24.105469 207.5625 25.222656 233.632812 25.222656 244.941406 L 26.226562 244.941406 C 26.230469 246.429688 26.21875 248.082031 26.179688 249.796875 C 26.179688 249.796875 26.179688 249.800781 26.179688 249.800781 C 26.179688 249.796875 26.179688 249.796875 26.179688 249.796875 C 25.761719 252.929688 25.21875 255.269531 25.144531 258.234375 L 25.074219 258.234375 C 24.882812 258.234375 24.730469 258.390625 24.730469 258.578125 C 24.730469 258.769531 24.882812 258.925781 25.074219 258.925781 L 25.136719 258.925781 C 25.136719 259.566406 25.148438 260.226562 25.199219 260.945312 L 41.792969 260.945312 C 41.765625 260.066406 41.558594 259.339844 41.25 258.695312 C 41.265625 258.660156 41.273438 258.621094 41.273438 258.578125 C 41.273438 258.421875 41.164062 258.292969 41.015625 258.253906 C 39.316406 255.382812 35.410156 254.410156 35.382812 249.9375 C 35.320312 249.578125 35.214844 249.285156 35.078125 249.046875 C 35.144531 249.164062 35.203125 249.289062 35.253906 249.429688 C 35.28125 248.023438 35.386719 246.453125 35.527344 244.941406 L 36.664062 244.941406 L 49.105469 191.132812 L 50.597656 180.925781 C 50.605469 180.980469 50.605469 181.035156 50.613281 181.089844 L 49.878906 186.65625 C 49.851562 186.84375 49.984375 187.019531 50.175781 187.042969 C 50.191406 187.046875 50.207031 187.046875 50.222656 187.046875 C 50.390625 187.046875 50.539062 186.917969 50.5625 186.746094 L 55.351562 150.449219 L 50.785156 185.0625 C 50.75 187.207031 50.503906 189.316406 50.042969 191.367188 C 46.398438 207.5625 49.921875 233.632812 51.519531 244.941406 L 52.105469 244.941406 C 52.140625 246.957031 52.011719 248.925781 51.613281 250.675781 C 51.613281 250.675781 51.613281 250.679688 51.613281 250.679688 L 51.613281 250.675781 C 51.613281 250.675781 58.222656 253.199219 62.683594 248.644531 C 62.605469 247.535156 62.585938 246.269531 62.597656 244.941406 L 62.964844 244.941406 L 67.894531 191.132812 L 66.742188 144.386719 L 66.742188 128.660156 C 67.113281 128.527344 67.449219 128.320312 67.730469 128.050781 C 69.503906 128.953125 71.714844 128.785156 73.351562 127.441406 L 78.507812 123.214844 L 78.101562 233.5 C 78.101562 236.75 80.730469 239.386719 83.964844 239.386719 L 85.773438 239.386719 L 85.773438 245.585938 C 85.773438 248.164062 87.863281 250.253906 90.4375 250.253906 L 128.5 250.253906 C 128.523438 250.773438 128.535156 251.0625 128.535156 251.0625 L 132.917969 251.0625 C 132.152344 254.65625 124.550781 257.183594 124.632812 260.988281 L 145.007812 260.988281 C 145.007812 257.957031 145.0625 254.917969 144.824219 251.0625 L 149.070312 251.0625 L 149.101562 250.234375 C 149.230469 250.246094 149.363281 250.253906 149.5 250.253906 L 152.640625 250.253906 L 152.714844 251.0625 L 157.167969 251.0625 C 156.929688 254.917969 156.988281 257.957031 156.988281 260.988281 L 177.359375 260.988281 C 177.441406 257.183594 169.839844 254.652344 169.074219 251.0625 L 173.253906 251.0625 C 173.253906 251.0625 173.242188 250.773438 173.21875 250.253906 L 193.042969 250.253906 C 195.617188 250.253906 197.707031 248.164062 197.707031 245.585938 L 197.707031 239.386719 L 203.898438 239.386719 L 203.898438 245.585938 C 203.898438 248.164062 205.984375 250.253906 208.5625 250.253906 L 252.105469 250.253906 C 254.683594 250.253906 256.769531 248.164062 256.769531 245.585938 L 256.769531 239.386719 L 262.960938 239.386719 L 262.960938 245.585938 C 262.960938 248.164062 265.050781 250.253906 267.625 250.253906 L 271.886719 250.253906 L 271.886719 264.058594 L 289.441406 264.058594 L 289.441406 250.253906 L 311.171875 250.253906 C 313.746094 250.253906 315.835938 248.164062 315.835938 245.585938 L 315.835938 239.386719 L 317.917969 239.386719 C 319.089844 239.386719 320.179688 239.035156 321.097656 238.441406 C 320.859375 241.339844 320.421875 243.304688 319.769531 244.949219 C 317.652344 247.582031 312.144531 250.933594 307.867188 253.011719 L 309.726562 255.914062 L 307.867188 253.011719 C 307.21875 253.324219 306.59375 253.613281 306.019531 253.863281 C 303.480469 254.964844 302.839844 256.230469 302.679688 257.453125 C 302.59375 258.097656 303.097656 258.671875 303.746094 258.671875 L 330.878906 258.671875 C 331.441406 258.671875 331.910156 258.238281 331.953125 257.675781 C 331.988281 257.214844 332.019531 256.613281 332.035156 255.914062 C 332.089844 253.617188 331.957031 250.261719 331.007812 247.332031 C 331.007812 247.335938 331.007812 247.335938 331.007812 247.339844 C 330.992188 244.574219 331.378906 240.867188 331.695312 238.316406 L 332.914062 238.316406 C 335.550781 229.550781 341.683594 207.933594 338.691406 192.40625 L 345.230469 148.054688 L 341.335938 147.808594 L 346.847656 148.15625 C 346.855469 148.15625 346.863281 148.15625 346.871094 148.15625 C 346.875 148.15625 346.878906 148.15625 346.882812 148.15625 L 349.632812 238.316406 L 350.308594 238.316406 C 350.304688 238.507812 350.296875 238.6875 350.296875 238.886719 C 350.296875 242.34375 350.09375 244.988281 349.925781 248.671875 C 349.914062 248.949219 349.902344 249.230469 349.890625 249.519531 C 349.882812 249.628906 349.878906 249.738281 349.875 249.847656 C 349.867188 250.011719 349.863281 250.175781 349.855469 250.34375 C 349.851562 250.523438 349.84375 250.703125 349.835938 250.886719 C 349.832031 250.992188 349.828125 251.101562 349.824219 251.207031 C 349.820312 251.425781 349.8125 251.648438 349.804688 251.875 C 349.804688 251.941406 349.800781 252.003906 349.800781 252.070312 C 349.753906 253.675781 349.71875 255.480469 349.710938 257.585938 C 349.707031 258.183594 350.1875 258.671875 350.785156 258.671875 L 369.679688 258.671875 C 370.335938 258.671875 370.851562 258.082031 370.746094 257.433594 C 370.34375 254.984375 368.773438 253.265625 366.980469 251.628906 C 366.980469 251.628906 366.980469 251.628906 366.984375 251.628906 C 366.917969 251.570312 366.851562 251.511719 366.789062 251.453125 C 366.246094 250.964844 365.691406 250.480469 365.144531 249.988281 C 365.015625 249.875 364.890625 249.757812 364.761719 249.640625 C 364.628906 249.519531 364.492188 249.394531 364.359375 249.265625 C 364.226562 249.136719 364.09375 249.007812 363.960938 248.875 C 363.839844 248.757812 363.722656 248.636719 363.605469 248.515625 C 363.46875 248.375 363.339844 248.230469 363.207031 248.082031 C 363.101562 247.964844 362.992188 247.84375 362.890625 247.722656 C 362.757812 247.566406 362.632812 247.402344 362.507812 247.238281 C 362.417969 247.121094 362.324219 247.003906 362.238281 246.882812 C 362.109375 246.695312 361.988281 246.496094 361.867188 246.300781 C 361.804688 246.191406 361.730469 246.089844 361.667969 245.980469 C 361.496094 245.671875 361.339844 245.351562 361.203125 245.019531 C 361.199219 245.011719 361.199219 245.007812 361.195312 245.003906 C 361.136719 244.867188 361.089844 244.726562 361.042969 244.589844 C 360.277344 242.515625 360.152344 240.421875 360.230469 238.320312 L 361.734375 238.320312 C 362.746094 232.28125 364.65625 220.699219 365.574219 213.824219 C 366.855469 204.210938 364.957031 190.085938 364.957031 190.085938 L 365.8125 146.441406 C 365.816406 146.441406 365.816406 146.441406 365.820312 146.441406 C 366.011719 146.441406 366.164062 146.285156 366.164062 146.09375 C 366.164062 145.90625 366.011719 145.75 365.820312 145.75 C 365.824219 145.75 365.824219 145.75 365.828125 145.75 L 365.921875 140.957031 C 366.578125 140.519531 367.003906 139.785156 367.003906 138.953125 C 367.003906 136.929688 366.816406 133.601562 366.605469 130 C 368.347656 136.226562 370.378906 143.476562 371.125 146.132812 L 371.117188 146.136719 C 370.9375 146.191406 370.832031 146.382812 370.890625 146.566406 C 370.914062 146.644531 370.964844 146.703125 371.027344 146.746094 C 370.984375 146.820312 370.929688 146.894531 370.890625 146.964844 C 369.734375 149.101562 369.507812 150.542969 369.835938 153.589844 C 369.707031 153.65625 369.636719 153.792969 369.65625 153.933594 C 369.613281 153.925781 369.574219 153.90625 369.53125 153.902344 C 368.730469 153.804688 368.039062 154.445312 368.070312 155.25 L 368.238281 159.453125 C 368.253906 159.84375 368.445312 160.207031 368.757812 160.441406 L 371.605469 162.597656 C 371.777344 162.933594 372 163.21875 372.28125 163.441406 C 372.484375 163.601562 372.726562 163.683594 372.976562 163.683594 C 373.003906 163.683594 373.03125 163.671875 373.058594 163.671875 C 373.511719 163.941406 374.082031 163.929688 374.511719 163.605469 L 380.484375 159.09375 C 380.828125 158.835938 381.019531 158.429688 381.003906 158 Z M 34.710938 248.628906 C 34.664062 248.589844 34.613281 248.546875 34.5625 248.511719 C 34.613281 248.546875 34.664062 248.589844 34.710938 248.628906 Z M 34.40625 248.433594 C 34.351562 248.40625 34.296875 248.378906 34.238281 248.355469 C 34.296875 248.378906 34.351562 248.40625 34.40625 248.433594 Z M 34.066406 248.308594 C 34.003906 248.292969 33.945312 248.277344 33.878906 248.265625 C 33.945312 248.277344 34.003906 248.292969 34.066406 248.308594 Z M 33.691406 248.246094 C 33.625 248.242188 33.558594 248.238281 33.492188 248.238281 C 33.558594 248.238281 33.625 248.242188 33.691406 248.246094 Z M 33.289062 248.242188 C 33.21875 248.25 33.148438 248.253906 33.074219 248.261719 C 33.148438 248.253906 33.21875 248.25 33.289062 248.242188 Z M 32.867188 248.292969 C 32.792969 248.304688 32.714844 248.320312 32.640625 248.335938 C 32.71875 248.320312 32.792969 248.304688 32.867188 248.292969 Z M 32.425781 248.386719 C 32.347656 248.40625 32.269531 248.429688 32.191406 248.453125 C 32.269531 248.429688 32.347656 248.40625 32.425781 248.386719 Z M 31.972656 248.519531 C 31.894531 248.546875 31.8125 248.574219 31.730469 248.605469 C 31.8125 248.574219 31.894531 248.546875 31.972656 248.519531 Z M 31.515625 248.683594 C 31.433594 248.71875 31.347656 248.753906 31.265625 248.789062 C 31.347656 248.75 31.429688 248.71875 31.515625 248.683594 Z M 31.054688 248.875 C 30.96875 248.914062 30.886719 248.957031 30.800781 248.996094 C 30.886719 248.957031 30.96875 248.914062 31.054688 248.875 Z M 30.601562 249.089844 C 30.511719 249.132812 30.421875 249.179688 30.335938 249.226562 C 30.421875 249.179688 30.511719 249.132812 30.601562 249.089844 Z M 30.15625 249.320312 C 30.0625 249.371094 29.96875 249.421875 29.875 249.476562 C 29.96875 249.421875 30.0625 249.371094 30.15625 249.320312 Z M 29.730469 249.554688 C 29.589844 249.636719 29.453125 249.714844 29.320312 249.796875 C 29.453125 249.714844 29.589844 249.636719 29.730469 249.554688 Z M 41.109375 258.863281 C 41.121094 258.859375 41.128906 258.851562 41.136719 258.847656 C 41.128906 258.855469 41.121094 258.859375 41.109375 258.863281 Z M 34.84375 248.742188 C 34.890625 248.789062 34.933594 248.855469 34.976562 248.914062 C 34.933594 248.855469 34.890625 248.792969 34.84375 248.742188 Z M 350.75 248.84375 C 350.804688 248.847656 350.863281 248.847656 350.921875 248.847656 C 350.863281 248.847656 350.804688 248.847656 350.75 248.84375 Z M 351.089844 248.832031 C 351.160156 248.824219 351.226562 248.8125 351.292969 248.800781 C 351.226562 248.816406 351.160156 248.824219 351.089844 248.832031 Z M 351.449219 248.769531 C 351.566406 248.738281 351.683594 248.699219 351.808594 248.648438 C 351.683594 248.699219 351.566406 248.738281 351.449219 248.769531 Z M 351.898438 248.601562 C 352 248.554688 352.097656 248.503906 352.199219 248.441406 C 352.097656 248.503906 351.996094 248.554688 351.898438 248.601562 Z M 352.335938 248.351562 C 352.429688 248.289062 352.527344 248.21875 352.621094 248.140625 C 352.527344 248.21875 352.429688 248.289062 352.335938 248.351562 Z M 352.75 248.035156 C 352.886719 247.917969 353.027344 247.789062 353.167969 247.640625 C 353.027344 247.789062 352.886719 247.917969 352.75 248.035156 Z M 353.167969 247.640625 C 353.347656 247.449219 353.523438 247.265625 353.707031 247.089844 C 353.523438 247.265625 353.347656 247.449219 353.167969 247.640625 Z M 360.539062 244.445312 C 360.039062 244.332031 359.539062 244.289062 359.039062 244.3125 C 358.703125 244.332031 358.367188 244.378906 358.035156 244.457031 C 357.84375 244.503906 357.652344 244.558594 357.464844 244.621094 C 358.480469 244.28125 359.507812 244.207031 360.539062 244.445312 Z M 353.878906 246.925781 C 354.003906 246.808594 354.128906 246.695312 354.253906 246.582031 C 354.128906 246.695312 354.003906 246.808594 353.878906 246.925781 Z M 354.453125 246.410156 C 354.578125 246.304688 354.703125 246.203125 354.828125 246.101562 C 354.703125 246.203125 354.578125 246.304688 354.453125 246.410156 Z M 355.007812 245.960938 C 355.191406 245.824219 355.371094 245.695312 355.554688 245.574219 C 355.371094 245.695312 355.191406 245.824219 355.007812 245.960938 Z M 355.570312 245.5625 C 355.753906 245.441406 355.9375 245.332031 356.121094 245.226562 C 355.9375 245.332031 355.753906 245.441406 355.570312 245.5625 Z M 356.296875 245.132812 C 356.429688 245.0625 356.558594 244.996094 356.691406 244.933594 C 356.558594 244.996094 356.429688 245.0625 356.296875 245.132812 Z M 356.886719 244.84375 C 357.019531 244.789062 357.152344 244.734375 357.289062 244.6875 C 357.152344 244.734375 357.019531 244.785156 356.886719 244.84375 Z M 324.125 140.269531 C 324.269531 140.484375 324.445312 140.675781 324.652344 140.835938 L 324.472656 145.761719 C 324.308594 145.789062 324.183594 145.925781 324.183594 146.09375 C 324.183594 146.253906 324.296875 146.382812 324.445312 146.421875 L 324.066406 156.800781 Z M 325.304688 146.378906 C 325.054688 146.414062 324.800781 146.4375 324.527344 146.4375 C 324.800781 146.4375 325.054688 146.414062 325.304688 146.378906 Z M 327.988281 145.054688 C 327.847656 145.191406 327.695312 145.320312 327.535156 145.441406 C 327.695312 145.320312 327.847656 145.191406 327.988281 145.054688 Z M 327.492188 145.476562 C 327.316406 145.605469 327.128906 145.722656 326.9375 145.828125 C 327.128906 145.722656 327.316406 145.605469 327.492188 145.476562 Z M 326.804688 145.898438 C 326.613281 146 326.410156 146.089844 326.199219 146.164062 C 326.410156 146.089844 326.613281 146 326.804688 145.898438 Z M 326.171875 146.175781 C 325.953125 146.25 325.71875 146.304688 325.480469 146.347656 C 325.71875 146.304688 325.953125 146.25 326.171875 146.175781 Z M 325.210938 145.691406 C 325.257812 145.683594 325.308594 145.675781 325.355469 145.667969 C 325.308594 145.679688 325.257812 145.683594 325.210938 145.691406 Z M 325.957031 145.511719 C 325.984375 145.503906 326.007812 145.492188 326.035156 145.480469 C 326.007812 145.492188 325.984375 145.503906 325.957031 145.511719 Z M 326.53125 145.257812 C 326.566406 145.242188 326.597656 145.226562 326.628906 145.207031 C 326.597656 145.226562 326.566406 145.242188 326.53125 145.257812 Z M 327.113281 144.894531 C 327.144531 144.871094 327.171875 144.84375 327.203125 144.820312 C 327.171875 144.84375 327.144531 144.871094 327.113281 144.894531 Z M 327.597656 144.476562 C 327.613281 144.460938 327.632812 144.445312 327.648438 144.429688 C 327.628906 144.445312 327.613281 144.460938 327.597656 144.476562 Z M 329.667969 142.621094 C 329.664062 142.625 329.664062 142.632812 329.660156 142.640625 C 329.664062 142.632812 329.664062 142.625 329.667969 142.621094 Z M 329.527344 142.914062 C 329.484375 142.996094 329.441406 143.082031 329.398438 143.167969 C 329.441406 143.082031 329.488281 142.996094 329.527344 142.914062 Z M 329.277344 143.390625 C 329.1875 143.542969 329.09375 143.691406 328.996094 143.84375 C 329.097656 143.691406 329.1875 143.542969 329.277344 143.390625 Z M 328.886719 144.007812 C 328.792969 144.140625 328.695312 144.269531 328.59375 144.398438 C 328.695312 144.269531 328.792969 144.140625 328.886719 144.007812 Z M 328.515625 144.5 C 328.386719 144.65625 328.246094 144.804688 328.101562 144.949219 C 328.246094 144.804688 328.386719 144.65625 328.515625 144.5 Z M 328.019531 144.015625 C 328.046875 143.976562 328.078125 143.941406 328.105469 143.90625 C 328.078125 143.941406 328.050781 143.980469 328.019531 144.015625 Z M 328.421875 143.472656 C 328.4375 143.449219 328.453125 143.425781 328.46875 143.398438 C 328.453125 143.425781 328.4375 143.449219 328.421875 143.472656 Z M 328.699219 143.011719 C 328.730469 142.960938 328.757812 142.914062 328.785156 142.863281 C 328.757812 142.914062 328.730469 142.960938 328.699219 143.011719 Z M 328.992188 142.453125 C 329.019531 142.394531 329.046875 142.335938 329.070312 142.277344 C 329.042969 142.335938 329.019531 142.394531 328.992188 142.453125 Z M 329.183594 142.019531 C 329.210938 141.953125 329.238281 141.886719 329.261719 141.824219 C 329.238281 141.886719 329.210938 141.953125 329.183594 142.019531 Z M 329.960938 141.914062 Z M 349.375 142.816406 C 349.207031 142.820312 349.042969 142.828125 348.878906 142.832031 C 349.042969 142.828125 349.210938 142.820312 349.375 142.816406 Z M 362.785156 145.417969 C 362.636719 145.304688 362.5 145.183594 362.363281 145.058594 C 362.5 145.183594 362.636719 145.304688 362.785156 145.417969 Z M 362.703125 144.433594 C 362.710938 144.4375 362.714844 144.441406 362.71875 144.445312 C 362.714844 144.441406 362.710938 144.4375 362.703125 144.433594 Z M 364.402344 145.515625 C 364.367188 145.503906 364.339844 145.492188 364.304688 145.476562 C 364.339844 145.492188 364.367188 145.503906 364.402344 145.515625 Z M 363.8125 145.257812 C 363.785156 145.242188 363.753906 145.230469 363.726562 145.214844 C 363.753906 145.230469 363.785156 145.242188 363.8125 145.257812 Z M 363.246094 144.898438 C 363.214844 144.875 363.179688 144.847656 363.148438 144.820312 C 363.179688 144.847656 363.214844 144.875 363.246094 144.898438 Z M 362.335938 144.019531 C 362.308594 143.988281 362.28125 143.957031 362.253906 143.921875 C 362.28125 143.957031 362.308594 143.988281 362.335938 144.019531 Z M 361.9375 143.484375 C 361.917969 143.457031 361.898438 143.425781 361.878906 143.394531 C 361.898438 143.425781 361.917969 143.457031 361.9375 143.484375 Z M 361.632812 142.988281 C 361.617188 142.960938 361.601562 142.933594 361.585938 142.90625 C 361.601562 142.933594 361.617188 142.960938 361.632812 142.988281 Z M 361.359375 142.457031 C 361.339844 142.417969 361.324219 142.375 361.304688 142.335938 C 361.324219 142.375 361.339844 142.417969 361.359375 142.457031 Z M 356.996094 142.363281 C 356.796875 142.378906 356.601562 142.398438 356.402344 142.414062 C 356.601562 142.398438 356.800781 142.378906 356.996094 142.363281 Z M 341.574219 142.804688 C 341.472656 142.800781 341.371094 142.800781 341.269531 142.796875 C 341.371094 142.800781 341.472656 142.800781 341.574219 142.804688 Z M 333.785156 142.328125 C 333.753906 142.324219 333.722656 142.320312 333.695312 142.320312 C 333.722656 142.320312 333.753906 142.324219 333.785156 142.328125 Z M 325.113281 141.113281 C 325.144531 141.125 325.175781 141.140625 325.210938 141.15625 C 325.175781 141.140625 325.144531 141.128906 325.113281 141.113281 Z M 321.582031 83.277344 Z M 320.332031 82.976562 C 320.183594 82.960938 320.03125 82.953125 319.878906 82.953125 C 320.03125 82.953125 320.183594 82.960938 320.332031 82.976562 Z M 321.179688 83.140625 C 321.179688 83.140625 321.175781 83.140625 321.175781 83.140625 C 321.175781 83.140625 321.175781 83.140625 321.179688 83.140625 Z M 320.765625 83.039062 C 320.734375 83.03125 320.699219 83.03125 320.667969 83.023438 C 320.699219 83.03125 320.734375 83.03125 320.765625 83.039062 Z M 138.125 82.578125 C 138.140625 82.703125 138.167969 82.828125 138.195312 82.953125 C 138.171875 82.828125 138.140625 82.703125 138.125 82.578125 Z M 138.105469 82.382812 C 138.101562 82.304688 138.101562 82.230469 138.101562 82.152344 C 138.101562 82.230469 138.101562 82.304688 138.105469 82.382812 Z M 153.230469 99.527344 Z M 151.980469 76.710938 C 151.902344 76.730469 151.828125 76.75 151.75 76.765625 C 151.828125 76.75 151.902344 76.730469 151.980469 76.710938 Z M 152.769531 76.507812 C 152.691406 76.53125 152.613281 76.550781 152.539062 76.570312 C 152.613281 76.550781 152.691406 76.53125 152.769531 76.507812 Z M 149.175781 77.167969 C 149.25 77.160156 149.328125 77.152344 149.402344 77.144531 C 149.328125 77.152344 149.25 77.160156 149.175781 77.167969 Z M 149.96875 77.074219 C 150.046875 77.0625 150.128906 77.054688 150.210938 77.042969 C 150.128906 77.054688 150.046875 77.066406 149.96875 77.074219 Z M 150.941406 76.925781 C 150.957031 76.925781 150.972656 76.921875 150.988281 76.917969 C 150.972656 76.921875 150.957031 76.925781 150.941406 76.925781 Z M 146.042969 77.332031 C 146.117188 77.332031 146.191406 77.332031 146.265625 77.328125 C 146.332031 77.328125 146.398438 77.324219 146.464844 77.324219 C 146.5625 77.320312 146.660156 77.320312 146.761719 77.316406 C 147.292969 77.300781 147.855469 77.277344 148.425781 77.234375 C 147.3125 77.316406 146.253906 77.335938 145.34375 77.339844 C 145.359375 77.667969 145.363281 78.066406 145.34375 78.492188 C 145.347656 78.417969 145.351562 78.34375 145.351562 78.269531 C 145.355469 78.207031 145.355469 78.140625 145.355469 78.078125 C 145.355469 77.992188 145.355469 77.910156 145.355469 77.832031 C 145.355469 77.785156 145.355469 77.738281 145.355469 77.691406 C 145.351562 77.570312 145.347656 77.449219 145.34375 77.339844 C 145.566406 77.339844 145.804688 77.335938 146.042969 77.332031 Z M 145.320312 78.929688 C 145.324219 78.859375 145.328125 78.792969 145.332031 78.726562 C 145.335938 78.652344 145.34375 78.578125 145.34375 78.503906 C 145.332031 78.78125 145.308594 79.074219 145.273438 79.375 C 145.28125 79.3125 145.289062 79.246094 145.292969 79.183594 C 145.304688 79.097656 145.3125 79.015625 145.320312 78.929688 Z M 145.234375 79.660156 C 145.238281 79.640625 145.238281 79.625 145.242188 79.605469 C 145.222656 79.738281 145.199219 79.871094 145.171875 80.007812 C 145.183594 79.945312 145.195312 79.882812 145.207031 79.820312 C 145.214844 79.765625 145.226562 79.710938 145.234375 79.660156 Z M 145.128906 80.234375 C 145.132812 80.203125 145.140625 80.175781 145.148438 80.144531 C 145.097656 80.378906 145.039062 80.613281 144.964844 80.84375 C 144.96875 80.828125 144.976562 80.8125 144.980469 80.796875 C 145.035156 80.609375 145.085938 80.421875 145.128906 80.234375 Z M 144.570312 81.828125 C 144.628906 81.714844 144.683594 81.601562 144.734375 81.484375 C 144.738281 81.480469 144.742188 81.472656 144.742188 81.464844 C 144.820312 81.28125 144.886719 81.09375 144.945312 80.902344 C 144.824219 81.289062 144.667969 81.664062 144.46875 82.015625 C 144.488281 81.984375 144.503906 81.957031 144.523438 81.925781 C 144.539062 81.894531 144.554688 81.859375 144.570312 81.828125 Z M 144.441406 82.058594 C 144.386719 82.15625 144.332031 82.25 144.273438 82.339844 C 144.296875 82.304688 144.316406 82.269531 144.339844 82.234375 C 144.378906 82.175781 144.410156 82.117188 144.441406 82.058594 Z M 144.179688 82.464844 C 144.191406 82.453125 144.199219 82.4375 144.210938 82.421875 C 144.136719 82.527344 144.058594 82.628906 143.976562 82.726562 C 144.007812 82.691406 144.035156 82.65625 144.066406 82.621094 C 144.105469 82.570312 144.140625 82.519531 144.179688 82.464844 Z M 139.191406 79.429688 C 139.15625 79.457031 139.117188 79.480469 139.082031 79.511719 C 139.117188 79.480469 139.15625 79.457031 139.191406 79.429688 Z M 140.007812 78.996094 C 139.828125 79.042969 139.664062 79.113281 139.507812 79.203125 C 139.664062 79.113281 139.828125 79.042969 140.007812 78.996094 Z M 138.734375 79.90625 C 138.734375 79.90625 138.734375 79.90625 138.734375 79.902344 C 138.734375 79.90625 138.734375 79.90625 138.734375 79.90625 Z M 138.445312 80.390625 C 138.445312 80.394531 138.445312 80.394531 138.445312 80.394531 C 138.445312 80.394531 138.445312 80.394531 138.445312 80.390625 Z M 138.308594 80.734375 C 138.289062 80.792969 138.269531 80.855469 138.25 80.917969 C 138.269531 80.855469 138.289062 80.792969 138.308594 80.734375 Z M 87.238281 70.277344 C 87.164062 70.003906 87.089844 69.730469 86.992188 69.46875 C 87.089844 69.730469 87.167969 70.003906 87.238281 70.277344 Z M 87.375 70.921875 C 87.359375 70.832031 87.347656 70.742188 87.328125 70.65625 C 87.347656 70.742188 87.359375 70.832031 87.375 70.921875 Z M 66.441406 127.121094 C 66.457031 127.136719 66.476562 127.148438 66.492188 127.164062 C 66.476562 127.148438 66.457031 127.136719 66.441406 127.121094 Z M 58.332031 129.296875 C 58.328125 129.296875 58.328125 129.296875 58.324219 129.296875 C 58.328125 129.296875 58.328125 129.296875 58.332031 129.296875 Z M 56.910156 129.226562 C 56.863281 129.222656 56.820312 129.21875 56.773438 129.21875 C 56.816406 129.21875 56.863281 129.222656 56.910156 129.226562 Z M 54.039062 128.949219 C 54.035156 128.949219 54.03125 128.949219 54.027344 128.949219 C 54.03125 128.949219 54.035156 128.949219 54.039062 128.949219 Z M 59.722656 129.320312 C 59.726562 129.320312 59.730469 129.320312 59.734375 129.320312 C 59.730469 129.320312 59.726562 129.320312 59.722656 129.320312 Z M 51.367188 128.53125 C 51.3125 128.519531 51.261719 128.511719 51.207031 128.5 C 51.261719 128.511719 51.316406 128.519531 51.367188 128.53125 Z M 46.828125 127.445312 C 46.820312 127.445312 46.8125 127.441406 46.804688 127.441406 C 46.8125 127.441406 46.820312 127.445312 46.828125 127.445312 Z M 45.625 127.074219 C 45.585938 127.0625 45.546875 127.050781 45.507812 127.035156 C 45.546875 127.046875 45.585938 127.0625 45.625 127.074219 Z M 62.539062 129.222656 C 62.574219 129.21875 62.609375 129.21875 62.644531 129.214844 C 62.609375 129.21875 62.574219 129.21875 62.539062 129.222656 Z M 61.132812 129.296875 C 61.132812 129.296875 61.136719 129.296875 61.140625 129.296875 C 61.136719 129.296875 61.132812 129.296875 61.132812 129.296875 Z M 66.84375 127.480469 C 66.851562 127.484375 66.859375 127.488281 66.863281 127.492188 C 66.855469 127.488281 66.851562 127.484375 66.84375 127.480469 Z M 71.917969 115.402344 L 72.289062 115.15625 C 72.433594 114.652344 72.574219 114.152344 72.714844 113.652344 L 73.582031 114.292969 Z M 74.441406 113.71875 L 78.554688 110.980469 L 78.585938 101.738281 L 72.898438 97.0625 C 72.820312 96.996094 72.71875 96.917969 72.636719 96.855469 C 72.613281 96.839844 72.589844 96.828125 72.566406 96.808594 L 75.820312 88.585938 C 76.703125 89.011719 77.671875 89.261719 78.679688 89.304688 L 78.679688 99.527344 L 124.679688 99.527344 L 78.59375 99.527344 L 78.554688 110.976562 Z M 165.777344 99.527344 L 324.5 99.527344 L 324.53125 99.816406 L 324.667969 101.359375 C 324.425781 108.964844 324.316406 114.453125 324.316406 117.316406 C 324.316406 119.144531 324.261719 121.414062 324.1875 123.816406 L 324.277344 99.527344 Z M 347.109375 148.058594 C 347.113281 148.054688 347.113281 148.050781 347.117188 148.046875 C 347.113281 148.050781 347.113281 148.054688 347.109375 148.058594 Z M 347.179688 147.960938 C 347.199219 147.921875 347.210938 147.878906 347.214844 147.832031 C 347.210938 147.878906 347.199219 147.921875 347.179688 147.960938 Z M 361.46875 144.011719 C 361.554688 144.136719 361.648438 144.261719 361.746094 144.382812 C 361.648438 144.261719 361.554688 144.136719 361.46875 144.011719 Z M 360.554688 142.335938 C 360.570312 142.371094 360.589844 142.410156 360.605469 142.453125 C 360.589844 142.410156 360.570312 142.371094 360.554688 142.335938 Z M 360.832031 142.929688 C 360.875 143.019531 360.921875 143.105469 360.964844 143.191406 C 360.917969 143.105469 360.875 143.019531 360.832031 142.929688 Z M 361.089844 143.417969 C 361.175781 143.566406 361.269531 143.71875 361.367188 143.867188 C 361.269531 143.71875 361.175781 143.566406 361.089844 143.417969 Z M 361.851562 144.515625 C 361.980469 144.671875 362.113281 144.820312 362.257812 144.960938 C 362.117188 144.820312 361.980469 144.671875 361.851562 144.515625 Z M 362.875 145.488281 C 363.046875 145.613281 363.226562 145.726562 363.414062 145.832031 C 363.226562 145.726562 363.046875 145.613281 362.875 145.488281 Z M 363.554688 145.902344 C 363.734375 145.996094 363.921875 146.078125 364.117188 146.148438 C 363.921875 146.078125 363.734375 145.996094 363.554688 145.902344 Z M 364.191406 146.175781 C 364.40625 146.25 364.632812 146.304688 364.867188 146.347656 C 364.632812 146.304688 364.40625 146.25 364.191406 146.175781 Z M 365.050781 146.378906 C 365.296875 146.414062 365.546875 146.4375 365.8125 146.4375 C 365.546875 146.4375 365.296875 146.414062 365.050781 146.378906 Z M 365 145.671875 C 365.046875 145.679688 365.089844 145.683594 365.136719 145.691406 C 365.089844 145.683594 365.042969 145.679688 365 145.671875 Z M 365.46875 141.195312 C 365.480469 141.1875 365.492188 141.183594 365.503906 141.179688 C 365.492188 141.183594 365.480469 141.1875 365.46875 141.195312 Z M 366.078125 117.582031 C 366.078125 117.984375 366.082031 118.410156 366.089844 118.847656 C 366.082031 118.410156 366.078125 117.984375 366.078125 117.582031 Z M 366.101562 119.3125 C 366.105469 119.609375 366.113281 119.90625 366.125 120.214844 C 366.113281 119.90625 366.105469 119.609375 366.101562 119.3125 Z M 366.140625 120.792969 C 366.152344 121.082031 366.160156 121.371094 366.171875 121.667969 C 366.160156 121.371094 366.152344 121.082031 366.140625 120.792969 Z M 366.199219 122.308594 C 366.210938 122.601562 366.222656 122.890625 366.238281 123.183594 C 366.222656 122.890625 366.210938 122.601562 366.199219 122.308594 Z M 366.269531 123.863281 C 366.285156 124.160156 366.300781 124.457031 366.316406 124.757812 C 366.296875 124.457031 366.285156 124.160156 366.269531 123.863281 Z M 366.351562 125.457031 C 366.367188 125.757812 366.382812 126.058594 366.398438 126.359375 C 366.382812 126.058594 366.367188 125.757812 366.351562 125.457031 Z M 366.53125 128.726562 C 366.546875 129.003906 366.566406 129.28125 366.578125 129.558594 C 366.566406 129.28125 366.546875 129.003906 366.53125 128.726562 Z M 366.4375 127.054688 C 366.457031 127.375 366.472656 127.695312 366.492188 128.015625 C 366.472656 127.695312 366.457031 127.375 366.4375 127.054688 Z M 366.4375 127.054688 " fill-opacity="1" fill-rule="nonzero"/></g><path fill="#f5f5f5" d="M 78.59375 99.527344 L 78.101562 233.5 C 78.101562 236.75 80.726562 239.386719 83.964844 239.386719 L 85.773438 239.386719 L 85.773438 175.316406 C 85.773438 172.738281 87.859375 170.652344 90.433594 170.652344 L 133.980469 170.652344 C 136.554688 170.652344 138.644531 172.738281 138.644531 175.316406 L 138.644531 239.386719 L 144.835938 239.386719 L 144.835938 175.316406 C 144.835938 172.738281 146.925781 170.652344 149.5 170.652344 L 193.046875 170.652344 C 195.621094 170.652344 197.710938 172.738281 197.710938 175.316406 L 197.710938 239.386719 L 203.902344 239.386719 L 203.902344 175.316406 C 203.902344 172.738281 205.988281 170.652344 208.566406 170.652344 L 252.109375 170.652344 C 254.683594 170.652344 256.773438 172.738281 256.773438 175.316406 L 256.773438 239.386719 L 262.964844 239.386719 L 262.964844 175.316406 C 262.964844 172.738281 265.054688 170.652344 267.628906 170.652344 L 311.175781 170.652344 C 313.75 170.652344 315.835938 172.738281 315.835938 175.316406 L 315.835938 239.386719 L 317.921875 239.386719 C 321.160156 239.386719 323.785156 236.75 323.785156 233.5 L 324.277344 99.527344 Z M 315.835938 159.183594 C 315.835938 161.757812 313.746094 163.847656 311.171875 163.847656 L 90.433594 163.847656 C 87.859375 163.847656 85.773438 161.761719 85.773438 159.183594 L 85.773438 115.785156 C 85.773438 113.210938 87.859375 111.121094 90.433594 111.121094 L 311.171875 111.121094 C 313.746094 111.121094 315.835938 113.210938 315.835938 115.785156 Z M 315.171875 91.445312 C 315.171875 92.421875 314.378906 93.214844 313.402344 93.214844 C 312.421875 93.214844 311.628906 92.421875 311.628906 91.445312 C 311.628906 90.464844 312.421875 89.671875 313.402344 89.671875 C 314.378906 89.671875 315.171875 90.464844 315.171875 91.445312 M 306.507812 91.445312 C 306.507812 92.421875 305.714844 93.214844 304.738281 93.214844 C 303.757812 93.214844 302.964844 92.421875 302.964844 91.445312 C 302.964844 90.464844 303.757812 89.671875 304.738281 89.671875 C 305.714844 89.671875 306.507812 90.464844 306.507812 91.445312 M 297.84375 91.445312 C 297.84375 92.421875 297.050781 93.214844 296.074219 93.214844 C 295.09375 93.214844 294.300781 92.421875 294.300781 91.445312 C 294.300781 90.464844 295.09375 89.671875 296.074219 89.671875 C 297.050781 89.671875 297.84375 90.464844 297.84375 91.445312 " fill-opacity="1" fill-rule="evenodd"/><g clip-path="url(#1f7bb80221)"><path fill="#e0e0e0" d="M 319.878906 82.953125 L 258.289062 82.953125 L 258.289062 69.929688 C 258.289062 66.261719 255.320312 63.292969 251.65625 63.292969 C 247.996094 63.292969 245.027344 66.261719 245.027344 69.929688 L 245.027344 82.953125 L 227.628906 82.953125 L 227.628906 69.929688 C 227.628906 66.261719 224.660156 63.292969 220.996094 63.292969 C 217.335938 63.292969 214.367188 66.261719 214.367188 69.929688 L 214.367188 82.953125 L 196.96875 82.953125 L 196.96875 69.929688 C 196.96875 66.261719 194 63.292969 190.335938 63.292969 C 186.671875 63.292969 183.703125 66.261719 183.703125 69.929688 L 183.703125 82.953125 L 166.304688 82.953125 L 166.304688 69.929688 C 166.304688 66.261719 163.335938 63.292969 159.675781 63.292969 C 156.011719 63.292969 153.042969 66.261719 153.042969 69.929688 L 153.042969 82.953125 L 135.644531 82.953125 L 135.644531 69.929688 C 135.644531 66.261719 132.675781 63.292969 129.015625 63.292969 C 125.351562 63.292969 122.382812 66.261719 122.382812 69.929688 L 122.382812 82.953125 L 83.332031 82.953125 C 80.761719 82.953125 78.679688 85.039062 78.679688 87.617188 L 78.679688 99.527344 L 324.53125 99.527344 L 324.53125 87.617188 C 324.53125 85.039062 322.449219 82.953125 319.878906 82.953125 Z M 296.074219 93.214844 C 295.09375 93.214844 294.300781 92.421875 294.300781 91.445312 C 294.300781 90.464844 295.09375 89.671875 296.074219 89.671875 C 297.050781 89.671875 297.84375 90.464844 297.84375 91.445312 C 297.84375 92.421875 297.050781 93.214844 296.074219 93.214844 Z M 304.734375 93.214844 C 303.757812 93.214844 302.964844 92.421875 302.964844 91.445312 C 302.964844 90.464844 303.757812 89.671875 304.734375 89.671875 C 305.714844 89.671875 306.507812 90.464844 306.507812 91.445312 C 306.507812 92.421875 305.714844 93.214844 304.734375 93.214844 Z M 313.398438 93.214844 C 312.421875 93.214844 311.628906 92.421875 311.628906 91.445312 C 311.628906 90.464844 312.421875 89.671875 313.398438 89.671875 C 314.378906 89.671875 315.171875 90.464844 315.171875 91.445312 C 315.171875 92.421875 314.378906 93.214844 313.398438 93.214844 Z M 366.167969 146.09375 C 366.167969 146.285156 366.011719 146.4375 365.820312 146.4375 C 360.96875 146.4375 359.902344 140.25 359.894531 140.183594 C 359.863281 139.996094 359.992188 139.820312 360.179688 139.789062 C 360.367188 139.765625 360.542969 139.886719 360.574219 140.074219 C 360.585938 140.128906 361.554688 145.75 365.820312 145.75 C 366.011719 145.75 366.167969 145.902344 366.167969 146.09375 Z M 330.171875 139.789062 C 329.988281 139.765625 329.804688 139.886719 329.773438 140.074219 C 329.765625 140.128906 328.796875 145.75 324.527344 145.75 C 324.339844 145.75 324.183594 145.902344 324.183594 146.09375 C 324.183594 146.285156 324.339844 146.4375 324.527344 146.4375 C 329.382812 146.4375 330.445312 140.25 330.457031 140.183594 C 330.488281 139.996094 330.359375 139.820312 330.171875 139.789062 Z M 346.890625 147.46875 L 341.378906 147.117188 C 341.179688 147.109375 341.027344 147.253906 341.015625 147.441406 C 341 147.632812 341.148438 147.796875 341.335938 147.808594 L 346.847656 148.15625 C 346.855469 148.15625 346.863281 148.15625 346.871094 148.15625 C 347.050781 148.15625 347.203125 148.015625 347.214844 147.832031 C 347.226562 147.644531 347.082031 147.480469 346.890625 147.46875 Z M 40.929688 258.234375 L 25.074219 258.234375 C 24.882812 258.234375 24.730469 258.386719 24.730469 258.578125 C 24.730469 258.769531 24.882812 258.925781 25.074219 258.925781 L 40.929688 258.925781 C 41.121094 258.925781 41.273438 258.769531 41.273438 258.578125 C 41.273438 258.386719 41.121094 258.234375 40.929688 258.234375 Z M 78.300781 258.234375 L 50.503906 258.234375 C 50.316406 258.234375 50.160156 258.386719 50.160156 258.578125 C 50.160156 258.769531 50.316406 258.925781 50.503906 258.925781 L 78.300781 258.925781 C 78.492188 258.925781 78.644531 258.769531 78.644531 258.578125 C 78.644531 258.386719 78.492188 258.234375 78.300781 258.234375 Z M 133.980469 170.652344 L 90.433594 170.652344 C 87.859375 170.652344 85.773438 172.742188 85.773438 175.316406 L 85.773438 245.585938 C 85.773438 248.164062 87.859375 250.253906 90.433594 250.253906 L 133.980469 250.253906 C 136.554688 250.253906 138.644531 248.164062 138.644531 245.585938 L 138.644531 175.316406 C 138.644531 172.742188 136.554688 170.652344 133.980469 170.652344 Z M 311.171875 111.121094 L 90.433594 111.121094 C 87.859375 111.121094 85.773438 113.210938 85.773438 115.785156 L 85.773438 159.183594 C 85.773438 161.757812 87.859375 163.847656 90.433594 163.847656 L 311.171875 163.847656 C 313.746094 163.847656 315.835938 161.761719 315.835938 159.183594 L 315.835938 115.785156 C 315.835938 113.210938 313.746094 111.121094 311.171875 111.121094 Z M 193.046875 170.652344 L 149.5 170.652344 C 146.921875 170.652344 144.835938 172.742188 144.835938 175.316406 L 144.835938 245.585938 C 144.835938 248.164062 146.921875 250.253906 149.5 250.253906 L 193.046875 250.253906 C 195.621094 250.253906 197.707031 248.164062 197.707031 245.585938 L 197.707031 175.316406 C 197.707031 172.742188 195.621094 170.652344 193.046875 170.652344 Z M 252.109375 170.652344 L 208.5625 170.652344 C 205.988281 170.652344 203.898438 172.742188 203.898438 175.316406 L 203.898438 245.585938 C 203.898438 248.164062 205.988281 250.253906 208.5625 250.253906 L 252.109375 250.253906 C 254.683594 250.253906 256.769531 248.164062 256.769531 245.585938 L 256.769531 175.316406 C 256.769531 172.742188 254.683594 170.652344 252.109375 170.652344 Z M 311.171875 170.652344 L 267.625 170.652344 C 265.050781 170.652344 262.964844 172.742188 262.964844 175.316406 L 262.964844 245.585938 C 262.964844 248.164062 265.050781 250.253906 267.625 250.253906 L 311.171875 250.253906 C 313.746094 250.253906 315.835938 248.164062 315.835938 245.585938 L 315.835938 175.316406 C 315.835938 172.742188 313.746094 170.652344 311.171875 170.652344 Z M 50.21875 187.046875 C 50.390625 187.046875 50.539062 186.917969 50.5625 186.746094 L 55.347656 150.449219 L 60.304688 145.738281 C 60.441406 145.605469 60.449219 145.386719 60.316406 145.25 C 60.183594 145.109375 59.96875 145.105469 59.828125 145.234375 L 54.785156 150.03125 C 54.726562 150.085938 54.691406 150.15625 54.679688 150.238281 L 49.878906 186.65625 C 49.851562 186.84375 49.984375 187.019531 50.175781 187.042969 C 50.191406 187.046875 50.203125 187.046875 50.21875 187.046875 Z M 120.066406 120.796875 L 120.066406 187.710938 L 267.292969 187.710938 L 267.292969 120.796875 Z M 265.765625 137.144531 L 230.867188 137.144531 L 230.867188 122.328125 L 265.765625 122.328125 Z M 194.445312 137.144531 L 194.445312 122.328125 L 229.339844 122.328125 L 229.339844 137.144531 Z M 229.339844 138.671875 L 229.339844 153.488281 L 194.445312 153.488281 L 194.445312 138.671875 Z M 192.914062 137.144531 L 158.019531 137.144531 L 158.019531 122.328125 L 192.914062 122.328125 Z M 192.914062 138.671875 L 192.914062 153.488281 L 158.019531 153.488281 L 158.019531 138.671875 Z M 156.492188 153.488281 L 121.59375 153.488281 L 121.59375 138.671875 L 156.492188 138.671875 Z M 156.492188 155.019531 L 156.492188 169.835938 L 121.59375 169.835938 L 121.59375 155.019531 Z M 158.019531 155.019531 L 192.914062 155.019531 L 192.914062 169.835938 L 158.019531 169.835938 Z M 192.914062 171.367188 L 192.914062 186.179688 L 158.019531 186.179688 L 158.019531 171.367188 Z M 194.445312 171.367188 L 229.339844 171.367188 L 229.339844 186.179688 L 194.445312 186.179688 Z M 194.445312 169.835938 L 194.445312 155.019531 L 229.339844 155.019531 L 229.339844 169.835938 Z M 230.867188 155.019531 L 265.765625 155.019531 L 265.765625 169.835938 L 230.867188 169.835938 Z M 230.867188 153.488281 L 230.867188 138.671875 L 265.765625 138.671875 L 265.765625 153.488281 Z M 156.492188 122.328125 L 156.492188 137.144531 L 121.59375 137.144531 L 121.59375 122.328125 Z M 121.59375 171.367188 L 156.488281 171.367188 L 156.488281 186.179688 L 121.59375 186.179688 Z M 230.867188 186.179688 L 230.867188 171.367188 L 265.765625 171.367188 L 265.765625 186.179688 Z M 230.867188 186.179688 " fill-opacity="1" fill-rule="nonzero"/></g><path fill="#e0e0e0" d="M 306.765625 58.191406 C 306.816406 57.867188 306.703125 57.542969 306.460938 57.320312 C 306.214844 57.09375 305.875 57.007812 305.550781 57.09375 C 304.90625 57.257812 303.847656 57.808594 303.472656 59.601562 C 303.226562 59.574219 302.988281 59.511719 302.765625 59.414062 C 303.199219 58.867188 303.71875 57.769531 302.828125 56.21875 C 302.632812 55.871094 302.261719 55.664062 301.863281 55.683594 C 301.460938 55.695312 301.097656 55.929688 300.921875 56.292969 C 300.378906 57.421875 300.460938 58.515625 301.160156 59.390625 C 301.019531 59.441406 300.875 59.480469 300.722656 59.5 C 300.609375 59.519531 300.496094 59.53125 300.390625 59.539062 C 300.324219 58.566406 299.839844 57.199219 298.308594 56.921875 C 298.015625 56.871094 297.71875 56.957031 297.496094 57.164062 C 297.273438 57.371094 297.15625 57.675781 297.191406 57.976562 C 297.25 58.574219 297.472656 59.40625 298.195312 59.972656 C 298.53125 60.234375 298.933594 60.40625 299.402344 60.488281 L 299.402344 68.007812 L 298.390625 68.007812 C 297.816406 68.007812 297.351562 68.472656 297.351562 69.046875 C 297.351562 69.621094 297.816406 70.089844 298.390625 70.089844 L 299.867188 70.089844 C 299.859375 70.097656 299.855469 70.105469 299.847656 70.113281 L 298.390625 70.113281 C 297.816406 70.113281 297.351562 70.578125 297.351562 71.15625 C 297.351562 71.730469 297.816406 72.195312 298.390625 72.195312 L 299.121094 72.195312 C 299.230469 73.597656 300.40625 74.722656 301.835938 74.722656 C 303.242188 74.722656 304.429688 73.640625 304.566406 72.238281 L 304.566406 72.195312 L 305.285156 72.195312 C 305.859375 72.195312 306.324219 71.730469 306.324219 71.15625 C 306.324219 70.578125 305.859375 70.113281 305.285156 70.113281 L 303.828125 70.113281 C 303.820312 70.105469 303.816406 70.097656 303.808594 70.089844 L 305.285156 70.089844 C 305.859375 70.089844 306.324219 69.621094 306.324219 69.046875 C 306.324219 68.472656 305.859375 68.007812 305.285156 68.007812 L 304.359375 68.007812 L 304.359375 60.550781 C 305.703125 60.316406 306.554688 59.480469 306.765625 58.191406 Z M 305.78125 58.058594 C 305.652344 58.808594 305.238281 59.28125 304.519531 59.496094 C 304.746094 58.714844 305.175781 58.222656 305.78125 58.058594 Z M 298.804688 59.191406 C 298.363281 58.847656 298.21875 58.300781 298.171875 57.90625 C 299.078125 58.089844 299.320312 58.929688 299.382812 59.46875 C 299.160156 59.410156 298.964844 59.316406 298.804688 59.191406 Z M 301.816406 56.726562 C 301.835938 56.6875 301.871094 56.675781 301.898438 56.675781 C 301.898438 56.675781 301.898438 56.675781 301.902344 56.675781 C 301.945312 56.675781 301.960938 56.703125 301.96875 56.710938 C 302.445312 57.546875 302.445312 58.238281 301.972656 58.820312 C 301.480469 58.234375 301.425781 57.53125 301.816406 56.726562 Z M 300.390625 68.007812 L 300.390625 60.535156 C 300.542969 60.523438 300.703125 60.507812 300.863281 60.484375 C 301.257812 60.429688 301.628906 60.296875 301.960938 60.109375 C 302.382812 60.371094 302.863281 60.535156 303.367188 60.589844 L 303.367188 68.011719 L 300.390625 68.011719 Z M 300.390625 68.007812 " fill-opacity="1" fill-rule="nonzero"/><path fill="#f5f5f5" d="M 229.339844 137.144531 L 194.445312 137.144531 L 194.445312 122.328125 L 229.339844 122.328125 Z M 229.339844 138.671875 L 194.445312 138.671875 L 194.445312 153.488281 L 229.339844 153.488281 Z M 265.765625 171.367188 L 230.867188 171.367188 L 230.867188 186.179688 L 265.765625 186.179688 Z M 265.765625 138.671875 L 230.867188 138.671875 L 230.867188 153.488281 L 265.765625 153.488281 Z M 265.765625 122.328125 L 230.867188 122.328125 L 230.867188 137.144531 L 265.765625 137.144531 Z M 265.765625 155.019531 L 230.867188 155.019531 L 230.867188 169.835938 L 265.765625 169.835938 Z M 229.339844 171.367188 L 220.589844 171.367188 C 220.902344 171.21875 221.136719 170.925781 221.160156 170.558594 C 221.179688 170.28125 221.078125 170.027344 220.902344 169.835938 L 229.339844 169.835938 L 229.339844 155.019531 L 194.445312 155.019531 L 194.445312 169.835938 L 206.378906 169.835938 C 206.480469 170.234375 206.816406 170.550781 207.25 170.582031 L 218.625 171.367188 L 194.445312 171.367188 L 194.445312 186.179688 L 229.339844 186.179688 Z M 156.492188 171.367188 L 121.59375 171.367188 L 121.59375 186.179688 L 156.492188 186.179688 Z M 156.492188 138.671875 L 121.59375 138.671875 L 121.59375 153.488281 L 156.492188 153.488281 Z M 156.492188 155.019531 L 121.59375 155.019531 L 121.59375 169.835938 L 156.492188 169.835938 Z M 277.59375 115.785156 L 277.519531 193.660156 C 277.519531 196.234375 275.433594 198.324219 272.859375 198.324219 L 114.195312 198.324219 C 111.621094 198.324219 109.535156 196.238281 109.535156 193.660156 L 109.605469 115.785156 C 109.605469 113.210938 111.695312 111.121094 114.269531 111.121094 L 272.929688 111.121094 C 275.507812 111.121094 277.59375 113.210938 277.59375 115.785156 Z M 267.292969 120.796875 L 120.066406 120.796875 L 120.066406 187.710938 L 267.292969 187.710938 Z M 192.914062 171.367188 L 158.019531 171.367188 L 158.019531 186.179688 L 192.914062 186.179688 Z M 192.914062 155.019531 L 158.019531 155.019531 L 158.019531 169.835938 L 192.914062 169.835938 Z M 192.914062 138.671875 L 177.675781 138.671875 L 179.449219 138.296875 C 179.925781 138.195312 180.230469 137.726562 180.132812 137.25 C 180.121094 137.210938 180.097656 137.179688 180.085938 137.144531 L 192.914062 137.144531 L 192.914062 122.328125 L 158.019531 122.328125 L 158.019531 137.144531 L 176.363281 137.144531 L 169.136719 138.671875 L 158.019531 138.671875 L 158.019531 153.488281 L 192.914062 153.488281 Z M 156.492188 122.328125 L 121.59375 122.328125 L 121.59375 137.144531 L 156.492188 137.144531 Z M 156.492188 122.328125 " fill-opacity="1" fill-rule="nonzero"/><g clip-path="url(#4b923bd7a2)"><path fill="#26b1d8" d="M 288.519531 54.09375 L 284.226562 54.09375 L 284.226562 53.101562 L 288.519531 53.101562 Z M 302.449219 36.289062 L 301.457031 36.289062 L 301.457031 40.585938 L 302.449219 40.585938 Z M 292.429688 44.390625 L 289.296875 41.453125 L 288.617188 42.179688 L 291.75 45.117188 Z M 314.605469 42.179688 L 313.925781 41.453125 L 310.792969 44.390625 L 311.472656 45.117188 Z M 319.105469 53.101562 L 314.8125 53.101562 L 314.8125 54.09375 L 319.105469 54.09375 Z M 376.941406 102.019531 C 376.777344 99.378906 376.585938 96.746094 376.386719 94.109375 C 376.121094 91 375.859375 87.890625 375.472656 84.789062 C 375.109375 81.867188 373.246094 79.503906 370.753906 78.355469 C 370.757812 78.332031 370.757812 78.316406 370.757812 78.316406 C 364.828125 75.753906 359.035156 74.089844 353.289062 73.3125 L 353.355469 73.71875 C 353.691406 77.746094 350.488281 81.3125 346.207031 81.675781 C 341.925781 82.039062 338.519531 78.953125 338.183594 74.921875 L 338.066406 73.371094 C 333.058594 74.097656 328.027344 75.519531 322.921875 77.652344 C 322.910156 77.65625 322.902344 77.660156 322.894531 77.664062 C 320.945312 78.34375 319.261719 79.777344 318.328125 81.808594 L 317.75 82.953125 L 319.878906 82.953125 C 320.480469 82.953125 321.054688 83.070312 321.582031 83.277344 C 322.097656 87.382812 323.832031 92.582031 324.410156 98.617188 L 324.53125 99.816406 L 324.667969 101.359375 C 324.421875 108.964844 324.316406 114.453125 324.316406 117.316406 C 324.316406 123.425781 323.710938 134.460938 323.710938 138.933594 C 323.710938 140.121094 324.578125 141.128906 325.75 141.316406 C 338.375 143.363281 352.691406 143.421875 364.984375 141.332031 C 366.148438 141.136719 367.003906 140.132812 367.003906 138.953125 C 367.003906 134.492188 366.078125 123.703125 366.078125 117.582031 C 366.078125 114.738281 366.691406 108.808594 367.472656 102.402344 Z M 301.972656 58.820312 C 301.480469 58.234375 301.425781 57.53125 301.816406 56.726562 C 301.835938 56.683594 301.871094 56.675781 301.898438 56.671875 C 301.898438 56.671875 301.898438 56.671875 301.902344 56.671875 C 301.945312 56.671875 301.960938 56.699219 301.96875 56.710938 C 302.445312 57.546875 302.449219 58.238281 301.972656 58.820312 Z M 301.960938 60.105469 C 302.382812 60.371094 302.863281 60.535156 303.367188 60.589844 L 303.367188 68.007812 L 300.390625 68.007812 L 300.390625 60.535156 C 300.542969 60.523438 300.703125 60.507812 300.863281 60.484375 C 301.257812 60.429688 301.628906 60.296875 301.960938 60.105469 Z M 305.78125 58.058594 C 305.652344 58.808594 305.238281 59.28125 304.519531 59.496094 C 304.746094 58.714844 305.175781 58.222656 305.78125 58.058594 Z M 298.171875 57.90625 C 299.078125 58.089844 299.320312 58.929688 299.382812 59.46875 C 299.160156 59.410156 298.964844 59.316406 298.804688 59.191406 C 298.363281 58.847656 298.21875 58.300781 298.171875 57.90625 Z M 312.347656 53.945312 C 312.347656 57.863281 310.207031 61.28125 307.035156 63.089844 L 307.035156 65.910156 C 307.035156 67.070312 306.09375 68.007812 304.9375 68.007812 L 304.359375 68.007812 L 304.359375 60.550781 C 305.703125 60.3125 306.558594 59.480469 306.765625 58.191406 C 306.816406 57.867188 306.703125 57.539062 306.460938 57.316406 C 306.214844 57.09375 305.875 57.007812 305.554688 57.089844 C 304.90625 57.257812 303.847656 57.804688 303.472656 59.601562 C 303.226562 59.574219 302.988281 59.511719 302.765625 59.414062 C 303.199219 58.863281 303.71875 57.769531 302.828125 56.214844 C 302.632812 55.871094 302.261719 55.664062 301.863281 55.679688 C 301.460938 55.695312 301.097656 55.929688 300.921875 56.292969 C 300.378906 57.421875 300.464844 58.515625 301.160156 59.390625 C 301.019531 59.441406 300.875 59.480469 300.722656 59.5 C 300.609375 59.519531 300.496094 59.53125 300.390625 59.539062 C 300.324219 58.566406 299.84375 57.195312 298.3125 56.921875 C 298.015625 56.867188 297.71875 56.957031 297.496094 57.160156 C 297.273438 57.367188 297.160156 57.671875 297.191406 57.976562 C 297.25 58.574219 297.472656 59.40625 298.195312 59.96875 C 298.53125 60.230469 298.933594 60.40625 299.402344 60.488281 L 299.402344 68.007812 L 298.738281 68.007812 C 297.582031 68.007812 296.644531 67.066406 296.644531 65.910156 L 296.644531 63.089844 C 293.46875 61.277344 291.328125 57.863281 291.328125 53.945312 C 291.328125 48.136719 296.035156 43.425781 301.839844 43.425781 C 307.640625 43.429688 312.347656 48.136719 312.347656 53.945312 Z M 172.707031 111.121094 L 127.773438 111.121094 L 129.074219 106.136719 C 129.777344 103.433594 132.074219 101.574219 134.699219 101.292969 C 137.066406 100.433594 139.273438 99.726562 141.523438 99.167969 L 141.246094 100.894531 C 140.964844 104.226562 143.433594 107.160156 146.761719 107.445312 C 150.09375 107.730469 152.761719 105.164062 153.046875 101.828125 L 153.371094 97.765625 C 156.023438 97.742188 158.96875 97.863281 162.390625 98.148438 C 162.433594 98.152344 162.476562 98.164062 162.519531 98.167969 C 162.753906 98.199219 162.992188 98.234375 163.222656 98.289062 C 163.222656 98.289062 163.226562 98.289062 163.226562 98.292969 C 164.851562 98.671875 166.332031 99.671875 167.28125 101.203125 C 167.34375 101.300781 167.414062 101.421875 167.46875 101.523438 Z M 144.824219 251.0625 C 145.0625 254.917969 145.007812 257.957031 145.007812 260.988281 L 124.632812 260.988281 C 124.550781 257.183594 132.152344 254.65625 132.917969 251.0625 Z M 145.628906 172.074219 C 146.039062 172.558594 145.980469 173.28125 145.496094 173.691406 L 141.007812 177.511719 L 144.824219 182.003906 C 145.234375 182.488281 145.175781 183.210938 144.691406 183.621094 C 144.476562 183.804688 144.210938 183.894531 143.949219 183.894531 C 143.625 183.894531 143.300781 183.757812 143.074219 183.492188 L 139.257812 178.996094 L 134.769531 182.816406 C 134.554688 183 134.289062 183.085938 134.027344 183.085938 C 133.703125 183.085938 133.378906 182.949219 133.152344 182.683594 C 132.742188 182.199219 132.800781 181.476562 133.28125 181.066406 L 137.773438 177.25 L 133.957031 172.753906 C 133.546875 172.269531 133.605469 171.546875 134.089844 171.136719 C 134.574219 170.726562 135.296875 170.785156 135.703125 171.269531 L 139.519531 175.761719 L 144.011719 171.945312 C 144.496094 171.535156 145.21875 171.59375 145.628906 172.074219 Z M 177.363281 260.988281 L 156.988281 260.988281 C 156.988281 257.957031 156.929688 254.917969 157.167969 251.0625 L 169.074219 251.0625 C 169.839844 254.65625 177.441406 257.183594 177.363281 260.988281 Z M 72.898438 97.0625 L 78.589844 101.738281 L 78.554688 110.980469 L 73.582031 114.292969 L 72.714844 113.652344 C 72.574219 114.152344 72.433594 114.65625 72.289062 115.15625 L 71.917969 115.402344 L 69.109375 110.574219 L 60.234375 117.796875 L 65.527344 125.929688 L 65.746094 126.269531 C 65.847656 126.425781 65.960938 126.574219 66.078125 126.722656 C 66.546875 127.292969 67.113281 127.734375 67.730469 128.050781 C 67.34375 128.421875 66.851562 128.683594 66.304688 128.777344 C 58.636719 130.117188 50.394531 128.855469 44.28125 126.609375 C 42.953125 126.121094 42.183594 124.734375 42.503906 123.355469 L 47.484375 101.738281 C 48.808594 95.402344 54.390625 90.863281 60.859375 90.863281 C 61.386719 90.863281 61.910156 90.894531 62.425781 90.953125 L 61.84375 92.375 C 65.734375 94.667969 66.289062 95.378906 68.371094 97.703125 C 70.40625 99.976562 71.796875 98.757812 71.796875 98.757812 L 72.566406 96.8125 C 72.589844 96.828125 72.613281 96.839844 72.636719 96.859375 C 72.71875 96.917969 72.820312 96.996094 72.898438 97.0625 Z M 289.445312 151.125 L 289.390625 252.382812 L 289.441406 252.382812 L 289.441406 264.058594 L 271.886719 264.058594 L 271.886719 252.382812 L 271.941406 151.117188 L 280.765625 125.894531 Z M 173.792969 128.605469 C 173.90625 130.0625 172.851562 131.351562 171.394531 131.507812 C 170.121094 131.644531 168.964844 130.871094 168.558594 129.714844 L 161.515625 131.203125 L 165.691406 150.960938 L 185.011719 146.875 L 180.835938 127.113281 Z M 166.195312 136.203125 C 166.09375 135.726562 166.402344 135.257812 166.875 135.15625 L 178.277344 132.742188 C 178.75 132.640625 179.222656 132.949219 179.324219 133.425781 C 179.421875 133.898438 179.117188 134.371094 178.640625 134.472656 L 167.242188 136.886719 C 166.765625 136.984375 166.296875 136.679688 166.195312 136.203125 Z M 177.019531 142.539062 L 168.804688 144.277344 C 168.328125 144.378906 167.859375 144.070312 167.757812 143.597656 C 167.65625 143.121094 167.964844 142.648438 168.4375 142.546875 L 176.65625 140.808594 C 177.132812 140.710938 177.601562 141.015625 177.703125 141.492188 C 177.804688 141.96875 177.496094 142.4375 177.019531 142.539062 Z M 179.449219 138.296875 L 168.050781 140.710938 C 167.574219 140.8125 167.105469 140.503906 167.003906 140.027344 C 166.902344 139.554688 167.210938 139.082031 167.683594 138.980469 L 179.085938 136.566406 C 179.558594 136.46875 180.03125 136.773438 180.132812 137.25 C 180.230469 137.726562 179.925781 138.195312 179.449219 138.296875 Z M 260.6875 149.957031 C 261.164062 150.378906 261.207031 151.101562 260.789062 151.578125 L 247.523438 166.5625 C 247.320312 166.792969 247.03125 166.929688 246.722656 166.945312 C 246.703125 166.949219 246.683594 166.949219 246.667969 166.949219 C 246.378906 166.949219 246.101562 166.839844 245.886719 166.644531 L 240.328125 161.507812 C 239.859375 161.078125 239.832031 160.351562 240.261719 159.886719 C 240.691406 159.421875 241.417969 159.394531 241.882812 159.820312 L 246.582031 164.164062 L 259.070312 150.054688 C 259.492188 149.582031 260.214844 149.539062 260.6875 149.957031 Z M 219.011719 124.257812 C 219.421875 124.742188 219.363281 125.464844 218.878906 125.875 L 214.390625 129.691406 L 218.203125 134.1875 C 218.613281 134.671875 218.554688 135.394531 218.074219 135.804688 C 217.859375 135.988281 217.59375 136.078125 217.332031 136.078125 C 217.007812 136.078125 216.683594 135.9375 216.457031 135.671875 L 212.640625 131.179688 L 208.148438 134.996094 C 207.933594 135.179688 207.671875 135.269531 207.40625 135.269531 C 207.082031 135.269531 206.761719 135.132812 206.535156 134.867188 C 206.125 134.382812 206.183594 133.660156 206.664062 133.25 L 211.15625 129.429688 L 207.339844 124.9375 C 206.929688 124.453125 206.988281 123.730469 207.472656 123.320312 C 207.953125 122.910156 208.675781 122.96875 209.085938 123.449219 L 212.902344 127.945312 L 217.394531 124.125 C 217.878906 123.714844 218.601562 123.777344 219.011719 124.257812 Z M 217.050781 159.351562 C 216.769531 160.980469 215.222656 162.078125 213.59375 161.796875 C 211.964844 161.519531 210.867188 159.96875 211.148438 158.339844 C 211.429688 156.707031 212.976562 155.613281 214.605469 155.890625 C 216.234375 156.171875 217.328125 157.71875 217.050781 159.351562 Z M 217.050781 159.351562 " fill-opacity="1" fill-rule="nonzero"/></g><g clip-path="url(#2c69732450)"><path fill="#f5c0a2" d="M 381.003906 158 C 381.019531 158.425781 380.828125 158.835938 380.484375 159.09375 L 374.511719 163.605469 C 374.046875 163.957031 373.402344 163.957031 372.9375 163.605469 L 372.074219 162.953125 L 368.753906 160.441406 C 368.445312 160.207031 368.253906 159.84375 368.238281 159.453125 L 368.066406 155.25 C 368.035156 154.445312 368.730469 153.804688 369.53125 153.898438 C 369.652344 153.914062 369.769531 153.949219 369.878906 153.996094 C 369.484375 150.664062 369.683594 149.191406 370.890625 146.964844 C 370.980469 146.796875 371.089844 146.625 371.214844 146.449219 C 370.550781 144.089844 368.417969 136.480469 366.605469 129.996094 C 366.355469 125.660156 366.078125 120.925781 366.078125 117.582031 C 366.078125 114.738281 366.691406 108.808594 367.472656 102.402344 L 375.679688 102.070312 L 376.574219 117.195312 L 379.691406 145.105469 C 379.691406 145.109375 380.34375 150.984375 380.726562 154.832031 L 380.726562 154.835938 C 380.871094 156.296875 380.980469 157.464844 381 157.90625 C 381 157.914062 380.996094 157.921875 380.996094 157.925781 Z M 360.230469 238.316406 L 350.308594 238.316406 C 350.304688 238.507812 350.296875 238.6875 350.296875 238.886719 C 350.296875 242.34375 350.09375 244.988281 349.925781 248.671875 C 350.789062 249.015625 351.921875 248.96875 353.167969 247.640625 C 355.667969 244.964844 358.363281 243.695312 361.039062 244.589844 C 360.277344 242.511719 360.152344 240.417969 360.230469 238.316406 Z M 319.78125 244.9375 C 323.394531 249.710938 328.265625 248.730469 331.003906 247.332031 C 331.007812 247.335938 331.007812 247.339844 331.007812 247.339844 C 330.992188 244.574219 331.378906 240.867188 331.695312 238.320312 L 321.109375 238.320312 C 320.871094 241.289062 320.433594 243.28125 319.769531 244.949219 C 319.773438 244.945312 319.777344 244.941406 319.78125 244.9375 Z M 26.175781 249.796875 C 26.175781 249.796875 27.371094 250.984375 29.320312 249.796875 C 31.359375 248.558594 34.464844 247.1875 35.253906 249.429688 C 35.28125 248.023438 35.386719 246.453125 35.527344 244.941406 L 26.222656 244.941406 C 26.226562 246.429688 26.214844 248.082031 26.175781 249.796875 Z M 51.613281 250.675781 C 51.613281 250.675781 58.222656 253.199219 62.683594 248.644531 C 62.605469 247.535156 62.585938 246.269531 62.597656 244.941406 L 52.105469 244.941406 C 52.136719 246.957031 52.011719 248.925781 51.613281 250.675781 C 51.613281 250.675781 51.613281 250.679688 51.613281 250.679688 Z M 108.839844 101.609375 C 107.003906 101.609375 107.054688 101.644531 101.300781 101.617188 C 101.300781 101.617188 101.199219 101.617188 101.027344 101.617188 C 100.8125 101.617188 100.605469 101.617188 100.375 101.613281 L 100.382812 101.625 C 98.648438 101.652344 94.777344 101.816406 91.476562 102.652344 C 90.832031 102.8125 90.246094 103.121094 89.757812 103.535156 C 89.707031 103.5625 89.652344 103.582031 89.605469 103.613281 L 71.917969 115.402344 L 69.109375 110.578125 L 60.234375 117.796875 L 65.527344 125.929688 L 65.746094 126.269531 C 65.847656 126.425781 65.960938 126.574219 66.078125 126.722656 C 67.886719 128.929688 71.144531 129.253906 73.351562 127.445312 L 93.648438 110.796875 C 94.917969 110.960938 96.550781 111.097656 98.167969 111.070312 L 99.320312 111.980469 C 99.554688 112.164062 99.851562 112.25 100.144531 112.214844 L 102.121094 111.980469 C 102.488281 111.9375 102.800781 111.699219 102.941406 111.355469 L 104.558594 107.457031 C 104.84375 106.765625 104.664062 105.96875 104.109375 105.46875 L 102.921875 104.398438 C 104.230469 104.246094 106.972656 103.917969 108.21875 103.683594 C 109.648438 103.40625 110.558594 101.609375 108.839844 101.609375 Z M 353.355469 73.71875 L 351.21875 60.574219 C 351.949219 60.015625 352.453125 59.246094 352.605469 58.339844 C 352.972656 56.175781 351.921875 54.191406 350.253906 53.910156 C 348.589844 53.625 348.207031 55.199219 348.023438 56.285156 L 347.976562 56.550781 C 347.226562 56.519531 346.59375 56.535156 346.59375 56.535156 C 345.757812 54.0625 346.90625 50.132812 346.46875 47.167969 C 337.953125 45.480469 334.839844 49.054688 331.191406 47.574219 C 330.894531 48.597656 330.75 49.683594 330.789062 50.808594 L 331.1875 61.589844 C 331.320312 65.105469 333.640625 68.324219 337.191406 69.414062 C 337.382812 69.476562 337.578125 69.515625 337.769531 69.5625 L 338.183594 74.921875 C 338.519531 78.953125 341.925781 82.039062 346.207031 81.675781 C 350.492188 81.3125 353.691406 77.746094 353.355469 73.71875 Z M 126.042969 107.992188 C 125.96875 106.8125 125.808594 106.125 125.414062 106.046875 C 124.621094 105.882812 123.851562 106.792969 123.679688 107.644531 C 123.5625 108.226562 123.304688 110.105469 123.148438 111.121094 L 126.324219 111.121094 C 126.21875 109.976562 126.097656 108.902344 126.042969 107.992188 Z M 121.496094 108.402344 C 121.304688 107.730469 120.691406 107.253906 119.976562 107.335938 C 119.128906 107.429688 118.554688 108.253906 118.765625 109.082031 L 118.777344 109.136719 L 118.035156 109.433594 C 117.941406 109.167969 117.859375 108.945312 117.804688 108.816406 C 117.5 108.078125 116.695312 107.683594 115.949219 107.980469 C 115.238281 108.265625 114.902344 109.050781 115.140625 109.75 C 114.699219 109.222656 113.957031 109.046875 113.34375 109.40625 C 112.808594 109.722656 112.570312 110.335938 112.691406 110.90625 C 112.277344 110.632812 111.738281 110.601562 111.300781 110.894531 C 110.660156 111.320312 110.542969 112.210938 111.050781 112.785156 L 112.679688 114.371094 C 113.496094 115.421875 115.015625 114.453125 114.230469 113.082031 L 114.800781 113.796875 C 115.609375 114.960938 117.257812 114.089844 116.660156 112.621094 L 116.917969 113.105469 C 117.582031 114.460938 119.527344 113.710938 118.886719 111.964844 C 118.886719 111.964844 118.769531 111.605469 118.609375 111.125 L 119.273438 111.125 L 119.484375 111.949219 C 119.761719 113.433594 121.835938 113.226562 121.679688 111.371094 C 121.679688 111.371094 121.679688 111.273438 121.671875 111.125 L 122.785156 111.125 C 122.175781 109.808594 121.714844 108.855469 121.496094 108.402344 Z M 204.105469 111.121094 L 210.609375 111.121094 L 205.832031 108.730469 C 205.519531 108.59375 200.089844 107.179688 197.582031 106.53125 C 197.484375 106.492188 197.382812 106.464844 197.285156 106.433594 C 197.015625 106.34375 196.757812 106.277344 196.511719 106.253906 C 196.402344 106.226562 196.328125 106.207031 196.328125 106.207031 L 196.3125 106.242188 C 196.230469 106.238281 196.148438 106.242188 196.070312 106.25 C 195.234375 106.234375 194.382812 106.445312 193.625 106.9375 L 186.984375 111.121094 L 194.710938 111.121094 C 194.761719 111.164062 194.808594 111.214844 194.867188 111.257812 C 197.316406 113.027344 199.675781 111.667969 199.675781 111.667969 C 199.675781 111.667969 200.957031 112.75 202.335938 113.65625 C 204.414062 115.019531 205.886719 114.699219 206.28125 114.167969 C 206.632812 113.691406 206.421875 113.488281 205.585938 112.652344 C 205.089844 112.15625 204.613281 111.644531 204.105469 111.121094 Z M 158.472656 85.800781 L 158.023438 75.972656 C 157.984375 75.109375 157.820312 74.28125 157.570312 73.496094 C 154.957031 77.054688 148.980469 77.328125 145.34375 77.339844 C 145.421875 79.011719 145.253906 82.292969 142.933594 83.59375 L 142.230469 80.964844 C 141.972656 79.996094 141.496094 78.597656 140.007812 78.996094 C 138.515625 79.394531 137.726562 81.28125 138.242188 83.214844 C 138.644531 84.71875 140.074219 85.710938 141.859375 85.765625 C 141.980469 85.769531 142.09375 85.753906 142.203125 85.722656 L 143.03125 87.796875 L 142.710938 91.746094 L 141.246094 100.894531 C 140.964844 104.226562 143.433594 107.160156 146.761719 107.445312 C 150.09375 107.730469 152.761719 105.164062 153.046875 101.832031 L 153.726562 93.304688 C 156.792969 92.015625 158.609375 88.960938 158.472656 85.800781 Z M 90.132812 80.523438 C 89.582031 80.746094 89.65625 81.027344 89.929688 82.183594 C 89.988281 82.429688 90.035156 82.6875 90.082031 82.953125 L 93.179688 82.953125 C 92.128906 80.773438 90.738281 80.28125 90.132812 80.523438 Z M 105.148438 80.65625 C 104.644531 80.503906 104.136719 80.6875 103.816406 81.070312 C 103.769531 80.492188 103.363281 79.972656 102.757812 79.824219 C 102.070312 79.65625 101.410156 80.039062 101.140625 80.671875 C 101.167969 79.9375 100.617188 79.28125 99.851562 79.214844 C 99.054688 79.144531 98.398438 79.753906 98.320312 80.550781 C 98.304688 80.691406 98.292969 80.929688 98.28125 81.210938 L 97.480469 81.140625 L 97.480469 81.082031 C 97.4375 80.230469 96.652344 79.605469 95.8125 79.761719 C 95.105469 79.890625 94.65625 80.523438 94.667969 81.21875 C 94.613281 81.5625 94.519531 82.15625 94.398438 82.953125 L 95.039062 82.953125 C 95.199219 83.566406 95.347656 84.117188 95.347656 84.117188 C 95.734375 85.933594 97.78125 85.535156 97.621094 84.035156 L 97.566406 82.953125 L 98.21875 82.953125 C 98.203125 83.476562 98.195312 83.875 98.195312 83.875 C 98.085938 85.730469 100.164062 85.890625 100.40625 84.398438 L 100.515625 83.859375 C 100.367188 85.441406 102.195312 85.796875 102.632812 84.445312 L 102.972656 83.59375 C 102.617188 85.136719 104.351562 85.625 104.832031 84.382812 L 105.933594 82.394531 C 106.253906 81.695312 105.882812 80.878906 105.148438 80.65625 Z M 285.476562 80.75 C 285.554688 79.351562 285.585938 79.003906 284.898438 78.863281 C 284.132812 78.703125 282.582031 79.578125 281.816406 82.417969 C 281.765625 82.601562 281.71875 82.777344 281.667969 82.953125 L 285.507812 82.953125 C 285.464844 82.179688 285.4375 81.445312 285.476562 80.75 Z M 279.464844 79.890625 C 279.460938 79.882812 279.460938 79.878906 279.457031 79.875 C 279.457031 79.871094 279.457031 79.863281 279.457031 79.863281 L 279.453125 79.863281 C 279.246094 79.363281 278.8125 78.976562 278.238281 78.871094 C 277.289062 78.695312 276.410156 79.355469 276.285156 80.292969 L 275.308594 80.425781 C 275.296875 80.160156 275.285156 79.941406 275.269531 79.804688 C 275.179688 78.863281 274.398438 78.140625 273.457031 78.222656 C 272.550781 78.300781 271.898438 79.074219 271.933594 79.949219 C 271.613281 79.199219 270.835938 78.742188 270.019531 78.941406 C 269.300781 79.117188 268.820312 79.730469 268.765625 80.417969 C 268.386719 79.964844 267.789062 79.746094 267.191406 79.925781 C 266.324219 80.191406 265.886719 81.160156 266.261719 81.984375 L 267.566406 84.339844 C 268.132812 85.804688 270.1875 85.230469 269.765625 83.40625 L 270.167969 84.414062 C 270.683594 86.007812 272.847656 85.589844 272.671875 83.722656 L 272.800781 84.355469 C 273.089844 86.121094 275.546875 85.933594 275.417969 83.738281 C 275.417969 83.738281 275.410156 83.414062 275.398438 82.953125 L 276.144531 82.953125 L 276.097656 83.925781 C 275.910156 85.703125 278.328125 86.175781 278.785156 84.023438 C 278.785156 84.023438 278.914062 83.546875 279.070312 82.953125 L 280.554688 82.953125 C 279.964844 81.222656 279.511719 80.015625 279.464844 79.890625 Z M 86.992188 69.46875 C 86.660156 69.441406 86.332031 69.410156 85.996094 69.359375 C 82.894531 68.921875 77.988281 67.289062 74.722656 65.316406 C 72.765625 68.5625 75.433594 75.085938 71.1875 76.46875 C 71.3125 74.957031 71.136719 73.164062 69.675781 72.808594 C 68.019531 72.402344 67 73.617188 66.539062 75.457031 C 66.285156 76.472656 66.679688 77.53125 67.542969 78.394531 L 61.84375 92.371094 C 65.730469 94.667969 66.289062 95.375 68.371094 97.699219 C 70.40625 99.972656 71.796875 98.757812 71.796875 98.757812 L 75.820312 88.585938 C 77.222656 89.261719 78.847656 89.503906 80.488281 89.160156 C 83.628906 88.503906 85.875 85.921875 86.269531 82.910156 L 87.464844 73.671875 C 87.65625 72.203125 87.46875 70.769531 86.992188 69.46875 Z M 86.992188 69.46875 " fill-opacity="1" fill-rule="evenodd"/></g><path fill="#293237" d="M 324.46875 145.761719 L 324.652344 140.835938 C 324.964844 141.078125 325.335938 141.25 325.75 141.316406 C 326.90625 141.503906 328.082031 141.671875 329.261719 141.824219 C 328.613281 143.492188 327.234375 145.75 324.527344 145.75 C 324.507812 145.75 324.488281 145.757812 324.46875 145.761719 Z M 365.820312 145.75 C 365.824219 145.75 365.824219 145.75 365.828125 145.75 L 365.921875 140.953125 C 365.644531 141.140625 365.328125 141.273438 364.984375 141.335938 C 363.714844 141.550781 362.425781 141.734375 361.117188 141.90625 C 361.78125 143.5625 363.160156 145.75 365.820312 145.75 Z M 365.8125 146.4375 C 362.675781 146.433594 361.128906 143.84375 360.421875 142 C 350.632812 143.207031 339.917969 143.152344 329.960938 141.914062 C 329.269531 143.765625 327.722656 146.441406 324.53125 146.441406 C 324.5 146.441406 324.472656 146.429688 324.445312 146.421875 L 322.859375 189.621094 L 320.785156 238.320312 L 332.914062 238.320312 C 335.550781 229.550781 341.683594 207.9375 338.691406 192.40625 L 345.230469 148.054688 L 341.335938 147.808594 C 341.148438 147.796875 341.003906 147.632812 341.015625 147.441406 C 341.027344 147.253906 341.179688 147.109375 341.382812 147.121094 L 346.894531 147.46875 C 347.082031 147.480469 347.226562 147.644531 347.214844 147.835938 C 347.203125 148.015625 347.058594 148.152344 346.882812 148.15625 L 349.632812 238.320312 L 361.734375 238.320312 C 362.746094 232.28125 364.65625 220.699219 365.574219 213.824219 C 366.855469 204.210938 364.957031 190.085938 364.957031 190.085938 Z M 351.121094 41.144531 C 346.957031 37.582031 343.878906 36.3125 345.085938 38.304688 C 336.996094 37.941406 327.160156 39.390625 327.882812 43.984375 C 328.417969 47.363281 330.09375 52.445312 330.941406 54.890625 L 330.792969 50.808594 C 330.75 49.6875 330.898438 48.597656 331.191406 47.574219 C 334.839844 49.058594 337.953125 45.480469 346.46875 47.167969 C 346.90625 50.132812 345.761719 54.0625 346.597656 56.535156 C 346.597656 56.535156 347.226562 56.519531 347.976562 56.554688 L 348.023438 56.285156 C 348.207031 55.203125 348.589844 53.628906 350.257812 53.910156 C 351.921875 54.195312 352.976562 56.179688 352.609375 58.339844 C 352.453125 59.246094 351.949219 60.015625 351.222656 60.574219 L 351.503906 62.304688 C 353.617188 58.9375 355.992188 54.226562 356.195312 49.542969 C 356.496094 42.59375 354.382812 40.417969 351.121094 41.144531 Z M 319.78125 244.9375 C 317.671875 247.574219 312.148438 250.929688 307.867188 253.011719 L 309.726562 255.917969 L 307.867188 253.011719 C 307.21875 253.328125 306.59375 253.613281 306.019531 253.863281 C 303.480469 254.964844 302.839844 256.234375 302.679688 257.453125 C 302.59375 258.097656 303.097656 258.671875 303.746094 258.671875 L 330.878906 258.671875 C 331.441406 258.671875 331.910156 258.238281 331.953125 257.675781 C 331.988281 257.21875 332.019531 256.613281 332.035156 255.917969 C 332.089844 253.621094 331.957031 250.265625 331.007812 247.332031 C 328.265625 248.730469 323.394531 249.710938 319.78125 244.9375 Z M 370.746094 257.433594 C 370.851562 258.082031 370.335938 258.671875 369.679688 258.671875 L 350.785156 258.671875 C 350.1875 258.671875 349.707031 258.183594 349.707031 257.585938 C 349.71875 255.480469 349.75 253.675781 349.796875 252.070312 C 349.800781 252.003906 349.800781 251.941406 349.804688 251.875 C 349.8125 251.648438 349.816406 251.425781 349.824219 251.207031 C 349.828125 251.097656 349.832031 250.992188 349.835938 250.886719 C 349.84375 250.703125 349.847656 250.519531 349.855469 250.34375 C 349.863281 250.175781 349.867188 250.011719 349.875 249.847656 C 349.878906 249.738281 349.882812 249.628906 349.886719 249.519531 C 349.902344 249.230469 349.914062 248.949219 349.925781 248.671875 C 350.128906 248.753906 350.351562 248.808594 350.585938 248.835938 C 351.335938 248.917969 352.21875 248.652344 353.167969 247.636719 C 354.730469 245.96875 356.371094 244.847656 358.03125 244.457031 C 358.367188 244.378906 358.703125 244.328125 359.039062 244.3125 C 359.703125 244.277344 360.371094 244.363281 361.039062 244.585938 C 361.089844 244.726562 361.136719 244.863281 361.195312 245.003906 C 361.195312 245.007812 361.199219 245.011719 361.203125 245.015625 C 361.339844 245.351562 361.496094 245.667969 361.667969 245.976562 C 361.730469 246.085938 361.800781 246.191406 361.867188 246.296875 C 361.988281 246.496094 362.105469 246.691406 362.238281 246.878906 C 362.324219 247.003906 362.417969 247.117188 362.507812 247.234375 C 362.632812 247.398438 362.757812 247.5625 362.890625 247.722656 C 362.992188 247.84375 363.101562 247.960938 363.207031 248.082031 C 363.335938 248.226562 363.46875 248.371094 363.601562 248.511719 C 363.71875 248.632812 363.839844 248.753906 363.960938 248.875 C 364.09375 249.003906 364.226562 249.136719 364.359375 249.265625 C 364.492188 249.390625 364.625 249.515625 364.761719 249.640625 C 364.886719 249.757812 365.015625 249.875 365.144531 249.988281 C 365.691406 250.480469 366.246094 250.964844 366.785156 251.453125 C 366.851562 251.511719 366.917969 251.570312 366.984375 251.628906 C 366.980469 251.628906 366.980469 251.628906 366.980469 251.625 C 368.773438 253.261719 370.34375 254.984375 370.746094 257.433594 Z M 370.890625 146.5625 C 370.832031 146.382812 370.9375 146.191406 371.117188 146.132812 L 372.320312 145.765625 C 372.5 145.707031 372.695312 145.8125 372.75 145.996094 C 372.804688 146.175781 372.703125 146.367188 372.523438 146.425781 L 371.320312 146.792969 C 371.285156 146.804688 371.25 146.808594 371.21875 146.808594 C 371.070312 146.808594 370.933594 146.710938 370.890625 146.5625 Z M 376.617188 151.550781 L 376.28125 155.460938 L 374.089844 162.847656 C 373.980469 163.214844 373.695312 163.507812 373.328125 163.625 C 373.214844 163.664062 373.09375 163.679688 372.976562 163.679688 C 372.726562 163.679688 372.484375 163.597656 372.28125 163.441406 C 371.648438 162.945312 371.285156 162.164062 371.207031 161.121094 C 371.046875 159.082031 371.105469 156.730469 371.132812 156.019531 C 370.761719 155.789062 370.011719 155.191406 369.660156 153.988281 C 369.609375 153.804688 369.710938 153.613281 369.894531 153.558594 C 370.078125 153.503906 370.269531 153.609375 370.320312 153.792969 C 370.695312 155.074219 371.585938 155.488281 371.621094 155.503906 C 371.75 155.5625 371.832031 155.695312 371.828125 155.835938 C 371.824219 155.863281 371.707031 158.6875 371.890625 161.066406 C 371.957031 161.910156 372.230469 162.527344 372.707031 162.898438 C 372.824219 162.992188 372.972656 163.019531 373.117188 162.972656 C 373.269531 162.921875 373.386719 162.804688 373.433594 162.652344 L 375.609375 155.335938 L 375.933594 151.496094 C 375.949219 151.304688 376.132812 151.160156 376.304688 151.179688 C 376.492188 151.195312 376.632812 151.363281 376.617188 151.550781 Z M 367.136719 102.320312 L 368.820312 90.035156 C 368.847656 89.847656 369.015625 89.726562 369.210938 89.738281 C 369.398438 89.765625 369.53125 89.9375 369.503906 90.128906 L 367.820312 102.414062 C 367.796875 102.585938 367.648438 102.710938 367.480469 102.710938 C 367.464844 102.710938 367.449219 102.710938 367.433594 102.707031 C 367.242188 102.683594 367.109375 102.507812 367.136719 102.320312 Z M 271.941406 151.117188 L 277.027344 136.582031 L 277.011719 136.628906 L 284.460938 136.628906 L 289.445312 151.117188 L 289.449219 151.117188 L 287.710938 154.5625 L 285.972656 151.117188 L 284.238281 154.5625 L 282.5 151.117188 L 280.761719 154.5625 L 279.027344 151.117188 L 278.890625 151.117188 L 277.152344 154.5625 L 275.417969 151.117188 L 273.679688 154.5625 Z M 60.304688 145.738281 C 60.441406 145.605469 60.449219 145.386719 60.316406 145.25 C 60.183594 145.109375 59.96875 145.105469 59.828125 145.234375 L 54.785156 150.03125 C 54.726562 150.085938 54.691406 150.15625 54.679688 150.238281 L 50.613281 181.089844 C 50.605469 181.03125 50.601562 180.976562 50.597656 180.925781 L 49.105469 191.132812 L 36.664062 244.941406 L 25.222656 244.941406 C 25.222656 233.632812 24.105469 207.5625 30.035156 191.367188 C 31.457031 187.488281 32.140625 183.382812 32.082031 179.253906 L 31.515625 149.359375 C 31.515625 138.042969 40.152344 129.050781 43.390625 126.082031 C 43.644531 126.304688 43.945312 126.484375 44.28125 126.609375 C 45.894531 127.203125 47.664062 127.722656 49.527344 128.148438 C 50.078125 128.277344 50.640625 128.390625 51.207031 128.5 C 51.261719 128.511719 51.316406 128.519531 51.367188 128.53125 C 53.113281 128.855469 54.929688 129.09375 56.773438 129.21875 C 56.828125 129.222656 56.878906 129.226562 56.933594 129.230469 C 58.785156 129.347656 60.664062 129.351562 62.539062 129.222656 C 62.589844 129.21875 62.636719 129.21875 62.6875 129.214844 C 63.304688 129.167969 63.917969 129.109375 64.53125 129.035156 C 65.125 128.960938 65.714844 128.878906 66.300781 128.777344 C 66.453125 128.75 66.597656 128.707031 66.742188 128.660156 L 66.742188 144.386719 L 67.894531 191.132812 L 62.960938 244.941406 L 51.519531 244.941406 C 49.921875 233.632812 46.398438 207.5625 50.042969 191.367188 C 50.503906 189.316406 50.75 187.207031 50.785156 185.0625 L 55.347656 150.449219 Z M 78.074219 258.234375 L 50.503906 258.234375 C 50.503906 258.234375 50.503906 258.234375 50.5 258.234375 C 50.429688 253.757812 51.613281 250.675781 51.613281 250.675781 C 51.613281 250.675781 58.257812 253.214844 62.71875 248.613281 C 67.71875 254.035156 72.136719 255.082031 75.585938 256.4375 C 76.839844 256.929688 77.601562 257.582031 78.074219 258.234375 Z M 78.457031 258.882812 C 78.957031 259.988281 78.742188 260.945312 78.742188 260.945312 L 50.695312 260.949219 C 50.601562 260.25 50.546875 259.574219 50.519531 258.925781 L 78.300781 258.925781 C 78.355469 258.925781 78.410156 258.90625 78.457031 258.882812 Z M 69.046875 110.488281 L 62.734375 99.640625 C 62.636719 99.476562 62.691406 99.265625 62.855469 99.171875 C 63.019531 99.074219 63.234375 99.128906 63.328125 99.292969 L 69.640625 110.140625 C 69.738281 110.308594 69.683594 110.519531 69.519531 110.613281 C 69.464844 110.644531 69.402344 110.660156 69.34375 110.660156 C 69.226562 110.660156 69.109375 110.601562 69.046875 110.488281 Z M 40.929688 258.234375 L 25.140625 258.234375 C 25.21875 255.269531 25.757812 252.929688 26.175781 249.796875 C 26.175781 249.796875 27.371094 250.984375 29.320312 249.796875 C 31.5 248.472656 34.894531 247 35.378906 249.9375 C 35.40625 254.410156 39.316406 255.382812 41.015625 258.25 C 40.988281 258.242188 40.960938 258.234375 40.929688 258.234375 Z M 85.511719 62.535156 C 88.246094 65.535156 88.082031 69.382812 87.503906 71.988281 C 87.453125 71.113281 87.285156 70.265625 86.992188 69.46875 C 86.660156 69.441406 86.332031 69.410156 85.996094 69.359375 C 82.894531 68.921875 77.988281 67.289062 74.722656 65.316406 C 72.765625 68.5625 75.433594 75.085938 71.1875 76.46875 C 71.3125 74.957031 71.136719 73.164062 69.675781 72.808594 C 68.019531 72.402344 67 73.617188 66.539062 75.457031 C 66.285156 76.472656 66.679688 77.53125 67.542969 78.394531 L 63.792969 87.59375 C 63.589844 85.199219 63.015625 79.128906 62.03125 74.226562 C 61.277344 70.46875 61.449219 67.425781 63 64.757812 C 60.820312 63.597656 59.332031 61.304688 59.332031 58.660156 C 59.332031 54.847656 62.421875 51.761719 66.230469 51.761719 C 69.769531 51.761719 72.683594 54.429688 73.078125 57.867188 C 77.625 57.09375 82.183594 58.890625 85.511719 62.535156 Z M 41.25 258.695312 C 41.554688 259.335938 41.761719 260.066406 41.792969 260.945312 L 25.199219 260.945312 C 25.148438 260.226562 25.136719 259.5625 25.136719 258.925781 L 40.929688 258.925781 C 41.078125 258.925781 41.203125 258.828125 41.25 258.695312 Z M 52.363281 108.125 C 52.257812 107.964844 52.304688 107.753906 52.464844 107.648438 C 52.621094 107.542969 52.835938 107.589844 52.941406 107.75 L 58.960938 117 C 59.066406 117.160156 59.019531 117.371094 58.859375 117.476562 C 58.800781 117.515625 58.738281 117.53125 58.671875 117.53125 C 58.558594 117.53125 58.449219 117.476562 58.382812 117.375 Z M 213.59375 161.796875 C 212.195312 161.558594 211.199219 160.382812 211.117188 159.027344 L 203.167969 158.480469 L 201.632812 180.785156 L 223.445312 182.285156 L 224.976562 159.980469 L 217.027344 159.433594 C 216.707031 161.015625 215.195312 162.070312 213.59375 161.796875 Z M 216.246094 175.25 L 206.972656 174.609375 C 206.4375 174.574219 206.027344 174.105469 206.0625 173.566406 C 206.101562 173.027344 206.570312 172.621094 207.105469 172.65625 L 216.382812 173.292969 C 216.917969 173.332031 217.328125 173.800781 217.289062 174.339844 C 217.253906 174.875 216.785156 175.285156 216.246094 175.25 Z M 220.117188 171.46875 L 207.25 170.582031 C 206.710938 170.546875 206.300781 170.074219 206.339844 169.539062 C 206.375 169 206.84375 168.589844 207.382812 168.628906 L 220.25 169.515625 C 220.789062 169.550781 221.195312 170.019531 221.160156 170.558594 C 221.125 171.09375 220.65625 171.503906 220.117188 171.46875 Z M 221.457031 166.238281 C 221.421875 166.777344 220.949219 167.1875 220.414062 167.148438 L 207.546875 166.261719 C 207.007812 166.226562 206.597656 165.757812 206.636719 165.21875 C 206.671875 164.683594 207.140625 164.273438 207.679688 164.308594 L 220.546875 165.195312 C 221.085938 165.234375 221.492188 165.703125 221.457031 166.238281 Z M 173.792969 128.527344 C 173.953125 130.015625 172.878906 131.347656 171.394531 131.507812 C 169.90625 131.667969 168.574219 130.59375 168.414062 129.109375 C 168.253906 127.621094 169.328125 126.289062 170.8125 126.128906 C 172.300781 125.964844 173.632812 127.042969 173.792969 128.527344 Z M 271.886719 249.984375 L 289.441406 249.984375 L 289.441406 253.871094 L 271.886719 253.871094 Z M 289.578125 246.113281 C 289.578125 246.300781 289.425781 246.457031 289.234375 246.457031 L 272.050781 246.457031 C 271.863281 246.457031 271.707031 246.300781 271.707031 246.113281 C 271.707031 245.921875 271.863281 245.769531 272.050781 245.769531 L 289.234375 245.769531 C 289.425781 245.769531 289.578125 245.921875 289.578125 246.113281 Z M 289.578125 247.96875 C 289.578125 248.15625 289.425781 248.3125 289.234375 248.3125 L 272.050781 248.3125 C 271.863281 248.3125 271.707031 248.15625 271.707031 247.96875 C 271.707031 247.777344 271.863281 247.625 272.050781 247.625 L 289.234375 247.625 C 289.425781 247.625 289.578125 247.777344 289.578125 247.96875 Z M 149.925781 225.898438 C 149.929688 225.898438 149.929688 225.898438 149.933594 225.898438 L 149.070312 251.0625 L 128.535156 251.0625 C 128.535156 251.0625 127.476562 224.917969 126.742188 198.324219 L 148.78125 198.324219 C 148.742188 198.382812 148.714844 198.449219 148.71875 198.523438 L 149.570312 225.566406 C 149.574219 225.75 149.730469 225.898438 149.914062 225.898438 C 149.917969 225.898438 149.921875 225.898438 149.925781 225.898438 Z M 171.5 198.324219 C 172.210938 224.867188 173.253906 251.0625 173.253906 251.0625 L 152.714844 251.0625 L 150.21875 224.28125 L 149.40625 198.503906 C 149.40625 198.433594 149.378906 198.375 149.347656 198.324219 Z M 123.996094 111.105469 C 125.128906 109.078125 126.109375 107.816406 125.152344 104.585938 C 123.941406 100.480469 123.996094 97.761719 129.949219 90.996094 C 135.902344 84.230469 135.671875 84.347656 135.265625 75.210938 C 134.859375 66.074219 144.914062 65.496094 148.902344 66.132812 C 150.039062 66.210938 151.019531 66.433594 151.867188 66.769531 C 154.507812 67.300781 156.964844 68.777344 158.65625 71.140625 C 158.441406 72.0625 158.0625 72.839844 157.570312 73.511719 C 157.570312 73.507812 157.570312 73.5 157.566406 73.496094 C 155.609375 76.164062 151.761719 76.984375 148.429688 77.234375 C 147.855469 77.277344 147.292969 77.300781 146.761719 77.316406 C 146.660156 77.320312 146.5625 77.320312 146.464844 77.324219 C 146.394531 77.324219 146.328125 77.328125 146.265625 77.328125 C 146.191406 77.332031 146.117188 77.332031 146.042969 77.332031 C 145.800781 77.335938 145.566406 77.339844 145.34375 77.339844 C 145.347656 77.449219 145.351562 77.566406 145.355469 77.691406 C 145.355469 77.738281 145.355469 77.785156 145.355469 77.828125 C 145.355469 77.910156 145.355469 77.992188 145.355469 78.078125 C 145.355469 78.140625 145.355469 78.207031 145.351562 78.269531 C 145.351562 78.34375 145.347656 78.417969 145.34375 78.492188 C 145.34375 78.570312 145.335938 78.648438 145.332031 78.722656 C 145.328125 78.792969 145.324219 78.859375 145.316406 78.925781 C 145.3125 79.011719 145.304688 79.097656 145.292969 79.183594 C 145.289062 79.246094 145.28125 79.308594 145.273438 79.375 C 145.265625 79.433594 145.257812 79.492188 145.25 79.550781 C 145.242188 79.585938 145.238281 79.621094 145.234375 79.660156 C 145.226562 79.710938 145.214844 79.761719 145.207031 79.816406 C 145.1875 79.925781 145.171875 80.03125 145.148438 80.140625 C 145.140625 80.171875 145.132812 80.203125 145.125 80.230469 C 145.085938 80.421875 145.035156 80.605469 144.980469 80.792969 C 144.96875 80.828125 144.957031 80.863281 144.945312 80.898438 C 144.886719 81.089844 144.820312 81.277344 144.742188 81.460938 C 144.738281 81.46875 144.738281 81.476562 144.734375 81.484375 C 144.683594 81.601562 144.628906 81.714844 144.570312 81.828125 C 144.554688 81.859375 144.539062 81.890625 144.523438 81.925781 C 144.503906 81.960938 144.480469 81.992188 144.460938 82.027344 C 144.421875 82.097656 144.382812 82.164062 144.339844 82.230469 C 144.316406 82.265625 144.292969 82.304688 144.269531 82.339844 C 144.242188 82.382812 144.207031 82.421875 144.175781 82.464844 C 144.140625 82.515625 144.101562 82.570312 144.0625 82.621094 C 144.035156 82.65625 144.003906 82.691406 143.972656 82.726562 C 143.898438 82.816406 143.820312 82.902344 143.738281 82.980469 C 143.707031 83.015625 143.667969 83.046875 143.632812 83.078125 C 143.546875 83.15625 143.457031 83.234375 143.363281 83.308594 C 143.328125 83.332031 143.292969 83.355469 143.261719 83.378906 C 143.210938 83.414062 143.15625 83.445312 143.105469 83.480469 C 143.046875 83.515625 142.992188 83.558594 142.929688 83.59375 L 142.230469 80.964844 C 141.972656 79.996094 141.492188 78.597656 140.003906 78.996094 C 139.308594 79.179688 138.777344 79.699219 138.449219 80.386719 C 138.445312 80.390625 138.445312 80.390625 138.445312 80.394531 C 138.390625 80.503906 138.347656 80.617188 138.308594 80.734375 C 138.285156 80.792969 138.265625 80.855469 138.25 80.917969 C 138.21875 81.019531 138.1875 81.121094 138.167969 81.226562 C 138.136719 81.394531 138.113281 81.5625 138.097656 81.738281 C 138.09375 81.804688 138.09375 81.875 138.09375 81.941406 C 138.089844 82.085938 138.09375 82.234375 138.105469 82.382812 C 138.109375 82.449219 138.117188 82.511719 138.125 82.578125 C 138.148438 82.789062 138.183594 83.003906 138.242188 83.214844 C 138.644531 84.71875 140.074219 85.710938 141.859375 85.765625 C 141.980469 85.769531 142.09375 85.753906 142.203125 85.722656 L 143.027344 87.796875 L 142.710938 91.746094 L 141.523438 99.167969 C 139.273438 99.726562 137.066406 100.433594 134.695312 101.296875 C 132.074219 101.578125 129.777344 103.433594 129.070312 106.140625 L 127.777344 111.105469 Z M 104.6875 107.878906 C 104.625 107.988281 104.507812 108.046875 104.390625 108.046875 C 104.332031 108.046875 104.269531 108.03125 104.214844 107.996094 L 101.851562 106.566406 C 101.6875 106.46875 101.636719 106.253906 101.734375 106.09375 C 101.832031 105.925781 102.046875 105.878906 102.207031 105.976562 L 104.570312 107.40625 C 104.734375 107.503906 104.785156 107.714844 104.6875 107.878906 Z M 104.078125 109.367188 C 104.019531 109.488281 103.894531 109.5625 103.769531 109.5625 C 103.71875 109.5625 103.667969 109.550781 103.617188 109.527344 L 101.394531 108.445312 C 101.222656 108.363281 101.148438 108.15625 101.234375 107.984375 C 101.316406 107.8125 101.523438 107.742188 101.695312 107.824219 L 103.917969 108.90625 C 104.089844 108.988281 104.160156 109.195312 104.078125 109.367188 Z M 161.835938 98.105469 C 158.65625 97.855469 155.875 97.742188 153.371094 97.765625 L 153.726562 93.304688 C 155.121094 92.71875 156.253906 91.765625 157.066406 90.605469 C 159.105469 92.394531 161.296875 95.46875 161.835938 98.105469 Z M 161.835938 98.105469 " fill-opacity="1" fill-rule="evenodd"/></svg>