<svg xmlns="http://www.w3.org/2000/svg" xmlns:xlink="http://www.w3.org/1999/xlink" width="540" zoomAndPan="magnify" viewBox="0 0 404.88 299.999988" height="400" preserveAspectRatio="xMidYMid meet" version="1.0"><defs><clipPath id="6c71340f79"><path d="M 55.828125 157 L 215 157 L 215 282.671875 L 55.828125 282.671875 Z M 55.828125 157 " clip-rule="nonzero"/></clipPath><clipPath id="b5984978ce"><path d="M 100 17.25 L 348.992188 17.25 L 348.992188 282 L 100 282 Z M 100 17.25 " clip-rule="nonzero"/></clipPath><clipPath id="ba5a2f301b"><path d="M 62 49 L 337 49 L 337 282.671875 L 62 282.671875 Z M 62 49 " clip-rule="nonzero"/></clipPath><clipPath id="89a4ba472c"><path d="M 62 43 L 348.992188 43 L 348.992188 282.671875 L 62 282.671875 Z M 62 43 " clip-rule="nonzero"/></clipPath><clipPath id="f9acbaf295"><path d="M 84 42 L 329 42 L 329 282.671875 L 84 282.671875 Z M 84 42 " clip-rule="nonzero"/></clipPath><clipPath id="2d43c65881"><path d="M 55.828125 17.25 L 320 17.25 L 320 282.671875 L 55.828125 282.671875 Z M 55.828125 17.25 " clip-rule="nonzero"/></clipPath></defs><path fill="#f5f5f5" d="M 65.210938 135.378906 L 115.902344 135.378906 C 117.136719 135.378906 118.140625 134.375 118.140625 133.136719 L 118.140625 95.613281 C 118.140625 94.375 117.136719 93.371094 115.902344 93.371094 L 65.210938 93.371094 C 63.972656 93.371094 62.96875 94.375 62.96875 95.613281 L 62.96875 133.136719 C 62.96875 134.375 63.972656 135.378906 65.210938 135.378906 Z M 65.210938 135.378906 " fill-opacity="1" fill-rule="nonzero"/><g clip-path="url(#6c71340f79)"><path fill="#f5f5f5" d="M 204.621094 207.441406 C 204.757812 207.40625 204.863281 207.296875 204.886719 207.148438 L 205.082031 205.660156 C 205.113281 205.445312 204.945312 205.257812 204.730469 205.257812 L 204.65625 205.257812 C 204.726562 204.980469 204.769531 204.691406 204.769531 204.390625 C 204.769531 202.441406 203.1875 200.859375 201.238281 200.859375 C 199.285156 200.859375 197.703125 202.441406 197.703125 204.390625 C 197.703125 204.691406 197.746094 204.980469 197.816406 205.257812 L 197.742188 205.257812 C 197.527344 205.257812 197.359375 205.445312 197.390625 205.660156 L 197.589844 207.148438 C 197.609375 207.296875 197.714844 207.40625 197.851562 207.441406 L 198.421875 211.703125 L 191.777344 211.703125 L 191.878906 210.011719 C 193.757812 209.617188 195.171875 207.945312 195.171875 205.949219 C 195.171875 204.132812 193.996094 202.585938 192.359375 202.027344 L 192.492188 199.824219 L 183.855469 199.824219 L 184.570312 211.703125 L 143.261719 211.703125 L 143.316406 211.679688 L 143.316406 211.703125 L 166.09375 211.703125 L 166.09375 210.8125 C 164.109375 210.214844 162.125 209.773438 160.140625 209.488281 L 160.140625 200.742188 L 175.59375 200.742188 C 176.078125 200.742188 176.523438 200.347656 176.585938 199.859375 L 180.65625 168.09375 C 180.71875 167.605469 180.375 167.214844 179.886719 167.214844 L 133.816406 167.214844 C 133.332031 167.214844 132.886719 167.609375 132.824219 168.09375 L 128.753906 199.859375 C 128.691406 200.347656 129.035156 200.742188 129.523438 200.742188 L 148.519531 200.742188 L 148.519531 209.601562 L 148.585938 209.601562 C 148.425781 209.628906 148.261719 209.652344 148.097656 209.679688 C 148.144531 209.671875 148.1875 209.664062 148.230469 209.65625 L 148.265625 209.640625 L 148.328125 207.402344 C 148.304688 207.371094 148.273438 207.347656 148.246094 207.320312 C 148.136719 207.179688 148 207.070312 147.839844 206.992188 C 147.785156 206.960938 147.726562 206.941406 147.667969 206.917969 L 143.339844 205.09375 C 143.300781 205.074219 143.265625 205.054688 143.226562 205.035156 C 142.828125 204.867188 142.417969 204.757812 141.976562 204.820312 L 136.285156 205.863281 L 137.308594 205.675781 C 137.035156 205.574219 136.753906 205.492188 136.453125 205.460938 L 120.292969 202.925781 L 114.65625 187.644531 C 114.542969 187.339844 114.40625 187.0625 114.253906 186.796875 C 113.808594 185.398438 112.816406 183.960938 110.601562 183.578125 C 110.222656 183.511719 109.867188 183.449219 109.515625 183.390625 L 109.738281 179.953125 C 112.164062 178.90625 113.601562 176.476562 113.492188 173.960938 L 113.460938 173.257812 L 113.464844 173.332031 C 113.992188 174.015625 114.296875 174.863281 114.296875 175.75 C 114.296875 175.851562 114.289062 175.957031 114.28125 176.058594 C 113.949219 176.09375 113.6875 176.363281 113.6875 176.703125 C 113.6875 177.070312 113.984375 177.363281 114.347656 177.363281 C 114.710938 177.363281 115.003906 177.070312 115.003906 176.703125 C 115.003906 176.453125 114.859375 176.238281 114.648438 176.128906 C 114.660156 176.003906 114.671875 175.875 114.671875 175.75 C 114.671875 174.730469 114.304688 173.761719 113.667969 172.992188 C 114.085938 172.449219 114.347656 171.78125 114.347656 171.042969 C 114.347656 170.078125 113.917969 169.222656 113.25 168.628906 L 113.4375 172.730469 L 113.132812 166.082031 C 113.109375 165.472656 113 164.890625 112.835938 164.332031 C 112.835938 163.667969 112.734375 163.027344 112.546875 162.425781 C 112.546875 162.429688 112.542969 162.433594 112.542969 162.433594 C 112.542969 162.433594 112.546875 162.429688 112.546875 162.429688 C 112.566406 162.351562 112.597656 162.285156 112.617188 162.207031 C 112.527344 162.085938 112.433594 161.976562 112.339844 161.863281 C 111.363281 159.523438 109.054688 157.878906 106.359375 157.878906 L 103.703125 157.878906 C 100.125 157.878906 97.222656 160.777344 97.222656 164.355469 C 97.222656 164.269531 97.234375 164.183594 97.238281 164.097656 C 96.695312 165.46875 96.496094 166.957031 96.675781 168.425781 C 95.859375 169.011719 95.320312 169.960938 95.320312 171.042969 C 95.320312 171.53125 95.4375 171.992188 95.632812 172.410156 C 95.628906 172.40625 95.628906 172.402344 95.625 172.402344 L 92.644531 173.742188 C 89.128906 175.324219 87.5625 179.460938 89.144531 182.976562 C 89.683594 184.175781 90.523438 185.140625 91.53125 185.839844 C 90.714844 186.578125 90.082031 187.53125 89.714844 188.6875 L 66.59375 188.6875 L 70.382812 211.703125 L 55.828125 211.703125 L 55.828125 215.003906 L 67.1875 215.003906 L 56.351562 282.335938 L 60.789062 282.335938 L 71.394531 217.832031 L 76.007812 245.84375 L 76.007812 282.335938 L 80.820312 282.335938 L 80.820312 249.65625 L 93.570312 249.65625 L 93.570312 282.335938 L 98.382812 282.335938 L 98.382812 249.65625 L 99.242188 249.65625 L 104.617188 282.335938 L 109.054688 282.335938 L 103.796875 249.65625 L 120.945312 249.65625 L 120.945312 271.550781 L 120.859375 272.160156 L 120.921875 272.160156 C 120.3125 276.152344 119.300781 278.175781 120.34375 282.335938 L 143.316406 282.335938 L 143.316406 254.070312 L 146.347656 264.027344 C 146.234375 264.0625 146.144531 264.167969 146.144531 264.296875 C 146.144531 264.453125 146.273438 264.582031 146.429688 264.582031 L 146.519531 264.582031 L 148.828125 272.160156 L 157.378906 272.160156 C 157.828125 276.683594 156.453125 278.167969 157.496094 282.335938 L 177.683594 282.335938 C 177.683594 282.335938 178.160156 280.113281 175.414062 278.789062 C 173.1875 277.710938 169.960938 276.1875 168.058594 273.914062 C 167.949219 273.78125 167.851562 273.652344 167.753906 273.519531 L 177.375 215.003906 L 199.0625 215.003906 L 210.132812 282.335938 L 214.570312 282.335938 L 203.734375 215.003906 L 214.570312 215.003906 L 214.570312 211.703125 L 204.054688 211.703125 Z M 192.292969 203.183594 C 193.339844 203.667969 194.070312 204.722656 194.070312 205.949219 C 194.070312 207.308594 193.179688 208.460938 191.949219 208.851562 Z M 96.378906 173.421875 C 96.449219 173.484375 96.523438 173.542969 96.597656 173.601562 C 96.523438 173.542969 96.449219 173.488281 96.378906 173.421875 Z M 100.519531 174.085938 L 100.964844 175.207031 L 100.46875 174.101562 C 100.484375 174.097656 100.5 174.09375 100.519531 174.085938 Z M 100.957031 173.894531 C 100.96875 173.886719 100.980469 173.878906 100.996094 173.875 C 100.984375 173.878906 100.96875 173.886719 100.957031 173.894531 Z M 100.851562 178.726562 L 101.105469 175.558594 L 100.839844 178.867188 Z M 102.003906 173.019531 C 102.03125 172.984375 102.0625 172.953125 102.089844 172.917969 C 102.0625 172.953125 102.03125 172.984375 102.003906 173.019531 Z M 102.636719 171.632812 C 102.671875 171.441406 102.695312 171.246094 102.695312 171.042969 C 102.695312 171.246094 102.671875 171.441406 102.636719 171.632812 Z M 102.238281 172.671875 C 102.289062 172.585938 102.339844 172.5 102.382812 172.410156 C 102.339844 172.5 102.289062 172.585938 102.238281 172.671875 Z M 102.476562 172.183594 C 102.519531 172.066406 102.558594 171.949219 102.589844 171.828125 C 102.558594 171.949219 102.523438 172.066406 102.476562 172.183594 Z M 101.902344 168.933594 C 101.929688 168.421875 101.933594 167.949219 101.925781 167.550781 C 101.929688 167.949219 101.929688 168.421875 101.902344 168.933594 Z M 101.53125 159.878906 C 101.800781 159.632812 102.089844 159.414062 102.402344 159.230469 C 102.089844 159.414062 101.800781 159.632812 101.53125 159.878906 Z M 101.539062 172.300781 C 101.703125 171.914062 101.792969 171.488281 101.792969 171.042969 C 101.792969 171.488281 101.703125 171.914062 101.539062 172.300781 Z M 99.996094 174.222656 C 99.824219 174.257812 99.644531 174.277344 99.457031 174.277344 C 99.644531 174.277344 99.820312 174.253906 99.996094 174.222656 Z M 99.816406 174.023438 C 99.820312 174.023438 99.824219 174.019531 99.824219 174.019531 C 99.820312 174.019531 99.820312 174.023438 99.816406 174.023438 Z M 126.125 237.441406 L 129.523438 233.5 Z M 125.472656 237.441406 L 123.621094 237.441406 L 125.472656 237.429688 C 125.472656 237.425781 125.476562 237.425781 125.476562 237.421875 C 125.476562 237.425781 125.472656 237.433594 125.472656 237.441406 Z M 125.488281 237.332031 C 125.5 237.300781 125.515625 237.269531 125.539062 237.242188 C 125.515625 237.269531 125.5 237.300781 125.488281 237.332031 Z M 142.292969 211.699219 L 142.664062 211.703125 L 142.292969 211.703125 Z M 145.984375 210.109375 C 145.964844 210.113281 145.941406 210.117188 145.917969 210.125 L 145.917969 210.121094 C 145.941406 210.117188 145.964844 210.113281 145.984375 210.109375 Z M 144.667969 210.433594 C 144.21875 210.550781 143.773438 210.675781 143.324219 210.808594 C 143.773438 210.675781 144.21875 210.550781 144.667969 210.433594 Z M 143.347656 209.546875 C 143.339844 209.542969 143.332031 209.542969 143.324219 209.542969 L 143.3125 209.503906 C 143.324219 209.515625 143.335938 209.53125 143.347656 209.546875 Z M 112.167969 163.402344 C 112.113281 163.515625 112.0625 163.636719 111.996094 163.742188 C 112.128906 163.527344 112.246094 163.296875 112.34375 163.054688 C 112.445312 163.257812 112.539062 163.46875 112.621094 163.683594 C 112.539062 163.46875 112.445312 163.257812 112.34375 163.054688 C 110.84375 166.6875 105.816406 167.125 102.527344 167.171875 C 105.703125 167.125 110.492188 166.703125 112.167969 163.402344 C 112.238281 163.261719 112.304688 163.113281 112.367188 162.960938 C 112.304688 163.113281 112.238281 163.261719 112.167969 163.402344 Z M 107.070312 158.6875 C 106.9375 158.660156 106.800781 158.648438 106.664062 158.628906 C 106.863281 158.65625 107.0625 158.683594 107.261719 158.726562 C 107.199219 158.710938 107.136719 158.699219 107.070312 158.6875 Z M 107.382812 158.757812 C 107.65625 158.820312 107.929688 158.890625 108.199219 158.976562 C 108.144531 158.960938 108.089844 158.941406 108.03125 158.925781 C 107.820312 158.859375 107.601562 158.808594 107.382812 158.757812 Z M 108.683594 159.164062 C 108.820312 159.21875 108.957031 159.261719 109.089844 159.324219 C 109.070312 159.3125 109.054688 159.308594 109.035156 159.300781 C 108.921875 159.246094 108.800781 159.210938 108.683594 159.164062 Z M 111.628906 161.070312 C 111.394531 160.839844 111.152344 160.628906 110.898438 160.429688 C 111.148438 160.628906 111.394531 160.839844 111.628906 161.070312 Z M 109.105469 159.332031 C 109.714844 159.609375 110.300781 159.960938 110.84375 160.378906 C 110.300781 159.960938 109.714844 159.609375 109.105469 159.332031 Z M 106.210938 158.566406 C 106.179688 158.5625 106.148438 158.558594 106.117188 158.554688 C 106.148438 158.558594 106.179688 158.5625 106.210938 158.566406 Z M 104.945312 158.527344 L 105.121094 158.527344 L 105.121094 158.535156 C 104.597656 158.550781 104.070312 158.617188 103.550781 158.730469 C 103.996094 158.601562 104.460938 158.527344 104.945312 158.527344 Z M 102.433594 159.210938 C 102.535156 159.152344 102.640625 159.097656 102.742188 159.046875 C 102.640625 159.097656 102.535156 159.152344 102.433594 159.210938 Z M 102.820312 159.011719 C 102.921875 158.960938 103.027344 158.914062 103.132812 158.875 C 103.027344 158.914062 102.921875 158.960938 102.820312 159.011719 Z M 103.207031 158.847656 C 103.320312 158.804688 103.433594 158.765625 103.550781 158.730469 C 103.433594 158.765625 103.320312 158.804688 103.207031 158.847656 Z M 101.445312 159.964844 C 101.378906 160.027344 101.3125 160.097656 101.25 160.164062 C 101.3125 160.09375 101.378906 160.027344 101.445312 159.964844 Z M 101.136719 160.292969 C 101.078125 160.359375 101.023438 160.421875 100.972656 160.492188 C 101.023438 160.421875 101.078125 160.359375 101.136719 160.292969 Z M 100.851562 160.652344 C 100.804688 160.71875 100.757812 160.78125 100.714844 160.847656 C 100.757812 160.78125 100.804688 160.71875 100.851562 160.652344 Z M 100.585938 161.066406 C 100.546875 161.128906 100.507812 161.191406 100.476562 161.257812 C 100.507812 161.195312 100.546875 161.128906 100.585938 161.066406 Z M 100.300781 161.621094 C 100.28125 161.671875 100.261719 161.726562 100.242188 161.777344 C 100.261719 161.726562 100.28125 161.671875 100.300781 161.621094 Z M 100.140625 162.054688 C 100.121094 162.113281 100.105469 162.167969 100.089844 162.226562 C 100.105469 162.167969 100.121094 162.113281 100.140625 162.054688 Z M 100.015625 162.511719 C 100.003906 162.570312 99.988281 162.625 99.980469 162.683594 C 99.988281 162.625 100.003906 162.570312 100.015625 162.511719 Z M 99.929688 163 C 99.925781 163.050781 99.917969 163.101562 99.910156 163.152344 C 99.917969 163.101562 99.925781 163.050781 99.929688 163 Z M 99.886719 167.835938 C 100.375 167.902344 100.816406 168.089844 101.207031 168.34375 C 100.816406 168.09375 100.371094 167.914062 99.886719 167.847656 Z M 98.558594 174.277344 C 98.558594 174.277344 98.558594 174.277344 98.554688 174.277344 C 98.355469 174.277344 98.164062 174.253906 97.972656 174.21875 C 98.164062 174.253906 98.355469 174.277344 98.554688 174.277344 C 98.558594 174.277344 98.558594 174.277344 98.558594 174.277344 Z M 97.242188 173.996094 C 97.085938 173.925781 96.933594 173.84375 96.792969 173.75 C 96.933594 173.84375 97.082031 173.925781 97.242188 173.996094 Z M 97.800781 174.179688 C 97.667969 174.148438 97.539062 174.109375 97.414062 174.0625 C 97.539062 174.109375 97.667969 174.148438 97.800781 174.179688 Z M 97.222656 168.097656 C 97.117188 168.148438 97.015625 168.207031 96.914062 168.265625 C 97.011719 168.203125 97.117188 168.148438 97.222656 168.097656 Z M 96.167969 173.210938 C 96.121094 173.160156 96.078125 173.105469 96.035156 173.050781 C 96.078125 173.105469 96.121094 173.160156 96.167969 173.210938 Z M 93.476562 184.628906 C 93.425781 184.648438 93.378906 184.667969 93.332031 184.6875 C 93.378906 184.667969 93.425781 184.648438 93.476562 184.628906 Z M 92.75 184.972656 C 92.742188 184.976562 92.738281 184.976562 92.730469 184.980469 C 92.738281 184.976562 92.742188 184.976562 92.75 184.972656 Z M 92.109375 185.375 C 92.109375 185.375 92.109375 185.375 92.105469 185.375 C 92.109375 185.375 92.109375 185.375 92.109375 185.375 Z M 131.65625 273.914062 C 131.066406 273.070312 130.714844 272.523438 130.507812 272.160156 L 138.503906 272.160156 L 138.503906 278.917969 C 138.421875 278.875 138.347656 278.828125 138.261719 278.785156 C 136.035156 277.710938 133.355469 276.339844 131.65625 273.914062 Z M 165.007812 262.820312 L 156.933594 227.050781 C 155.902344 222.480469 153.113281 219.136719 148.433594 218.832031 L 137.414062 218.09375 C 137.238281 218.074219 137.0625 218.046875 136.882812 218.035156 L 114.417969 216.5625 C 114.003906 216.015625 113.546875 215.5 113.070312 215 L 172.703125 215 Z M 165.007812 262.820312 " fill-opacity="1" fill-rule="nonzero"/></g><path fill="#f5f5f5" d="M 292.65625 83.859375 L 314.113281 83.859375 C 315.492188 86.183594 318.023438 87.746094 320.921875 87.746094 C 325.300781 87.746094 328.847656 84.195312 328.847656 79.820312 C 328.847656 76.023438 326.175781 72.851562 322.609375 72.078125 L 322.609375 46.222656 C 322.609375 44.84375 321.492188 43.726562 320.113281 43.726562 L 292.65625 43.726562 C 291.28125 43.726562 290.164062 44.84375 290.164062 46.222656 L 290.164062 81.363281 C 290.164062 82.742188 291.28125 83.859375 292.65625 83.859375 Z M 317.863281 74.085938 C 318.042969 73.992188 318.222656 73.902344 318.410156 73.824219 C 318.222656 73.902344 318.042969 73.992188 317.863281 74.085938 Z M 318.480469 73.800781 C 318.652344 73.730469 318.824219 73.664062 319 73.609375 C 318.824219 73.664062 318.652344 73.730469 318.480469 73.800781 Z M 319.167969 73.566406 C 319.320312 73.527344 319.46875 73.484375 319.621094 73.453125 C 319.46875 73.484375 319.316406 73.527344 319.167969 73.566406 Z M 316.359375 75.195312 C 316.796875 74.761719 317.296875 74.390625 317.847656 74.09375 C 317.300781 74.390625 316.800781 74.761719 316.359375 75.195312 Z M 314.492188 75.199219 Z M 315.09375 74.464844 C 315.078125 74.476562 315.066406 74.492188 315.054688 74.503906 C 315.066406 74.492188 315.082031 74.476562 315.09375 74.464844 Z M 315.71875 73.851562 C 315.726562 73.847656 315.730469 73.839844 315.738281 73.835938 C 315.730469 73.839844 315.726562 73.847656 315.71875 73.851562 Z M 313.523438 76.996094 Z M 319.945312 73.402344 C 320.050781 73.386719 320.152344 73.367188 320.261719 73.355469 C 320.152344 73.367188 320.050781 73.386719 319.945312 73.402344 Z M 317.238281 72.804688 C 317.261719 72.792969 317.285156 72.785156 317.304688 72.773438 C 317.285156 72.785156 317.261719 72.792969 317.238281 72.804688 Z M 318.019531 72.449219 C 318.09375 72.421875 318.167969 72.394531 318.242188 72.367188 C 318.167969 72.394531 318.09375 72.421875 318.019531 72.449219 Z M 318.847656 72.179688 C 318.941406 72.152344 319.03125 72.128906 319.125 72.105469 C 319.03125 72.128906 318.941406 72.152344 318.847656 72.179688 Z M 319.75 71.992188 C 319.835938 71.976562 319.925781 71.960938 320.015625 71.949219 C 319.925781 71.960938 319.835938 71.976562 319.75 71.992188 Z M 313.035156 79.058594 C 313.011719 79.308594 312.996094 79.5625 312.996094 79.820312 C 312.996094 80.058594 313.011719 80.296875 313.03125 80.53125 C 313.011719 80.296875 312.996094 80.058594 312.996094 79.820312 C 312.996094 79.5625 313.011719 79.308594 313.035156 79.058594 Z M 313.300781 77.660156 C 313.300781 77.671875 313.296875 77.679688 313.296875 77.6875 C 313.296875 77.679688 313.300781 77.671875 313.300781 77.660156 Z M 313.140625 78.34375 C 313.125 78.40625 313.121094 78.46875 313.109375 78.535156 C 313.121094 78.46875 313.125 78.40625 313.140625 78.34375 Z M 313.429688 82.382812 C 313.449219 82.445312 313.472656 82.507812 313.496094 82.570312 C 313.472656 82.507812 313.449219 82.445312 313.429688 82.382812 Z M 313.054688 80.742188 C 313.074219 80.921875 313.101562 81.097656 313.136719 81.269531 C 313.101562 81.097656 313.074219 80.921875 313.054688 80.742188 Z M 313.203125 81.589844 C 313.234375 81.734375 313.273438 81.875 313.3125 82.015625 C 313.269531 81.875 313.234375 81.734375 313.203125 81.589844 Z M 314.464844 79.097656 C 314.4375 79.335938 314.425781 79.574219 314.425781 79.820312 C 314.421875 79.574219 314.4375 79.335938 314.464844 79.097656 Z M 315.074219 76.996094 C 314.976562 77.203125 314.886719 77.414062 314.808594 77.632812 C 314.886719 77.414062 314.976562 77.203125 315.074219 76.996094 Z M 314.792969 77.671875 C 314.722656 77.871094 314.664062 78.074219 314.613281 78.28125 C 314.664062 78.074219 314.726562 77.871094 314.792969 77.671875 Z M 314.589844 78.378906 C 314.546875 78.570312 314.511719 78.761719 314.488281 78.957031 C 314.511719 78.761719 314.546875 78.570312 314.589844 78.378906 Z M 321.800781 71.945312 C 321.792969 71.945312 321.785156 71.941406 321.777344 71.941406 C 321.785156 71.945312 321.792969 71.945312 321.800781 71.945312 Z M 321.800781 71.945312 " fill-opacity="1" fill-rule="nonzero"/><g clip-path="url(#b5984978ce)"><path fill="#f5f5f5" d="M 336.117188 265.980469 L 319.816406 265.980469 L 318.082031 255.765625 L 319.558594 255.765625 L 311.984375 203.417969 L 310.351562 176.617188 C 310.351562 176.617188 310.347656 176.617188 310.347656 176.617188 C 310.898438 176.496094 311.453125 176.363281 312.007812 176.210938 C 312.007812 176.210938 312.484375 166.820312 312.703125 164.15625 C 312.976562 160.84375 314.304688 150.960938 314.304688 150.957031 L 314.085938 151.757812 L 314.304688 150.957031 L 316.460938 143.496094 C 317 141.617188 316.53125 139.589844 315.210938 138.148438 C 313.191406 135.941406 309.230469 133.460938 304.203125 130.0625 C 304.203125 130.0625 304.105469 130.136719 303.941406 130.25 C 303.972656 130.226562 304.007812 130.207031 304.035156 130.1875 L 304.046875 126.03125 L 304.050781 125.273438 L 304.058594 125.964844 C 304.320312 125.46875 304.5625 124.886719 304.777344 124.320312 C 304.792969 124.320312 304.808594 124.324219 304.824219 124.320312 C 305.183594 124.289062 305.617188 124.164062 306.015625 123.8125 C 307.003906 122.945312 307.78125 121.5625 306.703125 120.421875 C 306.703125 120.421875 306.699219 120.417969 306.695312 120.417969 C 306.695312 120.414062 306.691406 120.414062 306.691406 120.410156 C 306.472656 120.242188 305.078125 119.285156 304.167969 121.507812 C 304.167969 121.507812 304.007812 121.394531 303.808594 121.207031 C 303.980469 121.355469 304.109375 121.445312 304.109375 121.445312 C 305.0625 119.015625 306.648438 120.335938 306.648438 120.335938 C 311.8125 112.335938 306.0625 111.628906 306.0625 111.628906 C 300.175781 105.539062 299.953125 109.867188 299.953125 109.867188 C 292.734375 105.570312 293.738281 110.167969 293.738281 110.167969 C 290.605469 110.832031 292.570312 112.792969 292.570312 112.792969 C 291.324219 114.066406 292.566406 114.839844 294.578125 115.304688 C 293.335938 118.90625 291.136719 126.886719 296.042969 127.0625 L 296.039062 127.085938 L 296.03125 127.101562 L 295.636719 128.71875 L 295.238281 130.355469 C 295.972656 133.3125 298.535156 132.984375 300.730469 132.058594 C 298.460938 133.015625 295.796875 133.339844 295.167969 130.0625 C 295.167969 130.0625 291.570312 131.210938 287.429688 133.535156 C 286.609375 133.996094 286.089844 134.867188 285.84375 135.777344 L 284.8125 139.457031 C 284.6875 139.398438 284.550781 139.355469 284.402344 139.355469 L 279.257812 139.355469 L 279.257812 55.605469 L 238.941406 55.605469 L 238.304688 47.128906 C 238.320312 47.046875 238.316406 46.976562 238.328125 46.898438 C 238.765625 46.296875 239.054688 45.535156 239.101562 44.582031 C 239.261719 41.167969 239.15625 35.578125 239.070312 34.320312 C 239 33.285156 237.554688 33.152344 237.554688 34.589844 C 237.554688 35.316406 237.46875 36.164062 237.367188 37.464844 C 237.261719 35.855469 237.101562 33.542969 236.992188 32.773438 C 236.859375 31.839844 235.53125 31.679688 235.367188 32.660156 C 235.371094 32.929688 235.359375 33.121094 235.351562 32.910156 C 235.347656 32.820312 235.355469 32.738281 235.367188 32.660156 C 235.367188 32.5 235.363281 32.316406 235.351562 32.175781 C 235.257812 31.183594 233.734375 31.078125 233.492188 32.226562 L 233.046875 36.589844 C 232.925781 35.082031 232.777344 33.402344 232.675781 32.695312 C 232.511719 31.535156 230.78125 31.617188 230.824219 33.0625 C 230.863281 34.332031 230.808594 39.730469 230.796875 41.023438 C 230.75 41.023438 230.703125 41.03125 230.65625 41.054688 C 230.457031 40.695312 230.222656 40.285156 230.035156 39.988281 C 229.097656 38.457031 228.171875 38.25 227.722656 38.457031 C 227.316406 38.644531 227.390625 38.839844 227.671875 39.640625 C 228.308594 41.46875 228.542969 44.320312 231.046875 46.808594 C 231.195312 46.957031 231.351562 47.089844 231.511719 47.21875 L 231.011719 55.605469 L 227.441406 55.605469 C 227.28125 53.800781 227.121094 51.996094 226.898438 50.195312 C 226.644531 48.167969 225.351562 46.53125 223.625 45.738281 C 223.628906 45.730469 223.628906 45.710938 223.628906 45.710938 C 219.628906 43.984375 215.71875 42.851562 211.84375 42.292969 L 211.90625 43.140625 L 211.367188 35.980469 C 212.445312 35.789062 216.792969 34.785156 216.300781 30.84375 C 216.300781 30.84375 219.710938 26.929688 216.328125 23.882812 C 216.367188 20.347656 214.460938 18.632812 210.90625 18.460938 C 210.90625 18.460938 202.875 17.777344 201.089844 17.667969 C 198.546875 17.511719 198.441406 19.710938 199.195312 22.6875 C 199.238281 22.859375 199.304688 23.003906 199.378906 23.140625 C 199.152344 23.589844 198.964844 24.0625 198.824219 24.558594 C 198.8125 24.601562 198.804688 24.644531 198.792969 24.683594 C 198.738281 24.890625 198.683594 25.101562 198.644531 25.316406 C 198.597656 25.578125 198.5625 25.84375 198.539062 26.113281 C 198.511719 26.433594 198.511719 26.746094 198.519531 27.058594 C 198.523438 27.15625 198.535156 27.25 198.539062 27.347656 C 198.554688 27.566406 198.578125 27.78125 198.609375 27.996094 C 198.628906 28.097656 198.644531 28.199219 198.664062 28.300781 C 198.703125 28.515625 198.753906 28.730469 198.816406 28.941406 C 198.839844 29.023438 198.859375 29.109375 198.882812 29.191406 C 198.972656 29.472656 199.082031 29.75 199.199219 30.019531 C 199.199219 30.015625 199.199219 30.011719 199.203125 30.007812 C 199.191406 30.242188 199.1875 30.378906 199.1875 30.378906 L 199.265625 34.84375 C 199.300781 36.867188 200.300781 38.691406 201.835938 39.800781 L 201.816406 42.183594 C 198.0625 42.640625 194.296875 43.652344 190.464844 45.25 C 190.457031 45.253906 190.453125 45.257812 190.445312 45.261719 C 189.09375 45.730469 187.925781 46.722656 187.28125 48.128906 L 183.550781 55.605469 L 180.976562 55.605469 C 180.941406 54.964844 180.914062 54.355469 180.945312 53.78125 C 181.007812 52.6875 181.03125 52.417969 180.496094 52.304688 C 179.898438 52.179688 178.683594 52.867188 178.085938 55.085938 C 178.039062 55.261719 177.988281 55.4375 177.941406 55.605469 L 177.132812 55.605469 C 176.65625 54.203125 176.289062 53.214844 176.25 53.113281 C 176.246094 53.105469 176.246094 53.101562 176.242188 53.097656 C 176.242188 53.097656 176.238281 53.089844 176.238281 53.089844 C 176.074219 52.699219 175.738281 52.398438 175.289062 52.3125 C 174.546875 52.179688 173.863281 52.695312 173.765625 53.425781 L 173 53.527344 C 172.992188 53.320312 172.980469 53.152344 172.96875 53.042969 C 172.898438 52.308594 172.289062 51.742188 171.550781 51.808594 C 170.84375 51.867188 170.335938 52.476562 170.363281 53.15625 C 170.113281 52.570312 169.503906 52.214844 168.867188 52.371094 C 168.304688 52.507812 167.929688 52.988281 167.886719 53.523438 C 167.589844 53.171875 167.125 53 166.65625 53.140625 C 165.976562 53.347656 165.636719 54.101562 165.929688 54.746094 L 166.40625 55.605469 L 137.078125 55.605469 L 137.078125 47.414062 C 137.078125 44.929688 135.066406 42.917969 132.582031 42.917969 L 104.972656 42.917969 C 102.488281 42.917969 100.476562 44.929688 100.476562 47.414062 L 100.476562 58.355469 C 100.476562 60.839844 102.488281 62.855469 104.972656 62.855469 L 129.382812 62.855469 L 129.382812 157.421875 L 271.378906 157.421875 C 271.339844 157.503906 271.316406 157.589844 271.316406 157.683594 C 271.316406 157.808594 271.351562 157.9375 271.433594 158.050781 C 271.714844 158.441406 272.09375 158.753906 272.53125 158.949219 L 278.460938 161.644531 C 279.105469 161.941406 279.808594 162.089844 280.515625 162.089844 L 283.089844 162.089844 C 283.105469 162.089844 283.117188 162.089844 283.132812 162.097656 C 283.199219 162.109375 283.460938 162.160156 283.855469 162.242188 L 283.703125 163.054688 L 281.734375 172.605469 L 263.648438 189.527344 C 260.207031 193.660156 262.730469 199.398438 262.730469 199.398438 L 274.898438 240.957031 L 277.273438 240.957031 C 277.347656 242.003906 277.3125 243.042969 277.03125 243.835938 C 275.867188 247.128906 272.660156 247.058594 270.929688 247.417969 C 267.171875 248.207031 266.253906 250.402344 266.109375 250.828125 L 234.34375 250.828125 L 234.34375 281.808594 L 348.972656 281.808594 L 348.972656 265.980469 Z M 211.683594 34.769531 L 211.574219 35.09375 L 211.351562 35.773438 L 211.683594 34.769531 C 211.734375 34.898438 211.820312 35 211.917969 35.082031 C 211.820312 35 211.734375 34.898438 211.683594 34.769531 Z M 212.132812 35.207031 C 212.253906 35.25 212.378906 35.273438 212.515625 35.238281 C 212.378906 35.273438 212.253906 35.25 212.132812 35.207031 Z M 214.449219 32.988281 C 214.460938 32.832031 214.460938 32.679688 214.457031 32.53125 C 214.460938 32.679688 214.460938 32.832031 214.449219 32.988281 Z M 214.445312 32.390625 C 214.445312 32.390625 214.445312 32.394531 214.445312 32.394531 C 214.441406 32.285156 214.425781 32.183594 214.410156 32.082031 C 214.425781 32.183594 214.4375 32.285156 214.445312 32.390625 Z M 214.324219 31.703125 C 214.3125 31.667969 214.304688 31.628906 214.292969 31.589844 C 214.304688 31.628906 214.3125 31.667969 214.324219 31.703125 Z M 214.214844 31.394531 C 214.195312 31.351562 214.175781 31.304688 214.15625 31.261719 C 214.15625 31.261719 214.15625 31.265625 214.15625 31.265625 C 214.175781 31.304688 214.195312 31.351562 214.214844 31.394531 Z M 214.023438 31.023438 C 214.019531 31.019531 214.019531 31.019531 214.015625 31.015625 C 214.019531 31.019531 214.023438 31.023438 214.023438 31.023438 Z M 213.804688 30.734375 C 213.800781 30.730469 213.792969 30.730469 213.789062 30.726562 C 213.792969 30.730469 213.800781 30.730469 213.804688 30.734375 Z M 213.28125 30.367188 C 213.179688 30.328125 213.074219 30.300781 212.964844 30.289062 C 213.074219 30.300781 213.179688 30.328125 213.28125 30.367188 Z M 213.558594 30.519531 C 213.53125 30.5 213.503906 30.488281 213.472656 30.46875 C 213.503906 30.488281 213.53125 30.5 213.558594 30.519531 Z M 199.261719 29.125 C 199.269531 29.046875 199.277344 28.96875 199.285156 28.882812 C 199.277344 28.96875 199.269531 29.046875 199.261719 29.125 Z M 199.21875 29.726562 C 199.21875 29.679688 199.222656 29.628906 199.226562 29.574219 C 199.222656 29.628906 199.21875 29.675781 199.21875 29.726562 Z M 199.234375 29.453125 C 199.242188 29.390625 199.246094 29.328125 199.25 29.257812 C 199.246094 29.328125 199.242188 29.390625 199.234375 29.453125 Z M 199.394531 27.929688 C 199.355469 28.226562 199.324219 28.507812 199.296875 28.765625 C 199.324219 28.507812 199.355469 28.226562 199.394531 27.929688 Z M 200.121094 24.421875 C 200.175781 24.234375 200.234375 24.042969 200.296875 23.851562 C 200.234375 24.042969 200.175781 24.234375 200.121094 24.421875 Z M 199.414062 27.796875 C 199.429688 27.6875 199.445312 27.574219 199.464844 27.457031 C 199.445312 27.570312 199.429688 27.6875 199.414062 27.796875 Z M 199.488281 27.304688 C 199.503906 27.1875 199.527344 27.0625 199.546875 26.9375 C 199.527344 27.0625 199.503906 27.1875 199.488281 27.304688 Z M 199.570312 26.796875 C 199.632812 26.457031 199.703125 26.105469 199.785156 25.738281 C 199.703125 26.101562 199.632812 26.457031 199.570312 26.796875 Z M 199.820312 25.578125 C 199.851562 25.449219 199.882812 25.316406 199.917969 25.183594 C 199.882812 25.316406 199.851562 25.449219 199.820312 25.578125 Z M 199.964844 24.996094 C 200 24.863281 200.035156 24.730469 200.074219 24.597656 C 200.035156 24.730469 200 24.863281 199.964844 24.996094 Z M 291.164062 176.207031 C 291.242188 176.226562 291.320312 176.246094 291.398438 176.261719 C 291.320312 176.246094 291.242188 176.226562 291.164062 176.207031 Z M 292.21875 176.453125 C 292.296875 176.46875 292.375 176.484375 292.457031 176.503906 C 292.375 176.488281 292.296875 176.46875 292.21875 176.453125 Z M 302.875 130.949219 C 302.628906 131.097656 302.359375 131.257812 302.066406 131.414062 C 302.359375 131.257812 302.628906 131.097656 302.875 130.949219 Z M 303.089844 130.816406 C 303.035156 130.851562 302.980469 130.886719 302.917969 130.921875 C 302.980469 130.886719 303.035156 130.851562 303.089844 130.816406 Z M 303.273438 165.867188 C 303.128906 165.84375 302.980469 165.820312 302.828125 165.792969 C 302.980469 165.820312 303.128906 165.84375 303.273438 165.867188 Z M 302.554688 165.75 C 302.398438 165.726562 302.238281 165.699219 302.074219 165.671875 C 302.238281 165.699219 302.398438 165.726562 302.554688 165.75 Z M 301.800781 165.625 C 301.621094 165.597656 301.4375 165.566406 301.25 165.535156 C 301.4375 165.566406 301.621094 165.597656 301.800781 165.625 Z M 301.019531 165.496094 C 300.761719 165.449219 300.5 165.40625 300.234375 165.359375 C 300.5 165.40625 300.761719 165.449219 301.019531 165.496094 Z M 300.210938 165.355469 C 299.925781 165.304688 299.632812 165.253906 299.339844 165.203125 C 299.632812 165.253906 299.925781 165.304688 300.210938 165.355469 Z M 299.28125 165.191406 C 299.007812 165.144531 298.734375 165.097656 298.460938 165.046875 C 298.734375 165.09375 299.007812 165.144531 299.28125 165.191406 Z M 298.292969 165.015625 C 298.054688 164.972656 297.8125 164.929688 297.574219 164.886719 C 297.816406 164.929688 298.054688 164.972656 298.292969 165.015625 Z M 297.34375 164.84375 C 297.117188 164.804688 296.894531 164.761719 296.667969 164.71875 C 296.890625 164.761719 297.117188 164.800781 297.34375 164.84375 Z M 296.425781 164.675781 C 296.207031 164.636719 295.984375 164.59375 295.761719 164.550781 C 295.984375 164.59375 296.207031 164.636719 296.425781 164.675781 Z M 295.488281 164.5 C 295.269531 164.460938 295.046875 164.417969 294.828125 164.378906 C 295.046875 164.417969 295.269531 164.460938 295.488281 164.5 Z M 294.589844 164.332031 C 294.347656 164.289062 294.105469 164.242188 293.867188 164.195312 C 294.105469 164.242188 294.347656 164.289062 294.589844 164.332031 Z M 293.691406 164.164062 C 292.484375 163.933594 291.292969 163.707031 290.175781 163.488281 C 291.292969 163.707031 292.484375 163.933594 293.691406 164.164062 Z M 289.898438 163.4375 C 289.695312 163.398438 289.496094 163.359375 289.296875 163.320312 C 289.496094 163.359375 289.699219 163.398438 289.898438 163.4375 Z M 289.175781 163.292969 C 288.945312 163.25 288.71875 163.207031 288.496094 163.164062 C 288.71875 163.207031 288.945312 163.25 289.175781 163.292969 Z M 303.53125 165.90625 C 303.671875 165.925781 303.808594 165.949219 303.941406 165.96875 C 303.808594 165.949219 303.671875 165.925781 303.53125 165.90625 Z M 304.199219 166.007812 C 304.328125 166.023438 304.453125 166.042969 304.574219 166.058594 C 304.453125 166.042969 304.328125 166.023438 304.199219 166.007812 Z M 304.800781 166.09375 C 304.933594 166.109375 305.058594 166.128906 305.183594 166.144531 C 305.058594 166.128906 304.933594 166.109375 304.800781 166.09375 Z M 305.351562 166.164062 C 305.527344 166.1875 305.691406 166.207031 305.84375 166.222656 C 305.691406 166.207031 305.527344 166.1875 305.351562 166.164062 Z M 303.804688 130.347656 C 303.839844 130.324219 303.871094 130.300781 303.902344 130.28125 C 303.871094 130.300781 303.839844 130.324219 303.804688 130.347656 Z M 303.179688 130.757812 C 303.230469 130.726562 303.277344 130.695312 303.324219 130.667969 C 303.277344 130.695312 303.230469 130.726562 303.179688 130.757812 Z M 303.417969 130.605469 C 303.460938 130.578125 303.5 130.550781 303.542969 130.523438 C 303.5 130.550781 303.460938 130.578125 303.417969 130.605469 Z M 303.628906 130.464844 C 303.664062 130.441406 303.699219 130.417969 303.734375 130.394531 C 303.699219 130.417969 303.664062 130.441406 303.628906 130.464844 Z M 303.152344 116.023438 C 303.148438 116.039062 303.144531 116.054688 303.140625 116.070312 C 302.792969 116.0625 301.816406 116.042969 300.574219 115.972656 C 302.066406 116.03125 303.152344 116.023438 303.152344 116.023438 Z M 301.066406 131.914062 C 300.960938 131.960938 300.859375 132.007812 300.75 132.054688 C 300.859375 132.007812 300.964844 131.960938 301.066406 131.914062 Z M 302.0625 131.417969 C 301.972656 131.46875 301.878906 131.515625 301.785156 131.566406 C 301.878906 131.515625 301.972656 131.46875 302.0625 131.417969 Z M 301.738281 131.589844 C 301.644531 131.636719 301.550781 131.683594 301.453125 131.730469 C 301.550781 131.683594 301.644531 131.636719 301.738281 131.589844 Z M 301.40625 131.753906 C 301.308594 131.800781 301.210938 131.847656 301.109375 131.894531 C 301.210938 131.847656 301.308594 131.800781 301.40625 131.753906 Z M 284.453125 140.738281 L 284.238281 140.035156 Z M 286.226562 162.714844 C 285.890625 162.648438 285.578125 162.585938 285.285156 162.527344 C 285.578125 162.585938 285.886719 162.648438 286.226562 162.714844 Z M 288.347656 163.132812 C 288.148438 163.09375 287.949219 163.054688 287.757812 163.015625 C 287.949219 163.054688 288.148438 163.09375 288.347656 163.132812 Z M 287.566406 162.980469 C 287.386719 162.945312 287.214844 162.910156 287.046875 162.878906 C 287.214844 162.910156 287.386719 162.945312 287.566406 162.980469 Z M 286.855469 162.839844 C 286.652344 162.800781 286.453125 162.761719 286.261719 162.722656 C 286.453125 162.757812 286.652344 162.800781 286.855469 162.839844 Z M 299.4375 177.464844 C 299.417969 177.460938 299.398438 177.460938 299.375 177.460938 C 299.398438 177.460938 299.417969 177.460938 299.4375 177.464844 Z M 298.230469 177.375 C 298.1875 177.371094 298.140625 177.367188 298.097656 177.363281 C 298.140625 177.367188 298.1875 177.371094 298.230469 177.375 Z M 297.027344 177.253906 C 296.96875 177.25 296.90625 177.242188 296.847656 177.234375 C 296.90625 177.242188 296.96875 177.25 297.027344 177.253906 Z M 295.839844 177.105469 C 295.773438 177.09375 295.703125 177.085938 295.636719 177.078125 C 295.703125 177.085938 295.773438 177.09375 295.839844 177.105469 Z M 294.679688 176.925781 C 294.605469 176.914062 294.53125 176.902344 294.457031 176.890625 C 294.53125 176.902344 294.605469 176.914062 294.679688 176.925781 Z M 293.546875 176.726562 C 293.472656 176.710938 293.394531 176.699219 293.320312 176.683594 C 293.394531 176.699219 293.472656 176.710938 293.546875 176.726562 Z M 290.382812 176.007812 C 290.304688 175.988281 290.230469 175.96875 290.152344 175.949219 C 290.230469 175.96875 290.304688 175.988281 290.382812 176.007812 Z M 289.414062 175.742188 C 289.335938 175.722656 289.261719 175.699219 289.1875 175.679688 C 289.261719 175.699219 289.335938 175.722656 289.414062 175.742188 Z M 288.488281 175.46875 C 288.414062 175.449219 288.34375 175.425781 288.269531 175.402344 C 288.34375 175.425781 288.414062 175.449219 288.488281 175.46875 Z M 287.609375 175.191406 C 287.542969 175.167969 287.472656 175.148438 287.40625 175.125 C 287.472656 175.148438 287.542969 175.167969 287.609375 175.191406 Z M 286.789062 174.914062 C 286.722656 174.890625 286.65625 174.867188 286.589844 174.84375 C 286.65625 174.867188 286.722656 174.890625 286.789062 174.914062 Z M 286.019531 174.640625 C 285.957031 174.617188 285.890625 174.59375 285.828125 174.570312 C 285.890625 174.59375 285.957031 174.617188 286.019531 174.640625 Z M 285.304688 174.371094 C 285.246094 174.347656 285.1875 174.328125 285.128906 174.304688 C 285.1875 174.324219 285.246094 174.347656 285.304688 174.371094 Z M 284.648438 174.113281 C 284.589844 174.089844 284.539062 174.070312 284.484375 174.046875 C 284.539062 174.070312 284.59375 174.089844 284.648438 174.113281 Z M 284.050781 173.867188 C 284 173.84375 283.953125 173.824219 283.902344 173.800781 C 283.953125 173.824219 284 173.84375 284.050781 173.867188 Z M 283.515625 173.636719 C 283.46875 173.617188 283.429688 173.597656 283.386719 173.578125 C 283.429688 173.597656 283.472656 173.617188 283.515625 173.636719 Z M 283.046875 173.425781 C 283.003906 173.40625 282.972656 173.390625 282.933594 173.371094 C 282.96875 173.390625 283.007812 173.40625 283.046875 173.425781 Z M 282.644531 173.238281 C 282.609375 173.222656 282.578125 173.207031 282.546875 173.191406 C 282.578125 173.207031 282.609375 173.222656 282.644531 173.238281 Z M 282.308594 173.078125 C 282.277344 173.0625 282.257812 173.050781 282.230469 173.039062 C 282.257812 173.050781 282.28125 173.0625 282.308594 173.078125 Z M 282.046875 172.949219 C 282.011719 172.929688 281.992188 172.917969 281.964844 172.90625 C 281.992188 172.917969 282.015625 172.929688 282.046875 172.949219 Z M 281.855469 172.851562 C 281.828125 172.835938 281.8125 172.828125 281.792969 172.816406 C 281.8125 172.828125 281.828125 172.835938 281.855469 172.851562 Z M 289.734375 265.980469 L 289.734375 250.828125 L 286.800781 250.828125 L 285.125 240.957031 L 288.21875 240.957031 L 279.035156 199.171875 C 284.191406 196.105469 288.421875 193.269531 291.902344 190.664062 L 291.03125 183.976562 L 292.597656 195.964844 C 292.613281 196.109375 292.738281 196.214844 292.878906 196.214844 C 292.890625 196.214844 292.902344 196.210938 292.917969 196.210938 C 292.941406 196.207031 292.960938 196.195312 292.984375 196.1875 L 294.304688 204.796875 L 306.703125 255.765625 L 310.25 255.765625 C 310.355469 256.898438 310.335938 258.050781 310.03125 258.910156 C 308.871094 262.203125 305.660156 262.132812 303.929688 262.496094 C 299.765625 263.367188 299.085938 265.980469 299.085938 265.980469 Z M 293.125 196.0625 C 293.121094 196.066406 293.121094 196.070312 293.117188 196.074219 C 293.121094 196.070312 293.121094 196.066406 293.125 196.0625 Z M 293.125 196.0625 " fill-opacity="1" fill-rule="nonzero"/></g><g clip-path="url(#ba5a2f301b)"><path fill="#f5f5f5" d="M 276.421875 65.273438 L 253.234375 65.273438 L 253.234375 58.632812 L 276.421875 58.632812 Z M 296.035156 71.605469 L 316.699219 71.605469 C 317.195312 71.605469 317.597656 71.203125 317.597656 70.707031 C 317.597656 70.210938 317.195312 69.808594 316.699219 69.808594 L 296.035156 69.808594 C 295.539062 69.808594 295.136719 70.210938 295.136719 70.707031 C 295.136719 71.203125 295.539062 71.605469 296.035156 71.605469 Z M 279.257812 67.34375 L 129.382812 67.34375 L 129.382812 157.421875 L 279.257812 157.421875 Z M 276.878906 265.980469 L 276.878906 250.828125 L 234.34375 250.828125 L 234.34375 281.808594 L 336.117188 281.808594 L 336.117188 265.980469 Z M 296.035156 76.996094 L 315.078125 76.996094 C 314.664062 77.851562 314.425781 78.804688 314.425781 79.820312 C 314.425781 83.40625 317.332031 86.316406 320.921875 86.316406 C 324.511719 86.316406 327.421875 83.40625 327.421875 79.820312 C 327.421875 76.230469 324.511719 73.320312 320.921875 73.320312 C 319.140625 73.320312 317.53125 74.039062 316.355469 75.199219 L 296.035156 75.199219 C 295.539062 75.199219 295.136719 75.601562 295.136719 76.097656 C 295.136719 76.59375 295.539062 76.996094 296.035156 76.996094 Z M 310.261719 60.824219 L 316.699219 60.824219 C 317.195312 60.824219 317.597656 60.421875 317.597656 59.921875 C 317.597656 59.425781 317.195312 59.023438 316.699219 59.023438 L 310.261719 59.023438 C 309.765625 59.023438 309.363281 59.425781 309.363281 59.921875 C 309.363281 60.421875 309.765625 60.824219 310.261719 60.824219 Z M 296.035156 66.214844 L 316.699219 66.214844 C 317.195312 66.214844 317.597656 65.8125 317.597656 65.316406 C 317.597656 64.820312 317.195312 64.414062 316.699219 64.414062 L 296.035156 64.414062 C 295.539062 64.414062 295.136719 64.816406 295.136719 65.316406 C 295.136719 65.8125 295.539062 66.214844 296.035156 66.214844 Z M 296.394531 60.835938 L 304.980469 60.835938 C 305.667969 60.835938 306.226562 60.277344 306.226562 59.585938 L 306.226562 52 C 306.226562 51.3125 305.667969 50.753906 304.980469 50.753906 L 296.394531 50.753906 C 295.703125 50.753906 295.144531 51.3125 295.144531 52 L 295.144531 59.589844 C 295.144531 60.277344 295.703125 60.835938 296.394531 60.835938 Z M 115.96875 237.441406 L 87.300781 237.441406 L 80.269531 194.152344 C 79.707031 190.992188 76.957031 188.6875 73.742188 188.6875 L 68.492188 188.6875 L 78.0625 246.359375 L 77.523438 246.359375 L 77.523438 282.335938 L 80.820312 282.335938 L 80.820312 246.359375 L 123.871094 246.359375 C 123.871094 241.433594 120.332031 237.441406 115.96875 237.441406 Z M 143.320312 211.703125 L 166.09375 211.703125 L 166.09375 210.8125 L 143.320312 210.8125 Z M 179.054688 167.210938 L 133.816406 167.210938 C 133.332031 167.210938 132.886719 167.605469 132.824219 168.09375 L 128.753906 199.859375 C 128.691406 200.347656 129.039062 200.738281 129.523438 200.738281 L 148.519531 200.738281 L 148.519531 209.601562 L 159.394531 209.601562 L 159.394531 200.738281 L 174.761719 200.738281 C 175.246094 200.738281 175.691406 200.34375 175.753906 199.859375 L 179.820312 168.09375 C 179.882812 167.605469 179.539062 167.210938 179.054688 167.210938 Z M 118.140625 133.136719 L 118.140625 95.613281 C 118.140625 94.375 117.136719 93.371094 115.902344 93.371094 L 65.210938 93.371094 C 63.972656 93.371094 62.96875 94.375 62.96875 95.613281 L 62.96875 133.136719 C 62.96875 134.375 63.972656 135.375 65.210938 135.375 L 115.902344 135.375 C 117.136719 135.378906 118.140625 134.375 118.140625 133.136719 Z M 201.238281 200.859375 C 199.289062 200.859375 197.707031 202.441406 197.707031 204.394531 C 197.707031 204.691406 197.746094 204.980469 197.816406 205.257812 L 204.65625 205.257812 C 204.726562 204.980469 204.769531 204.691406 204.769531 204.394531 C 204.769531 202.441406 203.1875 200.859375 201.238281 200.859375 Z M 98.558594 174.277344 L 99.457031 174.277344 C 101.246094 174.277344 102.695312 172.828125 102.695312 171.042969 C 102.695312 169.402344 101.472656 168.058594 99.886719 167.847656 L 99.886719 168.097656 C 101.011719 168.605469 101.792969 169.730469 101.792969 171.042969 C 101.792969 172.828125 100.34375 174.277344 98.558594 174.277344 Z M 113.460938 173.257812 C 114.007812 172.675781 114.347656 171.902344 114.347656 171.042969 C 114.347656 170.078125 113.917969 169.222656 113.253906 168.628906 Z M 112.679688 57.054688 C 112.824219 56.914062 112.824219 56.683594 112.679688 56.539062 L 109.273438 53.136719 L 112.679688 49.730469 C 112.824219 49.585938 112.824219 49.355469 112.679688 49.214844 C 112.539062 49.070312 112.304688 49.070312 112.164062 49.214844 L 108.242188 53.136719 L 112.164062 57.058594 C 112.234375 57.128906 112.328125 57.164062 112.421875 57.164062 C 112.515625 57.164062 112.609375 57.128906 112.679688 57.054688 Z M 125.390625 57.054688 L 129.3125 53.132812 L 125.390625 49.210938 C 125.25 49.070312 125.015625 49.070312 124.875 49.210938 C 124.730469 49.355469 124.730469 49.585938 124.875 49.726562 L 128.28125 53.132812 L 124.875 56.539062 C 124.730469 56.679688 124.730469 56.914062 124.875 57.054688 C 124.945312 57.125 125.039062 57.160156 125.132812 57.160156 C 125.226562 57.160156 125.320312 57.128906 125.390625 57.054688 Z M 117.566406 56.941406 L 120.65625 49.765625 C 120.738281 49.582031 120.652344 49.367188 120.46875 49.289062 C 120.28125 49.207031 120.066406 49.292969 119.988281 49.476562 L 116.898438 56.652344 C 116.816406 56.839844 116.902344 57.054688 117.089844 57.132812 C 117.136719 57.152344 117.183594 57.164062 117.234375 57.164062 C 117.375 57.164062 117.507812 57.082031 117.566406 56.941406 Z M 117.566406 56.941406 " fill-opacity="1" fill-rule="nonzero"/></g><g clip-path="url(#89a4ba472c)"><path fill="#e0e0e0" d="M 348.972656 265.980469 L 348.972656 281.808594 L 336.117188 281.808594 L 336.117188 265.980469 Z M 276.878906 265.980469 L 289.734375 265.980469 L 289.734375 250.828125 L 276.878906 250.828125 Z M 80.269531 194.152344 L 87.300781 237.441406 L 107.023438 237.441406 L 99.988281 194.152344 C 99.425781 190.992188 96.675781 188.6875 93.460938 188.6875 L 73.742188 188.6875 C 76.957031 188.6875 79.707031 190.992188 80.269531 194.152344 Z M 143.421875 221.5 C 144.503906 223.269531 144.96875 225.503906 144.796875 228.144531 L 143.316406 248.304688 L 143.316406 282.335938 L 138.503906 282.335938 L 138.503906 264.582031 L 125.757812 264.582031 L 125.757812 282.335938 L 120.945312 282.335938 L 120.945312 249.65625 L 98.382812 249.65625 L 98.382812 282.335938 L 93.570312 282.335938 L 93.570312 249.65625 L 78.933594 249.65625 L 78.933594 282.335938 L 76.007812 282.335938 L 76.007812 245.84375 L 66.59375 188.6875 L 69.894531 188.6875 L 79.394531 246.359375 L 123.867188 246.359375 C 123.867188 241.433594 120.332031 237.441406 115.96875 237.441406 L 125.472656 237.441406 C 125.46875 237.371094 125.492188 237.296875 125.539062 237.242188 L 129.089844 233.128906 C 129.195312 233.007812 129.375 232.996094 129.492188 233.097656 C 129.613281 233.199219 129.625 233.378906 129.523438 233.5 L 126.125 237.441406 L 135.417969 237.441406 C 139.089844 237.441406 142.167969 240.273438 143.050781 244.105469 L 144.226562 228.105469 C 144.390625 225.589844 143.953125 223.464844 142.9375 221.796875 C 142.855469 221.664062 142.898438 221.488281 143.03125 221.40625 C 143.164062 221.324219 143.339844 221.367188 143.421875 221.5 Z M 138.503906 264.011719 L 138.503906 249.65625 L 125.757812 249.65625 L 125.757812 264.011719 Z M 165.132812 264.011719 L 146.429688 264.011719 C 146.273438 264.011719 146.144531 264.140625 146.144531 264.296875 C 146.144531 264.453125 146.273438 264.582031 146.429688 264.582031 L 165.132812 264.582031 C 165.292969 264.582031 165.421875 264.453125 165.421875 264.296875 C 165.421875 264.140625 165.292969 264.011719 165.132812 264.011719 Z M 107.527344 217.164062 C 107.542969 217.167969 107.5625 217.167969 107.578125 217.167969 C 107.617188 217.167969 107.660156 217.15625 107.695312 217.140625 C 107.941406 217.117188 109.0625 217.054688 114.191406 217.023438 C 114.347656 217.019531 114.476562 216.890625 114.472656 216.734375 C 114.472656 216.578125 114.34375 216.449219 114.1875 216.449219 C 107.308594 216.5 107.308594 216.503906 107.28125 216.855469 C 107.269531 217 107.382812 217.136719 107.527344 217.164062 Z M 179.890625 167.210938 L 134.652344 167.210938 C 134.167969 167.210938 133.722656 167.605469 133.660156 168.09375 L 129.589844 199.859375 C 129.527344 200.347656 129.871094 200.738281 130.359375 200.738281 L 148.523438 200.738281 L 148.523438 189.917969 L 148.851562 187.9375 C 149.09375 186.476562 150.355469 185.40625 151.835938 185.40625 L 151.890625 185.40625 C 150.441406 185.40625 149.269531 186.578125 149.269531 188.027344 L 149.269531 209.488281 C 147.285156 209.773438 145.300781 210.214844 143.316406 210.8125 L 166.09375 210.8125 C 164.109375 210.214844 162.128906 209.773438 160.144531 209.488281 L 160.144531 200.742188 L 175.597656 200.742188 C 176.082031 200.742188 176.527344 200.347656 176.589844 199.859375 L 180.65625 168.09375 C 180.71875 167.605469 180.375 167.210938 179.890625 167.210938 Z M 195.175781 205.949219 C 195.175781 207.945312 193.757812 209.617188 191.882812 210.011719 L 191.777344 211.726562 L 184.574219 211.726562 L 183.859375 199.824219 L 192.496094 199.824219 L 192.363281 202.027344 C 193.996094 202.585938 195.175781 204.132812 195.175781 205.949219 Z M 194.070312 205.949219 C 194.070312 204.722656 193.339844 203.667969 192.292969 203.183594 L 191.949219 208.851562 C 193.179688 208.460938 194.070312 207.308594 194.070312 205.949219 Z M 204.730469 205.257812 L 197.742188 205.257812 C 197.527344 205.257812 197.363281 205.445312 197.390625 205.660156 L 197.589844 207.148438 C 197.609375 207.296875 197.71875 207.40625 197.855469 207.441406 L 198.425781 211.726562 L 204.050781 211.726562 L 204.621094 207.441406 C 204.757812 207.40625 204.867188 207.296875 204.886719 207.148438 L 205.085938 205.660156 C 205.113281 205.445312 204.945312 205.257812 204.730469 205.257812 Z M 241.84375 83.800781 L 274.542969 83.800781 L 274.542969 75.902344 L 241.84375 75.902344 Z M 322.609375 46.222656 L 322.609375 72.078125 C 322.066406 71.960938 321.5 71.894531 320.921875 71.894531 C 318.273438 71.894531 315.933594 73.199219 314.492188 75.199219 L 296.035156 75.199219 C 295.539062 75.199219 295.136719 75.601562 295.136719 76.097656 C 295.136719 76.59375 295.539062 76.996094 296.035156 76.996094 L 313.523438 76.996094 C 313.1875 77.875 312.996094 78.824219 312.996094 79.820312 C 312.996094 81.296875 313.410156 82.675781 314.113281 83.859375 L 292.660156 83.859375 C 291.28125 83.859375 290.164062 82.742188 290.164062 81.363281 L 290.164062 46.222656 C 290.164062 44.84375 291.28125 43.726562 292.660156 43.726562 L 320.113281 43.726562 C 321.492188 43.726562 322.609375 44.84375 322.609375 46.222656 Z M 295.144531 59.589844 C 295.144531 60.277344 295.703125 60.835938 296.394531 60.835938 L 304.980469 60.835938 C 305.667969 60.835938 306.226562 60.277344 306.226562 59.589844 L 306.226562 52 C 306.226562 51.3125 305.667969 50.753906 304.980469 50.753906 L 296.394531 50.753906 C 295.703125 50.753906 295.144531 51.3125 295.144531 52 Z M 317.597656 70.707031 C 317.597656 70.210938 317.195312 69.808594 316.699219 69.808594 L 296.035156 69.808594 C 295.539062 69.808594 295.136719 70.210938 295.136719 70.707031 C 295.136719 71.203125 295.539062 71.605469 296.035156 71.605469 L 316.699219 71.605469 C 317.195312 71.605469 317.597656 71.203125 317.597656 70.707031 Z M 317.597656 65.316406 C 317.597656 64.820312 317.195312 64.417969 316.699219 64.417969 L 296.035156 64.417969 C 295.539062 64.417969 295.136719 64.820312 295.136719 65.316406 C 295.136719 65.8125 295.539062 66.214844 296.035156 66.214844 L 316.699219 66.214844 C 317.195312 66.214844 317.597656 65.8125 317.597656 65.316406 Z M 317.597656 59.925781 C 317.597656 59.429688 317.195312 59.027344 316.699219 59.027344 L 310.261719 59.027344 C 309.765625 59.027344 309.363281 59.425781 309.363281 59.925781 C 309.363281 60.421875 309.765625 60.824219 310.261719 60.824219 L 316.699219 60.824219 C 317.195312 60.824219 317.597656 60.421875 317.597656 59.925781 Z M 179.960938 77.660156 L 179.085938 77.660156 L 179.085938 102.890625 L 174.695312 102.890625 L 174.695312 85.996094 L 170.964844 85.996094 L 170.964844 102.890625 L 166.136719 102.890625 L 166.136719 90.933594 L 162.40625 90.933594 L 162.40625 102.890625 L 157.578125 102.890625 L 157.578125 82.816406 L 153.847656 82.816406 L 153.847656 102.890625 L 141.339844 102.890625 L 141.339844 103.769531 L 179.960938 103.769531 Z M 279.257812 67.34375 L 129.382812 67.34375 L 129.382812 55.605469 L 279.257812 55.605469 Z M 260.609375 61.53125 C 260.609375 60.4375 259.722656 59.554688 258.632812 59.554688 C 257.542969 59.554688 256.65625 60.4375 256.65625 61.53125 C 256.65625 62.621094 257.542969 63.503906 258.632812 63.503906 C 259.722656 63.503906 260.609375 62.621094 260.609375 61.53125 Z M 267.191406 61.53125 C 267.191406 60.4375 266.304688 59.554688 265.214844 59.554688 C 264.125 59.554688 263.242188 60.4375 263.242188 61.53125 C 263.242188 62.621094 264.125 63.503906 265.214844 63.503906 C 266.304688 63.503906 267.191406 62.621094 267.191406 61.53125 Z M 273.773438 61.53125 C 273.773438 60.4375 272.890625 59.554688 271.796875 59.554688 C 270.707031 59.554688 269.824219 60.4375 269.824219 61.53125 C 269.824219 62.621094 270.707031 63.503906 271.796875 63.503906 C 272.890625 63.503906 273.773438 62.621094 273.773438 61.53125 Z M 170.195312 118.691406 L 164.820312 118.691406 L 164.820312 117.703125 C 164.820312 117.21875 164.425781 116.824219 163.941406 116.824219 C 163.457031 116.824219 163.066406 117.21875 163.066406 117.703125 L 163.066406 118.691406 L 142.765625 118.691406 L 142.765625 119.570312 L 163.066406 119.570312 L 163.066406 120.558594 C 163.066406 121.042969 163.457031 121.433594 163.941406 121.433594 C 164.425781 121.433594 164.820312 121.042969 164.820312 120.558594 L 164.820312 119.570312 L 170.195312 119.570312 Z M 170.195312 128.785156 L 142.765625 128.785156 L 142.765625 129.664062 L 170.195312 129.664062 Z M 159.117188 141.621094 C 159.601562 141.621094 159.992188 141.226562 159.992188 140.742188 L 159.992188 139.757812 L 170.199219 139.757812 L 170.199219 138.878906 L 159.992188 138.878906 L 159.992188 137.890625 C 159.992188 137.40625 159.601562 137.011719 159.117188 137.011719 C 158.628906 137.011719 158.238281 137.40625 158.238281 137.890625 L 158.238281 138.878906 L 142.765625 138.878906 L 142.765625 139.757812 L 158.238281 139.757812 L 158.238281 140.742188 C 158.238281 141.226562 158.628906 141.621094 159.117188 141.621094 Z M 118.140625 95.613281 C 118.140625 94.375 117.136719 93.371094 115.902344 93.371094 L 65.210938 93.371094 C 63.972656 93.371094 62.96875 94.375 62.96875 95.613281 L 62.96875 99.183594 L 118.140625 99.183594 Z M 241.953125 108.597656 L 274.542969 108.597656 L 274.542969 106.84375 L 241.953125 106.84375 Z M 243.269531 126.042969 L 248.0625 126.042969 L 248.0625 121.433594 L 243.269531 121.433594 Z M 241.953125 103.988281 L 274.542969 103.988281 L 274.542969 102.234375 L 241.953125 102.234375 Z M 189.617188 78.976562 L 226.921875 78.976562 L 226.921875 102.671875 L 189.617188 102.671875 Z M 221.875 83.941406 L 226.046875 83.941406 L 226.046875 79.851562 L 221.875 79.851562 Z M 221.875 89.507812 L 226.046875 89.507812 L 226.046875 84.816406 L 221.875 84.816406 Z M 221.875 95.871094 L 226.046875 95.871094 L 226.046875 90.386719 L 221.875 90.386719 Z M 221.875 101.796875 L 226.046875 101.796875 L 226.046875 96.75 L 221.875 96.75 Z M 216.390625 83.941406 L 220.996094 83.941406 L 220.996094 79.851562 L 216.390625 79.851562 Z M 216.390625 89.507812 L 220.996094 89.507812 L 220.996094 84.816406 L 216.390625 84.816406 Z M 216.390625 95.871094 L 220.996094 95.871094 L 220.996094 90.386719 L 216.390625 90.386719 Z M 216.390625 101.796875 L 220.996094 101.796875 L 220.996094 96.75 L 216.390625 96.75 Z M 211.121094 83.941406 L 215.511719 83.941406 L 215.511719 79.851562 L 211.121094 79.851562 Z M 211.121094 89.507812 L 215.511719 89.507812 L 215.511719 84.816406 L 211.121094 84.816406 Z M 211.121094 95.871094 L 215.511719 95.871094 L 215.511719 90.386719 L 211.121094 90.386719 Z M 211.121094 101.796875 L 215.511719 101.796875 L 215.511719 96.75 L 211.121094 96.75 Z M 205.636719 83.941406 L 210.246094 83.941406 L 210.246094 79.851562 L 205.636719 79.851562 Z M 205.636719 89.507812 L 210.246094 89.507812 L 210.246094 84.816406 L 205.636719 84.816406 Z M 205.636719 95.871094 L 210.246094 95.871094 L 210.246094 90.386719 L 205.636719 90.386719 Z M 205.636719 101.796875 L 210.246094 101.796875 L 210.246094 96.75 L 205.636719 96.75 Z M 199.929688 83.941406 L 204.757812 83.941406 L 204.757812 79.851562 L 199.929688 79.851562 Z M 199.929688 89.507812 L 204.757812 89.507812 L 204.757812 84.816406 L 199.929688 84.816406 Z M 199.929688 95.871094 L 204.757812 95.871094 L 204.757812 90.386719 L 199.929688 90.386719 Z M 199.929688 101.796875 L 204.757812 101.796875 L 204.757812 96.75 L 199.929688 96.75 Z M 194.445312 83.941406 L 199.054688 83.941406 L 199.054688 79.851562 L 194.445312 79.851562 Z M 194.445312 89.507812 L 199.054688 89.507812 L 199.054688 84.816406 L 194.445312 84.816406 Z M 194.445312 95.871094 L 199.054688 95.871094 L 199.054688 90.386719 L 194.445312 90.386719 Z M 194.445312 101.796875 L 199.054688 101.796875 L 199.054688 96.75 L 194.445312 96.75 Z M 190.496094 83.941406 L 193.566406 83.941406 L 193.566406 79.851562 L 190.496094 79.851562 Z M 190.496094 89.507812 L 193.566406 89.507812 L 193.566406 84.816406 L 190.496094 84.816406 Z M 190.496094 95.871094 L 193.566406 95.871094 L 193.566406 90.386719 L 190.496094 90.386719 Z M 190.496094 101.796875 L 193.566406 101.796875 L 193.566406 96.75 L 190.496094 96.75 Z M 243.269531 132.625 L 248.0625 132.625 L 248.0625 128.015625 L 243.269531 128.015625 Z M 241.953125 99.382812 L 274.542969 99.382812 L 274.542969 97.625 L 241.953125 97.625 Z M 234.714844 148.421875 L 235.589844 148.421875 L 235.589844 76.011719 L 234.714844 76.011719 Z M 113.578125 120.710938 L 67.507812 120.710938 L 67.507812 102.59375 L 113.578125 102.59375 Z M 75.078125 112.34375 L 71.90625 112.34375 L 71.90625 117.339844 L 75.078125 117.339844 Z M 81.457031 109.175781 L 78.285156 109.175781 L 78.285156 117.339844 L 81.457031 117.339844 Z M 94.222656 105.761719 L 91.054688 105.761719 L 91.054688 117.339844 L 94.222656 117.339844 Z M 101.566406 111.652344 C 101.566406 110.914062 100.964844 110.3125 100.226562 110.3125 C 99.484375 110.3125 98.882812 110.910156 98.882812 111.652344 C 98.882812 112.394531 99.484375 112.992188 100.226562 112.992188 C 100.964844 112.992188 101.566406 112.394531 101.566406 111.652344 Z M 101.566406 107.632812 C 101.566406 106.890625 100.964844 106.289062 100.226562 106.289062 C 99.484375 106.289062 98.882812 106.890625 98.882812 107.632812 C 98.882812 108.371094 99.484375 108.972656 100.226562 108.972656 C 100.964844 108.972656 101.566406 108.371094 101.566406 107.632812 Z M 108.980469 111.183594 L 102.765625 111.183594 L 102.765625 112.082031 L 108.980469 112.082031 Z M 109.042969 107.183594 L 102.824219 107.183594 L 102.824219 108.078125 L 109.042969 108.078125 Z M 67.507812 131.152344 L 81.644531 131.152344 L 81.644531 122.945312 L 67.507812 122.945312 Z M 214.449219 117.28125 L 210.355469 132.40625 L 201.546875 127.832031 L 209.898438 132.167969 L 210.136719 132.40625 L 194.449219 132.40625 C 194.445312 132.441406 194.445312 132.476562 194.445312 132.515625 C 194.445312 141.238281 201.519531 148.3125 210.246094 148.3125 C 218.972656 148.3125 226.046875 141.238281 226.046875 132.515625 C 226.046875 125.246094 221.132812 119.121094 214.449219 117.28125 Z M 113.578125 122.945312 L 99.441406 122.945312 L 99.441406 131.152344 L 113.578125 131.152344 Z M 97.628906 131.152344 L 97.628906 122.945312 L 83.492188 122.945312 L 83.492188 131.152344 Z M 261.59375 90.164062 L 274.542969 90.164062 L 274.542969 88.410156 L 261.59375 88.410156 Z M 241.953125 94.773438 L 274.542969 94.773438 L 274.542969 93.019531 L 241.953125 93.019531 Z M 291.277344 183.65625 C 291.121094 183.675781 291.011719 183.820312 291.03125 183.976562 L 292.59375 195.964844 C 292.613281 196.109375 292.738281 196.214844 292.878906 196.214844 C 292.890625 196.214844 292.902344 196.214844 292.914062 196.210938 C 293.070312 196.191406 293.183594 196.046875 293.160156 195.890625 L 291.597656 183.902344 C 291.578125 183.746094 291.433594 183.632812 291.277344 183.65625 Z M 112.546875 162.425781 C 112.414062 162.910156 112.234375 163.351562 112 163.742188 C 112.128906 163.527344 112.246094 163.296875 112.34375 163.054688 C 112.546875 163.460938 112.710938 163.886719 112.839844 164.332031 C 112.835938 163.667969 112.734375 163.027344 112.546875 162.425781 Z M 106.359375 157.878906 L 103.703125 157.878906 C 100.125 157.878906 97.222656 160.777344 97.222656 164.355469 L 97.222656 168.097656 C 96.101562 168.605469 95.320312 169.730469 95.320312 171.042969 C 95.320312 172.828125 96.769531 174.277344 98.554688 174.277344 C 100.34375 174.277344 101.792969 172.828125 101.792969 171.042969 C 101.792969 169.730469 101.007812 168.605469 99.886719 168.097656 L 99.886719 163.628906 C 99.886719 160.839844 102.152344 158.527344 104.945312 158.527344 L 105.121094 158.527344 L 105.121094 158.535156 C 107.835938 158.4375 110.542969 159.601562 112.339844 161.863281 C 111.363281 159.523438 109.054688 157.878906 106.359375 157.878906 Z M 106.359375 157.878906 " fill-opacity="1" fill-rule="nonzero"/></g><path fill="#f5c0a2" d="M 238.328125 46.898438 C 238.316406 46.976562 238.320312 47.046875 238.304688 47.128906 L 238.953125 55.714844 L 231.007812 55.714844 L 231.515625 47.21875 C 231.355469 47.089844 231.195312 46.957031 231.046875 46.808594 C 228.546875 44.320312 228.308594 41.46875 227.671875 39.640625 C 227.394531 38.839844 227.320312 38.644531 227.722656 38.457031 C 228.171875 38.25 229.097656 38.457031 230.039062 39.988281 C 230.265625 40.359375 230.574219 40.902344 230.792969 41.304688 C 230.792969 41.304688 230.871094 34.507812 230.828125 33.0625 C 230.78125 31.617188 232.511719 31.535156 232.679688 32.695312 C 232.777344 33.402344 232.925781 35.082031 233.046875 36.589844 L 233.492188 32.226562 C 233.734375 31.078125 235.257812 31.183594 235.351562 32.175781 C 235.363281 32.316406 235.367188 32.5 235.371094 32.660156 C 235.355469 32.738281 235.347656 32.816406 235.351562 32.910156 C 235.359375 33.121094 235.371094 32.929688 235.371094 32.660156 C 235.53125 31.679688 236.863281 31.839844 236.992188 32.773438 C 237.105469 33.542969 237.265625 35.855469 237.367188 37.464844 C 237.46875 36.164062 237.554688 35.316406 237.554688 34.589844 C 237.554688 33.152344 239 33.285156 239.070312 34.320312 C 239.160156 35.578125 239.261719 41.164062 239.101562 44.582031 C 239.054688 45.535156 238.765625 46.296875 238.328125 46.898438 Z M 212.964844 30.292969 C 212.488281 30.25 212.152344 31.277344 211.929688 32.304688 C 211.832031 32.25 211.722656 32.210938 211.597656 32.210938 C 211.597656 32.210938 211.121094 28.46875 212.042969 24.667969 C 211.234375 25.46875 208.277344 25.730469 206.140625 25.203125 C 203.53125 24.558594 202.015625 23.648438 200.296875 23.851562 C 199.222656 27.175781 199.1875 30.378906 199.1875 30.378906 L 199.265625 34.84375 C 199.300781 36.867188 200.300781 38.691406 201.835938 39.800781 L 201.800781 43.882812 C 201.988281 46.566406 204.457031 48.585938 207.3125 48.394531 C 210.167969 48.199219 212.09375 45.824219 211.910156 43.140625 L 211.351562 35.773438 L 211.683594 34.769531 C 211.824219 35.113281 212.15625 35.328125 212.515625 35.238281 C 213.589844 34.964844 214.355469 34.089844 214.449219 32.992188 C 214.566406 31.578125 213.902344 30.371094 212.964844 30.292969 Z M 148.332031 207.402344 L 148.265625 209.640625 L 146.0625 210.125 C 145.972656 210.042969 145.882812 209.964844 145.796875 209.886719 L 145.933594 210.152344 L 142.335938 210.9375 L 142.289062 211.761719 L 137.078125 211.761719 L 137.089844 211.738281 L 137.078125 211.738281 C 136.78125 211.738281 136.484375 211.691406 136.195312 211.605469 C 135.875 211.726562 135.363281 211.738281 134.800781 211.28125 C 134.589844 211.109375 134.296875 210.855469 133.984375 210.578125 L 134.007812 210.628906 C 134.148438 211.0625 134.304688 211.359375 133.945312 211.597656 C 133.710938 211.75 133.042969 211.863281 132.445312 211.160156 C 132.15625 210.816406 131.675781 210.195312 131.253906 209.648438 L 131.578125 210.785156 C 131.625 211.203125 131.710938 211.5 131.339844 211.648438 C 131.101562 211.742188 130.480469 211.722656 130.070312 210.976562 C 129.941406 210.746094 129.761719 210.390625 129.578125 210.019531 C 127.925781 210.851562 125.984375 211.738281 125.152344 211.738281 L 122.503906 211.738281 C 120.890625 211.738281 119.203125 210.371094 119.203125 208.757812 C 119.203125 207.304688 120.273438 206.070312 121.714844 205.863281 L 129.390625 204.820312 C 129.828125 204.757812 130.25 204.84375 130.636719 205.035156 C 130.652344 205.042969 130.664062 205.054688 130.679688 205.0625 L 134.617188 206.722656 C 135.054688 206.273438 135.625 205.957031 136.285156 205.863281 L 141.980469 204.820312 C 142.417969 204.757812 142.832031 204.867188 143.226562 205.035156 C 143.265625 205.054688 143.304688 205.074219 143.339844 205.09375 L 147.667969 206.917969 C 147.726562 206.941406 147.785156 206.960938 147.839844 206.992188 C 148 207.070312 148.140625 207.179688 148.25 207.320312 C 148.277344 207.347656 148.308594 207.371094 148.332031 207.402344 Z M 143.347656 209.546875 C 143.335938 209.53125 143.324219 209.515625 143.3125 209.503906 L 143.324219 209.542969 C 143.332031 209.542969 143.339844 209.542969 143.347656 209.546875 Z M 113.496094 173.960938 L 113.136719 166.082031 C 113.085938 164.992188 112.804688 163.972656 112.34375 163.054688 C 110.746094 166.921875 105.152344 167.167969 101.914062 167.179688 C 101.929688 167.636719 101.9375 168.257812 101.902344 168.941406 C 102.390625 169.507812 102.695312 170.238281 102.695312 171.042969 C 102.695312 172.457031 101.78125 173.648438 100.519531 174.085938 L 101.105469 175.5625 L 100.839844 178.867188 C 100.640625 181.203125 103.996094 183.460938 106.109375 183.460938 C 108.640625 183.460938 109.429688 182.09375 109.679688 179.980469 C 112.144531 178.949219 113.605469 176.496094 113.496094 173.960938 Z M 271.316406 157.683594 C 271.316406 157.808594 271.351562 157.9375 271.433594 158.050781 C 271.714844 158.441406 272.09375 158.753906 272.53125 158.949219 L 278.460938 161.644531 C 279.105469 161.941406 279.808594 162.089844 280.515625 162.089844 L 283.089844 162.089844 C 283.105469 162.089844 283.117188 162.089844 283.132812 162.097656 C 283.785156 162.226562 300.691406 165.652344 305.84375 166.222656 C 309.976562 166.683594 311.265625 162.070312 311.265625 162.070312 L 314.082031 151.757812 L 314.304688 150.957031 L 304.890625 149.351562 L 304.496094 151.273438 L 303.355469 156.867188 C 303.332031 156.96875 303.242188 157.042969 303.140625 157.042969 L 271.949219 157.046875 C 271.574219 157.046875 271.316406 157.355469 271.316406 157.683594 Z M 296.042969 127.0625 L 296.039062 127.085938 L 296.035156 127.101562 L 295.640625 128.71875 L 295.238281 130.355469 C 296.476562 135.34375 302.921875 130.984375 304.035156 130.1875 L 304.050781 126.03125 L 304.054688 124.25 C 304.054688 124.25 304.382812 124.359375 304.824219 124.320312 C 305.183594 124.289062 305.617188 124.160156 306.015625 123.8125 C 307.003906 122.945312 307.78125 121.5625 306.703125 120.421875 C 306.703125 120.421875 306.699219 120.417969 306.699219 120.417969 C 306.695312 120.414062 306.691406 120.414062 306.691406 120.410156 C 306.472656 120.242188 305.078125 119.285156 304.167969 121.507812 C 304.167969 121.507812 303.179688 120.820312 303.03125 119.984375 C 302.878906 119.144531 302.703125 118.71875 303.292969 116.070312 C 303.292969 116.070312 297.863281 116.03125 294.617188 115.195312 C 293.382812 118.742188 291.089844 126.886719 296.042969 127.0625 Z M 180.945312 53.78125 C 181.007812 52.6875 181.03125 52.417969 180.496094 52.304688 C 179.898438 52.179688 178.683594 52.867188 178.085938 55.085938 C 178.039062 55.261719 177.988281 55.4375 177.941406 55.605469 L 180.976562 55.605469 C 180.941406 54.964844 180.914062 54.355469 180.945312 53.78125 Z M 176.25 53.109375 C 176.246094 53.105469 176.246094 53.101562 176.242188 53.097656 C 176.242188 53.09375 176.242188 53.089844 176.242188 53.089844 L 176.238281 53.089844 C 176.074219 52.699219 175.738281 52.394531 175.289062 52.3125 C 174.546875 52.179688 173.863281 52.695312 173.765625 53.425781 L 173 53.527344 C 172.992188 53.320312 172.980469 53.148438 172.96875 53.042969 C 172.898438 52.304688 172.289062 51.742188 171.550781 51.808594 C 170.847656 51.867188 170.335938 52.472656 170.363281 53.15625 C 170.113281 52.570312 169.503906 52.214844 168.867188 52.371094 C 168.304688 52.507812 167.929688 52.988281 167.886719 53.519531 C 167.589844 53.167969 167.125 52.996094 166.65625 53.140625 C 165.976562 53.34375 165.636719 54.101562 165.929688 54.746094 L 166.949219 56.582031 C 167.394531 57.730469 168.996094 57.28125 168.667969 55.855469 L 168.980469 56.644531 C 169.386719 57.886719 171.074219 57.558594 170.941406 56.101562 L 171.042969 56.597656 C 171.265625 57.976562 173.1875 57.828125 173.085938 56.113281 C 173.085938 56.113281 173.082031 55.910156 173.074219 55.605469 L 173.648438 55.605469 L 173.617188 56.261719 C 173.46875 57.648438 175.359375 58.015625 175.71875 56.335938 C 175.71875 56.335938 175.804688 56.019531 175.914062 55.605469 L 177.136719 55.605469 C 176.660156 54.203125 176.289062 53.214844 176.25 53.109375 Z M 176.25 53.109375 " fill-opacity="1" fill-rule="evenodd"/><g clip-path="url(#f9acbaf295)"><path fill="#26b1d8" d="M 84.671875 105.761719 L 87.839844 105.761719 L 87.839844 117.339844 L 84.671875 117.339844 Z M 138.257812 278.789062 C 136.035156 277.710938 133.355469 276.34375 131.65625 273.914062 C 131.066406 273.070312 130.714844 272.523438 130.503906 272.160156 L 120.921875 272.160156 C 120.308594 276.152344 119.300781 278.175781 120.34375 282.335938 L 140.53125 282.335938 C 140.53125 282.335938 141.007812 280.113281 138.257812 278.789062 Z M 124.027344 211.761719 L 136.632812 211.765625 C 136.792969 211.761719 136.941406 211.753906 137.085938 211.738281 L 137.078125 211.738281 C 136.78125 211.738281 136.488281 211.691406 136.199219 211.605469 C 135.875 211.726562 135.363281 211.738281 134.800781 211.28125 C 134.589844 211.109375 134.296875 210.855469 133.984375 210.578125 L 134.011719 210.628906 C 134.152344 211.0625 134.304688 211.359375 133.945312 211.597656 C 133.710938 211.75 133.046875 211.863281 132.449219 211.160156 C 132.15625 210.816406 131.675781 210.195312 131.253906 209.648438 L 131.578125 210.785156 C 131.625 211.203125 131.710938 211.5 131.34375 211.648438 C 131.105469 211.742188 130.480469 211.722656 130.074219 210.976562 C 129.945312 210.746094 129.765625 210.390625 129.578125 210.019531 C 127.929688 210.851562 125.984375 211.738281 125.152344 211.738281 L 122.503906 211.738281 C 120.890625 211.738281 119.207031 210.371094 119.207031 208.757812 C 119.207031 207.304688 120.277344 206.070312 121.714844 205.863281 L 129.390625 204.820312 C 129.832031 204.757812 130.253906 204.84375 130.636719 205.035156 C 130.652344 205.042969 130.667969 205.054688 130.683594 205.0625 L 134.617188 206.722656 C 135.054688 206.273438 135.628906 205.957031 136.289062 205.863281 L 137.3125 205.675781 C 137.039062 205.574219 136.753906 205.492188 136.453125 205.460938 L 120.292969 202.925781 L 114.65625 187.644531 C 114.546875 187.339844 114.410156 187.0625 114.257812 186.796875 C 113.8125 185.398438 112.820312 183.960938 110.601562 183.578125 C 110.226562 183.511719 109.867188 183.449219 109.519531 183.390625 L 109.738281 179.953125 C 109.71875 179.960938 109.699219 179.972656 109.679688 179.980469 C 109.429688 182.09375 108.640625 183.457031 106.109375 183.457031 C 103.996094 183.457031 100.640625 181.203125 100.839844 178.867188 L 100.851562 178.726562 L 100.179688 182.9375 C 98.503906 183.191406 96.605469 183.65625 94.121094 184.398438 C 91.375 185.21875 89.355469 187.570312 89.363281 191.125 C 89.378906 199.738281 91.449219 207.515625 93.960938 213.339844 C 95.1875 216.183594 110.066406 215.003906 111.042969 213.039062 C 111.210938 212.703125 111.363281 212.363281 111.519531 212.023438 L 123.246094 211.863281 C 123.527344 211.859375 123.785156 211.820312 124.027344 211.761719 Z M 102.824219 116.121094 L 109.042969 116.121094 L 109.042969 115.226562 L 102.824219 115.226562 Z M 100.476562 58.355469 L 100.476562 47.414062 C 100.476562 44.929688 102.488281 42.917969 104.972656 42.917969 L 132.582031 42.917969 C 135.066406 42.917969 137.078125 44.929688 137.078125 47.414062 L 137.078125 58.355469 C 137.078125 60.839844 135.066406 62.855469 132.582031 62.855469 L 104.972656 62.855469 C 102.488281 62.855469 100.476562 60.839844 100.476562 58.355469 Z M 128.28125 53.132812 L 124.875 56.539062 C 124.730469 56.683594 124.730469 56.914062 124.875 57.054688 C 124.945312 57.125 125.039062 57.164062 125.132812 57.164062 C 125.226562 57.164062 125.320312 57.125 125.390625 57.054688 L 129.3125 53.132812 L 125.390625 49.210938 C 125.25 49.070312 125.015625 49.070312 124.875 49.210938 C 124.730469 49.355469 124.730469 49.585938 124.875 49.726562 Z M 117.089844 57.132812 C 117.136719 57.152344 117.183594 57.164062 117.234375 57.164062 C 117.375 57.164062 117.507812 57.082031 117.566406 56.941406 L 120.65625 49.765625 C 120.738281 49.582031 120.652344 49.367188 120.46875 49.289062 C 120.28125 49.207031 120.066406 49.292969 119.988281 49.476562 L 116.898438 56.652344 C 116.816406 56.839844 116.902344 57.054688 117.089844 57.132812 Z M 108.242188 53.132812 L 112.164062 57.054688 C 112.234375 57.128906 112.328125 57.164062 112.421875 57.164062 C 112.515625 57.164062 112.609375 57.128906 112.679688 57.054688 C 112.824219 56.914062 112.824219 56.683594 112.679688 56.539062 L 109.273438 53.136719 L 112.679688 49.730469 C 112.824219 49.585938 112.824219 49.355469 112.679688 49.214844 C 112.539062 49.070312 112.304688 49.070312 112.164062 49.214844 Z M 310.261719 55.433594 L 316.699219 55.433594 C 317.195312 55.433594 317.597656 55.03125 317.597656 54.535156 C 317.597656 54.039062 317.195312 53.632812 316.699219 53.632812 L 310.261719 53.632812 C 309.765625 53.632812 309.363281 54.035156 309.363281 54.535156 C 309.363281 55.03125 309.765625 55.433594 310.261719 55.433594 Z M 100.226562 117.015625 C 100.964844 117.015625 101.566406 116.414062 101.566406 115.675781 C 101.566406 114.933594 100.964844 114.332031 100.226562 114.332031 C 99.484375 114.332031 98.882812 114.933594 98.882812 115.675781 C 98.882812 116.414062 99.484375 117.015625 100.226562 117.015625 Z M 145.289062 103.332031 L 149.023438 103.332031 L 149.023438 97.515625 L 145.289062 97.515625 Z M 199.078125 121.351562 L 199.074219 121.347656 C 199.039062 121.382812 199.007812 121.421875 198.972656 121.457031 C 199.007812 121.421875 199.042969 121.386719 199.078125 121.351562 Z M 304.203125 130.0625 C 304.203125 130.0625 296.316406 136.03125 295.167969 130.0625 C 295.167969 130.0625 291.574219 131.210938 287.429688 133.535156 C 286.609375 133.996094 286.09375 134.867188 285.84375 135.777344 L 284.453125 140.738281 L 284.238281 140.035156 C 284.117188 139.628906 283.746094 139.355469 283.324219 139.355469 L 259.183594 139.355469 C 258.539062 139.355469 258.082031 139.972656 258.265625 140.589844 L 263.097656 156.523438 C 263.21875 156.925781 263.589844 157.199219 264.011719 157.199219 L 271.550781 157.199219 C 271.65625 157.109375 271.789062 157.046875 271.949219 157.046875 L 303.140625 157.039062 C 303.246094 157.039062 303.332031 156.964844 303.355469 156.867188 L 304.5 151.269531 L 304.890625 149.347656 L 314.304688 150.957031 L 316.460938 143.496094 C 317.003906 141.617188 316.53125 139.589844 315.210938 138.148438 C 313.191406 135.941406 309.230469 133.460938 304.203125 130.0625 Z M 311.265625 162.070312 C 311.265625 162.070312 309.976562 166.683594 305.84375 166.222656 C 301.234375 165.714844 287.226562 162.917969 283.855469 162.242188 L 283.703125 163.054688 L 281.699219 172.769531 C 281.699219 172.769531 295.9375 180.574219 312.007812 176.210938 C 312.007812 176.210938 312.484375 166.820312 312.703125 164.15625 C 312.976562 160.84375 314.304688 150.960938 314.304688 150.957031 L 314.085938 151.757812 Z M 243.269531 139.207031 L 248.0625 139.207031 L 248.0625 134.601562 L 243.269531 134.601562 Z M 323.484375 77.355469 L 319.921875 80.675781 L 318.371094 79.179688 C 318.113281 78.933594 317.703125 78.9375 317.453125 79.195312 C 317.207031 79.453125 317.214844 79.863281 317.472656 80.113281 L 319.90625 82.460938 L 324.363281 78.300781 C 324.625 78.058594 324.640625 77.648438 324.394531 77.386719 C 324.152344 77.125 323.742188 77.109375 323.484375 77.355469 Z M 328.847656 79.820312 C 328.847656 84.195312 325.300781 87.746094 320.921875 87.746094 C 316.546875 87.746094 312.996094 84.195312 312.996094 79.820312 C 312.996094 75.441406 316.546875 71.894531 320.921875 71.894531 C 325.296875 71.894531 328.847656 75.441406 328.847656 79.820312 Z M 327.421875 79.820312 C 327.421875 76.230469 324.511719 73.320312 320.921875 73.320312 C 317.332031 73.320312 314.421875 76.230469 314.421875 79.820312 C 314.421875 83.40625 317.332031 86.316406 320.921875 86.316406 C 324.511719 86.316406 327.421875 83.410156 327.421875 79.820312 Z M 150.777344 126.921875 C 150.292969 126.921875 149.898438 127.3125 149.898438 127.796875 L 149.898438 130.652344 C 149.898438 131.136719 150.292969 131.527344 150.777344 131.527344 C 151.261719 131.527344 151.65625 131.136719 151.65625 130.652344 L 151.65625 127.796875 C 151.65625 127.3125 151.261719 126.921875 150.777344 126.921875 Z M 175.414062 278.789062 C 173.1875 277.710938 169.960938 276.1875 168.058594 273.914062 C 167.949219 273.78125 167.851562 273.652344 167.753906 273.519531 L 166.304688 282.335938 L 161.863281 282.335938 L 163.503906 272.160156 L 157.378906 272.160156 C 157.824219 276.683594 156.453125 278.167969 157.496094 282.335938 L 177.683594 282.335938 C 177.683594 282.335938 178.160156 280.113281 175.414062 278.789062 Z M 226.898438 50.195312 C 226.644531 48.167969 225.355469 46.53125 223.628906 45.738281 C 223.628906 45.730469 223.632812 45.710938 223.632812 45.710938 C 219.628906 43.984375 215.71875 42.851562 211.84375 42.292969 L 211.910156 43.140625 C 212.09375 45.824219 210.164062 48.199219 207.308594 48.390625 C 204.453125 48.585938 201.988281 46.566406 201.800781 43.882812 L 201.816406 42.179688 C 198.0625 42.640625 194.296875 43.652344 190.464844 45.25 C 190.457031 45.253906 190.453125 45.257812 190.445312 45.257812 C 189.09375 45.730469 187.925781 46.722656 187.277344 48.128906 L 183.550781 55.605469 L 227.441406 55.605469 C 227.285156 53.800781 227.125 51.996094 226.898438 50.195312 Z M 196.289062 125.105469 C 195.128906 127.285156 194.460938 129.769531 194.445312 132.40625 L 210.136719 132.40625 L 209.898438 132.167969 Z M 218.253906 86.765625 L 229.007812 86.765625 L 229.007812 75.792969 L 218.253906 75.792969 Z M 218.253906 86.765625 " fill-opacity="1" fill-rule="nonzero"/></g><g clip-path="url(#2d43c65881)"><path fill="#293237" d="M 132.394531 206.289062 C 132.480469 206.15625 132.65625 206.121094 132.789062 206.207031 L 134.773438 207.507812 C 134.804688 207.527344 134.832031 207.554688 134.855469 207.589844 L 136.875 210.65625 C 136.960938 210.785156 136.925781 210.964844 136.792969 211.050781 C 136.746094 211.082031 136.691406 211.097656 136.636719 211.097656 C 136.542969 211.097656 136.453125 211.050781 136.398438 210.96875 L 134.410156 207.953125 L 132.476562 206.683594 C 132.34375 206.597656 132.304688 206.421875 132.394531 206.289062 Z M 127.269531 211.679688 L 130.988281 211.679688 C 130.703125 211.644531 130.34375 211.472656 130.070312 210.976562 C 129.945312 210.746094 129.765625 210.390625 129.578125 210.019531 C 128.625 210.5 127.578125 210.992188 126.699219 211.328125 C 126.804688 211.527344 127.007812 211.679688 127.269531 211.679688 Z M 127.511719 207.472656 L 129.558594 207.371094 C 129.957031 207.351562 130.34375 207.605469 130.480469 207.988281 L 131.148438 209.949219 C 131.183594 210.0625 131.285156 210.128906 131.394531 210.136719 L 131.578125 210.785156 C 131.625 211.203125 131.710938 211.5 131.34375 211.648438 C 131.308594 211.660156 131.265625 211.671875 131.214844 211.679688 L 133.246094 211.679688 C 132.996094 211.621094 132.714844 211.476562 132.449219 211.160156 C 132.234375 210.90625 131.910156 210.496094 131.589844 210.082031 C 131.683594 210.007812 131.726562 209.886719 131.6875 209.765625 L 131.019531 207.800781 C 130.800781 207.179688 130.191406 206.777344 129.53125 206.800781 L 127.484375 206.90625 C 127.328125 206.914062 127.207031 207.046875 127.214844 207.203125 C 127.222656 207.359375 127.328125 207.484375 127.511719 207.472656 Z M 112.171875 163.394531 C 112.171875 163.398438 112.167969 163.398438 112.167969 163.402344 C 112.113281 163.515625 112.0625 163.636719 112 163.742188 C 112.0625 163.632812 112.113281 163.507812 112.171875 163.394531 Z M 114.300781 175.746094 C 114.300781 175.851562 114.289062 175.957031 114.28125 176.058594 C 113.953125 176.09375 113.691406 176.363281 113.691406 176.703125 C 113.691406 177.070312 113.984375 177.363281 114.347656 177.363281 C 114.710938 177.363281 115.007812 177.070312 115.007812 176.703125 C 115.007812 176.453125 114.859375 176.238281 114.652344 176.128906 C 114.664062 176.003906 114.675781 175.875 114.675781 175.746094 C 114.675781 174.609375 114.21875 173.53125 113.4375 172.730469 L 113.464844 173.332031 C 113.996094 174.015625 114.300781 174.859375 114.300781 175.746094 Z M 114.574219 192.304688 C 114.582031 192.390625 115.332031 200.996094 113.820312 204.144531 C 113.78125 204.226562 113.78125 204.320312 113.824219 204.402344 C 113.867188 204.480469 113.945312 204.535156 114.03125 204.550781 L 119.765625 205.460938 C 119.78125 205.464844 119.796875 205.464844 119.8125 205.464844 C 119.949219 205.464844 120.070312 205.367188 120.09375 205.226562 C 120.117188 205.070312 120.011719 204.921875 119.855469 204.898438 L 114.484375 204.042969 C 115.863281 200.539062 115.171875 192.601562 115.140625 192.253906 C 115.128906 192.09375 114.984375 191.976562 114.832031 191.992188 C 114.675781 192.007812 114.558594 192.148438 114.574219 192.304688 Z M 303.152344 116.023438 C 302.601562 118.679688 302.785156 119.105469 302.949219 119.9375 C 303.113281 120.773438 304.113281 121.445312 304.113281 121.445312 C 305.0625 119.015625 306.648438 120.335938 306.648438 120.335938 C 311.8125 112.335938 306.0625 111.628906 306.0625 111.628906 C 300.175781 105.539062 299.953125 109.867188 299.953125 109.867188 C 292.738281 105.570312 293.742188 110.167969 293.742188 110.167969 C 290.609375 110.832031 292.574219 112.792969 292.574219 112.792969 C 289.300781 116.136719 303.152344 116.023438 303.152344 116.023438 Z M 303.074219 157.320312 C 303.097656 157.324219 303.121094 157.328125 303.140625 157.328125 C 303.269531 157.328125 303.390625 157.238281 303.417969 157.105469 L 307.296875 140.347656 C 307.332031 140.195312 307.238281 140.042969 307.082031 140.007812 C 306.929688 139.972656 306.777344 140.066406 306.742188 140.21875 L 302.863281 156.976562 C 302.828125 157.128906 302.921875 157.285156 303.074219 157.320312 Z M 284.238281 140.035156 L 289.066406 155.964844 C 289.195312 156.394531 289.007812 156.820312 288.667969 157.042969 L 300.527344 157.039062 L 300.527344 155.308594 L 289.949219 155.308594 L 290.148438 155.964844 L 287.707031 147.914062 L 288.855469 142.5 C 288.886719 142.34375 288.789062 142.195312 288.632812 142.160156 C 288.480469 142.128906 288.328125 142.226562 288.296875 142.382812 L 287.363281 146.78125 L 285.320312 140.03125 C 285.195312 139.628906 284.824219 139.355469 284.40625 139.355469 L 283.324219 139.355469 C 283.746094 139.355469 284.117188 139.628906 284.238281 140.035156 Z M 304.039062 124.191406 L 304.058594 125.964844 C 304.332031 125.449219 304.585938 124.839844 304.808594 124.25 C 304.367188 124.292969 304.039062 124.191406 304.039062 124.191406 Z M 101.914062 167.175781 C 105.046875 167.167969 110.378906 166.925781 112.167969 163.402344 C 112.316406 163.097656 112.449219 162.777344 112.546875 162.429688 C 112.566406 162.351562 112.597656 162.285156 112.617188 162.207031 C 112.53125 162.085938 112.433594 161.976562 112.339844 161.863281 C 111.445312 160.738281 110.324219 159.886719 109.089844 159.324219 C 109.070312 159.316406 109.050781 159.308594 109.035156 159.300781 C 108.761719 159.179688 108.484375 159.070312 108.199219 158.980469 C 108.144531 158.960938 108.089844 158.941406 108.03125 158.925781 C 107.777344 158.847656 107.519531 158.78125 107.261719 158.726562 C 107.195312 158.714844 107.132812 158.699219 107.070312 158.6875 C 106.785156 158.632812 106.5 158.59375 106.210938 158.566406 C 106.179688 158.566406 106.148438 158.558594 106.117188 158.554688 C 105.789062 158.53125 105.453125 158.523438 105.121094 158.535156 C 104.59375 158.550781 104.070312 158.617188 103.550781 158.730469 C 101.4375 159.347656 99.886719 161.320312 99.886719 163.628906 L 99.886719 167.835938 C 100.691406 167.945312 101.398438 168.355469 101.902344 168.941406 C 101.9375 168.253906 101.929688 167.636719 101.914062 167.175781 Z M 231.558594 42.132812 L 231.042969 41.171875 C 230.96875 41.03125 230.792969 40.976562 230.660156 41.054688 C 230.519531 41.125 230.46875 41.300781 230.542969 41.4375 L 231.132812 42.542969 C 231.179688 42.636719 231.277344 42.695312 231.382812 42.695312 C 231.398438 42.695312 232.96875 42.710938 233.867188 43.996094 C 233.921875 44.074219 234.011719 44.117188 234.101562 44.117188 C 234.15625 44.117188 234.214844 44.101562 234.265625 44.066406 C 234.394531 43.976562 234.425781 43.796875 234.335938 43.667969 C 233.445312 42.394531 232.050781 42.171875 231.558594 42.132812 Z M 303.929688 262.496094 C 299.765625 263.367188 299.085938 265.984375 299.085938 265.984375 L 319.816406 265.984375 L 318.082031 255.765625 L 319.558594 255.765625 L 311.984375 203.417969 L 310.351562 176.617188 C 294.96875 180.042969 281.699219 172.769531 281.699219 172.769531 L 281.734375 172.605469 L 263.648438 189.527344 C 260.207031 193.660156 262.730469 199.402344 262.730469 199.402344 L 274.898438 240.957031 L 277.273438 240.957031 C 277.347656 242.003906 277.3125 243.042969 277.03125 243.835938 C 275.867188 247.128906 272.660156 247.058594 270.929688 247.421875 C 266.765625 248.292969 266.085938 250.90625 266.085938 250.90625 L 286.8125 250.90625 L 285.125 240.957031 L 288.21875 240.957031 L 279.03125 199.171875 C 284.191406 196.105469 288.417969 193.269531 291.902344 190.664062 L 291.03125 183.976562 C 291.011719 183.820312 291.121094 183.675781 291.277344 183.65625 C 291.433594 183.628906 291.578125 183.746094 291.597656 183.902344 L 293.160156 195.890625 C 293.179688 196.023438 293.101562 196.140625 292.980469 196.1875 L 294.300781 204.796875 L 306.699219 255.765625 L 310.25 255.765625 C 310.351562 256.898438 310.335938 258.050781 310.03125 258.910156 C 308.871094 262.207031 305.660156 262.132812 303.929688 262.496094 Z M 216.328125 23.882812 C 216.367188 20.347656 214.460938 18.632812 210.90625 18.460938 C 210.90625 18.460938 202.875 17.777344 201.089844 17.667969 C 198.546875 17.507812 198.441406 19.710938 199.199219 22.6875 C 199.242188 22.859375 199.304688 23.003906 199.378906 23.140625 C 199.152344 23.589844 198.964844 24.0625 198.824219 24.558594 C 198.8125 24.601562 198.804688 24.640625 198.792969 24.683594 C 198.738281 24.890625 198.683594 25.101562 198.644531 25.316406 C 198.597656 25.578125 198.5625 25.84375 198.539062 26.113281 C 198.511719 26.433594 198.511719 26.746094 198.523438 27.058594 C 198.527344 27.15625 198.535156 27.25 198.542969 27.34375 C 198.558594 27.5625 198.578125 27.78125 198.613281 27.996094 C 198.628906 28.097656 198.644531 28.199219 198.664062 28.300781 C 198.707031 28.515625 198.757812 28.730469 198.816406 28.9375 C 198.839844 29.023438 198.859375 29.105469 198.886719 29.191406 C 198.972656 29.472656 199.082031 29.75 199.203125 30.019531 C 199.246094 29.09375 199.4375 26.515625 200.296875 23.851562 C 202.015625 23.648438 203.53125 24.554688 206.140625 25.199219 C 208.277344 25.730469 211.234375 25.464844 212.042969 24.667969 C 211.125 28.46875 211.601562 32.210938 211.601562 32.210938 C 211.722656 32.210938 211.835938 32.25 211.933594 32.304688 C 212.152344 31.277344 212.492188 30.25 212.964844 30.289062 C 213.390625 30.328125 213.753906 30.601562 214.019531 31.015625 C 214.027344 31.027344 214.035156 31.039062 214.046875 31.054688 C 214.085938 31.121094 214.121094 31.191406 214.15625 31.261719 C 214.179688 31.304688 214.199219 31.351562 214.214844 31.394531 C 214.242188 31.460938 214.269531 31.523438 214.292969 31.589844 C 214.332031 31.703125 214.363281 31.820312 214.386719 31.941406 C 214.398438 31.988281 214.402344 32.035156 214.410156 32.082031 C 214.425781 32.183594 214.441406 32.285156 214.445312 32.390625 C 214.449219 32.4375 214.453125 32.484375 214.457031 32.53125 C 214.460938 32.679688 214.460938 32.832031 214.445312 32.988281 C 214.355469 34.085938 213.589844 34.964844 212.515625 35.238281 C 212.335938 35.28125 212.160156 35.25 212.015625 35.167969 C 211.871094 35.082031 211.753906 34.941406 211.683594 34.769531 L 211.574219 35.09375 L 211.351562 35.773438 L 211.367188 35.980469 C 212.445312 35.789062 216.796875 34.785156 216.304688 30.84375 C 216.304688 30.839844 219.710938 26.929688 216.328125 23.882812 Z M 210.246094 116.714844 C 204.199219 116.714844 198.945312 120.117188 196.289062 125.105469 L 210.355469 132.40625 L 214.445312 117.28125 C 213.109375 116.914062 211.699219 116.714844 210.246094 116.714844 Z M 108.902344 203.429688 C 109.265625 197.316406 108.257812 191.773438 105.9375 188.289062 L 106.140625 183.460938 C 106.148438 183.300781 106.023438 183.167969 105.867188 183.164062 C 105.863281 183.164062 105.859375 183.164062 105.855469 183.164062 C 105.703125 183.164062 105.574219 183.28125 105.570312 183.4375 L 105.363281 188.359375 C 105.359375 188.421875 105.378906 188.480469 105.414062 188.53125 C 107.65625 191.84375 108.636719 197.324219 108.304688 203.335938 Z M 121.96875 264.582031 C 121.953125 264.582031 121.941406 264.574219 121.929688 264.574219 L 120.859375 272.160156 L 141.277344 272.160156 L 141.839844 264.519531 C 141.789062 264.554688 141.730469 264.582031 141.667969 264.582031 Z M 97.222656 168.097656 L 97.222656 164.355469 C 97.222656 164.269531 97.234375 164.183594 97.238281 164.097656 C 96.695312 165.464844 96.496094 166.957031 96.675781 168.425781 C 96.847656 168.300781 97.027344 168.1875 97.222656 168.097656 Z M 143.261719 211.703125 L 214.570312 211.703125 L 214.570312 215 L 203.730469 215 L 214.570312 282.335938 L 210.132812 282.335938 L 199.0625 215 L 177.375 215 L 166.304688 282.335938 L 161.863281 282.335938 L 163.503906 272.160156 L 148.828125 272.160156 L 146.519531 264.582031 L 164.722656 264.582031 L 164.816406 264.011719 L 146.429688 264.011719 C 146.402344 264.011719 146.375 264.019531 146.347656 264.027344 L 142.746094 252.191406 L 141.871094 264.097656 C 141.816406 264.042969 141.746094 264.011719 141.667969 264.011719 L 122.007812 264.011719 L 125.71875 237.699219 C 125.730469 237.703125 125.742188 237.714844 125.757812 237.714844 C 125.835938 237.714844 125.917969 237.679688 125.972656 237.613281 L 129.523438 233.5 C 129.625 233.382812 129.613281 233.199219 129.492188 233.097656 C 129.375 232.996094 129.195312 233.007812 129.089844 233.128906 L 125.539062 237.242188 C 125.492188 237.296875 125.472656 237.363281 125.476562 237.429688 L 104.816406 237.542969 L 104.804688 237.488281 C 104.675781 237.503906 104.546875 237.523438 104.414062 237.542969 C 103.554688 237.652344 102.707031 237.707031 101.875 237.726562 L 109.058594 282.335938 L 104.617188 282.335938 L 97.214844 237.304688 C 92.417969 236.234375 88.863281 233.183594 88.203125 227.992188 C 87.636719 223.574219 89.292969 218.59375 92.386719 215 L 71.859375 215 L 60.789062 282.335938 L 56.351562 282.335938 L 67.1875 215 L 55.828125 215 L 55.828125 211.703125 L 100.910156 211.703125 C 100.269531 211.292969 99.726562 210.722656 99.355469 210.023438 L 90.117188 192.621094 C 90.070312 192.53125 90.019531 192.425781 89.976562 192.335938 C 89.910156 192.191406 89.96875 192.023438 90.113281 191.957031 C 90.257812 191.890625 90.425781 191.949219 90.492188 192.09375 C 90.53125 192.179688 90.578125 192.273438 90.621094 192.355469 L 99.859375 209.753906 C 100.375 210.722656 101.25 211.414062 102.273438 211.703125 L 142.667969 211.703125 L 139.308594 211.675781 L 133.746094 211.675781 C 133.824219 211.65625 133.898438 211.628906 133.945312 211.59375 C 134.226562 211.410156 134.195312 211.1875 134.097656 210.890625 C 134.070312 210.902344 134.039062 210.914062 134.011719 210.914062 C 133.90625 210.914062 133.808594 210.855469 133.757812 210.757812 L 132.035156 207.410156 L 129.386719 206.246094 C 129.242188 206.183594 129.175781 206.015625 129.242188 205.871094 C 129.304688 205.726562 129.472656 205.664062 129.617188 205.722656 L 132.359375 206.925781 C 132.417969 206.953125 132.46875 207 132.5 207.058594 L 134.265625 210.496094 C 134.316406 210.597656 134.300781 210.714844 134.238281 210.796875 C 134.449219 210.984375 134.648438 211.15625 134.800781 211.28125 C 135.570312 211.90625 136.25 211.65625 136.464844 211.449219 C 136.519531 211.398438 136.554688 211.347656 136.582031 211.296875 C 137.339844 211.898438 138.007812 211.652344 138.222656 211.449219 C 138.554688 211.125 138.335938 210.84375 138.101562 210.414062 L 136.351562 208.183594 C 137.25 208.53125 138.078125 209.027344 138.800781 209.640625 L 148.265625 209.640625 L 148.230469 209.65625 C 146.59375 209.9375 144.957031 210.316406 143.316406 210.8125 L 143.316406 211.679688 Z M 102.335938 215 L 99.4375 215 C 100.367188 215.042969 101.351562 215.039062 102.335938 215 Z M 114.472656 216.734375 C 114.472656 216.578125 114.34375 216.449219 114.1875 216.449219 C 107.308594 216.5 107.308594 216.503906 107.28125 216.855469 C 107.269531 217 107.382812 217.140625 107.527344 217.164062 C 107.542969 217.167969 107.5625 217.167969 107.578125 217.167969 C 107.617188 217.167969 107.660156 217.160156 107.695312 217.140625 C 107.941406 217.117188 109.0625 217.058594 114.191406 217.023438 C 114.347656 217.019531 114.476562 216.890625 114.472656 216.734375 Z M 143.421875 221.5 C 143.339844 221.367188 143.164062 221.324219 143.03125 221.40625 C 142.894531 221.488281 142.855469 221.664062 142.9375 221.796875 C 143.953125 223.464844 144.390625 225.589844 144.226562 228.105469 L 142.566406 250.722656 C 142.554688 250.878906 142.671875 251.015625 142.832031 251.027344 C 142.839844 251.027344 142.84375 251.027344 142.851562 251.027344 C 143 251.027344 143.125 250.914062 143.136719 250.761719 L 144.796875 228.144531 C 144.964844 225.503906 144.503906 223.269531 143.421875 221.5 Z M 113.074219 215 C 113.550781 215.5 114.003906 216.015625 114.421875 216.5625 L 136.882812 218.035156 C 137.0625 218.046875 137.238281 218.074219 137.414062 218.09375 L 148.433594 218.832031 C 153.113281 219.132812 155.902344 222.480469 156.933594 227.050781 L 165.007812 262.820312 L 172.703125 215 Z M 91.53125 185.839844 C 92.265625 185.175781 93.144531 184.6875 94.121094 184.398438 C 96.605469 183.65625 98.503906 183.1875 100.175781 182.933594 L 100.851562 178.726562 L 101.105469 175.558594 L 100.964844 175.207031 L 100.46875 174.101562 C 100.148438 174.207031 99.8125 174.277344 99.457031 174.277344 L 98.558594 174.277344 C 98.558594 174.277344 98.554688 174.277344 98.554688 174.277344 C 97.253906 174.277344 96.140625 173.503906 95.625 172.398438 L 92.644531 173.738281 C 89.128906 175.324219 87.5625 179.457031 89.144531 182.972656 C 89.683594 184.175781 90.523438 185.140625 91.53125 185.839844 Z M 91.53125 185.839844 " fill-opacity="1" fill-rule="nonzero"/></g></svg>