<svg xmlns="http://www.w3.org/2000/svg" xmlns:xlink="http://www.w3.org/1999/xlink" width="540" zoomAndPan="magnify" viewBox="0 0 404.88 299.999988" height="400" preserveAspectRatio="xMidYMid meet" version="1.0"><defs><clipPath id="2c0450b26f"><path d="M 47.253906 32 L 357.664062 32 L 357.664062 284.398438 L 47.253906 284.398438 Z M 47.253906 32 " clip-rule="nonzero"/></clipPath><clipPath id="e606a297d9"><path d="M 57 24 L 357.664062 24 L 357.664062 284 L 57 284 Z M 57 24 " clip-rule="nonzero"/></clipPath><clipPath id="f2a43e8ccd"><path d="M 47.253906 47 L 357.664062 47 L 357.664062 284.398438 L 47.253906 284.398438 Z M 47.253906 47 " clip-rule="nonzero"/></clipPath><clipPath id="1efc964211"><path d="M 140 50 L 348 50 L 348 284.398438 L 140 284.398438 Z M 140 50 " clip-rule="nonzero"/></clipPath></defs><path fill="#f5f5f5" d="M 57.648438 98.964844 L 58.660156 100.078125 L 76.625 83.699219 L 59.273438 99.523438 L 102.667969 99.523438 L 85.554688 83.53125 L 103.257812 100.074219 L 104.285156 98.96875 L 103.773438 98.492188 L 103.773438 71.460938 L 86.84375 82.675781 L 104.1875 71.183594 L 103.773438 70.554688 L 103.355469 69.925781 L 80.964844 84.765625 L 58.570312 69.925781 L 57.738281 71.183594 L 58.15625 71.460938 L 58.15625 98.503906 Z M 57.648438 98.964844 " fill-opacity="1" fill-rule="nonzero"/><path fill="#f5f5f5" d="M 269.390625 133.914062 L 295.03125 150.902344 L 320.667969 133.914062 Z M 269.390625 133.914062 " fill-opacity="1" fill-rule="nonzero"/><path fill="#f5f5f5" d="M 282.242188 238.917969 L 282.242188 243.789062 L 284.488281 243.789062 L 284.488281 261.195312 L 277.328125 261.195312 L 277.328125 266.066406 L 279.574219 266.066406 L 279.574219 283.484375 L 333.082031 283.484375 L 333.082031 266.066406 L 334.953125 266.066406 L 334.953125 261.210938 L 337.996094 261.210938 L 337.996094 243.789062 L 339.867188 243.789062 L 339.867188 238.917969 Z M 282.242188 238.917969 " fill-opacity="1" fill-rule="nonzero"/><path fill="#f5f5f5" d="M 268.027344 167.183594 L 288.585938 148.4375 L 268.027344 134.816406 Z M 268.027344 167.183594 " fill-opacity="1" fill-rule="nonzero"/><path fill="#f5f5f5" d="M 268.027344 168.203125 L 268.535156 168.761719 L 269.148438 168.203125 L 313.015625 168.203125 C 313.53125 173.714844 318.160156 178.03125 323.800781 178.03125 C 329.785156 178.03125 334.636719 173.171875 334.636719 167.179688 C 334.636719 161.191406 329.785156 156.332031 323.800781 156.332031 C 323.199219 156.332031 322.609375 156.394531 322.03125 156.488281 L 322.03125 134.816406 L 322.449219 134.542969 L 321.617188 133.285156 L 295.03125 150.902344 L 268.445312 133.285156 L 267.613281 134.542969 L 288.585938 148.4375 L 267.523438 167.644531 Z M 268.027344 168.203125 " fill-opacity="1" fill-rule="nonzero"/><path fill="#f5f5f5" d="M 74.386719 53.660156 C 73.269531 53.660156 72.363281 54.570312 72.363281 55.6875 C 72.363281 56.808594 73.269531 57.714844 74.386719 57.714844 C 75.503906 57.714844 76.414062 56.808594 76.414062 55.6875 C 76.414062 54.570312 75.503906 53.660156 74.386719 53.660156 Z M 74.386719 53.660156 " fill-opacity="1" fill-rule="nonzero"/><path fill="#f5f5f5" d="M 59.535156 53.660156 C 58.414062 53.660156 57.507812 54.570312 57.507812 55.6875 C 57.507812 56.808594 58.414062 57.714844 59.535156 57.714844 C 60.652344 57.714844 61.558594 56.808594 61.558594 55.6875 C 61.558594 54.570312 60.652344 53.660156 59.535156 53.660156 Z M 59.535156 53.660156 " fill-opacity="1" fill-rule="nonzero"/><path fill="#f5f5f5" d="M 66.960938 53.660156 C 65.84375 53.660156 64.933594 54.570312 64.933594 55.6875 C 64.933594 56.808594 65.84375 57.714844 66.960938 57.714844 C 68.078125 57.714844 68.988281 56.808594 68.988281 55.6875 C 68.988281 54.570312 68.078125 53.660156 66.960938 53.660156 Z M 66.960938 53.660156 " fill-opacity="1" fill-rule="nonzero"/><path fill="#f5f5f5" d="M 59.519531 70.554688 L 80.964844 84.765625 L 102.40625 70.554688 Z M 59.519531 70.554688 " fill-opacity="1" fill-rule="nonzero"/><g clip-path="url(#2c0450b26f)"><path fill="#f5f5f5" d="M 265.8125 52.203125 L 265.8125 82.132812 L 261.675781 78.25 C 261.382812 77.972656 260.894531 78.167969 260.878906 78.570312 C 260.875 78.695312 260.882812 78.824219 260.898438 78.957031 C 260.898438 78.957031 260.898438 78.957031 260.898438 78.953125 L 253.066406 66.640625 L 253.066406 47.1875 L 194.148438 47.1875 L 194.148438 38.527344 C 194.148438 35.21875 191.464844 32.53125 188.15625 32.53125 L 162.765625 32.53125 C 159.464844 32.53125 156.777344 35.21875 156.777344 38.527344 L 156.777344 47.1875 L 47.253906 47.1875 L 47.253906 183.304688 L 68.535156 183.304688 L 68.535156 186.132812 L 72.550781 186.132812 L 73.351562 284.320312 L 77.296875 284.320312 L 78.097656 186.132812 L 119.765625 186.132812 L 120.566406 284.320312 L 124.511719 284.320312 L 125.3125 186.132812 L 156.234375 186.132812 L 156.207031 196.210938 L 161.175781 273.265625 L 164.367188 273.265625 C 164.296875 273.929688 164.179688 274.558594 163.988281 275.101562 C 162.539062 279.210938 157.566406 279.445312 155.40625 279.898438 C 150.214844 280.988281 149.371094 284.25 149.371094 284.25 L 175.207031 284.25 L 174.335938 273.265625 L 176.90625 273.265625 L 177.503906 206.207031 L 196.449219 273.09375 L 199.929688 273.09375 C 199.988281 273.949219 199.945312 274.757812 199.707031 275.425781 C 198.257812 279.535156 194.261719 279.445312 192.101562 279.898438 C 186.910156 280.988281 186.066406 284.25 186.066406 284.25 L 211.902344 284.25 L 209.40625 273.09375 L 212.175781 273.09375 L 198.730469 198.160156 C 198.730469 198.160156 198.488281 192.898438 197.914062 186.132812 L 220.625 186.132812 L 221.425781 284.320312 L 225.371094 284.320312 L 226.171875 186.132812 L 267.839844 186.132812 L 268.644531 284.320312 L 272.585938 284.320312 L 273.390625 186.132812 L 281.03125 186.132812 L 281.03125 179.429688 L 253.0625 179.429688 L 253.0625 93.839844 L 257.566406 90.96875 C 257.757812 91.042969 260.410156 92.058594 262.054688 92.390625 L 265.8125 95.09375 L 265.8125 122.570312 L 312.042969 122.570312 C 312.109375 122.699219 312.230469 122.78125 312.371094 122.78125 C 312.414062 122.78125 312.460938 122.773438 312.507812 122.753906 L 312.980469 122.570312 L 342.332031 122.570312 C 342.332031 122.570312 342.332031 122.570312 342.335938 122.570312 L 357.636719 122.570312 L 357.636719 52.203125 Z M 261.03125 79.558594 C 260.980469 79.425781 260.949219 79.292969 260.925781 79.15625 C 260.949219 79.289062 260.976562 79.425781 261.03125 79.558594 Z M 218.84375 78.660156 L 220.882812 81.183594 L 182.027344 81.183594 C 181.816406 80.457031 181.605469 79.789062 181.414062 79.210938 C 182.066406 79.054688 182.65625 78.871094 183.144531 78.660156 Z M 215.914062 68.15625 L 218.042969 71.507812 Z M 244.84375 62.058594 L 244.921875 62.011719 Z M 223.011719 71.238281 L 223.1875 71.507812 Z M 232.527344 81.183594 L 233.011719 80.871094 Z M 234.765625 78.660156 L 234.042969 79.125 Z M 239.691406 72.84375 L 248.316406 67.3125 Z M 239.691406 71.757812 L 247.820312 66.542969 Z M 235.945312 71.507812 L 246.617188 64.664062 Z M 234.25 71.507812 L 246.125 63.890625 Z M 228.417969 71.507812 L 240.773438 63.582031 Z M 237.175781 88.332031 L 235.039062 89.707031 Z M 239.691406 86.71875 L 251.542969 79.117188 Z M 230.113281 71.507812 L 242.46875 63.582031 Z M 243.152344 62.058594 L 244.425781 61.238281 Z M 222.589844 78.660156 L 224.195312 81.183594 Z M 170.054688 80.207031 C 170.082031 80.207031 170.109375 80.207031 170.140625 80.207031 C 170.109375 80.207031 170.082031 80.207031 170.054688 80.207031 Z M 170.394531 80.207031 C 170.433594 80.207031 170.464844 80.207031 170.507812 80.207031 C 170.464844 80.207031 170.433594 80.207031 170.394531 80.207031 Z M 171.542969 80.191406 C 171.597656 80.191406 171.652344 80.1875 171.707031 80.1875 C 171.652344 80.1875 171.597656 80.191406 171.542969 80.191406 Z M 172.195312 80.175781 C 172.265625 80.171875 172.335938 80.171875 172.40625 80.167969 C 172.335938 80.171875 172.265625 80.171875 172.195312 80.175781 Z M 172.972656 80.148438 C 173.03125 80.144531 173.089844 80.144531 173.148438 80.140625 C 173.085938 80.144531 173.03125 80.144531 172.972656 80.148438 Z M 174.796875 80.058594 C 174.867188 80.054688 174.9375 80.050781 175.007812 80.046875 C 174.9375 80.050781 174.867188 80.054688 174.796875 80.058594 Z M 175.683594 80 C 175.761719 79.996094 175.84375 79.988281 175.925781 79.984375 C 175.84375 79.988281 175.761719 79.996094 175.683594 80 Z M 176.636719 79.921875 C 176.703125 79.917969 176.765625 79.910156 176.832031 79.90625 C 176.765625 79.910156 176.703125 79.917969 176.636719 79.921875 Z M 178.644531 79.707031 C 178.71875 79.695312 178.789062 79.683594 178.863281 79.675781 C 178.789062 79.683594 178.71875 79.695312 178.644531 79.707031 Z M 179.523438 79.578125 C 179.605469 79.566406 179.6875 79.550781 179.769531 79.539062 C 179.6875 79.550781 179.605469 79.566406 179.523438 79.578125 Z M 180.421875 79.421875 C 180.484375 79.410156 180.550781 79.398438 180.613281 79.386719 C 180.550781 79.398438 180.484375 79.410156 180.421875 79.421875 Z M 169.878906 80.207031 C 169.867188 80.207031 169.859375 80.207031 169.851562 80.207031 C 169.855469 80.207031 169.871094 80.207031 169.878906 80.207031 Z M 226.664062 88.332031 L 229.09375 91.339844 L 229.304688 89.21875 L 228.742188 88.332031 L 229.304688 89.21875 L 229.382812 88.449219 L 229.015625 92.117188 L 183.082031 92.117188 C 183.402344 91.027344 183.480469 89.71875 183.398438 88.332031 Z M 178.84375 99.269531 C 178.105469 100.386719 176.839844 101.507812 174.746094 101.507812 C 176.839844 101.503906 178.101562 100.386719 178.84375 99.269531 Z M 156.296875 165.007812 L 156.265625 176.113281 L 151.691406 176.113281 L 143.558594 149.238281 L 144.410156 152.050781 L 146.355469 149.238281 L 155.117188 149.238281 C 155.097656 155.761719 155.089844 164.734375 155.089844 164.734375 C 155.089844 164.734375 155.523438 164.84375 156.296875 165.007812 Z M 165.28125 166.429688 C 165.246094 166.425781 165.210938 166.421875 165.175781 166.417969 C 165.210938 166.421875 165.246094 166.425781 165.28125 166.429688 Z M 164.214844 166.304688 C 164.136719 166.296875 164.0625 166.285156 163.984375 166.277344 C 164.0625 166.285156 164.136719 166.292969 164.214844 166.304688 Z M 163.109375 166.164062 C 163.039062 166.15625 162.96875 166.144531 162.902344 166.136719 C 162.96875 166.144531 163.039062 166.15625 163.109375 166.164062 Z M 160.433594 165.773438 C 160.351562 165.757812 160.269531 165.746094 160.1875 165.730469 C 160.269531 165.746094 160.351562 165.757812 160.433594 165.773438 Z M 159.597656 165.632812 C 159.492188 165.617188 159.382812 165.597656 159.28125 165.578125 C 159.382812 165.597656 159.492188 165.617188 159.597656 165.632812 Z M 158.765625 165.488281 C 158.660156 165.46875 158.558594 165.453125 158.457031 165.433594 C 158.558594 165.453125 158.660156 165.46875 158.765625 165.488281 Z M 157.988281 165.347656 C 157.917969 165.332031 157.855469 165.320312 157.789062 165.308594 C 157.855469 165.320312 157.917969 165.332031 157.988281 165.347656 Z M 206.058594 111.554688 L 197.359375 104.140625 C 195.753906 102.773438 193.902344 101.730469 191.902344 101.066406 L 186.496094 99.269531 L 227.136719 99.269531 L 215.105469 111.554688 Z M 253.066406 78.140625 L 254.609375 77.152344 Z M 251.121094 63.582031 L 251.542969 63.582031 L 251.542969 64.242188 Z M 48.777344 48.710938 L 156.777344 48.710938 L 156.777344 48.851562 C 156.777344 52.160156 159.464844 54.847656 162.765625 54.847656 L 165.820312 60.136719 L 169.59375 54.847656 L 188.15625 54.847656 C 191.464844 54.847656 194.148438 52.160156 194.148438 48.851562 L 194.148438 48.710938 L 251.542969 48.710938 L 251.542969 62.058594 L 250.152344 62.058594 L 243.035156 50.867188 L 239.542969 53.089844 L 237.054688 50.011719 L 222.1875 62.058594 L 48.777344 62.058594 Z M 68.535156 179.429688 L 68.535156 181.78125 L 48.777344 181.78125 L 48.777344 63.582031 L 220.304688 63.582031 L 212.058594 70.265625 L 213.066406 71.507812 L 182.445312 71.507812 C 182.386719 70.101562 181.433594 67.773438 174.820312 71.507812 L 173.988281 71.507812 C 173.765625 70.542969 172.816406 68.546875 168.945312 71.507812 L 111.140625 71.507812 L 111.140625 78.660156 L 162.210938 78.660156 C 162.222656 79.375 162.363281 80.214844 162.679688 81.183594 L 111.140625 81.183594 L 111.140625 88.332031 L 164.496094 88.332031 C 164.71875 89.152344 165.304688 89.933594 165.96875 90.535156 C 167.160156 91.613281 168.589844 91.167969 168.589844 91.167969 L 168.324219 92.117188 L 110.71875 92.117188 L 110.71875 99.269531 L 164.105469 99.269531 L 155.871094 103.433594 C 152.449219 105.164062 149.765625 108.042969 148.246094 111.554688 L 116.777344 111.554688 L 116.777344 146.914062 L 111.066406 146.914062 L 111.066406 111.589844 L 57.769531 111.589844 L 57.769531 161.941406 L 98.003906 161.941406 L 102.902344 178.132812 C 103.019531 178.519531 103.265625 178.839844 103.578125 179.054688 L 103.578125 179.429688 Z M 251.542969 179.429688 L 238.101562 179.429688 L 238.882812 172.757812 C 239.09375 172.699219 239.261719 172.53125 239.289062 172.304688 L 239.597656 169.996094 C 239.640625 169.664062 239.386719 169.371094 239.050781 169.371094 L 238.9375 169.371094 C 239.046875 168.941406 239.109375 168.496094 239.109375 168.03125 C 239.109375 165.011719 236.664062 162.566406 233.648438 162.566406 C 230.632812 162.566406 228.1875 165.011719 228.1875 168.03125 C 228.1875 168.496094 228.253906 168.941406 228.359375 169.371094 L 228.246094 169.371094 C 227.914062 169.371094 227.65625 169.664062 227.703125 169.996094 L 228.007812 172.300781 C 228.039062 172.53125 228.207031 172.699219 228.417969 172.753906 L 228.703125 179.429688 L 219.003906 179.429688 L 219.179688 176.734375 C 222.085938 176.121094 224.273438 173.535156 224.273438 170.445312 C 224.273438 167.628906 222.449219 165.234375 219.925781 164.367188 L 220.132812 160.960938 L 206.777344 160.960938 L 207.925781 179.429688 L 197.277344 179.429688 C 196.71875 174.199219 195.976562 168.816406 195.023438 164.613281 C 195.023438 164.613281 195.019531 164.613281 195.019531 164.613281 C 195.9375 164.351562 196.851562 164.074219 197.753906 163.757812 C 197.753906 163.757812 196.570312 155.871094 195.738281 149.238281 L 239.269531 149.238281 L 239.269531 111.554688 L 229.183594 111.554688 L 234.371094 103.542969 C 236.820312 102.84375 237.519531 102.144531 237.519531 102.144531 L 236.347656 100.308594 L 236.398438 100.375 L 235.695312 99.269531 L 238.246094 103.28125 L 251.542969 94.808594 Z M 219.289062 174.941406 L 219.816406 166.164062 C 221.4375 166.910156 222.566406 168.546875 222.566406 170.445312 C 222.566406 172.546875 221.1875 174.332031 219.289062 174.941406 Z M 219.289062 174.941406 " fill-opacity="1" fill-rule="nonzero"/></g><path fill="#f5f5f5" d="M 270.847656 38.398438 L 289.414062 38.398438 L 293.1875 43.6875 L 296.238281 38.398438 C 299.542969 38.398438 302.230469 35.710938 302.230469 32.398438 L 302.230469 22.078125 C 302.230469 18.769531 299.542969 16.078125 296.238281 16.078125 L 270.847656 16.078125 C 267.542969 16.078125 264.859375 18.769531 264.859375 22.078125 L 264.859375 32.398438 C 264.859375 35.710938 267.542969 38.398438 270.847656 38.398438 Z M 283.542969 29.355469 C 282.859375 29.355469 282.242188 29.078125 281.792969 28.628906 C 282.242188 29.078125 282.859375 29.355469 283.542969 29.355469 C 284.226562 29.355469 284.847656 29.078125 285.292969 28.628906 C 284.847656 29.078125 284.226562 29.355469 283.542969 29.355469 Z M 290.945312 24.398438 C 289.578125 24.398438 288.46875 25.507812 288.46875 26.875 C 288.46875 28.246094 289.578125 29.355469 290.945312 29.355469 C 291.96875 29.355469 292.847656 28.730469 293.226562 27.839844 C 292.847656 28.730469 291.96875 29.355469 290.945312 29.355469 C 289.578125 29.355469 288.46875 28.246094 288.46875 26.875 C 288.46875 25.507812 289.578125 24.398438 290.945312 24.398438 Z M 276.144531 24.398438 C 274.777344 24.398438 273.667969 25.507812 273.667969 26.875 C 273.667969 28.246094 274.777344 29.355469 276.144531 29.355469 C 276.484375 29.355469 276.808594 29.285156 277.105469 29.160156 C 276.808594 29.285156 276.484375 29.355469 276.140625 29.355469 C 274.777344 29.355469 273.667969 28.246094 273.667969 26.875 C 273.667969 25.507812 274.777344 24.398438 276.144531 24.398438 Z M 276.144531 24.398438 " fill-opacity="1" fill-rule="nonzero"/><g clip-path="url(#e606a297d9)"><path fill="#f5f5f5" d="M 172.988281 43.328125 C 172.988281 41.957031 174.09375 40.847656 175.460938 40.847656 C 176.828125 40.847656 177.9375 41.957031 177.9375 43.328125 C 177.9375 44.695312 176.828125 45.804688 175.460938 45.804688 C 174.09375 45.804688 172.988281 44.695312 172.988281 43.328125 Z M 168.0625 45.804688 C 169.429688 45.804688 170.535156 44.695312 170.535156 43.328125 C 170.535156 41.957031 169.429688 40.847656 168.0625 40.847656 C 166.695312 40.847656 165.585938 41.957031 165.585938 43.328125 C 165.585938 44.695312 166.695312 45.804688 168.0625 45.804688 Z M 62.324219 141.398438 L 71.160156 133.492188 L 79.820312 139.953125 L 91.84375 126.414062 L 106.25 140.839844 L 106.25 116.148438 L 62.324219 116.148438 Z M 80.964844 86.574219 L 85.554688 83.53125 L 103.257812 100.074219 L 104.285156 98.96875 L 86.84375 82.675781 L 104.1875 71.183594 L 103.355469 69.925781 L 80.964844 84.765625 L 58.570312 69.925781 L 57.738281 71.183594 L 75.328125 82.839844 L 57.648438 98.964844 L 58.660156 100.078125 L 76.625 83.699219 Z M 283.542969 29.355469 C 284.910156 29.355469 286.019531 28.246094 286.019531 26.875 C 286.019531 25.507812 284.910156 24.398438 283.542969 24.398438 C 282.175781 24.398438 281.070312 25.507812 281.070312 26.875 C 281.070312 28.246094 282.175781 29.355469 283.542969 29.355469 Z M 233.648438 162.566406 C 230.632812 162.566406 228.1875 165.011719 228.1875 168.03125 C 228.1875 168.496094 228.25 168.941406 228.359375 169.371094 L 238.9375 169.371094 C 239.046875 168.941406 239.109375 168.496094 239.109375 168.03125 C 239.109375 165.011719 236.664062 162.566406 233.648438 162.566406 Z M 290.945312 29.355469 C 292.3125 29.355469 293.417969 28.246094 293.417969 26.875 C 293.417969 25.507812 292.3125 24.398438 290.945312 24.398438 C 289.578125 24.398438 288.46875 25.507812 288.46875 26.875 C 288.46875 28.246094 289.578125 29.355469 290.945312 29.355469 Z M 182.863281 45.804688 C 184.230469 45.804688 185.339844 44.695312 185.339844 43.328125 C 185.339844 41.957031 184.230469 40.847656 182.863281 40.847656 C 181.496094 40.847656 180.386719 41.957031 180.386719 43.328125 C 180.386719 44.695312 181.496094 45.804688 182.863281 45.804688 Z M 276.144531 29.355469 C 277.507812 29.355469 278.617188 28.246094 278.617188 26.875 C 278.617188 25.507812 277.507812 24.398438 276.144531 24.398438 C 274.777344 24.398438 273.667969 25.507812 273.667969 26.875 C 273.667969 28.246094 274.777344 29.355469 276.144531 29.355469 Z M 305.046875 266.066406 L 306.140625 283.488281 L 279.574219 283.488281 L 279.574219 266.066406 Z M 287.054688 271.496094 L 297.90625 271.496094 L 297.90625 268.875 L 287.054688 268.875 Z M 299.59375 274.773438 L 285.660156 274.773438 L 285.660156 280.3125 L 299.59375 280.3125 Z M 309.960938 243.789062 L 311.054688 261.195312 L 284.488281 261.195312 L 284.488281 243.789062 Z M 291.972656 249.21875 L 302.824219 249.21875 L 302.824219 246.597656 L 291.972656 246.597656 Z M 304.507812 252.5 L 290.574219 252.5 L 290.574219 258.035156 L 304.507812 258.035156 Z M 265.8125 52.203125 L 265.8125 122.570312 L 357.636719 122.570312 L 357.636719 52.203125 Z M 116.777344 149.238281 L 239.273438 149.238281 L 239.273438 111.554688 L 116.777344 111.554688 Z M 110.71875 99.269531 L 239.273438 99.269531 L 239.273438 92.121094 L 110.71875 92.121094 Z M 239.691406 86.71875 L 239.691406 84.066406 L 253.40625 75.269531 L 252.914062 74.5 L 239.691406 82.980469 L 239.691406 81.183594 L 238.355469 81.183594 L 251.707031 72.617188 L 251.214844 71.847656 L 236.664062 81.183594 L 232.527344 81.183594 L 236.460938 78.660156 L 239.695312 78.660156 L 239.695312 76.585938 L 250.011719 69.964844 L 249.519531 69.195312 L 239.695312 75.5 L 239.695312 72.847656 L 248.316406 67.316406 L 247.824219 66.542969 L 239.695312 71.757812 L 239.695312 71.507812 L 235.945312 71.507812 L 246.617188 64.664062 L 246.125 63.890625 L 234.25 71.507812 L 230.113281 71.507812 L 244.921875 62.011719 L 244.425781 61.242188 L 228.417969 71.507812 L 224.28125 71.507812 L 231.746094 66.722656 L 231.253906 65.949219 L 223.011719 71.238281 L 223.1875 71.507812 L 111.140625 71.507812 L 111.140625 78.660156 L 228.933594 78.660156 L 228.25 79.097656 L 228.746094 79.867188 L 230.628906 78.660156 L 234.765625 78.660156 L 230.832031 81.183594 L 111.140625 81.183594 L 111.140625 88.332031 L 237.175781 88.332031 L 235.039062 89.707031 L 235.53125 90.476562 L 238.871094 88.332031 L 239.691406 88.332031 L 239.691406 87.808594 L 255.101562 77.921875 L 254.609375 77.152344 Z M 323.921875 157.527344 C 320.683594 157.527344 317.824219 159.160156 316.121094 161.648438 L 301.769531 148.242188 L 322.449219 134.542969 L 321.617188 133.285156 L 295.03125 150.902344 L 268.445312 133.285156 L 267.613281 134.542969 L 288.585938 148.4375 L 267.519531 167.648438 L 268.535156 168.761719 L 289.878906 149.296875 L 295.03125 152.710938 L 300.480469 149.097656 L 315.359375 163.003906 C 314.796875 164.214844 314.46875 165.5625 314.46875 166.992188 C 314.46875 172.21875 318.703125 176.457031 323.921875 176.457031 C 329.144531 176.457031 333.375 172.21875 333.375 166.992188 C 333.375 161.765625 329.144531 157.527344 323.921875 157.527344 Z M 323.921875 157.527344 " fill-opacity="1" fill-rule="nonzero"/></g><g clip-path="url(#f2a43e8ccd)"><path fill="#e0e0e0" d="M 297.90625 268.875 L 297.90625 271.496094 L 287.054688 271.496094 L 287.054688 268.875 Z M 285.660156 280.3125 L 299.59375 280.3125 L 299.59375 274.773438 L 285.660156 274.773438 Z M 282.242188 238.917969 L 282.242188 243.789062 L 309.960938 243.789062 L 311.054688 261.195312 L 277.328125 261.195312 L 277.328125 266.066406 L 305.042969 266.066406 L 306.140625 283.488281 L 333.082031 283.488281 L 333.082031 266.066406 L 334.953125 266.066406 L 334.953125 261.210938 L 337.996094 261.210938 L 337.996094 243.789062 L 339.867188 243.789062 L 339.867188 238.917969 Z M 291.972656 246.597656 L 291.972656 249.21875 L 302.824219 249.21875 L 302.824219 246.597656 Z M 290.574219 258.035156 L 304.507812 258.035156 L 304.507812 252.5 L 290.574219 252.5 Z M 111.066406 161.941406 L 57.769531 161.941406 L 57.769531 111.589844 L 111.066406 111.589844 Z M 106.25 116.148438 L 62.324219 116.148438 L 62.324219 141.398438 L 71.160156 133.492188 L 79.820312 139.953125 L 91.84375 126.414062 L 106.25 140.835938 Z M 59.535156 53.660156 C 58.414062 53.660156 57.507812 54.570312 57.507812 55.6875 C 57.507812 56.808594 58.414062 57.714844 59.535156 57.714844 C 60.652344 57.714844 61.558594 56.808594 61.558594 55.6875 C 61.558594 54.570312 60.652344 53.660156 59.535156 53.660156 Z M 66.960938 53.660156 C 65.84375 53.660156 64.933594 54.570312 64.933594 55.6875 C 64.933594 56.808594 65.84375 57.714844 66.960938 57.714844 C 68.078125 57.714844 68.988281 56.808594 68.988281 55.6875 C 68.988281 54.570312 68.078125 53.660156 66.960938 53.660156 Z M 74.386719 53.660156 C 73.269531 53.660156 72.363281 54.570312 72.363281 55.6875 C 72.363281 56.808594 73.269531 57.714844 74.386719 57.714844 C 75.503906 57.714844 76.414062 56.808594 76.414062 55.6875 C 76.414062 54.570312 75.503906 53.660156 74.386719 53.660156 Z M 357.636719 52.203125 L 357.636719 59.113281 L 265.8125 59.113281 L 265.8125 52.203125 Z M 271.238281 55.671875 C 271.238281 55.050781 270.738281 54.546875 270.117188 54.546875 C 269.496094 54.546875 268.992188 55.050781 268.992188 55.671875 C 268.992188 56.292969 269.496094 56.796875 270.117188 56.796875 C 270.738281 56.796875 271.238281 56.292969 271.238281 55.671875 Z M 274.988281 55.671875 C 274.988281 55.050781 274.484375 54.546875 273.863281 54.546875 C 273.242188 54.546875 272.738281 55.050781 272.738281 55.671875 C 272.738281 56.292969 273.242188 56.796875 273.863281 56.796875 C 274.484375 56.796875 274.988281 56.292969 274.988281 55.671875 Z M 278.734375 55.671875 C 278.734375 55.050781 278.234375 54.546875 277.613281 54.546875 C 276.992188 54.546875 276.488281 55.050781 276.488281 55.671875 C 276.488281 56.292969 276.992188 56.796875 277.613281 56.796875 C 278.234375 56.796875 278.734375 56.292969 278.734375 55.671875 Z M 281.035156 186.132812 L 273.390625 186.132812 L 272.589844 284.320312 L 268.644531 284.320312 L 267.839844 186.132812 L 226.175781 186.132812 L 225.371094 284.320312 L 221.429688 284.320312 L 220.625 186.132812 L 125.316406 186.132812 L 124.511719 284.320312 L 120.570312 284.320312 L 119.765625 186.132812 L 78.097656 186.132812 L 77.296875 284.320312 L 73.351562 284.320312 L 72.550781 186.132812 L 68.535156 186.132812 L 68.535156 183.304688 L 47.253906 183.304688 L 47.253906 47.1875 L 253.066406 47.1875 L 253.066406 179.429688 L 281.035156 179.429688 Z M 48.777344 62.058594 L 251.542969 62.058594 L 251.542969 48.710938 L 48.777344 48.710938 Z M 68.535156 181.78125 L 68.535156 179.429688 L 207.925781 179.429688 L 206.777344 160.960938 L 220.132812 160.960938 L 219.925781 164.367188 C 222.449219 165.234375 224.273438 167.628906 224.273438 170.445312 C 224.273438 173.535156 222.085938 176.121094 219.179688 176.734375 L 219.003906 179.429688 L 228.703125 179.429688 L 228.417969 172.757812 C 228.207031 172.699219 228.039062 172.53125 228.007812 172.304688 L 227.703125 169.996094 C 227.65625 169.667969 227.914062 169.371094 228.246094 169.371094 L 239.054688 169.371094 C 239.386719 169.371094 239.640625 169.667969 239.597656 169.996094 L 239.289062 172.304688 C 239.261719 172.53125 239.09375 172.703125 238.882812 172.757812 L 238.101562 179.433594 L 251.542969 179.433594 L 251.542969 63.582031 L 48.777344 63.582031 L 48.777344 181.78125 Z M 222.566406 170.445312 C 222.566406 168.546875 221.4375 166.910156 219.816406 166.164062 L 219.289062 174.941406 C 221.1875 174.332031 222.566406 172.546875 222.566406 170.445312 Z M 103.773438 71.460938 L 86.84375 82.675781 L 103.773438 98.492188 Z M 102.40625 70.554688 L 59.519531 70.554688 L 80.964844 84.765625 Z M 103.773438 70.554688 Z M 80.964844 86.574219 L 76.625 83.699219 L 59.273438 99.523438 L 102.667969 99.523438 L 85.554688 83.53125 Z M 103.773438 99.519531 Z M 58.15625 71.460938 L 58.15625 98.503906 L 75.328125 82.839844 Z M 322.03125 134.816406 L 301.773438 148.242188 L 322.03125 167.171875 Z M 295.03125 150.902344 L 320.667969 133.914062 L 269.390625 133.914062 Z M 295.03125 152.707031 L 289.878906 149.296875 L 269.148438 168.203125 L 320.929688 168.203125 L 300.480469 149.097656 Z M 268.027344 168.203125 Z M 268.027344 167.183594 L 288.585938 148.4375 L 268.027344 134.816406 Z M 77.699219 123.757812 C 75.945312 123.757812 74.519531 125.1875 74.519531 126.945312 C 74.519531 128.703125 75.945312 130.128906 77.699219 130.128906 C 79.457031 130.128906 80.882812 128.703125 80.882812 126.945312 C 80.882812 125.183594 79.457031 123.757812 77.699219 123.757812 Z M 77.699219 123.757812 " fill-opacity="1" fill-rule="nonzero"/></g><g clip-path="url(#1efc964211)"><path fill="#26b1d8" d="M 209.410156 273.089844 L 211.902344 284.25 L 186.066406 284.25 C 186.066406 284.25 186.914062 280.988281 192.101562 279.898438 C 194.261719 279.445312 198.261719 279.535156 199.707031 275.425781 C 199.945312 274.757812 199.992188 273.945312 199.929688 273.089844 Z M 164.367188 273.265625 C 164.296875 273.929688 164.179688 274.558594 163.988281 275.101562 C 162.539062 279.210938 157.566406 279.445312 155.410156 279.898438 C 150.21875 280.984375 149.371094 284.25 149.371094 284.25 L 175.207031 284.25 L 174.335938 273.265625 Z M 179.800781 97.046875 C 179.800781 97.046875 177.949219 106.472656 166.773438 97.921875 L 155.871094 103.433594 C 152.273438 105.253906 149.472656 108.335938 148.003906 112.097656 L 143.003906 124.890625 L 155.589844 129.089844 C 155.589844 129.089844 155.207031 137.335938 155.148438 143.996094 C 155.101562 148.863281 155.089844 164.734375 155.089844 164.734375 C 155.089844 164.734375 178.273438 170.523438 197.753906 163.761719 C 197.753906 163.761719 195.601562 149.414062 195.0625 143.144531 C 194.113281 132.078125 194.433594 124.46875 194.433594 124.46875 L 200.597656 128.191406 L 208.6875 113.792969 L 197.363281 104.140625 C 195.757812 102.773438 193.902344 101.730469 191.902344 101.066406 Z M 347.074219 116.726562 C 347.074219 116.726562 341.851562 96.160156 339.035156 89.304688 C 339.019531 89.265625 336.941406 84.304688 330.605469 82.183594 L 323.726562 79.796875 C 323.726562 79.796875 314.726562 89.101562 313.519531 82.648438 L 305.226562 87.070312 C 304.242188 87.710938 291.769531 100.097656 291.769531 100.097656 L 269.960938 89.707031 L 265.933594 100.78125 L 291.800781 114.984375 C 293.007812 115.617188 294.09375 115.683594 295.589844 114.96875 C 295.734375 114.898438 295.875 114.8125 296.003906 114.726562 L 304.089844 109.347656 L 306.335938 107.847656 L 306.457031 107.777344 C 306.457031 107.777344 306.476562 107.90625 306.503906 108.140625 C 306.539062 108.40625 306.589844 108.8125 306.648438 109.285156 C 306.859375 110.976562 307.164062 113.574219 307.152344 114.238281 C 307.105469 116.191406 305.640625 121.472656 305.328125 122.570312 L 342.332031 122.570312 C 347.800781 121.101562 347.074219 116.726562 347.074219 116.726562 Z M 257.566406 90.96875 L 238.25 103.28125 L 231.933594 93.351562 C 232.367188 90.628906 231.1875 88.941406 230.316406 88.101562 C 229.984375 87.777344 229.429688 87.988281 229.382812 88.449219 L 229.304688 89.21875 L 215.914062 68.15625 L 243.035156 50.867188 L 260.898438 78.953125 C 260.917969 79.15625 260.953125 79.363281 261.03125 79.554688 C 261.375 80.386719 264.085938 86.21875 264.085938 86.21875 L 257.546875 90.960938 C 257.546875 90.964844 257.558594 90.964844 257.566406 90.96875 Z M 223.507812 72.007812 L 231.746094 66.722656 L 231.253906 65.949219 L 223.011719 71.238281 Z M 225.351562 74.5625 L 244.921875 62.011719 L 244.425781 61.238281 L 224.855469 73.792969 Z M 227.046875 77.214844 L 246.617188 64.664062 L 246.125 63.890625 L 226.554688 76.445312 Z M 248.3125 67.3125 L 247.820312 66.542969 L 228.25 79.097656 L 228.746094 79.867188 Z M 230.441406 82.519531 L 250.011719 69.964844 L 249.519531 69.195312 L 229.949219 81.75 Z M 232.136719 85.171875 L 251.707031 72.617188 L 251.214844 71.847656 L 231.644531 84.402344 Z M 233.835938 87.824219 L 253.40625 75.269531 L 252.914062 74.5 L 233.34375 87.054688 Z M 255.101562 77.921875 L 254.609375 77.152344 L 235.039062 89.707031 L 235.53125 90.476562 Z M 334.636719 167.179688 C 334.636719 173.171875 329.785156 178.03125 323.800781 178.03125 C 317.816406 178.03125 312.964844 173.171875 312.964844 167.179688 C 312.964844 161.191406 317.816406 156.332031 323.800781 156.332031 C 329.785156 156.332031 334.636719 161.191406 334.636719 167.179688 Z M 332.683594 167.179688 C 332.683594 162.269531 328.707031 158.285156 323.800781 158.285156 C 318.894531 158.285156 314.914062 162.269531 314.914062 167.179688 C 314.914062 172.09375 318.894531 176.078125 323.800781 176.078125 C 328.707031 176.078125 332.683594 172.09375 332.683594 167.179688 Z M 327.132812 168.4375 L 327.132812 166.472656 C 327.132812 164.957031 326.121094 163.675781 324.738281 163.269531 L 324.738281 162.484375 C 324.738281 161.972656 324.34375 161.542969 323.835938 161.523438 C 323.300781 161.503906 322.863281 161.929688 322.863281 162.460938 L 322.863281 163.269531 C 321.480469 163.675781 320.46875 164.957031 320.46875 166.472656 L 320.46875 168.433594 L 319.121094 170.222656 C 318.964844 170.429688 319.113281 170.722656 319.371094 170.722656 L 328.230469 170.722656 C 328.488281 170.722656 328.632812 170.429688 328.480469 170.222656 Z M 325.347656 171.269531 L 322.253906 171.269531 C 322.253906 171.277344 322.253906 171.285156 322.253906 171.292969 C 322.253906 172.148438 322.945312 172.839844 323.800781 172.839844 C 324.652344 172.839844 325.34375 172.144531 325.34375 171.292969 C 325.347656 171.285156 325.347656 171.277344 325.347656 171.269531 Z M 141.300781 148.148438 L 149.761719 176.113281 L 151.691406 176.113281 L 143.359375 148.574219 C 143.140625 147.851562 142.472656 147.355469 141.71875 147.355469 L 140.785156 147.355469 C 141.019531 147.5625 141.203125 147.832031 141.300781 148.148438 Z M 141.300781 148.148438 " fill-opacity="1" fill-rule="nonzero"/></g><path fill="#293237" d="M 313.402344 82.710938 L 306.089844 86.613281 C 305.949219 84.496094 306.535156 81.875 308.917969 79.0625 C 310.21875 81.511719 312.277344 81.164062 313.152344 80.871094 C 313.410156 80.789062 313.566406 80.707031 313.566406 80.707031 Z M 307.871094 69.839844 C 307.871094 69.839844 308.4375 66.75 310.574219 65.742188 C 310.574219 65.742188 313.601562 70.84375 319.523438 71.726562 C 319.523438 71.726562 321.285156 69.074219 322.671875 71.21875 C 322.671875 71.21875 323.453125 73.363281 321.558594 75.003906 L 323.609375 79.917969 C 323.683594 79.839844 323.726562 79.792969 323.726562 79.792969 L 330.605469 82.179688 C 334.796875 83.585938 337.117188 86.226562 338.21875 87.867188 C 338.878906 86.179688 339.261719 84.207031 338.800781 82.140625 C 337.542969 76.464844 333.238281 74.328125 330.359375 73.308594 C 326.296875 71.871094 325.039062 70.324219 324.4375 68.515625 C 322.535156 62.800781 320.1875 61.5625 319.363281 61.089844 C 314.757812 58.449219 309.207031 61.390625 307.429688 63.597656 C 304.699219 66.976562 306.316406 71.023438 307.78125 73.441406 C 307.75 72.386719 307.773438 71.199219 307.871094 69.839844 Z M 182.386719 72.351562 C 182.386719 72.351562 183.730469 66.183594 174.0625 71.949219 C 174.0625 71.949219 173.761719 66.140625 165.875 74.308594 C 165.875 74.308594 158.171875 75.261719 165.089844 85.992188 C 165.089844 85.992188 167.214844 84.222656 168.492188 87.480469 C 168.492188 87.480469 169.828125 86.582031 170.046875 85.460938 C 170.265625 84.339844 170.515625 83.773438 169.777344 80.207031 C 169.777344 80.207031 188.335938 80.359375 183.953125 75.875 C 183.953125 75.875 186.585938 73.242188 182.386719 72.351562 Z M 306.65625 99.675781 L 307.027344 109.269531 C 307.035156 109.476562 306.871094 109.652344 306.664062 109.660156 C 306.660156 109.660156 306.652344 109.660156 306.648438 109.660156 C 306.449219 109.660156 306.28125 109.503906 306.273438 109.300781 L 305.902344 99.707031 C 305.894531 99.496094 306.054688 99.320312 306.261719 99.3125 C 306.269531 99.3125 306.273438 99.3125 306.277344 99.3125 C 306.480469 99.3125 306.648438 99.472656 306.65625 99.675781 Z M 162.765625 54.847656 L 165.820312 60.136719 L 169.59375 54.847656 L 188.15625 54.847656 C 191.464844 54.847656 194.148438 52.160156 194.148438 48.851562 L 194.148438 38.527344 C 194.148438 35.21875 191.464844 32.53125 188.15625 32.53125 L 162.765625 32.53125 C 159.464844 32.53125 156.777344 35.21875 156.777344 38.527344 L 156.777344 48.851562 C 156.777344 52.160156 159.464844 54.847656 162.765625 54.847656 Z M 182.863281 40.847656 C 184.230469 40.847656 185.339844 41.957031 185.339844 43.328125 C 185.339844 44.695312 184.230469 45.804688 182.863281 45.804688 C 181.496094 45.804688 180.386719 44.695312 180.386719 43.328125 C 180.386719 41.957031 181.496094 40.847656 182.863281 40.847656 Z M 175.460938 40.847656 C 176.828125 40.847656 177.9375 41.957031 177.9375 43.328125 C 177.9375 44.695312 176.828125 45.804688 175.460938 45.804688 C 174.09375 45.804688 172.988281 44.695312 172.988281 43.328125 C 172.988281 41.957031 174.09375 40.847656 175.460938 40.847656 Z M 168.0625 40.847656 C 169.429688 40.847656 170.535156 41.957031 170.535156 43.328125 C 170.535156 44.695312 169.429688 45.804688 168.0625 45.804688 C 166.695312 45.804688 165.585938 44.695312 165.585938 43.328125 C 165.585938 41.957031 166.695312 40.847656 168.0625 40.847656 Z M 231.933594 93.351562 L 236.398438 100.375 L 236.347656 100.3125 L 231.929688 93.398438 C 231.929688 93.382812 231.929688 93.367188 231.933594 93.351562 Z M 193.296875 111.867188 L 194.488281 130.792969 C 194.5 131 194.34375 131.179688 194.136719 131.191406 C 194.125 131.195312 194.117188 131.195312 194.113281 131.195312 C 193.914062 131.195312 193.75 131.039062 193.734375 130.839844 L 192.546875 111.914062 C 192.53125 111.703125 192.691406 111.527344 192.898438 111.511719 C 193.128906 111.488281 193.285156 111.660156 193.296875 111.867188 Z M 330.519531 115.734375 L 312.507812 122.753906 C 312.460938 122.773438 312.414062 122.78125 312.371094 122.78125 C 312.21875 122.78125 312.078125 122.6875 312.019531 122.539062 C 311.941406 122.347656 312.039062 122.128906 312.230469 122.054688 L 330.269531 115.023438 C 332.28125 114.402344 333.457031 112.40625 333.03125 110.375 L 330.90625 100.1875 C 330.863281 99.984375 330.992188 99.785156 331.195312 99.742188 C 331.402344 99.695312 331.601562 99.828125 331.640625 100.035156 L 333.769531 110.21875 C 334.273438 112.636719 332.875 115.007812 330.519531 115.734375 Z M 296.238281 16.078125 L 270.847656 16.078125 C 267.542969 16.078125 264.859375 18.769531 264.859375 22.078125 L 264.859375 32.398438 C 264.859375 35.710938 267.542969 38.398438 270.847656 38.398438 L 289.414062 38.398438 L 293.1875 43.6875 L 296.238281 38.398438 C 299.542969 38.398438 302.230469 35.710938 302.230469 32.398438 L 302.230469 22.078125 C 302.230469 18.769531 299.542969 16.078125 296.238281 16.078125 Z M 276.144531 29.355469 C 274.777344 29.355469 273.667969 28.246094 273.667969 26.875 C 273.667969 25.507812 274.777344 24.398438 276.144531 24.398438 C 277.511719 24.398438 278.617188 25.507812 278.617188 26.875 C 278.617188 28.246094 277.511719 29.355469 276.144531 29.355469 Z M 283.542969 29.355469 C 282.175781 29.355469 281.070312 28.246094 281.070312 26.875 C 281.070312 25.507812 282.175781 24.398438 283.542969 24.398438 C 284.910156 24.398438 286.019531 25.507812 286.019531 26.875 C 286.019531 28.246094 284.910156 29.355469 283.542969 29.355469 Z M 290.945312 29.355469 C 289.578125 29.355469 288.46875 28.246094 288.46875 26.875 C 288.46875 25.507812 289.578125 24.398438 290.945312 24.398438 C 292.3125 24.398438 293.417969 25.507812 293.417969 26.875 C 293.417969 28.246094 292.3125 29.355469 290.945312 29.355469 Z M 103.578125 179.5 L 103.578125 179.058594 C 103.265625 178.839844 103.019531 178.519531 102.902344 178.132812 L 94.132812 149.160156 C 93.796875 148.042969 94.628906 146.914062 95.792969 146.914062 L 139.636719 146.914062 C 140.402344 146.914062 141.078125 147.417969 141.300781 148.148438 L 149.761719 176.113281 L 156.265625 176.113281 L 156.296875 165.007812 C 161.011719 166.011719 178.832031 169.230469 195.023438 164.613281 C 195.976562 168.816406 196.71875 174.203125 197.28125 179.429688 L 171.023438 179.429688 L 171.023438 179.5 Z M 198.730469 198.160156 L 212.175781 273.089844 L 196.449219 273.089844 L 177.507812 206.207031 L 176.90625 273.265625 L 161.179688 273.265625 L 156.207031 196.210938 L 156.238281 186.132812 L 197.917969 186.132812 C 198.488281 192.898438 198.730469 198.160156 198.730469 198.160156 Z M 237.054688 50.011719 L 239.542969 53.089844 L 215.914062 68.15625 L 229.304688 89.21875 L 229.09375 91.339844 L 212.058594 70.265625 Z M 155.296875 129.527344 C 155.496094 126.769531 156.503906 112.972656 156.714844 112.332031 C 156.78125 112.132812 156.992188 112.023438 157.191406 112.09375 C 157.386719 112.15625 157.492188 112.367188 157.429688 112.5625 C 157.273438 113.175781 156.519531 123.070312 156.046875 129.582031 C 156.03125 129.78125 155.867188 129.933594 155.671875 129.933594 C 155.664062 129.933594 155.65625 129.933594 155.644531 129.929688 C 155.4375 129.914062 155.28125 129.734375 155.296875 129.527344 Z M 155.296875 129.527344 " fill-opacity="1" fill-rule="nonzero"/><path fill="#f5c0a2" d="M 237.519531 102.148438 C 237.519531 102.148438 236.820312 102.84375 234.371094 103.542969 L 217.597656 129.441406 C 217.597656 129.441406 215.445312 133.277344 211.132812 131.015625 C 209.011719 129.902344 207.007812 128.792969 205.230469 127.769531 C 204.007812 127.070312 202.898438 126.414062 201.921875 125.832031 L 208.457031 114.199219 L 209.332031 114.992188 L 210.609375 116.144531 L 228.433594 97.945312 L 229.382812 88.449219 C 229.429688 87.988281 229.984375 87.777344 230.316406 88.101562 C 231.195312 88.945312 232.386719 90.644531 231.929688 93.398438 Z M 313.152344 80.871094 C 313.410156 80.789062 313.566406 80.707031 313.566406 80.707031 L 313.402344 82.710938 L 313.523438 82.648438 C 314.648438 88.667969 322.550781 80.980469 323.609375 79.917969 L 321.558594 75.007812 C 323.449219 73.367188 322.671875 71.21875 322.671875 71.21875 C 321.285156 69.078125 319.523438 71.726562 319.523438 71.726562 C 313.601562 70.84375 310.574219 65.742188 310.574219 65.742188 C 308.433594 66.75 307.867188 69.84375 307.867188 69.84375 C 307.015625 82 311.703125 81.351562 313.152344 80.871094 Z M 267.546875 96.34375 L 269.921875 89.820312 L 269.382812 89.507812 L 268.738281 89.132812 L 266.511719 82.789062 L 261.675781 78.25 C 261.382812 77.972656 260.894531 78.167969 260.878906 78.570312 C 260.867188 78.886719 260.902344 79.238281 261.03125 79.554688 C 261.375 80.386719 264.085938 86.21875 264.085938 86.21875 L 257.546875 90.960938 C 257.546875 90.960938 260.347656 92.046875 262.058594 92.390625 L 265.8125 95.09375 L 266.453125 95.554688 Z M 165.96875 90.535156 C 167.160156 91.613281 168.589844 91.167969 168.589844 91.167969 L 166.722656 97.949219 L 166.773438 97.921875 C 177.949219 106.472656 179.800781 97.046875 179.800781 97.046875 L 179.839844 97.058594 L 179.269531 95.152344 L 179.269531 95.136719 L 179.261719 95.105469 C 185.902344 94.964844 183 83.992188 181.414062 79.210938 C 177.050781 80.265625 169.777344 80.207031 169.777344 80.207031 C 170.515625 83.773438 170.265625 84.339844 170.046875 85.460938 C 169.828125 86.582031 168.492188 87.480469 168.492188 87.480469 C 167.347656 84.5625 165.53125 85.675781 165.164062 85.941406 C 163.640625 87.453125 164.65625 89.347656 165.96875 90.535156 Z M 141.300781 148.148438 L 143.070312 153.992188 Z M 141.085938 147.703125 C 141.09375 147.710938 141.097656 147.722656 141.105469 147.730469 C 141.097656 147.722656 141.09375 147.710938 141.085938 147.703125 Z M 144.101562 125.257812 L 143.65625 126.5 L 138.332031 141.261719 L 134.839844 146.914062 L 139.636719 146.914062 C 140.074219 146.914062 140.476562 147.082031 140.785156 147.355469 L 141.71875 147.355469 C 142.472656 147.355469 143.140625 147.851562 143.359375 148.574219 L 144.410156 152.050781 L 148.722656 145.816406 L 154.84375 133.097656 L 155.476562 131.789062 C 155.539062 130.140625 155.589844 129.089844 155.589844 129.089844 Z M 144.101562 125.257812 " fill-opacity="1" fill-rule="nonzero"/></svg>