<svg xmlns="http://www.w3.org/2000/svg" xmlns:xlink="http://www.w3.org/1999/xlink" width="540" zoomAndPan="magnify" viewBox="0 0 404.88 299.999988" height="400" preserveAspectRatio="xMidYMid meet" version="1.0"><defs><clipPath id="3ebaa1d288"><path d="M 54.203125 16.046875 L 350.363281 16.046875 L 350.363281 283.71875 L 54.203125 283.71875 Z M 54.203125 16.046875 " clip-rule="nonzero"/></clipPath><clipPath id="ed4dbe237f"><path d="M 55 16.046875 L 350.363281 16.046875 L 350.363281 283.71875 L 55 283.71875 Z M 55 16.046875 " clip-rule="nonzero"/></clipPath><clipPath id="b0c47a4fe3"><path d="M 54.203125 16.046875 L 350.363281 16.046875 L 350.363281 283.71875 L 54.203125 283.71875 Z M 54.203125 16.046875 " clip-rule="nonzero"/></clipPath><clipPath id="2b000916c6"><path d="M 75 80 L 334 80 L 334 283.71875 L 75 283.71875 Z M 75 80 " clip-rule="nonzero"/></clipPath></defs><g clip-path="url(#3ebaa1d288)"><path fill="#f5f5f5" d="M 350.351562 16.121094 L 55.339844 16.121094 L 55.339844 196.367188 L 94.359375 196.367188 L 78.683594 251.445312 L 79.390625 251.84375 L 75.503906 261.90625 L 86.351562 270.488281 L 54.203125 270.488281 L 54.203125 283.648438 L 150.925781 283.648438 L 150.925781 264.796875 L 104.554688 264.796875 L 104.554688 270.488281 L 95.292969 270.488281 C 95.054688 270.1875 93.0625 267.769531 89.5625 266.480469 L 86.957031 260.222656 L 86.953125 256.0625 L 84.167969 254.507812 L 91.105469 258.378906 L 109.472656 209.558594 C 109.488281 209.570312 109.496094 209.582031 109.515625 209.589844 C 109.5625 209.617188 109.617188 209.628906 109.667969 209.628906 C 109.65625 209.628906 109.648438 209.621094 109.640625 209.621094 L 106.703125 253.324219 L 108.925781 253.324219 L 106.992188 264.738281 L 129.808594 264.738281 C 129.808594 264.738281 129.0625 261.859375 124.476562 260.898438 C 122.570312 260.5 119.039062 260.578125 117.761719 256.953125 C 117.410156 255.960938 117.40625 254.625 117.535156 253.324219 L 120.855469 253.324219 L 127.757812 198.9375 C 127.867188 198.082031 127.84375 197.21875 127.699219 196.367188 L 260.824219 196.367188 C 261.046875 198.894531 261.875 200.777344 261.875 200.777344 L 276.382812 249.148438 L 282.667969 249.148438 C 282.988281 250.941406 283.199219 253.152344 282.675781 254.632812 C 281.34375 258.410156 277.664062 258.328125 275.679688 258.742188 C 275.152344 258.855469 274.683594 258.992188 274.25 259.144531 L 274.25 246.871094 L 257.039062 246.871094 L 257.039062 262.664062 L 257.039062 228.660156 L 201.660156 228.660156 L 201.660156 283.574219 L 278.375 283.574219 L 278.375 262.742188 L 278.375 283.574219 L 292.03125 283.574219 L 292.03125 262.742188 L 293.894531 262.742188 L 291.589844 249.148438 L 292.882812 249.148438 L 282.074219 200.492188 C 284.453125 199.078125 286.671875 197.703125 288.742188 196.367188 L 299.289062 196.367188 L 300.992188 207.464844 L 317.492188 270.628906 L 322.328125 270.628906 C 322.574219 272.269531 322.675781 274.113281 322.21875 275.402344 C 320.886719 279.179688 317.207031 279.097656 315.222656 279.515625 C 310.445312 280.515625 309.667969 283.515625 309.667969 283.515625 L 333.441406 283.515625 L 331.253906 270.628906 L 333.421875 270.628906 L 322.898438 205.757812 L 322.328125 196.367188 L 350.351562 196.367188 Z M 109.332031 209.257812 C 109.335938 209.21875 109.34375 209.175781 109.363281 209.136719 C 109.34375 209.175781 109.335938 209.214844 109.332031 209.257812 Z M 109.34375 209.371094 C 109.339844 209.359375 109.339844 209.347656 109.335938 209.335938 C 109.339844 209.347656 109.339844 209.359375 109.34375 209.371094 Z M 109.34375 209.371094 " fill-opacity="1" fill-rule="nonzero"/></g><g clip-path="url(#ed4dbe237f)"><path fill="#f5f5f5" d="M 350.351562 16.121094 L 350.351562 196.367188 L 55.339844 196.367188 L 55.339844 16.121094 Z M 278.375 283.578125 L 278.375 262.664062 L 257.039062 262.664062 L 257.039062 246.871094 L 235.132812 246.871094 L 235.132812 228.664062 L 201.660156 228.664062 L 201.660156 283.574219 L 278.375 283.574219 Z M 150.925781 283.648438 L 150.925781 264.796875 L 116.789062 264.796875 L 116.789062 270.488281 L 66.433594 270.488281 L 66.433594 283.648438 Z M 150.925781 283.648438 " fill-opacity="1" fill-rule="nonzero"/></g><g clip-path="url(#b0c47a4fe3)"><path fill="#e0e0e0" d="M 104.554688 264.796875 L 116.789062 264.796875 L 116.789062 270.488281 L 104.554688 270.488281 Z M 94.503906 133.347656 L 154.53125 133.347656 L 154.53125 176.59375 L 94.503906 176.59375 Z M 103.75 150.988281 L 145.285156 150.988281 L 145.285156 143.875 L 103.75 143.875 Z M 103.75 165.496094 L 145.285156 165.496094 L 145.285156 158.382812 L 103.75 158.382812 Z M 54.203125 283.648438 L 66.433594 283.648438 L 66.433594 270.488281 L 54.203125 270.488281 Z M 278.375 283.578125 L 292.03125 283.578125 L 292.03125 262.664062 L 278.375 262.664062 Z M 68.121094 41.457031 L 338.527344 41.457031 L 338.527344 98.585938 L 330.757812 98.585938 L 330.996094 101.253906 L 79.375 123.699219 L 77.132812 98.585938 L 68.121094 98.585938 Z M 313.890625 67.800781 L 305.71875 65.230469 L 305.121094 67.128906 L 310.390625 68.785156 L 267.304688 97.332031 L 241.273438 83.824219 C 241.367188 83.414062 241.398438 82.984375 241.359375 82.542969 C 241.15625 80.273438 239.152344 78.597656 236.882812 78.800781 C 234.613281 79 232.941406 81.007812 233.140625 83.273438 C 233.179688 83.707031 233.285156 84.113281 233.441406 84.492188 L 214.921875 99.703125 C 214.25 99.179688 213.394531 98.890625 212.480469 98.972656 C 211.316406 99.078125 210.34375 99.746094 209.789062 100.683594 L 184.710938 92.988281 L 161.90625 98.878906 C 161.238281 97.777344 159.992188 97.085938 158.625 97.207031 C 157.636719 97.292969 156.785156 97.792969 156.214844 98.511719 L 121.722656 83.546875 L 87.921875 106.488281 L 89.042969 108.136719 L 121.933594 85.8125 L 155.472656 100.359375 C 155.453125 100.566406 155.445312 100.773438 155.464844 100.988281 C 155.632812 102.902344 157.328125 104.320312 159.246094 104.148438 C 161.011719 103.992188 162.335938 102.535156 162.398438 100.808594 L 184.664062 95.058594 L 209.316406 102.621094 C 209.320312 102.664062 209.3125 102.707031 209.316406 102.753906 C 209.488281 104.671875 211.179688 106.085938 213.097656 105.914062 C 215.011719 105.746094 216.429688 104.050781 216.257812 102.132812 C 216.234375 101.851562 216.164062 101.585938 216.078125 101.328125 L 234.628906 86.09375 C 235.4375 86.757812 236.492188 87.117188 237.617188 87.019531 C 238.730469 86.917969 239.695312 86.386719 240.371094 85.601562 L 267.425781 99.640625 L 311.652344 70.339844 L 311.121094 75.988281 L 313.101562 76.175781 Z M 70.28125 96.425781 L 76.941406 96.425781 L 74.976562 74.386719 L 326.601562 51.941406 L 330.566406 96.425781 L 336.371094 96.425781 L 336.371094 43.617188 L 70.28125 43.617188 Z M 350.351562 16.121094 L 350.351562 30.0625 L 55.339844 30.0625 L 55.339844 16.121094 Z M 67.773438 23.152344 C 67.773438 21.917969 66.773438 20.917969 65.539062 20.917969 C 64.304688 20.917969 63.304688 21.917969 63.304688 23.152344 C 63.304688 24.386719 64.304688 25.386719 65.539062 25.386719 C 66.773438 25.386719 67.773438 24.386719 67.773438 23.152344 Z M 75.21875 23.152344 C 75.21875 21.917969 74.21875 20.917969 72.984375 20.917969 C 71.75 20.917969 70.75 21.917969 70.75 23.152344 C 70.75 24.386719 71.75 25.386719 72.984375 25.386719 C 74.21875 25.386719 75.21875 24.386719 75.21875 23.152344 Z M 82.664062 23.152344 C 82.664062 21.917969 81.664062 20.917969 80.429688 20.917969 C 79.195312 20.917969 78.195312 21.917969 78.195312 23.152344 C 78.195312 24.386719 79.195312 25.386719 80.429688 25.386719 C 81.664062 25.386719 82.664062 24.386719 82.664062 23.152344 Z M 257.039062 262.664062 L 274.25 262.664062 L 274.25 246.871094 L 257.039062 246.871094 Z M 235.132812 228.664062 L 235.132812 246.871094 L 257.039062 246.871094 L 257.039062 228.664062 Z M 173.542969 133.488281 L 233.570312 133.488281 L 233.570312 176.738281 L 173.542969 176.738281 Z M 190.183594 144.726562 L 214.292969 144.726562 L 214.292969 141.882812 L 190.183594 141.882812 Z M 190.183594 152.835938 L 226.457031 152.835938 L 226.457031 149.992188 L 190.183594 149.992188 Z M 190.183594 160.804688 L 226.457031 160.804688 L 226.457031 157.957031 L 190.183594 157.957031 Z M 190.183594 168.769531 L 226.457031 168.769531 L 226.457031 165.925781 L 190.183594 165.925781 Z M 179.515625 145.78125 L 184.355469 145.78125 L 184.355469 141.027344 L 179.515625 141.027344 Z M 179.515625 153.75 L 184.355469 153.75 L 184.355469 148.996094 L 179.515625 148.996094 Z M 179.515625 161.714844 L 184.355469 161.714844 L 184.355469 156.960938 L 179.515625 156.960938 Z M 179.515625 169.683594 L 184.355469 169.683594 L 184.355469 164.929688 L 179.515625 164.929688 Z M 109.667969 209.628906 C 109.789062 209.628906 109.910156 209.558594 109.96875 209.441406 C 114.238281 200.902344 116.46875 179.449219 116.5625 178.539062 C 116.582031 178.351562 116.445312 178.183594 116.261719 178.167969 C 116.078125 178.144531 115.90625 178.28125 115.890625 178.46875 C 115.867188 178.691406 113.574219 200.710938 109.363281 209.136719 C 109.28125 209.304688 109.347656 209.507812 109.515625 209.589844 C 109.5625 209.617188 109.617188 209.628906 109.667969 209.628906 Z M 311.378906 177.058594 C 307.324219 183.488281 298.042969 190.316406 297.949219 190.382812 C 297.886719 190.429688 297.816406 190.449219 297.746094 190.449219 C 297.644531 190.449219 297.539062 190.402344 297.472656 190.3125 C 297.363281 190.160156 297.398438 189.949219 297.546875 189.835938 C 297.640625 189.769531 306.644531 183.144531 310.6875 176.878906 L 251.066406 176.878906 L 251.066406 133.628906 L 311.089844 133.628906 L 311.089844 176.546875 C 311.152344 176.546875 311.214844 176.554688 311.273438 176.59375 C 311.429688 176.691406 311.476562 176.902344 311.378906 177.058594 Z M 257.890625 142.734375 L 269.273438 142.734375 L 269.273438 140.175781 L 257.890625 140.175781 Z M 304.261719 154.117188 L 257.890625 154.117188 L 257.890625 167.773438 L 304.261719 167.773438 Z M 304.261719 145.863281 L 257.890625 145.863281 L 257.890625 148.425781 L 304.261719 148.425781 Z M 304.261719 145.863281 " fill-opacity="1" fill-rule="nonzero"/></g><path fill="#f5c0a2" d="M 128.363281 137.507812 L 127.0625 139.402344 L 126.9375 139.289062 Z M 146.417969 117.644531 L 135.707031 118.699219 L 127.527344 128.203125 L 126.804688 129.042969 L 131.035156 133.597656 L 131.972656 132.230469 L 138.964844 122.011719 L 142.921875 120.742188 C 144.933594 120.308594 146.171875 119.1875 146.820312 118.398438 C 147.078125 118.078125 146.832031 117.601562 146.417969 117.644531 Z M 168.726562 115.65625 L 159.925781 116.058594 C 161.75 115.128906 162.449219 114.128906 162.710938 113.515625 C 162.824219 113.253906 162.605469 112.972656 162.324219 113.011719 C 161.339844 113.148438 159.296875 113.496094 158.320312 114.117188 C 157 114.957031 155.34375 117.003906 155.34375 117.003906 L 132.433594 135.054688 L 131.617188 134.429688 L 131.121094 134.050781 L 125.09375 141.589844 C 125.839844 142.140625 126.652344 142.730469 127.394531 143.253906 C 128.066406 143.726562 128.679688 144.140625 129.117188 144.410156 C 131.191406 145.6875 133.289062 148.425781 138.652344 142.390625 L 160.308594 120.050781 C 160.308594 120.050781 165.789062 118.488281 167.339844 117.625 C 168.085938 117.210938 168.644531 116.730469 169.03125 116.339844 C 169.285156 116.082031 169.089844 115.640625 168.726562 115.65625 Z M 116.019531 105.414062 C 115.835938 106.09375 115.496094 106.839844 114.964844 107.664062 C 114.964844 107.664062 115.6875 109.851562 114.320312 110.988281 C 114.320312 110.988281 114.03125 110.335938 113.5625 110.007812 C 113.074219 109.664062 112.191406 109.433594 111.640625 110.359375 C 110.90625 111.601562 111.894531 112.710938 112.5625 113.121094 C 113.621094 113.773438 111.046875 115.988281 113.171875 117.578125 C 113.933594 118.148438 114.300781 118.804688 114.464844 119.496094 L 115.140625 116.644531 C 115.140625 116.644531 121.03125 116.351562 116.019531 105.414062 Z M 300.253906 113.855469 L 300.257812 113.925781 L 300.320312 115.539062 L 300.371094 116.820312 L 309.636719 114.921875 C 309.902344 114.867188 310.171875 114.875 310.433594 114.921875 L 310.171875 111.308594 L 310.171875 111.304688 L 310.171875 111.308594 C 304.851562 112.828125 304.277344 107.152344 304.277344 107.152344 C 305.90625 107.695312 306.855469 105.273438 306.855469 105.273438 C 307.308594 104.003906 307.046875 103.308594 306.582031 102.933594 C 306.007812 102.464844 305.179688 102.535156 304.617188 103.015625 C 304.035156 103.511719 303.609375 104.214844 303.371094 104.683594 C 303.230469 104.957031 302.898438 105.070312 302.617188 104.945312 C 302.453125 104.871094 302.335938 104.726562 302.289062 104.554688 C 301.957031 103.332031 302.117188 102.183594 302.34375 101.355469 C 300.363281 100.554688 298.929688 99.394531 297.941406 98.125 C 297.941406 98.125 297.941406 98.125 297.941406 98.128906 C 297.390625 99.472656 292.058594 113.089844 300.253906 113.855469 Z M 263.675781 110.347656 L 268.757812 110.945312 L 270.328125 112.9375 L 271.136719 113.960938 L 276.636719 110.5 L 276.492188 110.34375 L 272.949219 106.457031 L 259.339844 107.546875 C 258.902344 107.59375 258.734375 108.15625 259.082031 108.425781 C 259.855469 109.023438 261.273438 109.832031 263.675781 110.347656 Z M 250.792969 111.507812 L 250 111.035156 L 246.761719 109.097656 C 246.761719 109.097656 244.238281 107.105469 242.441406 106.457031 C 241.125 105.980469 238.648438 106.101562 237.417969 106.203125 C 237.046875 106.230469 236.847656 106.664062 237.074219 106.960938 C 237.574219 107.617188 238.675781 108.59375 241.042969 109.199219 L 230.261719 110.207031 C 229.773438 110.25 229.550781 110.832031 229.878906 111.195312 C 230.480469 111.855469 231.433594 112.699219 232.617188 113.054688 C 234.695312 113.667969 241.578125 113.71875 241.578125 113.71875 L 245.367188 116.496094 L 247.382812 117.972656 Z M 250.792969 111.507812 " fill-opacity="1" fill-rule="nonzero"/><g clip-path="url(#2b000916c6)"><path fill="#26b1d8" d="M 179.515625 156.960938 L 184.355469 156.960938 L 184.355469 161.714844 L 179.515625 161.714844 Z M 179.515625 169.683594 L 184.355469 169.683594 L 184.355469 164.929688 L 179.515625 164.929688 Z M 267.578125 101.914062 C 269.496094 101.742188 270.910156 100.050781 270.742188 98.132812 C 270.570312 96.214844 268.875 94.800781 266.960938 94.96875 C 265.042969 95.140625 263.628906 96.835938 263.796875 98.75 C 263.96875 100.667969 265.660156 102.085938 267.578125 101.914062 Z M 121.53125 88.804688 C 123.800781 88.601562 125.476562 86.597656 125.273438 84.328125 C 125.070312 82.058594 123.066406 80.382812 120.796875 80.585938 C 118.53125 80.789062 116.855469 82.792969 117.054688 85.058594 C 117.257812 87.328125 119.261719 89.003906 121.53125 88.804688 Z M 119.5625 121.605469 C 118.644531 121.039062 116.984375 120.179688 114.429688 119.363281 C 114.980469 121.355469 113.636719 123.640625 114.769531 124.796875 C 116.269531 126.324219 117.652344 129.105469 117.257812 131.972656 C 116.859375 134.882812 112.40625 141.039062 100.949219 138.953125 C 98.804688 138.5625 96.425781 137.566406 94.429688 136.242188 C 93.820312 143.40625 92.695312 156.976562 91.957031 167.949219 C 91.957031 167.949219 104.269531 174.601562 123.160156 165.640625 L 122.011719 140.773438 L 124.347656 142.53125 L 131.277344 133.859375 L 120.960938 122.757812 C 120.546875 122.3125 120.078125 121.925781 119.5625 121.605469 Z M 320.765625 126.234375 C 320.765625 126.234375 320.480469 121.109375 312.65625 116.414062 L 311.460938 115.390625 C 310.957031 114.960938 310.285156 114.785156 309.636719 114.917969 L 300.332031 116.828125 C 299.839844 116.929688 299.398438 117.199219 299.085938 117.59375 L 297.992188 118.964844 L 289.347656 121.503906 L 276.953125 110.296875 L 269.273438 115.136719 L 277.425781 125.007812 L 275.671875 125.519531 L 251.207031 110.726562 L 245.800781 120.96875 L 269.410156 137.628906 C 270.523438 138.453125 271.863281 138.914062 273.246094 138.953125 L 291.320312 139.464844 L 287.191406 166.066406 C 287.191406 166.066406 306.253906 176.878906 322.46875 168.628906 Z M 331.253906 270.632812 L 322.332031 270.632812 C 322.574219 272.269531 322.675781 274.117188 322.222656 275.40625 C 320.886719 279.183594 317.207031 279.101562 315.222656 279.515625 C 310.445312 280.515625 309.667969 283.515625 309.667969 283.515625 L 333.441406 283.515625 Z M 282.671875 249.148438 C 282.992188 250.941406 283.199219 253.15625 282.675781 254.632812 C 281.34375 258.410156 277.664062 258.328125 275.679688 258.746094 C 270.902344 259.746094 270.125 262.746094 270.125 262.746094 L 293.898438 262.746094 L 291.589844 249.148438 Z M 183.9375 90.378906 C 181.667969 90.582031 179.992188 92.585938 180.191406 94.851562 C 180.394531 97.121094 182.398438 98.796875 184.667969 98.597656 C 186.9375 98.394531 188.613281 96.390625 188.410156 94.121094 C 188.207031 91.851562 186.207031 90.175781 183.9375 90.378906 Z M 257.890625 142.734375 L 269.273438 142.734375 L 269.273438 140.175781 L 257.890625 140.175781 Z M 124.480469 260.898438 C 122.574219 260.5 119.039062 260.578125 117.761719 256.953125 C 117.410156 255.960938 117.40625 254.625 117.535156 253.324219 L 108.925781 253.324219 L 106.992188 264.738281 L 129.808594 264.738281 C 129.808594 264.738281 129.066406 261.855469 124.480469 260.898438 Z M 89.5625 266.480469 L 86.957031 260.222656 L 86.953125 256.0625 L 79.390625 251.84375 L 75.503906 261.90625 L 86.390625 270.519531 L 95.316406 270.519531 C 95.316406 270.519531 93.296875 267.855469 89.5625 266.480469 Z M 89.5625 266.480469 " fill-opacity="1" fill-rule="nonzero"/></g><path fill="#293237" d="M 91.457031 127.179688 C 92.617188 126.109375 94.464844 126.675781 93.921875 121.242188 C 93.359375 115.617188 99.980469 116.023438 99.542969 112.527344 C 98.953125 107.8125 101.792969 99.03125 111.828125 99.984375 C 113.894531 100.179688 118.355469 102.425781 114.964844 107.664062 C 114.964844 107.664062 115.6875 109.851562 114.320312 110.988281 C 114.320312 110.988281 114.03125 110.335938 113.5625 110.007812 C 113.074219 109.664062 112.191406 109.433594 111.640625 110.363281 C 110.90625 111.601562 111.894531 112.710938 112.5625 113.121094 C 113.621094 113.773438 111.046875 115.992188 113.171875 117.578125 C 116.105469 119.769531 113.273438 123.269531 114.769531 124.796875 C 116.269531 126.324219 117.652344 129.105469 117.257812 131.972656 C 116.859375 134.882812 112.40625 141.039062 100.949219 138.953125 C 94.765625 137.828125 86.613281 131.644531 91.457031 127.179688 Z M 302.34375 101.355469 C 302.117188 102.183594 301.957031 103.335938 302.289062 104.554688 C 302.335938 104.726562 302.453125 104.871094 302.617188 104.945312 C 302.898438 105.070312 303.230469 104.957031 303.371094 104.683594 C 303.609375 104.214844 304.035156 103.511719 304.617188 103.015625 C 305.179688 102.535156 306.007812 102.464844 306.582031 102.933594 C 307.046875 103.308594 307.308594 104.003906 306.855469 105.273438 C 306.855469 105.273438 305.90625 107.695312 304.277344 107.152344 C 304.277344 107.152344 304.851562 112.828125 310.171875 111.308594 C 310.171875 111.308594 319.457031 103.175781 315.53125 97.714844 C 315.53125 97.714844 309.464844 86.378906 305.8125 88.703125 C 305.8125 88.703125 305.132812 89.164062 305.347656 90.074219 C 298.5 82.867188 298.066406 90.464844 298.066406 90.464844 C 295.191406 89.84375 294.695312 98.265625 302.34375 101.355469 Z M 322.898438 205.757812 L 320.691406 169.445312 C 304.890625 176.097656 287.195312 166.066406 287.195312 166.066406 L 287.222656 165.886719 L 263.011719 188.542969 C 258.746094 193.664062 261.875 200.777344 261.875 200.777344 L 276.382812 249.148438 L 292.882812 249.148438 L 282.074219 200.492188 C 288.214844 196.84375 293.285156 193.460938 297.503906 190.335938 C 297.496094 190.324219 297.480469 190.320312 297.476562 190.3125 C 297.363281 190.160156 297.398438 189.949219 297.546875 189.835938 C 297.640625 189.769531 306.820312 183.015625 310.804688 176.699219 C 310.90625 176.539062 311.117188 176.492188 311.273438 176.59375 C 311.429688 176.691406 311.476562 176.902344 311.378906 177.058594 C 307.792969 182.746094 300.117188 188.742188 298.328125 190.097656 L 300.992188 207.464844 L 317.492188 270.632812 L 333.421875 270.632812 Z M 275.671875 125.859375 C 275.703125 125.859375 275.734375 125.855469 275.765625 125.847656 L 290.652344 121.550781 C 290.832031 121.5 290.933594 121.3125 290.882812 121.132812 C 290.832031 120.953125 290.640625 120.84375 290.464844 120.898438 L 275.578125 125.195312 C 275.398438 125.246094 275.296875 125.433594 275.347656 125.613281 C 275.390625 125.761719 275.523438 125.859375 275.671875 125.859375 Z M 291.238281 139.792969 C 291.265625 139.800781 291.292969 139.800781 291.320312 139.800781 C 291.472656 139.800781 291.609375 139.699219 291.648438 139.542969 L 292.90625 134.425781 C 292.949219 134.246094 292.839844 134.0625 292.65625 134.019531 C 292.472656 133.976562 292.292969 134.085938 292.246094 134.265625 L 290.988281 139.382812 C 290.945312 139.5625 291.058594 139.75 291.238281 139.792969 Z M 117.386719 136.996094 L 121.785156 141.023438 C 121.847656 141.085938 121.929688 141.113281 122.011719 141.113281 C 122.105469 141.113281 122.195312 141.074219 122.261719 141.003906 C 122.390625 140.863281 122.378906 140.648438 122.242188 140.523438 L 117.84375 136.492188 C 117.707031 136.367188 117.492188 136.378906 117.363281 136.515625 C 117.238281 136.652344 117.246094 136.867188 117.386719 136.996094 Z M 121.929688 166.199219 C 108.335938 172.257812 98.320312 170.242188 94.128906 168.832031 C 93.898438 172.070312 93.652344 175.960938 93.589844 178.511719 C 93.414062 185.574219 94.40625 196.214844 94.40625 196.214844 L 78.683594 251.445312 L 91.105469 258.378906 L 109.472656 209.558594 C 109.339844 209.460938 109.289062 209.289062 109.363281 209.136719 C 113.574219 200.710938 115.867188 178.691406 115.890625 178.46875 C 115.90625 178.28125 116.078125 178.144531 116.261719 178.167969 C 116.445312 178.183594 116.582031 178.351562 116.5625 178.539062 C 116.46875 179.449219 114.238281 200.902344 109.96875 209.441406 C 109.910156 209.558594 109.789062 209.628906 109.667969 209.628906 C 109.65625 209.628906 109.648438 209.621094 109.640625 209.621094 L 106.703125 253.324219 L 120.855469 253.324219 L 127.761719 198.9375 C 127.875 198.027344 127.847656 197.105469 127.675781 196.203125 Z M 121.929688 166.199219 " fill-opacity="1" fill-rule="nonzero"/></svg>