<svg xmlns="http://www.w3.org/2000/svg" xmlns:xlink="http://www.w3.org/1999/xlink" width="540" zoomAndPan="magnify" viewBox="0 0 404.88 299.999988" height="400" preserveAspectRatio="xMidYMid meet" version="1.0"><defs><clipPath id="ae285e1fef"><path d="M 58 16.261719 L 346.59375 16.261719 L 346.59375 283.929688 L 58 283.929688 Z M 58 16.261719 " clip-rule="nonzero"/></clipPath><clipPath id="11351866a9"><path d="M 270 278 L 299 278 L 299 283.929688 L 270 283.929688 Z M 270 278 " clip-rule="nonzero"/></clipPath><clipPath id="87fbc5f7aa"><path d="M 58 16.261719 L 317 16.261719 L 317 275 L 58 275 Z M 58 16.261719 " clip-rule="nonzero"/></clipPath><clipPath id="2bd90c8558"><path d="M 59 16.261719 L 332 16.261719 L 332 275 L 59 275 Z M 59 16.261719 " clip-rule="nonzero"/></clipPath><clipPath id="51a588812e"><path d="M 112 77 L 346.59375 77 L 346.59375 275 L 112 275 Z M 112 77 " clip-rule="nonzero"/></clipPath><clipPath id="acaf787126"><path d="M 315 269 L 337 269 L 337 283.929688 L 315 283.929688 Z M 315 269 " clip-rule="nonzero"/></clipPath><clipPath id="20bfd9c813"><path d="M 270 278 L 299 278 L 299 283.929688 L 270 283.929688 Z M 270 278 " clip-rule="nonzero"/></clipPath></defs><path fill="#f5f5f5" d="M 59.4375 82.734375 L 129.800781 82.734375 L 129.800781 43.074219 L 59.4375 43.074219 Z M 59.4375 82.734375 " fill-opacity="1" fill-rule="nonzero"/><path fill="#f5f5f5" d="M 181.550781 144.367188 L 259.246094 144.367188 L 259.246094 179.128906 L 181.550781 179.128906 Z M 181.550781 144.367188 " fill-opacity="1" fill-rule="nonzero"/><g clip-path="url(#ae285e1fef)"><path fill="#f5f5f5" d="M 346.292969 186.003906 C 346.292969 185.996094 346.296875 185.992188 346.296875 185.984375 C 346.277344 185.554688 346.175781 184.417969 346.035156 183 L 346.03125 183 C 345.660156 179.257812 345.027344 173.546875 345.027344 173.542969 L 342.003906 146.417969 L 341.132812 131.714844 L 333.519531 132.027344 L 342.355469 131.667969 C 342.199219 129.105469 342.015625 126.542969 341.820312 123.980469 C 341.558594 120.957031 341.308594 117.9375 340.929688 114.921875 C 340.578125 112.082031 338.769531 109.785156 336.351562 108.667969 C 336.355469 108.648438 336.355469 108.632812 336.355469 108.632812 C 330.597656 106.140625 324.972656 104.515625 319.398438 103.761719 L 317.390625 91.386719 C 318.097656 90.84375 318.585938 90.097656 318.734375 89.21875 C 318.871094 88.40625 318.800781 87.625 318.574219 86.949219 C 320 83.136719 319.335938 78.832031 316.847656 75.625 L 316.847656 16.261719 L 143.738281 16.261719 L 143.738281 100.542969 L 125.148438 121.660156 L 119.09375 123.792969 L 116.191406 124.765625 L 114.972656 125.121094 C 114.886719 124.824219 114.792969 124.542969 114.695312 124.269531 C 115.058594 123.160156 115.457031 121.953125 114.84375 120.671875 C 116.761719 120.265625 123.136719 117.898438 118.679688 104.777344 C 118.679688 104.777344 118.679688 104.78125 118.679688 104.78125 C 120.800781 100.066406 116.5 97.464844 114.273438 97.027344 C 101.808594 94.582031 97.160156 105.257812 97.316406 111.246094 C 97.429688 115.691406 89.179688 114.359375 89.1875 121.492188 C 89.1875 124.3125 88.8125 125.820312 88.261719 126.703125 C 88.0625 126.914062 87.871094 127.140625 87.683594 127.375 C 86.957031 127.988281 86.089844 128.089844 85.359375 128.640625 C 83.210938 130.265625 82.664062 132.507812 83.300781 134.785156 C 74.824219 152.007812 71.171875 176.398438 71.171875 176.398438 C 72.007812 176.804688 72.828125 177.160156 73.644531 177.496094 C 73.644531 177.496094 73.644531 177.496094 73.640625 177.496094 C 72.949219 182.109375 72.242188 193.398438 80.570312 198.691406 L 58.21875 198.691406 L 58.21875 274.292969 L 127.839844 274.292969 L 127.839844 255.847656 L 127.945312 258.40625 L 130.234375 258.695312 L 130.058594 271.882812 L 159.125 277.210938 C 159.125 277.210938 158.847656 273.359375 153.230469 271.066406 C 150.894531 270.109375 147.210938 269.132812 144.605469 264.460938 C 143.996094 263.359375 143.382812 261.835938 142.835938 260.273438 L 146.304688 260.707031 L 146.261719 238.132812 L 155.8125 253.480469 L 158.339844 251.59375 L 164.019531 263.257812 L 188.039062 246.007812 C 188.039062 246.007812 185.082031 243.535156 179.53125 245.988281 C 177.222656 247.011719 173.566406 249.761719 169.484375 246.90625 C 168.769531 246.40625 168.09375 245.648438 167.476562 244.78125 L 169.910156 242.96875 L 146.410156 194.40625 L 146.789062 227.960938 L 146.402344 193.839844 C 146.398438 193.691406 146.3125 193.582031 146.175781 193.53125 L 146.140625 174.15625 C 146.140625 174.15625 147.78125 163.972656 134.199219 166.40625 C 129.769531 167.195312 122.410156 168.355469 114.328125 169.578125 L 114.925781 166.460938 C 114.953125 166.460938 114.984375 166.460938 115.007812 166.457031 C 115.195312 166.453125 115.347656 166.292969 115.339844 166.097656 C 115.339844 166.089844 115.335938 166.082031 115.335938 166.074219 L 138.894531 163.40625 L 139.007812 162.910156 L 145.6875 166.085938 C 146.378906 166.417969 147.269531 166 147.667969 165.152344 L 148.617188 163.152344 C 150.09375 163.058594 151.367188 162.886719 151.507812 162.777344 C 152.445312 162.257812 152.53125 161.320312 152.53125 161.320312 C 154.582031 160.058594 153.789062 158.890625 153.785156 158.742188 C 155.835938 157.324219 154.925781 155.75 154.925781 155.75 C 154.941406 155.742188 154.953125 155.734375 154.972656 155.726562 C 156.273438 154.929688 155.964844 152.929688 154.496094 152.515625 C 154.488281 152.515625 154.140625 152.484375 153.691406 152.445312 L 159.484375 140.222656 C 159.886719 139.378906 159.648438 138.425781 158.953125 138.09375 L 143.941406 130.949219 C 143.246094 130.621094 142.359375 131.039062 141.957031 131.882812 L 132.089844 152.703125 L 117.144531 152.320312 C 117.148438 152.132812 117.003906 151.972656 116.816406 151.964844 L 116.8125 151.964844 C 116.851562 150.839844 116.957031 147.027344 116.859375 142.417969 L 120.460938 140.789062 L 121.972656 140.101562 L 131.050781 135.535156 C 132 135.058594 132.835938 134.378906 133.5 133.542969 L 143.738281 121.445312 L 143.738281 128.335938 L 253.167969 128.335938 C 253.417969 128.660156 253.789062 128.890625 254.222656 128.941406 L 254.324219 128.9375 C 254.324219 128.945312 254.320312 128.953125 254.320312 128.960938 C 253.6875 129.164062 253.265625 129.792969 253.351562 130.476562 C 253.4375 131.179688 254.03125 131.710938 254.738281 131.71875 C 254.933594 131.71875 255.304688 131.683594 255.730469 131.640625 C 258.320312 132.351562 260.214844 132.699219 261.734375 132.738281 C 264.675781 139.214844 271.652344 154.527344 271.652344 154.527344 C 273.09375 157.777344 277.238281 158.988281 280.027344 156.792969 C 280.148438 156.699219 280.265625 156.597656 280.382812 156.492188 C 280.890625 156.023438 281.292969 155.480469 281.589844 154.894531 L 290.683594 135.453125 C 290.726562 135.539062 290.808594 135.597656 290.902344 135.625 C 291.308594 140.40625 291.585938 144.574219 291.585938 146.796875 C 291.585938 152.734375 290.6875 163.199219 290.6875 167.546875 C 290.6875 168.292969 291.042969 168.960938 291.597656 169.394531 L 291.421875 174.167969 C 291.441406 174.164062 291.460938 174.15625 291.480469 174.15625 C 291.289062 174.15625 291.132812 174.3125 291.132812 174.503906 C 291.132812 174.695312 291.289062 174.851562 291.480469 174.851562 C 291.742188 174.851562 291.992188 174.828125 292.234375 174.792969 C 291.992188 174.828125 291.742188 174.851562 291.480469 174.851562 C 291.449219 174.851562 291.425781 174.84375 291.398438 174.835938 L 289.859375 216.808594 L 288.148438 257.046875 C 287.988281 257.140625 287.875 257.304688 287.867188 257.503906 L 287.601562 263.539062 C 287.589844 263.742188 287.695312 263.917969 287.851562 264.027344 L 287.84375 264.136719 L 288.15625 264.136719 C 287.925781 267.011719 287.507812 268.957031 286.867188 270.574219 C 286.867188 270.574219 286.867188 270.570312 286.871094 270.570312 C 284.824219 273.132812 279.460938 276.394531 275.308594 278.417969 L 277.113281 281.242188 L 298.765625 281.242188 C 298.820312 279.007812 298.691406 275.75 297.765625 272.902344 C 297.753906 270.214844 298.128906 266.613281 298.433594 264.136719 L 299.617188 264.136719 C 299.621094 264.117188 299.628906 264.097656 299.636719 264.074219 C 299.773438 264.007812 299.886719 263.894531 299.933594 263.738281 C 300.445312 262.09375 301.050781 260.035156 301.679688 257.679688 C 301.726562 257.503906 301.683594 257.332031 301.589844 257.199219 C 304.304688 246.964844 307.511719 231.40625 305.222656 219.519531 L 311.570312 176.425781 L 307.792969 176.183594 L 313.140625 176.523438 C 313.148438 176.523438 313.15625 176.523438 313.164062 176.523438 C 313.167969 176.523438 313.171875 176.523438 313.175781 176.523438 L 315.628906 257.058594 C 315.46875 257.164062 315.355469 257.339844 315.363281 257.546875 L 315.554688 263.585938 C 315.5625 263.789062 315.679688 263.957031 315.84375 264.054688 L 315.847656 264.140625 L 316.503906 264.140625 C 316.5 264.324219 316.488281 264.5 316.488281 264.691406 C 316.488281 268.050781 316.292969 270.625 316.128906 274.203125 C 316.117188 274.472656 316.105469 274.746094 316.09375 275.027344 C 316.089844 275.132812 316.085938 275.242188 316.082031 275.347656 C 316.078125 275.507812 316.070312 275.664062 316.0625 275.828125 C 316.058594 276 316.050781 276.179688 316.042969 276.355469 C 316.042969 276.460938 316.039062 276.5625 316.035156 276.667969 C 316.027344 276.878906 316.019531 277.097656 316.011719 277.316406 C 316.011719 277.378906 316.011719 277.445312 316.007812 277.507812 C 315.960938 279.066406 315.929688 280.820312 315.921875 282.867188 C 315.917969 283.445312 316.386719 283.921875 316.964844 283.921875 L 335.304688 283.921875 C 335.941406 283.921875 336.441406 283.347656 336.339844 282.71875 C 335.953125 280.339844 334.425781 278.664062 332.683594 277.074219 C 332.6875 277.074219 332.6875 277.074219 332.6875 277.078125 C 332.625 277.019531 332.5625 276.964844 332.496094 276.90625 C 331.972656 276.433594 331.4375 275.960938 330.902344 275.484375 C 330.777344 275.371094 330.65625 275.257812 330.53125 275.144531 C 330.402344 275.023438 330.269531 274.902344 330.140625 274.78125 C 330.011719 274.65625 329.882812 274.527344 329.753906 274.398438 C 329.636719 274.285156 329.519531 274.167969 329.40625 274.046875 C 329.273438 273.910156 329.148438 273.769531 329.023438 273.628906 C 328.917969 273.515625 328.816406 273.398438 328.714844 273.277344 C 328.585938 273.125 328.464844 272.964844 328.34375 272.808594 C 328.257812 272.691406 328.167969 272.578125 328.082031 272.460938 C 327.953125 272.277344 327.839844 272.085938 327.722656 271.894531 C 327.660156 271.789062 327.589844 271.691406 327.527344 271.582031 C 327.363281 271.285156 327.210938 270.972656 327.074219 270.648438 C 327.074219 270.644531 327.070312 270.640625 327.070312 270.636719 C 327.015625 270.503906 326.96875 270.367188 326.917969 270.234375 C 326.179688 268.21875 326.058594 266.183594 326.132812 264.140625 L 327.589844 264.140625 C 327.59375 264.117188 327.601562 264.089844 327.601562 264.070312 C 327.757812 263.988281 327.875 263.847656 327.90625 263.667969 C 328.199219 261.976562 328.5625 259.890625 328.945312 257.628906 C 328.980469 257.421875 328.898438 257.238281 328.753906 257.109375 C 329.671875 251.484375 330.71875 244.859375 331.320312 240.332031 C 332.5625 230.992188 330.722656 217.265625 330.722656 217.265625 L 331.550781 174.855469 C 331.292969 174.855469 331.046875 174.828125 330.808594 174.792969 C 331.050781 174.828125 331.296875 174.855469 331.558594 174.855469 C 331.75 174.855469 331.90625 174.699219 331.90625 174.507812 C 331.90625 174.316406 331.75 174.160156 331.558594 174.160156 C 331.5625 174.160156 331.5625 174.160156 331.566406 174.160156 L 331.65625 169.511719 C 332.292969 169.089844 332.707031 168.375 332.707031 167.566406 C 332.707031 165.597656 332.523438 162.363281 332.320312 158.863281 C 334.007812 164.90625 335.976562 171.9375 336.703125 174.53125 L 336.695312 174.535156 C 336.511719 174.589844 336.410156 174.785156 336.464844 174.96875 C 336.488281 175.046875 336.542969 175.109375 336.605469 175.152344 C 336.566406 175.21875 336.515625 175.289062 336.480469 175.355469 C 335.359375 177.425781 335.136719 178.828125 335.453125 181.78125 C 335.324219 181.84375 335.25 181.980469 335.269531 182.125 C 335.230469 182.117188 335.199219 182.097656 335.160156 182.09375 C 334.386719 182 333.710938 182.625 333.742188 183.40625 L 333.90625 187.492188 C 333.921875 187.871094 334.105469 188.222656 334.410156 188.453125 L 337.140625 190.523438 C 337.347656 190.925781 337.597656 191.203125 337.824219 191.378906 C 338.019531 191.53125 338.261719 191.613281 338.507812 191.613281 C 338.539062 191.613281 338.570312 191.601562 338.601562 191.597656 C 339.039062 191.851562 339.585938 191.835938 339.996094 191.527344 L 345.792969 187.140625 C 346.125 186.890625 346.3125 186.492188 346.296875 186.078125 Z M 103.9375 175.492188 C 103.9375 175.492188 103.925781 175.503906 103.902344 175.519531 C 103.925781 175.503906 103.9375 175.492188 103.9375 175.492188 Z M 114.179688 119.703125 C 114.152344 119.675781 114.128906 119.644531 114.101562 119.617188 C 114.128906 119.644531 114.152344 119.675781 114.179688 119.703125 Z M 114.632812 120.292969 C 114.644531 120.316406 114.65625 120.335938 114.671875 120.355469 C 114.65625 120.335938 114.644531 120.316406 114.632812 120.292969 Z M 114.386719 119.949219 C 114.410156 119.980469 114.429688 120.007812 114.453125 120.035156 C 114.429688 120.007812 114.410156 119.980469 114.386719 119.949219 Z M 117.695312 106.472656 C 117.714844 106.445312 117.730469 106.417969 117.75 106.390625 C 117.730469 106.417969 117.714844 106.445312 117.695312 106.472656 Z M 118.414062 105.324219 C 118.414062 105.324219 118.414062 105.324219 118.414062 105.320312 C 118.414062 105.324219 118.414062 105.324219 118.414062 105.324219 Z M 118.085938 105.890625 C 118.09375 105.875 118.097656 105.863281 118.109375 105.851562 C 118.097656 105.863281 118.09375 105.875 118.085938 105.890625 Z M 110.425781 198.691406 L 110.421875 198.691406 C 110.933594 198.535156 111.457031 198.367188 111.984375 198.195312 C 111.457031 198.367188 110.933594 198.535156 110.425781 198.691406 Z M 112.230469 198.113281 C 113.285156 197.765625 114.367188 197.386719 115.445312 196.980469 C 114.367188 197.386719 113.285156 197.765625 112.230469 198.113281 Z M 115.769531 196.855469 C 116.828125 196.453125 117.882812 196.019531 118.910156 195.558594 C 117.882812 196.019531 116.828125 196.453125 115.769531 196.855469 Z M 119.261719 195.398438 C 120.269531 194.9375 121.242188 194.453125 122.15625 193.941406 C 121.242188 194.453125 120.269531 194.9375 119.261719 195.398438 Z M 122.492188 193.753906 C 122.945312 193.492188 123.382812 193.230469 123.800781 192.960938 C 123.382812 193.230469 122.945312 193.492188 122.492188 193.753906 Z M 109.128906 198.359375 C 109.460938 198.261719 109.800781 198.160156 110.140625 198.054688 C 109.800781 198.160156 109.460938 198.261719 109.128906 198.359375 Z M 110.414062 197.96875 C 110.789062 197.851562 111.175781 197.730469 111.5625 197.605469 C 111.175781 197.730469 110.792969 197.851562 110.414062 197.96875 Z M 107.988281 198.691406 L 107.984375 198.691406 C 108.3125 198.597656 108.648438 198.503906 108.988281 198.402344 C 108.648438 198.503906 108.316406 198.601562 107.988281 198.691406 Z M 122.410156 193 C 122.757812 192.796875 123.097656 192.589844 123.421875 192.378906 C 123.097656 192.589844 122.757812 192.796875 122.410156 193 Z M 111.792969 197.527344 C 112.128906 197.417969 112.46875 197.304688 112.808594 197.191406 C 112.46875 197.304688 112.128906 197.417969 111.792969 197.527344 Z M 113.089844 197.09375 C 113.484375 196.957031 113.878906 196.820312 114.273438 196.675781 C 113.878906 196.820312 113.484375 196.957031 113.089844 197.09375 Z M 114.546875 196.574219 C 114.890625 196.449219 115.230469 196.320312 115.574219 196.191406 C 115.230469 196.320312 114.890625 196.449219 114.546875 196.574219 Z M 115.832031 196.09375 C 116.226562 195.9375 116.625 195.78125 117.015625 195.617188 C 116.625 195.78125 116.226562 195.9375 115.832031 196.09375 Z M 117.300781 195.5 C 117.648438 195.355469 117.992188 195.207031 118.332031 195.058594 C 117.992188 195.207031 117.648438 195.355469 117.300781 195.5 Z M 118.539062 194.96875 C 118.921875 194.796875 119.304688 194.621094 119.679688 194.441406 C 119.304688 194.621094 118.921875 194.796875 118.539062 194.96875 Z M 119.957031 194.304688 C 120.304688 194.136719 120.652344 193.964844 120.988281 193.785156 C 120.652344 193.964844 120.304688 194.136719 119.957031 194.304688 Z M 121.101562 193.730469 C 121.464844 193.539062 121.816406 193.34375 122.160156 193.144531 C 121.816406 193.34375 121.464844 193.539062 121.101562 193.730469 Z M 146.308594 163.628906 L 145.34375 163.171875 L 146.308594 163.628906 L 146.5 163.222656 Z M 143.371094 133.300781 L 157.496094 140.023438 L 143.371094 133.300781 L 138.058594 144.511719 Z M 316.929688 274.367188 C 316.988281 274.367188 317.046875 274.371094 317.101562 274.367188 C 317.042969 274.371094 316.988281 274.367188 316.929688 274.367188 Z M 318.875 273.582031 C 319.007812 273.464844 319.144531 273.339844 319.28125 273.195312 C 319.453125 273.007812 319.628906 272.832031 319.804688 272.660156 C 319.628906 272.832031 319.453125 273.007812 319.28125 273.195312 C 319.144531 273.339844 319.007812 273.46875 318.875 273.582031 Z M 317.265625 274.355469 C 317.332031 274.347656 317.398438 274.335938 317.464844 274.324219 C 317.398438 274.335938 317.332031 274.347656 317.265625 274.355469 Z M 317.613281 274.292969 C 317.726562 274.261719 317.839844 274.226562 317.960938 274.175781 C 317.839844 274.222656 317.726562 274.261719 317.613281 274.292969 Z M 318.046875 274.128906 C 318.144531 274.085938 318.242188 274.035156 318.339844 273.972656 C 318.242188 274.035156 318.144531 274.085938 318.046875 274.128906 Z M 318.472656 273.886719 C 318.566406 273.828125 318.65625 273.757812 318.75 273.683594 C 318.65625 273.757812 318.566406 273.828125 318.472656 273.886719 Z M 324.980469 269.960938 C 324.652344 269.980469 324.328125 270.027344 324.003906 270.101562 C 323.816406 270.144531 323.632812 270.203125 323.449219 270.261719 C 324.277344 269.984375 325.113281 269.890625 325.949219 270.003906 C 325.625 269.957031 325.304688 269.945312 324.980469 269.960938 Z M 319.964844 272.507812 C 320.089844 272.390625 320.214844 272.277344 320.339844 272.164062 C 320.214844 272.277344 320.089844 272.390625 319.964844 272.507812 Z M 320.523438 272.003906 C 320.648438 271.898438 320.773438 271.796875 320.898438 271.699219 C 320.773438 271.796875 320.648438 271.898438 320.523438 272.003906 Z M 321.066406 271.566406 C 321.246094 271.429688 321.421875 271.300781 321.605469 271.183594 C 321.425781 271.300781 321.246094 271.433594 321.066406 271.566406 Z M 321.605469 271.179688 C 321.785156 271.0625 321.96875 270.953125 322.148438 270.851562 C 321.96875 270.953125 321.785156 271.0625 321.605469 271.179688 Z M 322.316406 270.761719 C 322.445312 270.691406 322.574219 270.625 322.703125 270.566406 C 322.574219 270.625 322.445312 270.691406 322.316406 270.761719 Z M 322.890625 270.480469 C 323.019531 270.421875 323.148438 270.371094 323.277344 270.324219 C 323.148438 270.371094 323.019531 270.421875 322.890625 270.480469 Z M 326.183594 270.046875 C 326.265625 270.0625 326.351562 270.074219 326.4375 270.09375 C 326.351562 270.074219 326.269531 270.0625 326.183594 270.046875 Z M 283.933594 128.335938 L 290.277344 131.75 Z M 296.066406 170.351562 C 296.066406 170.351562 296.066406 170.351562 296.0625 170.351562 C 296.066406 170.351562 296.066406 170.351562 296.066406 170.351562 Z M 296.488281 171.113281 C 296.480469 171.128906 296.476562 171.140625 296.472656 171.152344 C 296.476562 171.140625 296.484375 171.128906 296.488281 171.113281 Z M 296.34375 171.414062 C 296.304688 171.5 296.261719 171.582031 296.214844 171.664062 C 296.261719 171.582031 296.304688 171.5 296.34375 171.414062 Z M 296.097656 171.878906 C 296.015625 172.027344 295.921875 172.175781 295.828125 172.320312 C 295.925781 172.175781 296.015625 172.027344 296.097656 171.878906 Z M 294.503906 172.878906 C 294.488281 172.890625 294.472656 172.90625 294.457031 172.921875 C 294.472656 172.90625 294.488281 172.890625 294.503906 172.878906 Z M 294.074219 173.253906 C 294.042969 173.277344 294.015625 173.304688 293.984375 173.328125 C 294.015625 173.304688 294.042969 173.277344 294.074219 173.253906 Z M 293.519531 173.632812 C 293.488281 173.648438 293.457031 173.664062 293.425781 173.679688 C 293.457031 173.664062 293.488281 173.648438 293.519531 173.632812 Z M 292.941406 173.898438 C 292.917969 173.90625 292.890625 173.917969 292.863281 173.929688 C 292.890625 173.917969 292.917969 173.90625 292.941406 173.898438 Z M 296.066406 170.351562 C 296.042969 170.414062 296.015625 170.472656 295.992188 170.535156 C 296.015625 170.472656 296.042969 170.414062 296.066406 170.351562 Z M 295.878906 170.792969 C 295.855469 170.847656 295.832031 170.902344 295.804688 170.960938 C 295.832031 170.902344 295.855469 170.847656 295.878906 170.792969 Z M 295.601562 171.359375 C 295.578125 171.40625 295.550781 171.453125 295.523438 171.5 C 295.550781 171.453125 295.578125 171.40625 295.601562 171.359375 Z M 295.296875 171.875 C 295.28125 171.898438 295.269531 171.925781 295.253906 171.949219 C 295.269531 171.925781 295.28125 171.898438 295.296875 171.875 Z M 294.949219 172.367188 C 294.921875 172.40625 294.894531 172.441406 294.863281 172.476562 C 294.894531 172.4375 294.921875 172.402344 294.949219 172.367188 Z M 294.847656 173.503906 C 294.707031 173.636719 294.5625 173.761719 294.40625 173.878906 C 294.5625 173.761719 294.707031 173.636719 294.847656 173.503906 Z M 295.71875 172.480469 C 295.628906 172.609375 295.535156 172.738281 295.433594 172.863281 C 295.535156 172.738281 295.628906 172.609375 295.71875 172.480469 Z M 295.359375 172.960938 C 295.234375 173.113281 295.097656 173.261719 294.953125 173.402344 C 295.097656 173.261719 295.234375 173.113281 295.359375 172.960938 Z M 300.382812 170.835938 C 300.414062 170.835938 300.449219 170.839844 300.480469 170.84375 C 300.449219 170.839844 300.414062 170.839844 300.382812 170.835938 Z M 308.03125 171.308594 C 307.933594 171.304688 307.832031 171.300781 307.734375 171.296875 C 307.832031 171.300781 307.929688 171.304688 308.03125 171.308594 Z M 315.601562 171.320312 C 315.4375 171.324219 315.273438 171.328125 315.109375 171.332031 C 315.273438 171.328125 315.4375 171.324219 315.601562 171.320312 Z M 327.703125 172.976562 C 327.824219 173.128906 327.957031 173.273438 328.097656 173.410156 C 327.957031 173.273438 327.824219 173.128906 327.703125 172.976562 Z M 328.609375 173.855469 C 328.46875 173.746094 328.332031 173.628906 328.203125 173.507812 C 328.332031 173.628906 328.46875 173.746094 328.609375 173.855469 Z M 327.597656 172.851562 C 327.503906 172.730469 327.414062 172.609375 327.328125 172.488281 C 327.414062 172.609375 327.503906 172.730469 327.597656 172.851562 Z M 327.230469 172.34375 C 327.132812 172.199219 327.042969 172.054688 326.960938 171.90625 C 327.046875 172.054688 327.132812 172.199219 327.230469 172.34375 Z M 326.839844 171.691406 C 326.796875 171.605469 326.75 171.519531 326.710938 171.433594 C 326.75 171.519531 326.796875 171.605469 326.839844 171.691406 Z M 326.488281 170.964844 C 326.472656 170.925781 326.457031 170.890625 326.441406 170.855469 C 326.457031 170.890625 326.472656 170.925781 326.488281 170.964844 Z M 327.011719 170.433594 Z M 327.1875 170.84375 C 327.207031 170.882812 327.226562 170.925781 327.246094 170.964844 C 327.226562 170.925781 327.207031 170.882812 327.1875 170.84375 Z M 327.464844 171.398438 C 327.476562 171.425781 327.496094 171.453125 327.511719 171.480469 C 327.496094 171.453125 327.480469 171.425781 327.464844 171.398438 Z M 327.746094 171.871094 C 327.765625 171.898438 327.785156 171.929688 327.804688 171.960938 C 327.78125 171.929688 327.765625 171.898438 327.746094 171.871094 Z M 328.109375 172.382812 C 328.136719 172.417969 328.160156 172.445312 328.1875 172.476562 C 328.160156 172.445312 328.136719 172.417969 328.109375 172.382812 Z M 328.542969 172.875 C 328.546875 172.882812 328.554688 172.886719 328.558594 172.894531 C 328.554688 172.886719 328.546875 172.882812 328.542969 172.875 Z M 328.84375 170.175781 C 329.484375 170.082031 330.121094 169.984375 330.75 169.878906 C 330.121094 169.984375 329.484375 170.082031 328.84375 170.175781 Z M 330.1875 173.929688 C 330.15625 173.917969 330.128906 173.90625 330.097656 173.894531 C 330.128906 173.90625 330.15625 173.917969 330.1875 173.929688 Z M 329.617188 173.675781 C 329.589844 173.664062 329.5625 173.652344 329.539062 173.636719 C 329.5625 173.652344 329.589844 173.664062 329.617188 173.675781 Z M 329.070312 173.332031 C 329.039062 173.308594 329.007812 173.28125 328.976562 173.257812 C 329.007812 173.28125 329.039062 173.308594 329.070312 173.332031 Z M 323 170.875 C 322.800781 170.894531 322.601562 170.914062 322.402344 170.929688 C 322.601562 170.914062 322.800781 170.894531 323 170.875 Z M 317.074219 85.117188 C 317.226562 85.1875 317.371094 85.277344 317.507812 85.382812 C 317.371094 85.277344 317.226562 85.1875 317.074219 85.117188 Z M 318.574219 86.949219 C 318.519531 86.785156 318.449219 86.628906 318.378906 86.480469 C 318.449219 86.628906 318.519531 86.785156 318.574219 86.949219 Z M 318.277344 86.289062 C 318.191406 86.140625 318.101562 86 318.003906 85.871094 C 318.101562 86 318.191406 86.140625 318.277344 86.289062 Z M 317.910156 85.773438 C 317.816406 85.660156 317.714844 85.558594 317.605469 85.46875 C 317.714844 85.558594 317.816406 85.660156 317.910156 85.773438 Z M 316.96875 85.070312 C 316.929688 85.054688 316.886719 85.046875 316.847656 85.03125 L 316.847656 85.015625 C 316.890625 85.03125 316.929688 85.050781 316.96875 85.070312 Z M 275.820312 137.386719 L 269.921875 128.335938 L 279.597656 128.335938 Z M 292.140625 169.703125 C 292.109375 169.691406 292.078125 169.675781 292.046875 169.660156 C 292.078125 169.675781 292.109375 169.691406 292.140625 169.703125 Z M 292.28125 174.078125 C 292.234375 174.085938 292.191406 174.09375 292.144531 174.101562 C 292.1875 174.09375 292.234375 174.085938 292.28125 174.078125 Z M 293.078125 174.59375 C 292.867188 174.664062 292.640625 174.71875 292.40625 174.761719 C 292.640625 174.71875 292.867188 174.664062 293.078125 174.59375 Z M 294.363281 173.914062 C 294.191406 174.039062 294.011719 174.152344 293.824219 174.257812 C 294.011719 174.152344 294.191406 174.039062 294.363281 173.914062 Z M 293.695312 174.324219 C 293.507812 174.421875 293.3125 174.511719 293.105469 174.582031 C 293.3125 174.511719 293.507812 174.421875 293.695312 174.324219 Z M 288.4375 256.953125 C 288.378906 256.953125 288.324219 256.96875 288.269531 256.984375 C 288.324219 256.964844 288.378906 256.953125 288.4375 256.953125 Z M 287.988281 264.097656 C 288.042969 264.117188 288.097656 264.132812 288.160156 264.132812 C 288.097656 264.132812 288.042969 264.121094 287.988281 264.097656 Z M 301.394531 257.019531 C 301.398438 257.019531 301.398438 257.023438 301.402344 257.023438 C 301.398438 257.023438 301.398438 257.019531 301.394531 257.019531 Z M 313.40625 176.421875 C 313.410156 176.417969 313.414062 176.410156 313.417969 176.40625 C 313.414062 176.410156 313.410156 176.417969 313.40625 176.421875 Z M 313.480469 176.320312 C 313.5 176.28125 313.511719 176.238281 313.511719 176.195312 C 313.511719 176.238281 313.5 176.28125 313.480469 176.320312 Z M 315.9375 256.953125 C 315.875 256.953125 315.816406 256.972656 315.757812 256.988281 C 315.816406 256.96875 315.875 256.953125 315.9375 256.953125 Z M 327.34375 264.136719 L 316.128906 264.136719 C 316.066406 264.136719 316.011719 264.121094 315.960938 264.101562 C 316.011719 264.121094 316.070312 264.136719 316.128906 264.136719 L 327.34375 264.136719 C 327.398438 264.136719 327.449219 264.121094 327.5 264.109375 C 327.449219 264.125 327.398438 264.136719 327.34375 264.136719 Z M 328.386719 256.953125 C 328.464844 256.953125 328.53125 256.972656 328.597656 257 C 328.53125 256.972656 328.464844 256.953125 328.386719 256.953125 Z M 328.695312 173.925781 C 328.863281 174.046875 329.039062 174.15625 329.222656 174.257812 C 329.039062 174.15625 328.863281 174.046875 328.695312 173.925781 Z M 329.976562 174.597656 C 330.183594 174.667969 330.40625 174.71875 330.636719 174.761719 C 330.40625 174.71875 330.183594 174.667969 329.976562 174.597656 Z M 329.355469 174.328125 C 329.53125 174.417969 329.714844 174.5 329.90625 174.566406 C 329.714844 174.5 329.53125 174.417969 329.355469 174.328125 Z M 330.769531 174.082031 C 330.8125 174.089844 330.855469 174.09375 330.902344 174.101562 C 330.855469 174.09375 330.8125 174.089844 330.769531 174.082031 Z M 331.21875 169.742188 C 331.234375 169.738281 331.242188 169.730469 331.253906 169.726562 C 331.242188 169.730469 331.230469 169.734375 331.21875 169.742188 Z M 331.8125 146.792969 C 331.8125 147.183594 331.816406 147.597656 331.824219 148.023438 C 331.816406 147.597656 331.8125 147.183594 331.8125 146.792969 Z M 331.835938 148.46875 C 331.839844 148.757812 331.847656 149.050781 331.855469 149.355469 C 331.847656 149.050781 331.839844 148.757812 331.835938 148.46875 Z M 331.875 149.914062 C 331.882812 150.195312 331.894531 150.472656 331.90625 150.761719 C 331.894531 150.472656 331.882812 150.195312 331.875 149.914062 Z M 331.929688 151.394531 C 331.941406 151.671875 331.953125 151.953125 331.96875 152.238281 C 331.953125 151.953125 331.941406 151.671875 331.929688 151.394531 Z M 332 152.90625 C 332.011719 153.191406 332.027344 153.472656 332.042969 153.761719 C 332.027344 153.472656 332.011719 153.191406 332 152.90625 Z M 332.078125 154.449219 C 332.09375 154.742188 332.109375 155.035156 332.125 155.328125 C 332.109375 155.03125 332.09375 154.742188 332.078125 154.449219 Z M 332.253906 157.628906 C 332.273438 157.953125 332.292969 158.273438 332.308594 158.59375 C 332.289062 158.273438 332.273438 157.953125 332.253906 157.628906 Z M 332.160156 156.003906 C 332.179688 156.308594 332.195312 156.613281 332.210938 156.917969 C 332.195312 156.613281 332.179688 156.308594 332.160156 156.003906 Z M 332.160156 156.003906 " fill-opacity="1" fill-rule="nonzero"/></g><g clip-path="url(#11351866a9)"><path fill="#f5f5f5" d="M 275.308594 278.414062 C 274.679688 278.722656 274.074219 279 273.511719 279.246094 C 271.050781 280.316406 270.429688 281.546875 270.269531 282.734375 C 270.1875 283.359375 270.675781 283.917969 271.308594 283.917969 L 297.644531 283.917969 C 298.191406 283.917969 298.648438 283.496094 298.6875 282.949219 C 298.71875 282.503906 298.753906 281.917969 298.769531 281.238281 L 277.113281 281.238281 Z M 275.308594 278.414062 " fill-opacity="1" fill-rule="nonzero"/></g><g clip-path="url(#87fbc5f7aa)"><path fill="#f5f5f5" d="M 257.183594 176.785156 L 182.882812 176.785156 L 182.882812 146.023438 L 257.183594 146.023438 Z M 143.738281 16.261719 L 143.738281 128.335938 L 316.847656 128.335938 L 316.847656 16.261719 Z M 58.21875 274.292969 L 110.042969 274.292969 L 110.042969 198.691406 L 58.21875 198.691406 Z M 59.4375 43.074219 L 59.4375 82.734375 L 129.800781 82.734375 L 129.800781 43.074219 Z M 143.371094 133.300781 L 132.183594 156.910156 L 146.308594 163.628906 L 157.496094 140.023438 Z M 143.371094 133.300781 " fill-opacity="1" fill-rule="nonzero"/></g><g clip-path="url(#2bd90c8558)"><path fill="#26b1d8" d="M 74.046875 60.023438 C 74.046875 61.453125 72.890625 62.609375 71.464844 62.609375 C 70.039062 62.609375 68.882812 61.453125 68.882812 60.023438 C 68.882812 58.59375 70.039062 57.4375 71.464844 57.4375 C 72.890625 57.4375 74.046875 58.59375 74.046875 60.023438 Z M 176.464844 110.140625 L 178.597656 110.140625 L 178.597656 38.511719 L 176.464844 38.511719 Z M 71.464844 68.203125 C 70.039062 68.203125 68.882812 69.359375 68.882812 70.789062 C 68.882812 72.214844 70.039062 73.375 71.464844 73.375 C 72.890625 73.375 74.046875 72.214844 74.046875 70.789062 C 74.046875 69.359375 72.890625 68.203125 71.464844 68.203125 Z M 165.777344 47.496094 L 155.824219 47.496094 L 155.824219 54.925781 L 165.777344 54.925781 Z M 120.519531 57.4375 L 78.921875 57.4375 L 78.921875 62.609375 L 120.515625 62.609375 L 120.515625 57.4375 Z M 155.921875 83.375 L 165.875 83.375 L 165.875 75.945312 L 155.921875 75.945312 Z M 155.921875 69.101562 L 165.875 69.101562 L 165.875 61.671875 L 155.921875 61.671875 Z M 59.4375 48.460938 L 129.800781 48.460938 L 129.800781 43.074219 L 59.4375 43.074219 Z M 78.921875 73.375 L 120.515625 73.375 L 120.515625 68.203125 L 78.921875 68.203125 Z M 155.921875 97.652344 L 165.875 97.652344 L 165.875 90.21875 L 155.921875 90.21875 Z M 238.472656 33.90625 C 235.800781 33.90625 233.582031 35.824219 233.105469 38.363281 L 189 38.363281 L 189 40.496094 L 233.121094 40.496094 C 233.636719 42.984375 235.835938 44.855469 238.472656 44.855469 C 241.105469 44.855469 243.304688 42.984375 243.820312 40.496094 L 260.488281 40.496094 L 260.488281 38.363281 L 243.835938 38.363281 C 243.359375 35.824219 241.140625 33.90625 238.472656 33.90625 Z M 181.550781 144.367188 L 259.246094 144.367188 L 259.246094 179.128906 L 181.550781 179.128906 Z M 236.160156 174.113281 L 254.484375 174.113281 L 254.484375 156.730469 L 236.160156 156.730469 Z M 200 155.078125 L 220.523438 155.078125 L 220.523438 153.121094 L 200 153.121094 Z M 187.78125 166.277344 L 221.867188 166.277344 L 221.867188 164.320312 L 187.78125 164.320312 Z M 187.78125 170.683594 L 218.199219 170.683594 L 218.199219 168.726562 L 187.78125 168.726562 Z M 143.738281 16.261719 L 316.847656 16.261719 L 316.847656 29.671875 L 143.738281 29.671875 Z M 163.585938 23.429688 C 163.585938 24.570312 164.507812 25.496094 165.648438 25.496094 C 166.789062 25.496094 167.710938 24.570312 167.710938 23.429688 C 167.710938 22.285156 166.789062 21.359375 165.648438 21.359375 C 164.507812 21.359375 163.585938 22.285156 163.585938 23.429688 Z M 156.707031 23.429688 C 156.707031 24.570312 157.628906 25.496094 158.769531 25.496094 C 159.910156 25.496094 160.832031 24.570312 160.832031 23.429688 C 160.832031 22.285156 159.910156 21.359375 158.769531 21.359375 C 157.628906 21.359375 156.707031 22.285156 156.707031 23.429688 Z M 149.828125 23.429688 C 149.828125 24.570312 150.75 25.496094 151.890625 25.496094 C 153.03125 25.496094 153.953125 24.570312 153.953125 23.429688 C 153.953125 22.285156 153.03125 21.359375 151.890625 21.359375 C 150.75 21.359375 149.828125 22.285156 149.828125 23.429688 Z M 269.695312 114.992188 L 302.675781 114.992188 L 302.675781 39.28125 L 269.695312 39.28125 Z M 258.378906 79.855469 L 258.378906 111.925781 L 190.824219 111.925781 L 190.824219 79.855469 Z M 251.210938 99.972656 L 197.988281 99.972656 L 197.988281 106.421875 L 251.210938 106.421875 Z M 251.210938 85.890625 L 197.988281 85.890625 L 197.988281 92.34375 L 251.210938 92.34375 Z M 227.542969 61.476562 C 224.871094 61.476562 222.652344 63.398438 222.175781 65.933594 L 189 65.933594 L 189 68.066406 L 222.191406 68.066406 C 222.707031 70.554688 224.90625 72.425781 227.542969 72.425781 C 230.179688 72.425781 232.378906 70.554688 232.890625 68.066406 L 260.488281 68.066406 L 260.488281 65.933594 L 232.910156 65.933594 C 232.433594 63.398438 230.210938 61.476562 227.542969 61.476562 Z M 189 54.183594 L 260.488281 54.183594 L 260.488281 52.050781 L 189 52.050781 Z M 331.5625 174.15625 C 327.433594 174.15625 326.492188 168.707031 326.480469 168.652344 C 326.449219 168.460938 326.265625 168.328125 326.082031 168.363281 C 325.894531 168.394531 325.765625 168.574219 325.796875 168.761719 C 325.808594 168.824219 326.84375 174.851562 331.5625 174.851562 C 331.753906 174.851562 331.910156 174.695312 331.910156 174.503906 C 331.910156 174.3125 331.753906 174.15625 331.5625 174.15625 Z M 313.1875 175.824219 L 307.839844 175.488281 C 307.621094 175.472656 307.484375 175.621094 307.472656 175.8125 C 307.460938 176.003906 307.605469 176.171875 307.796875 176.183594 L 313.144531 176.519531 C 313.152344 176.519531 313.160156 176.519531 313.167969 176.519531 C 313.351562 176.519531 313.5 176.378906 313.511719 176.195312 C 313.523438 176.003906 313.378906 175.839844 313.1875 175.824219 Z M 296.960938 168.363281 C 296.773438 168.328125 296.59375 168.460938 296.5625 168.652344 C 296.554688 168.707031 295.621094 174.15625 291.480469 174.15625 C 291.289062 174.15625 291.136719 174.3125 291.136719 174.503906 C 291.136719 174.695312 291.289062 174.851562 291.480469 174.851562 C 296.203125 174.851562 297.238281 168.824219 297.246094 168.761719 C 297.277344 168.574219 297.148438 168.394531 296.960938 168.363281 Z M 146.050781 193.5 C 145.859375 193.5 145.707031 193.65625 145.707031 193.851562 L 146.09375 227.972656 C 146.097656 228.160156 146.253906 228.316406 146.441406 228.316406 C 146.441406 228.316406 146.445312 228.316406 146.445312 228.316406 C 146.636719 228.3125 146.789062 228.15625 146.789062 227.964844 L 146.402344 193.84375 C 146.398438 193.648438 146.253906 193.519531 146.050781 193.5 Z M 123.800781 192.960938 C 123.960938 192.859375 124.007812 192.640625 123.902344 192.480469 C 123.796875 192.320312 123.582031 192.277344 123.421875 192.378906 C 115.828125 197.3125 101.816406 200.265625 101.675781 200.292969 C 101.488281 200.332031 101.367188 200.515625 101.40625 200.703125 C 101.441406 200.867188 101.582031 200.980469 101.742188 200.980469 C 101.765625 200.980469 101.792969 200.976562 101.816406 200.972656 C 101.886719 200.957031 105.40625 200.214844 109.871094 198.863281 L 109.871094 274.296875 L 127.839844 274.296875 L 127.839844 198.691406 L 110.421875 198.691406 C 114.847656 197.324219 120.074219 195.382812 123.800781 192.960938 Z M 159.484375 140.222656 L 147.667969 165.15625 C 147.269531 166 146.378906 166.417969 145.6875 166.089844 L 130.671875 158.945312 C 129.976562 158.613281 129.742188 157.660156 130.140625 156.816406 L 141.957031 131.886719 C 142.359375 131.039062 143.246094 130.621094 143.941406 130.953125 L 158.953125 138.097656 C 159.648438 138.425781 159.886719 139.378906 159.484375 140.222656 Z M 157.496094 140.023438 L 143.371094 133.300781 L 132.183594 156.910156 L 146.308594 163.628906 Z M 157.496094 140.023438 " fill-opacity="1" fill-rule="nonzero"/></g><g clip-path="url(#51a588812e)"><path fill="#f5c0a2" d="M 154.972656 155.726562 C 154.953125 155.734375 154.941406 155.746094 154.925781 155.753906 C 154.925781 155.753906 155.835938 157.324219 153.785156 158.742188 C 153.789062 158.894531 154.582031 160.0625 152.53125 161.320312 C 152.53125 161.320312 152.445312 162.257812 151.507812 162.777344 C 151.207031 163.011719 145.644531 163.550781 144.125 162.941406 L 142.429688 162.539062 L 141.085938 162.21875 L 139.085938 162.542969 L 140.980469 154.003906 L 142.039062 153.988281 L 142.429688 153.859375 L 147.8125 152.121094 L 152.863281 147.527344 C 152.863281 147.527344 154.84375 148.410156 151.765625 152.265625 C 152.039062 152.300781 154.480469 152.515625 154.496094 152.519531 C 155.964844 152.933594 156.273438 154.929688 154.972656 155.726562 Z M 165.808594 82.429688 C 167.140625 80.890625 166.492188 79.074219 166.492188 79.074219 L 161.304688 83.40625 L 157.683594 87.460938 C 159.363281 84.246094 157.757812 83.40625 157.757812 83.40625 L 155.203125 87.101562 C 153.34375 90.191406 152.601562 93.230469 152.601562 93.230469 L 152.277344 93.707031 L 151.058594 95.464844 L 150.390625 96.429688 L 156.445312 102.28125 L 157.574219 100.652344 L 158.160156 99.800781 L 158.277344 99.632812 C 159.757812 98.996094 162.210938 96.492188 163.296875 95.335938 C 163.320312 95.3125 163.339844 95.289062 163.363281 95.265625 C 163.558594 95.054688 164.183594 93.75 164.257812 93.664062 C 164.660156 92.632812 165.28125 91.089844 165.28125 91.089844 C 165.507812 88.785156 163.886719 88.753906 163.886719 88.753906 C 164.183594 86.007812 161.769531 87.171875 161.675781 87.21875 L 163.523438 84.945312 Z M 118.679688 104.777344 C 118.359375 105.492188 117.894531 106.25 117.25 107.0625 C 117.25 107.0625 117.886719 109.898438 116.03125 111.15625 C 116.03125 111.15625 115.75 110.300781 115.207031 109.832031 C 114.632812 109.335938 113.554688 108.9375 112.75 110.035156 C 111.675781 111.5 112.777344 113.015625 113.5625 113.617188 C 114.808594 114.566406 111.304688 117.03125 113.769531 119.285156 C 114.285156 119.757812 114.628906 120.21875 114.84375 120.671875 C 116.761719 120.265625 123.136719 117.898438 118.679688 104.777344 Z M 280.394531 126.429688 L 275.820312 137.386719 L 267.386719 124.4375 C 266.929688 120.992188 262.730469 116.894531 260.800781 114.90625 C 259.832031 113.910156 259.472656 113.710938 259.03125 114.210938 C 258.445312 114.875 258.574219 116.046875 259.066406 117.324219 C 259.507812 118.460938 260.183594 119.546875 260.371094 120.167969 C 258.535156 119.792969 256.425781 119.652344 255.226562 119.480469 C 255.222656 119.480469 255.21875 119.476562 255.214844 119.476562 C 255.207031 119.476562 255.199219 119.476562 255.191406 119.476562 C 255.167969 119.472656 255.136719 119.46875 255.113281 119.464844 C 255.089844 119.460938 255.070312 119.460938 255.050781 119.460938 C 254.34375 119.398438 253.660156 119.769531 253.347656 120.421875 L 253.328125 120.464844 C 252.871094 121.410156 253.589844 122.441406 254.523438 122.582031 C 254.359375 122.5625 254.21875 122.550781 254.105469 122.546875 C 253.226562 122.515625 252.480469 123.183594 252.414062 124.0625 L 252.410156 124.105469 C 252.339844 124.988281 252.980469 125.765625 253.855469 125.867188 C 253.972656 125.882812 254.152344 125.894531 254.375 125.902344 L 254.363281 125.902344 C 253.480469 125.898438 252.824219 126.492188 252.832031 127.378906 C 252.835938 128.175781 253.433594 128.84375 254.222656 128.941406 L 254.324219 128.9375 C 254.324219 128.945312 254.320312 128.953125 254.320312 128.960938 C 253.6875 129.160156 253.265625 129.789062 253.351562 130.476562 C 253.4375 131.179688 254.03125 131.710938 254.738281 131.714844 C 254.9375 131.71875 255.304688 131.683594 255.730469 131.636719 C 258.320312 132.351562 260.214844 132.699219 261.734375 132.738281 C 264.675781 139.214844 271.652344 154.527344 271.652344 154.527344 C 273.09375 157.773438 277.238281 158.988281 280.027344 156.792969 C 280.148438 156.699219 280.265625 156.597656 280.382812 156.492188 C 280.890625 156.019531 281.292969 155.480469 281.589844 154.894531 L 291.984375 132.667969 Z M 288.171875 264.136719 C 288.167969 264.136719 288.164062 264.132812 288.160156 264.132812 C 287.929688 267.011719 287.511719 268.953125 286.871094 270.570312 C 286.871094 270.570312 286.871094 270.570312 286.871094 270.566406 C 290.382812 275.207031 295.109375 274.257812 297.769531 272.898438 C 297.753906 270.210938 298.128906 266.609375 298.4375 264.136719 Z M 326.136719 264.136719 L 316.507812 264.136719 C 316.503906 264.320312 316.492188 264.496094 316.492188 264.6875 C 316.492188 268.046875 316.296875 270.621094 316.132812 274.199219 C 316.972656 274.535156 318.074219 274.488281 319.28125 273.195312 C 321.707031 270.597656 324.324219 269.363281 326.921875 270.230469 C 326.183594 268.214844 326.0625 266.179688 326.136719 264.136719 Z M 346.292969 186.003906 C 346.292969 185.996094 346.296875 185.992188 346.296875 185.984375 C 346.277344 185.554688 346.175781 184.417969 346.035156 183 L 346.03125 183 C 345.660156 179.257812 345.027344 173.546875 345.027344 173.542969 L 342.003906 146.417969 L 341.132812 131.714844 L 333.167969 132.039062 C 332.410156 138.269531 331.8125 144.03125 331.8125 146.796875 C 331.8125 150.042969 332.082031 154.644531 332.324219 158.863281 C 334.082031 165.160156 336.15625 172.554688 336.796875 174.851562 C 336.679688 175.019531 336.570312 175.1875 336.484375 175.351562 C 335.3125 177.515625 335.121094 178.945312 335.503906 182.183594 C 335.394531 182.140625 335.285156 182.105469 335.164062 182.089844 C 334.386719 181.996094 333.714844 182.621094 333.746094 183.402344 L 333.910156 187.488281 C 333.925781 187.867188 334.109375 188.21875 334.414062 188.449219 L 337.632812 190.890625 L 338.472656 191.523438 C 338.921875 191.867188 339.546875 191.867188 340 191.523438 L 345.796875 187.140625 C 346.128906 186.886719 346.316406 186.492188 346.300781 186.074219 Z M 319.464844 104.160156 L 317.390625 91.386719 C 318.097656 90.84375 318.585938 90.097656 318.734375 89.214844 C 319.09375 87.113281 318.070312 85.1875 316.453125 84.910156 C 314.835938 84.632812 314.464844 86.164062 314.285156 87.21875 L 314.242188 87.480469 C 313.515625 87.445312 312.902344 87.460938 312.902344 87.460938 C 312.089844 85.058594 313.203125 81.238281 312.777344 78.355469 C 304.511719 76.714844 301.488281 80.191406 297.945312 78.75 C 297.660156 79.746094 297.519531 80.800781 297.558594 81.894531 L 297.945312 92.375 C 298.074219 95.792969 300.324219 98.921875 303.769531 99.980469 C 303.957031 100.039062 304.144531 100.078125 304.335938 100.121094 L 304.734375 105.332031 C 305.0625 109.25 308.367188 112.25 312.523438 111.894531 C 316.683594 111.542969 319.789062 108.078125 319.464844 104.160156 Z M 319.464844 104.160156 " fill-opacity="1" fill-rule="nonzero"/></g><path fill="#26b1d8" d="M 154.867188 244.46875 L 164.070312 237.855469 C 164.070312 237.855469 166.402344 244.753906 169.480469 246.910156 C 173.5625 249.765625 177.222656 247.011719 179.527344 245.992188 C 185.078125 243.535156 188.035156 246.007812 188.035156 246.007812 L 164.019531 263.261719 Z M 130.058594 271.882812 L 159.125 277.210938 C 159.125 277.210938 158.847656 273.363281 153.226562 271.066406 C 150.894531 270.113281 147.210938 269.136719 144.605469 264.460938 C 142.699219 261.035156 140.808594 253.496094 140.808594 253.496094 L 130.324219 251.785156 Z M 116.863281 142.421875 L 120.460938 140.789062 L 121.972656 140.105469 L 131.050781 135.535156 C 132 135.058594 132.835938 134.378906 133.5 133.546875 L 158.375 104.148438 L 148.753906 94.84375 L 125.144531 121.660156 L 119.09375 123.792969 L 116.191406 124.765625 L 114.972656 125.121094 C 114.722656 124.277344 114.445312 123.523438 114.128906 122.890625 C 112.964844 120.5625 110.453125 120.832031 106.140625 121.285156 C 102.167969 121.703125 92.070312 120.5625 86.84375 128.511719 C 75.832031 145.269531 71.171875 176.398438 71.171875 176.398438 C 90.496094 185.808594 103.9375 175.492188 103.9375 175.492188 L 114.316406 169.625 L 114.992188 166.113281 L 138.894531 163.410156 L 141.214844 152.941406 L 116.796875 152.3125 C 116.800781 152.3125 116.976562 147.925781 116.863281 142.421875 Z M 342.355469 131.664062 C 342.199219 129.101562 342.015625 126.539062 341.820312 123.980469 C 341.558594 120.957031 341.308594 117.933594 340.933594 114.917969 C 340.578125 112.078125 338.769531 109.78125 336.351562 108.667969 C 336.355469 108.648438 336.355469 108.632812 336.355469 108.632812 C 330.597656 106.140625 324.972656 104.515625 319.398438 103.761719 L 319.464844 104.160156 C 319.789062 108.078125 316.683594 111.542969 312.523438 111.894531 C 308.367188 112.25 305.0625 109.25 304.734375 105.332031 L 304.621094 103.824219 C 299.757812 104.527344 294.875 105.914062 289.917969 107.984375 C 289.910156 107.988281 289.902344 107.996094 289.894531 108 C 288 108.65625 286.367188 110.050781 285.460938 112.027344 L 278.667969 125.503906 L 290.578125 131.914062 C 291.152344 138.191406 291.585938 144.011719 291.585938 146.792969 C 291.585938 152.734375 290.6875 163.195312 290.6875 167.542969 C 290.6875 168.699219 291.527344 169.675781 292.667969 169.863281 C 304.921875 171.847656 318.816406 171.910156 330.75 169.878906 C 331.878906 169.6875 332.710938 168.710938 332.710938 167.5625 C 332.710938 163.226562 331.8125 152.742188 331.8125 146.792969 C 331.8125 144.03125 332.40625 138.269531 333.167969 132.039062 Z M 301.683594 257.675781 C 301.78125 257.3125 301.507812 256.953125 301.128906 256.953125 L 288.441406 256.953125 C 288.132812 256.953125 287.882812 257.195312 287.871094 257.5 L 287.601562 263.539062 C 287.585938 263.863281 287.847656 264.136719 288.171875 264.136719 L 299.390625 264.136719 C 299.640625 264.136719 299.863281 263.976562 299.9375 263.734375 C 300.445312 262.09375 301.050781 260.035156 301.683594 257.675781 M 328.949219 257.625 C 329.011719 257.273438 328.742188 256.953125 328.386719 256.953125 L 315.9375 256.953125 C 315.613281 256.953125 315.355469 257.222656 315.367188 257.542969 L 315.558594 263.582031 C 315.566406 263.890625 315.820312 264.136719 316.128906 264.136719 L 327.34375 264.136719 C 327.621094 264.136719 327.859375 263.9375 327.90625 263.664062 C 328.203125 261.972656 328.5625 259.886719 328.949219 257.625 M 213.296875 53.070312 C 213.296875 56.09375 210.847656 58.542969 207.832031 58.542969 C 204.8125 58.542969 202.367188 56.09375 202.367188 53.070312 C 202.367188 50.042969 204.8125 47.59375 207.832031 47.59375 C 210.847656 47.59375 213.296875 50.042969 213.296875 53.070312 Z M 187.78125 149.816406 L 187.78125 158.382812 L 197.066406 158.382812 L 197.066406 149.816406 Z M 223.222656 99.109375 L 211.066406 99.109375 L 211.066406 107.25 L 223.222656 107.25 Z M 223.222656 99.109375 " fill-opacity="1" fill-rule="nonzero"/><path fill="#293237" d="M 94.730469 147.238281 C 94.542969 147.191406 94.359375 147.308594 94.3125 147.496094 C 94.171875 148.089844 90.914062 162.082031 94.421875 165.15625 C 95.757812 166.324219 102.902344 166.5625 108.441406 166.5625 C 111.644531 166.5625 114.3125 166.480469 115.003906 166.460938 C 115.195312 166.453125 115.347656 166.292969 115.339844 166.101562 C 115.335938 165.910156 115.179688 165.765625 114.992188 165.765625 C 114.992188 165.765625 114.984375 165.765625 114.980469 165.765625 C 107.691406 166.003906 96.316406 165.894531 94.878906 164.632812 C 91.683594 161.832031 94.953125 147.796875 94.988281 147.65625 C 95.03125 147.46875 94.917969 147.28125 94.730469 147.238281 Z M 94.730469 147.238281 " fill-opacity="1" fill-rule="nonzero"/><path fill="#293237" d="M 161.46875 93.941406 C 161.480469 93.945312 161.496094 93.945312 161.507812 93.945312 C 161.585938 93.945312 161.65625 93.914062 161.714844 93.871094 C 161.703125 94.359375 161.792969 94.796875 162.042969 95.097656 C 162.339844 95.457031 162.632812 95.558594 162.863281 95.558594 C 162.9375 95.558594 163.007812 95.546875 163.066406 95.53125 C 164.085938 95.269531 164.617188 92.957031 164.757812 92.253906 C 164.792969 92.066406 164.671875 91.882812 164.484375 91.847656 C 164.296875 91.804688 164.113281 91.929688 164.078125 92.121094 C 163.832031 93.359375 163.300781 94.753906 162.894531 94.859375 C 162.789062 94.878906 162.648438 94.742188 162.574219 94.652344 C 161.976562 93.933594 162.9375 91.394531 163.679688 89.964844 C 163.769531 89.796875 163.703125 89.585938 163.53125 89.496094 C 163.363281 89.410156 163.152344 89.472656 163.0625 89.644531 C 162.914062 89.933594 161.96875 91.800781 161.753906 93.359375 C 161.699219 93.300781 161.628906 93.261719 161.546875 93.25 C 161.175781 93.207031 160.9375 93.0625 160.792969 92.796875 C 160.25 91.785156 161.222656 89.40625 161.640625 88.570312 C 161.726562 88.402344 161.660156 88.191406 161.488281 88.105469 C 161.320312 88.019531 161.109375 88.085938 161.023438 88.257812 C 160.851562 88.597656 159.371094 91.613281 160.183594 93.125 C 160.429688 93.589844 160.875 93.875 161.46875 93.941406 Z M 161.46875 93.941406 " fill-opacity="1" fill-rule="nonzero"/><path fill="#293237" d="M 290.988281 135.636719 C 291 135.636719 291.011719 135.636719 291.023438 135.636719 C 291.214844 135.617188 291.355469 135.445312 291.335938 135.253906 L 290.117188 123.378906 C 290.097656 123.1875 289.914062 123.042969 289.738281 123.070312 C 289.546875 123.089844 289.40625 123.257812 289.425781 123.449219 L 290.644531 135.324219 C 290.664062 135.503906 290.8125 135.636719 290.988281 135.636719 Z M 290.988281 135.636719 " fill-opacity="1" fill-rule="nonzero"/><path fill="#293237" d="M 157.25 95.710938 C 157.175781 95.886719 157.257812 96.089844 157.433594 96.164062 C 157.476562 96.183594 157.523438 96.191406 157.566406 96.191406 C 157.703125 96.191406 157.832031 96.109375 157.886719 95.976562 C 159.210938 92.820312 157.339844 90.398438 157.257812 90.296875 C 157.140625 90.144531 156.925781 90.121094 156.773438 90.238281 C 156.625 90.359375 156.597656 90.578125 156.714844 90.726562 C 156.785156 90.816406 158.40625 92.941406 157.25 95.710938 Z M 157.25 95.710938 " fill-opacity="1" fill-rule="nonzero"/><path fill="#293237" d="M 88.117188 140.929688 C 90.976562 142.921875 97.246094 144.417969 101.390625 144.316406 C 111.925781 144.058594 115.273438 141.679688 116.957031 136.570312 C 118.097656 133.101562 116.417969 129.355469 114.726562 127.25 C 113.039062 125.144531 117.179688 122.40625 113.773438 119.289062 C 111.304688 117.03125 114.808594 114.570312 113.5625 113.617188 C 112.777344 113.015625 111.675781 111.5 112.75 110.035156 C 113.554688 108.941406 114.632812 109.339844 115.207031 109.832031 C 115.75 110.300781 116.03125 111.15625 116.03125 111.15625 C 117.886719 109.898438 117.253906 107.0625 117.253906 107.0625 C 122.152344 100.902344 116.835938 97.53125 114.273438 97.027344 C 101.808594 94.582031 97.164062 105.257812 97.316406 111.25 C 97.429688 115.691406 89.179688 114.363281 89.1875 121.492188 C 89.191406 128.382812 86.949219 127.441406 85.359375 128.640625 C 81.132812 131.832031 83.078125 137.421875 88.117188 140.929688 Z M 88.117188 140.929688 " fill-opacity="1" fill-rule="nonzero"/><path fill="#293237" d="M 296.066406 170.351562 C 294.921875 170.203125 293.785156 170.042969 292.667969 169.863281 C 292.265625 169.796875 291.902344 169.628906 291.601562 169.390625 L 291.425781 174.167969 C 291.445312 174.164062 291.460938 174.15625 291.480469 174.15625 C 294.105469 174.15625 295.4375 171.96875 296.066406 170.351562 Z M 296.066406 170.351562 " fill-opacity="1" fill-rule="nonzero"/><path fill="#293237" d="M 312.777344 78.355469 C 313.203125 81.238281 312.089844 85.058594 312.902344 87.460938 C 312.902344 87.460938 313.515625 87.449219 314.242188 87.480469 L 314.285156 87.21875 C 314.464844 86.164062 314.835938 84.636719 316.453125 84.910156 C 317.449219 85.078125 318.210938 85.875 318.574219 86.949219 C 320.386719 82.101562 318.839844 76.457031 314.441406 73.292969 C 309.183594 69.507812 300.304688 71.113281 297.554688 78.585938 C 301.273438 80.472656 304.207031 76.65625 312.777344 78.355469 Z M 312.777344 78.355469 " fill-opacity="1" fill-rule="nonzero"/><path fill="#293237" d="M 333.125 132.347656 C 333.140625 132.351562 333.15625 132.351562 333.171875 132.351562 C 333.34375 132.351562 333.492188 132.226562 333.515625 132.050781 L 335.148438 120.113281 C 335.175781 119.921875 335.042969 119.746094 334.851562 119.722656 C 334.664062 119.691406 334.488281 119.828125 334.460938 120.015625 L 332.828125 131.957031 C 332.800781 132.148438 332.933594 132.320312 333.125 132.347656 Z M 333.125 132.347656 " fill-opacity="1" fill-rule="nonzero"/><path fill="#293237" d="M 336.800781 175.210938 C 336.835938 175.210938 336.871094 175.203125 336.902344 175.195312 L 338.074219 174.835938 C 338.253906 174.78125 338.359375 174.585938 338.300781 174.402344 C 338.246094 174.21875 338.054688 174.113281 337.871094 174.171875 L 336.699219 174.53125 C 336.515625 174.585938 336.414062 174.78125 336.46875 174.964844 C 336.515625 175.113281 336.652344 175.210938 336.800781 175.210938 Z M 336.800781 175.210938 " fill-opacity="1" fill-rule="nonzero"/><path fill="#293237" d="M 331.5625 174.15625 C 331.566406 174.15625 331.566406 174.15625 331.570312 174.15625 L 331.660156 169.507812 C 331.390625 169.6875 331.085938 169.820312 330.75 169.878906 C 329.523438 170.085938 328.273438 170.265625 327.011719 170.433594 C 327.652344 172.039062 328.988281 174.15625 331.5625 174.15625 Z M 331.5625 174.15625 " fill-opacity="1" fill-rule="nonzero"/><g clip-path="url(#acaf787126)"><path fill="#293237" d="M 332.6875 277.070312 C 332.6875 277.070312 332.6875 277.070312 332.691406 277.070312 C 332.628906 277.015625 332.5625 276.957031 332.5 276.902344 C 331.976562 276.429688 331.4375 275.957031 330.90625 275.476562 C 330.78125 275.367188 330.65625 275.253906 330.535156 275.140625 C 330.402344 275.019531 330.273438 274.898438 330.144531 274.773438 C 330.011719 274.648438 329.882812 274.523438 329.753906 274.394531 C 329.636719 274.28125 329.523438 274.164062 329.410156 274.042969 C 329.277344 273.90625 329.152344 273.765625 329.027344 273.625 C 328.921875 273.511719 328.816406 273.394531 328.714844 273.273438 C 328.589844 273.121094 328.46875 272.960938 328.347656 272.804688 C 328.257812 272.6875 328.167969 272.574219 328.085938 272.457031 C 327.957031 272.273438 327.839844 272.082031 327.726562 271.890625 C 327.660156 271.785156 327.589844 271.6875 327.53125 271.578125 C 327.363281 271.28125 327.210938 270.96875 327.078125 270.644531 C 327.074219 270.640625 327.074219 270.636719 327.070312 270.632812 C 327.015625 270.5 326.972656 270.363281 326.921875 270.230469 C 326.273438 270.015625 325.625 269.929688 324.976562 269.960938 C 324.652344 269.980469 324.324219 270.027344 324 270.101562 C 322.386719 270.480469 320.796875 271.570312 319.277344 273.195312 C 318.355469 274.179688 317.5 274.4375 316.773438 274.359375 C 316.546875 274.335938 316.332031 274.277344 316.132812 274.199219 C 316.121094 274.46875 316.109375 274.742188 316.097656 275.023438 C 316.09375 275.128906 316.089844 275.238281 316.085938 275.34375 C 316.078125 275.503906 316.070312 275.660156 316.066406 275.824219 C 316.058594 275.996094 316.050781 276.175781 316.046875 276.351562 C 316.042969 276.457031 316.039062 276.558594 316.035156 276.664062 C 316.027344 276.875 316.023438 277.09375 316.015625 277.3125 C 316.011719 277.375 316.011719 277.441406 316.007812 277.503906 C 315.964844 279.0625 315.929688 280.816406 315.921875 282.863281 C 315.917969 283.441406 316.386719 283.917969 316.964844 283.917969 L 335.304688 283.917969 C 335.945312 283.917969 336.445312 283.34375 336.339844 282.714844 C 335.953125 280.332031 334.429688 278.660156 332.6875 277.070312 Z M 332.6875 277.070312 " fill-opacity="1" fill-rule="nonzero"/></g><path fill="#293237" d="M 299.390625 264.136719 L 288.171875 264.136719 C 288.050781 264.136719 287.945312 264.089844 287.851562 264.023438 L 287.847656 264.136719 L 299.621094 264.136719 C 299.625 264.117188 299.632812 264.09375 299.636719 264.074219 C 299.5625 264.109375 299.480469 264.136719 299.390625 264.136719 Z M 299.390625 264.136719 " fill-opacity="1" fill-rule="nonzero"/><path fill="#293237" d="M 286.871094 270.566406 C 284.824219 273.128906 279.464844 276.394531 275.308594 278.414062 L 277.113281 281.238281 L 298.769531 281.238281 C 298.820312 279.007812 298.691406 275.746094 297.769531 272.898438 C 295.109375 274.257812 290.382812 275.207031 286.871094 270.566406 Z M 286.871094 270.566406 " fill-opacity="1" fill-rule="nonzero"/><path fill="#293237" d="M 341.738281 179.433594 C 341.546875 179.429688 341.382812 179.558594 341.363281 179.75 L 341.039062 183.515625 L 338.9375 190.589844 C 338.894531 190.734375 338.785156 190.847656 338.640625 190.894531 C 338.503906 190.9375 338.363281 190.914062 338.253906 190.828125 C 337.796875 190.464844 337.53125 189.871094 337.464844 189.054688 C 337.285156 186.742188 337.402344 184 337.402344 183.972656 C 337.410156 183.828125 337.328125 183.695312 337.199219 183.636719 C 337.160156 183.621094 336.304688 183.21875 335.941406 181.980469 C 335.886719 181.796875 335.699219 181.691406 335.511719 181.746094 C 335.328125 181.800781 335.222656 181.992188 335.277344 182.175781 C 335.617188 183.347656 336.339844 183.929688 336.703125 184.15625 C 336.679688 184.855469 336.621094 187.132812 336.777344 189.109375 C 336.875 190.375 337.402344 191.039062 337.828125 191.375 C 338.023438 191.527344 338.265625 191.609375 338.507812 191.609375 C 338.625 191.609375 338.738281 191.589844 338.851562 191.554688 C 339.214844 191.441406 339.496094 191.152344 339.601562 190.789062 L 341.714844 183.675781 C 341.722656 183.65625 341.726562 183.632812 341.726562 183.609375 L 342.054688 179.808594 C 342.070312 179.617188 341.929688 179.449219 341.738281 179.433594 Z M 341.738281 179.433594 " fill-opacity="1" fill-rule="nonzero"/><g clip-path="url(#20bfd9c813)"><path fill="#293237" d="M 275.308594 278.414062 C 274.679688 278.722656 274.074219 279 273.511719 279.246094 C 271.050781 280.316406 270.429688 281.546875 270.269531 282.734375 C 270.1875 283.359375 270.675781 283.917969 271.308594 283.917969 L 297.644531 283.917969 C 298.191406 283.917969 298.648438 283.496094 298.6875 282.949219 C 298.71875 282.503906 298.753906 281.917969 298.769531 281.238281 L 277.113281 281.238281 Z M 275.308594 278.414062 " fill-opacity="1" fill-rule="nonzero"/></g><path fill="#293237" d="M 146.789062 227.964844 C 146.789062 228.15625 146.636719 228.3125 146.445312 228.316406 C 146.445312 228.316406 146.441406 228.316406 146.441406 228.316406 C 146.253906 228.316406 146.097656 228.160156 146.09375 227.972656 L 145.707031 193.851562 C 145.707031 193.660156 145.859375 193.5 146.050781 193.5 C 146.097656 193.503906 146.136719 193.515625 146.175781 193.53125 L 146.140625 174.15625 C 146.140625 174.15625 147.78125 163.972656 134.199219 166.40625 C 129.769531 167.199219 122.40625 168.355469 114.328125 169.582031 L 114.320312 169.625 L 103.9375 175.492188 C 103.9375 175.492188 91.628906 184.925781 73.640625 177.5 C 72.683594 183.878906 71.683594 203.066406 94.671875 201.417969 C 94.671875 201.417969 98.175781 201.042969 103.472656 199.800781 L 103.773438 199.808594 C 107.992188 198.78125 117.59375 196.164062 123.421875 192.378906 C 123.582031 192.277344 123.796875 192.320312 123.902344 192.480469 C 124.007812 192.640625 123.960938 192.855469 123.800781 192.960938 C 118.828125 196.191406 111.171875 198.578125 106.332031 199.871094 L 122.699219 200.269531 L 125.714844 205.109375 L 127.945312 258.40625 L 146.304688 260.707031 L 146.261719 238.132812 L 155.8125 253.480469 L 169.90625 242.96875 L 146.40625 194.40625 Z M 146.789062 227.964844 " fill-opacity="1" fill-rule="nonzero"/><path fill="#293237" d="M 116.800781 152.660156 C 116.988281 152.660156 117.140625 152.515625 117.148438 152.328125 C 117.15625 152.136719 117.003906 151.976562 116.816406 151.964844 L 108.339844 151.625 C 108.148438 151.628906 107.984375 151.765625 107.976562 151.957031 C 107.96875 152.148438 108.117188 152.308594 108.308594 152.316406 L 116.785156 152.660156 C 116.789062 152.660156 116.796875 152.660156 116.800781 152.660156 Z M 116.800781 152.660156 " fill-opacity="1" fill-rule="nonzero"/><path fill="#293237" d="M 260.027344 123.289062 C 260.03125 123.285156 260.039062 123.285156 260.042969 123.28125 C 260.398438 123.023438 260.625 122.628906 260.699219 122.148438 C 260.773438 121.632812 260.683594 120.691406 259.195312 120.203125 C 259.011719 120.144531 258.816406 120.242188 258.757812 120.425781 C 258.695312 120.609375 258.796875 120.804688 258.976562 120.863281 C 260.132812 121.242188 260.042969 121.847656 260.011719 122.046875 C 259.96875 122.34375 259.839844 122.570312 259.636719 122.71875 C 259.445312 122.855469 259.195312 122.914062 258.9375 122.886719 C 258.933594 122.886719 258.929688 122.882812 258.921875 122.882812 C 258.917969 122.882812 258.917969 122.882812 258.914062 122.882812 C 258.898438 122.882812 258.878906 122.882812 258.863281 122.878906 C 258.402344 122.800781 257.691406 122.691406 256.96875 122.585938 C 256.78125 122.570312 256.601562 122.6875 256.574219 122.878906 C 256.546875 123.070312 256.675781 123.246094 256.867188 123.273438 C 257.582031 123.378906 258.289062 123.488281 258.746094 123.566406 C 258.789062 123.574219 258.835938 123.570312 258.878906 123.574219 C 258.878906 123.574219 258.878906 123.578125 258.878906 123.578125 C 259.316406 123.601562 259.703125 123.816406 259.914062 124.148438 C 260.109375 124.449219 260.140625 124.808594 260.007812 125.164062 C 259.832031 125.625 259.398438 125.8125 258.714844 125.726562 C 258.695312 125.722656 258.664062 125.722656 258.640625 125.71875 C 258.636719 125.71875 258.636719 125.71875 258.632812 125.71875 C 258.632812 125.71875 258.628906 125.71875 258.628906 125.71875 C 258.296875 125.679688 257.769531 125.652344 256.925781 125.628906 C 256.722656 125.648438 256.574219 125.773438 256.570312 125.964844 C 256.5625 126.15625 256.714844 126.320312 256.90625 126.324219 C 257.445312 126.339844 258.203125 126.367188 258.601562 126.414062 C 258.941406 126.441406 259.234375 126.597656 259.410156 126.847656 C 259.566406 127.074219 259.609375 127.359375 259.523438 127.644531 C 259.394531 128.082031 258.996094 128.363281 258.503906 128.355469 L 256.898438 128.445312 C 256.707031 128.457031 256.558594 128.621094 256.570312 128.8125 C 256.578125 128.996094 256.730469 129.140625 256.914062 129.140625 C 256.921875 129.140625 256.929688 129.140625 256.933594 129.140625 L 257.550781 129.105469 C 257.578125 129.109375 257.601562 129.117188 257.628906 129.113281 C 257.941406 129.078125 258.238281 129.1875 258.453125 129.417969 C 258.664062 129.644531 258.757812 129.949219 258.703125 130.257812 C 258.625 130.699219 258.261719 131.03125 257.816406 131.0625 C 257.625 131.078125 257.484375 131.246094 257.496094 131.4375 C 257.511719 131.617188 257.664062 131.757812 257.839844 131.757812 C 257.851562 131.757812 257.859375 131.757812 257.867188 131.757812 C 258.628906 131.699219 259.253906 131.132812 259.386719 130.375 C 259.472656 129.871094 259.328125 129.375 258.992188 128.992188 C 259.554688 128.84375 260.015625 128.421875 260.1875 127.84375 C 260.332031 127.347656 260.257812 126.855469 259.976562 126.449219 C 259.929688 126.382812 259.875 126.328125 259.820312 126.273438 C 260.203125 126.105469 260.492188 125.828125 260.652344 125.410156 C 260.863281 124.851562 260.804688 124.257812 260.496094 123.773438 C 260.375 123.582031 260.210938 123.425781 260.027344 123.289062 Z M 260.027344 123.289062 " fill-opacity="1" fill-rule="nonzero"/><path fill="#293237" d="M 266.921875 128.738281 C 266.734375 128.683594 266.542969 128.792969 266.492188 128.976562 C 265.96875 130.824219 265.078125 131.90625 263.84375 132.203125 C 263.660156 132.246094 263.542969 132.433594 263.589844 132.621094 C 263.625 132.78125 263.769531 132.886719 263.925781 132.886719 C 263.953125 132.886719 263.980469 132.886719 264.003906 132.878906 C 265.5 132.523438 266.5625 131.273438 267.160156 129.167969 C 267.210938 128.984375 267.105469 128.789062 266.921875 128.738281 Z M 266.921875 128.738281 " fill-opacity="1" fill-rule="nonzero"/><path fill="#293237" d="M 327.34375 264.136719 L 316.128906 264.136719 C 316.023438 264.136719 315.929688 264.101562 315.84375 264.050781 L 315.847656 264.136719 L 327.59375 264.136719 C 327.597656 264.113281 327.601562 264.085938 327.605469 264.0625 C 327.527344 264.105469 327.441406 264.136719 327.34375 264.136719 Z M 327.34375 264.136719 " fill-opacity="1" fill-rule="nonzero"/><path fill="#293237" d="M 330.726562 217.261719 L 331.554688 174.851562 C 328.5 174.847656 326.996094 172.320312 326.308594 170.523438 C 316.816406 171.695312 306.425781 171.640625 296.765625 170.441406 C 296.09375 172.246094 294.585938 174.851562 291.480469 174.851562 C 291.449219 174.851562 291.425781 174.839844 291.398438 174.835938 L 289.859375 216.804688 L 288.148438 257.042969 C 288.234375 256.992188 288.332031 256.953125 288.4375 256.953125 L 301.128906 256.953125 C 301.324219 256.953125 301.488281 257.050781 301.589844 257.195312 C 304.304688 246.960938 307.511719 231.402344 305.222656 219.515625 L 311.570312 176.421875 L 307.792969 176.183594 C 307.601562 176.171875 307.457031 176.003906 307.46875 175.8125 C 307.480469 175.625 307.621094 175.472656 307.835938 175.488281 L 313.1875 175.828125 C 313.375 175.839844 313.523438 176.003906 313.511719 176.195312 C 313.5 176.375 313.351562 176.511719 313.175781 176.519531 L 315.628906 257.054688 C 315.71875 256.996094 315.820312 256.953125 315.933594 256.953125 L 328.386719 256.953125 C 328.53125 256.953125 328.65625 257.015625 328.753906 257.105469 C 329.671875 251.480469 330.71875 244.855469 331.320312 240.328125 C 332.566406 230.988281 330.726562 217.261719 330.726562 217.261719 Z M 330.726562 217.261719 " fill-opacity="1" fill-rule="nonzero"/></svg>