<svg xmlns="http://www.w3.org/2000/svg" xmlns:xlink="http://www.w3.org/1999/xlink" width="540" zoomAndPan="magnify" viewBox="0 0 404.88 299.999988" height="400" preserveAspectRatio="xMidYMid meet" version="1.0"><defs><clipPath id="14a3fc4121"><path d="M 218 30.035156 L 251 30.035156 L 251 63 L 218 63 Z M 218 30.035156 " clip-rule="nonzero"/></clipPath><clipPath id="a8a054f371"><path d="M 82.476562 34 L 322 34 L 322 269.964844 L 82.476562 269.964844 Z M 82.476562 34 " clip-rule="nonzero"/></clipPath><clipPath id="6749fb0483"><path d="M 82.476562 30.035156 L 298 30.035156 L 298 266 L 82.476562 266 Z M 82.476562 30.035156 " clip-rule="nonzero"/></clipPath><clipPath id="1279d1076d"><path d="M 82.476562 45 L 270 45 L 270 269.964844 L 82.476562 269.964844 Z M 82.476562 45 " clip-rule="nonzero"/></clipPath><clipPath id="df186d4239"><path d="M 99 84 L 322 84 L 322 269.964844 L 99 269.964844 Z M 99 84 " clip-rule="nonzero"/></clipPath></defs><g clip-path="url(#14a3fc4121)"><path fill="#f5f5f5" d="M 219.515625 48.195312 L 221.925781 49.171875 C 223.214844 49.695312 223.769531 51.214844 223.121094 52.445312 L 221.902344 54.746094 C 220.867188 56.699219 222.855469 58.867188 224.890625 58.003906 L 227.28125 56.992188 C 228.5625 56.449219 230.03125 57.132812 230.441406 58.464844 L 231.207031 60.949219 C 231.855469 63.058594 234.792969 63.1875 235.625 61.140625 L 236.601562 58.734375 C 237.125 57.445312 238.648438 56.890625 239.875 57.542969 L 242.171875 58.757812 C 244.125 59.792969 246.292969 57.804688 245.433594 55.769531 L 244.421875 53.378906 C 243.878906 52.097656 244.566406 50.628906 245.894531 50.21875 L 248.378906 49.453125 C 250.488281 48.804688 250.617188 45.867188 248.570312 45.035156 L 246.164062 44.058594 C 244.875 43.535156 244.320312 42.011719 244.972656 40.785156 L 246.1875 38.484375 C 247.222656 36.535156 245.234375 34.367188 243.199219 35.226562 L 240.804688 36.238281 C 239.523438 36.78125 238.054688 36.09375 237.648438 34.765625 L 236.882812 32.277344 C 236.234375 30.167969 233.296875 30.039062 232.464844 32.085938 L 231.488281 34.496094 C 230.964844 35.785156 229.445312 36.339844 228.214844 35.6875 L 225.914062 34.46875 C 223.960938 33.4375 221.792969 35.425781 222.652344 37.457031 L 223.667969 39.851562 C 224.210938 41.132812 223.527344 42.601562 222.195312 43.011719 L 219.707031 43.777344 C 217.597656 44.425781 217.46875 47.367188 219.515625 48.195312 Z M 228.882812 43.9375 C 229.382812 42.84375 230.273438 41.953125 231.367188 41.453125 C 236.554688 39.078125 241.585938 44.105469 239.207031 49.296875 C 238.707031 50.386719 237.816406 51.277344 236.726562 51.777344 C 231.535156 54.15625 226.503906 49.125 228.882812 43.9375 Z M 228.882812 43.9375 " fill-opacity="1" fill-rule="nonzero"/></g><g clip-path="url(#a8a054f371)"><path fill="#f5f5f5" d="M 320.296875 126.402344 C 320.007812 126.09375 319.691406 125.820312 319.351562 125.59375 L 318.914062 125.296875 L 297.554688 110.28125 C 297.0625 109.667969 296.355469 109.160156 295.566406 108.863281 C 292.429688 107.671875 289.609375 106.730469 286.714844 106.113281 L 285.675781 99.742188 C 285.675781 99.722656 285.679688 99.707031 285.679688 99.6875 L 284.679688 93.605469 C 284.84375 93.664062 285.027344 93.691406 285.214844 93.671875 C 287.007812 93.488281 288.371094 92.386719 288.660156 90.847656 C 288.789062 90.175781 288.761719 89.523438 288.617188 88.9375 C 289.226562 87.207031 289.390625 85.375 289.125 83.605469 C 292.515625 85.21875 296.644531 84.027344 298.625 80.746094 C 300.734375 77.25 299.609375 72.707031 296.113281 70.597656 C 293.664062 69.121094 290.707031 69.234375 288.429688 70.628906 L 288.191406 69.878906 C 287.570312 67.898438 288.792969 65.808594 290.828125 65.390625 L 294.632812 64.605469 C 297.863281 63.9375 298.46875 59.585938 295.542969 58.0625 L 292.097656 56.265625 C 290.257812 55.308594 289.648438 52.964844 290.789062 51.230469 L 292.925781 47.984375 C 294.738281 45.226562 292.085938 41.71875 288.941406 42.710938 L 285.234375 43.882812 C 283.253906 44.503906 281.167969 43.28125 280.746094 41.246094 L 279.964844 37.4375 C 279.296875 34.207031 274.941406 33.601562 273.421875 36.527344 L 271.625 39.976562 C 270.667969 41.816406 268.324219 42.425781 266.589844 41.285156 L 263.335938 39.148438 C 260.582031 37.335938 257.074219 39.984375 258.066406 43.132812 L 259.238281 46.835938 C 259.863281 48.816406 258.640625 50.90625 256.601562 51.324219 L 252.792969 52.109375 C 249.5625 52.777344 248.957031 57.128906 251.882812 58.652344 L 255.332031 60.445312 C 256.863281 61.246094 257.539062 62.996094 257.070312 64.566406 C 256.882812 64.558594 256.699219 64.550781 256.511719 64.550781 L 184.671875 64.550781 L 184.707031 56.246094 L 184.730469 56.246094 L 184.730469 50.535156 C 184.730469 47.941406 182.628906 45.839844 180.035156 45.839844 L 138.402344 45.839844 C 136.617188 45.839844 135.066406 46.832031 134.273438 48.296875 C 134.230469 48.375 134.195312 48.457031 134.15625 48.539062 C 134.128906 48.597656 134.097656 48.648438 134.074219 48.707031 C 133.835938 49.269531 133.707031 49.886719 133.707031 50.535156 L 133.699219 52.351562 C 129.066406 53.554688 125.667969 57.511719 125.667969 62.90625 C 125.667969 64.105469 125.765625 65.253906 125.921875 66.367188 C 125.230469 66.976562 124.75 67.972656 124.683594 69.121094 C 124.671875 69.308594 124.679688 69.492188 124.699219 69.675781 C 124.710938 69.761719 124.734375 69.84375 124.753906 69.929688 C 124.773438 70.019531 124.785156 70.113281 124.8125 70.199219 C 124.847656 70.316406 124.898438 70.429688 124.945312 70.542969 C 124.96875 70.589844 124.984375 70.644531 125.007812 70.695312 C 125.074219 70.828125 125.15625 70.957031 125.242188 71.082031 C 125.257812 71.105469 125.269531 71.128906 125.285156 71.152344 C 125.382812 71.292969 125.496094 71.425781 125.617188 71.550781 C 125.625 71.558594 125.628906 71.5625 125.632812 71.566406 C 126.019531 71.96875 126.515625 72.300781 127.089844 72.539062 L 125.640625 85.054688 C 120.746094 85.546875 117.691406 86.144531 117.691406 86.144531 C 112.277344 87.734375 108.445312 89.71875 105.847656 90.796875 C 105.589844 90.90625 105.375 91.070312 105.203125 91.269531 C 103.214844 92.65625 101.820312 94.867188 101.566406 97.464844 L 100.402344 120.039062 L 100.378906 120.039062 C 100.378906 120.039062 100.378906 120.039062 100.375 120.039062 C 100.214844 120.039062 100.085938 120.171875 100.082031 120.332031 C 100.082031 120.398438 100.109375 120.460938 100.148438 120.511719 C 99.925781 120.652344 99.769531 120.898438 99.753906 121.179688 L 99.09375 130.9375 L 105.007812 120.671875 L 98.914062 131.246094 C 97.640625 135.429688 99.996094 139.851562 104.175781 141.125 C 105.957031 141.664062 107.773438 141.546875 109.378906 140.910156 C 109.363281 141.074219 109.355469 141.246094 109.335938 141.40625 C 109.207031 142.636719 109.75 143.808594 110.699219 144.511719 C 110.234375 151.453125 110.15625 159.066406 110.46875 165.523438 L 111.726562 189.289062 L 87.199219 189.289062 C 85.253906 189.289062 83.585938 190.472656 82.875 192.15625 C 82.847656 192.222656 82.824219 192.289062 82.800781 192.355469 C 82.773438 192.433594 82.742188 192.507812 82.71875 192.589844 C 82.578125 193.027344 82.503906 193.496094 82.503906 193.984375 L 82.503906 229.160156 C 82.503906 231.753906 84.605469 234.324219 87.199219 234.324219 L 112.582031 234.09375 C 113.5625 240.59375 114.835938 248.277344 115.601562 252.839844 L 117.644531 252.839844 L 117.644531 255.066406 C 117.097656 255.398438 116.664062 255.835938 116.417969 256.414062 C 115.378906 258.832031 114.242188 260.511719 112.683594 262.957031 C 111.261719 265.1875 110.78125 267.007812 110.789062 268.492188 C 110.792969 269.226562 111.402344 269.8125 112.136719 269.8125 L 130.125 269.8125 C 130.855469 269.8125 131.46875 269.226562 131.472656 268.496094 C 131.480469 264.417969 129.890625 260.570312 129.304688 258.023438 C 129.054688 256.9375 129.003906 256.003906 128.578125 255.710938 C 128.542969 255.6875 128.515625 255.679688 128.484375 255.660156 C 128.386719 254.589844 128.328125 253.652344 128.292969 252.835938 L 129.921875 252.835938 L 130.324219 233.929688 L 138.371094 233.855469 C 138.523438 233.855469 138.675781 233.847656 138.824219 233.832031 C 140.28125 241.859375 142.144531 248.929688 143.320312 252.835938 L 145.003906 252.835938 C 145.082031 253.910156 145.152344 254.789062 145.210938 255.511719 C 145.03125 255.433594 144.835938 255.40625 144.582031 255.480469 C 142.929688 255.949219 142.878906 262.773438 142.878906 268.570312 C 142.878906 269.335938 143.5 269.949219 144.261719 269.949219 L 170.042969 269.949219 C 170.867188 269.949219 171.511719 269.234375 171.414062 268.414062 C 171.214844 266.6875 170.4375 263.960938 167.644531 262.714844 C 163.390625 260.820312 160.558594 258.875 159.300781 256.210938 C 158.667969 254.871094 157.246094 254.28125 155.832031 254.257812 C 155.75 253.726562 155.679688 253.257812 155.625 252.835938 L 157.105469 252.835938 L 156.050781 199.539062 L 151.921875 149.992188 C 153.285156 149.757812 153.554688 148.347656 153.777344 146.832031 L 156.984375 109.996094 C 157.042969 109.976562 157.097656 109.941406 157.132812 109.890625 L 162.304688 114.9375 C 162.132812 115.257812 162.183594 115.664062 162.460938 115.9375 L 169.457031 122.707031 C 169.675781 122.917969 169.972656 122.972656 170.246094 122.90625 L 170.246094 256.171875 C 170.246094 263.527344 176.207031 269.488281 183.558594 269.488281 L 218.460938 269.488281 C 218.46875 269.691406 218.496094 269.8125 218.496094 269.8125 L 243.515625 269.8125 C 243.535156 269.699219 243.550781 269.597656 243.570312 269.488281 L 256.515625 269.488281 C 263.867188 269.488281 269.828125 263.527344 269.828125 256.171875 L 269.828125 255.042969 L 283.992188 255.417969 L 273.4375 255.136719 C 273.273438 255.625 273.167969 256.144531 273.140625 256.683594 L 273.089844 257.625 C 272.660156 262.601562 272.746094 266.207031 272.746094 269.8125 L 293.261719 269.8125 C 293.347656 265.777344 284.851562 263.171875 284.851562 259.238281 L 284.851562 256.992188 C 284.851562 256.453125 284.769531 255.933594 284.632812 255.433594 L 294.339844 255.691406 C 294.347656 255.691406 295.332031 250.320312 295.667969 248.523438 L 295.75 248.523438 C 295.910156 248.523438 296.042969 248.394531 296.042969 248.230469 C 296.042969 248.078125 295.925781 247.960938 295.777344 247.945312 C 298.027344 224.414062 303 171.816406 303 166.101562 C 303 160.984375 302.742188 155.992188 301.300781 151.183594 C 302.308594 150.707031 303.5 150.132812 303.882812 149.71875 C 304.148438 149.429688 304.300781 149.117188 304.378906 148.792969 L 320.027344 134.304688 C 322.285156 132.195312 322.40625 128.660156 320.296875 126.402344 Z M 121.390625 254.265625 C 121.316406 254.261719 121.242188 254.265625 121.167969 254.265625 C 121.242188 254.265625 121.316406 254.261719 121.390625 254.265625 Z M 118.589844 254.636719 C 118.546875 254.652344 118.507812 254.667969 118.46875 254.683594 C 118.507812 254.667969 118.546875 254.652344 118.589844 254.636719 Z M 120.230469 254.308594 C 120.210938 254.308594 120.195312 254.308594 120.179688 254.3125 C 120.195312 254.308594 120.210938 254.308594 120.230469 254.308594 Z M 119.75 254.367188 C 119.6875 254.378906 119.625 254.386719 119.5625 254.398438 C 119.625 254.386719 119.6875 254.378906 119.75 254.367188 Z M 119.160156 254.480469 C 119.097656 254.492188 119.039062 254.507812 118.980469 254.523438 C 119.039062 254.507812 119.097656 254.492188 119.160156 254.480469 Z M 125.617188 255.125 C 125.785156 255.199219 125.941406 255.273438 126.085938 255.351562 C 125.941406 255.273438 125.785156 255.199219 125.617188 255.125 Z M 121.777344 254.28125 C 121.875 254.285156 121.96875 254.289062 122.066406 254.296875 C 121.96875 254.289062 121.875 254.285156 121.777344 254.28125 Z M 122.421875 254.328125 C 122.535156 254.339844 122.644531 254.355469 122.753906 254.367188 C 122.644531 254.355469 122.535156 254.339844 122.421875 254.328125 Z M 123.070312 254.410156 C 123.238281 254.4375 123.402344 254.46875 123.566406 254.5 C 123.402344 254.46875 123.238281 254.4375 123.070312 254.410156 Z M 123.824219 254.554688 C 123.984375 254.589844 124.144531 254.628906 124.296875 254.671875 C 124.144531 254.628906 123.984375 254.589844 123.824219 254.554688 Z M 124.511719 254.730469 C 124.640625 254.769531 124.769531 254.808594 124.890625 254.847656 C 124.769531 254.808594 124.640625 254.769531 124.511719 254.730469 Z M 125.09375 254.917969 C 125.21875 254.964844 125.339844 255.011719 125.457031 255.058594 C 125.339844 255.011719 125.21875 254.964844 125.09375 254.917969 Z M 128.320312 255.59375 C 128.265625 255.582031 128.210938 255.574219 128.160156 255.582031 C 128.210938 255.574219 128.265625 255.578125 128.320312 255.59375 Z M 152.898438 255.167969 C 152.867188 255.195312 152.828125 255.21875 152.796875 255.246094 C 152.828125 255.21875 152.867188 255.195312 152.898438 255.167969 Z M 147.273438 256.585938 C 147.417969 256.605469 147.574219 256.621094 147.746094 256.621094 C 147.574219 256.621094 147.417969 256.605469 147.273438 256.585938 Z M 145.933594 256.023438 C 145.96875 256.050781 146 256.074219 146.035156 256.101562 C 146 256.074219 145.96875 256.050781 145.933594 256.023438 Z M 146.144531 256.175781 C 146.214844 256.222656 146.296875 256.269531 146.382812 256.3125 C 146.296875 256.269531 146.214844 256.222656 146.144531 256.175781 Z M 146.46875 256.355469 C 146.554688 256.398438 146.644531 256.433594 146.746094 256.46875 C 146.644531 256.433594 146.554688 256.398438 146.46875 256.355469 Z M 146.792969 256.484375 C 146.90625 256.519531 147.035156 256.550781 147.167969 256.570312 C 147.035156 256.546875 146.90625 256.519531 146.792969 256.484375 Z M 152.570312 255.492188 C 152.542969 255.527344 152.507812 255.554688 152.484375 255.585938 C 152.507812 255.554688 152.542969 255.527344 152.570312 255.492188 Z M 154.148438 254.503906 C 154.15625 254.5 154.167969 254.496094 154.175781 254.492188 C 154.167969 254.496094 154.15625 254.5 154.148438 254.503906 Z M 153.1875 254.949219 C 153.214844 254.929688 153.246094 254.917969 153.277344 254.898438 C 153.246094 254.917969 153.214844 254.929688 153.1875 254.949219 Z M 153.640625 254.699219 C 153.660156 254.691406 153.683594 254.683594 153.703125 254.675781 C 153.683594 254.683594 153.660156 254.691406 153.640625 254.699219 Z M 274.757812 202.15625 C 274.746094 202.125 274.738281 202.089844 274.738281 202.050781 C 274.738281 202.089844 274.746094 202.125 274.757812 202.15625 Z M 274.867188 202.296875 C 274.863281 202.292969 274.859375 202.292969 274.855469 202.289062 C 274.859375 202.292969 274.863281 202.292969 274.867188 202.296875 Z M 274.804688 202.238281 C 274.792969 202.226562 274.785156 202.214844 274.78125 202.199219 C 274.785156 202.214844 274.792969 202.226562 274.804688 202.238281 Z M 134.511719 81.40625 C 134.640625 81.480469 134.765625 81.554688 134.898438 81.617188 C 134.765625 81.554688 134.640625 81.480469 134.511719 81.40625 Z M 139.503906 82.453125 C 139.3125 82.476562 139.125 82.488281 138.933594 82.496094 C 139.125 82.488281 139.3125 82.472656 139.503906 82.453125 Z M 128.480469 72.398438 C 128.488281 72.394531 128.492188 72.386719 128.5 72.382812 C 128.511719 72.375 128.523438 72.363281 128.535156 72.351562 C 128.515625 72.371094 128.496094 72.386719 128.476562 72.402344 C 128.476562 72.402344 128.480469 72.398438 128.480469 72.398438 Z M 128.769531 72.046875 C 128.78125 72.019531 128.792969 71.992188 128.804688 71.96875 C 128.8125 71.945312 128.824219 71.925781 128.832031 71.902344 C 128.8125 71.953125 128.792969 72.003906 128.765625 72.054688 C 128.765625 72.050781 128.765625 72.050781 128.769531 72.046875 Z M 128.90625 71.589844 C 128.90625 71.574219 128.914062 71.5625 128.914062 71.546875 C 128.914062 71.5625 128.910156 71.574219 128.90625 71.589844 Z M 128.890625 71.675781 C 128.894531 71.644531 128.90625 71.617188 128.90625 71.589844 C 128.898438 71.667969 128.886719 71.742188 128.867188 71.816406 C 128.878906 71.769531 128.882812 71.722656 128.890625 71.675781 Z M 128.707031 72.152344 C 128.683594 72.1875 128.65625 72.21875 128.628906 72.25 C 128.65625 72.21875 128.683594 72.1875 128.707031 72.152344 Z M 112.894531 138.179688 C 112.839844 138.257812 112.785156 138.328125 112.726562 138.402344 C 112.785156 138.328125 112.839844 138.257812 112.894531 138.179688 Z M 113.75 136.679688 C 113.714844 136.761719 113.671875 136.839844 113.632812 136.921875 C 113.671875 136.839844 113.714844 136.761719 113.75 136.679688 Z M 113.363281 137.457031 C 113.3125 137.539062 113.261719 137.621094 113.210938 137.707031 C 113.261719 137.621094 113.3125 137.539062 113.363281 137.457031 Z M 112.183594 139.03125 C 112.238281 138.976562 112.292969 138.917969 112.34375 138.859375 C 112.292969 138.917969 112.238281 138.976562 112.183594 139.03125 Z M 139.804688 82.414062 C 139.882812 82.40625 139.957031 82.394531 140.035156 82.382812 C 139.960938 82.394531 139.882812 82.402344 139.804688 82.414062 Z M 140.433594 82.300781 C 140.46875 82.296875 140.5 82.289062 140.53125 82.28125 C 140.5 82.289062 140.46875 82.296875 140.433594 82.300781 Z M 287.886719 87.511719 C 287.878906 87.5 287.867188 87.488281 287.859375 87.476562 C 287.867188 87.488281 287.878906 87.5 287.886719 87.511719 Z M 174.742188 77.0625 C 174.75 76.976562 174.761719 76.894531 174.769531 76.8125 C 174.761719 76.894531 174.75 76.976562 174.742188 77.0625 Z M 174.855469 76.261719 C 174.871094 76.171875 174.886719 76.082031 174.902344 75.996094 C 174.886719 76.082031 174.871094 76.171875 174.855469 76.261719 Z M 175.078125 75.316406 C 175.117188 75.195312 175.160156 75.078125 175.203125 74.957031 C 175.160156 75.078125 175.117188 75.195312 175.078125 75.316406 Z M 175.320312 74.632812 C 175.375 74.496094 175.433594 74.355469 175.492188 74.222656 C 175.429688 74.355469 175.375 74.496094 175.320312 74.632812 Z M 265.292969 76.765625 C 265.304688 76.859375 265.316406 76.949219 265.328125 77.046875 C 265.320312 76.949219 265.304688 76.859375 265.292969 76.765625 Z M 282.511719 85.472656 C 282.511719 85.515625 282.511719 85.5625 282.511719 85.605469 C 282.511719 85.5625 282.511719 85.515625 282.511719 85.472656 Z M 281.710938 85.007812 C 281.734375 85.007812 281.753906 85.007812 281.773438 85.007812 C 282.03125 85.011719 282.28125 85.011719 282.523438 85.015625 C 282.261719 85.011719 281.992188 85.011719 281.710938 85.007812 Z M 278.425781 84.8125 C 278.617188 84.835938 278.804688 84.855469 278.992188 84.871094 C 279.03125 84.875 279.070312 84.878906 279.109375 84.882812 C 279.386719 84.90625 279.660156 84.925781 279.929688 84.941406 C 279.96875 84.945312 280.007812 84.945312 280.046875 84.949219 C 280.199219 84.957031 280.351562 84.960938 280.503906 84.96875 C 279.835938 84.941406 279.140625 84.890625 278.425781 84.8125 Z M 278.042969 84.773438 C 278.078125 84.777344 278.109375 84.78125 278.144531 84.785156 C 278.109375 84.78125 278.078125 84.777344 278.042969 84.773438 Z M 277.089844 84.636719 C 277.117188 84.640625 277.140625 84.644531 277.164062 84.648438 C 277.261719 84.664062 277.359375 84.675781 277.457031 84.691406 C 277.335938 84.671875 277.214844 84.65625 277.089844 84.636719 Z M 274.292969 83.941406 C 274.308594 83.945312 274.320312 83.949219 274.335938 83.953125 C 274.925781 84.160156 275.539062 84.324219 276.160156 84.460938 C 276.167969 84.460938 276.175781 84.464844 276.183594 84.464844 C 276.304688 84.492188 276.429688 84.511719 276.554688 84.535156 C 275.785156 84.386719 275.019531 84.195312 274.292969 83.941406 Z M 275.582031 104.050781 C 275.570312 104.039062 275.5625 104.027344 275.554688 104.015625 C 275.5625 104.027344 275.570312 104.039062 275.582031 104.050781 Z M 275.011719 102.988281 C 275 102.964844 274.992188 102.9375 274.980469 102.914062 C 274.992188 102.9375 275 102.964844 275.011719 102.988281 Z M 274.808594 102.339844 C 274.800781 102.304688 274.792969 102.269531 274.785156 102.230469 C 274.792969 102.269531 274.800781 102.304688 274.808594 102.339844 Z M 277.035156 105.125 C 277.03125 105.121094 277.023438 105.121094 277.015625 105.117188 C 277.023438 105.121094 277.03125 105.121094 277.035156 105.125 Z M 275.976562 104.484375 C 275.972656 104.480469 275.96875 104.476562 275.960938 104.472656 C 275.96875 104.476562 275.972656 104.480469 275.976562 104.484375 Z M 280.640625 105.183594 C 280.496094 105.226562 280.351562 105.265625 280.210938 105.300781 C 280.351562 105.265625 280.496094 105.226562 280.640625 105.183594 Z M 281.707031 104.757812 C 281.617188 104.804688 281.523438 104.84375 281.433594 104.882812 C 281.523438 104.84375 281.617188 104.804688 281.707031 104.757812 Z M 281.171875 104.992188 C 281.074219 105.03125 280.976562 105.066406 280.878906 105.101562 C 280.976562 105.066406 281.074219 105.03125 281.171875 104.992188 Z M 280.84375 84.984375 C 280.875 84.984375 280.90625 84.988281 280.941406 84.988281 C 281.164062 84.996094 281.378906 85 281.59375 85.003906 C 281.351562 85 281.101562 84.992188 280.84375 84.984375 Z M 282.742188 104.179688 C 282.664062 104.230469 282.585938 104.28125 282.503906 104.328125 C 282.582031 104.28125 282.664062 104.230469 282.742188 104.179688 Z M 282.230469 104.488281 C 282.144531 104.535156 282.058594 104.582031 281.972656 104.625 C 282.058594 104.582031 282.144531 104.535156 282.230469 104.488281 Z M 282.539062 86.058594 C 282.542969 86.09375 282.542969 86.132812 282.546875 86.167969 C 282.585938 86.574219 282.660156 87.015625 282.773438 87.472656 C 282.648438 86.972656 282.574219 86.492188 282.539062 86.058594 Z M 282.792969 87.554688 C 282.855469 87.796875 282.929688 88.042969 283.019531 88.289062 C 282.925781 88.03125 282.847656 87.773438 282.78125 87.515625 C 282.785156 87.527344 282.789062 87.542969 282.792969 87.554688 Z M 273.464844 83.613281 C 273.105469 83.453125 272.757812 83.273438 272.425781 83.078125 C 272.46875 83.101562 272.503906 83.132812 272.546875 83.15625 C 272.570312 83.167969 272.597656 83.183594 272.625 83.199219 C 272.875 83.335938 273.128906 83.464844 273.394531 83.582031 C 273.417969 83.59375 273.441406 83.601562 273.464844 83.613281 Z M 271.054688 82.074219 C 271.074219 82.09375 271.09375 82.113281 271.113281 82.128906 C 271.320312 82.316406 271.535156 82.488281 271.761719 82.652344 C 271.785156 82.671875 271.8125 82.6875 271.835938 82.707031 C 271.558594 82.511719 271.292969 82.296875 271.046875 82.066406 C 271.050781 82.066406 271.050781 82.070312 271.054688 82.074219 Z M 269.828125 98.839844 C 270.636719 99.828125 271.691406 100.632812 272.957031 101.136719 C 273.5 101.355469 274.058594 101.5 274.613281 101.585938 L 274.925781 105.480469 C 273.339844 105.617188 271.648438 105.835938 269.828125 106.140625 Z M 273.585938 147.765625 C 273.453125 147.695312 273.320312 147.621094 273.191406 147.542969 C 273.320312 147.621094 273.453125 147.695312 273.585938 147.765625 Z M 275.585938 148.546875 C 275.378906 148.492188 275.167969 148.433594 274.964844 148.363281 C 275.167969 148.433594 275.378906 148.492188 275.585938 148.546875 Z M 274.550781 148.210938 C 274.40625 148.152344 274.265625 148.09375 274.125 148.03125 C 274.265625 148.09375 274.40625 148.152344 274.550781 148.210938 Z M 276.078125 148.660156 C 276.050781 148.65625 276.027344 148.648438 276.003906 148.644531 C 276.027344 148.648438 276.050781 148.652344 276.074219 148.65625 C 276.074219 148.660156 276.074219 148.660156 276.078125 148.660156 Z M 272.285156 146.941406 C 272.433594 147.050781 272.582031 147.15625 272.730469 147.253906 C 272.582031 147.15625 272.433594 147.050781 272.285156 146.941406 Z M 276.667969 148.757812 C 276.675781 148.757812 276.6875 148.761719 276.699219 148.761719 C 276.6875 148.761719 276.675781 148.761719 276.667969 148.761719 C 276.667969 148.761719 276.667969 148.757812 276.667969 148.757812 Z M 277.957031 148.851562 C 277.652344 148.851562 277.355469 148.832031 277.0625 148.800781 C 277.355469 148.828125 277.652344 148.851562 277.957031 148.851562 Z M 279.378906 148.765625 C 279.269531 148.777344 279.164062 148.792969 279.050781 148.800781 C 279.164062 148.792969 279.269531 148.777344 279.378906 148.765625 Z M 283.566406 147.460938 C 283.484375 147.507812 283.402344 147.554688 283.316406 147.597656 C 283.402344 147.554688 283.484375 147.507812 283.566406 147.460938 Z M 281.460938 148.34375 C 281.367188 148.375 281.265625 148.398438 281.167969 148.425781 C 281.265625 148.398438 281.367188 148.375 281.460938 148.34375 Z M 280.464844 148.59375 C 280.347656 148.621094 280.230469 148.640625 280.113281 148.660156 C 280.230469 148.640625 280.347656 148.621094 280.464844 148.59375 Z M 283.015625 104 C 283.085938 103.949219 283.15625 103.894531 283.226562 103.84375 C 283.15625 103.894531 283.085938 103.949219 283.015625 104 Z M 283.503906 103.632812 C 283.527344 103.613281 283.550781 103.59375 283.574219 103.574219 C 283.550781 103.59375 283.527344 103.613281 283.503906 103.632812 Z M 284.199219 102.996094 C 284.246094 102.953125 284.289062 102.910156 284.332031 102.863281 C 284.289062 102.910156 284.246094 102.953125 284.199219 102.996094 Z M 284.460938 146.929688 C 284.371094 146.988281 284.28125 147.042969 284.191406 147.101562 C 284.28125 147.042969 284.371094 146.988281 284.460938 146.929688 Z M 283.039062 88.335938 C 283.125 88.5625 283.21875 88.792969 283.328125 89.015625 C 283.21875 88.792969 283.125 88.5625 283.039062 88.335938 Z M 283.449219 89.226562 C 283.535156 89.390625 283.621094 89.550781 283.722656 89.707031 C 283.621094 89.550781 283.535156 89.390625 283.449219 89.226562 Z M 264.042969 73.222656 C 263.933594 73.046875 263.820312 72.871094 263.699219 72.703125 C 263.820312 72.871094 263.933594 73.046875 264.042969 73.222656 Z M 265.214844 76.253906 C 265.195312 76.140625 265.171875 76.027344 265.144531 75.914062 C 265.171875 76.027344 265.195312 76.140625 265.214844 76.253906 Z M 265.042969 75.507812 C 265.007812 75.378906 264.972656 75.25 264.933594 75.125 C 264.972656 75.25 265.007812 75.378906 265.042969 75.507812 Z M 264.855469 74.917969 C 264.734375 74.574219 264.59375 74.238281 264.429688 73.917969 C 264.59375 74.238281 264.734375 74.574219 264.855469 74.917969 Z M 264.394531 73.839844 C 264.300781 73.660156 264.203125 73.484375 264.097656 73.3125 C 264.203125 73.484375 264.300781 73.660156 264.394531 73.839844 Z M 176.113281 73.082031 C 175.917969 73.382812 175.746094 73.695312 175.589844 74.019531 C 175.746094 73.695312 175.917969 73.382812 176.113281 73.082031 Z M 260.332031 248.523438 L 260.183594 248.523438 C 260.324219 248.171875 260.414062 247.953125 260.417969 247.957031 C 260.535156 247.992188 260.625 248.101562 260.625 248.230469 C 260.625 248.394531 260.492188 248.523438 260.332031 248.523438 Z M 271.953125 146.6875 C 271.773438 146.542969 271.597656 146.390625 271.425781 146.230469 C 271.597656 146.390625 271.773438 146.539062 271.953125 146.6875 Z M 271.125 145.945312 C 270.964844 145.789062 270.808594 145.632812 270.65625 145.464844 C 270.808594 145.628906 270.964844 145.789062 271.125 145.945312 Z M 270.351562 145.125 C 270.226562 144.980469 270.101562 144.828125 269.980469 144.679688 C 270.101562 144.828125 270.226562 144.980469 270.351562 145.125 Z M 285.070312 146.5 C 285.140625 146.445312 285.210938 146.394531 285.28125 146.34375 C 285.210938 146.394531 285.140625 146.445312 285.070312 146.5 Z M 286.808594 144.953125 C 286.867188 144.894531 286.925781 144.828125 286.984375 144.765625 C 286.925781 144.828125 286.867188 144.894531 286.808594 144.953125 Z M 295.367188 151.046875 C 295.363281 151.035156 295.355469 151.023438 295.351562 151.015625 C 295.355469 151.023438 295.363281 151.035156 295.367188 151.046875 Z M 295.285156 149.96875 C 295.285156 149.96875 295.285156 149.964844 295.285156 149.964844 C 295.285156 149.964844 295.285156 149.96875 295.285156 149.96875 Z M 293.890625 147.605469 C 293.914062 147.582031 293.929688 147.558594 293.953125 147.539062 C 293.929688 147.558594 293.914062 147.582031 293.890625 147.605469 Z M 294.09375 147.386719 C 294.113281 147.367188 294.132812 147.347656 294.152344 147.328125 C 294.132812 147.347656 294.113281 147.367188 294.09375 147.386719 Z M 294.269531 147.199219 C 294.285156 147.179688 294.300781 147.164062 294.316406 147.144531 C 294.300781 147.164062 294.285156 147.179688 294.269531 147.199219 Z M 294.550781 146.867188 C 294.554688 146.859375 294.558594 146.855469 294.5625 146.847656 C 294.558594 146.855469 294.554688 146.859375 294.550781 146.867188 Z M 294.417969 147.027344 C 294.429688 147.011719 294.441406 147 294.453125 146.984375 C 294.441406 147 294.429688 147.011719 294.417969 147.027344 Z M 293.253906 146.257812 C 293.28125 146.242188 293.304688 146.230469 293.332031 146.21875 C 293.304688 146.230469 293.28125 146.242188 293.253906 146.257812 Z M 293.617188 146.085938 C 293.625 146.082031 293.628906 146.078125 293.636719 146.078125 C 293.628906 146.078125 293.625 146.082031 293.617188 146.085938 Z M 295.445312 151.144531 C 295.457031 151.15625 295.46875 151.171875 295.480469 151.1875 C 295.464844 151.171875 295.457031 151.160156 295.445312 151.144531 Z M 295.613281 151.308594 C 295.59375 151.292969 295.578125 151.277344 295.558594 151.261719 C 295.578125 151.277344 295.59375 151.292969 295.613281 151.308594 Z M 298.523438 151.5625 C 298.496094 151.515625 298.46875 151.464844 298.449219 151.410156 C 298.46875 151.464844 298.496094 151.515625 298.523438 151.5625 Z M 301.230469 143.277344 C 301.25 143.292969 301.273438 143.308594 301.292969 143.324219 C 301.273438 143.308594 301.25 143.292969 301.230469 143.277344 Z M 299.742188 142.316406 C 299.753906 142.320312 299.765625 142.328125 299.777344 142.335938 C 299.765625 142.328125 299.753906 142.320312 299.742188 142.316406 Z M 300.765625 142.941406 C 300.789062 142.960938 300.8125 142.976562 300.835938 142.992188 C 300.8125 142.976562 300.789062 142.960938 300.765625 142.941406 Z M 290.824219 138.917969 C 290.847656 138.867188 290.871094 138.820312 290.894531 138.769531 C 290.871094 138.820312 290.847656 138.867188 290.824219 138.917969 Z M 287.527344 144.152344 C 287.59375 144.078125 287.652344 144.003906 287.714844 143.925781 C 287.652344 144.003906 287.59375 144.078125 287.527344 144.152344 Z M 288.253906 143.234375 C 288.296875 143.175781 288.339844 143.121094 288.382812 143.066406 C 288.339844 143.121094 288.296875 143.175781 288.253906 143.234375 Z M 289.644531 141.132812 C 289.679688 141.070312 289.714844 141.007812 289.753906 140.945312 C 289.714844 141.007812 289.679688 141.070312 289.644531 141.132812 Z M 290.230469 140.085938 C 290.269531 140.011719 290.3125 139.933594 290.351562 139.855469 C 290.3125 139.933594 290.269531 140.011719 290.230469 140.085938 Z M 284.707031 102.425781 C 284.660156 102.484375 284.613281 102.535156 284.570312 102.589844 C 284.613281 102.535156 284.660156 102.484375 284.707031 102.425781 Z M 285.613281 100.578125 C 285.601562 100.617188 285.597656 100.660156 285.589844 100.703125 C 285.597656 100.660156 285.601562 100.617188 285.613281 100.578125 Z M 285.488281 101.027344 C 285.46875 101.085938 285.449219 101.140625 285.425781 101.199219 C 285.449219 101.140625 285.46875 101.085938 285.488281 101.027344 Z M 285.289062 101.503906 C 285.261719 101.5625 285.230469 101.621094 285.199219 101.679688 C 285.230469 101.621094 285.261719 101.5625 285.289062 101.503906 Z M 285.027344 101.972656 C 284.988281 102.03125 284.949219 102.089844 284.910156 102.148438 C 284.949219 102.089844 284.988281 102.03125 285.027344 101.972656 Z M 287.3125 87.027344 C 287.285156 87.011719 287.261719 86.996094 287.234375 86.984375 C 287.261719 86.996094 287.285156 87.011719 287.3125 87.027344 Z M 287 86.871094 C 286.972656 86.859375 286.941406 86.847656 286.910156 86.835938 C 286.941406 86.847656 286.972656 86.859375 287 86.871094 Z M 288.097656 87.777344 C 288.105469 87.789062 288.113281 87.800781 288.121094 87.808594 C 288.113281 87.800781 288.105469 87.789062 288.097656 87.777344 Z M 266.417969 53.644531 C 267.316406 52.089844 268.765625 50.894531 270.460938 50.304688 C 278.515625 47.5 285.28125 55.691406 281.011719 63.074219 C 280.113281 64.628906 278.667969 65.824219 276.972656 66.414062 C 268.917969 69.21875 262.148438 61.027344 266.417969 53.644531 Z M 203.242188 71.492188 C 203.273438 71.644531 203.332031 71.789062 203.402344 71.925781 C 203.332031 71.789062 203.273438 71.644531 203.242188 71.492188 Z M 203.625 72.261719 C 203.699219 72.347656 203.777344 72.425781 203.863281 72.496094 C 203.777344 72.425781 203.699219 72.347656 203.625 72.261719 Z M 204.085938 72.652344 C 204.347656 72.800781 204.644531 72.894531 204.964844 72.894531 C 205.289062 72.894531 205.585938 72.804688 205.84375 72.652344 C 205.585938 72.800781 205.289062 72.894531 204.964844 72.894531 C 204.644531 72.894531 204.347656 72.800781 204.085938 72.652344 Z M 210.273438 70.363281 L 236.125 70.363281 C 236.402344 70.363281 236.644531 70.535156 236.746094 70.777344 C 236.644531 70.535156 236.402344 70.363281 236.125 70.363281 L 210.273438 70.363281 C 209.992188 70.363281 209.753906 70.535156 209.648438 70.777344 C 209.753906 70.535156 209.992188 70.363281 210.273438 70.363281 Z M 206.726562 71.136719 C 206.726562 71.257812 206.714844 71.375 206.691406 71.492188 C 206.644531 71.71875 206.550781 71.933594 206.425781 72.121094 C 206.328125 72.265625 206.203125 72.386719 206.066406 72.496094 C 206.203125 72.386719 206.328125 72.265625 206.425781 72.121094 C 206.550781 71.933594 206.644531 71.71875 206.691406 71.492188 C 206.714844 71.375 206.726562 71.257812 206.726562 71.136719 C 206.726562 71.015625 206.714844 70.894531 206.691406 70.78125 C 206.652344 70.59375 206.574219 70.417969 206.480469 70.257812 C 206.574219 70.417969 206.652344 70.59375 206.691406 70.78125 C 206.714844 70.894531 206.726562 71.015625 206.726562 71.136719 Z M 126.738281 65.863281 C 126.726562 65.871094 126.714844 65.875 126.703125 65.878906 C 126.714844 65.875 126.726562 65.871094 126.738281 65.863281 Z M 127.207031 65.746094 C 127.1875 65.75 127.164062 65.75 127.140625 65.757812 C 127.164062 65.75 127.1875 65.75 127.207031 65.746094 Z M 107.6875 110.933594 C 107.675781 110.957031 107.660156 110.976562 107.648438 111.003906 C 107.660156 110.976562 107.675781 110.957031 107.6875 110.933594 Z M 107.507812 111.3125 Z M 107.425781 111.644531 C 107.421875 111.671875 107.417969 111.699219 107.414062 111.730469 C 107.417969 111.699219 107.421875 111.671875 107.425781 111.644531 Z M 105.0625 120.574219 L 105.089844 120.53125 L 106.058594 118.847656 Z M 111.695312 139.496094 C 111.660156 139.53125 111.625 139.5625 111.585938 139.59375 C 111.625 139.5625 111.660156 139.527344 111.695312 139.496094 Z M 111.765625 145.042969 C 111.566406 144.984375 111.378906 144.910156 111.203125 144.820312 C 111.378906 144.910156 111.566406 144.984375 111.765625 145.042969 Z M 131.707031 168.863281 C 131.707031 168.863281 131.707031 168.863281 131.710938 168.863281 C 131.867188 168.863281 132 168.734375 132 168.574219 L 132.132812 156.820312 L 132.054688 163.976562 L 135.558594 189.289062 L 131.273438 189.289062 Z M 156.4375 86.796875 C 153.90625 85.878906 150.992188 85.242188 146.78125 84.75 C 144.777344 84.59375 142.816406 84.5 140.917969 84.453125 L 140.988281 82.160156 C 141.117188 82.125 141.246094 82.085938 141.375 82.042969 C 142.660156 81.597656 143.8125 80.847656 144.734375 79.871094 C 144.875 79.722656 145.011719 79.5625 145.140625 79.398438 C 145.347656 79.144531 145.546875 78.878906 145.722656 78.601562 C 146.449219 77.460938 146.90625 76.125 147 74.683594 C 147 74.691406 147 74.703125 147 74.714844 C 147 74.703125 147 74.695312 147.003906 74.683594 L 147.109375 73.082031 L 171.132812 73.082031 C 170.5625 74.566406 170.246094 76.179688 170.246094 77.863281 L 170.246094 99.855469 L 160.175781 88.921875 C 159.089844 87.871094 157.800781 87.164062 156.4375 86.796875 Z M 269.828125 218.410156 L 274.945312 202.335938 C 274.96875 202.34375 274.992188 202.351562 275.015625 202.351562 L 269.828125 253.875 Z M 295.695312 151.363281 C 295.71875 151.378906 295.742188 151.390625 295.765625 151.40625 C 295.742188 151.390625 295.71875 151.378906 295.695312 151.363281 Z M 295.847656 151.445312 C 295.875 151.457031 295.90625 151.464844 295.933594 151.476562 C 295.902344 151.464844 295.875 151.457031 295.847656 151.445312 Z M 296.015625 151.5 C 296.050781 151.507812 296.082031 151.511719 296.117188 151.515625 C 296.082031 151.511719 296.050781 151.507812 296.015625 151.5 Z M 296.199219 151.523438 C 296.234375 151.527344 296.273438 151.523438 296.308594 151.523438 C 296.273438 151.523438 296.234375 151.527344 296.199219 151.523438 Z M 296.792969 151.398438 C 296.863281 151.363281 296.929688 151.324219 297 151.277344 C 296.929688 151.324219 296.863281 151.363281 296.792969 151.398438 Z M 296.390625 151.519531 C 296.433594 151.511719 296.472656 151.503906 296.511719 151.496094 C 296.472656 151.503906 296.433594 151.511719 296.390625 151.519531 Z M 296.589844 151.476562 C 296.636719 151.464844 296.683594 151.445312 296.726562 151.425781 C 296.683594 151.445312 296.636719 151.464844 296.589844 151.476562 Z M 298.46875 150.632812 C 298.441406 150.695312 298.421875 150.757812 298.410156 150.816406 C 298.421875 150.757812 298.441406 150.695312 298.46875 150.632812 Z M 298.398438 150.878906 C 298.390625 150.921875 298.386719 150.960938 298.382812 151.003906 C 298.386719 150.960938 298.390625 150.921875 298.398438 150.878906 Z M 298.382812 151.070312 C 298.382812 151.109375 298.386719 151.148438 298.394531 151.1875 C 298.386719 151.148438 298.382812 151.109375 298.382812 151.070312 Z M 298.4375 151.378906 C 298.421875 151.335938 298.410156 151.289062 298.402344 151.246094 C 298.410156 151.292969 298.421875 151.335938 298.4375 151.378906 Z M 298.550781 151.601562 C 298.570312 151.632812 298.597656 151.667969 298.625 151.699219 C 298.597656 151.667969 298.570312 151.636719 298.550781 151.601562 Z M 298.664062 151.742188 C 298.691406 151.769531 298.71875 151.792969 298.746094 151.820312 C 298.71875 151.792969 298.691406 151.769531 298.664062 151.742188 Z M 298.792969 151.855469 C 298.828125 151.878906 298.863281 151.898438 298.898438 151.917969 C 298.863281 151.898438 298.828125 151.878906 298.792969 151.855469 Z M 298.9375 151.941406 C 298.988281 151.964844 299.042969 151.984375 299.097656 152 C 299.042969 151.984375 298.988281 151.964844 298.9375 151.941406 Z M 299.128906 152.007812 C 299.171875 152.019531 299.222656 152.027344 299.269531 152.03125 C 299.222656 152.027344 299.171875 152.019531 299.128906 152.007812 Z M 299.328125 152.03125 C 299.371094 152.03125 299.410156 152.03125 299.453125 152.023438 C 299.410156 152.03125 299.371094 152.03125 299.328125 152.03125 Z M 299.710938 151.960938 C 299.773438 151.9375 299.835938 151.910156 299.902344 151.871094 C 299.960938 151.835938 300.039062 151.792969 300.125 151.75 C 300.039062 151.792969 299.960938 151.835938 299.902344 151.871094 C 299.835938 151.910156 299.773438 151.9375 299.710938 151.960938 Z M 299.519531 152.015625 C 299.5625 152.007812 299.605469 151.996094 299.648438 151.980469 C 299.605469 151.996094 299.5625 152.007812 299.519531 152.015625 Z M 301.015625 151.316406 C 301.03125 151.308594 301.046875 151.300781 301.0625 151.292969 C 301.046875 151.300781 301.03125 151.308594 301.015625 151.316406 Z M 300.191406 151.714844 C 300.273438 151.671875 300.363281 151.625 300.464844 151.578125 C 300.363281 151.625 300.273438 151.671875 300.191406 151.714844 Z M 300.480469 151.570312 C 300.589844 151.515625 300.710938 151.460938 300.832031 151.402344 C 300.710938 151.460938 300.589844 151.515625 300.480469 151.570312 Z M 301.691406 143.648438 C 301.714844 143.667969 301.734375 143.6875 301.757812 143.707031 C 301.734375 143.6875 301.714844 143.667969 301.691406 143.648438 Z M 302.042969 143.972656 C 302.070312 144 302.101562 144.027344 302.128906 144.054688 C 302.101562 144.027344 302.070312 144 302.042969 143.972656 Z M 304.433594 148.234375 C 304.433594 148.210938 304.433594 148.191406 304.433594 148.167969 C 304.433594 148.191406 304.433594 148.210938 304.433594 148.234375 Z M 302.414062 144.367188 C 302.476562 144.441406 302.539062 144.515625 302.605469 144.597656 C 302.539062 144.515625 302.476562 144.441406 302.414062 144.367188 Z M 302.679688 144.6875 C 302.71875 144.738281 302.761719 144.789062 302.800781 144.84375 C 302.761719 144.789062 302.71875 144.738281 302.679688 144.6875 Z M 302.902344 144.972656 C 302.9375 145.015625 302.972656 145.058594 303.003906 145.105469 C 302.972656 145.058594 302.9375 145.015625 302.902344 144.972656 Z M 303.125 145.261719 C 303.148438 145.296875 303.175781 145.335938 303.203125 145.371094 C 303.175781 145.335938 303.148438 145.296875 303.125 145.261719 Z M 303.679688 146.085938 C 303.6875 146.097656 303.695312 146.109375 303.703125 146.121094 C 303.695312 146.109375 303.6875 146.097656 303.679688 146.085938 Z M 303.839844 146.363281 C 303.851562 146.382812 303.867188 146.40625 303.878906 146.429688 C 303.867188 146.40625 303.851562 146.386719 303.839844 146.363281 Z M 304.425781 148.476562 C 304.425781 148.5 304.421875 148.523438 304.417969 148.542969 C 304.421875 148.523438 304.425781 148.5 304.425781 148.476562 Z M 304.003906 146.675781 C 304.015625 146.695312 304.023438 146.71875 304.035156 146.738281 C 304.023438 146.71875 304.015625 146.695312 304.003906 146.675781 Z M 304.148438 147 C 304.152344 147.003906 304.152344 147.003906 304.152344 147.007812 C 304.152344 147.003906 304.152344 147.003906 304.148438 147 Z M 304.402344 147.882812 C 304.40625 147.894531 304.40625 147.902344 304.410156 147.914062 C 304.40625 147.902344 304.40625 147.894531 304.402344 147.882812 Z M 298.691406 141.816406 C 298.101562 141.582031 297.535156 141.4375 297.070312 141.4375 C 296.761719 141.4375 296.492188 141.476562 296.242188 141.53125 C 294.867188 139.972656 293.246094 138.640625 291.425781 137.609375 C 293.113281 133.757812 294.375 129.265625 295.464844 124.71875 C 295.542969 124.703125 295.617188 124.667969 295.664062 124.597656 L 306.835938 131.761719 Z M 298.691406 141.816406 " fill-opacity="1" fill-rule="nonzero"/></g><path fill="#e0e0e0" d="M 178.8125 87.058594 L 260.246094 87.058594 L 260.246094 230.371094 L 178.8125 230.371094 Z M 178.8125 87.058594 " fill-opacity="1" fill-rule="evenodd"/><g clip-path="url(#6749fb0483)"><path fill="#f5f5f5" d="M 295.542969 58.0625 L 292.097656 56.269531 C 290.257812 55.308594 289.648438 52.96875 290.789062 51.230469 L 292.925781 47.984375 C 294.738281 45.230469 292.089844 41.722656 288.941406 42.714844 L 285.234375 43.882812 C 283.253906 44.507812 281.167969 43.28125 280.75 41.246094 L 279.964844 37.4375 C 279.296875 34.207031 274.945312 33.601562 273.421875 36.527344 L 271.625 39.976562 C 270.667969 41.820312 268.324219 42.429688 266.589844 41.289062 L 263.335938 39.148438 C 260.582031 37.335938 257.074219 39.988281 258.070312 43.132812 L 259.238281 46.835938 C 259.863281 48.820312 258.640625 50.90625 256.605469 51.328125 L 252.792969 52.113281 C 249.5625 52.777344 248.957031 57.132812 251.882812 58.65625 L 255.332031 60.449219 C 257.175781 61.40625 257.785156 63.75 256.640625 65.488281 L 254.503906 68.734375 C 254.445312 68.824219 254.402344 68.917969 254.355469 69.011719 L 245.855469 69.011719 C 245.425781 69.011719 245.074219 69.359375 245.074219 69.789062 L 245.074219 70.96875 C 245.074219 74.007812 242.613281 76.46875 239.574219 76.46875 L 200.5 76.46875 C 197.460938 76.46875 194.996094 74.007812 194.996094 70.96875 L 194.996094 69.789062 C 194.996094 69.359375 194.648438 69.011719 194.21875 69.011719 L 184.609375 69.011719 C 184.636719 68.804688 184.65625 68.597656 184.65625 68.386719 L 184.730469 50.535156 C 184.730469 47.945312 182.628906 45.84375 180.035156 45.84375 L 138.402344 45.84375 C 135.808594 45.84375 133.707031 47.945312 133.707031 50.535156 L 133.632812 68.386719 C 133.632812 70.980469 135.734375 73.082031 138.328125 73.082031 L 176.113281 73.082031 C 175.222656 74.460938 174.703125 76.101562 174.703125 77.863281 L 174.703125 256.171875 C 174.703125 261.0625 178.667969 265.027344 183.558594 265.027344 L 256.515625 265.027344 C 261.40625 265.027344 265.367188 261.0625 265.367188 256.171875 L 265.367188 77.863281 C 265.367188 75.9375 264.746094 74.15625 263.699219 72.703125 C 265.128906 72.890625 266.367188 73.957031 266.683594 75.472656 L 267.46875 79.277344 C 268.136719 82.503906 272.488281 83.109375 274.011719 80.183594 L 275.804688 76.742188 C 276.765625 74.898438 279.109375 74.289062 280.84375 75.433594 L 284.089844 77.566406 C 286.84375 79.378906 290.351562 76.730469 289.359375 73.585938 L 288.191406 69.882812 C 287.570312 67.898438 288.792969 65.8125 290.828125 65.390625 L 294.632812 64.605469 C 297.863281 63.9375 298.46875 59.585938 295.542969 58.0625 Z M 256.890625 92.027344 L 256.90625 130.484375 L 182.035156 130.511719 L 182.019531 92.054688 Z M 203.535156 248.0625 C 201.730469 248.0625 200.265625 246.597656 200.265625 244.792969 C 200.265625 242.988281 201.730469 241.523438 203.535156 241.523438 C 205.339844 241.523438 206.804688 242.988281 206.804688 244.792969 C 206.804688 246.601562 205.339844 248.0625 203.535156 248.0625 Z M 221.757812 249.738281 C 219.027344 249.738281 216.8125 247.527344 216.8125 244.792969 C 216.8125 242.0625 219.027344 239.847656 221.757812 239.847656 C 224.492188 239.847656 226.707031 242.0625 226.707031 244.792969 C 226.707031 247.527344 224.492188 249.738281 221.757812 249.738281 Z M 233.296875 214.476562 L 181.457031 214.476562 L 181.457031 160.089844 L 233.296875 160.089844 Z M 239.984375 248.0625 C 238.179688 248.0625 236.714844 246.597656 236.714844 244.792969 C 236.714844 242.988281 238.179688 241.523438 239.984375 241.523438 C 241.789062 241.523438 243.253906 242.988281 243.253906 244.792969 C 243.253906 246.601562 241.789062 248.0625 239.984375 248.0625 Z M 252.78125 214.476562 L 239.472656 214.476562 L 239.472656 160.089844 L 252.78125 160.089844 Z M 182.035156 153.304688 L 182.035156 148.546875 L 256.902344 148.519531 L 256.90625 153.277344 Z M 182.035156 141.910156 L 182.035156 137.152344 L 256.902344 137.125 L 256.90625 141.878906 Z M 281.011719 63.074219 C 280.113281 64.628906 278.667969 65.824219 276.972656 66.414062 C 268.917969 69.21875 262.148438 61.027344 266.417969 53.644531 C 267.316406 52.089844 268.765625 50.894531 270.457031 50.304688 C 278.515625 47.5 285.28125 55.691406 281.011719 63.074219 Z M 219.515625 48.195312 L 221.925781 49.171875 C 223.214844 49.695312 223.769531 51.214844 223.121094 52.445312 L 221.902344 54.746094 C 220.867188 56.699219 222.855469 58.867188 224.890625 58.003906 L 227.28125 56.992188 C 228.5625 56.449219 230.03125 57.132812 230.441406 58.464844 L 231.207031 60.949219 C 231.855469 63.058594 234.792969 63.1875 235.625 61.140625 L 236.601562 58.734375 C 237.125 57.445312 238.648438 56.890625 239.875 57.542969 L 242.171875 58.757812 C 244.125 59.792969 246.292969 57.804688 245.433594 55.769531 L 244.421875 53.378906 C 243.878906 52.097656 244.566406 50.628906 245.894531 50.21875 L 248.378906 49.453125 C 250.488281 48.804688 250.617188 45.867188 248.570312 45.035156 L 246.164062 44.058594 C 244.875 43.535156 244.320312 42.011719 244.972656 40.785156 L 246.1875 38.484375 C 247.222656 36.535156 245.234375 34.367188 243.199219 35.226562 L 240.804688 36.238281 C 239.523438 36.78125 238.054688 36.09375 237.648438 34.765625 L 236.882812 32.277344 C 236.234375 30.167969 233.296875 30.039062 232.464844 32.085938 L 231.488281 34.496094 C 230.964844 35.785156 229.445312 36.339844 228.214844 35.6875 L 225.914062 34.46875 C 223.960938 33.4375 221.792969 35.425781 222.652344 37.457031 L 223.667969 39.851562 C 224.210938 41.132812 223.527344 42.601562 222.195312 43.011719 L 219.707031 43.777344 C 217.597656 44.425781 217.46875 47.367188 219.515625 48.195312 Z M 228.882812 43.9375 C 229.382812 42.84375 230.273438 41.953125 231.367188 41.453125 C 236.554688 39.078125 241.585938 44.105469 239.207031 49.296875 C 238.707031 50.386719 237.816406 51.277344 236.726562 51.777344 C 231.535156 54.15625 226.503906 49.125 228.882812 43.9375 Z M 143.066406 193.984375 L 143.066406 229.160156 C 143.066406 231.753906 140.964844 233.855469 138.371094 233.855469 L 87.199219 234.324219 C 84.605469 234.324219 82.503906 231.753906 82.503906 229.160156 L 82.503906 193.984375 C 82.503906 191.390625 84.609375 189.289062 87.199219 189.289062 L 138.371094 189.289062 C 140.964844 189.289062 143.066406 191.390625 143.066406 193.984375 Z M 275.03125 202.355469 C 275.03125 202.355469 275.027344 202.355469 275.023438 202.355469 C 274.863281 202.347656 274.734375 202.214844 274.738281 202.050781 L 275.996094 161.550781 L 271.546875 156.359375 C 271.441406 156.234375 271.453125 156.050781 271.578125 155.945312 C 271.699219 155.839844 271.882812 155.855469 271.992188 155.976562 L 276.515625 161.257812 C 276.5625 161.3125 276.589844 161.382812 276.585938 161.457031 L 275.324219 202.070312 C 275.320312 202.230469 275.191406 202.355469 275.03125 202.355469 Z M 296.039062 248.230469 C 296.039062 248.070312 295.910156 247.9375 295.75 247.9375 L 272.320312 247.9375 C 272.160156 247.9375 272.027344 248.070312 272.027344 248.230469 C 272.027344 248.390625 272.160156 248.523438 272.320312 248.523438 L 295.75 248.523438 C 295.910156 248.523438 296.039062 248.394531 296.039062 248.230469 Z M 260.625 248.230469 C 260.625 248.070312 260.492188 247.9375 260.332031 247.9375 L 233.789062 247.9375 C 233.625 247.9375 233.496094 248.070312 233.496094 248.230469 C 233.496094 248.390625 233.625 248.523438 233.789062 248.523438 L 260.332031 248.523438 C 260.492188 248.523438 260.625 248.394531 260.625 248.230469 Z M 132 168.574219 L 132.132812 156.820312 L 136.910156 155.546875 C 137.066406 155.503906 137.160156 155.34375 137.117188 155.1875 C 137.074219 155.03125 136.917969 154.941406 136.757812 154.980469 L 131.765625 156.3125 C 131.640625 156.347656 131.550781 156.460938 131.550781 156.59375 L 131.417969 168.566406 C 131.414062 168.730469 131.542969 168.863281 131.707031 168.863281 C 131.707031 168.863281 131.707031 168.863281 131.710938 168.863281 C 131.867188 168.863281 132 168.734375 132 168.574219 Z M 132 168.574219 " fill-opacity="1" fill-rule="evenodd"/></g><path fill="#f5f5f5" d="M 217.421875 204.820312 L 188.058594 204.820312 C 187.574219 204.820312 187.179688 205.214844 187.179688 205.699219 C 187.179688 206.183594 187.574219 206.578125 188.058594 206.578125 L 217.421875 206.578125 C 217.90625 206.578125 218.300781 206.183594 218.300781 205.699219 C 218.300781 205.214844 217.90625 204.820312 217.421875 204.820312 Z M 217.421875 204.820312 " fill-opacity="1" fill-rule="evenodd"/><path fill="#f5f5f5" d="M 206.726562 71.136719 C 206.726562 71.371094 206.679688 71.59375 206.589844 71.808594 C 206.503906 72.023438 206.375 72.214844 206.210938 72.378906 C 206.046875 72.546875 205.855469 72.671875 205.640625 72.761719 C 205.425781 72.851562 205.199219 72.894531 204.964844 72.894531 C 204.734375 72.894531 204.507812 72.851562 204.292969 72.761719 C 204.078125 72.671875 203.886719 72.546875 203.722656 72.378906 C 203.558594 72.214844 203.429688 72.023438 203.339844 71.808594 C 203.253906 71.59375 203.207031 71.371094 203.207031 71.136719 C 203.207031 70.902344 203.253906 70.679688 203.339844 70.464844 C 203.429688 70.246094 203.558594 70.058594 203.722656 69.890625 C 203.886719 69.726562 204.078125 69.601562 204.292969 69.511719 C 204.507812 69.421875 204.734375 69.378906 204.964844 69.378906 C 205.199219 69.378906 205.425781 69.421875 205.640625 69.511719 C 205.855469 69.601562 206.046875 69.726562 206.210938 69.890625 C 206.375 70.058594 206.503906 70.246094 206.589844 70.464844 C 206.679688 70.679688 206.726562 70.902344 206.726562 71.136719 Z M 206.726562 71.136719 " fill-opacity="1" fill-rule="nonzero"/><path fill="#f5f5f5" d="M 236.125 71.714844 L 210.273438 71.714844 C 209.898438 71.714844 209.597656 71.414062 209.597656 71.039062 C 209.597656 70.667969 209.898438 70.363281 210.273438 70.363281 L 236.125 70.363281 C 236.496094 70.363281 236.796875 70.667969 236.796875 71.039062 C 236.796875 71.414062 236.496094 71.714844 236.125 71.714844 Z M 236.125 71.714844 " fill-opacity="1" fill-rule="nonzero"/><g clip-path="url(#1279d1076d)"><path fill="#e0e0e0" d="M 256.515625 64.550781 L 183.558594 64.550781 C 176.203125 64.550781 170.242188 70.511719 170.242188 77.867188 L 170.242188 256.171875 C 170.242188 263.527344 176.203125 269.488281 183.558594 269.488281 L 256.515625 269.488281 C 263.867188 269.488281 269.828125 263.527344 269.828125 256.171875 L 269.828125 77.863281 C 269.828125 70.511719 263.867188 64.550781 256.515625 64.550781 Z M 210.273438 70.363281 L 236.125 70.363281 C 236.496094 70.363281 236.796875 70.667969 236.796875 71.039062 C 236.796875 71.414062 236.496094 71.714844 236.125 71.714844 L 210.273438 71.714844 C 209.898438 71.714844 209.597656 71.414062 209.597656 71.039062 C 209.597656 70.667969 209.898438 70.363281 210.273438 70.363281 Z M 204.964844 69.378906 C 205.9375 69.378906 206.726562 70.164062 206.726562 71.136719 C 206.726562 72.109375 205.9375 72.894531 204.964844 72.894531 C 203.996094 72.894531 203.207031 72.109375 203.207031 71.136719 C 203.207031 70.164062 203.996094 69.378906 204.964844 69.378906 Z M 265.367188 256.171875 C 265.367188 261.0625 261.40625 265.027344 256.515625 265.027344 L 183.558594 265.027344 C 178.667969 265.027344 174.703125 261.0625 174.703125 256.171875 L 174.703125 77.863281 C 174.703125 72.972656 178.667969 69.011719 183.558594 69.011719 L 194.21875 69.011719 C 194.648438 69.011719 194.996094 69.359375 194.996094 69.789062 L 194.996094 70.96875 C 194.996094 74.007812 197.460938 76.46875 200.5 76.46875 L 239.574219 76.46875 C 242.613281 76.46875 245.074219 74.007812 245.074219 70.96875 L 245.074219 69.789062 C 245.074219 69.359375 245.425781 69.011719 245.855469 69.011719 L 256.515625 69.011719 C 261.40625 69.011719 265.371094 72.972656 265.371094 77.863281 L 265.371094 256.171875 Z M 180.035156 45.839844 L 138.402344 45.839844 C 135.808594 45.839844 133.707031 47.941406 133.707031 50.535156 L 133.707031 56.246094 L 184.730469 56.246094 L 184.730469 50.535156 C 184.730469 47.941406 182.625 45.839844 180.035156 45.839844 Z M 178.875 52.613281 C 178.007812 52.613281 177.304688 51.910156 177.304688 51.042969 C 177.304688 50.175781 178.007812 49.472656 178.875 49.472656 C 179.742188 49.472656 180.445312 50.175781 180.445312 51.042969 C 180.445312 51.910156 179.742188 52.613281 178.875 52.613281 Z M 170.472656 64.222656 L 147.402344 64.222656 C 146.882812 64.222656 146.464844 63.804688 146.464844 63.285156 C 146.464844 62.765625 146.882812 62.34375 147.402344 62.34375 L 170.472656 62.34375 C 170.992188 62.34375 171.410156 62.765625 171.410156 63.285156 C 171.410156 63.804688 170.992188 64.222656 170.472656 64.222656 Z M 206.804688 244.792969 C 206.804688 246.601562 205.339844 248.0625 203.535156 248.0625 C 201.730469 248.0625 200.265625 246.601562 200.265625 244.792969 C 200.265625 242.988281 201.730469 241.523438 203.535156 241.523438 C 205.339844 241.523438 206.804688 242.988281 206.804688 244.792969 Z M 226.707031 244.792969 C 226.707031 247.527344 224.492188 249.738281 221.757812 249.738281 C 219.027344 249.738281 216.8125 247.527344 216.8125 244.792969 C 216.8125 242.0625 219.027344 239.847656 221.757812 239.847656 C 224.492188 239.847656 226.707031 242.0625 226.707031 244.792969 Z M 243.253906 244.792969 C 243.253906 246.601562 241.789062 248.0625 239.984375 248.0625 C 238.179688 248.0625 236.714844 246.601562 236.714844 244.792969 C 236.714844 242.988281 238.179688 241.523438 239.984375 241.523438 C 241.789062 241.523438 243.253906 242.988281 243.253906 244.792969 Z M 135.910156 218.214844 L 89.664062 218.214844 C 89.144531 218.214844 88.722656 217.792969 88.722656 217.277344 C 88.722656 216.757812 89.144531 216.335938 89.664062 216.335938 L 135.910156 216.335938 C 136.429688 216.335938 136.847656 216.757812 136.847656 217.277344 C 136.847656 217.792969 136.429688 218.214844 135.910156 218.214844 Z M 135.910156 208.9375 L 89.664062 208.9375 C 89.144531 208.9375 88.722656 208.519531 88.722656 208 C 88.722656 207.480469 89.144531 207.058594 89.664062 207.058594 L 135.910156 207.058594 C 136.429688 207.058594 136.847656 207.480469 136.847656 208 C 136.847656 208.519531 136.429688 208.9375 135.910156 208.9375 Z M 138.371094 189.289062 L 87.199219 189.289062 C 84.605469 189.289062 82.503906 191.390625 82.503906 193.984375 L 82.503906 199.691406 L 143.066406 199.691406 L 143.066406 193.984375 C 143.066406 191.390625 140.964844 189.289062 138.371094 189.289062 Z M 88.09375 196.0625 C 87.222656 196.0625 86.519531 195.359375 86.519531 194.492188 C 86.519531 193.625 87.222656 192.921875 88.09375 192.921875 C 88.957031 192.921875 89.660156 193.625 89.660156 194.492188 C 89.660156 195.359375 88.957031 196.0625 88.09375 196.0625 Z M 88.09375 196.0625 " fill-opacity="1" fill-rule="evenodd"/></g><path fill="#f5f5f5" d="M 186.5625 97.042969 L 218.011719 97.054688 L 218 125.507812 L 186.550781 125.496094 Z M 250.855469 104.886719 L 224.046875 104.886719 C 223.5625 104.886719 223.167969 105.28125 223.167969 105.765625 C 223.167969 106.253906 223.5625 106.644531 224.046875 106.644531 L 250.855469 106.644531 C 251.34375 106.644531 251.734375 106.253906 251.734375 105.765625 C 251.734375 105.28125 251.34375 104.886719 250.855469 104.886719 Z M 250.855469 98.132812 L 224.046875 98.132812 C 223.5625 98.132812 223.167969 98.527344 223.167969 99.011719 C 223.167969 99.496094 223.5625 99.890625 224.046875 99.890625 L 250.855469 99.890625 C 251.34375 99.890625 251.734375 99.496094 251.734375 99.011719 C 251.734375 98.527344 251.34375 98.132812 250.855469 98.132812 Z M 245.210938 122.433594 L 224.144531 122.433594 C 223.660156 122.433594 223.265625 122.828125 223.265625 123.3125 C 223.265625 123.796875 223.660156 124.191406 224.144531 124.191406 L 245.210938 124.191406 C 245.695312 124.191406 246.089844 123.796875 246.089844 123.3125 C 246.089844 122.828125 245.695312 122.433594 245.210938 122.433594 Z M 224.046875 113.402344 L 245.113281 113.402344 C 245.597656 113.402344 245.992188 113.007812 245.992188 112.523438 C 245.992188 112.039062 245.597656 111.644531 245.113281 111.644531 L 224.046875 111.644531 C 223.5625 111.644531 223.167969 112.039062 223.167969 112.523438 C 223.167969 113.007812 223.5625 113.402344 224.046875 113.402344 Z M 228.511719 185.761719 L 228.511719 164.753906 L 186.886719 164.753906 L 186.886719 185.761719 Z M 226.308594 192.1875 C 226.308594 191.703125 225.914062 191.308594 225.429688 191.308594 L 188.058594 191.308594 C 187.574219 191.308594 187.179688 191.703125 187.179688 192.1875 C 187.179688 192.675781 187.574219 193.066406 188.058594 193.066406 L 225.429688 193.066406 C 225.914062 193.066406 226.308594 192.675781 226.308594 192.1875 Z M 226.308594 198.945312 C 226.308594 198.460938 225.914062 198.066406 225.429688 198.066406 L 188.058594 198.066406 C 187.574219 198.066406 187.179688 198.460938 187.179688 198.945312 C 187.179688 199.429688 187.574219 199.824219 188.058594 199.824219 L 225.429688 199.824219 C 225.914062 199.824219 226.308594 199.429688 226.308594 198.945312 Z M 218.300781 205.699219 C 218.300781 205.214844 217.90625 204.820312 217.421875 204.820312 L 188.058594 204.820312 C 187.574219 204.820312 187.179688 205.214844 187.179688 205.699219 C 187.179688 206.183594 187.574219 206.578125 188.058594 206.578125 L 217.421875 206.578125 C 217.90625 206.578125 218.300781 206.183594 218.300781 205.699219 Z M 218.300781 205.699219 " fill-opacity="1" fill-rule="evenodd"/><path fill="#e0e0e0" d="M 207.339844 104.589844 C 206.890625 102.21875 208.933594 100.179688 211.304688 100.628906 C 212.628906 100.882812 213.695312 101.949219 213.949219 103.277344 C 214.394531 105.648438 212.355469 107.6875 209.984375 107.238281 C 208.660156 106.984375 207.589844 105.914062 207.339844 104.589844 Z M 218.003906 119.394531 L 208.679688 109.417969 L 204.835938 113.523438 L 197.859375 104.058594 L 186.554688 119.367188 L 199.359375 119.371094 L 199.347656 119.386719 Z M 205.632812 168.148438 L 200.722656 168.148438 L 199.773438 170.214844 L 199.769531 170.214844 L 199.769531 181.558594 L 216.308594 181.558594 L 216.308594 170.214844 L 206.582031 170.214844 Z M 205.632812 168.148438 " fill-opacity="1" fill-rule="nonzero"/><path fill="#f5c0a2" d="M 138.074219 82.480469 C 137.847656 82.464844 137.621094 82.441406 137.398438 82.410156 C 137.175781 82.375 136.957031 82.332031 136.742188 82.285156 C 136.09375 82.132812 135.476562 81.910156 134.898438 81.617188 C 134.765625 81.554688 134.640625 81.480469 134.511719 81.40625 C 134.199219 81.226562 133.898438 81.027344 133.609375 80.8125 C 133.84375 80.988281 134.082031 81.15625 134.335938 81.308594 C 133.773438 80.972656 133.257812 80.570312 132.796875 80.121094 C 131.050781 78.53125 129.109375 75.976562 127.691406 72.6875 C 127.984375 72.6875 128.261719 72.582031 128.480469 72.398438 C 128.492188 72.386719 128.503906 72.378906 128.515625 72.371094 C 128.558594 72.332031 128.597656 72.289062 128.632812 72.246094 C 128.648438 72.226562 128.664062 72.203125 128.679688 72.183594 C 128.710938 72.140625 128.742188 72.097656 128.769531 72.046875 C 128.78125 72.023438 128.792969 71.996094 128.804688 71.96875 C 128.84375 71.875 128.875 71.777344 128.890625 71.675781 C 128.894531 71.644531 128.90625 71.617188 128.90625 71.589844 C 128.910156 71.574219 128.914062 71.5625 128.914062 71.550781 C 128.914062 71.550781 128.933594 71.0625 128.925781 70.375 C 128.921875 70.273438 128.921875 70.167969 128.917969 70.0625 C 128.917969 70.054688 128.917969 70.050781 128.917969 70.042969 C 128.910156 69.828125 128.902344 69.59375 128.890625 69.359375 C 128.890625 69.347656 128.890625 69.335938 128.886719 69.324219 C 128.875 69.085938 128.859375 68.839844 128.835938 68.597656 C 128.832031 68.589844 128.832031 68.585938 128.832031 68.578125 C 128.820312 68.457031 128.808594 68.339844 128.792969 68.21875 C 128.792969 68.214844 128.792969 68.210938 128.792969 68.207031 C 128.761719 67.960938 128.722656 67.71875 128.679688 67.488281 C 128.679688 67.484375 128.679688 67.480469 128.675781 67.476562 C 128.566406 66.890625 128.402344 66.386719 128.171875 66.070312 C 128.023438 65.867188 127.84375 65.738281 127.632812 65.726562 C 126.117188 65.636719 124.796875 67.160156 124.683594 69.125 C 124.597656 70.59375 125.550781 71.902344 127.09375 72.539062 L 125.46875 86.566406 C 125.019531 90.640625 127.808594 94.371094 132.140625 94.835938 C 136.472656 95.304688 140.347656 92.382812 140.796875 88.308594 L 140.988281 82.164062 C 140.332031 82.355469 139.644531 82.472656 138.933594 82.5 C 138.648438 82.507812 138.363281 82.5 138.074219 82.480469 Z M 138.074219 82.480469 " fill-opacity="1" fill-rule="nonzero"/><path fill="#f5c0a2" d="M 117.644531 252.839844 L 117.644531 255.066406 C 119.875 253.714844 124.066406 254.242188 126.085938 255.351562 C 126.71875 255.703125 127.445312 255.710938 128.160156 255.582031 C 128.261719 255.5625 128.367188 255.597656 128.484375 255.660156 C 128.386719 254.589844 128.328125 253.65625 128.292969 252.839844 Z M 117.644531 252.839844 " fill-opacity="1" fill-rule="nonzero"/><path fill="#f5c0a2" d="M 119.644531 117 C 120.171875 116.699219 120.605469 116.445312 120.765625 116.332031 C 121.296875 115.953125 122.132812 115.386719 121.828125 114.402344 C 121.667969 113.886719 121.246094 113.667969 120.789062 113.601562 C 121.625 113.015625 121.65625 112.109375 121.488281 111.761719 C 121.179688 111.128906 120.808594 111.070312 120.058594 111.164062 C 119.308594 111.253906 115.230469 111.730469 115.21875 111.730469 C 115.09375 111.738281 114.96875 111.757812 114.84375 111.792969 L 114.402344 111.925781 C 114.1875 111.773438 113.953125 111.644531 113.710938 111.535156 L 114.5625 110.9375 C 115.621094 110.867188 117.363281 110.738281 118.363281 110.636719 C 119.863281 110.484375 120.324219 109.480469 120.332031 109.027344 C 120.34375 108.324219 119.800781 108.257812 119.089844 108.046875 L 114.402344 107.429688 C 113.945312 107.378906 113.5 107.457031 113.121094 107.632812 C 113.109375 107.636719 113.097656 107.644531 113.085938 107.648438 C 113.003906 107.691406 112.921875 107.738281 112.84375 107.792969 L 108.273438 110.296875 C 107.695312 110.707031 107.367188 111.371094 107.394531 112.074219 C 107.394531 112.078125 107.394531 112.078125 107.394531 112.078125 L 106.0625 118.847656 L 98.914062 131.246094 C 97.640625 135.425781 99.996094 139.847656 104.175781 141.125 C 108.359375 142.398438 112.78125 140.039062 114.054688 135.859375 L 115.488281 122.414062 C 116.039062 122.175781 116.605469 121.933594 116.605469 121.933594 C 116.703125 121.898438 116.800781 121.855469 116.894531 121.804688 L 119.863281 119.589844 C 121.78125 118.117188 120.546875 116.769531 119.644531 117 Z M 119.644531 117 " fill-opacity="1" fill-rule="nonzero"/><path fill="#f5c0a2" d="M 141.210938 74.96875 C 141 74.984375 140.792969 74.992188 140.589844 74.992188 C 138.816406 74.992188 136.617188 74.269531 136.617188 75.929688 C 136.617188 76.652344 136.949219 77.3125 137.503906 77.832031 C 138.390625 78.664062 139.914062 78.027344 139.925781 76.8125 C 139.925781 76.804688 139.925781 76.796875 139.925781 76.789062 C 139.925781 76.789062 139.949219 76.789062 139.980469 76.789062 C 139.988281 76.789062 140.003906 76.789062 140.011719 76.789062 C 140.042969 76.789062 140.078125 76.785156 140.125 76.785156 C 140.136719 76.785156 140.148438 76.785156 140.160156 76.785156 C 140.210938 76.785156 140.265625 76.785156 140.324219 76.78125 C 140.339844 76.78125 140.355469 76.78125 140.375 76.78125 C 140.441406 76.78125 140.507812 76.78125 140.578125 76.78125 C 140.585938 76.78125 140.589844 76.78125 140.597656 76.78125 C 140.929688 76.777344 141.257812 76.773438 141.257812 76.773438 C 141.257812 76.78125 141.257812 76.785156 141.257812 76.792969 L 141.257812 76.8125 C 141.265625 78.03125 142.792969 78.664062 143.679688 77.832031 C 144.234375 77.3125 144.566406 76.652344 144.566406 75.929688 C 144.566406 74.460938 142.839844 74.859375 141.210938 74.96875 Z M 141.210938 74.96875 " fill-opacity="1" fill-rule="nonzero"/><path fill="#f5c0a2" d="M 140.980469 73.164062 C 144.945312 73.164062 146.488281 72.355469 147.359375 69.371094 L 147 74.683594 C 147 74.691406 146.996094 74.703125 146.996094 74.714844 C 146.996094 74.703125 147 74.695312 147 74.683594 L 147.714844 64.082031 C 147.738281 63.738281 147.734375 63.390625 147.722656 63.039062 C 147.710938 62.730469 147.683594 62.421875 147.644531 62.109375 C 147.628906 61.984375 147.613281 61.855469 147.59375 61.726562 C 147.578125 61.628906 147.558594 61.527344 147.539062 61.429688 C 147.492188 61.1875 147.441406 60.949219 147.375 60.710938 C 147.292969 60.40625 147.191406 60.113281 147.085938 59.824219 C 147.035156 59.695312 146.980469 59.570312 146.929688 59.445312 C 146.867188 59.300781 146.804688 59.15625 146.738281 59.015625 C 146.660156 58.851562 146.578125 58.691406 146.492188 58.535156 C 146.445312 58.449219 146.398438 58.367188 146.347656 58.285156 C 146.242188 58.101562 146.136719 57.921875 146.019531 57.746094 C 144.894531 58.476562 143.484375 58.75 140.695312 59.035156 C 138.523438 59.257812 134.890625 59.246094 132.941406 58.597656 C 130.910156 61.339844 132.972656 64.5625 130.6875 66.234375 C 131.75 72.058594 135.234375 73.164062 140.980469 73.164062 Z M 140.980469 73.164062 " fill-opacity="1" fill-rule="nonzero"/><path fill="#f5c0a2" d="M 302.414062 144.367188 C 301.335938 143.074219 298.640625 141.433594 297.070312 141.4375 C 295.503906 141.441406 294.65625 142.285156 294.65625 142.285156 C 293.703125 142.976562 292.066406 144.277344 291.730469 144.515625 C 290.101562 145.648438 291.460938 147.226562 292.875 146.453125 C 293.953125 145.863281 294.585938 145.757812 296.144531 144.960938 C 294.644531 146.492188 295.070312 146.4375 293.648438 147.84375 C 292.148438 149.332031 293.734375 151.0625 295.070312 149.988281 C 295.175781 149.902344 295.296875 149.804688 295.417969 149.707031 C 294.671875 150.859375 295.871094 152.0625 297 151.277344 C 297.679688 150.808594 298.691406 150.136719 299.722656 149.460938 C 299.722656 149.464844 299.726562 149.464844 299.726562 149.46875 C 299.5 149.640625 299.648438 149.523438 298.953125 150.046875 C 297.671875 151.015625 298.785156 152.539062 299.902344 151.871094 C 300.617188 151.445312 303.269531 150.378906 303.878906 149.714844 C 305.390625 148.085938 303.492188 145.660156 302.414062 144.367188 Z M 302.414062 144.367188 " fill-opacity="1" fill-rule="nonzero"/><path fill="#f5c0a2" d="M 286.578125 86.742188 C 285.054688 86.453125 284.675781 87.890625 284.488281 88.882812 L 284.214844 90.335938 C 282.757812 88.75 282.429688 86.222656 282.523438 85.015625 C 278.449219 85 271.488281 84.664062 269.492188 79.839844 C 268.917969 80.988281 268.5625 82.273438 268.5 83.640625 L 268.050781 93.53125 C 267.910156 96.753906 269.789062 99.871094 272.957031 101.136719 C 273.515625 101.359375 274.085938 101.507812 274.65625 101.597656 C 275.039062 103.957031 276.097656 105.453125 279.066406 105.453125 C 281.71875 105.453125 285.929688 102.621094 285.679688 99.6875 L 284.679688 93.605469 C 284.84375 93.664062 285.027344 93.691406 285.214844 93.671875 C 287.007812 93.488281 288.371094 92.386719 288.660156 90.847656 C 289.035156 88.867188 288.105469 87.03125 286.578125 86.742188 Z M 286.578125 86.742188 " fill-opacity="1" fill-rule="nonzero"/><path fill="#f5c0a2" d="M 215.375 92.851562 C 215.878906 92.226562 215.226562 91.261719 213.402344 90.984375 C 211.183594 90.648438 209.640625 90.492188 204.269531 90.527344 C 204.539062 90.445312 204.789062 90.367188 205.007812 90.304688 C 206.742188 89.816406 204.976562 87.40625 202.074219 87.90625 C 199.792969 88.296875 196.117188 88.902344 196.117188 88.902344 C 193.453125 88.8125 189.761719 89.746094 188.464844 93.640625 L 177.550781 107.804688 C 177.511719 107.933594 177.457031 108.054688 177.359375 108.15625 L 170.886719 122.1875 C 172.421875 123.761719 173.660156 124.96875 174.058594 125.210938 C 177.609375 127.375 182.238281 126.246094 184.398438 122.695312 L 197.121094 99.671875 C 197.332031 99.667969 197.539062 99.664062 197.742188 99.65625 L 197.761719 99.652344 C 198.65625 99.605469 204.632812 99.109375 204.632812 99.109375 C 204.945312 99.082031 205.253906 99.039062 205.5625 98.972656 C 206.707031 98.722656 209.679688 98.066406 211.230469 97.597656 C 211.585938 97.492188 211.835938 97.296875 212 97.070312 C 212.679688 96.996094 213.257812 96.933594 213.636719 96.890625 C 214.519531 96.789062 214.742188 96.152344 214.4375 95.546875 C 214.84375 95.511719 215.203125 95.46875 215.488281 95.425781 C 217.183594 95.175781 217.007812 93.460938 215.375 92.851562 Z M 215.375 92.851562 " fill-opacity="1" fill-rule="nonzero"/><path fill="#f5c0a2" d="M 145.003906 252.839844 C 145.082031 253.914062 145.152344 254.789062 145.210938 255.511719 C 145.804688 255.769531 146.203125 256.621094 147.746094 256.621094 C 149.757812 256.621094 150.574219 254.886719 152.253906 255.96875 C 152.753906 254.875 154.289062 254.234375 155.832031 254.257812 C 155.746094 253.726562 155.679688 253.261719 155.625 252.839844 Z M 145.003906 252.839844 " fill-opacity="1" fill-rule="nonzero"/><path fill="#f5c0a2" d="M 144.0625 80.503906 C 144.296875 80.304688 144.519531 80.097656 144.730469 79.875 C 144.996094 79.59375 145.234375 79.292969 145.457031 78.976562 C 145.054688 79.542969 144.589844 80.054688 144.0625 80.503906 Z M 144.0625 80.503906 " fill-opacity="1" fill-rule="nonzero"/><g clip-path="url(#df186d4239)"><path fill="#26b1d8" d="M 177.359375 108.160156 L 170.65625 122.683594 C 170.332031 123.023438 169.792969 123.035156 169.457031 122.707031 L 162.460938 115.9375 C 162.183594 115.667969 162.132812 115.257812 162.304688 114.9375 L 157.003906 109.765625 L 153.777344 146.832031 C 153.539062 148.464844 153.246094 149.96875 151.597656 150.027344 C 138.050781 150.527344 124.773438 148.867188 111.761719 145.042969 C 110.183594 144.578125 109.164062 143.046875 109.335938 141.40625 C 109.355469 141.246094 109.363281 141.074219 109.378906 140.910156 C 111.546875 140.054688 113.320312 138.261719 114.054688 135.859375 L 115.488281 122.414062 C 116.039062 122.175781 116.605469 121.933594 116.605469 121.933594 C 116.703125 121.898438 116.800781 121.855469 116.894531 121.804688 L 119.859375 119.589844 C 121.78125 118.117188 120.546875 116.773438 119.644531 117 C 120.167969 116.699219 120.605469 116.445312 120.765625 116.332031 C 121.296875 115.953125 122.132812 115.386719 121.824219 114.402344 C 121.664062 113.886719 121.246094 113.667969 120.789062 113.601562 C 121.625 113.015625 121.65625 112.109375 121.484375 111.761719 C 121.175781 111.128906 120.808594 111.070312 120.058594 111.164062 C 119.386719 111.246094 116.046875 111.632812 115.351562 111.714844 C 115.273438 111.722656 115.21875 111.730469 115.21875 111.730469 C 115.09375 111.738281 114.964844 111.757812 114.84375 111.792969 L 114.402344 111.925781 C 114.1875 111.773438 113.953125 111.644531 113.710938 111.535156 L 114.5625 110.9375 C 114.679688 110.929688 114.808594 110.921875 114.941406 110.914062 C 114.976562 110.910156 115.015625 110.90625 115.054688 110.90625 C 115.164062 110.894531 115.277344 110.886719 115.398438 110.878906 C 115.425781 110.878906 115.457031 110.875 115.488281 110.875 C 115.625 110.863281 115.765625 110.851562 115.90625 110.84375 C 115.964844 110.839844 116.019531 110.835938 116.074219 110.832031 C 116.183594 110.824219 116.292969 110.8125 116.402344 110.804688 C 116.464844 110.800781 116.527344 110.796875 116.589844 110.792969 C 116.675781 110.785156 116.765625 110.777344 116.851562 110.769531 C 116.921875 110.765625 116.992188 110.757812 117.0625 110.753906 C 117.546875 110.714844 118.003906 110.675781 118.363281 110.636719 C 119.863281 110.484375 120.320312 109.484375 120.332031 109.027344 C 120.34375 108.324219 119.800781 108.257812 119.089844 108.046875 L 117.742188 107.871094 L 114.402344 107.429688 C 113.945312 107.382812 113.5 107.457031 113.121094 107.632812 C 113.109375 107.640625 113.097656 107.644531 113.085938 107.652344 C 113.003906 107.691406 112.921875 107.742188 112.84375 107.792969 L 108.273438 110.296875 C 108.128906 110.402344 107.996094 110.519531 107.886719 110.652344 C 107.550781 111.042969 107.375 111.546875 107.394531 112.078125 L 106.0625 118.847656 L 99.09375 130.9375 L 99.753906 121.179688 C 99.773438 120.804688 100.039062 120.496094 100.386719 120.40625 L 101.566406 97.464844 C 101.820312 94.863281 103.21875 92.652344 105.203125 91.269531 C 105.375 91.070312 105.589844 90.90625 105.847656 90.796875 C 108.445312 89.71875 112.277344 87.734375 117.691406 86.144531 C 117.691406 86.144531 120.746094 85.546875 125.640625 85.054688 L 125.46875 86.566406 C 125.019531 90.636719 127.808594 94.367188 132.140625 94.835938 C 136.472656 95.304688 140.347656 92.378906 140.796875 88.308594 L 140.917969 84.453125 C 142.816406 84.5 144.78125 84.59375 146.78125 84.75 C 150.992188 85.242188 153.910156 85.878906 156.4375 86.796875 C 157.800781 87.164062 159.089844 87.871094 160.175781 88.921875 L 174.441406 104.410156 C 174.761719 104.273438 175.144531 104.34375 175.394531 104.609375 L 177.363281 106.996094 C 177.671875 107.324219 177.667969 107.832031 177.359375 108.160156 Z M 284.847656 259.238281 L 284.847656 256.992188 C 284.847656 256.453125 284.769531 255.929688 284.632812 255.433594 L 273.4375 255.136719 C 273.273438 255.625 273.167969 256.144531 273.140625 256.683594 L 273.089844 257.625 C 272.660156 262.601562 272.746094 266.207031 272.746094 269.8125 L 293.261719 269.8125 C 293.347656 265.777344 284.847656 263.171875 284.847656 259.238281 Z M 128.578125 255.710938 C 128.417969 255.601562 128.285156 255.558594 128.160156 255.582031 C 127.445312 255.710938 126.71875 255.703125 126.085938 255.355469 C 123.574219 253.972656 117.679688 253.484375 116.417969 256.417969 C 115.378906 258.832031 114.242188 260.511719 112.683594 262.957031 C 111.261719 265.1875 110.78125 267.007812 110.789062 268.496094 C 110.792969 269.226562 111.402344 269.8125 112.136719 269.8125 L 130.125 269.8125 C 130.859375 269.8125 131.472656 269.226562 131.472656 268.496094 C 131.480469 264.417969 129.890625 260.574219 129.304688 258.023438 C 129.058594 256.9375 129.003906 256.003906 128.578125 255.710938 Z M 167.644531 262.714844 C 163.390625 260.820312 160.558594 258.875 159.300781 256.210938 C 157.976562 253.40625 153.210938 253.871094 152.253906 255.96875 C 150.574219 254.886719 149.757812 256.621094 147.746094 256.621094 C 145.734375 256.621094 145.667969 255.167969 144.585938 255.480469 C 142.929688 255.953125 142.878906 262.773438 142.882812 268.570312 C 142.882812 269.335938 143.5 269.949219 144.261719 269.949219 L 170.042969 269.949219 C 170.867188 269.949219 171.511719 269.234375 171.414062 268.414062 C 171.214844 266.6875 170.4375 263.960938 167.644531 262.714844 Z M 233.421875 253.535156 C 232.851562 254.269531 232.382812 255.144531 232.058594 256.164062 C 232.058594 256.164062 231.539062 257.539062 230.574219 259.238281 C 229.25 261.921875 224.136719 264.007812 221.34375 265.359375 C 217.894531 267.023438 218.492188 269.8125 218.492188 269.8125 L 243.515625 269.8125 C 244.445312 264.648438 243.355469 262.664062 244.003906 256.765625 C 244.230469 255.84375 244.261719 255.023438 244.152344 254.300781 Z M 299.386719 149.683594 C 299.398438 149.6875 299.40625 149.691406 299.417969 149.699219 C 299.585938 149.574219 299.578125 149.582031 299.726562 149.46875 C 299.726562 149.464844 299.722656 149.464844 299.71875 149.460938 C 299.609375 149.535156 299.5 149.609375 299.386719 149.683594 Z M 320.296875 126.402344 C 320.007812 126.09375 319.691406 125.820312 319.351562 125.59375 L 318.914062 125.296875 L 297.554688 110.28125 C 297.0625 109.667969 296.355469 109.160156 295.566406 108.863281 C 292.429688 107.671875 289.609375 106.730469 286.714844 106.113281 L 285.675781 99.742188 C 285.847656 102.285156 282.691406 104.738281 280.132812 105.320312 C 279.347656 105.296875 278.539062 105.296875 277.703125 105.320312 C 275.757812 104.910156 274.972656 103.550781 274.65625 101.597656 C 274.640625 101.59375 274.625 101.589844 274.613281 101.585938 L 274.921875 105.480469 C 272.242188 105.710938 269.269531 106.171875 265.847656 106.890625 C 265.65625 106.933594 265.46875 106.984375 265.292969 107.042969 C 262.535156 107.761719 260.464844 110.226562 260.382812 113.21875 C 260.320312 115.496094 260.40625 136.128906 260.496094 140.601562 C 260.496094 140.601562 258.867188 156.621094 258.09375 164.601562 C 260.257812 157.277344 263.230469 148.703125 268.023438 142.703125 C 267.675781 142.039062 266.671875 139.953125 265.886719 136.648438 C 268.203125 143.535156 271.917969 148.851562 277.957031 148.851562 C 288.378906 148.851562 292.574219 136.859375 295.519531 124.503906 L 306.835938 131.761719 L 298.691406 141.816406 C 300.097656 142.375 301.65625 143.457031 302.414062 144.367188 C 303.300781 145.433594 304.742188 147.261719 304.378906 148.789062 L 320.027344 134.300781 C 322.285156 132.195312 322.40625 128.660156 320.296875 126.402344 Z M 320.296875 126.402344 " fill-opacity="1" fill-rule="evenodd"/></g><path fill="#293237" d="M 298.625 80.746094 C 296.644531 84.03125 292.515625 85.222656 289.125 83.609375 C 289.390625 85.375 289.226562 87.207031 288.617188 88.941406 C 288.332031 87.804688 287.585938 86.933594 286.578125 86.742188 C 285.054688 86.453125 284.675781 87.890625 284.488281 88.882812 L 284.214844 90.335938 C 283.492188 89.550781 283.046875 88.53125 282.792969 87.554688 C 282.789062 87.542969 282.785156 87.527344 282.78125 87.515625 C 282.664062 87.046875 282.589844 86.585938 282.546875 86.167969 C 282.542969 86.132812 282.542969 86.09375 282.539062 86.058594 C 282.523438 85.902344 282.515625 85.75 282.511719 85.609375 C 282.511719 85.5625 282.511719 85.515625 282.511719 85.472656 C 282.507812 85.308594 282.511719 85.152344 282.523438 85.015625 C 282.28125 85.015625 282.03125 85.011719 281.773438 85.007812 C 281.753906 85.007812 281.730469 85.007812 281.710938 85.007812 C 281.460938 85.003906 281.203125 84.996094 280.941406 84.988281 C 280.90625 84.988281 280.875 84.988281 280.84375 84.984375 C 280.582031 84.976562 280.316406 84.964844 280.046875 84.949219 C 280.007812 84.945312 279.96875 84.945312 279.933594 84.941406 C 279.660156 84.925781 279.386719 84.90625 279.109375 84.882812 C 279.070312 84.878906 279.03125 84.878906 278.996094 84.875 C 278.714844 84.847656 278.429688 84.820312 278.144531 84.785156 C 278.109375 84.78125 278.074219 84.777344 278.042969 84.773438 C 277.75 84.738281 277.457031 84.695312 277.164062 84.648438 C 277.140625 84.644531 277.117188 84.640625 277.09375 84.636719 C 276.789062 84.585938 276.484375 84.527344 276.183594 84.464844 C 276.175781 84.464844 276.167969 84.460938 276.160156 84.460938 C 275.539062 84.324219 274.925781 84.160156 274.335938 83.953125 C 274.320312 83.949219 274.308594 83.945312 274.292969 83.941406 C 274.011719 83.839844 273.734375 83.730469 273.464844 83.613281 C 273.441406 83.601562 273.417969 83.59375 273.394531 83.582031 C 273.128906 83.464844 272.875 83.335938 272.625 83.199219 C 272.597656 83.183594 272.574219 83.167969 272.546875 83.15625 C 272.300781 83.015625 272.066406 82.867188 271.835938 82.707031 C 271.8125 82.6875 271.789062 82.671875 271.761719 82.652344 C 271.535156 82.488281 271.320312 82.316406 271.113281 82.128906 C 271.09375 82.109375 271.074219 82.09375 271.054688 82.074219 C 270.847656 81.882812 270.652344 81.675781 270.472656 81.460938 C 270.460938 81.445312 270.449219 81.433594 270.441406 81.417969 C 270.058594 80.953125 269.738281 80.433594 269.492188 79.839844 C 269.355469 79.507812 269.242188 79.152344 269.152344 78.777344 C 272.632812 73.929688 279.292969 72.738281 284.234375 75.980469 L 285.964844 73.113281 C 288.074219 69.617188 292.617188 68.492188 296.113281 70.597656 C 299.609375 72.707031 300.734375 77.25 298.625 80.746094 Z M 113.113281 116.269531 C 113.132812 116.269531 113.15625 116.269531 113.179688 116.261719 L 115.972656 115.597656 L 119.769531 114.09375 C 119.921875 114.035156 119.996094 113.867188 119.933594 113.714844 C 119.875 113.566406 119.703125 113.488281 119.554688 113.550781 L 115.796875 115.039062 L 113.042969 115.691406 C 112.886719 115.730469 112.789062 115.886719 112.828125 116.046875 C 112.859375 116.179688 112.980469 116.269531 113.113281 116.269531 Z M 100.378906 120.039062 L 105.34375 120.089844 L 105.007812 120.671875 L 100.375 120.625 C 100.214844 120.625 100.082031 120.492188 100.085938 120.328125 C 100.085938 120.167969 100.21875 120.039062 100.378906 120.039062 Z M 112.609375 119.179688 L 115.359375 118.527344 L 119.121094 117.039062 C 119.269531 116.976562 119.441406 117.050781 119.5 117.203125 C 119.558594 117.355469 119.484375 117.523438 119.335938 117.582031 L 115.535156 119.082031 L 112.742188 119.75 C 112.722656 119.757812 112.699219 119.757812 112.675781 119.757812 C 112.542969 119.757812 112.421875 119.667969 112.390625 119.535156 C 112.351562 119.375 112.449219 119.21875 112.609375 119.179688 Z M 290.742188 121.441406 C 290.828125 121.304688 291.011719 121.265625 291.144531 121.351562 L 295.574219 124.191406 C 295.710938 124.28125 295.75 124.460938 295.664062 124.597656 C 295.605469 124.683594 295.511719 124.730469 295.417969 124.730469 C 295.363281 124.730469 295.308594 124.714844 295.257812 124.683594 L 290.828125 121.84375 C 290.695312 121.757812 290.652344 121.578125 290.742188 121.441406 Z M 107.351562 100.648438 L 108.230469 110.332031 C 108.011719 110.496094 107.832031 110.695312 107.695312 110.921875 L 106.765625 100.703125 C 106.753906 100.542969 106.871094 100.398438 107.03125 100.382812 C 107.175781 100.371094 107.335938 100.488281 107.351562 100.648438 Z M 112.089844 98.582031 C 112.019531 98.066406 112.378906 97.644531 112.898438 97.636719 L 137.199219 97.34375 C 137.71875 97.339844 138.195312 97.753906 138.269531 98.269531 L 142.734375 130.214844 C 142.808594 130.730469 142.445312 131.15625 141.929688 131.160156 L 117.625 131.453125 C 117.109375 131.457031 116.628906 131.042969 116.558594 130.527344 L 115.460938 122.671875 L 115.488281 122.414062 C 116.039062 122.175781 116.605469 121.933594 116.605469 121.933594 C 116.703125 121.898438 116.800781 121.855469 116.894531 121.800781 L 119.859375 119.589844 C 121.78125 118.117188 120.546875 116.769531 119.644531 117 C 120.167969 116.699219 120.605469 116.445312 120.765625 116.328125 C 121.296875 115.953125 122.132812 115.386719 121.824219 114.402344 C 121.664062 113.886719 121.246094 113.667969 120.789062 113.601562 C 121.625 113.015625 121.65625 112.109375 121.484375 111.761719 C 121.175781 111.128906 120.808594 111.070312 120.058594 111.160156 C 119.308594 111.253906 115.230469 111.726562 115.21875 111.730469 C 115.09375 111.738281 114.964844 111.757812 114.84375 111.789062 L 114.402344 111.925781 C 114.25 111.816406 114.085938 111.726562 113.917969 111.640625 L 113.886719 111.414062 L 114.5625 110.9375 C 115.617188 110.863281 117.363281 110.738281 118.363281 110.636719 C 119.863281 110.484375 120.320312 109.480469 120.332031 109.027344 C 120.34375 108.324219 119.800781 108.257812 119.089844 108.046875 L 114.402344 107.429688 C 114.03125 107.390625 113.671875 107.433594 113.34375 107.546875 Z M 127.632812 65.726562 C 129.144531 65.8125 128.914062 71.546875 128.914062 71.546875 C 128.875 72.214844 128.3125 72.6875 127.691406 72.6875 C 129.105469 75.976562 131.050781 78.53125 132.796875 80.121094 C 133.257812 80.570312 133.773438 80.972656 134.332031 81.308594 C 134.515625 81.417969 134.707031 81.523438 134.898438 81.617188 C 135.476562 81.910156 136.09375 82.132812 136.742188 82.285156 C 136.957031 82.332031 137.175781 82.375 137.398438 82.410156 C 137.621094 82.441406 137.847656 82.464844 138.074219 82.480469 C 138.363281 82.5 138.648438 82.507812 138.933594 82.496094 C 139.78125 82.46875 140.601562 82.308594 141.375 82.042969 C 142.660156 81.597656 143.808594 80.847656 144.730469 79.871094 C 145.101562 79.484375 145.433594 79.058594 145.722656 78.601562 C 146.445312 77.460938 146.902344 76.125 147 74.683594 L 147.355469 69.371094 C 146.484375 72.355469 144.941406 73.164062 140.976562 73.164062 C 135.230469 73.164062 131.75 72.058594 130.683594 66.234375 C 132.96875 64.5625 130.910156 61.339844 132.941406 58.59375 C 134.890625 59.246094 138.523438 59.257812 140.695312 59.035156 C 143.484375 58.75 144.894531 58.476562 146.019531 57.746094 C 146.609375 58.632812 147.078125 59.625 147.375 60.710938 C 147.585938 61.476562 147.695312 62.265625 147.722656 63.039062 C 147.726562 62.996094 147.734375 62.949219 147.734375 62.90625 C 148.210938 56.324219 142.796875 51.964844 136.703125 51.964844 C 130.609375 51.964844 125.667969 56.394531 125.667969 62.90625 C 125.667969 64.105469 125.765625 65.253906 125.921875 66.367188 C 126.410156 65.933594 127.003906 65.6875 127.632812 65.726562 Z M 140.589844 74.992188 C 142.367188 74.992188 144.566406 74.269531 144.566406 75.929688 C 144.566406 76.652344 144.234375 77.3125 143.679688 77.832031 C 142.792969 78.664062 141.265625 78.027344 141.257812 76.8125 L 141.257812 76.789062 C 141.257812 76.785156 141.257812 76.78125 141.257812 76.773438 C 141.257812 76.773438 139.925781 76.785156 139.925781 76.789062 C 139.925781 76.796875 139.925781 76.804688 139.925781 76.8125 C 139.914062 78.027344 138.390625 78.664062 137.503906 77.832031 C 136.949219 77.3125 136.617188 76.652344 136.617188 75.929688 C 136.617188 74.269531 138.816406 74.992188 140.589844 74.992188 Z M 204.265625 90.820312 L 203.804688 90.824219 C 203.625 90.824219 203.453125 90.824219 203.28125 90.824219 C 201.636719 90.824219 200.382812 90.757812 198.136719 90.007812 C 197.980469 89.957031 197.898438 89.792969 197.949219 89.636719 C 198.003906 89.484375 198.167969 89.402344 198.320312 89.453125 C 200.710938 90.25 201.871094 90.246094 203.804688 90.238281 L 204.265625 90.234375 L 204.269531 90.234375 C 204.429688 90.234375 204.558594 90.367188 204.558594 90.527344 C 204.558594 90.691406 204.429688 90.820312 204.265625 90.820312 Z M 196.863281 99.730469 C 196.863281 99.890625 196.734375 100.023438 196.570312 100.023438 L 192.890625 100.023438 C 192.730469 100.023438 192.597656 99.890625 192.597656 99.730469 C 192.597656 99.570312 192.730469 99.4375 192.890625 99.4375 L 196.570312 99.4375 C 196.734375 99.4375 196.863281 99.570312 196.863281 99.730469 Z M 213.652344 92.511719 C 213.640625 92.664062 213.511719 92.777344 213.363281 92.777344 C 213.351562 92.777344 213.34375 92.777344 213.335938 92.773438 C 210.707031 92.527344 205.894531 92.257812 204.628906 92.1875 C 204.65625 92.589844 204.683594 93.085938 204.691406 93.613281 L 212.25 94.085938 C 212.410156 94.097656 212.535156 94.234375 212.523438 94.394531 C 212.511719 94.550781 212.386719 94.671875 212.230469 94.671875 C 212.226562 94.671875 212.21875 94.671875 212.210938 94.667969 L 204.699219 94.203125 C 204.695312 94.597656 204.683594 94.996094 204.652344 95.371094 C 205.769531 95.492188 208.503906 95.320312 210.390625 95.007812 C 210.546875 94.976562 210.703125 95.089844 210.726562 95.246094 C 210.753906 95.40625 210.648438 95.558594 210.488281 95.585938 C 208.96875 95.835938 206.96875 95.996094 205.59375 95.996094 C 205.195312 95.996094 204.859375 95.980469 204.59375 95.953125 C 204.554688 96.214844 204.507812 96.453125 204.445312 96.65625 C 204.40625 96.78125 204.289062 96.863281 204.164062 96.863281 C 204.136719 96.863281 204.105469 96.859375 204.078125 96.851562 C 203.921875 96.804688 203.835938 96.640625 203.882812 96.484375 C 204.335938 95.011719 203.976562 91.351562 203.972656 91.316406 C 203.957031 91.152344 204.074219 91.011719 204.234375 90.996094 C 204.386719 90.972656 204.539062 91.09375 204.554688 91.257812 C 204.558594 91.28125 204.570312 91.410156 204.585938 91.597656 C 205.722656 91.660156 210.691406 91.9375 213.386719 92.191406 C 213.550781 92.207031 213.667969 92.347656 213.652344 92.511719 Z M 303 166.097656 C 303 171.8125 298.027344 224.410156 295.777344 247.945312 C 295.765625 247.941406 294.347656 255.691406 294.339844 255.691406 L 269.710938 255.039062 L 275.015625 202.351562 C 275.019531 202.351562 275.019531 202.355469 275.023438 202.355469 C 275.027344 202.355469 275.03125 202.355469 275.03125 202.355469 C 275.191406 202.355469 275.320312 202.230469 275.324219 202.070312 L 276.585938 161.457031 C 276.585938 161.382812 276.5625 161.3125 276.515625 161.257812 L 271.988281 155.976562 C 271.882812 155.855469 271.699219 155.84375 271.578125 155.945312 C 271.453125 156.050781 271.441406 156.234375 271.546875 156.359375 L 275.996094 161.550781 L 274.738281 202.054688 C 274.734375 202.1875 274.824219 202.296875 274.945312 202.335938 L 260.417969 247.957031 C 260.390625 247.949219 257.535156 255.257812 257.503906 255.257812 L 230.042969 253.292969 C 236.503906 231.164062 254.273438 178.039062 257.089844 168.078125 C 259.332031 160.148438 262.449219 149.683594 268.023438 142.703125 C 267.65625 142.003906 266.546875 139.703125 265.746094 136.042969 C 264.867188 132.035156 264.226562 125.589844 266.15625 117.65625 C 266.195312 117.5 266.351562 117.40625 266.507812 117.441406 C 266.667969 117.476562 266.761719 117.636719 266.726562 117.792969 C 264.828125 125.609375 265.453125 131.945312 266.3125 135.890625 C 267.242188 140.160156 268.640625 142.617188 268.65625 142.644531 C 268.691406 142.703125 268.699219 142.773438 268.6875 142.839844 C 270.558594 145.882812 272.96875 148.039062 276.074219 148.660156 C 275.800781 147.210938 275.527344 145.839844 275.265625 144.527344 C 273.722656 136.792969 272.609375 131.207031 273.964844 122.878906 C 274.984375 116.625 277.59375 112.34375 278 111.707031 L 277.726562 105.464844 C 277.71875 105.304688 277.84375 105.167969 278.007812 105.160156 C 278.167969 105.15625 278.304688 105.277344 278.3125 105.441406 L 278.589844 111.773438 C 278.589844 111.835938 278.574219 111.898438 278.539062 111.949219 C 278.507812 111.992188 275.625 116.347656 274.542969 122.972656 C 273.203125 131.195312 274.308594 136.738281 275.839844 144.410156 C 276.109375 145.753906 276.386719 147.15625 276.667969 148.644531 C 276.675781 148.683594 276.675781 148.722656 276.664062 148.761719 C 277.085938 148.816406 277.511719 148.851562 277.957031 148.851562 C 284.480469 148.851562 288.5625 144.152344 291.425781 137.609375 C 293.242188 138.644531 294.867188 139.972656 296.238281 141.53125 C 295.210938 141.746094 294.65625 142.285156 294.65625 142.285156 C 293.699219 142.976562 292.066406 144.28125 291.730469 144.515625 C 290.101562 145.652344 291.460938 147.226562 292.875 146.453125 C 293.886719 145.898438 294.515625 145.765625 295.886719 145.089844 C 295.828125 144.976562 295.847656 144.835938 295.949219 144.746094 L 296.941406 143.847656 C 297.0625 143.738281 297.246094 143.75 297.355469 143.871094 C 297.460938 143.988281 297.453125 144.175781 297.332031 144.28125 L 296.339844 145.179688 C 296.285156 145.230469 296.214844 145.257812 296.144531 145.257812 C 296.070312 145.257812 296 145.226562 295.941406 145.171875 C 294.683594 146.488281 295 146.507812 293.648438 147.84375 C 292.144531 149.335938 293.730469 151.066406 295.070312 149.988281 C 295.105469 149.957031 295.148438 149.921875 295.191406 149.890625 C 295.097656 149.773438 295.101562 149.601562 295.214844 149.496094 L 299.050781 145.859375 C 299.167969 145.75 299.351562 145.753906 299.464844 145.871094 C 299.574219 145.988281 299.570312 146.171875 299.453125 146.285156 L 295.617188 149.921875 C 295.558594 149.976562 295.488281 150.003906 295.414062 150.003906 C 295.371094 150.003906 295.324219 149.988281 295.285156 149.96875 C 294.851562 151.027344 295.953125 152.003906 297 151.28125 C 297.335938 151.042969 297.757812 150.757812 298.226562 150.449219 C 298.179688 150.332031 298.210938 150.195312 298.316406 150.113281 L 301.09375 148.011719 C 301.222656 147.914062 301.40625 147.9375 301.503906 148.066406 C 301.601562 148.195312 301.574219 148.378906 301.445312 148.476562 L 298.671875 150.582031 C 298.617188 150.621094 298.554688 150.640625 298.496094 150.640625 C 298.484375 150.640625 298.476562 150.636719 298.46875 150.632812 C 298.085938 151.511719 298.992188 152.414062 299.902344 151.871094 C 300.164062 151.710938 300.699219 151.464844 301.300781 151.183594 C 302.742188 155.992188 303 160.980469 303 166.097656 Z M 174.355469 104.839844 C 174.460938 104.964844 174.441406 105.148438 174.316406 105.25 L 162.6875 114.914062 C 162.632812 114.957031 162.566406 114.980469 162.5 114.980469 C 162.414062 114.980469 162.332031 114.945312 162.273438 114.875 C 162.167969 114.75 162.1875 114.566406 162.3125 114.460938 L 173.941406 104.800781 C 174.066406 104.699219 174.25 104.714844 174.355469 104.839844 Z M 156.050781 199.542969 L 157.105469 252.839844 L 143.320312 252.839844 C 140.644531 243.960938 134.433594 218.777344 137.464844 203.046875 L 132.054688 163.976562 L 132.132812 156.820312 L 136.910156 155.546875 C 137.066406 155.503906 137.160156 155.34375 137.117188 155.1875 C 137.074219 155.03125 136.914062 154.941406 136.757812 154.980469 L 131.765625 156.3125 C 131.640625 156.347656 131.550781 156.460938 131.546875 156.59375 L 131.417969 168.566406 C 131.414062 168.730469 131.542969 168.863281 131.707031 168.863281 L 129.921875 252.839844 L 115.601562 252.839844 C 114.574219 246.722656 112.636719 234.992188 111.710938 228.027344 C 110.410156 218.292969 112.332031 200.699219 112.332031 200.699219 L 110.46875 165.523438 C 110.15625 159.066406 110.234375 151.453125 110.699219 144.511719 C 111.011719 144.742188 111.371094 144.925781 111.761719 145.039062 C 124.773438 148.863281 138.050781 150.527344 151.597656 150.027344 C 151.714844 150.023438 151.820312 150.011719 151.921875 149.992188 Z M 111.519531 126.234375 C 110.371094 126 109.269531 125.316406 108.84375 124.566406 C 108.761719 124.425781 108.8125 124.246094 108.953125 124.164062 C 109.09375 124.085938 109.273438 124.132812 109.351562 124.277344 C 109.648438 124.792969 110.527344 125.433594 111.636719 125.65625 C 112.351562 125.804688 113.40625 125.816406 114.371094 125.074219 C 114.496094 124.976562 114.679688 125 114.78125 125.128906 C 114.878906 125.257812 114.855469 125.441406 114.726562 125.539062 C 113.945312 126.140625 113.117188 126.324219 112.40625 126.324219 C 112.082031 126.324219 111.78125 126.285156 111.519531 126.234375 Z M 158.304688 99.421875 L 157.195312 109.75 C 157.179688 109.898438 157.050781 110.011719 156.902344 110.011719 C 156.894531 110.011719 156.882812 110.011719 156.871094 110.007812 C 156.710938 109.992188 156.59375 109.847656 156.613281 109.6875 L 157.722656 99.359375 C 157.738281 99.199219 157.882812 99.085938 158.046875 99.101562 C 158.207031 99.117188 158.320312 99.261719 158.304688 99.421875 Z M 158.304688 99.421875 " fill-opacity="1" fill-rule="evenodd"/></svg>