<svg xmlns="http://www.w3.org/2000/svg" xmlns:xlink="http://www.w3.org/1999/xlink" width="540" zoomAndPan="magnify" viewBox="0 0 404.88 299.999988" height="400" preserveAspectRatio="xMidYMid meet" version="1.0"><defs><clipPath id="8521af5042"><path d="M 59 38 L 340 38 L 340 276.441406 L 59 276.441406 Z M 59 38 " clip-rule="nonzero"/></clipPath><clipPath id="c26626d766"><path d="M 326 237 L 346.15625 237 L 346.15625 258 L 326 258 Z M 326 237 " clip-rule="nonzero"/></clipPath><clipPath id="3408f61931"><path d="M 66 23.765625 L 309 23.765625 L 309 226 L 66 226 Z M 66 23.765625 " clip-rule="nonzero"/></clipPath></defs><path fill="#f5f5f5" d="M 173.054688 242.953125 L 116.277344 242.953125 L 116.277344 214.15625 C 116.277344 212.757812 117.414062 211.621094 118.8125 211.621094 L 170.519531 211.621094 C 171.917969 211.621094 173.054688 212.757812 173.054688 214.15625 Z M 173.054688 242.953125 " fill-opacity="1" fill-rule="nonzero"/><path fill="#f5f5f5" d="M 148.472656 101.578125 C 150.386719 103.121094 153.796875 105.878906 155.707031 107.421875 C 156.480469 108.046875 157.609375 107.929688 158.234375 107.15625 C 158.246094 107.140625 158.253906 107.132812 158.265625 107.117188 C 158.265625 107.117188 158.710938 106.570312 159.046875 106.152344 C 159.144531 106.03125 159.191406 105.875 159.175781 105.71875 C 159.15625 105.5625 159.082031 105.421875 158.960938 105.324219 C 158.335938 104.820312 157.222656 103.921875 156.597656 103.414062 C 156.476562 103.316406 156.320312 103.269531 156.167969 103.289062 C 156.011719 103.304688 155.867188 103.382812 155.769531 103.503906 C 155.550781 103.773438 155.289062 104.09375 155.132812 104.292969 L 151.65625 101.480469 C 151.808594 101.289062 152.027344 101.019531 152.21875 100.785156 C 152.324219 100.652344 152.375 100.488281 152.355469 100.320312 C 152.339844 100.15625 152.257812 100.003906 152.125 99.898438 L 149.828125 98.039062 C 149.699219 97.933594 149.53125 97.886719 149.367188 97.90625 C 149.203125 97.921875 149.046875 98.003906 148.941406 98.132812 C 148.75 98.371094 148.535156 98.640625 148.378906 98.832031 C 148.378906 98.832031 148.308594 98.917969 148.203125 99.046875 C 148.199219 99.050781 148.195312 99.058594 148.191406 99.0625 C 148.183594 99.070312 148.179688 99.078125 148.179688 99.078125 L 148.179688 99.082031 C 147.585938 99.855469 147.710938 100.960938 148.472656 101.578125 Z M 148.472656 101.578125 " fill-opacity="1" fill-rule="nonzero"/><path fill="#f5f5f5" d="M 105.417969 57.308594 L 105.417969 92.332031 C 105.417969 94.914062 107.511719 97.007812 110.09375 97.007812 L 161.050781 97.007812 C 163.632812 97.007812 165.726562 94.914062 165.726562 92.332031 L 165.726562 57.308594 C 165.726562 54.726562 163.632812 52.632812 161.050781 52.632812 L 110.09375 52.632812 C 107.511719 52.632812 105.417969 54.726562 105.417969 57.308594 Z M 158.597656 56.683594 C 159.464844 56.683594 160.164062 57.386719 160.164062 58.25 C 160.164062 59.113281 159.464844 59.8125 158.597656 59.8125 C 157.734375 59.8125 157.035156 59.113281 157.035156 58.25 C 157.035156 57.382812 157.734375 56.683594 158.597656 56.683594 Z M 158.597656 56.683594 " fill-opacity="1" fill-rule="nonzero"/><path fill="#f5f5f5" d="M 172.992188 245.152344 C 172.964844 245.242188 172.929688 245.328125 172.886719 245.410156 C 172.929688 245.328125 172.964844 245.242188 172.992188 245.152344 Z M 172.992188 245.152344 " fill-opacity="1" fill-rule="nonzero"/><path fill="#f5f5f5" d="M 70.683594 215.167969 L 85.429688 215.167969 L 85.429688 221.804688 L 70.683594 221.804688 Z M 70.683594 215.167969 " fill-opacity="1" fill-rule="nonzero"/><path fill="#f5f5f5" d="M 108.019531 43.75 C 108.019531 44.375 107.957031 45 107.835938 45.613281 C 107.710938 46.230469 107.53125 46.828125 107.289062 47.40625 C 107.050781 47.988281 106.753906 48.539062 106.40625 49.0625 C 106.058594 49.582031 105.660156 50.066406 105.21875 50.511719 C 104.773438 50.953125 104.289062 51.351562 103.769531 51.699219 C 103.246094 52.046875 102.695312 52.34375 102.113281 52.582031 C 101.535156 52.824219 100.9375 53.003906 100.320312 53.128906 C 99.703125 53.25 99.082031 53.3125 98.453125 53.3125 C 97.828125 53.3125 97.207031 53.25 96.589844 53.128906 C 95.972656 53.003906 95.375 52.824219 94.796875 52.582031 C 94.214844 52.34375 93.664062 52.046875 93.140625 51.699219 C 92.621094 51.351562 92.136719 50.953125 91.691406 50.511719 C 91.25 50.066406 90.851562 49.582031 90.503906 49.0625 C 90.15625 48.539062 89.859375 47.988281 89.621094 47.40625 C 89.378906 46.828125 89.199219 46.230469 89.074219 45.613281 C 88.953125 45 88.890625 44.375 88.890625 43.75 C 88.890625 43.121094 88.953125 42.5 89.074219 41.882812 C 89.199219 41.265625 89.378906 40.667969 89.621094 40.089844 C 89.859375 39.507812 90.15625 38.957031 90.503906 38.4375 C 90.851562 37.914062 91.25 37.429688 91.691406 36.988281 C 92.136719 36.542969 92.621094 36.148438 93.140625 35.796875 C 93.664062 35.449219 94.214844 35.15625 94.796875 34.914062 C 95.375 34.675781 95.972656 34.492188 96.589844 34.371094 C 97.207031 34.246094 97.828125 34.1875 98.453125 34.1875 C 99.082031 34.1875 99.703125 34.246094 100.320312 34.371094 C 100.9375 34.492188 101.535156 34.675781 102.113281 34.914062 C 102.695312 35.15625 103.246094 35.449219 103.769531 35.796875 C 104.289062 36.148438 104.773438 36.542969 105.21875 36.988281 C 105.660156 37.429688 106.058594 37.914062 106.40625 38.4375 C 106.753906 38.957031 107.050781 39.507812 107.289062 40.089844 C 107.53125 40.667969 107.710938 41.265625 107.835938 41.882812 C 107.957031 42.5 108.019531 43.121094 108.019531 43.75 Z M 108.019531 43.75 " fill-opacity="1" fill-rule="nonzero"/><path fill="#f5f5f5" d="M 260.542969 31.628906 C 261.351562 31.628906 262.007812 30.972656 262.007812 30.160156 C 262.007812 29.347656 261.351562 28.691406 260.542969 28.691406 C 259.730469 28.691406 259.074219 29.347656 259.074219 30.160156 C 259.074219 30.972656 259.730469 31.628906 260.542969 31.628906 Z M 260.542969 31.628906 " fill-opacity="1" fill-rule="nonzero"/><path fill="#f5f5f5" d="M 264.929688 31.628906 C 265.742188 31.628906 266.398438 30.972656 266.398438 30.160156 C 266.398438 29.347656 265.742188 28.691406 264.929688 28.691406 C 264.121094 28.691406 263.464844 29.347656 263.464844 30.160156 C 263.464844 30.972656 264.121094 31.628906 264.929688 31.628906 Z M 264.929688 31.628906 " fill-opacity="1" fill-rule="nonzero"/><path fill="#f5f5f5" d="M 198.703125 118.761719 L 326.503906 118.761719 C 327.507812 118.761719 328.320312 117.949219 328.320312 116.949219 L 328.320312 36.054688 C 328.320312 35.054688 327.507812 34.238281 326.503906 34.238281 L 198.703125 34.238281 C 197.699219 34.238281 196.886719 35.054688 196.886719 36.054688 L 196.886719 116.949219 C 196.886719 117.949219 197.699219 118.761719 198.703125 118.761719 Z M 198.703125 118.761719 " fill-opacity="1" fill-rule="nonzero"/><path fill="#f5f5f5" d="M 256.152344 31.628906 C 256.960938 31.628906 257.621094 30.972656 257.621094 30.160156 C 257.621094 29.347656 256.960938 28.691406 256.152344 28.691406 C 255.339844 28.691406 254.683594 29.347656 254.683594 30.160156 C 254.683594 30.972656 255.339844 31.628906 256.152344 31.628906 Z M 256.152344 31.628906 " fill-opacity="1" fill-rule="nonzero"/><path fill="#f5f5f5" d="M 291.671875 249.855469 L 237.417969 249.855469 L 237.417969 270.019531 L 215.191406 270.019531 L 215.191406 275.652344 L 311.40625 275.652344 L 311.40625 270.019531 L 291.671875 270.019531 Z M 291.671875 249.855469 " fill-opacity="1" fill-rule="nonzero"/><path fill="#f5f5f5" d="M 172.84375 245.488281 C 172.785156 245.585938 172.71875 245.683594 172.636719 245.765625 C 172.71875 245.683594 172.785156 245.589844 172.84375 245.488281 Z M 172.84375 245.488281 " fill-opacity="1" fill-rule="nonzero"/><path fill="#f5f5f5" d="M 172.992188 245.152344 C 173.003906 245.121094 173.015625 245.089844 173.023438 245.058594 C 173.015625 245.089844 173.003906 245.121094 172.992188 245.152344 Z M 172.992188 245.152344 " fill-opacity="1" fill-rule="nonzero"/><path fill="#f5f5f5" d="M 172.847656 245.488281 C 172.859375 245.460938 172.875 245.4375 172.886719 245.410156 C 172.875 245.4375 172.859375 245.460938 172.847656 245.488281 Z M 172.847656 245.488281 " fill-opacity="1" fill-rule="nonzero"/><path fill="#f5f5f5" d="M 176.191406 125.496094 L 61.632812 125.496094 C 60.351562 125.496094 59.3125 126.535156 59.3125 127.816406 L 59.3125 199.828125 C 59.3125 201.109375 60.351562 202.148438 61.632812 202.148438 L 176.191406 202.148438 C 177.472656 202.148438 178.511719 201.109375 178.511719 199.828125 L 178.511719 127.816406 C 178.511719 126.535156 177.472656 125.496094 176.191406 125.496094 Z M 176.191406 125.496094 " fill-opacity="1" fill-rule="nonzero"/><path fill="#f5f5f5" d="M 173.023438 245.058594 C 173.054688 244.9375 173.074219 244.8125 173.074219 244.683594 L 173.097656 218.339844 L 173.074219 244.683594 C 173.070312 244.8125 173.054688 244.9375 173.023438 245.058594 Z M 173.023438 245.058594 " fill-opacity="1" fill-rule="nonzero"/><path fill="#f5f5f5" d="M 172.636719 245.769531 L 172.632812 245.769531 L 172.636719 245.765625 Z M 172.636719 245.769531 " fill-opacity="1" fill-rule="nonzero"/><path fill="#f5f5f5" d="M 172.632812 245.769531 C 172.542969 245.863281 172.445312 245.949219 172.332031 246.015625 C 172.445312 245.945312 172.546875 245.863281 172.632812 245.769531 Z M 172.632812 245.769531 " fill-opacity="1" fill-rule="nonzero"/><path fill="#f5f5f5" d="M 339.980469 240.082031 C 339.980469 216.742188 339.980469 158.121094 339.980469 139.585938 C 339.980469 136.429688 337.425781 133.875 334.273438 133.875 L 192.941406 133.875 C 189.789062 133.875 187.230469 136.429688 187.230469 139.585938 L 187.230469 244.101562 C 187.230469 247.257812 189.789062 249.8125 192.941406 249.8125 C 215.46875 249.8125 298.386719 249.8125 328.746094 249.8125 C 329.820312 252.976562 332.8125 255.257812 336.339844 255.257812 C 340.773438 255.257812 344.367188 251.664062 344.367188 247.230469 C 344.367188 244.109375 342.582031 241.410156 339.980469 240.082031 Z M 339.980469 240.082031 " fill-opacity="1" fill-rule="nonzero"/><g clip-path="url(#8521af5042)"><path fill="#f7993e" d="M 165.726562 57.308594 C 165.726562 54.726562 163.632812 52.632812 161.050781 52.632812 L 110.09375 52.632812 C 107.511719 52.632812 105.417969 54.726562 105.417969 57.308594 L 105.417969 62.992188 L 165.726562 62.992188 Z M 158.597656 59.8125 C 157.734375 59.8125 157.035156 59.113281 157.035156 58.25 C 157.035156 57.382812 157.734375 56.683594 158.597656 56.683594 C 159.464844 56.683594 160.164062 57.382812 160.164062 58.25 C 160.164062 59.113281 159.464844 59.8125 158.597656 59.8125 Z M 164.308594 129.414062 C 165.035156 129.414062 165.625 130.003906 165.625 130.730469 C 165.625 131.457031 165.035156 132.046875 164.308594 132.046875 C 163.582031 132.046875 162.992188 131.457031 162.992188 130.730469 C 162.992188 130.003906 163.582031 129.414062 164.308594 129.414062 Z M 166.851562 130.730469 C 166.851562 130.003906 167.4375 129.414062 168.167969 129.414062 C 168.894531 129.414062 169.484375 130.003906 169.484375 130.730469 C 169.484375 131.457031 168.894531 132.046875 168.167969 132.046875 C 167.4375 132.046875 166.851562 131.457031 166.851562 130.730469 Z M 320.722656 40.015625 C 320.722656 39.214844 321.371094 38.5625 322.171875 38.5625 C 322.972656 38.5625 323.625 39.214844 323.625 40.015625 C 323.625 40.816406 322.972656 41.464844 322.171875 41.464844 C 321.371094 41.464844 320.722656 40.816406 320.722656 40.015625 Z M 316.445312 40.015625 C 316.445312 39.214844 317.097656 38.5625 317.898438 38.5625 C 318.699219 38.5625 319.347656 39.214844 319.347656 40.015625 C 319.347656 40.816406 318.699219 41.464844 317.898438 41.464844 C 317.09375 41.464844 316.445312 40.816406 316.445312 40.015625 Z M 312.191406 40.015625 C 312.191406 39.214844 312.84375 38.5625 313.644531 38.5625 C 314.445312 38.5625 315.09375 39.214844 315.09375 40.015625 C 315.09375 40.816406 314.445312 41.464844 313.644531 41.464844 C 312.839844 41.464844 312.191406 40.816406 312.191406 40.015625 Z M 170.726562 130.730469 C 170.726562 130.003906 171.316406 129.414062 172.042969 129.414062 C 172.769531 129.414062 173.359375 130.003906 173.359375 130.730469 C 173.359375 131.457031 172.769531 132.046875 172.042969 132.046875 C 171.316406 132.046875 170.726562 131.457031 170.726562 130.730469 Z M 196.667969 45.25 C 196.667969 45.128906 196.765625 45.03125 196.886719 45.03125 L 328.320312 45.03125 C 328.441406 45.03125 328.539062 45.128906 328.539062 45.25 C 328.539062 45.371094 328.441406 45.46875 328.320312 45.46875 L 196.886719 45.46875 C 196.765625 45.46875 196.667969 45.371094 196.667969 45.25 Z M 158.597656 81.085938 L 112.546875 81.085938 C 112.226562 81.085938 111.960938 80.824219 111.960938 80.5 C 111.960938 80.175781 112.222656 79.914062 112.546875 79.914062 L 158.601562 79.914062 C 158.921875 79.914062 159.183594 80.175781 159.183594 80.5 C 159.183594 80.824219 158.921875 81.085938 158.597656 81.085938 Z M 237.417969 249.855469 L 291.671875 249.855469 L 237.429688 261 Z M 266.800781 243.550781 C 265.171875 243.550781 263.851562 242.230469 263.851562 240.601562 C 263.851562 238.972656 265.171875 237.652344 266.800781 237.652344 C 268.429688 237.652344 269.75 238.972656 269.75 240.601562 C 269.75 242.230469 268.429688 243.550781 266.800781 243.550781 Z M 334.273438 133.875 L 192.941406 133.875 C 189.789062 133.875 187.230469 136.429688 187.230469 139.585938 L 187.230469 231.511719 L 339.984375 231.511719 C 339.984375 204.703125 339.984375 156.144531 339.984375 139.585938 C 339.980469 136.429688 337.425781 133.875 334.273438 133.875 Z M 333.058594 225.320312 L 194.328125 225.320312 L 194.328125 140 L 333.058594 140 Z M 178.808594 135.480469 C 178.808594 135.644531 178.675781 135.773438 178.511719 135.773438 L 59.3125 135.773438 C 59.148438 135.773438 59.015625 135.644531 59.015625 135.480469 C 59.015625 135.316406 59.148438 135.183594 59.3125 135.183594 L 178.511719 135.183594 C 178.675781 135.183594 178.808594 135.316406 178.808594 135.480469 Z M 144.875 88.621094 C 145.199219 88.621094 145.460938 88.882812 145.460938 89.207031 C 145.460938 89.53125 145.199219 89.792969 144.875 89.792969 L 126.269531 89.792969 C 125.949219 89.792969 125.683594 89.53125 125.683594 89.207031 C 125.683594 88.882812 125.945312 88.621094 126.269531 88.621094 Z M 159.183594 71.265625 C 159.183594 71.585938 158.921875 71.847656 158.597656 71.847656 L 112.546875 71.847656 C 112.226562 71.847656 111.960938 71.585938 111.960938 71.265625 C 111.960938 70.941406 112.222656 70.679688 112.546875 70.679688 L 158.601562 70.679688 C 158.921875 70.679688 159.183594 70.941406 159.183594 71.265625 Z M 173.054688 233.453125 C 173.058594 233.457031 173.0625 233.453125 173.070312 233.453125 C 173.074219 233.453125 173.078125 233.457031 173.082031 233.457031 L 173.070312 244.6875 C 173.070312 245.558594 172.363281 246.265625 171.492188 246.265625 L 117.769531 246.265625 C 116.898438 246.265625 116.191406 245.558594 116.191406 244.6875 L 116.195312 240.878906 L 116.195312 237.828125 C 116.195312 237.828125 116.234375 237.8125 116.292969 237.777344 C 116.917969 237.460938 117.433594 237.09375 117.886719 236.714844 C 118.382812 236.328125 118.933594 235.847656 119.476562 235.261719 C 119.539062 235.191406 119.609375 235.132812 119.671875 235.066406 C 120.167969 234.640625 120.691406 234.285156 121.339844 234.082031 C 121.371094 234.074219 121.402344 234.0625 121.433594 234.054688 C 121.5 234.035156 121.566406 234.019531 121.636719 234.003906 C 122.832031 233.75 124.0625 234.105469 124.882812 235.074219 C 126.234375 236.671875 129.0625 242.261719 133.546875 242.203125 C 138.03125 242.140625 137.847656 236.855469 140.921875 236.058594 C 143.992188 235.261719 145.097656 238.882812 148.90625 237.839844 C 152.714844 236.796875 153.882812 230.773438 156.957031 230.222656 C 160.027344 229.667969 161.933594 232.863281 165.617188 231.941406 C 169.128906 231.066406 170.523438 224.171875 173.09375 223.148438 L 173.082031 233.457031 C 173.078125 233.457031 173.074219 233.457031 173.070312 233.457031 C 173.0625 233.453125 173.058594 233.453125 173.054688 233.453125 Z M 312.339844 276.421875 L 214.773438 276.421875 L 214.773438 269.785156 L 312.339844 269.785156 Z M 312.339844 276.421875 " fill-opacity="1" fill-rule="nonzero"/></g><path fill="#f5c0a2" d="M 248.988281 71.203125 C 248.679688 71.203125 248.386719 71.144531 248.105469 71.0625 C 248.027344 70.304688 247.949219 69.496094 247.859375 68.625 C 247.75 67.519531 247.664062 66.371094 247.617188 65.234375 C 248.035156 65.03125 248.496094 64.90625 248.988281 64.90625 C 250.726562 64.90625 252.136719 66.320312 252.136719 68.054688 C 252.136719 69.789062 250.726562 71.203125 248.988281 71.203125 Z M 257.480469 70.335938 C 259.214844 70.335938 260.628906 68.921875 260.628906 67.1875 C 260.628906 65.449219 259.214844 64.035156 257.480469 64.035156 C 255.742188 64.035156 254.332031 65.449219 254.332031 67.1875 C 254.332031 68.921875 255.742188 70.335938 257.480469 70.335938 Z M 252.386719 67.625 C 252.519531 67.464844 252.679688 67.34375 252.871094 67.273438 C 253.316406 67.105469 253.796875 67.214844 254.058594 67.300781 C 254.058594 67.261719 254.050781 67.226562 254.050781 67.1875 C 254.050781 65.296875 255.589844 63.757812 257.480469 63.757812 C 259.285156 63.757812 260.769531 65.167969 260.894531 66.941406 L 265.277344 64.199219 C 263.890625 63.738281 262.328125 63.078125 261.253906 62.113281 C 259.117188 60.195312 257.734375 57.363281 257.734375 57.363281 C 257.734375 57.363281 255.589844 59.105469 253.082031 60.28125 C 251.105469 61.207031 248.886719 61.773438 247.589844 62.058594 C 247.5625 62.984375 247.570312 63.949219 247.605469 64.925781 C 248.027344 64.738281 248.496094 64.628906 248.988281 64.628906 C 250.730469 64.628906 252.171875 65.9375 252.386719 67.625 Z M 269.203125 64.636719 C 269.140625 64.578125 269.074219 64.539062 269.007812 64.488281 C 268.105469 63.78125 266.851562 63.921875 265.734375 64.34375 C 265.566406 64.40625 265.402344 64.476562 265.242188 64.546875 L 263.429688 65.683594 L 260.902344 67.265625 C 260.859375 69.117188 259.339844 70.613281 257.480469 70.613281 C 255.730469 70.613281 254.285156 69.296875 254.082031 67.601562 C 253.914062 67.535156 253.40625 67.367188 252.96875 67.53125 C 252.722656 67.625 252.539062 67.816406 252.414062 68.09375 C 252.394531 69.964844 250.863281 71.480469 248.988281 71.480469 C 248.695312 71.480469 248.410156 71.429688 248.136719 71.359375 C 248.496094 74.632812 248.921875 76.839844 250.390625 78.089844 C 251.277344 78.847656 252.386719 79.425781 253.710938 79.667969 L 253.6875 82.523438 C 253.691406 82.523438 253.695312 82.523438 253.699219 82.523438 C 255.46875 84.46875 257.96875 85.570312 260.585938 85.550781 C 263.199219 85.53125 265.6875 84.394531 267.425781 82.421875 C 267.484375 82.371094 267.53125 82.324219 267.570312 82.277344 L 267.414062 73.003906 L 267.351562 69.480469 C 268.871094 68.574219 270.894531 66.300781 269.203125 64.636719 Z M 296.992188 223.242188 C 297.226562 223.929688 297.460938 224.621094 297.699219 225.320312 L 316.808594 225.320312 C 315.878906 222.359375 315.003906 219.617188 314.1875 217.097656 Z M 258.011719 167.648438 C 257.003906 165.535156 258.085938 162.761719 259.625 158.359375 C 260.351562 156.269531 261.253906 154.078125 262.230469 152.191406 C 267.648438 153.539062 272.875 152.910156 272.875 152.910156 C 274.339844 157.363281 275.527344 159.738281 276.382812 161.003906 C 277.707031 160.722656 279.242188 160.75 280.007812 161.859375 C 281.304688 163.746094 278.832031 165.484375 277.222656 165.992188 L 276.441406 170.121094 L 276.40625 174.816406 L 262.691406 174.863281 L 262.628906 178.125 L 262.621094 178.128906 L 262.667969 171.964844 C 260.261719 170.996094 258.800781 169.292969 258.011719 167.648438 Z M 227.957031 217.617188 C 223.003906 220.097656 217.238281 222.941406 210.496094 226.203125 C 209.773438 226.554688 209.027344 226.796875 208.277344 226.953125 C 207.136719 227.246094 205.945312 227.347656 204.75 227.214844 C 202.019531 226.914062 199.539062 225.480469 197.90625 223.277344 C 191.4375 214.492188 182.910156 202.839844 176.695312 194.269531 C 175.703125 193.929688 174.464844 193.292969 172.839844 192.1875 C 168.609375 189.332031 164.261719 184.78125 162.714844 183.042969 C 161.925781 182.105469 163.148438 180.914062 163.941406 181.300781 C 164.355469 181.492188 164.757812 181.726562 165.160156 181.964844 L 163.03125 180.339844 C 162.976562 180.296875 162.96875 180.222656 163 180.164062 C 162.902344 180.074219 162.804688 179.984375 162.710938 179.894531 C 162.199219 179.457031 161.9375 179.074219 161.925781 178.707031 C 161.945312 178.226562 162.347656 177.636719 162.796875 177.503906 C 163.230469 177.359375 163.828125 177.6875 164.203125 177.851562 C 164.191406 177.8125 164.191406 177.769531 164.21875 177.730469 C 164.238281 177.707031 164.261719 177.699219 164.289062 177.6875 C 164.046875 177.460938 163.726562 177.152344 163.308594 176.726562 C 162.378906 175.796875 163.546875 174.191406 165.019531 174.734375 C 165.21875 174.8125 165.457031 174.9375 165.714844 175.085938 C 165.753906 175.078125 165.792969 175.078125 165.832031 175.105469 L 171.789062 179.207031 C 170.546875 178.195312 167.65625 175.824219 166.75 174.945312 C 165.632812 173.816406 166.871094 171.933594 168.417969 172.65625 C 169.234375 173.0625 175.398438 177.914062 178.828125 179.972656 C 178.828125 179.972656 176.105469 172.835938 178.222656 172.136719 C 180.054688 171.539062 183.761719 177.539062 185.886719 181.414062 C 186.359375 182.253906 186.738281 183 187.003906 183.59375 C 190.585938 187.226562 199.085938 195.929688 207.648438 205.277344 C 211.023438 203.445312 214.308594 201.667969 217.484375 199.953125 Z M 127.242188 170.746094 C 126.214844 171.839844 124.824219 172.695312 123.058594 173.050781 L 123.085938 176.898438 C 123.082031 176.898438 123.082031 176.898438 123.074219 176.898438 C 121.136719 179.027344 118.40625 180.230469 115.542969 180.210938 C 112.683594 180.1875 109.964844 178.945312 108.066406 176.789062 C 107.945312 176.683594 107.859375 176.582031 107.804688 176.511719 L 107.742188 168.066406 L 107.824219 162.433594 C 106.21875 161.335938 104.386719 159.042969 106.121094 157.339844 C 107.28125 156.203125 109.109375 156.609375 110.554688 157.289062 L 110.78125 156.910156 C 111.414062 145.128906 123.027344 151.847656 127.742188 149.890625 C 128.472656 152.769531 128.800781 156.625 128.839844 160.152344 C 128.894531 165.441406 129.058594 168.8125 127.242188 170.746094 Z M 127.242188 170.746094 " fill-opacity="1" fill-rule="nonzero"/><path fill="#26b1d8" d="M 155.511719 194.238281 C 156.328125 196.472656 157.167969 199.085938 157.976562 202.148438 L 77.792969 202.148438 C 77.726562 196.5 77.976562 192.074219 79.996094 189.34375 C 81.679688 187.105469 84.058594 185.574219 86.667969 184.839844 L 107.738281 176.417969 C 107.738281 176.417969 107.851562 176.601562 108.0625 176.789062 C 109.964844 178.945312 112.683594 180.1875 115.542969 180.207031 C 118.40625 180.230469 121.136719 179.027344 123.074219 176.898438 C 123.082031 176.898438 123.085938 176.898438 123.085938 176.898438 L 147.667969 186.074219 L 147.667969 186.121094 C 151.191406 187.554688 154.160156 190.609375 155.511719 194.238281 Z M 316.78125 216.171875 C 309.988281 198.507812 307.546875 194.078125 302.847656 187.957031 C 301.582031 186.28125 299.921875 185.101562 298.085938 184.425781 L 298.082031 184.34375 L 276.605469 178.132812 L 276.5 174.820312 L 262.691406 174.867188 C 262.691406 174.867188 262.632812 178.121094 262.632812 178.128906 C 262.617188 178.855469 252.730469 181.507812 251.871094 181.792969 C 245.785156 183.8125 239.671875 185.726562 233.945312 188.609375 C 227.992188 191.613281 222.007812 194.554688 216.003906 197.453125 L 230.242188 221.476562 C 230.242188 221.476562 235.570312 219.515625 244.328125 215.234375 L 244.441406 225.320312 L 297.699219 225.320312 C 297.460938 224.621094 297.226562 223.929688 296.992188 223.242188 L 314.191406 217.097656 Z M 290.644531 92.972656 C 289.753906 91.785156 288.644531 90.824219 287.414062 90.085938 C 286.601562 89.601562 285.742188 89.210938 284.84375 88.933594 L 267.722656 82.085938 C 267.722656 82.085938 267.667969 82.167969 267.570312 82.277344 C 267.53125 82.324219 267.480469 82.371094 267.425781 82.421875 C 265.6875 84.394531 263.199219 85.53125 260.585938 85.550781 C 257.96875 85.566406 255.46875 84.46875 253.699219 82.523438 C 253.691406 82.523438 253.691406 82.523438 253.6875 82.523438 L 235.207031 89.570312 L 234.15625 89.96875 C 230.523438 91.082031 227.390625 94.089844 226.03125 97.730469 C 225.707031 98.566406 225.398438 99.535156 225.078125 100.507812 C 223.621094 105.039062 222.160156 110.945312 221.066406 118.761719 L 292.625 118.761719 C 292.082031 106.863281 293.949219 97.433594 290.644531 92.972656 Z M 265.871094 63.988281 C 265.757812 63.808594 265.515625 63.753906 265.339844 63.867188 L 261.089844 66.527344 C 260.777344 64.808594 259.261719 63.511719 257.480469 63.511719 C 255.523438 63.511719 253.917969 65.050781 253.8125 66.980469 C 253.503906 66.917969 253.140625 66.90625 252.78125 67.042969 C 252.699219 67.074219 252.621094 67.109375 252.546875 67.15625 C 252.144531 65.546875 250.683594 64.382812 248.988281 64.382812 C 248.480469 64.382812 247.980469 64.488281 247.503906 64.699219 C 246.171875 65.289062 245.3125 66.605469 245.3125 68.054688 C 245.3125 69.722656 246.449219 71.179688 248.078125 71.601562 C 248.414062 71.6875 248.707031 71.726562 248.988281 71.726562 C 250.972656 71.726562 252.609375 70.128906 252.660156 68.148438 C 252.757812 67.953125 252.886719 67.828125 253.058594 67.765625 C 253.335938 67.660156 253.664062 67.726562 253.859375 67.785156 C 254.148438 69.546875 255.679688 70.859375 257.480469 70.859375 C 259.414062 70.859375 261.027344 69.320312 261.144531 67.40625 L 265.730469 64.53125 L 265.804688 64.492188 L 265.820312 64.460938 C 265.941406 64.339844 265.96875 64.144531 265.871094 63.988281 Z M 248.988281 70.957031 C 248.738281 70.957031 248.480469 70.914062 248.175781 70.824219 C 246.945312 70.460938 246.085938 69.324219 246.085938 68.054688 C 246.085938 66.945312 246.714844 65.949219 247.726562 65.457031 C 248.136719 65.253906 248.5625 65.152344 248.988281 65.152344 C 250.589844 65.152344 251.890625 66.457031 251.890625 68.054688 C 251.890625 69.65625 250.589844 70.957031 248.988281 70.957031 Z M 257.480469 70.085938 C 255.878906 70.085938 254.578125 68.785156 254.578125 67.1875 C 254.578125 65.585938 255.878906 64.285156 257.480469 64.285156 C 259.078125 64.285156 260.378906 65.585938 260.378906 67.1875 C 260.378906 68.785156 259.078125 70.085938 257.480469 70.085938 Z M 257.480469 70.085938 " fill-opacity="1" fill-rule="nonzero"/><path fill="#26b1d8" d="M 155.511719 194.238281 C 156.328125 196.472656 157.167969 199.085938 157.976562 202.148438 L 77.792969 202.148438 C 77.726562 196.5 77.976562 192.074219 79.996094 189.34375 C 81.679688 187.105469 84.058594 185.574219 86.667969 184.839844 L 107.738281 176.417969 C 107.738281 176.417969 107.851562 176.601562 108.0625 176.789062 C 109.964844 178.945312 112.683594 180.1875 115.542969 180.207031 C 118.40625 180.230469 121.136719 179.027344 123.074219 176.898438 C 123.082031 176.898438 123.085938 176.898438 123.085938 176.898438 L 147.667969 186.074219 L 147.667969 186.121094 C 151.191406 187.554688 154.160156 190.609375 155.511719 194.238281 Z M 155.511719 194.238281 " fill-opacity="1" fill-rule="nonzero"/><path fill="#26b1d8" d="M 98.453125 32.40625 C 92.1875 32.40625 87.109375 37.484375 87.109375 43.75 C 87.109375 50.015625 92.1875 55.09375 98.453125 55.09375 C 104.71875 55.09375 109.800781 50.015625 109.800781 43.75 C 109.800781 37.484375 104.71875 32.40625 98.453125 32.40625 Z M 98.453125 53.3125 C 93.171875 53.3125 88.890625 49.03125 88.890625 43.75 C 88.890625 38.46875 93.171875 34.1875 98.453125 34.1875 C 103.734375 34.1875 108.015625 38.46875 108.015625 43.75 C 108.015625 49.03125 103.734375 53.3125 98.453125 53.3125 Z M 98.453125 53.3125 " fill-opacity="1" fill-rule="nonzero"/><path fill="#26b1d8" d="M 101.699219 44.96875 L 101.699219 43.058594 C 101.699219 41.585938 100.714844 40.339844 99.367188 39.945312 L 99.367188 39.179688 C 99.367188 38.683594 98.980469 38.265625 98.488281 38.246094 C 97.96875 38.226562 97.542969 38.644531 97.542969 39.160156 L 97.542969 39.945312 C 96.195312 40.339844 95.210938 41.585938 95.210938 43.0625 L 95.210938 44.96875 L 93.898438 46.707031 C 93.746094 46.910156 93.890625 47.195312 94.140625 47.195312 L 102.769531 47.195312 C 103.019531 47.195312 103.164062 46.910156 103.011719 46.707031 Z M 101.699219 44.96875 " fill-opacity="1" fill-rule="nonzero"/><path fill="#26b1d8" d="M 99.960938 47.746094 C 99.960938 48.578125 99.285156 49.253906 98.453125 49.253906 C 97.621094 49.253906 96.949219 48.578125 96.949219 47.746094 C 96.949219 47.738281 96.949219 47.734375 96.949219 47.726562 L 99.960938 47.726562 C 99.960938 47.734375 99.960938 47.738281 99.960938 47.746094 Z M 99.960938 47.746094 " fill-opacity="1" fill-rule="nonzero"/><g clip-path="url(#c26626d766)"><path fill="#26b1d8" d="M 336.339844 237.441406 C 330.933594 237.441406 326.550781 241.820312 326.550781 247.230469 C 326.550781 252.636719 330.933594 257.019531 336.339844 257.019531 C 341.746094 257.019531 346.128906 252.636719 346.128906 247.230469 C 346.128906 241.820312 341.746094 237.441406 336.339844 237.441406 Z M 336.339844 255.257812 C 331.90625 255.257812 328.3125 251.664062 328.3125 247.230469 C 328.3125 242.796875 331.90625 239.203125 336.339844 239.203125 C 340.773438 239.203125 344.367188 242.796875 344.367188 247.230469 C 344.367188 251.664062 340.773438 255.257812 336.339844 255.257812 Z M 336.339844 255.257812 " fill-opacity="1" fill-rule="nonzero"/></g><path fill="#26b1d8" d="M 335.085938 250.488281 L 332.078125 247.589844 C 331.761719 247.28125 331.75 246.777344 332.058594 246.460938 C 332.363281 246.140625 332.871094 246.132812 333.1875 246.4375 L 335.101562 248.289062 L 339.503906 244.183594 C 339.824219 243.882812 340.332031 243.902344 340.632812 244.222656 C 340.933594 244.546875 340.914062 245.050781 340.59375 245.351562 Z M 335.085938 250.488281 " fill-opacity="1" fill-rule="nonzero"/><g clip-path="url(#3408f61931)"><path fill="#293237" d="M 85.25 211.65625 L 74.238281 211.65625 L 72 208.519531 L 70.1875 211.65625 C 68.230469 211.65625 66.636719 213.246094 66.636719 215.207031 L 66.636719 221.324219 C 66.636719 223.28125 68.230469 224.875 70.1875 224.875 L 85.25 224.875 C 87.210938 224.875 88.804688 223.28125 88.804688 221.324219 L 88.804688 215.207031 C 88.804688 213.246094 87.210938 211.65625 85.25 211.65625 Z M 73.328125 219.949219 C 72.519531 219.949219 71.859375 219.292969 71.859375 218.480469 C 71.859375 217.667969 72.519531 217.011719 73.328125 217.011719 C 74.140625 217.011719 74.796875 217.667969 74.796875 218.480469 C 74.796875 219.292969 74.140625 219.949219 73.328125 219.949219 Z M 77.71875 219.949219 C 76.910156 219.949219 76.25 219.292969 76.25 218.480469 C 76.25 217.667969 76.910156 217.011719 77.71875 217.011719 C 78.53125 217.011719 79.1875 217.667969 79.1875 218.480469 C 79.1875 219.292969 78.53125 219.949219 77.71875 219.949219 Z M 82.109375 219.949219 C 81.300781 219.949219 80.640625 219.292969 80.640625 218.480469 C 80.640625 217.667969 81.300781 217.011719 82.109375 217.011719 C 82.921875 217.011719 83.578125 217.667969 83.578125 218.480469 C 83.578125 219.292969 82.921875 219.949219 82.109375 219.949219 Z M 253.011719 36.988281 L 264.023438 36.988281 L 266.261719 40.121094 L 268.070312 36.988281 C 270.03125 36.988281 271.625 35.394531 271.625 33.433594 L 271.625 27.316406 C 271.625 25.359375 270.03125 23.765625 268.070312 23.765625 L 253.011719 23.765625 C 251.046875 23.765625 249.457031 25.359375 249.457031 27.316406 L 249.457031 33.433594 C 249.457031 35.394531 251.046875 36.988281 253.011719 36.988281 Z M 264.929688 28.691406 C 265.742188 28.691406 266.398438 29.351562 266.398438 30.160156 C 266.398438 30.972656 265.742188 31.628906 264.929688 31.628906 C 264.121094 31.628906 263.464844 30.972656 263.464844 30.160156 C 263.464844 29.351562 264.121094 28.691406 264.929688 28.691406 Z M 260.542969 28.691406 C 261.351562 28.691406 262.007812 29.351562 262.007812 30.160156 C 262.007812 30.972656 261.351562 31.628906 260.542969 31.628906 C 259.730469 31.628906 259.074219 30.972656 259.074219 30.160156 C 259.074219 29.351562 259.730469 28.691406 260.542969 28.691406 Z M 256.152344 28.691406 C 256.960938 28.691406 257.621094 29.351562 257.621094 30.160156 C 257.621094 30.972656 256.960938 31.628906 256.152344 31.628906 C 255.339844 31.628906 254.683594 30.972656 254.683594 30.160156 C 254.683594 29.351562 255.339844 28.691406 256.152344 28.691406 Z M 126.898438 178.320312 L 127.527344 178.554688 C 125.078125 182.472656 120.738281 185.089844 115.789062 185.089844 C 110.617188 185.089844 106.105469 182.234375 103.726562 178.019531 L 104.347656 177.773438 C 106.621094 181.742188 110.894531 184.429688 115.789062 184.429688 C 120.457031 184.429688 124.554688 181.988281 126.898438 178.320312 Z M 281.128906 175.421875 C 277.589844 173.832031 275.820312 169.933594 276.777344 166.304688 C 277.867188 165.65625 280.558594 163.75 280.335938 162.617188 C 280.335938 162.617188 280.335938 162.617188 280.332031 162.621094 C 280.3125 162.503906 280.273438 162.386719 280.226562 162.265625 C 280.21875 162.25 280.210938 162.234375 280.207031 162.21875 C 280.152344 162.101562 280.089844 161.980469 280.007812 161.859375 C 279.996094 161.84375 279.984375 161.835938 279.972656 161.824219 C 279.203125 160.753906 277.6875 160.726562 276.382812 161.003906 C 275.527344 159.738281 274.339844 157.363281 272.875 152.910156 C 272.875 152.910156 267.648438 153.539062 262.230469 152.191406 C 262.230469 152.191406 266.800781 144.949219 274.910156 147.347656 C 280.3125 148.941406 283.367188 152.890625 282.757812 157.34375 L 289.257812 160.265625 C 293.199219 162.042969 294.953125 166.671875 293.179688 170.613281 C 291.40625 174.554688 285.066406 177.195312 281.128906 175.421875 Z M 247.675781 65.425781 L 248.230469 70.859375 C 248.230469 70.859375 246.0625 70.402344 246.0625 68.328125 C 246.0625 66.113281 247.675781 65.425781 247.675781 65.425781 Z M 308.269531 219.289062 L 294.261719 224.265625 C 294.226562 224.28125 294.191406 224.285156 294.152344 224.285156 C 294.101562 224.285156 294.054688 224.273438 294.007812 224.253906 C 293.929688 224.214844 293.867188 224.144531 293.839844 224.0625 L 286.835938 203.605469 C 286.777344 203.429688 286.867188 203.242188 287.042969 203.183594 C 287.214844 203.125 287.402344 203.21875 287.460938 203.390625 L 294.355469 223.53125 L 308.050781 218.667969 C 308.21875 218.605469 308.410156 218.695312 308.472656 218.871094 C 308.535156 219.042969 308.445312 219.230469 308.269531 219.289062 Z M 129.441406 148.074219 C 127.207031 154.605469 111.515625 143.167969 110.777344 156.90625 L 110.550781 157.289062 C 109.109375 156.605469 107.28125 156.199219 106.121094 157.339844 C 104.386719 159.039062 106.21875 161.335938 107.824219 162.433594 L 107.730469 168.667969 C 97.554688 166.003906 100.707031 147.71875 100.707031 147.71875 C 101.128906 141.816406 104.546875 139.214844 110.496094 139.417969 C 110.496094 139.417969 123.980469 139.382812 126.976562 139.445312 C 131.238281 139.53125 131.109375 143.214844 129.441406 148.074219 Z M 163.847656 93.816406 L 143.726562 93.816406 C 141.582031 93.816406 139.835938 95.558594 139.835938 97.707031 L 139.835938 108.34375 C 139.835938 110.492188 141.582031 112.234375 143.726562 112.234375 L 159.414062 112.234375 L 161.863281 115.667969 L 163.847656 112.234375 C 165.992188 112.234375 167.738281 110.492188 167.738281 108.34375 L 167.738281 97.707031 C 167.738281 95.5625 165.996094 93.816406 163.847656 93.816406 Z M 159.046875 106.152344 C 158.710938 106.566406 158.265625 107.117188 158.265625 107.117188 C 158.253906 107.132812 158.246094 107.140625 158.234375 107.15625 C 157.609375 107.929688 156.480469 108.046875 155.707031 107.421875 C 153.796875 105.878906 150.386719 103.121094 148.472656 101.578125 C 147.710938 100.960938 147.585938 99.851562 148.183594 99.082031 L 148.179688 99.078125 C 148.179688 99.078125 148.1875 99.070312 148.195312 99.0625 C 148.199219 99.058594 148.199219 99.050781 148.203125 99.046875 C 148.308594 98.917969 148.378906 98.832031 148.378906 98.832031 C 148.535156 98.640625 148.753906 98.371094 148.945312 98.132812 C 149.050781 98.003906 149.203125 97.921875 149.367188 97.90625 C 149.535156 97.886719 149.699219 97.933594 149.832031 98.039062 L 152.128906 99.898438 C 152.257812 100.003906 152.339844 100.15625 152.359375 100.320312 C 152.375 100.488281 152.328125 100.652344 152.222656 100.785156 C 152.03125 101.019531 151.8125 101.289062 151.65625 101.480469 L 155.132812 104.292969 C 155.292969 104.09375 155.554688 103.773438 155.773438 103.503906 C 155.871094 103.382812 156.011719 103.304688 156.167969 103.289062 C 156.324219 103.269531 156.480469 103.316406 156.601562 103.414062 C 157.226562 103.921875 158.335938 104.820312 158.960938 105.324219 C 159.082031 105.421875 159.160156 105.5625 159.175781 105.71875 C 159.191406 105.875 159.144531 106.03125 159.046875 106.152344 Z M 105.738281 195.574219 L 105.738281 202.148438 L 105.078125 202.148438 L 105.078125 198.363281 L 93.695312 198.363281 L 93.695312 202.148438 L 93.035156 202.148438 L 93.035156 195.574219 C 93.035156 195.390625 93.183594 195.242188 93.367188 195.242188 L 105.40625 195.242188 C 105.589844 195.242188 105.738281 195.390625 105.738281 195.574219 Z M 244.773438 203.683594 L 244.773438 225.320312 C 244.773438 225.503906 244.625 225.652344 244.441406 225.652344 C 244.261719 225.652344 244.113281 225.503906 244.113281 225.320312 L 244.113281 203.683594 C 244.113281 203.5 244.261719 203.351562 244.441406 203.351562 C 244.625 203.351562 244.773438 203.5 244.773438 203.683594 Z M 265.277344 64.199219 C 263.890625 63.738281 262.328125 63.082031 261.253906 62.113281 C 259.117188 60.195312 257.734375 57.363281 257.734375 57.363281 C 257.734375 57.363281 255.59375 59.109375 253.082031 60.28125 C 251.105469 61.207031 248.886719 61.773438 247.589844 62.058594 C 247.5625 62.984375 247.566406 63.679688 247.601562 64.65625 C 246.0625 65.269531 245.359375 66.730469 245.359375 68.128906 C 245.359375 69.722656 246.523438 71.320312 248.214844 71.628906 C 248.570312 74.902344 248.921875 76.839844 250.390625 78.089844 C 251.28125 78.847656 252.390625 79.425781 253.710938 79.667969 L 253.691406 82.523438 C 253.691406 82.523438 253.6875 82.523438 253.6875 82.523438 L 244.859375 85.890625 L 245.085938 118.65625 C 245.085938 118.835938 244.941406 118.988281 244.757812 118.988281 C 244.757812 118.988281 244.757812 118.988281 244.753906 118.988281 C 244.574219 118.988281 244.425781 118.839844 244.425781 118.660156 L 244.203125 86.140625 L 243.886719 86.261719 L 235.207031 89.570312 C 234.613281 86.464844 235.097656 81.609375 240.082031 75.226562 C 242.242188 72.457031 244.179688 67.992188 246.074219 63.300781 C 246.222656 62.933594 246.359375 62.597656 246.492188 62.277344 C 246.488281 62.277344 246.476562 62.277344 246.476562 62.277344 C 246.476562 62.277344 247.460938 58.078125 249.351562 54.460938 C 253.777344 45.976562 270.226562 48.121094 274.210938 56.183594 C 274.617188 57 274.90625 57.796875 275.121094 58.574219 C 275.714844 60.15625 276.96875 63.539062 278.144531 67.003906 C 279.773438 71.792969 282.472656 73.21875 284.625 75.996094 C 287.855469 80.167969 287.839844 86.25 287.414062 90.082031 C 286.605469 89.597656 285.742188 89.210938 284.84375 88.929688 L 278.621094 86.441406 L 278.617188 86.464844 L 277.972656 86.199219 L 277.976562 86.183594 L 276.921875 85.761719 L 275.558594 118.667969 C 275.550781 118.847656 275.40625 118.984375 275.230469 118.984375 C 275.226562 118.984375 275.21875 118.984375 275.214844 118.984375 C 275.035156 118.976562 274.890625 118.824219 274.898438 118.640625 L 276.269531 85.5 L 267.726562 82.082031 C 267.726562 82.082031 267.667969 82.164062 267.570312 82.273438 L 267.414062 73 L 267.351562 69.476562 C 268.871094 68.570312 270.894531 66.296875 269.203125 64.636719 C 269.140625 64.574219 269.074219 64.535156 269.007812 64.484375 C 268.105469 63.777344 266.851562 63.917969 265.734375 64.339844 C 265.695312 64.328125 265.65625 64.316406 265.621094 64.304688 C 265.683594 64.265625 265.703125 64.183594 265.660156 64.117188 C 265.621094 64.054688 265.535156 64.035156 265.46875 64.074219 Z M 265.277344 64.199219 " fill-opacity="1" fill-rule="nonzero"/></g></svg>