<svg xmlns="http://www.w3.org/2000/svg" xmlns:xlink="http://www.w3.org/1999/xlink" width="540" zoomAndPan="magnify" viewBox="0 0 404.88 299.999988" height="400" preserveAspectRatio="xMidYMid meet" version="1.0"><defs><clipPath id="2ac11c0544"><path d="M 352 133 L 378.507812 133 L 378.507812 168 L 352 168 Z M 352 133 " clip-rule="nonzero"/></clipPath><clipPath id="bfc35ac6e0"><path d="M 26.113281 14.066406 L 368 14.066406 L 368 286.238281 L 26.113281 286.238281 Z M 26.113281 14.066406 " clip-rule="nonzero"/></clipPath><clipPath id="19704a3257"><path d="M 63 34 L 378.507812 34 L 378.507812 286 L 63 286 Z M 63 34 " clip-rule="nonzero"/></clipPath><clipPath id="b522898c3f"><path d="M 47 45 L 378.507812 45 L 378.507812 286.238281 L 47 286.238281 Z M 47 45 " clip-rule="nonzero"/></clipPath><clipPath id="cea1ba88c7"><path d="M 26.113281 14.066406 L 368 14.066406 L 368 285 L 26.113281 285 Z M 26.113281 14.066406 " clip-rule="nonzero"/></clipPath></defs><g clip-path="url(#2ac11c0544)"><path fill="#f5f5f5" d="M 378.484375 136.148438 L 378.113281 136.617188 C 377.722656 136.613281 376.257812 136.632812 375.632812 137.128906 C 371.714844 140.265625 372.542969 145.359375 371.566406 143.210938 C 368.34375 136.113281 364.261719 134.164062 362.398438 133.761719 L 361.359375 134.570312 L 360.394531 133.605469 L 352.828125 148.25 C 352.828125 148.25 357.984375 153.675781 361.347656 157.210938 C 361.042969 158.058594 360.683594 159.210938 360.074219 160.570312 C 359.816406 160.921875 359.492188 161.367188 359.148438 161.847656 L 364.324219 167.136719 L 365.789062 165.292969 L 365.773438 165.273438 C 366.054688 164.984375 366.367188 164.628906 366.730469 164.167969 C 368.359375 162.113281 369.042969 160.558594 369.449219 159.285156 C 369.582031 158.859375 369.335938 158.542969 369.078125 158.53125 L 369.601562 157.789062 C 369.636719 157.738281 369.628906 157.683594 369.601562 157.632812 C 369.621094 157.601562 369.636719 157.578125 369.65625 157.546875 C 369.71875 157.4375 369.769531 157.339844 369.8125 157.25 C 372.390625 153.234375 375.699219 148.042969 375.699219 148.042969 Z M 367.617188 151.378906 L 365.824219 149.597656 L 367.617188 151.378906 L 370.601562 146.765625 Z M 363.226562 159.191406 C 363.257812 159.222656 363.285156 159.253906 363.3125 159.285156 C 363.277344 159.328125 363.238281 159.378906 363.203125 159.421875 C 363.210938 159.34375 363.21875 159.265625 363.226562 159.191406 Z M 374.875 147.5 L 378.214844 136.621094 Z M 374.875 147.5 " fill-opacity="1" fill-rule="nonzero"/></g><path fill="#f5f5f5" d="M 230.445312 51.144531 C 230.402344 51.753906 231.066406 52.15625 231.582031 51.828125 L 236.699219 48.570312 C 237.957031 48.910156 239.285156 49.09375 240.664062 49.09375 C 248.195312 49.09375 254.300781 43.617188 254.300781 36.855469 C 254.300781 30.097656 248.195312 24.617188 240.664062 24.617188 C 233.132812 24.617188 227.027344 30.097656 227.027344 36.855469 C 227.027344 40.171875 228.496094 43.175781 230.878906 45.378906 Z M 230.445312 51.144531 " fill-opacity="1" fill-rule="nonzero"/><g clip-path="url(#bfc35ac6e0)"><path fill="#f5f5f5" d="M 360.351562 277.363281 C 357.921875 277.175781 353.550781 277.839844 351.382812 273.539062 C 350.691406 272.171875 350.503906 270.148438 350.511719 268.265625 L 354.71875 267.992188 C 354.71875 267.992188 351.433594 253.640625 348.679688 243.96875 C 347.78125 240.824219 346.855469 237.558594 345.972656 234.433594 C 345.933594 233.714844 345.816406 232.988281 345.601562 232.265625 C 343.347656 224.699219 338.691406 207.144531 335.140625 194.183594 L 301.421875 188.125 C 298.492188 199.433594 294.546875 215.742188 291.882812 225.757812 L 167.847656 225.757812 L 167.847656 225.761719 L 107.867188 225.761719 L 107.867188 225.707031 L 103.753906 225.707031 C 103.890625 225.648438 104.027344 225.585938 104.160156 225.519531 C 107.207031 224.175781 109.53125 221.347656 110.066406 217.800781 C 110.148438 217.238281 110.179688 216.683594 110.171875 216.132812 L 110.320312 216.132812 L 110.320312 212.175781 L 113.617188 212.175781 L 113.617188 225.753906 L 283.964844 225.753906 L 283.964844 224.726562 L 283.808594 224.726562 L 283.808594 223.578125 L 283.863281 223.578125 L 283.863281 223.269531 L 283.808594 223.269531 L 283.808594 221.539062 L 283.863281 221.539062 L 283.863281 221.230469 L 283.808594 221.230469 L 283.808594 219.5 L 283.863281 219.5 L 283.863281 219.1875 L 283.808594 219.1875 L 283.808594 217.457031 L 283.863281 217.457031 L 283.863281 217.148438 L 283.808594 217.148438 L 283.808594 215.417969 L 283.863281 215.417969 L 283.863281 215.105469 L 283.808594 215.105469 L 283.808594 213.375 L 283.863281 213.375 L 283.863281 213.066406 L 283.808594 213.066406 L 283.808594 212.523438 L 284.335938 212.523438 L 284.335938 212.175781 L 295.078125 212.175781 L 295.078125 209.128906 L 293.644531 209.128906 L 293.644531 179.519531 L 295.078125 179.519531 L 295.078125 176.476562 L 283.207031 176.476562 L 283.207031 174.058594 L 280.804688 174.058594 L 280.804688 159.78125 C 283.648438 162.902344 287.285156 166.898438 289.929688 169.800781 C 291.953125 172.019531 295.285156 172.4375 297.789062 170.78125 C 298 170.640625 298.199219 170.492188 298.390625 170.332031 C 300.824219 168.566406 303.859375 166.300781 307 163.957031 L 305.765625 168.242188 L 299.386719 187.757812 L 336.144531 194.359375 L 338.15625 179.566406 C 338.191406 179.585938 338.230469 179.597656 338.273438 179.605469 C 338.285156 179.605469 338.296875 179.605469 338.3125 179.605469 C 338.347656 179.605469 338.386719 179.597656 338.421875 179.585938 C 339.839844 183.683594 342.660156 187.425781 346.746094 186.863281 C 346.78125 186.863281 346.816406 186.867188 346.851562 186.863281 C 348.570312 186.765625 350.179688 185.96875 351.300781 184.65625 C 356.734375 178.324219 365.394531 168.234375 365.394531 168.234375 L 357.433594 160.09375 C 357.433594 160.09375 353.753906 163.902344 349.550781 168.253906 C 347.476562 160.097656 345.628906 153.699219 344.550781 151.558594 C 344.078125 150.601562 343.371094 149.816406 342.53125 149.214844 L 342.535156 149.191406 L 334.441406 143.769531 L 335.273438 141.660156 L 334.945312 141.5 L 335.265625 140.730469 C 336.246094 140.929688 337.140625 140.792969 337.902344 140.460938 C 339.246094 139.867188 339.898438 138.105469 341.015625 135.390625 C 341.761719 133.574219 342.429688 131.535156 342.679688 129.902344 C 342.578125 129.902344 342.472656 129.890625 342.367188 129.875 C 342.472656 129.890625 342.578125 129.902344 342.679688 129.902344 C 343.152344 129.910156 343.582031 129.753906 343.945312 129.347656 C 345.851562 127.222656 346.71875 125.367188 344.5625 124.394531 C 343.050781 123.710938 336.167969 120.792969 336.167969 120.792969 C 333.179688 119.394531 330.875 119.980469 329.378906 122.90625 C 325.285156 123.945312 326.390625 128.640625 326.390625 128.640625 C 323.988281 132.101562 328.40625 135.148438 328.40625 135.148438 L 328.800781 134.257812 L 328.542969 134.839844 L 327.3125 137.804688 L 333.316406 140.714844 L 326.742188 137.53125 L 324.628906 141.746094 L 313.441406 143.011719 L 313.398438 143.183594 C 312.484375 143.398438 311.621094 143.8125 310.878906 144.414062 C 306.507812 147.960938 300.070312 153.183594 294.855469 157.414062 C 289.429688 152.714844 283.828125 147.863281 283.828125 147.863281 L 283.207031 148.449219 L 283.207031 147.210938 L 280.957031 147.210938 C 280.949219 147.1875 280.9375 147.171875 280.929688 147.148438 C 280.109375 145.367188 279.503906 143.007812 278.847656 142.117188 C 278.582031 141.777344 278.125 141.8125 277.789062 142.039062 C 277.191406 142.429688 277.679688 145.792969 277.679688 145.792969 C 276.160156 144.574219 273.496094 141.824219 273.128906 141.574219 C 272.429688 141.121094 271.710938 141.953125 272.175781 142.574219 C 272.429688 142.902344 273.082031 143.617188 273.644531 144.226562 L 271.777344 142.527344 C 271.722656 142.480469 271.652344 142.484375 271.59375 142.519531 C 271.507812 142.457031 271.425781 142.398438 271.351562 142.359375 C 270.675781 142 270.007812 142.699219 270.398438 143.210938 C 270.542969 143.40625 270.664062 143.558594 270.757812 143.679688 C 270.742188 143.6875 270.722656 143.6875 270.710938 143.699219 C 270.691406 143.71875 270.691406 143.746094 270.683594 143.769531 C 270.515625 143.664062 270.289062 143.519531 270.097656 143.554688 C 269.875 143.589844 269.640625 143.847656 269.601562 144.082031 C 269.582031 144.261719 269.683594 144.460938 269.902344 144.707031 C 269.921875 144.734375 269.945312 144.761719 269.96875 144.789062 C 269.910156 144.847656 269.910156 144.945312 269.96875 145.003906 L 270.5 145.535156 C 270.46875 145.515625 270.4375 145.488281 270.40625 145.46875 C 270.046875 145.230469 269.378906 145.730469 269.699219 146.234375 C 269.859375 146.472656 270.097656 146.8125 270.390625 147.210938 L 251.824219 147.210938 C 251.839844 147.117188 251.84375 147.019531 251.832031 146.921875 C 251.664062 145.484375 251.023438 143.21875 248.707031 142.1875 C 245.179688 140.613281 242.835938 138.996094 241.789062 136.785156 C 241.300781 135.75 240.246094 135.253906 239.160156 135.171875 C 239.042969 134.726562 238.933594 134.3125 238.835938 133.917969 L 235.914062 134 L 239.289062 133.90625 L 231.777344 87.410156 C 231.089844 84.125 228.28125 81.691406 225.210938 81.019531 C 225.15625 80.917969 225.050781 80.84375 224.929688 80.84375 L 224.636719 80.84375 C 224.753906 80.71875 224.839844 80.566406 224.863281 80.394531 L 228.035156 55.503906 C 228.085938 55.101562 227.800781 54.773438 227.402344 54.773438 L 192.960938 54.773438 C 192.558594 54.773438 192.191406 55.101562 192.140625 55.503906 L 189.585938 75.539062 L 189.75 74.242188 L 191.722656 58.777344 L 185.960938 47.453125 C 184.523438 43.519531 181.304688 40.488281 177.3125 39.3125 C 177.28125 38.027344 176.3125 36.953125 175.035156 36.804688 L 175.066406 36.382812 C 175.195312 36.351562 175.324219 36.324219 175.453125 36.285156 C 177.824219 35.554688 179.371094 33.40625 179.460938 31.054688 L 179.625 26.578125 C 180.191406 24.945312 181.3125 21.550781 181.667969 19.289062 C 182.148438 16.222656 175.582031 15.253906 170.183594 15.496094 C 170.988281 14.164062 168.933594 15.011719 166.152344 17.390625 C 163.976562 16.90625 162.566406 18.359375 162.769531 23.003906 C 162.90625 26.132812 164.488281 29.28125 165.902344 31.53125 L 166.089844 30.375 L 165.0625 36.695312 C 161.578125 36.949219 158.136719 37.558594 154.761719 38.664062 C 153.1875 39.183594 152.277344 40.828125 152.703125 42.429688 L 152.980469 43.488281 C 152.496094 43.964844 152.074219 44.519531 151.726562 45.125 L 129.222656 45.125 L 147.320312 139.96875 L 147.320312 139.972656 L 147.730469 147.21875 L 131.335938 147.21875 L 131.335938 147.078125 L 123.84375 147.078125 L 123.84375 147.21875 L 116.359375 147.21875 L 116.359375 176.484375 L 115.730469 176.484375 C 114.203125 173.527344 112.75 170.714844 111.546875 168.386719 C 110.71875 166.785156 109.285156 165.585938 107.574219 165.0625 C 107.492188 165.035156 107.410156 165.019531 107.332031 165 L 96.011719 161.15625 L 95.804688 161.160156 C 95.867188 160.9375 95.914062 160.707031 95.914062 160.476562 L 95.554688 155.308594 C 95.6875 155.371094 95.835938 155.40625 95.996094 155.40625 C 97.507812 155.390625 98.730469 154.578125 99.097656 153.3125 C 99.253906 152.761719 99.277344 152.222656 99.203125 151.722656 C 99.851562 150.320312 100.128906 148.792969 100.046875 147.289062 C 102.753906 148.90625 106.296875 148.234375 108.207031 145.644531 C 110.238281 142.882812 109.65625 138.992188 106.902344 136.957031 C 104.144531 134.917969 100.265625 135.503906 98.230469 138.261719 L 96.5625 140.527344 C 92.6875 137.429688 87.035156 137.902344 83.75 141.683594 C 83.792969 142.007812 83.863281 142.3125 83.949219 142.601562 C 83.378906 143.515625 82.984375 144.5625 82.824219 145.703125 L 81.675781 153.941406 C 81.304688 156.628906 82.632812 159.382812 85.175781 160.691406 C 85.625 160.921875 86.089844 161.089844 86.558594 161.207031 C 86.566406 161.273438 86.574219 161.332031 86.582031 161.394531 L 85.867188 161.410156 L 76.75 164.929688 C 73.988281 165.183594 71.183594 166.996094 70.160156 169.472656 C 69.550781 170.980469 68.804688 174.273438 67.960938 178.730469 C 67.960938 178.730469 67.960938 178.730469 67.964844 178.730469 C 66.289062 178.507812 65.171875 178.40625 65.171875 178.40625 L 64.273438 179.617188 L 62.835938 179.300781 L 64.585938 195.484375 L 63.484375 185.3125 C 61.285156 183.425781 59.789062 182.136719 59.789062 182.136719 L 58.59375 183.605469 C 57.507812 182.832031 56.765625 182.316406 56.511719 182.140625 C 55.273438 180.574219 54.101562 178.480469 53.238281 177.78125 C 52.882812 177.507812 52.433594 177.664062 52.152344 177.976562 C 51.65625 178.527344 53.015625 181.78125 53.015625 181.78125 C 51.171875 180.949219 47.785156 178.878906 47.351562 178.722656 C 46.53125 178.453125 46.019531 179.476562 46.652344 179.976562 C 47.003906 180.246094 47.878906 180.820312 48.609375 181.289062 L 46.238281 180.039062 C 46.175781 180.007812 46.105469 180.027344 46.058594 180.078125 C 45.953125 180.035156 45.855469 179.996094 45.769531 179.976562 C 44.996094 179.789062 44.507812 180.667969 45.03125 181.082031 C 45.226562 181.242188 45.390625 181.363281 45.515625 181.460938 C 45.503906 181.472656 45.484375 181.476562 45.476562 181.492188 C 45.460938 181.515625 45.46875 181.542969 45.46875 181.570312 C 45.269531 181.503906 45.003906 181.417969 44.820312 181.503906 C 44.601562 181.597656 44.4375 181.917969 44.453125 182.164062 C 44.480469 182.347656 44.636719 182.523438 44.917969 182.710938 C 44.949219 182.734375 44.980469 182.757812 45.011719 182.777344 C 44.96875 182.851562 44.992188 182.945312 45.066406 182.988281 L 45.765625 183.402344 C 45.71875 183.382812 45.671875 183.363281 45.621094 183.34375 C 45.199219 183.199219 44.660156 183.875 45.113281 184.296875 C 45.992188 185.078125 48.449219 187.109375 50.746094 188.292969 C 51.570312 188.722656 52.199219 188.960938 52.703125 189.082031 C 52.949219 189.351562 53.214844 189.640625 53.472656 189.917969 L 56.101562 186.671875 L 52.765625 190.785156 C 52.765625 190.785156 57.742188 195.601562 62.707031 200.410156 C 60.351562 200.050781 58.179688 199.71875 56.308594 199.4375 C 50.832031 198.605469 45.71875 202.386719 44.886719 207.894531 C 44.667969 209.335938 44.773438 210.75 45.132812 212.074219 C 45.238281 212.632812 45.378906 213.1875 45.578125 213.726562 C 46.269531 215.609375 47.058594 217.769531 47.890625 220.082031 C 47.8125 220.039062 47.714844 220.023438 47.621094 220.058594 C 47.449219 220.121094 47.363281 220.3125 47.425781 220.484375 L 58.871094 251.910156 L 47.59375 220.9375 C 47.367188 221.414062 47.164062 221.902344 47.015625 222.414062 C 46.714844 223.09375 46.472656 223.800781 46.308594 224.542969 C 45.078125 230.15625 43.269531 238.074219 41.589844 245.382812 C 39.253906 255.554688 36.96875 265.34375 36.96875 265.34375 L 49.148438 268.09375 L 42.695312 266.636719 C 42.308594 268.628906 41.84375 270.03125 41.25 271.203125 C 41.253906 271.203125 41.253906 271.203125 41.253906 271.203125 C 39.316406 273.21875 34.511719 275.578125 30.824219 276.976562 C 30.261719 277.1875 29.726562 277.378906 29.234375 277.542969 C 27.058594 278.261719 26.433594 279.261719 26.207031 280.257812 C 26.089844 280.785156 26.464844 281.292969 27 281.34375 L 49.382812 283.378906 C 49.847656 283.421875 50.265625 283.097656 50.34375 282.636719 C 50.40625 282.261719 50.476562 281.765625 50.542969 281.1875 C 50.757812 279.296875 50.902344 276.515625 50.335938 274.023438 C 50.335938 274.023438 50.335938 274.027344 50.335938 274.027344 C 50.476562 272.378906 50.824219 270.34375 51.179688 268.554688 L 55.851562 269.609375 C 55.851562 269.609375 56.519531 266.742188 57.285156 263.445312 C 58.011719 260.304688 58.996094 256.066406 60.050781 251.480469 L 68.40625 248.4375 L 64.019531 250.035156 C 64.09375 250.214844 64.160156 250.390625 64.242188 250.574219 C 66.34375 254.800781 67.1875 257.3125 67.417969 259.507812 C 67.417969 259.503906 67.417969 259.503906 67.417969 259.503906 C 66.855469 262.417969 63.933594 267.296875 61.453125 270.667969 C 61.074219 271.179688 60.707031 271.660156 60.359375 272.089844 C 58.835938 273.988281 58.855469 275.238281 59.226562 276.257812 C 59.425781 276.792969 60.050781 277.03125 60.554688 276.765625 L 78.417969 267.363281 L 78.417969 284.621094 L 78.339844 284.621094 L 78.339844 286.222656 L 312.367188 286.222656 L 312.367188 284.621094 L 312.359375 284.621094 L 312.359375 266.558594 L 312.367188 266.558594 L 312.367188 264.957031 L 302.058594 264.957031 C 302.714844 262.902344 303.753906 259.613281 304.339844 257.570312 C 305.746094 252.660156 307.203125 247.613281 308.683594 242.375 C 309.671875 238.882812 310.675781 235.308594 311.683594 231.632812 C 311.699219 231.578125 311.703125 231.523438 311.71875 231.46875 C 312.058594 230.328125 312.367188 229.292969 312.570312 228.617188 C 314.152344 223.378906 316.269531 214.515625 318.160156 206.25 L 318.53125 207.527344 C 318.574219 207.671875 318.707031 207.765625 318.851562 207.765625 C 318.804688 207.765625 318.769531 207.742188 318.726562 207.726562 C 319.039062 208.863281 319.328125 209.875 319.570312 210.6875 L 327.167969 236.46875 C 329.644531 245.28125 332.699219 255.949219 334.472656 262.128906 C 335.375 265.265625 336.496094 269.171875 336.496094 269.171875 L 339.894531 268.949219 L 339.265625 284.945312 L 367.582031 281.28125 C 367.582031 281.28125 366.195312 277.820312 360.351562 277.363281 Z M 340.894531 129.355469 C 340.96875 129.390625 341.042969 129.425781 341.117188 129.460938 C 341.042969 129.425781 340.96875 129.390625 340.894531 129.355469 Z M 340.558594 129.179688 C 340.605469 129.207031 340.652344 129.230469 340.699219 129.253906 C 340.652344 129.230469 340.605469 129.207031 340.558594 129.179688 Z M 342.039062 129.804688 C 342.113281 129.824219 342.1875 129.84375 342.265625 129.855469 C 342.1875 129.84375 342.113281 129.828125 342.039062 129.804688 Z M 341.242188 129.519531 C 341.355469 129.570312 341.46875 129.617188 341.578125 129.65625 C 341.46875 129.617188 341.355469 129.570312 341.242188 129.519531 Z M 341.6875 129.695312 C 341.765625 129.722656 341.84375 129.75 341.917969 129.773438 C 341.84375 129.75 341.765625 129.722656 341.6875 129.695312 Z M 335.425781 127.226562 C 335.402344 127.230469 335.382812 127.230469 335.359375 127.234375 C 335.382812 127.234375 335.402344 127.230469 335.421875 127.226562 C 335.421875 127.226562 335.425781 127.226562 335.425781 127.226562 Z M 335.035156 127.300781 C 335.011719 127.304688 334.984375 127.3125 334.957031 127.320312 C 334.984375 127.3125 335.011719 127.304688 335.035156 127.300781 Z M 334.167969 127.699219 C 334.164062 127.699219 334.160156 127.703125 334.15625 127.707031 C 334.160156 127.703125 334.164062 127.699219 334.167969 127.699219 Z M 333.890625 127.90625 C 333.855469 127.9375 333.824219 127.96875 333.789062 128 C 333.789062 128 333.789062 127.996094 333.789062 127.996094 C 333.824219 127.96875 333.859375 127.9375 333.890625 127.90625 Z M 333.574219 128.207031 C 333.578125 128.207031 333.578125 128.207031 333.574219 128.207031 C 333.5625 128.21875 333.550781 128.234375 333.539062 128.25 C 333.550781 128.234375 333.5625 128.21875 333.574219 128.207031 Z M 333.1875 128.675781 C 333.167969 128.703125 333.148438 128.726562 333.128906 128.757812 C 333.128906 128.757812 333.128906 128.757812 333.128906 128.753906 C 333.148438 128.726562 333.167969 128.703125 333.1875 128.675781 Z M 332.914062 129.078125 C 332.917969 129.078125 332.917969 129.074219 332.917969 129.074219 C 332.882812 129.128906 332.847656 129.179688 332.8125 129.238281 C 332.847656 129.183594 332.882812 129.132812 332.914062 129.078125 Z M 47.984375 220.152344 C 48.011719 220.183594 48.03125 220.214844 48.046875 220.257812 C 48.03125 220.21875 48.007812 220.183594 47.984375 220.152344 Z M 247.640625 271.558594 L 247.640625 271.59375 L 78.476562 271.558594 Z M 64.976562 186.027344 C 65 186.003906 65.035156 186.007812 65.066406 186.003906 L 65.40625 187.476562 L 65.695312 189.789062 L 65.949219 189.84375 L 66.023438 190.175781 L 65.523438 190.066406 C 65.457031 190.050781 65.410156 190 65.402344 189.933594 L 64.925781 186.160156 C 64.921875 186.109375 64.941406 186.0625 64.976562 186.027344 Z M 77.199219 180.46875 C 77.15625 180.457031 77.109375 180.445312 77.0625 180.433594 C 77.109375 180.445312 77.15625 180.457031 77.199219 180.46875 Z M 94.367188 149.105469 C 94.359375 148.828125 94.359375 148.570312 94.378906 148.34375 C 94.375 148.367188 94.375 148.394531 94.375 148.417969 C 94.359375 148.625 94.359375 148.859375 94.367188 149.105469 Z M 94.378906 149.386719 C 94.382812 149.46875 94.394531 149.554688 94.402344 149.636719 C 94.394531 149.554688 94.382812 149.46875 94.378906 149.386719 Z M 94.441406 149.964844 C 94.457031 150.046875 94.472656 150.128906 94.488281 150.214844 C 94.472656 150.128906 94.457031 150.046875 94.441406 149.964844 Z M 94.5625 150.5625 C 94.578125 150.644531 94.601562 150.726562 94.625 150.808594 C 94.601562 150.726562 94.578125 150.648438 94.5625 150.5625 Z M 94.738281 151.175781 C 94.765625 151.25 94.792969 151.328125 94.820312 151.40625 C 94.792969 151.328125 94.765625 151.253906 94.738281 151.175781 Z M 92.164062 164.417969 C 92.09375 164.445312 92.019531 164.46875 91.949219 164.492188 C 92.019531 164.46875 92.09375 164.445312 92.164062 164.417969 Z M 91.441406 147.546875 C 91.585938 147.574219 91.730469 147.597656 91.875 147.621094 C 91.730469 147.597656 91.585938 147.574219 91.441406 147.546875 Z M 91.703125 164.566406 C 91.625 164.589844 91.542969 164.609375 91.464844 164.628906 C 91.542969 164.609375 91.625 164.589844 91.703125 164.566406 Z M 91.242188 164.683594 C 91.15625 164.699219 91.066406 164.714844 90.980469 164.726562 C 91.066406 164.714844 91.15625 164.699219 91.242188 164.683594 Z M 88.070312 164.21875 C 88 164.179688 87.921875 164.144531 87.855469 164.097656 C 87.921875 164.144531 88 164.179688 88.070312 164.21875 Z M 87.449219 146.3125 C 87.566406 146.367188 87.683594 146.425781 87.804688 146.476562 C 87.683594 146.425781 87.566406 146.367188 87.449219 146.3125 Z M 87.539062 163.8125 C 87.5 163.773438 87.453125 163.738281 87.414062 163.699219 C 87.453125 163.738281 87.496094 163.773438 87.539062 163.8125 Z M 86.867188 162.746094 C 86.859375 162.722656 86.847656 162.699219 86.835938 162.675781 C 86.847656 162.703125 86.855469 162.722656 86.867188 162.746094 Z M 86.730469 145.921875 C 86.839844 145.988281 86.945312 146.050781 87.058594 146.113281 C 86.945312 146.050781 86.839844 145.988281 86.730469 145.921875 Z M 87.144531 163.320312 C 87.125 163.285156 87.097656 163.257812 87.078125 163.222656 C 87.097656 163.257812 87.125 163.289062 87.144531 163.320312 Z M 88.414062 164.414062 C 88.527344 164.460938 88.660156 164.496094 88.785156 164.535156 C 88.660156 164.496094 88.527344 164.460938 88.414062 164.414062 Z M 89.105469 164.640625 C 89.359375 164.703125 89.636719 164.75 89.941406 164.777344 C 90.074219 164.789062 90.210938 164.792969 90.355469 164.789062 C 90.210938 164.792969 90.074219 164.789062 89.941406 164.777344 C 89.636719 164.75 89.359375 164.703125 89.105469 164.640625 Z M 219.933594 142.578125 C 219.777344 142.40625 219.617188 142.234375 219.429688 142.070312 C 218.636719 141.378906 218.164062 140.691406 217.796875 139.96875 L 219.789062 139.96875 Z M 213.652344 85.867188 C 213.640625 85.816406 213.625 85.769531 213.613281 85.722656 C 213.625 85.769531 213.640625 85.816406 213.652344 85.867188 Z M 213.507812 85.371094 C 213.5 85.335938 213.488281 85.300781 213.476562 85.269531 C 213.488281 85.300781 213.5 85.335938 213.507812 85.371094 Z M 213.3125 84.84375 C 213.292969 84.804688 213.273438 84.761719 213.253906 84.71875 C 213.273438 84.761719 213.292969 84.804688 213.3125 84.84375 Z M 213.085938 84.386719 C 213.070312 84.351562 213.050781 84.3125 213.03125 84.277344 C 213.050781 84.3125 213.070312 84.351562 213.085938 84.386719 Z M 212.773438 83.871094 C 212.75 83.839844 212.726562 83.804688 212.699219 83.773438 C 212.726562 83.804688 212.75 83.839844 212.773438 83.871094 Z M 212.449219 83.453125 C 212.417969 83.417969 212.390625 83.382812 212.363281 83.351562 C 212.390625 83.382812 212.417969 83.417969 212.449219 83.453125 Z M 211.992188 82.972656 C 211.964844 82.945312 211.9375 82.921875 211.90625 82.898438 C 211.9375 82.921875 211.964844 82.945312 211.992188 82.972656 Z M 210.15625 81.753906 C 210.210938 81.777344 210.265625 81.804688 210.320312 81.832031 C 210.265625 81.804688 210.210938 81.777344 210.15625 81.753906 Z M 210.84375 82.117188 C 210.863281 82.132812 210.890625 82.144531 210.914062 82.160156 C 210.890625 82.144531 210.863281 82.132812 210.84375 82.117188 Z M 211.417969 82.5 C 211.460938 82.53125 211.503906 82.5625 211.542969 82.59375 C 211.503906 82.5625 211.460938 82.53125 211.417969 82.5 Z M 207.691406 81.449219 L 209.488281 81.457031 Z M 189.714844 84.316406 C 189.8125 84.414062 189.902344 84.519531 189.992188 84.625 C 189.902344 84.519531 189.8125 84.414062 189.714844 84.316406 Z M 190.335938 85.011719 C 190.523438 85.242188 190.699219 85.480469 190.867188 85.722656 C 190.699219 85.480469 190.523438 85.242188 190.335938 85.011719 Z M 191.082031 86.066406 C 191.179688 86.222656 191.28125 86.378906 191.371094 86.539062 C 191.277344 86.378906 191.179688 86.21875 191.078125 86.0625 C 191.082031 86.066406 191.082031 86.066406 191.082031 86.066406 Z M 191.558594 86.910156 C 191.640625 87.074219 191.722656 87.238281 191.796875 87.40625 C 191.722656 87.238281 191.640625 87.074219 191.558594 86.910156 Z M 191.957031 87.792969 C 192.023438 87.964844 192.089844 88.140625 192.148438 88.320312 C 192.089844 88.140625 192.023438 87.964844 191.957031 87.792969 Z M 192.269531 88.710938 C 192.324219 88.898438 192.375 89.089844 192.417969 89.285156 C 192.371094 89.089844 192.324219 88.898438 192.269531 88.710938 Z M 192.503906 89.664062 C 192.542969 89.878906 192.574219 90.097656 192.601562 90.320312 C 192.574219 90.101562 192.542969 89.878906 192.503906 89.664062 Z M 192.644531 90.648438 C 192.675781 90.980469 192.695312 91.316406 192.695312 91.660156 C 192.695312 91.316406 192.675781 90.980469 192.644531 90.648438 Z M 189.066406 83.707031 C 189.054688 83.699219 189.046875 83.691406 189.039062 83.683594 C 189.046875 83.691406 189.054688 83.699219 189.066406 83.707031 Z M 183.703125 139.96875 L 188.050781 139.96875 L 188.460938 147.210938 L 183.292969 147.210938 Z M 192.695312 139.96875 L 192.289062 147.210938 Z M 198.039062 100.660156 C 198.050781 100.800781 198.0625 100.945312 198.074219 101.085938 L 196.121094 101.085938 L 196.121094 100.847656 Z M 195.800781 139.96875 L 202.972656 139.96875 C 202.796875 142.082031 202.789062 144.746094 202.789062 147.167969 C 202.789062 147.183594 202.796875 147.195312 202.800781 147.210938 L 195.390625 147.210938 Z M 216.101562 101.085938 L 214.214844 101.085938 L 214.214844 101 C 214.261719 101.027344 214.316406 101.042969 214.375 101.042969 C 214.558594 101.042969 214.703125 100.894531 214.703125 100.710938 L 214.695312 99.015625 L 217 98.789062 C 217.179688 99.582031 217.367188 100.398438 217.558594 101.222656 C 217.082031 101.140625 216.597656 101.085938 216.101562 101.085938 Z M 192.039062 81.398438 L 187.910156 81.386719 Z M 182.671875 81.121094 C 182.664062 81.09375 182.65625 81.066406 182.65625 81.035156 C 182.65625 81.066406 182.664062 81.09375 182.671875 81.121094 Z M 179.691406 79.332031 C 180.65625 78.933594 181.742188 78.414062 182.738281 77.910156 C 182.96875 78.367188 183.1875 78.800781 183.34375 79.089844 C 183.476562 79.328125 183.625 79.503906 183.78125 79.636719 L 185.148438 79.738281 C 185.226562 79.632812 185.246094 79.5 185.242188 79.34375 C 185.210938 79.3125 185.175781 79.28125 185.160156 79.234375 C 185.207031 79.375 185.335938 79.460938 185.472656 79.460938 C 185.507812 79.460938 185.542969 79.453125 185.578125 79.441406 C 185.75 79.382812 185.84375 79.195312 185.785156 79.023438 L 185.613281 78.511719 C 185.859375 78.824219 186.085938 79.109375 186.257812 79.3125 C 186.507812 79.609375 186.765625 79.78125 187.007812 79.878906 Z M 187.871094 79.941406 C 187.957031 79.914062 188.035156 79.882812 188.089844 79.847656 C 188.246094 79.746094 188.320312 79.636719 188.347656 79.511719 L 188.417969 79.640625 C 188.476562 79.75 188.589844 79.816406 188.707031 79.816406 C 188.761719 79.816406 188.8125 79.800781 188.863281 79.773438 C 189.019531 79.691406 189.078125 79.503906 189.003906 79.34375 C 189.03125 79.367188 189.066406 79.398438 189.089844 79.417969 L 189.457031 76.542969 L 189.011719 80.027344 L 187.160156 79.886719 Z M 155.070312 139.96875 L 175.949219 139.96875 L 176.359375 147.21875 L 154.660156 147.21875 Z M 100.074219 191.222656 L 101.027344 179.328125 Z M 80.792969 181.714844 C 80.851562 181.742188 80.914062 181.769531 80.972656 181.796875 C 80.914062 181.769531 80.851562 181.742188 80.792969 181.714844 Z M 75.382812 196.976562 C 75.347656 196.976562 75.3125 197 75.277344 197.027344 C 75.3125 197 75.347656 196.976562 75.382812 196.976562 Z M 113.675781 203.515625 C 113.757812 203.507812 113.835938 203.5 113.917969 203.492188 C 113.835938 203.5 113.757812 203.507812 113.675781 203.515625 Z M 114.640625 203.425781 C 114.75 203.414062 114.859375 203.40625 114.96875 203.394531 C 114.859375 203.40625 114.75 203.414062 114.640625 203.425781 Z M 115.589844 203.332031 C 115.695312 203.320312 115.804688 203.3125 115.910156 203.300781 C 115.804688 203.3125 115.695312 203.320312 115.589844 203.332031 Z M 116.511719 203.234375 C 116.605469 203.222656 116.703125 203.210938 116.796875 203.203125 C 116.703125 203.214844 116.605469 203.222656 116.511719 203.234375 Z M 280.800781 150.722656 L 281.871094 149.714844 Z M 238.667969 135.164062 C 238.644531 135.164062 238.617188 135.167969 238.589844 135.167969 C 238.617188 135.167969 238.644531 135.164062 238.667969 135.164062 Z M 236.539062 135.875 C 236.5 135.902344 236.457031 135.933594 236.421875 135.964844 C 236.457031 135.933594 236.5 135.902344 236.539062 135.875 Z M 238.1875 135.207031 C 238.148438 135.214844 238.113281 135.222656 238.074219 135.230469 C 238.113281 135.222656 238.148438 135.214844 238.1875 135.207031 Z M 237.726562 135.304688 C 237.679688 135.316406 237.636719 135.328125 237.589844 135.34375 C 237.636719 135.332031 237.679688 135.316406 237.726562 135.304688 Z M 237.292969 135.449219 C 237.246094 135.46875 237.195312 135.484375 237.152344 135.507812 C 237.199219 135.484375 237.246094 135.46875 237.292969 135.449219 Z M 236.894531 135.636719 C 236.847656 135.664062 236.800781 135.6875 236.757812 135.714844 C 236.800781 135.6875 236.847656 135.664062 236.894531 135.636719 Z M 236.234375 136.160156 C 236.207031 136.191406 236.175781 136.222656 236.148438 136.253906 C 236.175781 136.222656 236.207031 136.191406 236.234375 136.160156 Z M 231.679688 137.074219 C 231.632812 137.0625 231.597656 137.050781 231.554688 137.039062 C 231.597656 137.050781 231.632812 137.066406 231.679688 137.074219 Z M 231.253906 136.945312 C 231.21875 136.933594 231.1875 136.917969 231.15625 136.902344 C 231.1875 136.917969 231.21875 136.933594 231.253906 136.945312 Z M 230.898438 136.761719 C 230.886719 136.753906 230.878906 136.746094 230.867188 136.742188 C 230.878906 136.746094 230.886719 136.753906 230.898438 136.761719 Z M 230.082031 136.195312 C 230.078125 136.195312 230.074219 136.195312 230.070312 136.191406 C 230.074219 136.195312 230.078125 136.195312 230.082031 136.195312 Z M 229.351562 134.175781 C 229.527344 134.878906 229.695312 135.546875 229.847656 136.148438 C 229.769531 136.144531 229.6875 136.148438 229.589844 136.175781 C 228.222656 136.566406 227.789062 142.234375 227.789062 147.046875 C 227.789062 147.105469 227.800781 147.15625 227.808594 147.210938 L 224.019531 147.210938 L 224.386719 139.96875 L 224.433594 139.96875 L 224.433594 139.011719 L 224.652344 134.6875 L 224.433594 134.925781 L 224.433594 126.441406 C 225.253906 129.0625 226.101562 131.671875 226.980469 134.238281 Z M 182.984375 80.707031 L 189.015625 80.726562 Z M 151.964844 139.96875 L 151.554688 147.21875 Z M 124.222656 192.910156 C 123.945312 192.378906 123.65625 191.8125 123.355469 191.230469 C 123.65625 191.816406 123.945312 192.378906 124.222656 192.910156 Z M 122.488281 189.554688 C 122.726562 190.023438 122.960938 190.476562 123.191406 190.917969 C 122.960938 190.476562 122.726562 190.023438 122.488281 189.554688 Z M 122.285156 189.167969 C 122.1875 188.976562 122.085938 188.785156 121.988281 188.589844 C 122.085938 188.785156 122.1875 188.976562 122.285156 189.167969 Z M 99.171875 179.757812 L 97.648438 177.894531 Z M 90.503906 164.78125 C 90.597656 164.773438 90.691406 164.769531 90.789062 164.757812 C 90.691406 164.769531 90.597656 164.773438 90.503906 164.78125 Z M 92.4375 164.3125 C 92.496094 164.289062 92.554688 164.261719 92.613281 164.238281 C 92.554688 164.261719 92.496094 164.289062 92.4375 164.3125 Z M 92.917969 164.097656 C 92.957031 164.078125 92.996094 164.058594 93.039062 164.039062 C 92.996094 164.058594 92.960938 164.078125 92.917969 164.097656 Z M 93.386719 163.847656 C 93.398438 163.84375 93.40625 163.835938 93.417969 163.832031 C 93.40625 163.835938 93.398438 163.84375 93.386719 163.847656 Z M 99.117188 151.328125 C 99.121094 151.347656 99.125 151.363281 99.132812 151.382812 C 99.125 151.363281 99.121094 151.34375 99.117188 151.328125 Z M 98.730469 150.5 C 98.675781 150.421875 98.621094 150.351562 98.558594 150.28125 C 98.621094 150.351562 98.679688 150.421875 98.730469 150.5 Z M 98.921875 150.824219 C 98.898438 150.78125 98.878906 150.734375 98.851562 150.6875 C 98.878906 150.734375 98.898438 150.777344 98.921875 150.824219 Z M 98.449219 150.164062 C 98.359375 150.082031 98.265625 150.007812 98.164062 149.945312 C 98.265625 150.007812 98.359375 150.082031 98.449219 150.164062 Z M 98.066406 149.882812 C 97.941406 149.816406 97.816406 149.753906 97.679688 149.714844 C 97.816406 149.753906 97.941406 149.816406 98.066406 149.882812 Z M 94.996094 151.789062 C 95.027344 151.851562 95.054688 151.917969 95.085938 151.976562 C 95.054688 151.917969 95.027344 151.851562 94.996094 151.789062 Z M 93.742188 147.878906 C 93.976562 147.90625 94.207031 147.929688 94.425781 147.949219 C 94.207031 147.929688 93.976562 147.90625 93.742188 147.878906 Z M 93.007812 147.792969 C 93.175781 147.8125 93.34375 147.832031 93.507812 147.851562 C 93.546875 147.855469 93.585938 147.859375 93.625 147.867188 C 93.183594 147.816406 92.71875 147.757812 92.238281 147.683594 C 92.390625 147.707031 92.542969 147.726562 92.691406 147.746094 C 92.796875 147.761719 92.902344 147.777344 93.007812 147.792969 Z M 91.046875 147.46875 C 90.90625 147.4375 90.769531 147.410156 90.628906 147.378906 C 90.769531 147.410156 90.90625 147.4375 91.046875 147.46875 Z M 89.8125 147.175781 C 89.949219 147.214844 90.082031 147.246094 90.21875 147.28125 C 90.320312 147.304688 90.417969 147.328125 90.515625 147.351562 C 90.011719 147.234375 89.503906 147.097656 89.003906 146.933594 C 89.136719 146.976562 89.265625 147.019531 89.394531 147.058594 C 89.535156 147.097656 89.671875 147.140625 89.8125 147.175781 Z M 88.707031 146.832031 C 88.539062 146.773438 88.375 146.714844 88.214844 146.648438 C 88.339844 146.699219 88.460938 146.746094 88.589844 146.792969 C 88.625 146.804688 88.667969 146.816406 88.707031 146.832031 Z M 86.53125 145.796875 C 86.371094 145.695312 86.210938 145.585938 86.058594 145.472656 C 86.160156 145.546875 86.253906 145.621094 86.359375 145.691406 C 86.414062 145.726562 86.472656 145.761719 86.53125 145.796875 Z M 84.464844 143.730469 C 84.527344 143.832031 84.578125 143.941406 84.648438 144.039062 C 84.472656 143.785156 84.324219 143.507812 84.191406 143.214844 C 84.273438 143.390625 84.367188 143.566406 84.464844 143.730469 Z M 84.769531 144.195312 C 84.816406 144.257812 84.867188 144.320312 84.914062 144.382812 C 84.992188 144.476562 85.0625 144.570312 85.140625 144.660156 C 85.226562 144.75 85.320312 144.835938 85.410156 144.921875 C 85.175781 144.695312 84.960938 144.453125 84.769531 144.195312 Z M 85.714844 145.207031 C 85.625 145.128906 85.539062 145.042969 85.449219 144.960938 C 85.539062 145.042969 85.625 145.128906 85.714844 145.207031 Z M 86.683594 162.101562 C 86.679688 162.089844 86.679688 162.078125 86.675781 162.066406 C 86.679688 162.078125 86.679688 162.089844 86.683594 162.101562 Z M 81.625 182.132812 C 81.65625 182.152344 81.683594 182.167969 81.714844 182.1875 C 81.683594 182.171875 81.65625 182.152344 81.625 182.132812 Z M 82.199219 182.496094 C 82.246094 182.53125 82.292969 182.5625 82.335938 182.597656 C 82.292969 182.5625 82.246094 182.53125 82.199219 182.496094 Z M 80.191406 181.453125 C 80.136719 181.433594 80.078125 181.40625 80.023438 181.382812 C 80.078125 181.40625 80.136719 181.433594 80.191406 181.453125 Z M 79.222656 181.089844 C 79.160156 181.066406 79.097656 181.046875 79.035156 181.023438 C 79.097656 181.046875 79.160156 181.066406 79.222656 181.089844 Z M 78.328125 180.796875 C 78.253906 180.773438 78.179688 180.75 78.101562 180.726562 C 78.179688 180.75 78.253906 180.773438 78.328125 180.796875 Z M 76.242188 180.222656 C 76.15625 180.199219 76.066406 180.179688 75.980469 180.15625 C 76.066406 180.179688 76.15625 180.199219 76.242188 180.222656 Z M 75.046875 179.941406 C 75.039062 179.9375 75.03125 179.9375 75.019531 179.933594 C 75.03125 179.9375 75.039062 179.941406 75.046875 179.941406 Z M 74.042969 179.730469 C 73.957031 179.710938 73.871094 179.691406 73.78125 179.675781 C 73.871094 179.691406 73.957031 179.710938 74.042969 179.730469 Z M 72.949219 179.515625 C 72.902344 179.503906 72.855469 179.496094 72.808594 179.488281 C 72.855469 179.496094 72.902344 179.503906 72.949219 179.515625 Z M 71.851562 179.316406 C 71.777344 179.300781 71.703125 179.289062 71.628906 179.277344 C 71.703125 179.289062 71.777344 179.304688 71.851562 179.316406 Z M 70.855469 179.148438 C 70.796875 179.140625 70.734375 179.128906 70.671875 179.121094 C 70.734375 179.128906 70.796875 179.140625 70.855469 179.148438 Z M 68.910156 178.855469 C 68.855469 178.847656 68.796875 178.839844 68.742188 178.832031 C 68.800781 178.839844 68.855469 178.847656 68.910156 178.855469 Z M 69.78125 178.984375 C 69.738281 178.976562 69.691406 178.96875 69.648438 178.960938 C 69.691406 178.96875 69.738281 178.976562 69.78125 178.984375 Z M 75.25 197.046875 C 75.21875 197.078125 75.1875 197.121094 75.15625 197.167969 C 75.1875 197.117188 75.21875 197.082031 75.25 197.046875 Z M 77.128906 256.773438 C 77.132812 256.773438 77.132812 256.777344 77.132812 256.777344 C 75.21875 253.175781 73.097656 247.039062 73.097656 247.039062 C 73.070312 246.941406 73.035156 246.855469 73.007812 246.765625 L 77.835938 245.003906 L 77.835938 245.007812 C 77.886719 245.140625 78.011719 245.222656 78.148438 245.222656 C 78.183594 245.222656 78.222656 245.21875 78.261719 245.203125 C 78.433594 245.140625 78.519531 244.949219 78.457031 244.777344 L 70.160156 222.410156 L 73.589844 231.660156 L 101.605469 226.390625 L 86.859375 229.164062 L 86.859375 264.949219 L 82.144531 264.949219 C 82.167969 264.78125 82.164062 264.609375 82.09375 264.441406 C 81.929688 264.070312 81.710938 263.585938 81.4375 263.039062 C 80.542969 261.226562 79.066406 258.667969 77.128906 256.773438 Z M 102.75 226.09375 C 102.714844 226.105469 102.683594 226.113281 102.648438 226.125 C 102.683594 226.113281 102.714844 226.105469 102.75 226.09375 Z M 102.75 226.09375 " fill-opacity="1" fill-rule="nonzero"/></g><g clip-path="url(#19704a3257)"><path fill="#f5f5f5" d="M 374.589844 148.433594 L 370.601562 146.765625 L 367.617188 151.378906 L 365.824219 149.597656 L 365.808594 159.253906 L 354.097656 147.011719 L 360.078125 135.5625 L 362.398438 133.761719 C 364.265625 134.164062 368.34375 136.113281 371.570312 143.210938 C 372.546875 145.359375 371.714844 140.265625 375.632812 137.128906 C 376.359375 136.550781 378.214844 136.621094 378.214844 136.621094 Z M 280.800781 147.828125 L 238.316406 147.828125 L 238.316406 175.066406 L 280.800781 175.066406 Z M 138.28125 172.375 L 233.777344 172.375 L 233.777344 152.160156 L 138.28125 152.160156 Z M 264.140625 264.957031 L 312.367188 264.957031 L 312.367188 266.558594 L 312.359375 266.558594 L 312.359375 285.332031 L 263.042969 285.332031 L 263.042969 284.625 L 78.417969 284.625 L 78.417969 264.949219 L 101.433594 264.949219 L 101.433594 226.421875 L 101.605469 226.390625 C 102.363281 226.246094 103.078125 226.011719 103.753906 225.710938 L 107.867188 225.710938 L 107.867188 264.949219 L 109.890625 264.949219 L 109.890625 225.769531 L 116.320312 225.769531 L 116.320312 264.949219 L 264.140625 264.949219 Z M 247.640625 268.238281 L 78.476562 268.199219 L 78.476562 271.558594 L 247.640625 271.59375 Z M 237.679688 258.914062 L 237.679688 231.152344 L 125.171875 231.152344 L 125.171875 258.914062 Z M 245.742188 261.289062 L 299.246094 261.289062 L 299.246094 229.511719 L 245.742188 229.511719 Z M 99.320312 193.726562 L 100.28125 181.121094 L 97.648438 177.894531 C 87.628906 179.703125 82.792969 182.976562 82.792969 182.976562 C 79.492188 179.734375 65.171875 178.40625 65.171875 178.40625 L 63.757812 180.308594 L 67.015625 194.484375 L 83.277344 197.792969 Z M 295.078125 209.128906 L 293.644531 209.128906 L 293.644531 179.519531 L 295.078125 179.519531 L 295.078125 176.476562 L 179.417969 176.476562 L 179.417969 176.484375 L 131.332031 176.484375 L 131.332031 147.078125 L 123.84375 147.078125 L 123.84375 176.484375 L 115.730469 176.484375 C 118.707031 182.242188 121.964844 188.546875 124.21875 192.910156 C 125.769531 195.910156 124.742188 199.589844 121.902344 201.351562 C 120.734375 202.300781 119.234375 202.902344 117.617188 203.105469 C 115.339844 203.390625 112.359375 203.644531 109.214844 203.859375 L 109.214844 212.175781 L 295.078125 212.175781 Z M 147.320312 139.96875 L 147.785156 148.195312 L 151.5 148.195312 L 151.964844 139.96875 L 179.058594 139.96875 L 179.523438 148.195312 L 183.238281 148.195312 L 183.703125 139.96875 L 188.050781 139.96875 L 188.515625 148.195312 L 192.230469 148.195312 L 192.695312 139.96875 L 192.695312 91.660156 C 192.695312 85.839844 187.988281 81.121094 182.179688 81.121094 L 148.285156 81.121094 L 142.726562 52.007812 C 141.96875 48.015625 138.484375 45.121094 134.421875 45.121094 L 129.21875 45.121094 Z M 283.808594 212.160156 L 248.289062 212.160156 L 248.289062 224.75 L 283.808594 224.75 Z M 244.359375 36.855469 C 244.359375 38.09375 245.359375 39.097656 246.597656 39.097656 C 247.832031 39.097656 248.832031 38.09375 248.832031 36.855469 C 248.832031 35.621094 247.832031 34.617188 246.597656 34.617188 C 245.359375 34.617188 244.359375 35.617188 244.359375 36.855469 Z M 238.445312 36.855469 C 238.445312 38.09375 239.449219 39.097656 240.683594 39.097656 C 241.917969 39.097656 242.921875 38.09375 242.921875 36.855469 C 242.921875 35.621094 241.917969 34.617188 240.683594 34.617188 C 239.449219 34.617188 238.445312 35.617188 238.445312 36.855469 Z M 232.496094 36.855469 C 232.496094 38.09375 233.496094 39.097656 234.730469 39.097656 C 235.964844 39.097656 236.96875 38.09375 236.96875 36.855469 C 236.96875 35.621094 235.964844 34.617188 234.730469 34.617188 C 233.496094 34.617188 232.496094 35.617188 232.496094 36.855469 Z M 232.496094 36.855469 " fill-opacity="1" fill-rule="evenodd"/></g><g clip-path="url(#b522898c3f)"><path fill="#e0e0e0" d="M 378.113281 136.617188 C 378.175781 136.617188 378.214844 136.621094 378.214844 136.621094 L 374.875 147.5 L 373.066406 146.367188 C 373.082031 146.339844 373.09375 146.328125 373.09375 146.328125 L 360.394531 133.605469 L 352.828125 148.25 C 352.828125 148.25 362.730469 158.671875 364.03125 160.042969 L 363.972656 160.136719 L 366.871094 161.953125 L 369.417969 157.863281 C 372.042969 153.789062 375.699219 148.046875 375.699219 148.046875 L 378.484375 136.152344 Z M 367.617188 151.378906 L 357.664062 141.472656 L 360.640625 135.75 L 370.828125 146.414062 Z M 91.304688 224.722656 C 91.28125 224.902344 91.113281 225.039062 90.933594 225.011719 L 70.164062 222.410156 L 78.457031 244.777344 C 78.523438 244.949219 78.433594 245.136719 78.261719 245.203125 C 78.226562 245.214844 78.1875 245.222656 78.148438 245.222656 C 78.015625 245.222656 77.886719 245.140625 77.839844 245.007812 L 69.351562 222.125 C 69.3125 222.019531 69.332031 221.898438 69.402344 221.804688 C 69.476562 221.714844 69.59375 221.667969 69.703125 221.683594 L 91.015625 224.351562 C 91.199219 224.375 91.324219 224.542969 91.304688 224.722656 Z M 48.046875 220.257812 C 47.984375 220.085938 47.792969 219.996094 47.621094 220.058594 C 47.453125 220.121094 47.363281 220.3125 47.425781 220.484375 L 58.871094 251.910156 C 58.917969 252.042969 59.046875 252.128906 59.179688 252.128906 C 59.21875 252.128906 59.257812 252.121094 59.292969 252.109375 C 59.464844 252.046875 59.554688 251.855469 59.492188 251.683594 Z M 318.941406 207.753906 C 319.117188 207.703125 319.21875 207.519531 319.167969 207.34375 L 317.324219 200.980469 C 317.273438 200.804688 317.089844 200.703125 316.914062 200.753906 C 316.738281 200.804688 316.636719 200.988281 316.6875 201.164062 L 318.53125 207.527344 C 318.574219 207.671875 318.707031 207.765625 318.851562 207.765625 C 318.878906 207.765625 318.910156 207.761719 318.941406 207.753906 Z M 133.746094 45.121094 L 134.421875 45.121094 C 138.480469 45.121094 141.96875 48.011719 142.726562 52.007812 L 148.285156 81.121094 L 180.023438 81.121094 L 174.464844 52.007812 C 173.707031 48.011719 170.222656 45.121094 166.160156 45.121094 L 130.605469 45.121094 Z M 242.546875 195.226562 L 242.546875 195.535156 L 292.019531 195.535156 C 292.085938 195.535156 292.140625 195.464844 292.140625 195.378906 C 292.140625 195.292969 292.085938 195.226562 292.019531 195.226562 Z M 291.953125 199.460938 C 291.953125 199.375 291.898438 199.308594 291.832031 199.308594 L 242.546875 199.308594 L 242.546875 199.617188 L 291.832031 199.617188 C 291.898438 199.617188 291.953125 199.546875 291.953125 199.460938 Z M 283.863281 219.1875 L 249.535156 219.1875 C 249.476562 219.1875 249.425781 219.257812 249.425781 219.34375 C 249.425781 219.429688 249.476562 219.5 249.535156 219.5 L 283.863281 219.5 Z M 291.679688 206.03125 C 291.679688 205.945312 291.625 205.878906 291.558594 205.878906 L 242.273438 205.878906 L 242.273438 206.1875 L 291.558594 206.1875 C 291.625 206.1875 291.679688 206.117188 291.679688 206.03125 Z M 283.863281 217.148438 L 249.480469 217.148438 C 249.417969 217.148438 249.367188 217.214844 249.367188 217.300781 C 249.367188 217.386719 249.417969 217.457031 249.480469 217.457031 L 283.863281 217.457031 Z M 291.867188 201.949219 C 291.867188 201.863281 291.8125 201.796875 291.746094 201.796875 L 242.273438 201.796875 L 242.273438 202.105469 L 291.746094 202.105469 C 291.8125 202.105469 291.867188 202.035156 291.867188 201.949219 Z M 291.714844 203.988281 C 291.714844 203.902344 291.660156 203.835938 291.59375 203.835938 L 242.273438 203.835938 L 242.273438 204.144531 L 291.59375 204.144531 C 291.660156 204.144531 291.714844 204.074219 291.714844 203.988281 Z M 283.863281 215.105469 L 249.328125 215.105469 C 249.265625 215.105469 249.21875 215.175781 249.21875 215.261719 C 249.21875 215.347656 249.265625 215.417969 249.328125 215.417969 L 283.863281 215.417969 Z M 283.863281 213.066406 L 249.289062 213.066406 C 249.226562 213.066406 249.175781 213.132812 249.175781 213.21875 C 249.175781 213.304688 249.226562 213.375 249.289062 213.375 L 283.863281 213.375 Z M 249.25 223.421875 C 249.25 223.507812 249.300781 223.578125 249.363281 223.578125 L 283.863281 223.578125 L 283.863281 223.269531 L 249.363281 223.269531 C 249.300781 223.269531 249.25 223.339844 249.25 223.421875 Z M 248.617188 282.828125 C 248.617188 282.914062 248.6875 282.980469 248.773438 282.980469 L 311.796875 282.980469 L 311.796875 282.671875 L 248.773438 282.671875 C 248.6875 282.671875 248.617188 282.742188 248.617188 282.828125 Z M 311.796875 278.589844 L 248.910156 278.589844 C 248.828125 278.589844 248.757812 278.660156 248.757812 278.746094 C 248.757812 278.832031 248.828125 278.902344 248.910156 278.902344 L 311.796875 278.902344 Z M 311.796875 266.34375 L 248.855469 266.34375 C 248.769531 266.34375 248.699219 266.414062 248.699219 266.5 C 248.699219 266.585938 248.769531 266.652344 248.855469 266.652344 L 311.796875 266.652344 Z M 311.796875 276.550781 L 248.957031 276.550781 C 248.871094 276.550781 248.804688 276.621094 248.804688 276.707031 C 248.804688 276.792969 248.871094 276.859375 248.957031 276.859375 L 311.796875 276.859375 Z M 311.796875 280.632812 L 248.714844 280.632812 C 248.628906 280.632812 248.5625 280.699219 248.5625 280.785156 C 248.5625 280.871094 248.628906 280.941406 248.714844 280.941406 L 311.796875 280.941406 Z M 311.796875 268.386719 L 248.808594 268.386719 C 248.722656 268.386719 248.65625 268.457031 248.65625 268.542969 C 248.65625 268.628906 248.722656 268.695312 248.808594 268.695312 L 311.796875 268.695312 Z M 311.796875 270.425781 L 248.613281 270.425781 C 248.527344 270.425781 248.457031 270.496094 248.457031 270.582031 C 248.457031 270.667969 248.527344 270.734375 248.613281 270.734375 L 311.796875 270.734375 Z M 311.796875 274.507812 L 248.878906 274.507812 C 248.792969 274.507812 248.726562 274.578125 248.726562 274.664062 C 248.726562 274.75 248.792969 274.816406 248.878906 274.816406 L 311.796875 274.816406 Z M 311.796875 272.46875 L 248.667969 272.46875 C 248.582031 272.46875 248.515625 272.539062 248.515625 272.625 C 248.515625 272.707031 248.582031 272.777344 248.667969 272.777344 L 311.796875 272.777344 Z M 283.863281 221.230469 L 249.503906 221.230469 C 249.441406 221.230469 249.390625 221.296875 249.390625 221.382812 C 249.390625 221.46875 249.441406 221.539062 249.503906 221.539062 L 283.863281 221.539062 Z M 291.988281 197.421875 C 291.988281 197.335938 291.933594 197.265625 291.867188 197.265625 L 242.546875 197.265625 L 242.546875 197.574219 L 291.867188 197.574219 C 291.933594 197.574219 291.988281 197.503906 291.988281 197.421875 Z M 109.886719 265.039062 L 107.867188 265.039062 L 107.867188 225.761719 L 167.847656 225.761719 L 167.847656 225.757812 L 301.28125 225.757812 L 301.28125 229.511719 L 245.742188 229.511719 L 245.742188 261.289062 L 301.28125 261.289062 L 301.28125 265.039062 L 116.320312 265.039062 L 116.320312 225.769531 L 109.886719 225.769531 Z M 125.171875 258.914062 L 237.679688 258.914062 L 237.679688 231.152344 L 125.171875 231.152344 Z M 123.84375 147.21875 L 116.355469 147.21875 L 116.355469 176.5625 L 123.84375 176.5625 Z M 180.597656 139.96875 L 180.1875 147.210938 L 192.289062 147.210938 L 192.695312 139.96875 L 192.695312 91.660156 C 192.695312 85.839844 187.988281 81.125 182.179688 81.121094 L 185.601562 81.121094 C 191.410156 81.121094 196.121094 85.839844 196.121094 91.660156 L 196.121094 101.085938 L 216.101562 101.085938 C 220.703125 101.085938 224.433594 104.828125 224.433594 109.4375 L 224.433594 134.929688 L 224.652344 134.691406 L 224.433594 139.011719 L 224.433594 139.96875 L 224.386719 139.96875 L 224.019531 147.210938 L 283.207031 147.210938 L 283.207031 149.714844 L 239.988281 149.714844 L 239.988281 174.058594 L 283.207031 174.058594 L 283.207031 176.5625 L 131.332031 176.5625 L 131.332031 147.21875 L 151.554688 147.21875 L 151.964844 139.96875 L 155.070312 139.96875 L 154.660156 147.21875 L 176.359375 147.21875 L 175.949219 139.96875 Z M 195.390625 147.210938 L 220.195312 147.210938 L 219.789062 139.96875 L 195.800781 139.96875 Z M 138.28125 152.160156 L 138.28125 172.375 L 233.777344 172.375 L 233.777344 152.160156 Z M 130.160156 193.886719 C 130.160156 189.269531 133.90625 185.511719 138.519531 185.511719 L 231.144531 185.511719 C 235.753906 185.511719 239.503906 189.265625 239.503906 193.886719 C 239.503906 198.503906 235.753906 202.261719 231.144531 202.261719 L 138.515625 202.261719 C 133.90625 202.261719 130.160156 198.503906 130.160156 193.886719 Z M 130.894531 193.886719 C 130.894531 198.097656 134.3125 201.523438 138.519531 201.523438 L 231.144531 201.523438 C 235.347656 201.523438 238.769531 198.097656 238.769531 193.886719 C 238.769531 189.671875 235.347656 186.246094 231.144531 186.246094 L 138.515625 186.246094 C 134.3125 186.246094 130.894531 189.675781 130.894531 193.886719 Z M 75.382812 196.976562 C 75.199219 196.976562 74.9375 197.484375 74.90625 197.941406 C 70.222656 196.824219 64.582031 195.480469 64.582031 195.480469 L 62.835938 179.300781 L 80.871094 183.261719 C 80.894531 183.210938 80.9375 183.171875 81 183.171875 L 84.34375 183.171875 C 84.347656 183.171875 84.351562 183.175781 84.359375 183.179688 L 101.027344 179.328125 L 99.734375 195.414062 C 99.734375 195.414062 94.746094 196.695312 90.410156 197.808594 L 90.335938 194.726562 C 89.402344 194.082031 88.097656 193.4375 87.339844 193.019531 C 84.996094 191.742188 84.035156 190.132812 83.691406 190.316406 C 82.328125 191.054688 83.117188 192.507812 83.867188 193.578125 C 84.480469 194.421875 84.578125 195.03125 84.578125 195.03125 C 82.050781 195.191406 80.910156 194.578125 79.273438 194.078125 C 77.617188 193.570312 77.257812 193.75 77.0625 194.003906 C 76.71875 194.433594 76.644531 195.136719 77.074219 195.410156 C 77.691406 195.820312 79.609375 196.257812 80.8125 196.675781 C 81.757812 196.992188 81.40625 196.96875 81.40625 196.96875 C 80.746094 197.113281 76.691406 196.949219 75.382812 196.976562 Z M 85.75 184.53125 L 85.847656 190.320312 L 99.226562 187.277344 L 99.714844 180.984375 Z M 79.527344 193.097656 C 79.539062 193.097656 79.550781 193.097656 79.558594 193.097656 C 79.59375 193.097656 79.628906 193.085938 79.65625 193.0625 C 79.691406 193.035156 79.714844 192.988281 79.714844 192.941406 L 79.667969 189.4375 C 79.667969 189.367188 79.617188 189.304688 79.546875 189.289062 L 65.113281 185.988281 C 65.066406 185.980469 65.011719 185.992188 64.976562 186.027344 C 64.9375 186.058594 64.921875 186.109375 64.925781 186.160156 L 65.402344 189.933594 C 65.410156 190 65.457031 190.050781 65.519531 190.066406 Z M 86.859375 265.039062 L 101.433594 265.039062 L 101.433594 226.421875 L 101.605469 226.386719 L 86.859375 229.164062 Z M 309.339844 284.621094 L 309.339844 284.4375 L 246.523438 284.4375 C 246.4375 284.4375 246.367188 284.507812 246.367188 284.59375 C 246.367188 284.605469 246.378906 284.613281 246.378906 284.621094 L 78.339844 284.621094 L 78.339844 286.222656 L 312.367188 286.222656 L 312.367188 284.621094 Z M 227.675781 167.199219 L 144.097656 167.199219 L 144.097656 168.246094 L 227.671875 168.246094 L 227.671875 167.199219 Z M 65.261719 186.339844 L 65.695312 189.785156 L 79.402344 192.753906 L 79.359375 189.566406 Z M 78.476562 271.558594 L 247.878906 271.558594 L 247.878906 268.199219 L 78.476562 268.199219 Z M 291.90625 187.214844 C 291.90625 187.128906 291.855469 187.058594 291.785156 187.058594 L 242.546875 187.058594 L 242.546875 187.371094 L 291.785156 187.371094 C 291.851562 187.371094 291.90625 187.300781 291.90625 187.214844 Z M 242.546875 191.453125 L 291.8125 191.453125 C 291.878906 191.453125 291.933594 191.382812 291.933594 191.296875 C 291.933594 191.210938 291.878906 191.144531 291.8125 191.144531 L 242.546875 191.144531 Z M 242.546875 189.410156 L 291.75 189.410156 C 291.816406 189.410156 291.871094 189.339844 291.871094 189.253906 C 291.871094 189.167969 291.816406 189.101562 291.75 189.101562 L 242.546875 189.101562 Z M 242.546875 193.183594 L 242.546875 193.492188 L 291.976562 193.492188 C 292.042969 193.492188 292.097656 193.421875 292.097656 193.335938 C 292.097656 193.253906 292.042969 193.183594 291.976562 193.183594 Z M 242.546875 183.289062 L 291.894531 183.289062 C 291.960938 183.289062 292.015625 183.21875 292.015625 183.132812 C 292.015625 183.046875 291.960938 182.980469 291.894531 182.980469 L 242.546875 182.980469 Z M 242.484375 181.25 L 291.671875 181.25 C 291.738281 181.25 291.792969 181.179688 291.792969 181.09375 C 291.792969 181.007812 291.738281 180.9375 291.671875 180.9375 L 242.484375 180.9375 Z M 242.546875 185.019531 L 242.546875 185.332031 L 291.941406 185.332031 C 292.007812 185.332031 292.0625 185.261719 292.0625 185.175781 C 292.0625 185.089844 292.007812 185.019531 291.941406 185.019531 Z M 227.675781 156.410156 L 144.097656 156.410156 L 144.097656 157.453125 L 227.671875 157.453125 L 227.671875 156.410156 Z M 227.675781 161.804688 L 144.097656 161.804688 L 144.097656 162.847656 L 227.671875 162.847656 L 227.671875 161.804688 Z M 227.675781 161.804688 " fill-opacity="1" fill-rule="evenodd"/></g><path fill="#26b1d8" d="M 230.445312 51.144531 C 230.402344 51.753906 231.066406 52.15625 231.582031 51.828125 L 236.699219 48.570312 C 237.957031 48.910156 239.285156 49.09375 240.664062 49.09375 C 248.195312 49.09375 254.300781 43.617188 254.300781 36.855469 C 254.300781 30.097656 248.195312 24.617188 240.664062 24.617188 C 233.132812 24.617188 227.027344 30.097656 227.027344 36.855469 C 227.027344 40.171875 228.496094 43.175781 230.878906 45.378906 Z M 246.597656 34.617188 C 247.832031 34.617188 248.832031 35.621094 248.832031 36.855469 C 248.832031 38.09375 247.832031 39.097656 246.597656 39.097656 C 245.359375 39.097656 244.359375 38.09375 244.359375 36.855469 C 244.359375 35.621094 245.359375 34.617188 246.597656 34.617188 Z M 240.683594 34.617188 C 241.917969 34.617188 242.921875 35.621094 242.921875 36.855469 C 242.921875 38.09375 241.917969 39.097656 240.683594 39.097656 C 239.449219 39.097656 238.445312 38.09375 238.445312 36.855469 C 238.445312 35.621094 239.449219 34.617188 240.683594 34.617188 Z M 234.730469 34.617188 C 235.964844 34.617188 236.96875 35.621094 236.96875 36.855469 C 236.96875 38.09375 235.964844 39.097656 234.730469 39.097656 C 233.496094 39.097656 232.496094 38.09375 232.496094 36.855469 C 232.496094 35.621094 233.496094 34.617188 234.730469 34.617188 Z M 251.832031 146.917969 C 251.914062 147.597656 251.378906 148.191406 250.695312 148.191406 L 228.9375 148.191406 C 228.304688 148.191406 227.789062 147.679688 227.789062 147.046875 C 227.789062 142.234375 228.222656 136.566406 229.589844 136.175781 C 230.488281 135.917969 230.542969 137.121094 232.210938 137.121094 C 233.878906 137.121094 234.554688 135.683594 235.949219 136.582031 C 236.742188 134.839844 240.691406 134.453125 241.789062 136.78125 C 242.835938 138.996094 245.179688 140.609375 248.707031 142.183594 C 251.023438 143.21875 251.664062 145.484375 251.832031 146.917969 Z M 252.304688 190.855469 L 257.359375 190.855469 C 258.015625 190.855469 258.644531 191.308594 259.105469 192.113281 C 259.570312 192.921875 259.828125 194.011719 259.828125 195.152344 L 259.828125 205.371094 L 256.929688 201.738281 L 253.777344 205.082031 C 253.777344 205.082031 253.777344 198.578125 253.777344 194.980469 C 253.777344 193.476562 253.257812 192.019531 252.304688 190.855469 Z M 202.789062 147.167969 C 202.789062 142.304688 202.808594 136.460938 204.203125 136.0625 C 205.101562 135.804688 204.578125 137.070312 206.246094 137.070312 C 207.914062 137.070312 208.042969 136.09375 209.433594 136.992188 C 210.226562 135.25 215.300781 134.339844 216.402344 136.667969 C 217.445312 138.878906 217.566406 140.441406 219.429688 142.070312 C 221.421875 143.8125 221.707031 145.984375 221.691406 147.183594 C 221.683594 147.679688 221.277344 148.078125 220.777344 148.078125 L 203.703125 148.078125 C 203.199219 148.078125 202.792969 147.671875 202.789062 147.167969 Z M 365.394531 168.234375 C 365.394531 168.234375 356.734375 178.328125 351.300781 184.65625 C 350.179688 185.96875 348.570312 186.765625 346.851562 186.863281 C 346.816406 186.867188 346.78125 186.863281 346.742188 186.867188 C 342.554688 187.441406 339.691406 183.496094 338.308594 179.273438 C 338.285156 179.195312 338.253906 179.105469 338.226562 179.023438 L 336.144531 194.363281 L 299.382812 187.757812 L 307.222656 163.792969 C 304.003906 166.195312 300.882812 168.523438 298.390625 170.332031 C 298.199219 170.492188 297.996094 170.644531 297.785156 170.78125 C 295.28125 172.4375 291.953125 172.019531 289.929688 169.800781 C 284.933594 164.316406 276.371094 154.917969 276.371094 154.917969 L 283.828125 147.863281 C 283.828125 147.863281 289.429688 152.714844 294.855469 157.414062 C 300.070312 153.183594 306.507812 147.960938 310.878906 144.414062 C 311.621094 143.8125 312.484375 143.398438 313.398438 143.183594 L 313.441406 143.011719 L 324.628906 141.746094 L 326.742188 137.53125 L 335.273438 141.660156 L 334.441406 143.769531 L 342.535156 149.191406 L 342.53125 149.214844 C 343.371094 149.816406 344.078125 150.601562 344.550781 151.558594 C 345.628906 153.699219 347.480469 160.097656 349.550781 168.253906 C 353.753906 163.902344 357.4375 160.09375 357.4375 160.09375 Z M 266.804688 256.566406 C 267.488281 257.371094 267.875 258.460938 267.875 259.601562 L 267.875 269.820312 L 263.589844 266.1875 L 258.933594 269.53125 C 258.933594 269.53125 258.933594 263.601562 258.933594 259.929688 C 258.933594 258.140625 258.136719 256.445312 256.757812 255.304688 L 264.226562 255.304688 C 265.195312 255.304688 266.121094 255.757812 266.804688 256.566406 Z M 163.488281 211.496094 L 284.335938 211.496094 L 284.335938 212.523438 L 249.46875 212.523438 L 249.46875 224.726562 L 283.960938 224.726562 L 283.960938 225.753906 L 113.617188 225.753906 L 113.617188 211.671875 Z M 110.734375 203.753906 L 110.957031 206.027344 L 75.75 206.800781 L 75.804688 202.539062 C 74.128906 203.453125 72.15625 203.839844 70.140625 203.5 C 68.332031 203.164062 67.617188 202.375 66.691406 201.015625 C 65.320312 200.804688 63.984375 200.601562 62.707031 200.410156 C 57.742188 195.601562 52.765625 190.785156 52.765625 190.785156 L 59.789062 182.136719 C 59.789062 182.136719 61.285156 183.421875 63.484375 185.3125 L 64.585938 195.480469 C 64.585938 195.480469 79.84375 197.859375 81.90625 198.351562 L 81.601562 199.171875 C 81.601562 199.257812 80.914062 199.632812 81 199.632812 L 84.34375 199.632812 C 84.429688 199.632812 84.496094 199.566406 84.496094 199.476562 L 84.496094 199.328125 C 85.371094 199.101562 87.769531 198.488281 90.410156 197.808594 L 90.285156 192.683594 C 90.285156 192.683594 94.617188 192.109375 100.058594 191.390625 L 101.027344 179.328125 L 99.167969 179.757812 L 97.648438 177.890625 C 87.628906 179.703125 82.792969 182.976562 82.792969 182.976562 C 80.410156 180.636719 72.296875 179.292969 67.960938 178.726562 C 68.804688 174.269531 69.550781 170.976562 70.160156 169.46875 C 71.183594 166.992188 73.988281 165.179688 76.75 164.929688 L 85.867188 161.410156 L 86.582031 161.390625 C 86.753906 163.289062 87.542969 164.550781 89.941406 164.777344 C 91.945312 164.964844 95.191406 163.308594 95.804688 161.15625 L 96.011719 161.152344 L 107.328125 164.996094 C 107.410156 165.019531 107.492188 165.035156 107.570312 165.058594 C 109.285156 165.582031 110.71875 166.78125 111.546875 168.382812 C 115.09375 175.242188 120.804688 186.304688 124.222656 192.90625 C 125.769531 195.910156 124.742188 199.589844 121.902344 201.347656 C 120.734375 202.296875 119.234375 202.902344 117.617188 203.105469 C 115.710938 203.34375 113.3125 203.5625 110.734375 203.753906 Z M 147.292969 73.0625 L 150.78125 47.722656 C 151.070312 46.039062 151.871094 44.578125 152.980469 43.488281 L 152.699219 42.429688 C 152.277344 40.824219 153.1875 39.179688 154.761719 38.664062 C 158.136719 37.554688 161.578125 36.949219 165.0625 36.691406 L 164.664062 39.15625 C 164.4375 41.851562 166.574219 44.230469 169.433594 44.476562 C 172.292969 44.71875 174.566406 42.65625 174.789062 39.960938 L 175.035156 36.800781 C 176.3125 36.949219 177.28125 38.027344 177.3125 39.308594 C 181.304688 40.484375 184.523438 43.515625 185.960938 47.449219 L 191.722656 58.773438 L 189.75 74.238281 C 189.683594 74.203125 189.621094 74.15625 189.550781 74.132812 L 184.089844 71.824219 C 184.074219 71.8125 184.054688 71.800781 184.035156 71.789062 C 183.5625 71.554688 183.046875 71.445312 182.507812 71.523438 L 175.808594 72.4375 L 154.140625 69.472656 C 150.679688 69.367188 147.882812 72.28125 148.128906 75.742188 C 148.316406 78.425781 150.285156 80.554688 152.796875 81.066406 C 152.730469 81.054688 152.664062 81.058594 152.601562 81.046875 C 148.773438 80.390625 146.601562 77.121094 147.292969 73.0625 Z M 147.292969 73.0625 " fill-opacity="1" fill-rule="nonzero"/><g clip-path="url(#cea1ba88c7)"><path fill="#293237" d="M 162.769531 23 C 162.566406 18.359375 163.976562 16.90625 166.152344 17.390625 C 168.933594 15.007812 170.988281 14.160156 170.183594 15.492188 C 175.582031 15.25 182.148438 16.21875 181.664062 19.285156 C 181.308594 21.546875 180.191406 24.941406 179.625 26.574219 L 179.722656 23.847656 C 179.75 23.097656 179.652344 22.371094 179.457031 21.683594 C 177.019531 22.675781 174.945312 20.285156 169.261719 21.414062 C 168.96875 23.394531 169.730469 26.023438 169.175781 27.675781 C 169.175781 27.675781 168.753906 27.664062 168.253906 27.6875 L 168.222656 27.507812 C 168.097656 26.785156 167.84375 25.730469 166.730469 25.921875 C 165.617188 26.109375 164.917969 27.433594 165.160156 28.878906 C 165.265625 29.488281 165.601562 30 166.085938 30.375 L 165.898438 31.53125 C 164.488281 29.277344 162.90625 26.132812 162.769531 23 Z M 328.40625 135.148438 L 329.332031 133.058594 L 329.808594 131.980469 C 329.230469 131.066406 328.792969 129.496094 330.046875 129.003906 C 330.886719 128.675781 331.730469 129.28125 332.316406 129.945312 L 332.515625 129.796875 C 332.613281 129.597656 332.714844 129.414062 332.816406 129.238281 C 332.847656 129.183594 332.882812 129.132812 332.914062 129.078125 C 332.984375 128.964844 333.054688 128.855469 333.128906 128.757812 C 333.167969 128.699219 333.207031 128.648438 333.246094 128.597656 C 333.316406 128.507812 333.382812 128.421875 333.453125 128.34375 C 333.492188 128.296875 333.535156 128.25 333.574219 128.207031 C 333.648438 128.132812 333.71875 128.0625 333.789062 127.996094 C 333.828125 127.960938 333.871094 127.925781 333.910156 127.890625 C 333.992188 127.824219 334.074219 127.765625 334.15625 127.707031 C 334.1875 127.6875 334.214844 127.660156 334.25 127.640625 C 334.480469 127.496094 334.71875 127.390625 334.960938 127.320312 C 334.984375 127.3125 335.011719 127.308594 335.035156 127.300781 C 335.132812 127.273438 335.226562 127.253906 335.324219 127.238281 C 335.359375 127.234375 335.390625 127.230469 335.425781 127.226562 C 335.515625 127.21875 335.609375 127.210938 335.699219 127.207031 C 335.734375 127.207031 335.765625 127.207031 335.796875 127.207031 C 335.894531 127.207031 335.996094 127.214844 336.09375 127.222656 C 336.117188 127.226562 336.144531 127.226562 336.167969 127.230469 C 338.449219 127.492188 340.890625 129.882812 342.679688 129.902344 C 343.152344 129.910156 343.582031 129.753906 343.949219 129.347656 C 345.851562 127.222656 346.71875 125.367188 344.566406 124.398438 C 343.054688 123.710938 336.171875 120.792969 336.171875 120.792969 C 333.179688 119.394531 330.875 119.980469 329.378906 122.90625 C 325.285156 123.945312 326.390625 128.640625 326.390625 128.640625 C 323.984375 132.101562 328.40625 135.148438 328.40625 135.148438 Z M 41.253906 271.203125 C 39.316406 273.222656 34.511719 275.582031 30.824219 276.976562 C 30.261719 277.191406 29.726562 277.378906 29.230469 277.542969 C 27.058594 278.261719 26.433594 279.261719 26.207031 280.257812 C 26.089844 280.785156 26.460938 281.292969 27 281.34375 L 49.382812 283.378906 C 49.847656 283.421875 50.265625 283.097656 50.34375 282.640625 C 50.40625 282.261719 50.476562 281.765625 50.542969 281.191406 C 50.757812 279.296875 50.898438 276.515625 50.335938 274.023438 C 47.96875 274.972656 43.878906 275.417969 41.253906 271.203125 Z M 81.4375 263.035156 C 80.542969 261.226562 79.070312 258.667969 77.132812 256.773438 C 75.570312 258.984375 72.183594 261.742188 67.417969 259.503906 C 66.855469 262.421875 63.933594 267.296875 61.453125 270.671875 C 61.074219 271.183594 60.707031 271.660156 60.359375 272.09375 C 58.835938 273.988281 58.855469 275.238281 59.226562 276.257812 C 59.425781 276.792969 60.050781 277.03125 60.554688 276.765625 L 78.417969 267.367188 L 78.417969 264.949219 L 82.144531 264.949219 C 82.167969 264.78125 82.164062 264.605469 82.09375 264.441406 C 81.929688 264.070312 81.710938 263.585938 81.4375 263.035156 Z M 84.464844 143.730469 C 84.527344 143.832031 84.578125 143.941406 84.648438 144.039062 C 84.730469 144.160156 84.824219 144.269531 84.914062 144.382812 C 84.992188 144.472656 85.0625 144.570312 85.140625 144.660156 C 85.238281 144.765625 85.347656 144.863281 85.449219 144.960938 C 85.539062 145.042969 85.625 145.128906 85.714844 145.207031 C 85.824219 145.300781 85.941406 145.386719 86.058594 145.472656 C 86.15625 145.546875 86.253906 145.621094 86.359375 145.691406 C 86.476562 145.769531 86.601562 145.847656 86.726562 145.921875 C 86.835938 145.984375 86.945312 146.050781 87.058594 146.113281 C 87.1875 146.179688 87.316406 146.246094 87.449219 146.308594 C 87.566406 146.367188 87.683594 146.425781 87.804688 146.476562 C 87.9375 146.535156 88.074219 146.59375 88.210938 146.648438 C 88.335938 146.695312 88.460938 146.742188 88.585938 146.789062 C 88.726562 146.839844 88.863281 146.890625 89.003906 146.933594 C 89.132812 146.976562 89.261719 147.019531 89.394531 147.058594 C 89.53125 147.097656 89.671875 147.140625 89.8125 147.175781 C 89.945312 147.214844 90.082031 147.246094 90.21875 147.28125 C 90.355469 147.316406 90.492188 147.347656 90.625 147.378906 C 90.765625 147.410156 90.90625 147.441406 91.046875 147.46875 C 91.175781 147.496094 91.308594 147.523438 91.4375 147.546875 C 91.585938 147.574219 91.726562 147.597656 91.871094 147.621094 C 91.992188 147.644531 92.117188 147.664062 92.234375 147.683594 C 92.386719 147.707031 92.539062 147.726562 92.6875 147.75 C 92.792969 147.761719 92.902344 147.777344 93.003906 147.792969 C 93.175781 147.816406 93.339844 147.832031 93.503906 147.851562 C 93.582031 147.863281 93.664062 147.871094 93.738281 147.878906 C 93.976562 147.90625 94.203125 147.929688 94.421875 147.953125 C 94.402344 148.066406 94.386719 148.203125 94.375 148.34375 C 94.375 148.367188 94.371094 148.394531 94.371094 148.421875 C 94.296875 149.519531 94.488281 151.269531 95.425781 152.515625 L 95.765625 151.339844 C 96 150.527344 96.425781 149.355469 97.675781 149.714844 C 98.503906 149.953125 99.054688 150.746094 99.199219 151.722656 C 99.851562 150.320312 100.128906 148.792969 100.046875 147.289062 C 102.75 148.90625 106.292969 148.234375 108.203125 145.644531 C 110.238281 142.882812 109.652344 138.992188 106.898438 136.957031 C 104.144531 134.917969 100.261719 135.503906 98.226562 138.261719 L 96.558594 140.527344 C 92.6875 137.429688 87.03125 137.902344 83.746094 141.683594 C 83.789062 142.007812 83.859375 142.3125 83.949219 142.601562 C 84.078125 143.011719 84.257812 143.382812 84.464844 143.730469 Z M 76.773438 180.457031 C 76.792969 180.460938 76.816406 180.460938 76.835938 180.460938 C 76.992188 180.460938 77.128906 180.351562 77.160156 180.195312 L 78.59375 172.804688 C 78.628906 172.625 78.511719 172.449219 78.332031 172.414062 C 78.152344 172.382812 77.980469 172.496094 77.945312 172.675781 L 76.511719 180.066406 C 76.476562 180.246094 76.59375 180.421875 76.773438 180.457031 Z M 90.914062 204.695312 L 90.621094 192.980469 L 106.585938 191.136719 C 106.6875 191.125 106.777344 191.066406 106.828125 190.984375 C 106.882812 190.898438 106.894531 190.792969 106.859375 190.699219 L 101.53125 175.300781 C 101.472656 175.128906 101.285156 175.035156 101.113281 175.097656 C 100.941406 175.15625 100.847656 175.34375 100.910156 175.515625 L 106.101562 190.523438 L 90.246094 192.355469 C 90.078125 192.375 89.949219 192.519531 89.953125 192.691406 L 90.25 204.59375 C 78.757812 202.847656 64.644531 200.703125 56.308594 199.4375 C 50.832031 198.605469 45.71875 202.386719 44.886719 207.894531 C 44.667969 209.335938 44.773438 210.75 45.136719 212.074219 C 45.238281 212.632812 45.382812 213.1875 45.582031 213.726562 C 46.273438 215.609375 47.058594 217.769531 47.890625 220.082031 C 47.960938 220.117188 48.019531 220.175781 48.046875 220.257812 L 59.488281 251.683594 C 59.550781 251.855469 59.464844 252.042969 59.292969 252.105469 C 59.253906 252.121094 59.214844 252.125 59.179688 252.125 C 59.042969 252.125 58.917969 252.042969 58.867188 251.910156 L 47.589844 220.9375 C 47.363281 221.414062 47.164062 221.902344 47.015625 222.414062 C 46.714844 223.089844 46.46875 223.800781 46.308594 224.542969 C 45.074219 230.15625 43.269531 238.070312 41.589844 245.382812 C 39.25 255.554688 36.96875 265.34375 36.96875 265.34375 L 55.851562 269.609375 C 55.851562 269.609375 56.519531 266.742188 57.285156 263.441406 C 58.011719 260.304688 58.996094 256.066406 60.050781 251.476562 L 77.839844 245.003906 L 69.355469 222.125 C 69.3125 222.019531 69.332031 221.894531 69.40625 221.804688 C 69.476562 221.714844 69.59375 221.667969 69.703125 221.683594 L 91.015625 224.351562 C 91.199219 224.371094 91.324219 224.539062 91.304688 224.71875 C 91.28125 224.902344 91.113281 225.035156 90.933594 225.007812 L 70.164062 222.40625 L 73.59375 231.65625 L 101.605469 226.386719 C 102.519531 226.214844 103.371094 225.914062 104.160156 225.519531 C 107.207031 224.175781 109.53125 221.347656 110.066406 217.800781 C 110.152344 217.238281 110.183594 216.679688 110.175781 216.128906 L 110.320312 216.128906 L 110.320312 205.769531 L 96.753906 205.582031 C 94.929688 205.304688 92.964844 205.007812 90.914062 204.695312 Z M 367.582031 281.28125 C 367.582031 281.28125 366.195312 277.820312 360.351562 277.363281 C 357.921875 277.175781 353.550781 277.839844 351.382812 273.539062 C 350.691406 272.171875 350.503906 270.148438 350.511719 268.265625 L 354.71875 267.992188 C 354.71875 267.992188 351.433594 253.640625 348.675781 243.96875 C 347.78125 240.824219 346.855469 237.558594 345.972656 234.433594 C 345.933594 233.714844 345.816406 232.988281 345.601562 232.265625 C 343.347656 224.699219 338.691406 207.144531 335.140625 194.183594 L 301.421875 188.125 C 298.492188 199.433594 294.546875 215.742188 291.882812 225.757812 L 301.28125 225.757812 L 301.28125 229.511719 L 299.246094 229.511719 L 299.246094 261.289062 L 301.28125 261.289062 L 301.28125 264.957031 L 302.058594 264.957031 C 302.714844 262.90625 303.753906 259.613281 304.339844 257.570312 C 305.746094 252.660156 307.199219 247.613281 308.683594 242.375 C 309.671875 238.882812 310.675781 235.308594 311.679688 231.632812 C 311.695312 231.578125 311.703125 231.523438 311.71875 231.46875 C 312.058594 230.332031 312.367188 229.296875 312.570312 228.617188 C 314.152344 223.382812 316.265625 214.515625 318.160156 206.25 L 316.6875 201.164062 C 316.636719 200.988281 316.738281 200.804688 316.914062 200.753906 C 317.085938 200.703125 317.269531 200.804688 317.324219 200.980469 L 319.167969 207.34375 C 319.214844 207.519531 319.117188 207.703125 318.941406 207.753906 C 318.910156 207.761719 318.878906 207.769531 318.847656 207.769531 C 318.804688 207.769531 318.765625 207.746094 318.726562 207.726562 C 319.039062 208.867188 319.324219 209.878906 319.566406 210.6875 L 327.167969 236.46875 C 329.644531 245.285156 332.695312 255.949219 334.472656 262.132812 C 335.371094 265.269531 336.492188 269.171875 336.492188 269.171875 L 339.894531 268.953125 L 339.261719 284.945312 Z M 305.984375 168.679688 C 306.015625 168.6875 306.046875 168.691406 306.078125 168.691406 C 306.21875 168.691406 306.351562 168.597656 306.394531 168.453125 L 310.492188 154.21875 C 310.542969 154.042969 310.441406 153.859375 310.265625 153.808594 C 310.089844 153.757812 309.90625 153.859375 309.855469 154.035156 L 305.757812 168.269531 C 305.707031 168.445312 305.808594 168.628906 305.984375 168.679688 Z M 339.914062 162.050781 L 337.980469 179.238281 C 337.960938 179.417969 338.089844 179.582031 338.273438 179.605469 C 338.285156 179.605469 338.296875 179.605469 338.3125 179.605469 C 338.476562 179.605469 338.617188 179.480469 338.636719 179.3125 L 340.570312 162.128906 C 340.589844 161.945312 340.460938 161.78125 340.277344 161.761719 C 340.097656 161.738281 339.933594 161.871094 339.914062 162.050781 Z M 164.4375 54.820312 C 164.464844 54.640625 164.339844 54.46875 164.15625 54.445312 C 163.984375 54.421875 163.808594 54.542969 163.785156 54.726562 L 161.527344 70.484375 L 162.179688 70.574219 Z M 188.292969 73.601562 L 186.101562 56.640625 C 186.078125 56.460938 185.910156 56.328125 185.730469 56.355469 C 185.550781 56.378906 185.421875 56.546875 185.445312 56.726562 L 187.589844 73.304688 Z M 182.511719 73.261719 L 185.769531 74.691406 L 188.417969 79.640625 C 188.476562 79.75 188.589844 79.8125 188.707031 79.8125 C 188.761719 79.8125 188.816406 79.800781 188.863281 79.773438 C 189.023438 79.6875 189.085938 79.488281 189 79.328125 L 186.246094 74.179688 L 182.777344 72.65625 C 182.613281 72.582031 182.417969 72.65625 182.34375 72.824219 C 182.269531 72.992188 182.34375 73.1875 182.511719 73.261719 Z M 182.679688 73.980469 L 180.175781 74.105469 C 179.992188 74.117188 179.851562 74.269531 179.859375 74.453125 C 179.867188 74.636719 179.988281 74.785156 180.207031 74.765625 L 182.714844 74.640625 C 183.226562 74.625 183.695312 74.929688 183.859375 75.410156 L 185.160156 79.234375 C 185.207031 79.375 185.335938 79.460938 185.472656 79.460938 C 185.507812 79.460938 185.542969 79.453125 185.578125 79.441406 C 185.75 79.382812 185.84375 79.195312 185.785156 79.023438 L 184.484375 75.195312 C 184.222656 74.4375 183.476562 73.941406 182.679688 73.980469 Z M 169.242188 47.0625 C 169.320312 47.0625 169.398438 47.035156 169.460938 46.976562 C 169.597656 46.855469 169.609375 46.644531 169.488281 46.507812 C 168.296875 45.175781 163.050781 42.839844 160.261719 42.65625 C 160.082031 42.660156 159.921875 42.785156 159.910156 42.964844 C 159.898438 43.148438 160.035156 43.304688 160.21875 43.320312 C 162.753906 43.484375 167.917969 45.746094 168.996094 46.953125 C 169.0625 47.023438 169.152344 47.0625 169.242188 47.0625 Z M 189.601562 81.121094 L 224.042969 81.121094 C 224.445312 81.121094 224.8125 80.796875 224.863281 80.394531 L 228.035156 55.5 C 228.085938 55.097656 227.800781 54.773438 227.398438 54.773438 L 192.957031 54.773438 C 192.558594 54.773438 192.1875 55.097656 192.140625 55.5 L 189.585938 75.535156 L 189.191406 74.9375 L 186.664062 73.246094 C 186.511719 73.144531 186.304688 73.1875 186.203125 73.339844 C 186.105469 73.492188 186.148438 73.699219 186.300781 73.800781 L 188.675781 75.355469 L 189.457031 76.542969 L 189.011719 80.027344 L 179.640625 79.328125 L 161.757812 81.121094 L 182.179688 81.121094 C 182.347656 81.121094 182.511719 81.140625 182.675781 81.148438 C 182.664062 81.113281 182.65625 81.078125 182.65625 81.035156 C 182.65625 80.855469 182.804688 80.707031 182.984375 80.707031 L 189.015625 80.726562 C 189.105469 80.957031 189.320312 81.121094 189.601562 81.121094 Z M 209.488281 81.457031 L 207.691406 81.449219 C 207.097656 81.382812 206.484375 81.378906 205.847656 81.445312 L 184.445312 81.375 C 189.164062 82.414062 192.695312 86.621094 192.695312 91.660156 L 192.695312 101.179688 C 193.335938 101.125 193.972656 101.066406 194.609375 100.996094 L 198.039062 100.65625 C 198.816406 110.679688 200.332031 122.972656 202.234375 134.429688 L 214.214844 134.429688 L 214.214844 88.804688 C 214.179688 87.90625 214.015625 87.066406 213.746094 86.296875 C 213.382812 84.40625 212.40625 82.613281 209.488281 81.457031 Z M 225.210938 81.015625 C 225.238281 81.066406 225.257812 81.117188 225.257812 81.175781 C 225.257812 81.359375 225.109375 81.503906 224.925781 81.503906 L 211.019531 81.460938 C 214.40625 83.382812 214.542969 86.378906 214.648438 88.835938 L 214.695312 99.015625 L 217 98.789062 C 219.277344 108.996094 222.839844 122.117188 226.980469 134.238281 L 239.289062 133.90625 L 231.777344 87.40625 C 231.089844 84.125 228.28125 81.691406 225.210938 81.015625 Z M 225.210938 81.015625 " fill-opacity="1" fill-rule="evenodd"/></g><path fill="#f5c0a2" d="M 238.835938 133.917969 C 238.933594 134.308594 239.042969 134.726562 239.160156 135.171875 C 237.800781 135.070312 236.390625 135.617188 235.949219 136.582031 C 234.558594 135.683594 233.878906 137.121094 232.210938 137.121094 C 230.71875 137.121094 230.515625 136.167969 229.847656 136.148438 C 229.695312 135.546875 229.527344 134.878906 229.351562 134.175781 Z M 203.898438 134.433594 C 204.019531 135 204.144531 135.542969 204.261719 136.050781 C 205.074219 135.867188 204.617188 137.070312 206.246094 137.070312 C 207.914062 137.070312 208.042969 136.09375 209.433594 136.992188 C 209.902344 135.964844 211.863281 135.230469 213.617188 135.277344 C 213.566406 134.988281 213.527344 134.707031 213.484375 134.429688 L 203.898438 134.429688 Z M 87.339844 193.019531 C 84.996094 191.742188 84.039062 190.132812 83.691406 190.316406 C 82.328125 191.054688 83.117188 192.507812 83.867188 193.574219 C 84.480469 194.421875 84.578125 195.03125 84.578125 195.03125 C 82.050781 195.191406 80.910156 194.578125 79.273438 194.078125 C 77.621094 193.570312 77.257812 193.75 77.0625 194.003906 C 76.71875 194.433594 76.644531 195.136719 77.074219 195.410156 C 77.691406 195.820312 79.609375 196.257812 80.8125 196.675781 C 81.757812 196.992188 81.40625 196.96875 81.40625 196.96875 C 80.746094 197.113281 76.691406 196.945312 75.382812 196.976562 C 75.082031 196.976562 74.578125 198.316406 75.199219 198.59375 C 75.226562 198.546875 75.269531 198.507812 75.328125 198.511719 L 81.121094 198.769531 C 81.203125 198.773438 81.269531 198.847656 81.265625 198.929688 C 81.265625 199.015625 81.195312 199.078125 81.113281 199.078125 C 81.109375 199.078125 81.109375 199.078125 81.105469 199.078125 L 75.894531 198.847656 C 75.5625 198.949219 75.542969 199.914062 75.898438 200.054688 C 76.160156 200.164062 76.792969 200.261719 77.488281 200.335938 C 77.519531 200.296875 77.558594 200.261719 77.613281 200.265625 L 81.050781 200.4375 C 81.132812 200.441406 81.199219 200.515625 81.195312 200.601562 C 81.191406 200.683594 81.125 200.746094 81.042969 200.746094 C 81.039062 200.746094 81.035156 200.746094 81.035156 200.746094 L 77.601562 200.574219 C 77.523438 200.574219 77.472656 200.511719 77.464844 200.441406 C 77.394531 200.714844 77.402344 201.585938 80.179688 201.847656 C 81.320312 201.964844 87.320312 202.0625 87.320312 202.0625 L 90.503906 201.554688 L 90.335938 194.726562 C 89.402344 194.082031 88.097656 193.4375 87.339844 193.019531 Z M 73.007812 246.761719 L 64.019531 250.035156 C 64.09375 250.214844 64.160156 250.390625 64.242188 250.574219 C 66.34375 254.800781 67.1875 257.3125 67.417969 259.507812 C 67.417969 259.503906 67.417969 259.503906 67.417969 259.503906 C 72.183594 261.742188 75.570312 258.984375 77.128906 256.773438 C 77.132812 256.773438 77.132812 256.777344 77.132812 256.777344 C 75.21875 253.175781 73.097656 247.039062 73.097656 247.039062 C 73.070312 246.941406 73.039062 246.855469 73.007812 246.761719 Z M 41.25 271.203125 C 41.25 271.203125 41.253906 271.203125 41.253906 271.203125 C 43.878906 275.417969 47.96875 274.972656 50.335938 274.023438 C 50.335938 274.023438 50.335938 274.027344 50.335938 274.027344 C 50.476562 272.378906 50.824219 270.34375 51.179688 268.554688 L 42.695312 266.636719 C 42.308594 268.628906 41.84375 270.03125 41.25 271.203125 Z M 53.238281 177.78125 C 52.882812 177.507812 52.433594 177.660156 52.152344 177.976562 C 51.65625 178.527344 53.019531 181.777344 53.019531 181.777344 C 51.171875 180.949219 47.785156 178.878906 47.351562 178.722656 C 46.53125 178.453125 46.023438 179.472656 46.652344 179.976562 C 47.003906 180.246094 47.878906 180.816406 48.609375 181.289062 L 46.238281 180.039062 C 46.175781 180.007812 46.105469 180.027344 46.0625 180.078125 C 45.953125 180.03125 45.855469 179.996094 45.769531 179.972656 C 44.996094 179.789062 44.507812 180.667969 45.03125 181.082031 C 45.230469 181.242188 45.390625 181.363281 45.515625 181.457031 C 45.503906 181.46875 45.484375 181.476562 45.476562 181.492188 C 45.464844 181.515625 45.46875 181.542969 45.46875 181.570312 C 45.269531 181.503906 45.003906 181.414062 44.820312 181.5 C 44.601562 181.59375 44.4375 181.917969 44.453125 182.160156 C 44.480469 182.34375 44.636719 182.519531 44.921875 182.710938 C 44.949219 182.734375 44.980469 182.753906 45.011719 182.777344 C 44.96875 182.851562 44.992188 182.945312 45.066406 182.988281 L 45.769531 183.402344 C 45.71875 183.382812 45.671875 183.359375 45.621094 183.34375 C 45.199219 183.199219 44.660156 183.875 45.113281 184.296875 C 45.992188 185.078125 48.449219 187.109375 50.746094 188.289062 C 51.570312 188.71875 52.199219 188.960938 52.703125 189.082031 C 52.949219 189.347656 53.214844 189.636719 53.472656 189.914062 L 58.59375 183.601562 C 57.507812 182.828125 56.765625 182.3125 56.511719 182.136719 C 55.273438 180.574219 54.101562 178.480469 53.238281 177.78125 Z M 169.433594 44.476562 C 172.292969 44.71875 174.566406 42.65625 174.789062 39.960938 L 175.066406 36.382812 C 175.195312 36.351562 175.324219 36.324219 175.453125 36.28125 C 177.820312 35.554688 179.371094 33.402344 179.460938 31.054688 L 179.722656 23.847656 C 179.75 23.097656 179.652344 22.371094 179.457031 21.6875 C 177.019531 22.675781 174.945312 20.289062 169.261719 21.414062 C 168.96875 23.398438 169.730469 26.023438 169.175781 27.675781 C 169.175781 27.675781 168.753906 27.667969 168.253906 27.6875 L 168.222656 27.507812 C 168.097656 26.785156 167.84375 25.730469 166.730469 25.921875 C 165.617188 26.109375 164.917969 27.4375 165.160156 28.882812 C 165.265625 29.488281 165.601562 30 166.085938 30.375 L 164.660156 39.15625 C 164.4375 41.851562 166.574219 44.230469 169.433594 44.476562 Z M 369.898438 156.847656 C 369.867188 156.632812 369.574219 156.476562 369.355469 156.484375 C 369.292969 156.488281 369.238281 156.492188 369.191406 156.492188 L 369.488281 156.097656 C 369.539062 156.027344 369.527344 155.933594 369.457031 155.878906 C 369.445312 155.871094 369.429688 155.875 369.417969 155.871094 C 369.5 155.730469 369.601562 155.550781 369.730469 155.320312 C 370.066406 154.726562 369.441406 154.175781 368.84375 154.679688 C 368.777344 154.738281 368.699219 154.816406 368.621094 154.902344 C 368.558594 154.871094 368.484375 154.878906 368.4375 154.9375 L 367 156.785156 C 367.441406 156.121094 367.910156 155.410156 368.105469 155.074219 C 368.507812 154.355469 367.832031 153.683594 367.214844 154.285156 C 366.9375 154.566406 364.695312 157.578125 363.203125 159.421875 C 363.292969 158.507812 363.398438 157.523438 363.480469 156.84375 C 363.644531 155.511719 362.507812 155.199219 361.902344 156.003906 C 361.402344 156.671875 361.070312 158.347656 360.074219 160.570312 C 359.816406 160.921875 359.492188 161.367188 359.148438 161.847656 L 364.324219 167.136719 L 365.789062 165.292969 L 365.773438 165.273438 C 366.054688 164.984375 366.371094 164.628906 366.730469 164.167969 C 368.359375 162.113281 369.042969 160.558594 369.449219 159.285156 C 369.582031 158.859375 369.335938 158.542969 369.082031 158.53125 L 369.601562 157.789062 C 369.636719 157.738281 369.628906 157.683594 369.601562 157.632812 C 369.621094 157.601562 369.636719 157.578125 369.65625 157.546875 C 369.835938 157.246094 369.933594 157.03125 369.898438 156.847656 Z M 332.515625 129.796875 L 332.316406 129.945312 C 331.730469 129.28125 330.886719 128.675781 330.046875 129.003906 C 328.792969 129.496094 329.230469 131.070312 329.808594 131.980469 L 328.542969 134.839844 L 327.308594 137.804688 L 334.945312 141.5 L 335.265625 140.730469 C 336.246094 140.929688 337.140625 140.792969 337.902344 140.460938 C 339.246094 139.867188 339.898438 138.105469 341.015625 135.390625 C 341.761719 133.574219 342.429688 131.535156 342.679688 129.902344 C 339.851562 129.871094 335.394531 123.914062 332.515625 129.796875 Z M 97.679688 149.714844 C 96.429688 149.355469 96 150.527344 95.765625 151.339844 L 95.429688 152.511719 C 94.34375 151.074219 94.253906 148.949219 94.425781 147.949219 C 91.023438 147.621094 85.238281 146.792969 83.953125 142.597656 C 83.378906 143.515625 82.984375 144.5625 82.824219 145.703125 L 81.675781 153.941406 C 81.308594 156.628906 82.632812 159.382812 85.175781 160.6875 C 85.628906 160.917969 86.09375 161.085938 86.5625 161.207031 C 86.695312 163.210938 87.460938 164.542969 89.941406 164.777344 C 92.15625 164.984375 95.894531 162.945312 95.914062 160.472656 L 95.554688 155.308594 C 95.6875 155.367188 95.835938 155.40625 95.996094 155.40625 C 97.507812 155.390625 98.730469 154.574219 99.09375 153.3125 C 99.5625 151.6875 98.929688 150.074219 97.679688 149.714844 Z M 184.089844 71.824219 C 184.074219 71.8125 184.054688 71.800781 184.035156 71.792969 C 183.5625 71.554688 183.046875 71.449219 182.507812 71.523438 L 175.808594 72.4375 L 154.140625 69.472656 C 150.679688 69.367188 147.882812 72.28125 148.128906 75.742188 C 148.355469 78.96875 151.152344 81.402344 154.375 81.171875 L 173.378906 79.953125 L 179.640625 79.324219 L 179.691406 79.328125 C 180.65625 78.929688 181.742188 78.410156 182.742188 77.90625 C 182.96875 78.367188 183.1875 78.800781 183.34375 79.089844 C 183.476562 79.328125 183.625 79.503906 183.78125 79.632812 L 185.148438 79.738281 C 185.226562 79.632812 185.246094 79.5 185.242188 79.34375 C 185.210938 79.3125 185.175781 79.28125 185.160156 79.234375 L 183.863281 75.40625 C 183.695312 74.929688 183.226562 74.625 182.714844 74.640625 L 180.207031 74.765625 C 179.988281 74.785156 179.871094 74.632812 179.859375 74.453125 C 179.851562 74.269531 179.992188 74.113281 180.175781 74.105469 L 182.679688 73.976562 C 183.476562 73.9375 184.222656 74.4375 184.488281 75.191406 L 185.613281 78.511719 C 185.859375 78.824219 186.085938 79.105469 186.257812 79.308594 C 186.507812 79.605469 186.765625 79.777344 187.007812 79.875 L 187.871094 79.941406 C 187.960938 79.914062 188.039062 79.882812 188.09375 79.847656 C 188.246094 79.746094 188.320312 79.632812 188.347656 79.511719 L 185.769531 74.691406 L 182.511719 73.261719 C 182.34375 73.1875 182.269531 72.992188 182.34375 72.824219 C 182.417969 72.65625 182.613281 72.582031 182.777344 72.652344 L 186.246094 74.179688 L 189 79.324219 C 189.003906 79.332031 189.003906 79.335938 189.003906 79.34375 C 189.03125 79.367188 189.066406 79.394531 189.089844 79.417969 L 189.457031 76.542969 L 188.675781 75.355469 L 186.300781 73.796875 C 186.148438 73.695312 186.105469 73.492188 186.207031 73.339844 C 186.304688 73.1875 186.511719 73.144531 186.664062 73.242188 L 189.191406 74.933594 L 189.585938 75.535156 L 189.75 74.238281 C 189.683594 74.203125 189.625 74.15625 189.550781 74.128906 Z M 280.929688 147.148438 C 280.109375 145.363281 279.503906 143.007812 278.847656 142.117188 C 278.582031 141.777344 278.125 141.8125 277.789062 142.039062 C 277.191406 142.429688 277.679688 145.792969 277.679688 145.792969 C 276.15625 144.574219 273.496094 141.824219 273.128906 141.570312 C 272.429688 141.121094 271.707031 141.953125 272.175781 142.574219 C 272.429688 142.898438 273.082031 143.617188 273.644531 144.222656 L 271.777344 142.527344 C 271.722656 142.480469 271.652344 142.484375 271.59375 142.519531 C 271.507812 142.457031 271.425781 142.398438 271.351562 142.355469 C 270.675781 142 270.007812 142.699219 270.394531 143.210938 C 270.542969 143.40625 270.660156 143.558594 270.757812 143.679688 C 270.742188 143.6875 270.722656 143.683594 270.710938 143.699219 C 270.691406 143.71875 270.6875 143.746094 270.683594 143.769531 C 270.515625 143.664062 270.289062 143.519531 270.097656 143.554688 C 269.871094 143.589844 269.640625 143.847656 269.597656 144.082031 C 269.582031 144.257812 269.683594 144.460938 269.902344 144.707031 C 269.921875 144.734375 269.945312 144.761719 269.96875 144.785156 C 269.90625 144.847656 269.90625 144.945312 269.96875 145.003906 L 270.5 145.535156 C 270.46875 145.515625 270.4375 145.488281 270.40625 145.46875 C 270.046875 145.230469 269.378906 145.726562 269.699219 146.234375 C 270.332031 147.175781 272.136719 149.664062 273.996094 151.320312 C 274.328125 151.621094 274.625 151.863281 274.894531 152.0625 C 275.441406 152.695312 276.125 153.492188 276.910156 154.40625 L 282.738281 148.894531 C 282.152344 148.4375 281.617188 148.015625 281.160156 147.640625 C 281.089844 147.496094 281.011719 147.335938 280.929688 147.148438 Z M 280.929688 147.148438 " fill-opacity="1" fill-rule="nonzero"/><path fill="#e0e0e0" d="M 224.929688 80.84375 L 182.984375 80.707031 C 182.804688 80.707031 182.65625 80.855469 182.65625 81.035156 C 182.65625 81.21875 182.800781 81.367188 182.984375 81.367188 L 209.488281 81.453125 C 213.746094 83.144531 213.875 86.183594 213.988281 88.910156 L 214.042969 100.714844 C 214.042969 100.894531 214.191406 101.042969 214.371094 101.042969 C 214.375 101.042969 214.375 101.042969 214.375 101.042969 C 214.558594 101.042969 214.703125 100.894531 214.703125 100.710938 L 214.644531 88.835938 C 214.542969 86.378906 214.40625 83.382812 211.019531 81.460938 L 224.925781 81.503906 C 225.109375 81.503906 225.257812 81.359375 225.257812 81.175781 C 225.257812 80.992188 225.109375 80.84375 224.929688 80.84375 Z M 224.929688 80.84375 " fill-opacity="1" fill-rule="nonzero"/></svg>