<svg xmlns="http://www.w3.org/2000/svg" xmlns:xlink="http://www.w3.org/1999/xlink" width="540" zoomAndPan="magnify" viewBox="0 0 404.88 299.999988" height="400" preserveAspectRatio="xMidYMid meet" version="1.0"><defs><clipPath id="ad5e426797"><path d="M 205 13.640625 L 338.246094 13.640625 L 338.246094 286.5625 L 205 286.5625 Z M 205 13.640625 " clip-rule="nonzero"/></clipPath><clipPath id="f07d6f14b9"><path d="M 254 280 L 286 280 L 286 286.5625 L 254 286.5625 Z M 254 280 " clip-rule="nonzero"/></clipPath><clipPath id="4c0817d0dc"><path d="M 66.824219 16 L 206 16 L 206 281 L 66.824219 281 Z M 66.824219 16 " clip-rule="nonzero"/></clipPath><clipPath id="997dc53e60"><path d="M 66.824219 13.640625 L 323 13.640625 L 323 267 L 66.824219 267 Z M 66.824219 13.640625 " clip-rule="nonzero"/></clipPath><clipPath id="e1c43edf7c"><path d="M 71 59 L 338.246094 59 L 338.246094 277 L 71 277 Z M 71 59 " clip-rule="nonzero"/></clipPath><clipPath id="61dcc5d49d"><path d="M 254 280 L 286 280 L 286 286.5625 L 254 286.5625 Z M 254 280 " clip-rule="nonzero"/></clipPath><clipPath id="cdb84bc90f"><path d="M 304 271 L 328 271 L 328 286.5625 L 304 286.5625 Z M 304 271 " clip-rule="nonzero"/></clipPath></defs><path fill="#eaeaea" d="M 243.429688 222.089844 C 243.414062 220.0625 243.242188 218.019531 242.933594 215.976562 L 255.925781 215.976562 C 257.757812 215.976562 259.242188 214.492188 259.242188 212.660156 L 259.242188 197.035156 C 258.25 197.445312 257.167969 197.683594 256.023438 197.683594 C 251.371094 197.683594 247.597656 193.910156 247.597656 189.253906 C 247.597656 184.597656 251.371094 180.824219 256.023438 180.824219 C 257.167969 180.824219 258.25 181.0625 259.242188 181.472656 L 259.242188 166.617188 C 259.242188 164.785156 257.757812 163.300781 255.925781 163.300781 L 240.015625 163.300781 C 240.648438 162.117188 241.007812 160.765625 241.007812 159.328125 C 241.007812 154.671875 237.234375 150.898438 232.582031 150.898438 C 227.925781 150.898438 224.152344 154.671875 224.152344 159.328125 C 224.152344 160.765625 224.515625 162.117188 225.148438 163.300781 L 209.882812 163.300781 C 208.050781 163.300781 206.566406 164.785156 206.566406 166.617188 L 206.566406 186.765625 C 205.09375 186.488281 203.601562 186.285156 202.089844 186.195312 L 199.5 178.8125 C 197.820312 178.824219 196.132812 178.945312 194.441406 179.160156 L 194.441406 155.632812 C 194.441406 153.800781 192.953125 152.316406 191.125 152.316406 L 175.210938 152.316406 C 175.84375 151.132812 176.207031 149.78125 176.207031 148.34375 C 176.207031 143.6875 172.433594 139.914062 167.777344 139.914062 C 163.125 139.914062 159.351562 143.6875 159.351562 148.34375 C 159.351562 149.78125 159.710938 151.132812 160.34375 152.316406 L 145.082031 152.316406 C 143.25 152.316406 141.765625 153.800781 141.765625 155.632812 L 141.765625 201.675781 C 141.765625 203.507812 143.25 204.992188 145.082031 204.992188 L 159.878906 204.992188 C 159.5 205.859375 159.140625 206.738281 158.820312 207.628906 L 164.910156 212.523438 C 164.203125 214.996094 163.761719 217.550781 163.605469 220.152344 L 156.222656 222.742188 C 156.238281 225.1875 156.472656 227.652344 156.917969 230.117188 L 164.632812 231.300781 C 164.949219 232.546875 165.328125 233.777344 165.78125 235.011719 C 166.238281 236.234375 166.75 237.417969 167.320312 238.570312 L 162.234375 244.488281 C 163.5 246.648438 164.921875 248.671875 166.5 250.539062 L 173.792969 247.703125 C 175.605469 249.578125 177.601562 251.230469 179.75 252.65625 L 178.308594 260.328125 C 180.457031 261.546875 182.710938 262.582031 185.035156 263.425781 L 189.921875 257.335938 C 192.40625 258.039062 194.957031 258.484375 197.558594 258.640625 L 200.152344 266.023438 C 202.597656 266.007812 205.058594 265.769531 207.523438 265.328125 L 208.707031 257.613281 C 209.953125 257.296875 211.183594 256.917969 212.410156 256.464844 C 213.644531 256.007812 214.824219 255.496094 215.976562 254.921875 L 221.894531 260.011719 C 224.054688 258.746094 226.078125 257.324219 227.945312 255.742188 L 225.109375 248.449219 C 226.984375 246.640625 228.636719 244.644531 230.054688 242.492188 L 237.734375 243.9375 C 238.953125 241.785156 239.988281 239.53125 240.828125 237.207031 L 234.742188 232.320312 C 235.441406 229.839844 235.886719 227.285156 236.046875 224.683594 Z M 206.332031 240.023438 C 196.613281 243.613281 185.816406 238.648438 182.222656 228.929688 C 178.628906 219.207031 183.597656 208.40625 193.3125 204.816406 C 197.769531 203.164062 202.453125 203.324219 206.566406 204.90625 L 206.566406 212.660156 C 206.566406 214.492188 208.050781 215.976562 209.882812 215.976562 L 217.453125 215.976562 C 221 225.675781 216.03125 236.433594 206.332031 240.023438 Z M 206.332031 240.023438 " fill-opacity="1" fill-rule="nonzero"/><g clip-path="url(#ad5e426797)"><path fill="#eaeaea" d="M 338.164062 178.527344 C 338.164062 178.519531 338.164062 178.511719 338.164062 178.507812 C 338.144531 178.03125 338.03125 176.777344 337.875 175.210938 C 337.460938 171.082031 336.761719 164.777344 336.761719 164.773438 L 333.9375 139.488281 L 335.027344 139.269531 C 333.804688 127.1875 333.429688 112.898438 333.214844 110.070312 C 332.929688 106.734375 332.648438 103.398438 332.234375 100.070312 C 331.839844 96.933594 329.839844 94.402344 327.167969 93.171875 C 327.171875 93.148438 327.171875 93.128906 327.171875 93.128906 C 320.976562 90.457031 314.921875 88.683594 308.921875 87.824219 L 309.023438 89.148438 L 308.160156 77.738281 L 308.1875 78.058594 C 309.886719 77.761719 316.585938 76.191406 315.828125 70.105469 C 315.828125 70.105469 321.105469 64.046875 315.867188 59.328125 C 315.925781 53.855469 312.976562 51.195312 307.472656 50.929688 C 307.472656 50.929688 297.484375 50.082031 293.421875 49.785156 C 293.800781 48.660156 294.105469 47.503906 294.308594 46.324219 L 299.292969 45.175781 C 299.460938 43.582031 299.488281 41.964844 299.378906 40.332031 L 294.449219 39.003906 C 294.335938 38.171875 294.179688 37.34375 293.972656 36.511719 C 293.765625 35.679688 293.519531 34.875 293.230469 34.082031 L 296.96875 30.605469 C 296.300781 29.109375 295.523438 27.691406 294.632812 26.363281 L 289.6875 27.675781 C 288.648438 26.328125 287.464844 25.109375 286.175781 24.03125 L 287.671875 19.144531 C 286.363281 18.195312 284.972656 17.359375 283.523438 16.644531 L 279.902344 20.246094 C 278.34375 19.609375 276.714844 19.132812 275.039062 18.84375 L 273.890625 13.855469 C 272.300781 13.6875 270.679688 13.664062 269.046875 13.773438 L 267.71875 18.699219 C 266.886719 18.816406 266.058594 18.972656 265.222656 19.179688 C 264.394531 19.382812 263.589844 19.632812 262.796875 19.921875 L 259.320312 16.183594 C 257.828125 16.847656 256.40625 17.625 255.078125 18.515625 L 256.390625 23.460938 C 255.042969 24.503906 253.824219 25.6875 252.742188 26.976562 L 247.859375 25.480469 C 246.910156 26.789062 246.074219 28.175781 245.359375 29.628906 L 248.964844 33.25 C 248.324219 34.808594 247.851562 36.433594 247.558594 38.113281 L 242.574219 39.261719 C 242.40625 40.851562 242.382812 42.46875 242.492188 44.101562 L 247.417969 45.433594 C 247.53125 46.265625 247.6875 47.09375 247.894531 47.929688 C 248.101562 48.757812 248.347656 49.5625 248.636719 50.351562 L 246.976562 51.898438 L 240.140625 51.898438 C 240.761719 53.0625 241.117188 54.390625 241.117188 55.800781 C 241.117188 60.40625 237.386719 64.136719 232.78125 64.136719 C 228.179688 64.136719 224.449219 60.40625 224.449219 55.800781 C 224.449219 54.390625 224.804688 53.0625 225.421875 51.898438 L 208.621094 51.898438 C 206.804688 51.898438 205.328125 53.371094 205.328125 55.191406 L 205.328125 70.378906 C 206.527344 69.90625 207.855469 69.695312 209.257812 69.847656 C 213.300781 70.285156 216.488281 73.703125 216.628906 77.769531 C 216.796875 82.472656 213.03125 86.339844 208.363281 86.339844 C 207.292969 86.339844 206.269531 86.128906 205.328125 85.757812 L 205.328125 100.945312 C 205.328125 102.765625 206.804688 104.242188 208.621094 104.242188 L 214.632812 104.242188 C 214.582031 104.847656 215.007812 105.410156 215.964844 105.550781 C 216.285156 105.597656 216.6875 105.644531 217.140625 105.6875 C 216.804688 106.367188 217.050781 107.078125 218.039062 107.191406 C 218.464844 107.242188 219.109375 107.308594 219.871094 107.390625 C 220.054688 107.648438 220.335938 107.863281 220.730469 107.980469 C 222.472656 108.507812 225.800781 109.242188 227.082031 109.523438 C 227.425781 109.597656 227.769531 109.648438 228.121094 109.675781 C 228.121094 109.675781 234.8125 110.234375 235.816406 110.285156 L 235.835938 110.285156 C 236.066406 110.296875 236.300781 110.304688 236.535156 110.308594 L 250.78125 136.089844 C 253.203125 140.066406 258.386719 141.328125 262.363281 138.910156 C 263.042969 138.496094 265.902344 135.566406 268.8125 132.503906 L 271.808594 136.707031 L 276.730469 125.597656 L 276.859375 126.972656 C 276.875 127.140625 277.015625 127.265625 277.179688 127.265625 C 277.1875 127.265625 277.199219 127.265625 277.207031 127.261719 C 277.226562 127.261719 277.238281 127.253906 277.253906 127.25 C 277.507812 130.652344 277.664062 133.5 277.664062 135.25 C 277.664062 141.804688 276.667969 153.355469 276.667969 158.152344 C 276.667969 158.976562 277.0625 159.714844 277.679688 160.191406 L 277.484375 165.464844 C 277.503906 165.460938 277.523438 165.449219 277.546875 165.449219 C 277.335938 165.449219 277.164062 165.621094 277.164062 165.832031 C 277.164062 166.046875 277.335938 166.21875 277.546875 166.21875 C 277.515625 166.21875 277.484375 166.207031 277.457031 166.199219 L 275.753906 212.523438 L 273.53125 264.765625 L 273.875 264.765625 C 273.621094 267.9375 273.15625 270.078125 272.449219 271.863281 C 275.921875 276.445312 280.464844 276.085938 283.488281 274.886719 C 280.464844 276.085938 275.921875 276.445312 272.449219 271.863281 C 270.1875 274.691406 264.257812 278.292969 259.664062 280.523438 L 261.660156 283.640625 L 285.605469 283.640625 C 285.664062 281.179688 285.519531 277.582031 284.5 274.4375 C 284.484375 271.472656 284.898438 267.496094 285.238281 264.765625 L 286.546875 264.765625 C 289.378906 255.359375 295.957031 232.171875 292.746094 215.511719 L 299.765625 167.949219 L 295.589844 167.6875 L 301.503906 168.058594 C 301.511719 168.058594 301.519531 168.058594 301.53125 168.058594 C 301.535156 168.058594 301.539062 168.058594 301.542969 168.058594 C 301.542969 168.058594 301.539062 168.058594 301.539062 168.058594 L 304.492188 264.761719 L 305.222656 264.761719 C 305.214844 264.96875 305.207031 265.160156 305.207031 265.371094 C 305.207031 269.082031 304.988281 271.917969 304.808594 275.871094 C 304.796875 276.167969 304.78125 276.472656 304.769531 276.78125 C 304.765625 276.894531 304.757812 277.015625 304.753906 277.132812 C 304.75 277.308594 304.742188 277.484375 304.734375 277.664062 C 304.726562 277.855469 304.71875 278.050781 304.714844 278.246094 C 304.710938 278.359375 304.707031 278.472656 304.703125 278.589844 C 304.695312 278.824219 304.6875 279.0625 304.679688 279.304688 C 304.675781 279.375 304.675781 279.445312 304.671875 279.515625 C 304.621094 281.238281 304.585938 283.171875 304.574219 285.429688 C 304.574219 286.070312 305.089844 286.59375 305.730469 286.59375 L 326.011719 286.59375 C 326.71875 286.59375 327.269531 285.964844 327.15625 285.265625 C 326.726562 282.640625 325.039062 280.792969 323.113281 279.039062 C 323.113281 279.039062 323.117188 279.039062 323.117188 279.039062 C 323.046875 278.976562 322.976562 278.914062 322.90625 278.851562 C 322.328125 278.328125 321.734375 277.8125 321.144531 277.28125 C 321.007812 277.160156 320.871094 277.035156 320.734375 276.910156 C 320.589844 276.777344 320.445312 276.640625 320.304688 276.507812 C 320.15625 276.367188 320.015625 276.230469 319.875 276.085938 C 319.746094 275.960938 319.617188 275.832031 319.492188 275.699219 C 319.34375 275.550781 319.207031 275.394531 319.066406 275.238281 C 318.953125 275.109375 318.835938 274.980469 318.726562 274.851562 C 318.582031 274.679688 318.449219 274.503906 318.316406 274.328125 C 318.21875 274.203125 318.121094 274.078125 318.027344 273.949219 C 317.886719 273.746094 317.757812 273.535156 317.628906 273.324219 C 317.558594 273.207031 317.480469 273.097656 317.414062 272.980469 C 317.230469 272.648438 317.0625 272.304688 316.914062 271.949219 C 316.914062 271.945312 316.910156 271.9375 316.90625 271.933594 C 316.847656 271.785156 316.796875 271.636719 316.742188 271.488281 C 315.921875 269.261719 315.789062 267.015625 315.871094 264.761719 L 317.484375 264.761719 C 318.574219 258.289062 320.625 245.863281 321.609375 238.488281 C 322.980469 228.175781 320.945312 213.023438 320.945312 213.023438 L 321.863281 166.214844 C 321.867188 166.214844 321.871094 166.214844 321.871094 166.214844 C 322.082031 166.214844 322.253906 166.042969 322.253906 165.832031 C 322.253906 165.625 322.089844 165.457031 321.878906 165.453125 L 321.980469 160.320312 C 322.683594 159.851562 323.144531 159.0625 323.144531 158.171875 C 323.144531 156 322.9375 152.429688 322.714844 148.566406 C 324.59375 155.28125 326.789062 163.105469 327.578125 165.917969 L 327.570312 165.917969 C 327.402344 165.972656 327.304688 166.152344 327.355469 166.320312 C 327.378906 166.394531 327.429688 166.449219 327.488281 166.492188 C 327.429688 166.582031 327.363281 166.675781 327.3125 166.765625 C 326.066406 169.066406 325.824219 170.621094 326.1875 173.921875 C 326.070312 173.992188 326.011719 174.121094 326.035156 174.253906 C 325.976562 174.238281 325.917969 174.210938 325.855469 174.203125 C 324.996094 174.101562 324.25 174.789062 324.285156 175.652344 L 324.46875 180.160156 C 324.484375 180.582031 324.6875 180.96875 325.023438 181.222656 L 328.183594 183.609375 C 328.359375 183.917969 328.570312 184.191406 328.839844 184.402344 C 329.042969 184.566406 329.296875 184.648438 329.554688 184.648438 C 329.5625 184.648438 329.566406 184.648438 329.570312 184.648438 C 330.066406 184.984375 330.71875 184.980469 331.203125 184.617188 L 337.613281 179.777344 C 337.980469 179.5 338.1875 179.0625 338.171875 178.601562 Z M 305.691406 276.054688 C 305.753906 276.058594 305.816406 276.058594 305.882812 276.058594 C 305.816406 276.058594 305.753906 276.058594 305.691406 276.054688 Z M 307.839844 275.191406 C 307.988281 275.0625 308.136719 274.925781 308.289062 274.761719 C 308.480469 274.558594 308.675781 274.363281 308.871094 274.171875 C 308.675781 274.363281 308.480469 274.558594 308.289062 274.761719 C 308.140625 274.925781 307.988281 275.0625 307.839844 275.191406 Z M 306.0625 276.042969 C 306.132812 276.035156 306.207031 276.023438 306.28125 276.007812 C 306.207031 276.023438 306.132812 276.035156 306.0625 276.042969 Z M 306.445312 275.972656 C 306.570312 275.941406 306.699219 275.898438 306.828125 275.84375 C 306.699219 275.898438 306.570312 275.941406 306.445312 275.972656 Z M 306.925781 275.796875 C 307.03125 275.746094 307.140625 275.6875 307.253906 275.621094 C 307.140625 275.6875 307.035156 275.746094 306.925781 275.796875 Z M 307.398438 275.527344 C 307.5 275.460938 307.601562 275.382812 307.707031 275.300781 C 307.601562 275.382812 307.5 275.460938 307.398438 275.527344 Z M 314.59375 271.195312 C 314.230469 271.214844 313.871094 271.265625 313.511719 271.347656 C 313.304688 271.398438 313.101562 271.457031 312.898438 271.527344 C 313.816406 271.21875 314.738281 271.113281 315.667969 271.238281 C 315.308594 271.191406 314.949219 271.175781 314.59375 271.195312 Z M 309.046875 274.003906 C 309.183594 273.875 309.324219 273.746094 309.460938 273.625 C 309.324219 273.746094 309.183594 273.875 309.046875 274.003906 Z M 309.664062 273.449219 C 309.804688 273.332031 309.941406 273.21875 310.082031 273.109375 C 309.941406 273.21875 309.804688 273.332031 309.664062 273.449219 Z M 310.261719 272.964844 C 310.660156 272.667969 311.058594 272.402344 311.460938 272.175781 C 311.0625 272.402344 310.660156 272.667969 310.261719 272.964844 Z M 311.644531 272.074219 C 311.789062 272 311.929688 271.925781 312.074219 271.859375 C 311.933594 271.925781 311.789062 272 311.644531 272.074219 Z M 312.28125 271.765625 C 312.425781 271.703125 312.570312 271.644531 312.714844 271.59375 C 312.570312 271.644531 312.425781 271.703125 312.28125 271.765625 Z M 316.203125 271.339844 C 316.042969 271.300781 315.882812 271.273438 315.71875 271.25 C 315.882812 271.273438 316.042969 271.300781 316.203125 271.339844 Z M 316.839844 161.339844 C 316.625 161.367188 316.410156 161.398438 316.195312 161.425781 C 316.726562 161.359375 317.253906 161.285156 317.78125 161.214844 C 317.464844 161.257812 317.15625 161.300781 316.839844 161.34375 C 316.839844 161.34375 316.839844 161.339844 316.839844 161.339844 Z M 318.601562 161.101562 C 319.398438 160.984375 320.191406 160.859375 320.972656 160.726562 C 320.191406 160.859375 319.398438 160.984375 318.601562 161.101562 Z M 315.179688 161.542969 C 314.707031 161.597656 314.238281 161.652344 313.761719 161.699219 C 314.238281 161.652344 314.707031 161.597656 315.179688 161.542969 Z M 312.628906 161.808594 C 312.191406 161.851562 311.753906 161.890625 311.3125 161.925781 C 311.753906 161.890625 312.191406 161.851562 312.628906 161.808594 Z M 310.085938 162.023438 C 309.675781 162.054688 309.261719 162.082031 308.851562 162.105469 C 309.265625 162.082031 309.675781 162.054688 310.085938 162.023438 Z M 307.535156 162.183594 C 307.160156 162.203125 306.785156 162.222656 306.40625 162.238281 C 306.78125 162.222656 307.160156 162.207031 307.535156 162.183594 Z M 267.980469 30.304688 C 274.558594 28.675781 281.21875 32.6875 282.847656 39.269531 C 284.476562 45.84375 280.464844 52.5 273.882812 54.132812 C 267.308594 55.761719 260.652344 51.746094 259.023438 45.171875 C 257.390625 38.589844 261.40625 31.933594 267.980469 30.304688 Z M 275.820312 92.414062 C 275.8125 92.417969 275.800781 92.425781 275.792969 92.429688 C 273.699219 93.15625 271.890625 94.695312 270.890625 96.875 L 258.6875 118.316406 L 266.65625 129.484375 L 259.269531 119.128906 L 258.6875 119.71875 L 246.761719 104.238281 L 254.375 104.238281 C 256.191406 104.238281 257.667969 102.765625 257.667969 100.945312 L 257.667969 67.441406 C 257.894531 67.558594 258.117188 67.679688 258.34375 67.792969 L 261.960938 64.191406 C 263.523438 64.828125 265.152344 65.304688 266.828125 65.59375 L 267.976562 70.578125 C 269.570312 70.746094 271.1875 70.773438 272.820312 70.664062 L 274.148438 65.734375 C 274.980469 65.621094 275.808594 65.464844 276.640625 65.257812 C 277.472656 65.050781 278.277344 64.804688 279.070312 64.515625 L 282.546875 68.253906 C 284.039062 67.585938 285.460938 66.808594 286.789062 65.917969 L 285.476562 60.972656 C 286.824219 59.933594 288.042969 58.753906 289.121094 57.460938 L 289.363281 57.535156 C 289.429688 57.773438 289.519531 57.984375 289.625 58.179688 C 288.921875 59.574219 288.460938 61.125 288.324219 62.78125 C 288.148438 64.9375 288.527344 67.011719 289.347656 68.859375 C 289.332031 69.195312 289.328125 69.386719 289.328125 69.386719 L 289.449219 76.300781 C 289.5 79.429688 291.054688 82.253906 293.429688 83.972656 L 293.398438 87.640625 C 287.585938 88.351562 281.753906 89.9375 275.820312 92.414062 Z M 291.042969 59.28125 C 290.949219 59.578125 290.859375 59.871094 290.773438 60.167969 C 290.859375 59.871094 290.949219 59.578125 291.042969 59.28125 Z M 290.695312 60.441406 C 290.640625 60.644531 290.585938 60.847656 290.53125 61.050781 C 290.585938 60.847656 290.640625 60.644531 290.695312 60.441406 Z M 290.453125 61.351562 C 290.40625 61.550781 290.355469 61.75 290.3125 61.945312 C 290.359375 61.75 290.40625 61.550781 290.453125 61.351562 Z M 290.25 62.214844 C 290.195312 62.464844 290.140625 62.710938 290.089844 62.957031 C 290.140625 62.710938 290.195312 62.464844 290.25 62.214844 Z M 290.074219 63.042969 C 290.019531 63.316406 289.96875 63.585938 289.921875 63.851562 C 289.96875 63.585938 290.019531 63.316406 290.074219 63.042969 Z M 289.882812 64.070312 C 289.851562 64.257812 289.820312 64.445312 289.789062 64.628906 C 289.820312 64.445312 289.851562 64.257812 289.882812 64.070312 Z M 289.75 64.882812 C 289.726562 65.054688 289.699219 65.21875 289.675781 65.382812 C 289.699219 65.21875 289.726562 65.054688 289.75 64.882812 Z M 289.648438 65.609375 C 289.621094 65.804688 289.597656 65.992188 289.574219 66.175781 C 289.597656 65.992188 289.621094 65.804688 289.648438 65.609375 Z M 289.5625 66.28125 C 289.535156 66.496094 289.515625 66.703125 289.496094 66.902344 C 289.515625 66.703125 289.535156 66.496094 289.5625 66.28125 Z M 289.480469 67.066406 C 289.464844 67.203125 289.453125 67.339844 289.441406 67.464844 C 289.453125 67.339844 289.464844 67.203125 289.480469 67.066406 Z M 289.425781 67.664062 C 289.417969 67.769531 289.40625 67.871094 289.402344 67.96875 C 289.40625 67.871094 289.417969 67.769531 289.425781 67.664062 Z M 289.386719 68.15625 C 289.382812 68.242188 289.375 68.324219 289.371094 68.402344 C 289.375 68.324219 289.382812 68.242188 289.386719 68.15625 Z M 289.363281 68.566406 C 289.359375 68.613281 289.355469 68.648438 289.355469 68.691406 C 289.359375 68.648438 289.359375 68.613281 289.363281 68.566406 Z M 283.394531 161.351562 C 283.359375 161.347656 283.328125 161.34375 283.292969 161.339844 C 283.3125 161.339844 283.328125 161.34375 283.347656 161.347656 C 283.363281 161.347656 283.378906 161.351562 283.394531 161.351562 Z M 278.320312 160.554688 C 278.25 160.527344 278.179688 160.496094 278.113281 160.460938 C 278.179688 160.496094 278.25 160.527344 278.320312 160.554688 Z M 278.859375 160.710938 C 278.722656 160.6875 278.59375 160.652344 278.464844 160.609375 C 278.59375 160.652344 278.722656 160.6875 278.859375 160.710938 Z M 285.488281 161.59375 C 285.566406 161.601562 285.640625 161.609375 285.714844 161.617188 C 285.640625 161.609375 285.566406 161.601562 285.488281 161.59375 Z M 292.683594 162.171875 C 292.777344 162.175781 292.875 162.179688 292.96875 162.1875 C 292.875 162.183594 292.777344 162.175781 292.683594 162.171875 Z M 287.824219 161.824219 C 287.933594 161.832031 288.042969 161.839844 288.152344 161.851562 C 288.042969 161.84375 287.933594 161.832031 287.824219 161.824219 Z M 290.234375 162.019531 C 290.351562 162.027344 290.464844 162.035156 290.582031 162.042969 C 290.464844 162.035156 290.351562 162.027344 290.234375 162.019531 Z M 301.796875 167.953125 C 301.800781 167.945312 301.804688 167.9375 301.808594 167.929688 C 301.804688 167.9375 301.800781 167.945312 301.796875 167.953125 Z M 301.875 167.839844 C 301.894531 167.796875 301.910156 167.75 301.914062 167.699219 C 301.910156 167.75 301.898438 167.796875 301.875 167.839844 Z M 304.039062 162.324219 C 304.351562 162.316406 304.664062 162.308594 304.976562 162.296875 C 304.664062 162.308594 304.351562 162.316406 304.039062 162.324219 Z M 302.039062 162.367188 C 302.160156 162.363281 302.285156 162.363281 302.40625 162.363281 C 302.285156 162.363281 302.160156 162.363281 302.039062 162.367188 Z M 316.214844 161.824219 C 316.160156 161.695312 316.105469 161.566406 316.058594 161.445312 C 316.105469 161.566406 316.160156 161.695312 316.214844 161.824219 Z M 317.339844 163.824219 C 317.339844 163.824219 317.339844 163.820312 317.335938 163.820312 C 317.339844 163.820312 317.339844 163.824219 317.339844 163.824219 Z M 316.589844 162.621094 C 316.582031 162.605469 316.574219 162.59375 316.570312 162.582031 C 316.574219 162.59375 316.582031 162.605469 316.589844 162.621094 Z M 321.492188 160.578125 C 321.507812 160.574219 321.519531 160.566406 321.53125 160.5625 C 321.519531 160.566406 321.507812 160.574219 321.492188 160.578125 Z M 322.523438 145.238281 C 322.550781 145.726562 322.578125 146.214844 322.609375 146.699219 C 322.578125 146.214844 322.550781 145.726562 322.523438 145.238281 Z M 322.34375 141.804688 C 322.367188 142.296875 322.394531 142.800781 322.421875 143.300781 C 322.394531 142.800781 322.367188 142.296875 322.34375 141.804688 Z M 322.441406 143.730469 C 322.464844 144.160156 322.488281 144.589844 322.511719 145.023438 C 322.488281 144.589844 322.464844 144.160156 322.441406 143.730469 Z M 322.648438 147.433594 C 322.660156 147.601562 322.667969 147.769531 322.679688 147.933594 C 322.667969 147.769531 322.660156 147.601562 322.648438 147.433594 Z M 322.648438 147.433594 " fill-opacity="1" fill-rule="nonzero"/></g><g clip-path="url(#f07d6f14b9)"><path fill="#eaeaea" d="M 254.09375 285.292969 C 254 285.984375 254.542969 286.597656 255.238281 286.597656 L 284.367188 286.597656 C 284.96875 286.597656 285.472656 286.132812 285.515625 285.527344 C 285.554688 285.035156 285.589844 284.386719 285.605469 283.640625 L 261.660156 283.640625 L 259.664062 280.523438 C 258.964844 280.863281 258.296875 281.171875 257.679688 281.441406 C 254.953125 282.621094 254.265625 283.980469 254.09375 285.292969 Z M 254.09375 285.292969 " fill-opacity="1" fill-rule="nonzero"/></g><g clip-path="url(#4c0817d0dc)"><path fill="#eaeaea" d="M 141.199219 132.636719 C 141.199219 134.449219 142.667969 135.917969 144.480469 135.917969 L 158.972656 135.917969 C 158.585938 134.949219 158.363281 133.890625 158.363281 132.785156 C 158.363281 128.128906 162.136719 124.355469 166.792969 124.355469 C 171.449219 124.355469 175.222656 128.128906 175.222656 132.785156 C 175.222656 133.890625 175 134.949219 174.613281 135.917969 L 190.003906 135.917969 C 191.816406 135.917969 193.285156 134.449219 193.285156 132.636719 L 193.285156 116.902344 C 194.453125 117.53125 195.792969 117.886719 197.210938 117.886719 C 201.8125 117.886719 205.546875 114.15625 205.546875 109.550781 C 205.546875 104.949219 201.8125 101.21875 197.210938 101.21875 C 195.792969 101.21875 194.453125 101.574219 193.285156 102.203125 L 193.285156 87.109375 C 193.285156 85.296875 191.816406 83.828125 190.003906 83.828125 L 160.730469 83.828125 C 160.746094 83.746094 160.765625 83.660156 160.785156 83.578125 L 162 81.382812 C 162.359375 80.601562 161.941406 79.679688 161.117188 79.429688 C 160.546875 79.257812 159.980469 79.464844 159.621094 79.894531 C 159.566406 79.246094 159.109375 78.660156 158.425781 78.492188 C 157.652344 78.304688 156.910156 78.738281 156.605469 79.449219 C 156.636719 78.621094 156.015625 77.882812 155.15625 77.808594 C 154.261719 77.730469 153.519531 78.417969 153.429688 79.3125 C 153.425781 79.371094 153.417969 79.445312 153.414062 79.53125 L 152.382812 79.4375 C 152.125 78.734375 151.390625 78.28125 150.609375 78.425781 C 150.136719 78.511719 149.765625 78.800781 149.546875 79.1875 L 149.363281 79.171875 C 149.363281 79.171875 149.070312 80.898438 148.699219 83.59375 C 148.402344 83.042969 148.035156 82.335938 147.679688 81.574219 C 147.242188 80.652344 146.753906 79.992188 146.273438 79.535156 C 146.660156 78.851562 147.035156 78.164062 147.382812 77.457031 L 144.332031 74.394531 C 144.933594 71.3125 145.691406 68.585938 145.980469 64.40625 L 151.527344 63.128906 C 151.773438 60.765625 151.8125 58.359375 151.648438 55.929688 L 144.320312 53.953125 C 144.152344 52.710938 143.917969 51.480469 143.613281 50.246094 C 143.304688 49.007812 142.9375 47.808594 142.507812 46.636719 L 148.066406 41.464844 C 147.074219 39.242188 145.917969 37.128906 144.59375 35.15625 L 137.242188 37.105469 C 135.691406 35.101562 133.933594 33.289062 132.019531 31.683594 L 134.242188 24.417969 C 132.292969 23.007812 130.230469 21.761719 128.074219 20.699219 L 122.683594 26.058594 C 120.371094 25.113281 117.949219 24.402344 115.453125 23.96875 L 113.746094 16.558594 C 111.378906 16.308594 108.972656 16.269531 106.546875 16.433594 L 104.566406 23.761719 C 103.328125 23.933594 102.097656 24.164062 100.855469 24.472656 C 99.621094 24.777344 98.425781 25.148438 97.25 25.574219 L 92.082031 20.019531 C 89.855469 21.007812 87.746094 22.164062 85.769531 23.488281 L 87.722656 30.84375 C 85.71875 32.390625 83.90625 34.148438 82.292969 36.066406 L 75.035156 33.84375 C 73.625 35.789062 72.378906 37.855469 71.316406 40.011719 L 76.675781 45.398438 C 75.722656 47.714844 75.019531 50.136719 74.585938 52.632812 L 67.171875 54.339844 C 66.921875 56.703125 66.886719 59.109375 67.046875 61.539062 L 74.375 63.515625 C 74.546875 64.757812 74.777344 65.988281 75.085938 67.226562 C 75.390625 68.460938 75.761719 69.660156 76.1875 70.835938 L 70.632812 76.003906 C 71.621094 78.226562 72.777344 80.339844 74.101562 82.3125 L 81.457031 80.363281 C 83.003906 82.367188 84.753906 84.179688 86.679688 85.792969 L 84.457031 93.050781 C 85.730469 93.972656 87.058594 94.816406 88.425781 95.59375 C 82.578125 106.203125 80.210938 120.269531 90.074219 129.476562 C 90.371094 129.1875 90.652344 128.925781 90.898438 128.695312 C 91.1875 128.949219 91.523438 129.152344 91.902344 129.289062 C 92.027344 129.335938 92.15625 129.378906 92.28125 129.421875 L 90.265625 129.667969 C 90.199219 129.605469 90.140625 129.539062 90.074219 129.476562 C 85.972656 133.433594 77.539062 143.015625 77.539062 154.875 L 78.171875 188.488281 C 78.242188 193.132812 77.46875 197.746094 75.871094 202.105469 C 69.199219 220.320312 70.453125 249.636719 70.453125 262.351562 L 71.582031 262.351562 C 71.585938 264.023438 71.574219 265.882812 71.53125 267.8125 C 71.058594 271.359375 70.4375 273.992188 70.359375 277.363281 L 70.292969 277.363281 C 70.113281 277.363281 69.96875 277.507812 69.96875 277.6875 C 69.96875 277.863281 70.113281 278.007812 70.292969 278.007812 L 70.351562 278.007812 C 70.351562 278.746094 70.371094 279.515625 70.429688 280.347656 L 89.105469 280.347656 C 89.066406 279.308594 88.824219 278.449219 88.449219 277.703125 C 88.449219 277.695312 88.453125 277.691406 88.453125 277.6875 C 88.453125 277.570312 88.386719 277.472656 88.296875 277.417969 C 86.417969 274.109375 81.917969 273.054688 81.886719 267.96875 C 81.820312 267.5625 81.703125 267.234375 81.542969 266.96875 C 81.621094 267.097656 81.6875 267.238281 81.742188 267.398438 C 81.773438 265.816406 81.894531 264.050781 82.050781 262.351562 L 83.332031 262.351562 L 97.332031 201.84375 L 99.011719 190.363281 C 99.015625 190.433594 99.019531 190.503906 99.027344 190.574219 L 98.203125 196.808594 C 98.175781 197.019531 98.324219 197.214844 98.535156 197.242188 C 98.550781 197.242188 98.570312 197.242188 98.585938 197.242188 C 98.773438 197.242188 98.9375 197.105469 98.964844 196.910156 L 104.351562 156.09375 L 99.222656 194.96875 C 99.183594 197.398438 98.910156 199.789062 98.386719 202.105469 C 94.285156 220.320312 98.25 249.636719 100.046875 262.351562 L 100.707031 262.351562 C 100.746094 264.617188 100.601562 266.832031 100.152344 268.800781 C 100.148438 268.808594 98.808594 272.300781 98.902344 277.363281 C 98.726562 277.367188 98.585938 277.507812 98.585938 277.6875 C 98.585938 277.863281 98.730469 278.007812 98.90625 278.007812 L 98.917969 278.007812 C 98.953125 278.757812 99.015625 279.539062 99.121094 280.347656 L 130.679688 280.34375 C 130.679688 280.34375 130.925781 279.234375 130.328125 277.96875 C 130.429688 277.914062 130.503906 277.8125 130.503906 277.683594 C 130.503906 277.507812 130.359375 277.363281 130.183594 277.363281 L 129.972656 277.363281 C 129.449219 276.609375 128.578125 275.847656 127.128906 275.28125 C 123.246094 273.753906 118.273438 272.574219 112.652344 266.476562 C 107.871094 271.402344 100.878906 269.058594 100.210938 268.820312 C 100.875 269.058594 107.832031 271.386719 112.613281 266.515625 C 112.523438 265.269531 112.5 263.84375 112.515625 262.351562 L 112.925781 262.351562 L 118.472656 201.84375 L 117.175781 149.277344 L 117.175781 131.59375 C 117.59375 131.445312 117.96875 131.210938 118.289062 130.910156 C 120.28125 131.921875 122.773438 131.734375 124.613281 130.226562 L 147.453125 111.507812 L 141.199219 116.632812 Z M 81.132812 266.5 C 81.078125 266.453125 81.027344 266.402344 80.964844 266.367188 C 81.027344 266.402344 81.078125 266.453125 81.132812 266.5 Z M 80.792969 266.277344 C 80.730469 266.246094 80.667969 266.214844 80.605469 266.191406 C 80.667969 266.214844 80.730469 266.246094 80.792969 266.277344 Z M 80.40625 266.136719 C 80.339844 266.117188 80.273438 266.101562 80.199219 266.089844 C 80.273438 266.101562 80.339844 266.117188 80.40625 266.136719 Z M 79.988281 266.066406 C 79.914062 266.0625 79.839844 266.058594 79.761719 266.058594 C 79.839844 266.058594 79.914062 266.0625 79.988281 266.066406 Z M 79.535156 266.0625 C 79.457031 266.070312 79.375 266.074219 79.292969 266.085938 C 79.375 266.074219 79.457031 266.070312 79.535156 266.0625 Z M 79.058594 266.117188 C 78.972656 266.132812 78.890625 266.148438 78.804688 266.167969 C 78.890625 266.148438 78.972656 266.132812 79.058594 266.117188 Z M 78.5625 266.222656 C 78.476562 266.246094 78.386719 266.269531 78.296875 266.296875 C 78.386719 266.273438 78.476562 266.246094 78.5625 266.222656 Z M 78.054688 266.375 C 77.960938 266.402344 77.871094 266.4375 77.78125 266.46875 C 77.871094 266.4375 77.960938 266.402344 78.054688 266.375 Z M 77.539062 266.558594 C 77.445312 266.597656 77.351562 266.636719 77.257812 266.675781 C 77.351562 266.636719 77.445312 266.597656 77.539062 266.558594 Z M 77.019531 266.777344 C 76.925781 266.820312 76.828125 266.863281 76.734375 266.910156 C 76.828125 266.863281 76.925781 266.820312 77.019531 266.777344 Z M 76.511719 267.015625 C 76.410156 267.066406 76.308594 267.117188 76.210938 267.167969 C 76.308594 267.117188 76.410156 267.066406 76.511719 267.015625 Z M 76.011719 267.273438 C 75.898438 267.332031 75.789062 267.394531 75.683594 267.453125 C 75.789062 267.394531 75.898438 267.332031 76.011719 267.273438 Z M 75.53125 267.539062 C 75.371094 267.628906 75.21875 267.71875 75.070312 267.808594 C 75.21875 267.71875 75.371094 267.628906 75.53125 267.539062 Z M 81.28125 266.621094 C 81.335938 266.679688 81.382812 266.75 81.429688 266.816406 C 81.382812 266.75 81.335938 266.679688 81.28125 266.621094 Z M 144.453125 83.832031 C 144.132812 83.835938 143.832031 83.894531 143.539062 83.984375 C 143.535156 83.851562 143.535156 83.71875 143.53125 83.589844 L 143.664062 83.628906 C 143.886719 83.320312 144.097656 83.007812 144.308594 82.695312 C 144.355469 83.066406 144.402344 83.445312 144.453125 83.832031 Z M 121.828125 93.773438 C 121.785156 93.726562 121.742188 93.683594 121.699219 93.640625 C 121.746094 93.683594 121.785156 93.726562 121.828125 93.773438 Z M 99.398438 131.359375 C 99.34375 131.347656 99.289062 131.339844 99.234375 131.328125 C 99.289062 131.339844 99.34375 131.347656 99.398438 131.359375 Z M 97.871094 131.035156 C 97.835938 131.03125 97.800781 131.023438 97.765625 131.015625 C 97.800781 131.023438 97.835938 131.03125 97.871094 131.035156 Z M 96.386719 130.675781 C 96.371094 130.671875 96.351562 130.667969 96.335938 130.664062 C 96.351562 130.667969 96.371094 130.671875 96.386719 130.675781 Z M 100.972656 131.644531 C 100.894531 131.628906 100.8125 131.621094 100.734375 131.605469 C 100.8125 131.617188 100.894531 131.628906 100.972656 131.644531 Z M 107.574219 132.304688 C 107.378906 132.296875 107.179688 132.296875 106.984375 132.285156 C 107.179688 132.296875 107.378906 132.300781 107.574219 132.304688 Z M 105.894531 132.21875 C 105.726562 132.207031 105.558594 132.199219 105.386719 132.183594 C 105.558594 132.199219 105.726562 132.207031 105.894531 132.21875 Z M 104.230469 132.078125 C 104.09375 132.0625 103.953125 132.050781 103.8125 132.035156 C 103.953125 132.050781 104.09375 132.0625 104.230469 132.078125 Z M 102.585938 131.882812 C 102.476562 131.871094 102.367188 131.855469 102.261719 131.84375 C 102.367188 131.855469 102.476562 131.871094 102.585938 131.882812 Z M 108.589844 132.335938 C 108.816406 132.339844 109.046875 132.335938 109.273438 132.335938 C 109.046875 132.335938 108.816406 132.339844 108.589844 132.335938 Z M 122.480469 94.480469 C 122.519531 94.523438 122.558594 94.5625 122.59375 94.605469 C 122.558594 94.5625 122.519531 94.523438 122.480469 94.480469 Z M 123.292969 95.488281 C 123.464844 95.597656 123.640625 95.707031 123.808594 95.832031 C 123.640625 95.707031 123.464844 95.597656 123.292969 95.488281 Z M 104.957031 41.019531 C 112.902344 39.050781 120.925781 42.617188 124.957031 49.269531 C 124.785156 49.300781 124.613281 49.328125 124.4375 49.367188 C 114.144531 51.242188 108.1875 50.917969 106.128906 62.675781 C 104.953125 69.402344 105.269531 72.769531 103.863281 76.144531 C 98.003906 74.292969 93.21875 69.527344 91.632812 63.128906 C 89.210938 53.34375 95.175781 43.441406 104.957031 41.019531 Z M 89.902344 125.628906 C 89.859375 125.804688 89.839844 125.976562 89.832031 126.152344 C 89.839844 125.976562 89.859375 125.804688 89.902344 125.628906 Z M 89.828125 126.304688 C 89.828125 126.433594 89.832031 126.558594 89.847656 126.683594 C 89.832031 126.558594 89.828125 126.433594 89.828125 126.304688 Z M 89.980469 127.316406 C 89.929688 127.160156 89.890625 127 89.863281 126.832031 C 89.890625 127 89.929688 127.160156 89.980469 127.316406 Z M 89.996094 127.355469 C 90.046875 127.5 90.109375 127.640625 90.179688 127.773438 C 90.109375 127.640625 90.046875 127.5 89.996094 127.355469 Z M 90.558594 128.34375 C 90.664062 128.46875 90.777344 128.585938 90.898438 128.695312 C 90.777344 128.585938 90.664062 128.46875 90.558594 128.34375 Z M 90.265625 127.921875 C 90.324219 128.019531 90.386719 128.117188 90.457031 128.207031 C 90.386719 128.117188 90.324219 128.019531 90.265625 127.921875 Z M 94.960938 130.285156 C 94.957031 130.285156 94.949219 130.28125 94.941406 130.28125 C 94.949219 130.28125 94.957031 130.285156 94.960938 130.285156 Z M 111.832031 132.273438 C 112.121094 132.257812 112.414062 132.230469 112.703125 132.210938 C 112.414062 132.230469 112.121094 132.257812 111.832031 132.273438 Z M 110.207031 132.332031 C 110.464844 132.328125 110.722656 132.316406 110.984375 132.304688 C 110.722656 132.316406 110.464844 132.328125 110.207031 132.332031 Z M 115.070312 131.972656 C 115.609375 131.902344 116.148438 131.820312 116.683594 131.726562 C 116.148438 131.820312 115.609375 131.902344 115.070312 131.972656 Z M 113.453125 132.152344 C 113.796875 132.121094 114.140625 132.078125 114.484375 132.039062 C 114.140625 132.078125 113.796875 132.121094 113.453125 132.152344 Z M 123.421875 116.40625 C 123.582031 115.84375 123.742188 115.28125 123.898438 114.71875 L 124.871094 115.441406 Z M 141.125 104.613281 C 141.148438 104.453125 141.171875 104.292969 141.199219 104.132812 L 141.199219 104.566406 L 142.902344 103.429688 Z M 141.125 104.613281 " fill-opacity="1" fill-rule="nonzero"/></g><g clip-path="url(#997dc53e60)"><path fill="#eaeaea" d="M 97.25 25.574219 L 92.082031 20.015625 C 89.859375 21.007812 87.746094 22.164062 85.773438 23.488281 L 87.722656 30.84375 C 85.71875 32.390625 83.90625 34.148438 82.296875 36.066406 L 75.035156 33.84375 C 73.625 35.789062 72.378906 37.855469 71.316406 40.011719 L 76.675781 45.398438 C 75.722656 47.714844 75.019531 50.132812 74.585938 52.632812 L 67.171875 54.339844 C 66.921875 56.703125 66.886719 59.109375 67.046875 61.539062 L 74.375 63.515625 C 74.546875 64.757812 74.78125 65.988281 75.085938 67.226562 C 75.390625 68.460938 75.761719 69.660156 76.1875 70.835938 L 70.632812 76.003906 C 71.621094 78.226562 72.777344 80.339844 74.101562 82.3125 L 81.457031 80.363281 C 83.003906 82.367188 84.753906 84.179688 86.679688 85.792969 L 84.457031 93.050781 C 86.402344 94.460938 88.46875 95.707031 90.625 96.769531 L 96.003906 91.414062 C 98.328125 92.363281 100.746094 93.066406 103.246094 93.5 L 104.953125 100.914062 C 107.316406 101.164062 109.722656 101.203125 112.152344 101.039062 L 114.128906 93.710938 C 115.367188 93.539062 116.597656 93.308594 117.832031 93.003906 C 119.074219 92.695312 120.269531 92.324219 121.445312 91.898438 L 126.617188 97.453125 C 128.839844 96.464844 130.949219 95.308594 132.925781 93.984375 L 130.972656 86.628906 C 132.980469 85.082031 134.792969 83.328125 136.394531 81.40625 L 143.660156 83.628906 C 145.074219 81.683594 146.316406 79.617188 147.382812 77.460938 L 142.023438 72.082031 C 142.96875 69.757812 143.679688 67.335938 144.109375 64.839844 L 151.527344 63.132812 C 151.773438 60.769531 151.8125 58.363281 151.648438 55.933594 L 144.320312 53.957031 C 144.152344 52.714844 143.917969 51.484375 143.613281 50.25 C 143.304688 49.011719 142.9375 47.8125 142.507812 46.636719 L 148.066406 41.46875 C 147.074219 39.246094 145.917969 37.132812 144.59375 35.160156 L 137.242188 37.109375 C 135.691406 35.105469 133.933594 33.292969 132.019531 31.6875 L 134.242188 24.421875 C 132.292969 23.011719 130.230469 21.765625 128.074219 20.703125 L 122.683594 26.058594 C 120.371094 25.113281 117.949219 24.40625 115.453125 23.972656 L 113.746094 16.558594 C 111.378906 16.308594 108.972656 16.269531 106.546875 16.433594 L 104.566406 23.761719 C 103.328125 23.933594 102.097656 24.164062 100.855469 24.472656 C 99.621094 24.777344 98.425781 25.144531 97.25 25.574219 Z M 104.957031 41.019531 C 114.742188 38.59375 124.640625 44.5625 127.066406 54.351562 C 129.488281 64.128906 123.519531 74.03125 113.734375 76.453125 C 103.957031 78.875 94.054688 72.910156 91.632812 63.128906 C 89.210938 53.34375 95.175781 43.441406 104.957031 41.019531 Z M 262.796875 19.917969 L 259.324219 16.183594 C 257.828125 16.847656 256.410156 17.625 255.082031 18.515625 L 256.394531 23.460938 C 255.042969 24.503906 253.828125 25.683594 252.742188 26.972656 L 247.863281 25.476562 C 246.914062 26.789062 246.074219 28.175781 245.359375 29.625 L 248.964844 33.25 C 248.324219 34.804688 247.851562 36.433594 247.558594 38.113281 L 242.574219 39.261719 C 242.40625 40.851562 242.382812 42.46875 242.492188 44.101562 L 247.417969 45.433594 C 247.53125 46.265625 247.6875 47.09375 247.894531 47.925781 C 248.101562 48.757812 248.351562 49.5625 248.636719 50.351562 L 244.902344 53.828125 C 245.566406 55.324219 246.34375 56.742188 247.234375 58.070312 L 252.179688 56.757812 C 253.21875 58.109375 254.398438 59.328125 255.691406 60.410156 L 254.195312 65.292969 C 255.503906 66.238281 256.894531 67.078125 258.34375 67.792969 L 261.960938 64.191406 C 263.523438 64.828125 265.152344 65.300781 266.832031 65.59375 L 267.980469 70.578125 C 269.570312 70.746094 271.1875 70.769531 272.820312 70.660156 L 274.148438 65.734375 C 274.984375 65.621094 275.808594 65.464844 276.640625 65.257812 C 277.476562 65.050781 278.28125 64.804688 279.070312 64.515625 L 282.546875 68.25 C 284.042969 67.585938 285.460938 66.808594 286.789062 65.917969 L 285.476562 60.972656 C 286.824219 59.929688 288.042969 58.753906 289.121094 57.460938 L 294.007812 58.957031 C 294.957031 57.644531 295.792969 56.257812 296.507812 54.808594 L 292.90625 51.1875 C 293.539062 49.628906 294.019531 48 294.308594 46.320312 L 299.296875 45.171875 C 299.460938 43.582031 299.488281 41.964844 299.378906 40.332031 L 294.449219 39 C 294.335938 38.167969 294.179688 37.339844 293.972656 36.511719 C 293.765625 35.675781 293.519531 34.871094 293.230469 34.082031 L 296.96875 30.605469 C 296.300781 29.109375 295.523438 27.6875 294.632812 26.363281 L 289.6875 27.675781 C 288.648438 26.324219 287.464844 25.109375 286.175781 24.027344 L 287.671875 19.140625 C 286.363281 18.191406 284.976562 17.355469 283.523438 16.640625 L 279.902344 20.242188 C 278.347656 19.609375 276.71875 19.128906 275.039062 18.839844 L 273.890625 13.855469 C 272.300781 13.6875 270.679688 13.660156 269.046875 13.769531 L 267.71875 18.699219 C 266.886719 18.8125 266.058594 18.96875 265.222656 19.175781 C 264.394531 19.382812 263.589844 19.632812 262.796875 19.917969 Z M 267.980469 30.304688 C 274.558594 28.675781 281.21875 32.6875 282.847656 39.269531 C 284.476562 45.84375 280.464844 52.5 273.882812 54.132812 C 267.308594 55.761719 260.652344 51.746094 259.023438 45.171875 C 257.390625 38.589844 261.40625 31.933594 267.980469 30.304688 Z M 183.671875 189.910156 L 177.753906 184.824219 C 175.597656 186.089844 173.570312 187.511719 171.703125 189.089844 L 174.539062 196.382812 C 172.664062 198.195312 171.015625 200.199219 169.585938 202.34375 L 161.914062 200.898438 C 160.695312 203.050781 159.660156 205.300781 158.820312 207.628906 L 164.910156 212.523438 C 164.203125 214.996094 163.757812 217.550781 163.601562 220.152344 L 156.222656 222.742188 C 156.238281 225.1875 156.472656 227.652344 156.917969 230.117188 L 164.632812 231.300781 C 164.945312 232.546875 165.324219 233.777344 165.78125 235.011719 C 166.234375 236.238281 166.75 237.417969 167.320312 238.570312 L 162.230469 244.488281 C 163.496094 246.648438 164.921875 248.671875 166.5 250.539062 L 173.792969 247.703125 C 175.601562 249.578125 177.601562 251.230469 179.75 252.65625 L 178.308594 260.328125 C 180.457031 261.546875 182.710938 262.582031 185.035156 263.425781 L 189.921875 257.335938 C 192.40625 258.039062 194.957031 258.484375 197.558594 258.640625 L 200.152344 266.023438 C 202.597656 266.007812 205.058594 265.769531 207.523438 265.328125 L 208.707031 257.613281 C 209.953125 257.296875 211.183594 256.917969 212.410156 256.464844 C 213.644531 256.007812 214.824219 255.496094 215.976562 254.921875 L 221.894531 260.011719 C 224.054688 258.746094 226.078125 257.324219 227.945312 255.746094 L 225.109375 248.449219 C 226.984375 246.640625 228.636719 244.644531 230.054688 242.492188 L 237.734375 243.9375 C 238.953125 241.785156 239.988281 239.53125 240.828125 237.207031 L 234.742188 232.320312 C 235.441406 229.839844 235.886719 227.285156 236.046875 224.683594 L 243.429688 222.089844 C 243.414062 219.644531 243.175781 217.183594 242.730469 214.71875 L 235.015625 213.535156 C 234.703125 212.289062 234.324219 211.058594 233.871094 209.832031 C 233.414062 208.597656 232.898438 207.417969 232.328125 206.265625 L 237.417969 200.347656 C 236.152344 198.1875 234.730469 196.164062 233.148438 194.296875 L 225.855469 197.128906 C 224.046875 195.257812 222.042969 193.609375 219.902344 192.1875 L 221.34375 184.507812 C 219.191406 183.289062 216.9375 182.253906 214.613281 181.410156 L 209.71875 187.503906 C 207.246094 186.800781 204.691406 186.351562 202.089844 186.195312 L 199.5 178.8125 C 197.054688 178.828125 194.589844 179.066406 192.125 179.507812 L 190.941406 187.222656 C 189.695312 187.539062 188.464844 187.917969 187.230469 188.375 C 186.007812 188.828125 184.824219 189.339844 183.671875 189.910156 Z M 193.3125 204.816406 C 203.035156 201.21875 213.832031 206.1875 217.429688 215.910156 C 221.019531 225.628906 216.054688 236.425781 206.332031 240.023438 C 196.613281 243.613281 185.816406 238.648438 182.222656 228.929688 C 178.628906 219.207031 183.59375 208.40625 193.3125 204.816406 Z M 98.585938 197.242188 C 98.570312 197.242188 98.550781 197.242188 98.535156 197.238281 C 98.324219 197.210938 98.175781 197.019531 98.203125 196.808594 L 103.609375 155.859375 C 103.621094 155.773438 103.660156 155.691406 103.726562 155.632812 L 109.402344 150.238281 C 109.554688 150.089844 109.796875 150.097656 109.945312 150.253906 C 110.089844 150.40625 110.082031 150.648438 109.929688 150.792969 L 104.351562 156.09375 L 98.964844 196.910156 C 98.9375 197.101562 98.773438 197.242188 98.585938 197.242188 Z M 301.53125 168.058594 C 301.523438 168.058594 301.515625 168.058594 301.507812 168.058594 L 295.589844 167.6875 C 295.378906 167.671875 295.21875 167.492188 295.230469 167.28125 C 295.246094 167.066406 295.421875 166.894531 295.636719 166.921875 L 301.554688 167.292969 C 301.765625 167.308594 301.925781 167.488281 301.914062 167.699219 C 301.898438 167.902344 301.730469 168.058594 301.53125 168.058594 Z M 283.394531 161.351562 C 282.652344 163.339844 280.980469 166.21875 277.546875 166.21875 C 277.335938 166.21875 277.164062 166.046875 277.164062 165.832031 C 277.164062 165.621094 277.335938 165.449219 277.546875 165.449219 C 280.441406 165.449219 281.917969 163.035156 282.617188 161.25 C 282.875 161.285156 283.136719 161.320312 283.394531 161.351562 Z M 322.253906 165.832031 C 322.253906 166.046875 322.082031 166.21875 321.871094 166.21875 C 318.492188 166.21875 316.820312 163.429688 316.058594 161.445312 C 316.320312 161.410156 316.578125 161.375 316.835938 161.339844 C 317.550781 163.113281 319.023438 165.449219 321.871094 165.449219 C 322.082031 165.449219 322.253906 165.621094 322.253906 165.832031 Z M 322.253906 165.832031 " fill-opacity="1" fill-rule="nonzero"/></g><path fill="#26b1d8" d="M 71.53125 267.808594 C 71.53125 267.808594 72.875 269.144531 75.070312 267.808594 C 77.519531 266.324219 81.339844 264.667969 81.886719 267.96875 C 81.925781 274.300781 88.894531 274.378906 89.105469 280.34375 L 70.433594 280.34375 C 70.082031 275.367188 70.925781 272.335938 71.53125 267.808594 M 100.152344 268.800781 C 100.152344 268.800781 98.25 273.710938 99.117188 280.347656 L 130.679688 280.34375 C 130.679688 280.34375 131.449219 276.976562 127.128906 275.28125 C 123.246094 273.753906 118.273438 272.574219 112.652344 266.476562 C 107.628906 271.652344 100.152344 268.800781 100.152344 268.800781 M 140.550781 108.082031 L 124.105469 96.066406 C 124.015625 95.992188 123.902344 95.902344 123.808594 95.832031 C 123.640625 95.707031 123.464844 95.597656 123.292969 95.488281 C 120.476562 91.601562 115.773438 89.089844 110.554688 89.089844 C 103.277344 89.089844 96.996094 94.195312 95.507812 101.316406 L 89.898438 125.628906 C 89.542969 127.179688 90.40625 128.738281 91.902344 129.289062 C 98.777344 131.8125 108.050781 133.230469 116.679688 131.726562 C 117.789062 131.535156 118.703125 130.753906 119.082031 129.699219 C 120.113281 126.832031 122.246094 120.703125 123.898438 114.71875 L 128.386719 118.046875 Z M 256.023438 197.683594 C 251.371094 197.683594 247.597656 193.910156 247.597656 189.253906 C 247.597656 184.597656 251.371094 180.824219 256.023438 180.824219 C 257.164062 180.824219 258.25 181.0625 259.242188 181.472656 L 259.242188 166.617188 C 259.242188 164.785156 257.757812 163.300781 255.925781 163.300781 L 240.011719 163.300781 C 240.648438 162.117188 241.007812 160.765625 241.007812 159.328125 C 241.007812 154.671875 237.234375 150.898438 232.582031 150.898438 C 227.925781 150.898438 224.152344 154.671875 224.152344 159.328125 C 224.152344 160.765625 224.515625 162.117188 225.148438 163.300781 L 209.882812 163.300781 C 208.050781 163.300781 206.566406 164.785156 206.566406 166.617188 L 206.566406 212.660156 C 206.566406 214.492188 208.050781 215.976562 209.882812 215.976562 L 255.925781 215.976562 C 257.757812 215.976562 259.242188 214.492188 259.242188 212.660156 L 259.242188 197.035156 C 258.25 197.445312 257.167969 197.683594 256.023438 197.683594 Z M 335.027344 139.269531 C 333.804688 127.1875 333.429688 112.894531 333.214844 110.070312 C 332.929688 106.734375 332.648438 103.398438 332.234375 100.070312 C 331.839844 96.933594 329.839844 94.398438 327.167969 93.171875 C 327.171875 93.144531 327.171875 93.128906 327.171875 93.128906 C 320.976562 90.453125 314.921875 88.683594 308.921875 87.824219 L 309.023438 89.148438 C 309.3125 93.304688 306.324219 96.980469 301.902344 97.28125 C 297.480469 97.578125 293.664062 94.453125 293.375 90.296875 L 293.398438 87.644531 C 287.585938 88.351562 281.75 89.941406 275.820312 92.417969 C 275.808594 92.421875 275.800781 92.425781 275.792969 92.429688 C 273.699219 93.15625 271.890625 94.695312 270.890625 96.875 L 258.6875 118.316406 L 271.808594 136.707031 L 277.066406 124.835938 C 277.425781 129.296875 277.664062 133.101562 277.664062 135.25 C 277.664062 141.804688 276.667969 153.355469 276.667969 158.152344 C 276.667969 159.429688 277.597656 160.507812 278.859375 160.710938 C 292.410156 162.90625 307.777344 162.96875 320.972656 160.730469 C 322.222656 160.515625 323.140625 159.441406 323.140625 158.171875 C 323.140625 154.75 322.632812 147.855469 322.34375 141.804688 Z M 139.488281 68.363281 C 138.066406 68.363281 136.828125 69.332031 136.195312 70.753906 C 135.625 70.488281 135.035156 70.496094 134.464844 70.777344 C 133.839844 69.34375 132.59375 68.363281 131.164062 68.363281 C 129.105469 68.363281 127.429688 70.398438 127.429688 72.902344 C 127.429688 75.40625 129.105469 77.441406 131.164062 77.441406 C 133.226562 77.441406 134.902344 75.40625 134.902344 72.902344 C 134.902344 72.378906 134.828125 71.878906 134.691406 71.410156 C 135.125 71.175781 135.539062 71.167969 135.96875 71.382812 C 135.828125 71.859375 135.75 72.367188 135.75 72.902344 C 135.75 75.40625 137.425781 77.441406 139.488281 77.441406 C 141.550781 77.441406 143.226562 75.40625 143.226562 72.902344 C 143.222656 70.398438 141.546875 68.363281 139.488281 68.363281 Z M 131.164062 76.785156 C 129.464844 76.785156 128.082031 75.042969 128.082031 72.902344 C 128.082031 70.757812 129.464844 69.019531 131.164062 69.019531 C 132.863281 69.019531 134.246094 70.757812 134.246094 72.902344 C 134.246094 75.042969 132.863281 76.785156 131.164062 76.785156 Z M 139.488281 76.785156 C 137.789062 76.785156 136.40625 75.042969 136.40625 72.902344 C 136.40625 70.757812 137.789062 69.019531 139.488281 69.019531 C 141.1875 69.019531 142.566406 70.757812 142.566406 72.902344 C 142.566406 75.042969 141.1875 76.785156 139.488281 76.785156 Z M 139.488281 76.785156 " fill-opacity="1" fill-rule="evenodd"/><g clip-path="url(#e1c43edf7c)"><path fill="#f5c0a2" d="M 162 81.386719 L 160.785156 83.578125 C 160.308594 85.820312 159.691406 88.335938 159.195312 90.613281 C 158.613281 93.261719 156.09375 94.503906 152.632812 93.984375 C 148.695312 93.398438 147.6875 91.578125 147.6875 91.574219 C 144.132812 87.511719 144.675781 83.585938 143.972656 80.621094 C 143.664062 79.328125 143.582031 79.007812 144.199219 78.757812 C 144.890625 78.484375 146.488281 79.046875 147.679688 81.578125 C 148.035156 82.335938 148.402344 83.046875 148.699219 83.597656 C 149.070312 80.902344 149.363281 79.175781 149.363281 79.175781 L 149.546875 79.191406 C 149.765625 78.804688 150.136719 78.515625 150.609375 78.425781 C 151.390625 78.28125 152.125 78.738281 152.382812 79.441406 L 153.414062 79.535156 C 153.421875 79.449219 153.425781 79.371094 153.429688 79.3125 C 153.519531 78.417969 154.261719 77.730469 155.15625 77.808594 C 156.015625 77.882812 156.636719 78.621094 156.605469 79.453125 C 156.910156 78.738281 157.652344 78.308594 158.425781 78.496094 C 159.109375 78.664062 159.566406 79.246094 159.621094 79.898438 C 159.980469 79.46875 160.546875 79.257812 161.117188 79.433594 C 161.941406 79.683594 162.359375 80.601562 162 81.386719 Z M 315.871094 264.765625 L 305.222656 264.765625 C 305.214844 264.96875 305.207031 265.164062 305.207031 265.375 C 305.207031 269.082031 304.988281 271.917969 304.808594 275.871094 C 305.738281 276.238281 306.953125 276.191406 308.289062 274.761719 C 310.972656 271.894531 313.863281 270.535156 316.742188 271.492188 C 315.921875 269.265625 315.789062 267.019531 315.871094 264.765625 Z M 71.53125 267.808594 C 71.53125 267.808594 72.875 269.144531 75.070312 267.808594 C 77.363281 266.417969 80.859375 264.878906 81.742188 267.398438 C 81.773438 265.816406 81.894531 264.050781 82.050781 262.347656 L 71.582031 262.347656 C 71.585938 264.023438 71.574219 265.882812 71.53125 267.808594 C 71.53125 267.8125 71.53125 267.8125 71.53125 267.8125 C 71.53125 267.8125 71.53125 267.8125 71.53125 267.808594 Z M 100.152344 268.800781 C 100.152344 268.800781 107.589844 271.636719 112.609375 266.515625 C 112.523438 265.269531 112.5 263.84375 112.515625 262.347656 L 100.707031 262.347656 C 100.746094 264.617188 100.601562 266.832031 100.152344 268.800781 Z M 164.546875 101.179688 C 162.480469 101.179688 162.546875 101.21875 156.0625 101.1875 C 156.0625 101.1875 155.941406 101.1875 155.734375 101.1875 C 155.503906 101.1875 155.269531 101.1875 155.023438 101.183594 L 155.027344 101.195312 C 153.078125 101.226562 148.722656 101.414062 145.007812 102.347656 C 144.316406 102.523438 143.679688 102.851562 143.144531 103.285156 C 143.0625 103.335938 142.980469 103.378906 142.902344 103.433594 L 123 116.6875 L 119.789062 111.171875 L 109.019531 118.101562 L 115.808594 128.527344 L 116.054688 128.90625 C 116.171875 129.082031 116.292969 129.25 116.429688 129.414062 C 118.464844 131.898438 122.128906 132.261719 124.613281 130.226562 L 147.453125 111.507812 C 148.882812 111.691406 150.722656 111.847656 152.542969 111.816406 L 153.835938 112.839844 C 154.097656 113.046875 154.429688 113.140625 154.761719 113.101562 L 156.984375 112.835938 C 157.398438 112.789062 157.75 112.519531 157.910156 112.132812 L 159.726562 107.75 C 160.046875 106.972656 159.847656 106.078125 159.222656 105.511719 L 157.886719 104.308594 C 159.363281 104.136719 162.445312 103.769531 163.84375 103.503906 C 165.457031 103.199219 166.480469 101.179688 164.546875 101.179688 Z M 259.269531 119.128906 L 258.6875 119.71875 L 246.761719 104.242188 L 214.632812 104.242188 C 214.582031 104.847656 215.007812 105.410156 215.964844 105.550781 C 216.285156 105.597656 216.6875 105.644531 217.140625 105.6875 C 216.804688 106.367188 217.050781 107.078125 218.039062 107.191406 C 218.464844 107.242188 219.109375 107.308594 219.871094 107.390625 C 220.054688 107.648438 220.335938 107.863281 220.730469 107.980469 C 222.472656 108.507812 225.800781 109.242188 227.082031 109.523438 C 227.425781 109.597656 227.769531 109.648438 228.121094 109.675781 C 228.121094 109.675781 234.8125 110.234375 235.816406 110.285156 L 235.835938 110.285156 C 236.066406 110.296875 236.300781 110.304688 236.535156 110.308594 L 250.78125 136.089844 C 253.203125 140.066406 258.386719 141.328125 262.363281 138.910156 C 263.042969 138.496094 265.902344 135.566406 268.8125 132.503906 Z M 338.164062 178.527344 C 338.164062 178.519531 338.164062 178.511719 338.164062 178.507812 C 338.144531 178.03125 338.03125 176.777344 337.875 175.210938 C 337.460938 171.082031 336.761719 164.777344 336.761719 164.773438 L 333.9375 139.488281 L 322.34375 141.804688 C 322.449219 144.019531 322.585938 146.339844 322.714844 148.566406 C 324.660156 155.523438 326.949219 163.683594 327.660156 166.214844 C 327.53125 166.402344 327.410156 166.585938 327.3125 166.769531 C 326.019531 169.160156 325.808594 170.738281 326.230469 174.3125 C 326.113281 174.261719 325.988281 174.222656 325.855469 174.207031 C 324.996094 174.105469 324.25 174.792969 324.285156 175.65625 L 324.46875 180.164062 C 324.484375 180.582031 324.6875 180.972656 325.023438 181.226562 L 328.585938 183.917969 L 329.511719 184.621094 C 330.011719 184.996094 330.703125 185 331.203125 184.621094 L 337.613281 179.78125 C 337.980469 179.503906 338.1875 179.066406 338.171875 178.605469 Z M 284.5 274.433594 C 284.5 274.433594 284.5 274.4375 284.5 274.4375 C 284.484375 271.472656 284.902344 267.496094 285.238281 264.765625 L 273.875 264.765625 C 273.621094 267.9375 273.160156 270.078125 272.453125 271.863281 C 276.332031 276.984375 281.558594 275.933594 284.5 274.433594 Z M 310.65625 69.25 C 309.921875 69.191406 309.398438 70.78125 309.058594 72.371094 C 308.90625 72.28125 308.734375 72.226562 308.542969 72.222656 C 308.542969 72.222656 307.804688 66.429688 309.226562 60.542969 C 307.976562 61.78125 303.402344 62.1875 300.09375 61.371094 C 296.050781 60.371094 293.703125 58.960938 291.042969 59.28125 C 289.382812 64.425781 289.328125 69.386719 289.328125 69.386719 L 289.449219 76.300781 C 289.5 79.433594 291.050781 82.253906 293.429688 83.976562 L 293.375 90.296875 C 293.664062 94.453125 297.480469 97.578125 301.902344 97.28125 C 306.324219 96.980469 309.3125 93.304688 309.023438 89.148438 L 308.160156 77.738281 L 308.671875 76.183594 C 308.890625 76.71875 309.40625 77.050781 309.960938 76.910156 C 311.625 76.488281 312.808594 75.128906 312.953125 73.429688 C 313.140625 71.246094 312.109375 69.375 310.65625 69.25 Z M 139.488281 77.441406 C 137.425781 77.441406 135.75 75.402344 135.75 72.898438 C 135.75 72.367188 135.828125 71.859375 135.96875 71.382812 C 135.539062 71.164062 135.125 71.171875 134.691406 71.410156 C 134.824219 71.878906 134.902344 72.378906 134.902344 72.898438 C 134.902344 75.402344 133.226562 77.441406 131.164062 77.441406 C 129.101562 77.441406 127.425781 75.402344 127.425781 72.898438 C 127.425781 70.398438 129.101562 68.359375 131.164062 68.359375 C 132.59375 68.359375 133.835938 69.339844 134.464844 70.777344 C 135.035156 70.496094 135.625 70.488281 136.195312 70.75 C 136.828125 69.328125 138.066406 68.359375 139.484375 68.359375 C 139.863281 68.359375 140.230469 68.429688 140.574219 68.558594 C 140.585938 67.332031 140.367188 66.140625 139.960938 65.035156 C 139.589844 65.003906 139.21875 64.96875 138.84375 64.914062 C 135.351562 64.417969 129.832031 62.585938 126.15625 60.367188 C 123.949219 64.015625 126.953125 71.351562 122.175781 72.90625 C 122.320312 71.207031 122.121094 69.195312 120.476562 68.789062 C 118.613281 68.332031 117.464844 69.703125 116.949219 71.769531 C 116.546875 73.375 117.566406 75.085938 119.503906 76.132812 C 120.164062 76.488281 120.945312 76.378906 121.398438 75.957031 L 115.695312 89.9375 C 118.78125 90.980469 121.4375 92.9375 123.285156 95.484375 C 123.460938 95.59375 123.636719 95.707031 123.808594 95.832031 C 123.902344 95.902344 124.011719 95.992188 124.105469 96.066406 L 125.625 97.316406 L 129.617188 87.234375 C 130.59375 87.394531 131.617188 87.390625 132.644531 87.175781 C 136.175781 86.441406 138.703125 83.535156 139.148438 80.152344 L 139.5 77.4375 C 139.496094 77.4375 139.492188 77.441406 139.488281 77.441406 Z M 139.488281 69.015625 C 137.789062 69.015625 136.40625 70.757812 136.40625 72.898438 C 136.40625 75.042969 137.789062 76.785156 139.488281 76.785156 C 139.519531 76.785156 139.554688 76.777344 139.585938 76.777344 L 140.496094 69.765625 C 140.515625 69.59375 140.53125 69.425781 140.542969 69.257812 C 140.214844 69.105469 139.859375 69.015625 139.488281 69.015625 Z M 131.164062 69.015625 C 129.464844 69.015625 128.082031 70.757812 128.082031 72.898438 C 128.082031 75.042969 129.464844 76.785156 131.164062 76.785156 C 132.863281 76.785156 134.246094 75.042969 134.246094 72.898438 C 134.246094 70.757812 132.863281 69.015625 131.164062 69.015625 Z M 131.164062 69.015625 " fill-opacity="1" fill-rule="evenodd"/></g><path fill="#293237" d="M 88.128906 277.363281 L 70.292969 277.363281 C 70.113281 277.363281 69.96875 277.507812 69.96875 277.683594 C 69.96875 277.863281 70.113281 278.007812 70.292969 278.007812 L 88.128906 278.007812 C 88.308594 278.007812 88.453125 277.863281 88.453125 277.683594 C 88.453125 277.507812 88.308594 277.363281 88.128906 277.363281 Z M 88.128906 277.363281 " fill-opacity="1" fill-rule="nonzero"/><path fill="#293237" d="M 156.195312 108.804688 L 158.699219 110.019531 C 158.742188 110.042969 158.792969 110.054688 158.839844 110.054688 C 158.957031 110.054688 159.074219 109.988281 159.128906 109.871094 C 159.207031 109.710938 159.140625 109.519531 158.980469 109.441406 L 156.476562 108.226562 C 156.316406 108.148438 156.125 108.214844 156.046875 108.375 C 155.96875 108.535156 156.035156 108.726562 156.195312 108.804688 Z M 156.195312 108.804688 " fill-opacity="1" fill-rule="nonzero"/><path fill="#293237" d="M 130.183594 277.363281 L 98.90625 277.363281 C 98.730469 277.363281 98.585938 277.507812 98.585938 277.683594 C 98.585938 277.863281 98.730469 278.007812 98.90625 278.007812 L 130.183594 278.007812 C 130.359375 278.007812 130.503906 277.863281 130.503906 277.683594 C 130.503906 277.507812 130.359375 277.363281 130.183594 277.363281 Z M 130.183594 277.363281 " fill-opacity="1" fill-rule="nonzero"/><path fill="#293237" d="M 77.539062 154.875 L 78.175781 188.488281 C 78.242188 193.132812 77.46875 197.746094 75.875 202.105469 C 69.199219 220.320312 70.457031 249.636719 70.457031 262.351562 L 83.332031 262.351562 L 97.332031 201.84375 L 99.011719 190.363281 C 99.015625 190.433594 99.019531 190.503906 99.027344 190.570312 L 103.609375 155.859375 C 103.621094 155.773438 103.660156 155.691406 103.726562 155.628906 L 109.402344 150.238281 C 109.554688 150.089844 109.796875 150.097656 109.945312 150.25 C 110.089844 150.40625 110.082031 150.648438 109.929688 150.792969 L 104.351562 156.09375 L 99.222656 194.964844 C 99.183594 197.394531 98.910156 199.785156 98.386719 202.105469 C 94.285156 220.320312 98.25 249.632812 100.046875 262.347656 L 112.925781 262.347656 L 118.472656 201.84375 L 117.175781 149.277344 L 117.175781 131.59375 C 117.015625 131.648438 116.851562 131.695312 116.683594 131.726562 C 108.210938 133.203125 99.121094 131.859375 92.285156 129.421875 L 90.269531 129.664062 C 90.199219 129.601562 90.140625 129.535156 90.074219 129.472656 C 85.976562 133.429688 77.539062 143.011719 77.539062 154.875 Z M 77.539062 154.875 " fill-opacity="1" fill-rule="nonzero"/><path fill="#293237" d="M 120.382812 110.808594 L 113.277344 98.609375 C 113.1875 98.457031 112.992188 98.402344 112.839844 98.492188 C 112.683594 98.582031 112.632812 98.78125 112.722656 98.933594 L 119.828125 111.132812 C 119.886719 111.234375 119.992188 111.289062 120.105469 111.289062 C 120.160156 111.289062 120.214844 111.277344 120.265625 111.246094 C 120.421875 111.15625 120.472656 110.960938 120.382812 110.808594 Z M 120.382812 110.808594 " fill-opacity="1" fill-rule="nonzero"/><path fill="#293237" d="M 327.664062 166.550781 C 327.695312 166.550781 327.730469 166.546875 327.757812 166.539062 L 329.050781 166.140625 C 329.222656 166.089844 329.316406 165.910156 329.265625 165.738281 C 329.214844 165.570312 329.039062 165.476562 328.863281 165.527344 L 327.570312 165.921875 C 327.402344 165.972656 327.304688 166.152344 327.355469 166.324219 C 327.402344 166.460938 327.527344 166.550781 327.664062 166.550781 Z M 327.664062 166.550781 " fill-opacity="1" fill-rule="nonzero"/><path fill="#293237" d="M 322.578125 141.664062 C 322.582031 141.664062 322.589844 141.664062 322.59375 141.664062 C 322.769531 141.65625 322.90625 141.507812 322.902344 141.328125 L 322.410156 130.160156 L 325.777344 105.792969 C 325.800781 105.617188 325.679688 105.453125 325.503906 105.429688 C 325.328125 105.410156 325.164062 105.527344 325.140625 105.703125 L 321.769531 130.128906 L 322.257812 141.359375 C 322.265625 141.53125 322.40625 141.664062 322.578125 141.664062 Z M 322.578125 141.664062 " fill-opacity="1" fill-rule="nonzero"/><path fill="#293237" d="M 291.042969 59.28125 C 293.703125 58.960938 296.050781 60.371094 300.09375 61.371094 C 303.402344 62.1875 307.976562 61.78125 309.226562 60.542969 C 307.804688 66.429688 308.542969 72.222656 308.542969 72.222656 C 308.734375 72.226562 308.90625 72.28125 309.058594 72.371094 C 309.398438 70.78125 309.921875 69.191406 310.65625 69.25 C 312.109375 69.375 313.140625 71.246094 312.953125 73.429688 C 312.8125 75.128906 311.625 76.488281 309.960938 76.910156 C 309.40625 77.050781 308.890625 76.71875 308.675781 76.183594 L 308.164062 77.738281 L 308.1875 78.058594 C 309.886719 77.761719 316.589844 76.191406 315.828125 70.101562 C 315.828125 70.101562 321.105469 64.046875 315.867188 59.328125 C 315.929688 53.855469 312.976562 51.195312 307.476562 50.929688 C 307.476562 50.929688 295.039062 49.871094 292.277344 49.703125 C 288.335938 49.457031 288.175781 52.867188 289.34375 57.476562 C 289.410156 57.742188 289.511719 57.96875 289.628906 58.179688 C 288.921875 59.578125 288.460938 61.125 288.324219 62.78125 C 288.148438 64.9375 288.53125 67.011719 289.347656 68.863281 C 289.410156 67.460938 289.703125 63.433594 291.042969 59.28125 Z M 291.042969 59.28125 " fill-opacity="1" fill-rule="nonzero"/><path fill="#293237" d="M 277.179688 127.265625 C 277.191406 127.265625 277.199219 127.261719 277.210938 127.261719 C 277.386719 127.246094 277.515625 127.089844 277.5 126.914062 L 275.550781 105.992188 C 275.53125 105.816406 275.386719 105.691406 275.199219 105.703125 C 275.023438 105.71875 274.890625 105.875 274.910156 106.054688 L 276.859375 126.972656 C 276.875 127.140625 277.015625 127.265625 277.179688 127.265625 Z M 277.179688 127.265625 " fill-opacity="1" fill-rule="nonzero"/><path fill="#293237" d="M 277.546875 165.449219 C 280.441406 165.449219 281.917969 163.035156 282.617188 161.25 C 281.351562 161.085938 280.097656 160.910156 278.859375 160.710938 C 278.414062 160.636719 278.015625 160.453125 277.679688 160.191406 L 277.484375 165.464844 C 277.507812 165.460938 277.527344 165.449219 277.546875 165.449219 Z M 277.546875 165.449219 " fill-opacity="1" fill-rule="nonzero"/><path fill="#293237" d="M 156.714844 106.695312 L 159.375 108.300781 C 159.429688 108.332031 159.484375 108.347656 159.542969 108.347656 C 159.652344 108.347656 159.757812 108.292969 159.816406 108.195312 C 159.910156 108.042969 159.859375 107.84375 159.710938 107.75 L 157.050781 106.144531 C 156.898438 106.054688 156.699219 106.101562 156.609375 106.253906 C 156.515625 106.40625 156.5625 106.601562 156.714844 106.695312 Z M 156.714844 106.695312 " fill-opacity="1" fill-rule="nonzero"/><g clip-path="url(#61dcc5d49d)"><path fill="#293237" d="M 254.09375 285.292969 C 254 285.984375 254.542969 286.597656 255.238281 286.597656 L 284.367188 286.597656 C 284.96875 286.597656 285.472656 286.132812 285.515625 285.527344 C 285.554688 285.035156 285.589844 284.386719 285.605469 283.640625 L 261.660156 283.640625 L 259.664062 280.523438 C 258.964844 280.863281 258.296875 281.171875 257.679688 281.441406 C 254.953125 282.621094 254.265625 283.980469 254.09375 285.292969 Z M 254.09375 285.292969 " fill-opacity="1" fill-rule="nonzero"/></g><path fill="#293237" d="M 272.453125 271.863281 C 270.1875 274.691406 264.261719 278.292969 259.664062 280.523438 L 261.660156 283.640625 L 285.605469 283.640625 C 285.664062 281.175781 285.523438 277.578125 284.5 274.433594 C 281.558594 275.933594 276.332031 276.984375 272.453125 271.863281 Z M 272.453125 271.863281 " fill-opacity="1" fill-rule="nonzero"/><path fill="#293237" d="M 321.605469 238.488281 C 322.980469 228.179688 320.945312 213.023438 320.945312 213.023438 L 321.863281 166.214844 C 318.488281 166.210938 316.820312 163.425781 316.058594 161.445312 C 316.320312 161.410156 316.578125 161.375 316.835938 161.339844 C 317.550781 163.113281 319.023438 165.449219 321.871094 165.449219 C 321.875 165.449219 321.875 165.453125 321.878906 165.453125 L 321.980469 160.320312 C 321.683594 160.519531 321.34375 160.664062 320.972656 160.726562 C 309.199219 162.726562 295.691406 162.886719 283.289062 161.339844 C 283.324219 161.34375 283.359375 161.347656 283.394531 161.351562 C 282.648438 163.339844 280.980469 166.21875 277.546875 166.21875 C 277.515625 166.21875 277.488281 166.207031 277.457031 166.199219 L 275.753906 212.523438 L 273.53125 264.765625 L 286.546875 264.765625 C 289.378906 255.359375 295.960938 232.171875 292.75 215.511719 L 299.765625 167.949219 L 295.589844 167.6875 C 295.378906 167.671875 295.21875 167.488281 295.230469 167.277344 C 295.242188 167.066406 295.421875 166.894531 295.636719 166.921875 L 301.554688 167.292969 C 301.765625 167.304688 301.925781 167.488281 301.914062 167.699219 C 301.898438 167.898438 301.738281 168.050781 301.542969 168.058594 L 304.492188 264.761719 L 317.484375 264.761719 C 318.574219 258.289062 320.625 245.863281 321.605469 238.488281 Z M 321.605469 238.488281 " fill-opacity="1" fill-rule="nonzero"/><path fill="#293237" d="M 333.121094 171.335938 C 332.953125 171.328125 332.789062 171.453125 332.773438 171.628906 L 332.414062 175.789062 L 330.085938 183.609375 C 330.035156 183.785156 329.898438 183.925781 329.71875 183.984375 C 329.546875 184.039062 329.371094 184.007812 329.234375 183.898438 C 328.710938 183.492188 328.410156 182.816406 328.339844 181.898438 C 328.140625 179.34375 328.269531 176.3125 328.269531 176.28125 C 328.277344 176.148438 328.199219 176.027344 328.078125 175.972656 C 328.039062 175.953125 327.066406 175.503906 326.65625 174.105469 C 326.605469 173.9375 326.429688 173.839844 326.257812 173.886719 C 326.085938 173.9375 325.988281 174.117188 326.039062 174.289062 C 326.421875 175.59375 327.238281 176.222656 327.621094 176.453125 C 327.59375 177.179688 327.527344 179.738281 327.699219 181.949219 C 327.785156 183.054688 328.167969 183.882812 328.835938 184.40625 C 329.042969 184.566406 329.296875 184.652344 329.554688 184.652344 C 329.675781 184.652344 329.796875 184.632812 329.914062 184.597656 C 330.296875 184.476562 330.589844 184.175781 330.707031 183.792969 L 333.039062 175.941406 C 333.046875 175.921875 333.050781 175.902344 333.054688 175.878906 L 333.414062 171.683594 C 333.429688 171.507812 333.296875 171.351562 333.121094 171.335938 Z M 333.121094 171.335938 " fill-opacity="1" fill-rule="nonzero"/><g clip-path="url(#cdb84bc90f)"><path fill="#293237" d="M 323.117188 279.039062 C 323.117188 279.039062 323.117188 279.042969 323.121094 279.042969 C 323.050781 278.976562 322.980469 278.917969 322.910156 278.855469 C 322.328125 278.332031 321.734375 277.8125 321.144531 277.28125 C 321.007812 277.160156 320.871094 277.035156 320.738281 276.910156 C 320.59375 276.777344 320.449219 276.644531 320.304688 276.507812 C 320.160156 276.371094 320.015625 276.230469 319.875 276.089844 C 319.746094 275.960938 319.617188 275.832031 319.492188 275.699219 C 319.347656 275.550781 319.207031 275.394531 319.070312 275.238281 C 318.953125 275.113281 318.839844 274.984375 318.726562 274.851562 C 318.585938 274.683594 318.453125 274.507812 318.320312 274.332031 C 318.222656 274.203125 318.121094 274.078125 318.03125 273.949219 C 317.886719 273.746094 317.761719 273.535156 317.632812 273.324219 C 317.558594 273.210938 317.484375 273.097656 317.417969 272.980469 C 317.234375 272.648438 317.0625 272.308594 316.917969 271.949219 C 316.914062 271.945312 316.910156 271.941406 316.910156 271.933594 C 316.847656 271.789062 316.796875 271.636719 316.742188 271.488281 C 316.027344 271.253906 315.308594 271.15625 314.59375 271.195312 C 314.234375 271.214844 313.871094 271.265625 313.515625 271.347656 C 311.730469 271.765625 309.96875 272.96875 308.292969 274.761719 C 307.273438 275.851562 306.324219 276.136719 305.519531 276.046875 C 305.269531 276.019531 305.03125 275.957031 304.8125 275.871094 C 304.796875 276.167969 304.785156 276.46875 304.773438 276.78125 C 304.769531 276.894531 304.761719 277.015625 304.757812 277.132812 C 304.75 277.308594 304.746094 277.484375 304.738281 277.664062 C 304.730469 277.855469 304.722656 278.050781 304.714844 278.246094 C 304.710938 278.359375 304.707031 278.472656 304.703125 278.589844 C 304.699219 278.824219 304.691406 279.0625 304.683594 279.304688 C 304.679688 279.375 304.679688 279.445312 304.675781 279.515625 C 304.625 281.238281 304.589844 283.171875 304.578125 285.429688 C 304.574219 286.070312 305.09375 286.59375 305.734375 286.59375 L 326.015625 286.59375 C 326.71875 286.59375 327.273438 285.964844 327.160156 285.265625 C 326.730469 282.640625 325.042969 280.796875 323.117188 279.039062 Z M 323.117188 279.039062 " fill-opacity="1" fill-rule="nonzero"/></g><path fill="#293237" d="M 101.144531 108.023438 C 100.996094 108.121094 100.957031 108.320312 101.050781 108.46875 L 107.824219 118.871094 C 107.886719 118.964844 107.992188 119.015625 108.09375 119.015625 C 108.15625 119.015625 108.214844 119 108.269531 118.964844 C 108.417969 118.867188 108.460938 118.667969 108.363281 118.519531 L 101.589844 108.121094 C 101.496094 107.96875 101.292969 107.929688 101.144531 108.023438 Z M 101.144531 108.023438 " fill-opacity="1" fill-rule="nonzero"/><path fill="#293237" d="M 191.121094 152.316406 L 175.210938 152.316406 C 175.84375 151.132812 176.207031 149.78125 176.207031 148.34375 C 176.207031 143.6875 172.433594 139.914062 167.777344 139.914062 C 163.121094 139.914062 159.347656 143.6875 159.347656 148.34375 C 159.347656 149.78125 159.710938 151.132812 160.34375 152.316406 L 145.078125 152.316406 C 143.25 152.316406 141.761719 153.800781 141.761719 155.632812 L 141.761719 201.675781 C 141.761719 203.507812 143.25 204.992188 145.078125 204.992188 L 191.121094 204.992188 C 192.953125 204.992188 194.4375 203.507812 194.4375 201.675781 L 194.4375 155.632812 C 194.4375 153.800781 192.953125 152.316406 191.121094 152.316406 Z M 191.121094 152.316406 " fill-opacity="1" fill-rule="nonzero"/><path fill="#293237" d="M 143.832031 88.878906 C 142.585938 75.414062 145.449219 73.25 146.007812 64.015625 C 146.566406 54.78125 137.039062 46.644531 124.4375 49.367188 C 114.144531 51.242188 108.1875 50.917969 106.128906 62.675781 C 104.074219 74.433594 106.59375 75.933594 96.453125 85.144531 C 86.363281 94.308594 76.308594 116.628906 90.074219 129.476562 C 90.371094 129.183594 90.652344 128.921875 90.898438 128.695312 C 90.046875 127.953125 89.632812 126.789062 89.898438 125.628906 L 95.507812 101.320312 C 96.996094 94.195312 103.277344 89.09375 110.554688 89.09375 C 112.378906 89.09375 114.140625 89.40625 115.78125 89.972656 C 115.75 89.960938 115.722656 89.949219 115.695312 89.9375 L 121.398438 75.957031 C 120.945312 76.382812 120.164062 76.492188 119.503906 76.132812 C 117.566406 75.089844 116.546875 73.378906 116.949219 71.769531 C 117.464844 69.703125 118.613281 68.332031 120.476562 68.792969 C 122.117188 69.195312 122.320312 71.210938 122.175781 72.90625 C 126.953125 71.351562 123.953125 64.015625 126.15625 60.367188 C 129.832031 62.585938 135.351562 64.421875 138.84375 64.914062 C 139.21875 64.96875 139.589844 65.003906 139.960938 65.035156 C 140.5 66.5 140.707031 68.109375 140.492188 69.765625 L 139.148438 80.152344 C 138.703125 83.535156 136.175781 86.441406 132.644531 87.179688 C 131.617188 87.390625 130.59375 87.398438 129.617188 87.238281 L 125.625 97.316406 L 137.859375 106.828125 L 141.089844 104.851562 C 141.714844 99.882812 144.414062 95.164062 143.832031 88.878906 Z M 143.832031 88.878906 " fill-opacity="1" fill-rule="nonzero"/><path fill="#293237" d="M 257.667969 100.945312 L 257.667969 55.191406 C 257.667969 53.371094 256.195312 51.894531 254.375 51.894531 L 240.140625 51.894531 C 240.761719 53.0625 241.117188 54.390625 241.117188 55.800781 C 241.117188 60.402344 237.386719 64.136719 232.78125 64.136719 C 228.179688 64.136719 224.449219 60.402344 224.449219 55.800781 C 224.449219 54.390625 224.804688 53.0625 225.421875 51.894531 L 208.621094 51.894531 C 206.804688 51.894531 205.328125 53.371094 205.328125 55.191406 L 205.328125 70.378906 C 206.527344 69.90625 207.855469 69.691406 209.257812 69.84375 C 213.300781 70.285156 216.488281 73.703125 216.628906 77.769531 C 216.796875 82.472656 213.03125 86.339844 208.363281 86.339844 C 207.292969 86.339844 206.269531 86.128906 205.328125 85.757812 L 205.328125 100.945312 C 205.328125 102.765625 206.804688 104.238281 208.621094 104.238281 L 254.375 104.238281 C 256.195312 104.238281 257.667969 102.765625 257.667969 100.945312 Z M 257.667969 100.945312 " fill-opacity="1" fill-rule="nonzero"/><path fill="#293237" d="M 241.273438 110.050781 L 237.148438 110.050781 C 236.972656 110.050781 236.828125 110.191406 236.828125 110.371094 C 236.828125 110.546875 236.972656 110.691406 237.148438 110.691406 L 241.273438 110.691406 C 241.449219 110.691406 241.59375 110.546875 241.59375 110.371094 C 241.59375 110.191406 241.449219 110.050781 241.273438 110.050781 Z M 241.273438 110.050781 " fill-opacity="1" fill-rule="nonzero"/><path fill="#e0e0e0" d="M 197.210938 101.21875 C 195.792969 101.21875 194.457031 101.574219 193.285156 102.203125 L 193.285156 87.109375 C 193.285156 85.296875 191.816406 83.828125 190.007812 83.828125 L 160.660156 83.828125 C 160.191406 84.648438 159.152344 84.566406 158.765625 83.828125 L 158.230469 83.828125 C 157.761719 84.9375 156.390625 84.847656 156 83.828125 L 155.734375 83.828125 C 155.378906 85.074219 153.785156 85.085938 153.382812 83.828125 L 152.59375 83.828125 C 152.289062 84.867188 150.84375 85.054688 150.265625 83.828125 L 144.480469 83.828125 C 142.667969 83.828125 141.199219 85.296875 141.199219 87.109375 L 141.199219 104.5625 L 142.902344 103.429688 C 142.984375 103.378906 143.0625 103.332031 143.144531 103.285156 C 143.683594 102.851562 144.316406 102.523438 145.007812 102.347656 C 148.722656 101.410156 153.082031 101.226562 155.03125 101.195312 L 155.023438 101.183594 C 155.269531 101.183594 155.507812 101.1875 155.734375 101.1875 C 155.941406 101.1875 156.0625 101.1875 156.0625 101.1875 C 162.546875 101.214844 162.480469 101.175781 164.550781 101.175781 C 166.480469 101.175781 165.460938 103.199219 163.847656 103.503906 C 162.449219 103.769531 159.363281 104.136719 157.890625 104.308594 L 159.222656 105.511719 C 159.847656 106.074219 160.050781 106.972656 159.726562 107.75 L 157.914062 112.132812 C 157.753906 112.519531 157.398438 112.785156 156.988281 112.835938 L 154.761719 113.097656 C 154.433594 113.136719 154.097656 113.042969 153.835938 112.835938 L 152.542969 111.816406 C 150.722656 111.84375 148.886719 111.6875 147.457031 111.507812 L 141.203125 116.632812 L 141.203125 132.636719 C 141.203125 134.445312 142.671875 135.914062 144.480469 135.914062 L 158.976562 135.914062 C 158.585938 134.945312 158.367188 133.890625 158.367188 132.78125 C 158.367188 128.128906 162.140625 124.355469 166.796875 124.355469 C 171.449219 124.355469 175.222656 128.128906 175.222656 132.78125 C 175.222656 133.890625 175.003906 134.945312 174.613281 135.914062 L 190.007812 135.914062 C 191.820312 135.914062 193.289062 134.449219 193.289062 132.636719 L 193.289062 116.902344 C 194.457031 117.527344 195.792969 117.886719 197.214844 117.886719 C 201.816406 117.886719 205.546875 114.152344 205.546875 109.550781 C 205.546875 104.949219 201.8125 101.21875 197.210938 101.21875 Z M 197.210938 101.21875 " fill-opacity="1" fill-rule="nonzero"/><path fill="#26b1d8" d="M 139.402344 68.269531 C 137.984375 68.269531 136.757812 69.277344 136.148438 70.75 C 135.476562 70.347656 134.816406 70.554688 134.402344 70.832031 C 133.792969 69.363281 132.570312 68.359375 131.15625 68.359375 C 129.136719 68.359375 127.496094 70.410156 127.496094 72.941406 C 127.496094 75.472656 129.136719 77.523438 131.15625 77.523438 C 133.179688 77.523438 134.816406 75.472656 134.816406 72.941406 C 134.816406 72.425781 134.746094 71.933594 134.621094 71.46875 C 134.714844 71.386719 135.289062 70.910156 135.933594 71.390625 C 135.808594 71.851562 135.742188 72.339844 135.742188 72.851562 C 135.742188 75.382812 137.378906 77.433594 139.402344 77.433594 C 141.421875 77.433594 143.058594 75.382812 143.058594 72.851562 C 143.058594 70.320312 141.421875 68.269531 139.402344 68.269531 Z M 131.15625 76.878906 C 129.492188 76.878906 128.140625 75.113281 128.140625 72.941406 C 128.140625 70.769531 129.492188 69 131.15625 69 C 132.820312 69 134.171875 70.769531 134.171875 72.941406 C 134.171875 75.113281 132.820312 76.878906 131.15625 76.878906 Z M 139.402344 76.789062 C 137.738281 76.789062 136.382812 75.023438 136.382812 72.851562 C 136.382812 70.679688 137.738281 68.910156 139.402344 68.910156 C 141.0625 68.910156 142.417969 70.679688 142.417969 72.851562 C 142.417969 75.023438 141.0625 76.789062 139.402344 76.789062 Z M 139.402344 76.789062 " fill-opacity="1" fill-rule="nonzero"/></svg>