<svg xmlns="http://www.w3.org/2000/svg" xmlns:xlink="http://www.w3.org/1999/xlink" width="540" zoomAndPan="magnify" viewBox="0 0 404.88 299.999988" height="400" preserveAspectRatio="xMidYMid meet" version="1.0"><defs><clipPath id="ceccfa217e"><path d="M 52.84375 157 L 215 157 L 215 285 L 52.84375 285 Z M 52.84375 157 " clip-rule="nonzero"/></clipPath><clipPath id="14d7599c4f"><path d="M 98 14.546875 L 352 14.546875 L 352 285 L 98 285 Z M 98 14.546875 " clip-rule="nonzero"/></clipPath><clipPath id="1d361e62d4"><path d="M 52.84375 14.546875 L 323 14.546875 L 323 285 L 52.84375 285 Z M 52.84375 14.546875 " clip-rule="nonzero"/></clipPath></defs><path fill="#f5f5f5" d="M 62.417969 135.011719 L 114.144531 135.011719 C 115.40625 135.011719 116.429688 133.988281 116.429688 132.726562 L 116.429688 94.460938 C 116.429688 93.199219 115.40625 92.175781 114.144531 92.175781 L 62.417969 92.175781 C 61.15625 92.175781 60.132812 93.199219 60.132812 94.460938 L 60.132812 132.726562 C 60.132812 133.988281 61.15625 135.011719 62.417969 135.011719 Z M 62.417969 135.011719 " fill-opacity="1" fill-rule="nonzero"/><g clip-path="url(#ceccfa217e)"><path fill="#f5f5f5" d="M 204.679688 208.496094 C 204.820312 208.460938 204.929688 208.347656 204.949219 208.199219 L 205.152344 206.679688 C 205.179688 206.460938 205.011719 206.269531 204.792969 206.269531 L 204.71875 206.269531 C 204.789062 205.984375 204.832031 205.691406 204.832031 205.386719 C 204.832031 203.398438 203.21875 201.785156 201.226562 201.785156 C 199.238281 201.785156 197.621094 203.398438 197.621094 205.386719 C 197.621094 205.691406 197.664062 205.984375 197.734375 206.269531 L 197.660156 206.269531 C 197.441406 206.269531 197.273438 206.460938 197.300781 206.679688 L 197.503906 208.199219 C 197.523438 208.347656 197.632812 208.460938 197.773438 208.496094 L 198.355469 212.839844 L 191.574219 212.839844 L 191.679688 211.117188 C 193.597656 210.714844 195.039062 209.011719 195.039062 206.976562 C 195.039062 205.121094 193.835938 203.542969 192.167969 202.972656 L 192.304688 200.730469 L 183.492188 200.730469 L 184.222656 212.839844 L 142.066406 212.839844 L 142.121094 212.816406 L 142.121094 212.839844 L 165.363281 212.839844 L 165.363281 211.933594 C 163.339844 211.324219 161.316406 210.875 159.292969 210.585938 L 159.292969 201.664062 L 175.058594 201.664062 C 175.554688 201.664062 176.007812 201.261719 176.074219 200.765625 L 180.226562 168.371094 C 180.289062 167.875 179.9375 167.476562 179.441406 167.476562 L 132.425781 167.476562 C 131.929688 167.476562 131.476562 167.878906 131.414062 168.371094 L 127.261719 200.765625 C 127.199219 201.261719 127.550781 201.664062 128.046875 201.664062 L 147.429688 201.664062 L 147.429688 210.699219 L 147.5 210.699219 C 147.335938 210.726562 147.167969 210.75 147.003906 210.78125 C 147.046875 210.773438 147.089844 210.761719 147.136719 210.753906 L 147.171875 210.742188 L 147.238281 208.457031 C 147.210938 208.425781 147.179688 208.402344 147.152344 208.371094 C 147.042969 208.230469 146.902344 208.117188 146.738281 208.039062 C 146.679688 208.007812 146.621094 207.988281 146.5625 207.964844 L 142.144531 206.101562 C 142.105469 206.082031 142.070312 206.0625 142.027344 206.042969 C 141.625 205.871094 141.203125 205.757812 140.753906 205.824219 L 134.945312 206.886719 L 135.992188 206.695312 C 135.710938 206.59375 135.421875 206.507812 135.117188 206.476562 L 118.625 203.894531 L 112.875 188.308594 C 112.761719 188 112.621094 187.714844 112.464844 187.445312 C 112.011719 186.019531 111 184.554688 108.734375 184.160156 C 108.351562 184.09375 107.988281 184.03125 107.628906 183.972656 L 107.855469 180.464844 C 110.332031 179.398438 111.800781 176.921875 111.6875 174.359375 L 111.65625 173.636719 L 111.65625 173.714844 C 112.199219 174.414062 112.507812 175.273438 112.507812 176.179688 C 112.507812 176.285156 112.5 176.390625 112.492188 176.496094 C 112.152344 176.53125 111.886719 176.808594 111.886719 177.152344 C 111.886719 177.523438 112.1875 177.824219 112.558594 177.824219 C 112.929688 177.824219 113.230469 177.523438 113.230469 177.152344 C 113.230469 176.898438 113.082031 176.679688 112.867188 176.566406 C 112.878906 176.4375 112.890625 176.308594 112.890625 176.179688 C 112.890625 175.140625 112.515625 174.152344 111.867188 173.371094 C 112.292969 172.816406 112.558594 172.132812 112.558594 171.378906 C 112.558594 170.398438 112.121094 169.523438 111.441406 168.921875 L 111.628906 173.101562 L 111.324219 166.324219 C 111.292969 165.703125 111.183594 165.105469 111.019531 164.535156 C 111.015625 163.859375 110.914062 163.207031 110.722656 162.59375 C 110.722656 162.597656 110.71875 162.601562 110.71875 162.601562 C 110.71875 162.601562 110.722656 162.597656 110.722656 162.597656 C 110.742188 162.519531 110.773438 162.449219 110.792969 162.371094 C 110.703125 162.246094 110.605469 162.136719 110.511719 162.019531 C 109.515625 159.632812 107.15625 157.957031 104.410156 157.957031 L 101.695312 157.957031 C 98.046875 157.957031 95.085938 160.914062 95.085938 164.5625 C 95.085938 164.472656 95.097656 164.386719 95.101562 164.296875 C 94.546875 165.695312 94.34375 167.214844 94.527344 168.710938 C 93.691406 169.308594 93.140625 170.277344 93.140625 171.378906 C 93.140625 171.878906 93.261719 172.347656 93.460938 172.773438 C 93.460938 172.769531 93.457031 172.769531 93.457031 172.765625 L 90.414062 174.132812 C 86.824219 175.746094 85.226562 179.964844 86.839844 183.550781 C 87.390625 184.773438 88.25 185.757812 89.277344 186.46875 C 88.445312 187.222656 87.796875 188.191406 87.425781 189.375 L 63.828125 189.375 L 67.699219 212.84375 L 52.84375 212.84375 L 52.84375 216.207031 L 64.4375 216.207031 L 53.375 284.867188 L 57.90625 284.867188 L 68.726562 219.09375 L 73.4375 247.65625 L 73.4375 284.867188 L 78.347656 284.867188 L 78.347656 251.546875 L 91.355469 251.546875 L 91.355469 284.867188 L 96.265625 284.867188 L 96.265625 251.546875 L 97.148438 251.546875 L 102.632812 284.867188 L 107.160156 284.867188 L 101.792969 251.546875 L 119.292969 251.546875 L 119.292969 273.871094 L 119.203125 274.492188 L 119.269531 274.492188 C 118.644531 278.5625 117.617188 280.628906 118.679688 284.867188 L 142.121094 284.867188 L 142.121094 256.042969 L 145.214844 266.199219 C 145.097656 266.234375 145.007812 266.34375 145.007812 266.472656 C 145.007812 266.632812 145.140625 266.765625 145.300781 266.765625 L 145.390625 266.765625 L 147.746094 274.492188 L 156.472656 274.492188 C 156.929688 279.105469 155.527344 280.617188 156.59375 284.867188 L 177.191406 284.867188 C 177.191406 284.867188 177.679688 282.601562 174.875 281.25 C 172.605469 280.152344 169.3125 278.601562 167.371094 276.28125 C 167.261719 276.148438 167.15625 276.011719 167.058594 275.878906 L 176.878906 216.207031 L 199.007812 216.207031 L 210.304688 284.871094 L 214.835938 284.871094 L 203.773438 216.207031 L 214.835938 216.207031 L 214.835938 212.84375 L 204.101562 212.84375 Z M 192.097656 204.15625 C 193.167969 204.648438 193.914062 205.726562 193.914062 206.976562 C 193.914062 208.359375 193.003906 209.535156 191.75 209.9375 Z M 94.226562 173.808594 C 94.296875 173.871094 94.371094 173.929688 94.445312 173.988281 C 94.371094 173.929688 94.296875 173.871094 94.226562 173.808594 Z M 98.449219 174.484375 L 98.902344 175.628906 L 98.394531 174.5 C 98.414062 174.492188 98.429688 174.488281 98.449219 174.484375 Z M 98.894531 174.289062 C 98.90625 174.28125 98.921875 174.273438 98.933594 174.265625 C 98.921875 174.273438 98.90625 174.28125 98.894531 174.289062 Z M 98.789062 179.214844 L 99.046875 175.988281 L 98.777344 179.359375 Z M 99.964844 173.394531 C 99.992188 173.359375 100.023438 173.328125 100.050781 173.292969 C 100.023438 173.328125 99.992188 173.359375 99.964844 173.394531 Z M 100.609375 171.984375 C 100.644531 171.785156 100.667969 171.585938 100.667969 171.378906 C 100.667969 171.585938 100.644531 171.785156 100.609375 171.984375 Z M 100.203125 173.039062 C 100.253906 172.953125 100.304688 172.867188 100.347656 172.773438 C 100.304688 172.867188 100.257812 172.953125 100.203125 173.039062 Z M 100.449219 172.542969 C 100.492188 172.425781 100.527344 172.304688 100.558594 172.179688 C 100.527344 172.304688 100.492188 172.425781 100.449219 172.542969 Z M 99.859375 169.230469 C 99.886719 168.707031 99.890625 168.222656 99.882812 167.816406 C 99.890625 168.222656 99.886719 168.707031 99.859375 169.230469 Z M 99.484375 159.996094 C 99.753906 159.746094 100.050781 159.523438 100.371094 159.335938 C 100.050781 159.523438 99.753906 159.746094 99.484375 159.996094 Z M 99.488281 172.664062 C 99.65625 172.269531 99.75 171.835938 99.75 171.378906 C 99.75 171.835938 99.65625 172.269531 99.488281 172.664062 Z M 97.917969 174.625 C 97.738281 174.660156 97.554688 174.679688 97.367188 174.679688 C 97.554688 174.679688 97.738281 174.65625 97.917969 174.625 Z M 97.730469 174.421875 C 97.734375 174.417969 97.738281 174.417969 97.742188 174.414062 C 97.738281 174.417969 97.734375 174.417969 97.730469 174.421875 Z M 124.578125 239.085938 L 128.046875 235.070312 Z M 123.914062 239.085938 L 122.023438 239.085938 L 123.914062 239.074219 C 123.914062 239.074219 123.914062 239.070312 123.914062 239.070312 C 123.914062 239.074219 123.914062 239.078125 123.914062 239.085938 Z M 123.929688 238.976562 C 123.941406 238.945312 123.957031 238.914062 123.980469 238.882812 C 123.957031 238.914062 123.941406 238.945312 123.929688 238.976562 Z M 141.078125 212.839844 L 141.457031 212.839844 Z M 144.84375 211.214844 C 144.824219 211.222656 144.800781 211.226562 144.777344 211.230469 C 144.800781 211.226562 144.824219 211.222656 144.84375 211.214844 Z M 143.5 211.546875 C 143.042969 211.667969 142.585938 211.792969 142.132812 211.929688 C 142.585938 211.792969 143.042969 211.667969 143.5 211.546875 Z M 142.152344 210.640625 C 142.144531 210.640625 142.140625 210.640625 142.132812 210.640625 L 142.121094 210.597656 C 142.128906 210.613281 142.140625 210.628906 142.152344 210.640625 Z M 110.335938 163.589844 C 110.277344 163.707031 110.226562 163.828125 110.160156 163.933594 C 110.296875 163.714844 110.414062 163.480469 110.515625 163.234375 C 110.621094 163.441406 110.714844 163.65625 110.796875 163.875 C 110.710938 163.65625 110.621094 163.441406 110.515625 163.234375 C 108.984375 166.9375 103.851562 167.386719 100.496094 167.433594 C 103.738281 167.386719 108.625 166.957031 110.335938 163.589844 C 110.40625 163.445312 110.476562 163.292969 110.539062 163.136719 C 110.476562 163.296875 110.40625 163.445312 110.335938 163.589844 Z M 105.136719 158.78125 C 105 158.753906 104.859375 158.742188 104.722656 158.722656 C 104.925781 158.75 105.128906 158.777344 105.328125 158.820312 C 105.261719 158.804688 105.199219 158.792969 105.136719 158.78125 Z M 105.453125 158.851562 C 105.734375 158.917969 106.011719 158.988281 106.285156 159.078125 C 106.230469 159.058594 106.171875 159.042969 106.117188 159.023438 C 105.898438 158.957031 105.675781 158.902344 105.453125 158.851562 Z M 106.78125 159.265625 C 106.917969 159.320312 107.058594 159.367188 107.195312 159.429688 C 107.175781 159.421875 107.15625 159.414062 107.136719 159.40625 C 107.023438 159.351562 106.898438 159.3125 106.78125 159.265625 Z M 109.785156 161.210938 C 109.546875 160.976562 109.296875 160.761719 109.039062 160.558594 C 109.296875 160.761719 109.546875 160.976562 109.785156 161.210938 Z M 107.210938 159.4375 C 107.835938 159.722656 108.429688 160.078125 108.984375 160.507812 C 108.429688 160.078125 107.835938 159.722656 107.210938 159.4375 Z M 104.253906 158.65625 C 104.222656 158.65625 104.195312 158.648438 104.164062 158.648438 C 104.195312 158.648438 104.226562 158.65625 104.253906 158.65625 Z M 102.964844 158.621094 L 103.144531 158.621094 L 103.144531 158.625 C 102.609375 158.644531 102.074219 158.710938 101.542969 158.824219 C 101.996094 158.695312 102.46875 158.621094 102.964844 158.621094 Z M 100.402344 159.316406 C 100.507812 159.253906 100.613281 159.199219 100.71875 159.148438 C 100.613281 159.199219 100.507812 159.253906 100.402344 159.316406 Z M 100.796875 159.109375 C 100.902344 159.0625 101.007812 159.015625 101.117188 158.972656 C 101.007812 159.015625 100.902344 159.0625 100.796875 159.109375 Z M 101.191406 158.945312 C 101.308594 158.902344 101.425781 158.859375 101.542969 158.824219 C 101.425781 158.859375 101.308594 158.902344 101.191406 158.945312 Z M 99.390625 160.082031 C 99.324219 160.148438 99.257812 160.21875 99.195312 160.289062 C 99.257812 160.21875 99.324219 160.148438 99.390625 160.082031 Z M 99.078125 160.417969 C 99.019531 160.484375 98.964844 160.550781 98.910156 160.621094 C 98.964844 160.550781 99.019531 160.484375 99.078125 160.417969 Z M 98.789062 160.785156 C 98.742188 160.851562 98.695312 160.917969 98.648438 160.984375 C 98.695312 160.917969 98.742188 160.851562 98.789062 160.785156 Z M 98.515625 161.207031 C 98.476562 161.273438 98.4375 161.335938 98.402344 161.402344 C 98.4375 161.335938 98.476562 161.273438 98.515625 161.207031 Z M 98.226562 161.773438 C 98.203125 161.824219 98.183594 161.878906 98.164062 161.933594 C 98.183594 161.878906 98.203125 161.824219 98.226562 161.773438 Z M 98.0625 162.214844 C 98.042969 162.273438 98.027344 162.332031 98.007812 162.390625 C 98.027344 162.332031 98.042969 162.273438 98.0625 162.214844 Z M 97.933594 162.679688 C 97.921875 162.738281 97.910156 162.796875 97.898438 162.855469 C 97.910156 162.796875 97.921875 162.738281 97.933594 162.679688 Z M 97.847656 163.179688 C 97.84375 163.230469 97.832031 163.28125 97.828125 163.335938 C 97.832031 163.28125 97.84375 163.230469 97.847656 163.179688 Z M 97.804688 168.109375 C 98.300781 168.179688 98.75 168.367188 99.148438 168.628906 C 98.75 168.371094 98.296875 168.1875 97.804688 168.121094 Z M 96.449219 174.679688 C 96.449219 174.679688 96.445312 174.679688 96.445312 174.679688 C 96.242188 174.679688 96.042969 174.65625 95.851562 174.621094 C 96.046875 174.65625 96.242188 174.679688 96.445312 174.679688 C 96.445312 174.679688 96.449219 174.679688 96.449219 174.679688 Z M 95.105469 174.390625 C 94.945312 174.316406 94.789062 174.238281 94.644531 174.140625 C 94.789062 174.234375 94.941406 174.320312 95.105469 174.390625 Z M 95.675781 174.578125 C 95.539062 174.546875 95.410156 174.507812 95.28125 174.457031 C 95.410156 174.507812 95.539062 174.546875 95.675781 174.578125 Z M 95.085938 168.378906 C 94.976562 168.425781 94.871094 168.488281 94.769531 168.550781 C 94.871094 168.488281 94.976562 168.425781 95.085938 168.378906 Z M 94.007812 173.589844 C 93.960938 173.539062 93.917969 173.484375 93.875 173.429688 C 93.917969 173.484375 93.960938 173.539062 94.007812 173.589844 Z M 91.261719 185.234375 C 91.210938 185.253906 91.164062 185.273438 91.113281 185.296875 C 91.164062 185.273438 91.210938 185.253906 91.261719 185.234375 Z M 90.519531 185.582031 C 90.515625 185.585938 90.507812 185.589844 90.5 185.59375 C 90.507812 185.589844 90.515625 185.585938 90.519531 185.582031 Z M 89.867188 185.996094 C 89.867188 185.996094 89.867188 185.996094 89.863281 185.996094 C 89.867188 185.996094 89.867188 185.996094 89.867188 185.996094 Z M 130.222656 276.277344 C 129.621094 275.421875 129.265625 274.863281 129.050781 274.492188 L 137.210938 274.492188 L 137.210938 281.382812 C 137.128906 281.339844 137.050781 281.292969 136.960938 281.25 C 134.691406 280.152344 131.957031 278.757812 130.222656 276.277344 Z M 164.253906 264.96875 L 156.015625 228.496094 C 154.964844 223.832031 152.117188 220.421875 147.34375 220.109375 L 136.097656 219.359375 C 135.917969 219.339844 135.738281 219.3125 135.554688 219.300781 L 112.632812 217.796875 C 112.210938 217.242188 111.746094 216.714844 111.257812 216.207031 L 172.109375 216.207031 Z M 164.253906 264.96875 " fill-opacity="1" fill-rule="nonzero"/></g><path fill="#f5f5f5" d="M 294.519531 82.476562 L 316.410156 82.476562 C 317.820312 84.847656 320.402344 86.4375 323.363281 86.4375 C 327.828125 86.4375 331.449219 82.820312 331.449219 78.359375 C 331.449219 74.484375 328.722656 71.253906 325.082031 70.464844 L 325.082031 44.097656 C 325.082031 42.691406 323.941406 41.554688 322.535156 41.554688 L 294.519531 41.554688 C 293.113281 41.554688 291.972656 42.691406 291.972656 44.097656 L 291.972656 79.929688 C 291.972656 81.335938 293.113281 82.476562 294.519531 82.476562 Z M 320.242188 72.511719 C 320.421875 72.414062 320.605469 72.324219 320.796875 72.246094 C 320.609375 72.324219 320.421875 72.414062 320.242188 72.511719 Z M 320.871094 72.21875 C 321.042969 72.148438 321.21875 72.082031 321.402344 72.027344 C 321.222656 72.082031 321.042969 72.148438 320.871094 72.21875 Z M 321.574219 71.980469 C 321.726562 71.941406 321.875 71.898438 322.03125 71.863281 C 321.875 71.898438 321.722656 71.941406 321.574219 71.980469 Z M 318.707031 73.640625 C 319.152344 73.199219 319.664062 72.820312 320.222656 72.519531 C 319.664062 72.820312 319.152344 73.199219 318.707031 73.640625 Z M 316.800781 73.644531 Z M 317.414062 72.894531 C 317.398438 72.910156 317.386719 72.925781 317.375 72.9375 C 317.386719 72.925781 317.398438 72.910156 317.414062 72.894531 Z M 318.050781 72.269531 C 318.058594 72.265625 318.066406 72.261719 318.070312 72.253906 C 318.066406 72.261719 318.058594 72.265625 318.050781 72.269531 Z M 315.8125 75.476562 Z M 322.363281 71.816406 C 322.472656 71.796875 322.578125 71.777344 322.6875 71.765625 C 322.578125 71.777344 322.472656 71.796875 322.363281 71.816406 Z M 319.605469 71.203125 C 319.625 71.191406 319.648438 71.183594 319.671875 71.171875 C 319.648438 71.183594 319.625 71.191406 319.605469 71.203125 Z M 320.398438 70.84375 C 320.472656 70.8125 320.550781 70.789062 320.628906 70.761719 C 320.550781 70.789062 320.472656 70.8125 320.398438 70.84375 Z M 321.246094 70.566406 C 321.339844 70.539062 321.433594 70.515625 321.527344 70.492188 C 321.433594 70.515625 321.339844 70.539062 321.246094 70.566406 Z M 322.164062 70.375 C 322.253906 70.363281 322.34375 70.34375 322.4375 70.332031 C 322.34375 70.34375 322.253906 70.363281 322.164062 70.375 Z M 315.3125 77.582031 C 315.289062 77.835938 315.273438 78.097656 315.273438 78.359375 C 315.273438 78.601562 315.289062 78.84375 315.308594 79.082031 C 315.289062 78.84375 315.273438 78.601562 315.273438 78.359375 C 315.273438 78.097656 315.289062 77.835938 315.3125 77.582031 Z M 315.585938 76.15625 C 315.582031 76.167969 315.582031 76.175781 315.578125 76.183594 C 315.582031 76.175781 315.582031 76.167969 315.585938 76.15625 Z M 315.417969 76.851562 C 315.40625 76.917969 315.398438 76.980469 315.390625 77.046875 C 315.402344 76.980469 315.40625 76.917969 315.417969 76.851562 Z M 315.714844 80.96875 C 315.734375 81.035156 315.761719 81.097656 315.785156 81.164062 C 315.761719 81.097656 315.738281 81.035156 315.714844 80.96875 Z M 315.332031 79.296875 C 315.351562 79.480469 315.382812 79.660156 315.414062 79.835938 C 315.382812 79.660156 315.355469 79.480469 315.332031 79.296875 Z M 315.484375 80.164062 C 315.515625 80.308594 315.554688 80.453125 315.59375 80.597656 C 315.554688 80.453125 315.515625 80.308594 315.484375 80.164062 Z M 316.773438 77.625 C 316.746094 77.863281 316.730469 78.109375 316.730469 78.359375 C 316.730469 78.109375 316.746094 77.863281 316.773438 77.625 Z M 317.394531 75.480469 C 317.292969 75.6875 317.203125 75.90625 317.125 76.128906 C 317.203125 75.90625 317.292969 75.6875 317.394531 75.480469 Z M 317.109375 76.167969 C 317.035156 76.371094 316.976562 76.578125 316.925781 76.789062 C 316.976562 76.578125 317.035156 76.371094 317.109375 76.167969 Z M 316.898438 76.890625 C 316.855469 77.082031 316.820312 77.28125 316.792969 77.480469 C 316.820312 77.28125 316.855469 77.082031 316.898438 76.890625 Z M 324.257812 70.328125 C 324.25 70.328125 324.242188 70.324219 324.234375 70.324219 C 324.242188 70.328125 324.25 70.328125 324.257812 70.328125 Z M 324.257812 70.328125 " fill-opacity="1" fill-rule="nonzero"/><g clip-path="url(#14d7599c4f)"><path fill="#f5f5f5" d="M 338.867188 268.191406 L 322.230469 268.191406 L 320.464844 257.773438 L 321.972656 257.773438 L 314.238281 204.394531 L 312.574219 177.0625 C 312.574219 177.066406 312.570312 177.066406 312.570312 177.066406 C 313.132812 176.941406 313.695312 176.804688 314.265625 176.652344 C 314.265625 176.652344 314.75 167.074219 314.972656 164.359375 C 315.253906 160.980469 316.605469 150.902344 316.609375 150.898438 L 316.382812 151.714844 L 316.609375 150.898438 L 318.808594 143.292969 C 319.359375 141.375 318.878906 139.308594 317.535156 137.839844 C 315.472656 135.589844 311.433594 133.058594 306.296875 129.59375 C 306.296875 129.59375 306.199219 129.667969 306.03125 129.785156 C 306.066406 129.761719 306.101562 129.738281 306.125 129.71875 L 306.140625 125.480469 L 306.144531 124.707031 L 306.152344 125.414062 C 306.417969 124.90625 306.667969 124.316406 306.886719 123.738281 C 306.902344 123.738281 306.917969 123.738281 306.933594 123.738281 C 307.300781 123.703125 307.742188 123.574219 308.152344 123.21875 C 309.15625 122.335938 309.953125 120.925781 308.851562 119.761719 C 308.851562 119.761719 308.847656 119.757812 308.84375 119.757812 C 308.84375 119.753906 308.839844 119.753906 308.835938 119.75 C 308.613281 119.578125 307.191406 118.601562 306.265625 120.867188 C 306.265625 120.867188 306.101562 120.75 305.898438 120.5625 C 306.074219 120.714844 306.207031 120.804688 306.207031 120.804688 C 307.175781 118.324219 308.792969 119.671875 308.792969 119.671875 C 314.0625 111.515625 308.195312 110.792969 308.195312 110.792969 C 302.191406 104.585938 301.964844 108.996094 301.964844 108.996094 C 294.597656 104.617188 295.621094 109.304688 295.621094 109.304688 C 292.425781 109.980469 294.429688 111.980469 294.429688 111.980469 C 293.160156 113.28125 294.425781 114.066406 296.476562 114.542969 C 295.210938 118.214844 292.96875 126.355469 297.972656 126.535156 L 297.964844 126.574219 L 297.558594 128.222656 L 297.152344 129.890625 C 297.898438 132.90625 300.515625 132.570312 302.757812 131.628906 C 300.4375 132.605469 297.722656 132.933594 297.082031 129.59375 C 297.082031 129.59375 293.410156 130.761719 289.183594 133.132812 C 288.34375 133.601562 287.816406 134.488281 287.566406 135.417969 L 286.511719 139.171875 C 286.382812 139.109375 286.246094 139.066406 286.097656 139.066406 L 280.847656 139.066406 L 280.847656 53.667969 L 239.703125 53.667969 L 239.054688 45.023438 C 239.070312 44.9375 239.066406 44.867188 239.078125 44.789062 C 239.523438 44.175781 239.816406 43.394531 239.863281 42.425781 C 240.03125 38.941406 239.925781 33.242188 239.835938 31.960938 C 239.761719 30.90625 238.289062 30.769531 238.285156 32.234375 C 238.285156 32.976562 238.199219 33.839844 238.097656 35.167969 C 237.992188 33.527344 237.828125 31.167969 237.714844 30.382812 C 237.578125 29.429688 236.222656 29.269531 236.058594 30.269531 C 236.058594 30.542969 236.046875 30.738281 236.039062 30.523438 C 236.035156 30.429688 236.042969 30.347656 236.058594 30.269531 C 236.058594 30.105469 236.050781 29.917969 236.039062 29.773438 C 235.945312 28.761719 234.390625 28.65625 234.140625 29.824219 L 233.6875 34.277344 C 233.5625 32.738281 233.414062 31.023438 233.3125 30.304688 C 233.144531 29.121094 231.375 29.207031 231.421875 30.679688 C 231.460938 31.972656 231.40625 37.476562 231.390625 38.796875 C 231.34375 38.796875 231.296875 38.804688 231.25 38.828125 C 231.25 38.828125 231.25 38.828125 231.246094 38.828125 C 231.042969 38.464844 230.804688 38.046875 230.617188 37.738281 C 229.65625 36.179688 228.710938 35.96875 228.253906 36.179688 C 227.839844 36.371094 227.917969 36.570312 228.203125 37.386719 C 228.851562 39.25 229.09375 42.15625 231.648438 44.695312 C 231.796875 44.847656 231.960938 44.984375 232.121094 45.113281 L 231.609375 53.667969 L 227.964844 53.667969 C 227.804688 51.824219 227.644531 49.984375 227.414062 48.148438 C 227.15625 46.082031 225.835938 44.414062 224.074219 43.605469 C 224.074219 43.597656 224.078125 43.578125 224.078125 43.578125 C 219.996094 41.816406 216.003906 40.660156 212.050781 40.09375 L 212.117188 40.957031 L 211.5625 33.652344 C 212.667969 33.460938 217.101562 32.4375 216.601562 28.414062 C 216.601562 28.414062 220.078125 24.425781 216.625 21.320312 C 216.664062 17.714844 214.71875 15.964844 211.09375 15.789062 C 211.09375 15.789062 202.898438 15.089844 201.078125 14.980469 C 198.480469 14.820312 198.375 17.0625 199.144531 20.097656 C 199.1875 20.273438 199.257812 20.421875 199.332031 20.5625 C 199.101562 21.019531 198.90625 21.503906 198.761719 22.007812 C 198.75 22.050781 198.746094 22.09375 198.734375 22.132812 C 198.675781 22.347656 198.621094 22.5625 198.582031 22.78125 C 198.53125 23.046875 198.496094 23.316406 198.472656 23.59375 C 198.445312 23.917969 198.445312 24.238281 198.457031 24.558594 C 198.460938 24.65625 198.46875 24.75 198.476562 24.847656 C 198.492188 25.074219 198.515625 25.292969 198.546875 25.511719 C 198.5625 25.617188 198.582031 25.71875 198.601562 25.824219 C 198.644531 26.042969 198.695312 26.261719 198.753906 26.472656 C 198.78125 26.558594 198.800781 26.644531 198.824219 26.730469 C 198.917969 27.019531 199.027344 27.300781 199.148438 27.574219 C 199.148438 27.570312 199.148438 27.566406 199.152344 27.566406 C 199.140625 27.804688 199.136719 27.941406 199.136719 27.941406 L 199.214844 32.496094 C 199.25 34.554688 200.273438 36.417969 201.839844 37.550781 L 201.820312 39.976562 C 197.988281 40.445312 194.144531 41.476562 190.234375 43.109375 C 190.226562 43.109375 190.222656 43.113281 190.214844 43.117188 C 188.835938 43.59375 187.644531 44.609375 186.984375 46.042969 L 183.179688 53.667969 L 180.550781 53.667969 C 180.515625 53.015625 180.488281 52.394531 180.523438 51.804688 C 180.585938 50.691406 180.609375 50.417969 180.058594 50.300781 C 179.449219 50.175781 178.214844 50.871094 177.601562 53.136719 C 177.554688 53.316406 177.503906 53.492188 177.453125 53.667969 L 176.628906 53.667969 C 176.144531 52.238281 175.769531 51.230469 175.726562 51.121094 C 175.726562 51.117188 175.722656 51.113281 175.722656 51.109375 C 175.722656 51.105469 175.71875 51.101562 175.71875 51.101562 C 175.550781 50.703125 175.207031 50.394531 174.746094 50.308594 C 173.992188 50.171875 173.292969 50.695312 173.191406 51.441406 L 172.414062 51.546875 C 172.402344 51.335938 172.394531 51.164062 172.382812 51.054688 C 172.308594 50.300781 171.6875 49.726562 170.933594 49.792969 C 170.214844 49.855469 169.695312 50.472656 169.722656 51.167969 C 169.464844 50.570312 168.84375 50.207031 168.195312 50.367188 C 167.621094 50.507812 167.238281 50.996094 167.195312 51.542969 C 166.894531 51.183594 166.414062 51.007812 165.9375 51.152344 C 165.246094 51.363281 164.898438 52.132812 165.199219 52.789062 L 165.683594 53.667969 L 135.757812 53.667969 L 135.757812 45.316406 C 135.757812 42.78125 133.703125 40.726562 131.167969 40.726562 L 102.996094 40.726562 C 100.460938 40.726562 98.40625 42.78125 98.40625 45.316406 L 98.40625 56.472656 C 98.40625 59.003906 100.460938 61.058594 102.996094 61.058594 L 127.902344 61.058594 L 127.902344 157.488281 L 272.804688 157.488281 C 272.765625 157.574219 272.738281 157.664062 272.738281 157.757812 C 272.738281 157.882812 272.777344 158.015625 272.859375 158.132812 C 273.148438 158.53125 273.53125 158.847656 273.980469 159.050781 L 280.03125 161.796875 C 280.6875 162.097656 281.40625 162.253906 282.128906 162.253906 L 284.753906 162.253906 C 284.773438 162.253906 284.785156 162.253906 284.796875 162.257812 C 284.867188 162.269531 285.132812 162.324219 285.535156 162.40625 L 285.382812 163.234375 L 283.371094 172.972656 L 264.917969 190.230469 C 261.402344 194.445312 263.980469 200.296875 263.980469 200.296875 L 276.398438 242.671875 L 278.820312 242.671875 C 278.898438 243.738281 278.859375 244.800781 278.570312 245.609375 C 277.386719 248.96875 274.113281 248.894531 272.34375 249.265625 C 268.511719 250.066406 267.574219 252.304688 267.429688 252.738281 L 235.011719 252.738281 L 235.011719 284.332031 L 351.988281 284.332031 L 351.988281 268.191406 Z M 211.886719 32.417969 L 211.777344 32.75 L 211.550781 33.441406 L 211.886719 32.417969 C 211.941406 32.550781 212.027344 32.652344 212.128906 32.738281 C 212.027344 32.652344 211.941406 32.550781 211.886719 32.417969 Z M 212.347656 32.867188 C 212.46875 32.910156 212.597656 32.929688 212.734375 32.894531 C 212.597656 32.929688 212.46875 32.910156 212.347656 32.867188 Z M 214.707031 30.605469 C 214.722656 30.445312 214.722656 30.289062 214.71875 30.136719 C 214.722656 30.289062 214.722656 30.445312 214.707031 30.605469 Z M 214.707031 29.996094 C 214.699219 29.886719 214.6875 29.78125 214.671875 29.679688 C 214.6875 29.78125 214.699219 29.886719 214.707031 29.996094 Z M 214.582031 29.292969 C 214.570312 29.253906 214.5625 29.214844 214.550781 29.179688 C 214.5625 29.214844 214.570312 29.253906 214.582031 29.292969 Z M 214.472656 28.976562 C 214.472656 28.980469 214.472656 28.980469 214.472656 28.976562 C 214.453125 28.933594 214.433594 28.886719 214.410156 28.84375 C 214.433594 28.886719 214.453125 28.933594 214.472656 28.976562 Z M 214.277344 28.601562 C 214.273438 28.597656 214.269531 28.59375 214.269531 28.589844 C 214.269531 28.59375 214.273438 28.597656 214.277344 28.601562 Z M 214.050781 28.304688 C 214.046875 28.300781 214.042969 28.296875 214.039062 28.292969 C 214.042969 28.296875 214.046875 28.300781 214.050781 28.304688 Z M 213.519531 27.929688 C 213.414062 27.890625 213.304688 27.863281 213.195312 27.851562 C 213.304688 27.863281 213.414062 27.890625 213.519531 27.929688 Z M 213.800781 28.085938 C 213.773438 28.066406 213.742188 28.050781 213.714844 28.035156 C 213.742188 28.054688 213.773438 28.066406 213.800781 28.085938 Z M 199.210938 26.664062 C 199.21875 26.585938 199.226562 26.503906 199.234375 26.417969 C 199.226562 26.503906 199.21875 26.585938 199.210938 26.664062 Z M 199.167969 27.277344 C 199.167969 27.226562 199.171875 27.175781 199.175781 27.121094 C 199.171875 27.175781 199.167969 27.226562 199.167969 27.277344 Z M 199.183594 26.996094 C 199.191406 26.933594 199.195312 26.867188 199.199219 26.800781 C 199.195312 26.867188 199.191406 26.933594 199.183594 26.996094 Z M 199.347656 25.441406 C 199.308594 25.75 199.273438 26.035156 199.246094 26.296875 C 199.273438 26.035156 199.304688 25.75 199.347656 25.441406 Z M 200.089844 21.867188 C 200.144531 21.675781 200.203125 21.480469 200.265625 21.285156 C 200.203125 21.480469 200.144531 21.675781 200.089844 21.867188 Z M 199.367188 25.308594 C 199.382812 25.195312 199.398438 25.082031 199.417969 24.960938 C 199.398438 25.078125 199.382812 25.195312 199.367188 25.308594 Z M 199.441406 24.808594 C 199.460938 24.6875 199.480469 24.558594 199.503906 24.433594 C 199.480469 24.558594 199.460938 24.6875 199.441406 24.808594 Z M 199.527344 24.289062 C 199.589844 23.941406 199.660156 23.582031 199.746094 23.210938 C 199.664062 23.582031 199.589844 23.941406 199.527344 24.289062 Z M 199.785156 23.046875 C 199.816406 22.914062 199.847656 22.78125 199.878906 22.644531 C 199.847656 22.78125 199.816406 22.914062 199.785156 23.046875 Z M 199.929688 22.453125 C 199.964844 22.316406 200 22.183594 200.039062 22.046875 C 200 22.183594 199.964844 22.320312 199.929688 22.453125 Z M 292.996094 176.644531 C 293.074219 176.664062 293.152344 176.683594 293.234375 176.703125 C 293.152344 176.683594 293.074219 176.664062 292.996094 176.644531 Z M 294.070312 176.898438 C 294.152344 176.914062 294.230469 176.929688 294.3125 176.949219 C 294.230469 176.929688 294.152344 176.914062 294.070312 176.898438 Z M 304.945312 130.496094 C 304.695312 130.648438 304.417969 130.808594 304.121094 130.972656 C 304.417969 130.808594 304.695312 130.648438 304.945312 130.496094 Z M 305.164062 130.359375 C 305.109375 130.394531 305.050781 130.429688 304.988281 130.46875 C 305.050781 130.429688 305.109375 130.394531 305.164062 130.359375 Z M 305.351562 166.101562 C 305.203125 166.078125 305.050781 166.054688 304.898438 166.027344 C 305.050781 166.054688 305.203125 166.078125 305.351562 166.101562 Z M 304.617188 165.984375 C 304.457031 165.957031 304.292969 165.929688 304.128906 165.902344 C 304.292969 165.929688 304.457031 165.957031 304.617188 165.984375 Z M 303.847656 165.855469 C 303.664062 165.828125 303.476562 165.796875 303.289062 165.761719 C 303.476562 165.796875 303.664062 165.828125 303.847656 165.855469 Z M 303.050781 165.722656 C 302.789062 165.679688 302.523438 165.632812 302.25 165.585938 C 302.523438 165.632812 302.789062 165.679688 303.050781 165.722656 Z M 302.226562 165.582031 C 301.933594 165.53125 301.636719 165.476562 301.335938 165.425781 C 301.636719 165.476562 301.933594 165.53125 302.226562 165.582031 Z M 301.277344 165.414062 C 301 165.363281 300.71875 165.316406 300.4375 165.265625 C 300.722656 165.316406 301 165.363281 301.277344 165.414062 Z M 300.269531 165.234375 C 300.027344 165.191406 299.78125 165.148438 299.535156 165.101562 C 299.78125 165.148438 300.027344 165.191406 300.269531 165.234375 Z M 299.300781 165.058594 C 299.070312 165.015625 298.839844 164.976562 298.609375 164.933594 C 298.839844 164.972656 299.070312 165.015625 299.300781 165.058594 Z M 298.363281 164.886719 C 298.140625 164.847656 297.914062 164.804688 297.6875 164.761719 C 297.914062 164.804688 298.140625 164.847656 298.363281 164.886719 Z M 297.40625 164.710938 C 297.183594 164.667969 296.957031 164.625 296.734375 164.585938 C 296.957031 164.625 297.183594 164.667969 297.40625 164.710938 Z M 296.488281 164.539062 C 296.242188 164.492188 295.996094 164.445312 295.75 164.398438 C 295.996094 164.445312 296.242188 164.492188 296.488281 164.539062 Z M 295.574219 164.367188 C 294.339844 164.132812 293.128906 163.898438 291.984375 163.679688 C 293.128906 163.898438 294.339844 164.132812 295.574219 164.367188 Z M 291.703125 163.625 C 291.496094 163.582031 291.292969 163.542969 291.089844 163.503906 C 291.292969 163.542969 291.496094 163.582031 291.703125 163.625 Z M 290.964844 163.480469 C 290.730469 163.433594 290.5 163.386719 290.273438 163.34375 C 290.5 163.390625 290.730469 163.433594 290.964844 163.480469 Z M 305.617188 166.140625 C 305.757812 166.164062 305.898438 166.183594 306.035156 166.207031 C 305.898438 166.183594 305.757812 166.164062 305.617188 166.140625 Z M 306.296875 166.246094 C 306.429688 166.261719 306.554688 166.28125 306.679688 166.300781 C 306.554688 166.28125 306.429688 166.261719 306.296875 166.246094 Z M 306.910156 166.332031 C 307.046875 166.351562 307.171875 166.367188 307.300781 166.382812 C 307.171875 166.367188 307.046875 166.351562 306.910156 166.332031 Z M 307.472656 166.40625 C 307.652344 166.429688 307.820312 166.449219 307.976562 166.464844 C 307.820312 166.449219 307.652344 166.429688 307.472656 166.40625 Z M 305.894531 129.882812 C 305.929688 129.859375 305.960938 129.835938 305.992188 129.8125 C 305.960938 129.835938 305.929688 129.855469 305.894531 129.882812 Z M 305.257812 130.300781 C 305.308594 130.269531 305.355469 130.238281 305.40625 130.207031 C 305.355469 130.238281 305.308594 130.269531 305.257812 130.300781 Z M 305.5 130.148438 C 305.542969 130.117188 305.585938 130.089844 305.625 130.0625 C 305.585938 130.089844 305.542969 130.117188 305.5 130.148438 Z M 305.714844 130.003906 C 305.75 129.980469 305.785156 129.957031 305.820312 129.933594 C 305.785156 129.957031 305.75 129.980469 305.714844 130.003906 Z M 305.226562 115.277344 C 305.222656 115.292969 305.222656 115.304688 305.21875 115.324219 C 304.863281 115.316406 303.867188 115.296875 302.597656 115.222656 C 304.117188 115.285156 305.226562 115.277344 305.226562 115.277344 Z M 303.101562 131.480469 C 302.992188 131.527344 302.886719 131.574219 302.777344 131.621094 C 302.886719 131.574219 302.996094 131.527344 303.101562 131.480469 Z M 304.117188 130.972656 C 304.023438 131.023438 303.929688 131.074219 303.832031 131.125 C 303.929688 131.074219 304.023438 131.023438 304.117188 130.972656 Z M 303.785156 131.148438 C 303.691406 131.199219 303.59375 131.246094 303.496094 131.292969 C 303.59375 131.246094 303.691406 131.195312 303.785156 131.148438 Z M 303.445312 131.316406 C 303.347656 131.367188 303.246094 131.414062 303.144531 131.460938 C 303.246094 131.414062 303.347656 131.367188 303.445312 131.316406 Z M 286.144531 140.480469 L 285.925781 139.757812 Z M 287.957031 162.886719 C 287.613281 162.820312 287.292969 162.757812 286.996094 162.699219 C 287.292969 162.757812 287.609375 162.820312 287.957031 162.886719 Z M 290.121094 163.3125 C 289.914062 163.273438 289.714844 163.234375 289.519531 163.195312 C 289.714844 163.234375 289.914062 163.273438 290.121094 163.3125 Z M 289.320312 163.15625 C 289.140625 163.121094 288.964844 163.089844 288.792969 163.054688 C 288.964844 163.089844 289.140625 163.121094 289.320312 163.15625 Z M 288.597656 163.015625 C 288.390625 162.972656 288.1875 162.933594 287.992188 162.894531 C 288.1875 162.933594 288.390625 162.972656 288.597656 163.015625 Z M 301.4375 177.925781 C 301.417969 177.925781 301.394531 177.925781 301.375 177.921875 C 301.394531 177.925781 301.417969 177.925781 301.4375 177.925781 Z M 300.207031 177.835938 C 300.160156 177.832031 300.113281 177.832031 300.066406 177.828125 C 300.113281 177.832031 300.160156 177.832031 300.207031 177.835938 Z M 298.976562 177.714844 C 298.917969 177.707031 298.855469 177.703125 298.796875 177.695312 C 298.855469 177.703125 298.917969 177.710938 298.976562 177.714844 Z M 297.765625 177.5625 C 297.695312 177.550781 297.625 177.542969 297.558594 177.535156 C 297.625 177.542969 297.695312 177.550781 297.765625 177.5625 Z M 296.582031 177.382812 C 296.507812 177.367188 296.429688 177.355469 296.355469 177.34375 C 296.429688 177.355469 296.507812 177.367188 296.582031 177.382812 Z M 295.425781 177.175781 C 295.347656 177.160156 295.269531 177.144531 295.195312 177.132812 C 295.269531 177.144531 295.347656 177.160156 295.425781 177.175781 Z M 292.199219 176.445312 C 292.117188 176.421875 292.039062 176.402344 291.964844 176.382812 C 292.039062 176.402344 292.117188 176.421875 292.199219 176.445312 Z M 291.207031 176.171875 C 291.128906 176.152344 291.054688 176.128906 290.976562 176.105469 C 291.054688 176.128906 291.128906 176.152344 291.207031 176.171875 Z M 290.261719 175.894531 C 290.1875 175.871094 290.117188 175.851562 290.042969 175.828125 C 290.117188 175.851562 290.191406 175.871094 290.261719 175.894531 Z M 289.367188 175.613281 C 289.296875 175.589844 289.230469 175.566406 289.160156 175.542969 C 289.226562 175.566406 289.296875 175.589844 289.367188 175.613281 Z M 288.53125 175.328125 C 288.460938 175.304688 288.394531 175.28125 288.324219 175.257812 C 288.394531 175.28125 288.460938 175.304688 288.53125 175.328125 Z M 287.746094 175.050781 C 287.679688 175.023438 287.613281 175 287.550781 174.976562 C 287.613281 175 287.679688 175.023438 287.746094 175.050781 Z M 287.015625 174.773438 C 286.953125 174.75 286.894531 174.730469 286.835938 174.707031 C 286.894531 174.726562 286.953125 174.75 287.015625 174.773438 Z M 286.34375 174.511719 C 286.289062 174.488281 286.234375 174.464844 286.179688 174.445312 C 286.234375 174.464844 286.289062 174.488281 286.34375 174.511719 Z M 285.734375 174.257812 C 285.683594 174.238281 285.636719 174.214844 285.585938 174.195312 C 285.636719 174.214844 285.683594 174.238281 285.734375 174.257812 Z M 285.191406 174.023438 C 285.144531 174.003906 285.101562 173.984375 285.058594 173.964844 C 285.101562 173.984375 285.144531 174.003906 285.191406 174.023438 Z M 284.710938 173.808594 C 284.667969 173.792969 284.632812 173.773438 284.59375 173.757812 C 284.632812 173.773438 284.667969 173.792969 284.710938 173.808594 Z M 284.300781 173.621094 C 284.261719 173.601562 284.234375 173.589844 284.199219 173.570312 C 284.234375 173.585938 284.265625 173.601562 284.300781 173.621094 Z M 283.957031 173.453125 C 283.925781 173.441406 283.90625 173.429688 283.875 173.414062 C 283.902344 173.429688 283.929688 173.441406 283.957031 173.453125 Z M 283.691406 173.324219 C 283.65625 173.304688 283.632812 173.292969 283.605469 173.28125 C 283.632812 173.292969 283.65625 173.304688 283.691406 173.324219 Z M 283.496094 173.222656 C 283.46875 173.207031 283.453125 173.199219 283.433594 173.191406 C 283.453125 173.199219 283.46875 173.210938 283.496094 173.222656 Z M 291.535156 268.191406 L 291.535156 252.738281 L 288.542969 252.738281 L 286.832031 242.671875 L 289.988281 242.671875 L 280.617188 200.0625 C 285.878906 196.9375 290.195312 194.046875 293.75 191.386719 L 292.859375 184.570312 L 294.457031 196.792969 C 294.472656 196.941406 294.601562 197.046875 294.742188 197.046875 C 294.757812 197.046875 294.769531 197.046875 294.78125 197.042969 C 294.808594 197.042969 294.828125 197.03125 294.851562 197.019531 L 296.199219 205.796875 L 308.851562 257.773438 L 312.472656 257.773438 C 312.578125 258.929688 312.558594 260.101562 312.25 260.980469 C 311.0625 264.339844 307.789062 264.265625 306.023438 264.636719 C 301.769531 265.527344 301.082031 268.191406 301.082031 268.191406 Z M 294.996094 196.894531 C 294.992188 196.898438 294.992188 196.902344 294.988281 196.90625 C 294.992188 196.902344 294.992188 196.898438 294.996094 196.894531 Z M 294.996094 196.894531 " fill-opacity="1" fill-rule="nonzero"/></g><path fill="#f5f5f5" d="M 277.949219 63.523438 L 254.285156 63.523438 L 254.285156 56.753906 L 277.949219 56.753906 Z M 297.964844 69.980469 L 319.054688 69.980469 C 319.558594 69.980469 319.96875 69.570312 319.96875 69.0625 C 319.96875 68.558594 319.558594 68.148438 319.054688 68.148438 L 297.964844 68.148438 C 297.457031 68.148438 297.046875 68.558594 297.046875 69.0625 C 297.046875 69.570312 297.457031 69.980469 297.964844 69.980469 Z M 280.847656 65.636719 L 127.902344 65.636719 L 127.902344 157.488281 L 280.847656 157.488281 Z M 278.414062 268.191406 L 278.414062 252.738281 L 235.011719 252.738281 L 235.011719 284.332031 L 338.867188 284.332031 L 338.867188 268.191406 Z M 297.964844 75.476562 L 317.394531 75.476562 C 316.972656 76.351562 316.730469 77.324219 316.730469 78.359375 C 316.730469 82.015625 319.699219 84.984375 323.363281 84.984375 C 327.023438 84.984375 329.992188 82.015625 329.992188 78.359375 C 329.992188 74.699219 327.023438 71.730469 323.363281 71.730469 C 321.546875 71.730469 319.902344 72.464844 318.703125 73.644531 L 297.964844 73.644531 C 297.457031 73.644531 297.046875 74.054688 297.046875 74.5625 C 297.046875 75.070312 297.457031 75.476562 297.964844 75.476562 Z M 312.480469 58.984375 L 319.050781 58.984375 C 319.558594 58.984375 319.96875 58.574219 319.96875 58.070312 C 319.96875 57.5625 319.558594 57.152344 319.050781 57.152344 L 312.480469 57.152344 C 311.976562 57.152344 311.566406 57.5625 311.566406 58.070312 C 311.566406 58.574219 311.976562 58.984375 312.480469 58.984375 Z M 297.964844 64.484375 L 319.054688 64.484375 C 319.558594 64.484375 319.96875 64.074219 319.96875 63.566406 C 319.96875 63.0625 319.558594 62.648438 319.054688 62.648438 L 297.964844 62.648438 C 297.457031 62.648438 297.046875 63.058594 297.046875 63.566406 C 297.046875 64.074219 297.457031 64.484375 297.964844 64.484375 Z M 298.328125 59 L 307.09375 59 C 307.796875 59 308.367188 58.429688 308.367188 57.726562 L 308.367188 49.992188 C 308.367188 49.289062 307.796875 48.71875 307.09375 48.71875 L 298.328125 48.71875 C 297.628906 48.71875 297.054688 49.289062 297.054688 49.992188 L 297.054688 57.726562 C 297.058594 58.429688 297.628906 59 298.328125 59 Z M 114.214844 239.085938 L 84.960938 239.085938 L 77.785156 194.945312 C 77.210938 191.722656 74.402344 189.375 71.125 189.375 L 65.769531 189.375 L 75.53125 248.179688 L 74.980469 248.179688 L 74.980469 284.867188 L 78.347656 284.867188 L 78.347656 248.179688 L 122.277344 248.179688 C 122.277344 243.15625 118.667969 239.085938 114.214844 239.085938 Z M 142.125 212.839844 L 165.367188 212.839844 L 165.367188 211.933594 L 142.125 211.933594 Z M 178.589844 167.472656 L 132.429688 167.472656 C 131.933594 167.472656 131.480469 167.875 131.414062 168.371094 L 127.261719 200.765625 C 127.199219 201.261719 127.550781 201.664062 128.046875 201.664062 L 147.433594 201.664062 L 147.433594 210.699219 L 158.53125 210.699219 L 158.53125 201.664062 L 174.207031 201.664062 C 174.703125 201.664062 175.15625 201.261719 175.222656 200.765625 L 179.375 168.371094 C 179.4375 167.875 179.085938 167.472656 178.589844 167.472656 Z M 116.429688 132.726562 L 116.429688 94.460938 C 116.429688 93.199219 115.40625 92.175781 114.144531 92.175781 L 62.417969 92.175781 C 61.15625 92.175781 60.132812 93.199219 60.132812 94.460938 L 60.132812 132.726562 C 60.132812 133.988281 61.15625 135.011719 62.417969 135.011719 L 114.144531 135.011719 C 115.40625 135.011719 116.429688 133.988281 116.429688 132.726562 Z M 201.226562 201.785156 C 199.238281 201.785156 197.625 203.398438 197.625 205.386719 C 197.625 205.691406 197.664062 205.988281 197.738281 206.269531 L 204.71875 206.269531 C 204.789062 205.988281 204.832031 205.691406 204.832031 205.386719 C 204.832031 203.398438 203.21875 201.785156 201.226562 201.785156 Z M 96.445312 174.679688 L 97.367188 174.679688 C 99.191406 174.679688 100.671875 173.203125 100.671875 171.378906 C 100.671875 169.707031 99.421875 168.339844 97.804688 168.121094 L 97.804688 168.378906 C 98.949219 168.894531 99.75 170.042969 99.75 171.378906 C 99.75 173.203125 98.269531 174.679688 96.445312 174.679688 Z M 111.65625 173.636719 C 112.214844 173.046875 112.5625 172.253906 112.5625 171.378906 C 112.5625 170.398438 112.125 169.523438 111.441406 168.917969 Z M 110.859375 55.144531 C 111.003906 55 111.003906 54.765625 110.859375 54.617188 L 107.382812 51.148438 L 110.859375 47.675781 C 111.003906 47.527344 111.003906 47.292969 110.859375 47.148438 C 110.714844 47.003906 110.476562 47.003906 110.332031 47.148438 L 106.332031 51.148438 L 110.332031 55.148438 C 110.40625 55.21875 110.5 55.253906 110.59375 55.253906 C 110.691406 55.253906 110.785156 55.21875 110.859375 55.144531 Z M 123.828125 55.144531 L 127.832031 51.144531 L 123.828125 47.148438 C 123.683594 47 123.449219 47 123.300781 47.148438 C 123.15625 47.292969 123.15625 47.527344 123.300781 47.671875 L 126.777344 51.144531 L 123.300781 54.617188 C 123.15625 54.761719 123.15625 55 123.300781 55.144531 C 123.375 55.214844 123.472656 55.253906 123.566406 55.253906 C 123.660156 55.253906 123.757812 55.21875 123.828125 55.144531 Z M 115.847656 55.03125 L 119 47.710938 C 119.082031 47.523438 118.992188 47.304688 118.804688 47.222656 C 118.613281 47.140625 118.398438 47.230469 118.316406 47.417969 L 115.160156 54.734375 C 115.082031 54.925781 115.167969 55.144531 115.355469 55.222656 C 115.40625 55.246094 115.453125 55.253906 115.503906 55.253906 C 115.648438 55.253906 115.785156 55.171875 115.847656 55.03125 Z M 115.847656 55.03125 " fill-opacity="1" fill-rule="nonzero"/><path fill="#e0e0e0" d="M 351.988281 268.191406 L 351.988281 284.332031 L 338.867188 284.332031 L 338.867188 268.191406 Z M 278.414062 268.191406 L 291.535156 268.191406 L 291.535156 252.738281 L 278.414062 252.738281 Z M 77.785156 194.945312 L 84.960938 239.085938 L 105.085938 239.085938 L 97.90625 194.945312 C 97.332031 191.722656 94.527344 189.375 91.246094 189.375 L 71.125 189.375 C 74.402344 189.371094 77.210938 191.722656 77.785156 194.945312 Z M 142.230469 222.832031 C 143.332031 224.636719 143.804688 226.917969 143.632812 229.609375 L 142.121094 250.167969 L 142.121094 284.867188 L 137.210938 284.867188 L 137.210938 266.765625 L 124.203125 266.765625 L 124.203125 284.867188 L 119.292969 284.867188 L 119.292969 251.546875 L 96.265625 251.546875 L 96.265625 284.867188 L 91.355469 284.867188 L 91.355469 251.546875 L 76.421875 251.546875 L 76.421875 284.867188 L 73.4375 284.867188 L 73.4375 247.65625 L 63.828125 189.375 L 67.195312 189.375 L 76.890625 248.179688 L 122.277344 248.179688 C 122.277344 243.160156 118.667969 239.085938 114.214844 239.085938 L 123.914062 239.085938 C 123.910156 239.015625 123.933594 238.941406 123.980469 238.882812 L 127.605469 234.6875 C 127.710938 234.566406 127.894531 234.554688 128.015625 234.660156 C 128.136719 234.761719 128.152344 234.949219 128.046875 235.070312 L 124.578125 239.085938 L 134.058594 239.085938 C 137.808594 239.085938 140.949219 241.976562 141.851562 245.882812 L 143.050781 229.570312 C 143.21875 227 142.773438 224.835938 141.734375 223.136719 C 141.648438 223 141.695312 222.820312 141.832031 222.738281 C 141.964844 222.652344 142.144531 222.695312 142.230469 222.832031 Z M 137.210938 266.183594 L 137.210938 251.546875 L 124.203125 251.546875 L 124.203125 266.183594 Z M 164.386719 266.183594 L 145.300781 266.183594 C 145.140625 266.183594 145.007812 266.3125 145.007812 266.472656 C 145.007812 266.632812 145.140625 266.765625 145.300781 266.765625 L 164.386719 266.765625 C 164.546875 266.765625 164.675781 266.632812 164.675781 266.472656 C 164.675781 266.3125 164.546875 266.183594 164.386719 266.183594 Z M 105.601562 218.410156 C 105.617188 218.414062 105.636719 218.414062 105.652344 218.414062 C 105.695312 218.414062 105.734375 218.40625 105.773438 218.386719 C 106.023438 218.363281 107.167969 218.300781 112.398438 218.265625 C 112.5625 218.265625 112.691406 218.132812 112.6875 217.972656 C 112.6875 217.8125 112.558594 217.683594 112.398438 217.683594 C 112.398438 217.683594 112.394531 217.683594 112.394531 217.683594 C 105.378906 217.730469 105.378906 217.738281 105.351562 218.09375 C 105.335938 218.246094 105.453125 218.386719 105.601562 218.410156 Z M 179.441406 167.472656 L 133.28125 167.472656 C 132.785156 167.472656 132.332031 167.875 132.269531 168.371094 L 128.117188 200.765625 C 128.050781 201.261719 128.402344 201.664062 128.898438 201.664062 L 147.433594 201.664062 L 147.433594 190.625 L 147.769531 188.609375 C 148.015625 187.121094 149.304688 186.027344 150.8125 186.027344 L 150.871094 186.027344 C 149.394531 186.027344 148.195312 187.222656 148.195312 188.699219 L 148.195312 210.585938 C 146.171875 210.875 144.148438 211.324219 142.125 211.933594 L 165.367188 211.933594 C 163.339844 211.324219 161.316406 210.875 159.292969 210.585938 L 159.292969 201.664062 L 175.0625 201.664062 C 175.558594 201.664062 176.011719 201.261719 176.074219 200.765625 L 180.226562 168.371094 C 180.289062 167.875 179.9375 167.472656 179.441406 167.472656 Z M 195.042969 206.976562 C 195.042969 209.011719 193.597656 210.714844 191.679688 211.117188 L 191.574219 212.867188 L 184.226562 212.867188 L 183.492188 200.730469 L 192.304688 200.730469 L 192.171875 202.972656 C 193.835938 203.542969 195.042969 205.121094 195.042969 206.976562 Z M 193.914062 206.976562 C 193.914062 205.726562 193.167969 204.648438 192.097656 204.15625 L 191.75 209.9375 C 193.003906 209.535156 193.914062 208.359375 193.914062 206.976562 Z M 204.792969 206.269531 L 197.660156 206.269531 C 197.441406 206.269531 197.273438 206.460938 197.300781 206.679688 L 197.503906 208.199219 C 197.523438 208.347656 197.636719 208.460938 197.773438 208.496094 L 198.359375 212.863281 L 204.097656 212.863281 L 204.679688 208.496094 C 204.820312 208.460938 204.929688 208.347656 204.949219 208.199219 L 205.152344 206.679688 C 205.179688 206.460938 205.011719 206.269531 204.792969 206.269531 Z M 242.667969 82.417969 L 276.03125 82.417969 L 276.03125 74.363281 L 242.667969 74.363281 Z M 325.082031 44.097656 L 325.082031 70.464844 C 324.527344 70.34375 323.953125 70.277344 323.363281 70.277344 C 320.65625 70.277344 318.269531 71.609375 316.800781 73.644531 L 297.964844 73.644531 C 297.457031 73.644531 297.046875 74.054688 297.046875 74.5625 C 297.046875 75.066406 297.457031 75.476562 297.964844 75.476562 L 315.8125 75.476562 C 315.46875 76.375 315.273438 77.34375 315.273438 78.359375 C 315.273438 79.863281 315.695312 81.269531 316.414062 82.476562 L 294.519531 82.476562 C 293.113281 82.476562 291.972656 81.335938 291.972656 79.929688 L 291.972656 44.097656 C 291.972656 42.691406 293.113281 41.554688 294.519531 41.554688 L 322.535156 41.554688 C 323.941406 41.554688 325.082031 42.691406 325.082031 44.097656 Z M 297.058594 57.726562 C 297.058594 58.429688 297.628906 59 298.332031 59 L 307.09375 59 C 307.796875 59 308.367188 58.429688 308.367188 57.726562 L 308.367188 49.992188 C 308.367188 49.289062 307.796875 48.71875 307.09375 48.71875 L 298.332031 48.71875 C 297.628906 48.71875 297.058594 49.289062 297.058594 49.992188 Z M 319.96875 69.0625 C 319.96875 68.558594 319.558594 68.148438 319.054688 68.148438 L 297.964844 68.148438 C 297.457031 68.148438 297.046875 68.558594 297.046875 69.0625 C 297.046875 69.570312 297.457031 69.980469 297.964844 69.980469 L 319.054688 69.980469 C 319.558594 69.980469 319.96875 69.570312 319.96875 69.0625 Z M 319.96875 63.566406 C 319.96875 63.0625 319.558594 62.652344 319.054688 62.652344 L 297.964844 62.652344 C 297.457031 62.652344 297.046875 63.0625 297.046875 63.566406 C 297.046875 64.074219 297.457031 64.484375 297.964844 64.484375 L 319.054688 64.484375 C 319.558594 64.484375 319.96875 64.074219 319.96875 63.566406 Z M 319.96875 58.070312 C 319.96875 57.5625 319.558594 57.152344 319.054688 57.152344 L 312.480469 57.152344 C 311.976562 57.152344 311.566406 57.5625 311.566406 58.070312 C 311.566406 58.574219 311.976562 58.988281 312.480469 58.988281 L 319.054688 58.988281 C 319.558594 58.984375 319.96875 58.574219 319.96875 58.070312 Z M 179.515625 76.152344 L 178.621094 76.152344 L 178.621094 101.886719 L 174.144531 101.886719 L 174.144531 84.65625 L 170.335938 84.65625 L 170.335938 101.886719 L 165.410156 101.886719 L 165.410156 89.691406 L 161.601562 89.691406 L 161.601562 101.886719 L 156.675781 101.886719 L 156.675781 81.414062 L 152.871094 81.414062 L 152.871094 101.886719 L 140.105469 101.886719 L 140.105469 102.78125 L 179.519531 102.78125 L 179.519531 76.152344 Z M 280.847656 65.636719 L 127.902344 65.636719 L 127.902344 53.667969 L 280.847656 53.667969 Z M 261.8125 59.707031 C 261.8125 58.59375 260.910156 57.695312 259.796875 57.695312 C 258.683594 57.695312 257.78125 58.59375 257.78125 59.707031 C 257.78125 60.820312 258.683594 61.722656 259.796875 61.722656 C 260.910156 61.722656 261.8125 60.820312 261.8125 59.707031 Z M 268.53125 59.707031 C 268.53125 58.59375 267.628906 57.695312 266.515625 57.695312 C 265.402344 57.695312 264.5 58.59375 264.5 59.707031 C 264.5 60.820312 265.402344 61.722656 266.515625 61.722656 C 267.628906 61.722656 268.53125 60.820312 268.53125 59.707031 Z M 275.25 59.707031 C 275.25 58.59375 274.347656 57.695312 273.234375 57.695312 C 272.121094 57.695312 271.21875 58.59375 271.21875 59.707031 C 271.21875 60.820312 272.121094 61.722656 273.234375 61.722656 C 274.347656 61.722656 275.25 60.820312 275.25 59.707031 Z M 169.550781 117.996094 L 164.066406 117.996094 L 164.066406 116.988281 C 164.066406 116.496094 163.664062 116.09375 163.171875 116.09375 C 162.675781 116.09375 162.273438 116.496094 162.273438 116.988281 L 162.273438 117.996094 L 141.5625 117.996094 L 141.5625 118.890625 L 162.273438 118.890625 L 162.273438 119.898438 C 162.273438 120.390625 162.675781 120.792969 163.171875 120.792969 C 163.664062 120.792969 164.066406 120.390625 164.066406 119.898438 L 164.066406 118.890625 L 169.550781 118.890625 Z M 169.550781 128.289062 L 141.558594 128.289062 L 141.558594 129.183594 L 169.550781 129.183594 Z M 158.242188 141.378906 C 158.738281 141.378906 159.140625 140.976562 159.140625 140.484375 L 159.140625 139.476562 L 169.554688 139.476562 L 169.554688 138.582031 L 159.140625 138.582031 L 159.140625 137.574219 C 159.140625 137.082031 158.738281 136.679688 158.242188 136.679688 C 157.75 136.679688 157.347656 137.082031 157.347656 137.574219 L 157.347656 138.582031 L 141.5625 138.582031 L 141.5625 139.476562 L 157.347656 139.476562 L 157.347656 140.484375 C 157.347656 140.976562 157.75 141.378906 158.242188 141.378906 Z M 116.429688 94.460938 C 116.429688 93.199219 115.40625 92.175781 114.144531 92.175781 L 62.417969 92.175781 C 61.15625 92.175781 60.132812 93.199219 60.132812 94.460938 L 60.132812 98.101562 L 116.433594 98.101562 L 116.433594 94.460938 Z M 242.777344 107.703125 L 276.03125 107.703125 L 276.03125 105.914062 L 242.777344 105.914062 Z M 244.121094 125.492188 L 249.011719 125.492188 L 249.011719 120.792969 L 244.121094 120.792969 Z M 242.777344 103.003906 L 276.03125 103.003906 L 276.03125 101.214844 L 242.777344 101.214844 Z M 189.371094 77.496094 L 227.4375 77.496094 L 227.4375 101.660156 L 189.371094 101.660156 Z M 222.289062 82.558594 L 226.542969 82.558594 L 226.542969 78.390625 L 222.289062 78.390625 Z M 222.289062 88.238281 L 226.542969 88.238281 L 226.542969 83.453125 L 222.289062 83.453125 Z M 222.289062 94.726562 L 226.542969 94.726562 L 226.542969 89.132812 L 222.289062 89.132812 Z M 222.289062 100.765625 L 226.542969 100.765625 L 226.542969 95.621094 L 222.289062 95.621094 Z M 216.691406 82.558594 L 221.390625 82.558594 L 221.390625 78.390625 L 216.691406 78.390625 Z M 216.691406 88.238281 L 221.390625 88.238281 L 221.390625 83.453125 L 216.691406 83.453125 Z M 216.691406 94.726562 L 221.390625 94.726562 L 221.390625 89.132812 L 216.691406 89.132812 Z M 216.691406 100.765625 L 221.390625 100.765625 L 221.390625 95.621094 L 216.691406 95.621094 Z M 211.316406 82.558594 L 215.792969 82.558594 L 215.792969 78.390625 L 211.316406 78.390625 Z M 211.316406 88.238281 L 215.792969 88.238281 L 215.792969 83.453125 L 211.316406 83.453125 Z M 211.316406 94.726562 L 215.792969 94.726562 L 215.792969 89.132812 L 211.316406 89.132812 Z M 211.316406 100.765625 L 215.792969 100.765625 L 215.792969 95.621094 L 211.316406 95.621094 Z M 205.71875 82.558594 L 210.417969 82.558594 L 210.417969 78.390625 L 205.71875 78.390625 Z M 205.71875 88.238281 L 210.417969 88.238281 L 210.417969 83.453125 L 205.71875 83.453125 Z M 205.71875 94.726562 L 210.417969 94.726562 L 210.417969 89.132812 L 205.71875 89.132812 Z M 205.71875 100.765625 L 210.417969 100.765625 L 210.417969 95.621094 L 205.71875 95.621094 Z M 199.894531 82.558594 L 204.820312 82.558594 L 204.820312 78.390625 L 199.894531 78.390625 Z M 199.894531 88.238281 L 204.820312 88.238281 L 204.820312 83.453125 L 199.894531 83.453125 Z M 199.894531 94.726562 L 204.820312 94.726562 L 204.820312 89.132812 L 199.894531 89.132812 Z M 199.894531 100.765625 L 204.820312 100.765625 L 204.820312 95.621094 L 199.894531 95.621094 Z M 194.296875 82.558594 L 199 82.558594 L 199 78.390625 L 194.296875 78.390625 Z M 194.296875 88.238281 L 199 88.238281 L 199 83.453125 L 194.296875 83.453125 Z M 194.296875 94.726562 L 199 94.726562 L 199 89.132812 L 194.296875 89.132812 Z M 194.296875 100.765625 L 199 100.765625 L 199 95.621094 L 194.296875 95.621094 Z M 190.265625 82.558594 L 193.402344 82.558594 L 193.402344 78.390625 L 190.265625 78.390625 Z M 190.265625 88.238281 L 193.402344 88.238281 L 193.402344 83.453125 L 190.265625 83.453125 Z M 190.265625 94.726562 L 193.402344 94.726562 L 193.402344 89.132812 L 190.265625 89.132812 Z M 190.265625 100.765625 L 193.402344 100.765625 L 193.402344 95.621094 L 190.265625 95.621094 Z M 244.121094 132.203125 L 249.011719 132.203125 L 249.011719 127.503906 L 244.121094 127.503906 Z M 242.777344 98.304688 L 276.03125 98.304688 L 276.03125 96.515625 L 242.777344 96.515625 Z M 235.386719 148.316406 L 236.285156 148.316406 L 236.285156 74.476562 L 235.386719 74.476562 Z M 111.777344 120.058594 L 64.761719 120.058594 L 64.761719 101.582031 L 111.777344 101.582031 Z M 72.484375 111.523438 L 69.253906 111.523438 L 69.253906 116.617188 L 72.484375 116.617188 Z M 78.996094 108.292969 L 75.761719 108.292969 L 75.761719 116.617188 L 78.996094 116.617188 Z M 92.023438 104.8125 L 88.789062 104.8125 L 88.789062 116.617188 L 92.023438 116.617188 Z M 99.515625 110.820312 C 99.515625 110.0625 98.902344 109.453125 98.148438 109.453125 C 97.394531 109.453125 96.78125 110.0625 96.78125 110.820312 C 96.78125 111.574219 97.390625 112.1875 98.148438 112.1875 C 98.902344 112.1875 99.515625 111.574219 99.515625 110.820312 Z M 99.515625 106.71875 C 99.515625 105.964844 98.902344 105.351562 98.148438 105.351562 C 97.394531 105.351562 96.78125 105.960938 96.78125 106.71875 C 96.78125 107.472656 97.390625 108.085938 98.148438 108.085938 C 98.902344 108.085938 99.515625 107.472656 99.515625 106.71875 Z M 107.082031 110.339844 L 100.738281 110.339844 L 100.738281 111.253906 L 107.082031 111.253906 Z M 107.144531 106.261719 L 100.800781 106.261719 L 100.800781 107.175781 L 107.144531 107.175781 Z M 64.761719 130.703125 L 79.191406 130.703125 L 79.191406 122.335938 L 64.761719 122.335938 Z M 214.707031 116.558594 L 210.53125 131.980469 L 201.542969 127.320312 L 210.066406 131.738281 L 210.308594 131.980469 L 194.300781 131.980469 C 194.296875 132.019531 194.296875 132.054688 194.296875 132.09375 C 194.296875 140.988281 201.515625 148.203125 210.421875 148.203125 C 219.324219 148.203125 226.542969 140.988281 226.542969 132.09375 C 226.542969 124.679688 221.53125 118.433594 214.707031 116.558594 Z M 111.777344 122.335938 L 97.347656 122.335938 L 97.347656 130.703125 L 111.777344 130.703125 Z M 95.5 130.703125 L 95.5 122.335938 L 81.074219 122.335938 L 81.074219 130.703125 Z M 262.820312 88.910156 L 276.03125 88.910156 L 276.03125 87.117188 L 262.820312 87.117188 Z M 242.777344 93.605469 L 276.03125 93.605469 L 276.03125 91.816406 L 242.777344 91.816406 Z M 293.109375 184.242188 C 292.949219 184.261719 292.839844 184.410156 292.859375 184.570312 L 294.453125 196.792969 C 294.472656 196.941406 294.597656 197.046875 294.742188 197.046875 C 294.757812 197.046875 294.769531 197.046875 294.78125 197.046875 C 294.941406 197.023438 295.054688 196.878906 295.03125 196.71875 L 293.4375 184.492188 C 293.417969 184.335938 293.269531 184.214844 293.109375 184.242188 Z M 110.722656 162.59375 C 110.585938 163.085938 110.402344 163.535156 110.164062 163.933594 C 110.296875 163.714844 110.414062 163.480469 110.515625 163.234375 C 110.722656 163.648438 110.890625 164.085938 111.019531 164.535156 C 111.019531 163.859375 110.914062 163.207031 110.722656 162.59375 Z M 104.410156 157.953125 L 101.699219 157.953125 C 98.046875 157.953125 95.085938 160.914062 95.085938 164.5625 L 95.085938 168.378906 C 93.941406 168.894531 93.140625 170.042969 93.140625 171.378906 C 93.140625 173.203125 94.621094 174.679688 96.445312 174.679688 C 98.269531 174.679688 99.75 173.203125 99.75 171.378906 C 99.75 170.042969 98.949219 168.894531 97.804688 168.378906 L 97.804688 163.820312 C 97.804688 160.976562 100.113281 158.621094 102.964844 158.621094 L 103.144531 158.621094 L 103.144531 158.625 C 105.914062 158.527344 108.675781 159.714844 110.511719 162.019531 C 109.515625 159.632812 107.160156 157.953125 104.410156 157.953125 Z M 104.410156 157.953125 " fill-opacity="1" fill-rule="nonzero"/><path fill="#f5c0a2" d="M 239.078125 44.789062 C 239.066406 44.867188 239.070312 44.9375 239.054688 45.023438 L 239.714844 53.777344 L 231.605469 53.777344 L 232.125 45.113281 C 231.960938 44.984375 231.800781 44.847656 231.648438 44.695312 C 229.09375 42.15625 228.851562 39.25 228.203125 37.386719 C 227.917969 36.570312 227.84375 36.371094 228.253906 36.179688 C 228.714844 35.96875 229.65625 36.179688 230.617188 37.738281 C 230.851562 38.117188 231.164062 38.675781 231.386719 39.082031 C 231.386719 39.082031 231.46875 32.152344 231.421875 30.679688 C 231.375 29.207031 233.144531 29.121094 233.3125 30.304688 C 233.414062 31.023438 233.5625 32.738281 233.6875 34.277344 L 234.140625 29.824219 C 234.390625 28.65625 235.945312 28.761719 236.039062 29.773438 C 236.050781 29.917969 236.058594 30.105469 236.058594 30.269531 C 236.046875 30.347656 236.039062 30.429688 236.039062 30.523438 C 236.046875 30.738281 236.058594 30.542969 236.058594 30.269531 C 236.222656 29.269531 237.582031 29.429688 237.714844 30.382812 C 237.828125 31.167969 237.992188 33.527344 238.097656 35.167969 C 238.203125 33.839844 238.289062 32.976562 238.289062 32.234375 C 238.289062 30.769531 239.761719 30.90625 239.835938 31.960938 C 239.925781 33.242188 240.03125 38.941406 239.867188 42.425781 C 239.816406 43.394531 239.523438 44.175781 239.078125 44.789062 Z M 213.195312 27.851562 C 212.710938 27.8125 212.363281 28.859375 212.140625 29.90625 C 212.039062 29.847656 211.925781 29.8125 211.800781 29.808594 C 211.800781 29.808594 211.316406 25.996094 212.253906 22.117188 C 211.429688 22.933594 208.410156 23.203125 206.230469 22.664062 C 203.566406 22.003906 202.019531 21.078125 200.265625 21.285156 C 199.171875 24.675781 199.136719 27.941406 199.136719 27.941406 L 199.214844 32.496094 C 199.25 34.554688 200.273438 36.417969 201.839844 37.546875 L 201.804688 41.710938 C 201.996094 44.449219 204.511719 46.507812 207.425781 46.3125 C 210.339844 46.113281 212.308594 43.691406 212.117188 40.957031 L 211.550781 33.441406 L 211.886719 32.417969 C 212.03125 32.769531 212.371094 32.988281 212.738281 32.898438 C 213.832031 32.621094 214.613281 31.722656 214.710938 30.605469 C 214.832031 29.164062 214.152344 27.933594 213.195312 27.851562 Z M 147.238281 208.457031 L 147.175781 210.742188 L 144.921875 211.234375 C 144.832031 211.152344 144.742188 211.070312 144.652344 210.988281 L 144.792969 211.261719 L 141.121094 212.0625 L 141.074219 212.902344 L 135.753906 212.902344 L 135.769531 212.875 L 135.753906 212.875 C 135.453125 212.875 135.152344 212.828125 134.855469 212.742188 C 134.527344 212.867188 134.003906 212.878906 133.429688 212.410156 C 133.214844 212.234375 132.917969 211.976562 132.597656 211.695312 L 132.625 211.746094 C 132.765625 212.1875 132.925781 212.492188 132.558594 212.734375 C 132.320312 212.890625 131.640625 213.007812 131.03125 212.289062 C 130.734375 211.9375 130.242188 211.304688 129.8125 210.746094 L 130.144531 211.90625 C 130.191406 212.332031 130.277344 212.632812 129.902344 212.785156 C 129.65625 212.882812 129.023438 212.863281 128.605469 212.105469 C 128.476562 211.863281 128.292969 211.503906 128.101562 211.125 C 126.417969 211.972656 124.433594 212.875 123.585938 212.875 L 120.882812 212.875 C 119.238281 212.875 117.515625 211.484375 117.515625 209.839844 C 117.515625 208.355469 118.609375 207.097656 120.078125 206.890625 L 127.910156 205.824219 C 128.359375 205.757812 128.789062 205.847656 129.183594 206.042969 C 129.199219 206.050781 129.210938 206.0625 129.226562 206.070312 L 133.242188 207.765625 C 133.6875 207.308594 134.273438 206.984375 134.949219 206.886719 L 140.757812 205.824219 C 141.207031 205.757812 141.625 205.871094 142.03125 206.042969 C 142.070312 206.0625 142.109375 206.082031 142.148438 206.101562 L 146.5625 207.964844 C 146.621094 207.988281 146.679688 208.007812 146.738281 208.039062 C 146.902344 208.117188 147.042969 208.230469 147.15625 208.371094 C 147.183594 208.402344 147.214844 208.425781 147.238281 208.457031 Z M 142.152344 210.640625 C 142.140625 210.628906 142.128906 210.613281 142.121094 210.597656 L 142.132812 210.640625 C 142.136719 210.640625 142.144531 210.640625 142.152344 210.640625 Z M 111.691406 174.355469 L 111.324219 166.324219 C 111.273438 165.210938 110.984375 164.167969 110.515625 163.234375 C 108.886719 167.175781 103.175781 167.429688 99.871094 167.4375 C 99.890625 167.90625 99.898438 168.539062 99.859375 169.238281 C 100.359375 169.816406 100.671875 170.558594 100.671875 171.378906 C 100.671875 172.820312 99.738281 174.035156 98.449219 174.484375 L 99.046875 175.988281 L 98.777344 179.359375 C 98.574219 181.742188 101.996094 184.042969 104.152344 184.042969 C 106.738281 184.042969 107.542969 182.652344 107.796875 180.496094 C 110.3125 179.441406 111.804688 176.941406 111.691406 174.355469 Z M 272.738281 157.757812 C 272.738281 157.882812 272.777344 158.015625 272.859375 158.132812 C 273.148438 158.53125 273.53125 158.847656 273.980469 159.050781 L 280.03125 161.796875 C 280.6875 162.097656 281.40625 162.253906 282.128906 162.253906 L 284.753906 162.253906 C 284.773438 162.253906 284.785156 162.253906 284.796875 162.257812 C 285.464844 162.390625 302.71875 165.882812 307.976562 166.464844 C 312.191406 166.933594 313.507812 162.230469 313.507812 162.230469 L 316.382812 151.714844 L 316.609375 150.898438 L 307 149.257812 L 306.601562 151.21875 L 305.433594 156.925781 C 305.414062 157.027344 305.320312 157.101562 305.214844 157.101562 L 273.386719 157.109375 C 273.003906 157.109375 272.738281 157.421875 272.738281 157.757812 Z M 297.972656 126.535156 L 297.964844 126.574219 L 297.5625 128.222656 L 297.152344 129.890625 C 298.414062 134.976562 304.992188 130.53125 306.128906 129.71875 L 306.144531 125.480469 L 306.148438 123.664062 C 306.148438 123.664062 306.480469 123.777344 306.9375 123.738281 C 307.300781 123.703125 307.742188 123.574219 308.152344 123.21875 C 309.160156 122.332031 309.953125 120.921875 308.851562 119.757812 C 308.851562 119.757812 308.847656 119.757812 308.847656 119.757812 C 308.84375 119.753906 308.839844 119.75 308.839844 119.75 C 308.617188 119.578125 307.195312 118.601562 306.265625 120.867188 C 306.265625 120.867188 305.257812 120.167969 305.105469 119.3125 C 304.949219 118.460938 304.769531 118.023438 305.371094 115.324219 C 305.371094 115.324219 299.828125 115.285156 296.519531 114.429688 C 295.257812 118.046875 292.917969 126.351562 297.972656 126.535156 Z M 180.523438 51.804688 C 180.585938 50.691406 180.609375 50.414062 180.058594 50.300781 C 179.449219 50.175781 178.214844 50.871094 177.601562 53.132812 C 177.554688 53.316406 177.503906 53.492188 177.453125 53.667969 L 180.550781 53.667969 C 180.515625 53.011719 180.488281 52.390625 180.523438 51.804688 Z M 175.726562 51.121094 C 175.726562 51.117188 175.722656 51.113281 175.722656 51.105469 C 175.722656 51.105469 175.71875 51.101562 175.71875 51.101562 C 175.550781 50.703125 175.207031 50.394531 174.746094 50.308594 C 173.992188 50.171875 173.292969 50.695312 173.191406 51.441406 L 172.414062 51.546875 C 172.402344 51.335938 172.394531 51.164062 172.382812 51.054688 C 172.308594 50.300781 171.6875 49.726562 170.933594 49.792969 C 170.214844 49.855469 169.695312 50.472656 169.722656 51.167969 C 169.464844 50.570312 168.84375 50.207031 168.195312 50.367188 C 167.621094 50.507812 167.238281 50.996094 167.195312 51.539062 C 166.894531 51.183594 166.414062 51.007812 165.9375 51.152344 C 165.246094 51.363281 164.898438 52.132812 165.199219 52.789062 L 166.238281 54.664062 C 166.691406 55.832031 168.328125 55.375 167.992188 53.921875 L 168.3125 54.722656 C 168.726562 55.992188 170.449219 55.660156 170.3125 54.171875 L 170.414062 54.679688 C 170.644531 56.082031 172.601562 55.933594 172.5 54.183594 C 172.5 54.183594 172.496094 53.976562 172.488281 53.664062 L 173.074219 53.664062 L 173.042969 54.335938 C 172.890625 55.75 174.820312 56.125 175.1875 54.410156 C 175.1875 54.410156 175.273438 54.085938 175.386719 53.664062 L 176.632812 53.664062 C 176.144531 52.238281 175.769531 51.230469 175.726562 51.121094 Z M 175.726562 51.121094 " fill-opacity="1" fill-rule="evenodd"/><path fill="#26b1d8" d="M 82.277344 104.8125 L 85.511719 104.8125 L 85.511719 116.617188 L 82.277344 116.617188 Z M 136.960938 281.25 C 134.691406 280.152344 131.957031 278.757812 130.222656 276.28125 C 129.621094 275.421875 129.261719 274.863281 129.050781 274.492188 L 119.265625 274.492188 C 118.644531 278.5625 117.613281 280.628906 118.679688 284.867188 L 139.277344 284.867188 C 139.277344 284.867188 139.765625 282.601562 136.960938 281.25 Z M 122.4375 212.902344 L 135.300781 212.90625 C 135.464844 212.902344 135.617188 212.894531 135.765625 212.875 L 135.753906 212.875 C 135.453125 212.875 135.152344 212.828125 134.855469 212.742188 C 134.53125 212.867188 134.007812 212.878906 133.429688 212.410156 C 133.214844 212.234375 132.917969 211.976562 132.601562 211.695312 L 132.625 211.746094 C 132.769531 212.1875 132.925781 212.492188 132.558594 212.734375 C 132.320312 212.890625 131.640625 213.007812 131.03125 212.289062 C 130.734375 211.9375 130.242188 211.304688 129.8125 210.746094 L 130.144531 211.90625 C 130.191406 212.332031 130.28125 212.632812 129.902344 212.785156 C 129.660156 212.882812 129.023438 212.863281 128.605469 212.105469 C 128.476562 211.863281 128.292969 211.503906 128.101562 211.125 C 126.417969 211.972656 124.433594 212.875 123.585938 212.875 L 120.886719 212.875 C 119.238281 212.875 117.519531 211.484375 117.519531 209.839844 C 117.519531 208.355469 118.609375 207.097656 120.078125 206.890625 L 127.910156 205.824219 C 128.359375 205.757812 128.789062 205.847656 129.183594 206.042969 C 129.199219 206.050781 129.210938 206.0625 129.230469 206.070312 L 133.246094 207.765625 C 133.691406 207.308594 134.277344 206.984375 134.949219 206.886719 L 135.996094 206.695312 C 135.714844 206.59375 135.425781 206.507812 135.117188 206.476562 L 118.628906 203.894531 L 112.875 188.308594 C 112.761719 188 112.625 187.714844 112.46875 187.445312 C 112.015625 186.019531 111 184.554688 108.738281 184.160156 C 108.355469 184.09375 107.988281 184.03125 107.632812 183.972656 L 107.859375 180.464844 C 107.835938 180.476562 107.816406 180.484375 107.796875 180.496094 C 107.542969 182.648438 106.738281 184.039062 104.152344 184.039062 C 101.996094 184.039062 98.574219 181.742188 98.777344 179.359375 L 98.789062 179.214844 L 98.101562 183.507812 C 96.390625 183.765625 94.453125 184.242188 91.921875 185 C 89.117188 185.835938 87.058594 188.230469 87.0625 191.859375 C 87.078125 200.640625 89.191406 208.574219 91.757812 214.511719 C 93.007812 217.410156 108.191406 216.207031 109.1875 214.207031 C 109.359375 213.863281 109.515625 213.515625 109.671875 213.167969 L 121.640625 213.007812 C 121.929688 213.003906 122.191406 212.960938 122.4375 212.902344 Z M 100.800781 115.375 L 107.144531 115.375 L 107.144531 114.464844 L 100.800781 114.464844 Z M 98.40625 56.472656 L 98.40625 45.316406 C 98.40625 42.78125 100.460938 40.726562 102.996094 40.726562 L 131.167969 40.726562 C 133.703125 40.726562 135.757812 42.78125 135.757812 45.316406 L 135.757812 56.472656 C 135.757812 59.003906 133.703125 61.058594 131.167969 61.058594 L 102.996094 61.058594 C 100.460938 61.058594 98.40625 59.003906 98.40625 56.472656 Z M 126.777344 51.144531 L 123.300781 54.617188 C 123.15625 54.765625 123.15625 55 123.300781 55.144531 C 123.375 55.21875 123.472656 55.253906 123.566406 55.253906 C 123.660156 55.253906 123.757812 55.21875 123.828125 55.144531 L 127.832031 51.144531 L 123.828125 47.144531 C 123.683594 47 123.449219 47 123.300781 47.144531 C 123.15625 47.292969 123.15625 47.527344 123.300781 47.671875 Z M 115.355469 55.222656 C 115.40625 55.246094 115.453125 55.253906 115.503906 55.253906 C 115.648438 55.253906 115.785156 55.171875 115.847656 55.03125 L 119 47.710938 C 119.082031 47.523438 118.992188 47.304688 118.804688 47.222656 C 118.613281 47.140625 118.398438 47.230469 118.316406 47.417969 L 115.160156 54.734375 C 115.082031 54.925781 115.167969 55.144531 115.355469 55.222656 Z M 106.332031 51.144531 L 110.332031 55.144531 C 110.40625 55.21875 110.5 55.253906 110.59375 55.253906 C 110.691406 55.253906 110.785156 55.21875 110.859375 55.144531 C 111.003906 55 111.003906 54.765625 110.859375 54.617188 L 107.382812 51.148438 L 110.859375 47.675781 C 111.003906 47.527344 111.003906 47.292969 110.859375 47.148438 C 110.714844 47.003906 110.476562 47.003906 110.332031 47.148438 Z M 312.480469 53.488281 L 319.050781 53.488281 C 319.558594 53.488281 319.96875 53.078125 319.96875 52.574219 C 319.96875 52.066406 319.558594 51.65625 319.050781 51.65625 L 312.480469 51.65625 C 311.976562 51.65625 311.566406 52.066406 311.566406 52.574219 C 311.566406 53.078125 311.976562 53.488281 312.480469 53.488281 Z M 98.148438 116.285156 C 98.902344 116.285156 99.515625 115.675781 99.515625 114.917969 C 99.515625 114.164062 98.902344 113.550781 98.148438 113.550781 C 97.394531 113.550781 96.78125 114.164062 96.78125 114.917969 C 96.78125 115.675781 97.394531 116.285156 98.148438 116.285156 Z M 144.136719 102.332031 L 147.945312 102.332031 L 147.945312 96.402344 L 144.136719 96.402344 Z M 199.027344 120.707031 L 199.023438 120.703125 C 198.984375 120.742188 198.953125 120.78125 198.914062 120.816406 C 198.953125 120.78125 198.988281 120.746094 199.027344 120.707031 Z M 306.296875 129.59375 C 306.296875 129.59375 298.253906 135.679688 297.082031 129.59375 C 297.082031 129.59375 293.410156 130.761719 289.183594 133.132812 C 288.347656 133.601562 287.820312 134.492188 287.566406 135.417969 L 286.144531 140.480469 L 285.925781 139.757812 C 285.800781 139.347656 285.421875 139.066406 284.992188 139.066406 L 260.359375 139.066406 C 259.703125 139.066406 259.234375 139.699219 259.425781 140.324219 L 264.351562 156.574219 C 264.476562 156.984375 264.855469 157.265625 265.285156 157.265625 L 272.980469 157.265625 C 273.089844 157.171875 273.222656 157.109375 273.386719 157.109375 L 305.214844 157.101562 C 305.320312 157.101562 305.414062 157.027344 305.433594 156.921875 L 306.601562 151.21875 L 307 149.257812 L 316.609375 150.898438 L 318.808594 143.289062 C 319.359375 141.375 318.882812 139.308594 317.535156 137.835938 C 315.472656 135.589844 311.433594 133.058594 306.296875 129.59375 Z M 313.507812 162.230469 C 313.507812 162.230469 312.195312 166.933594 307.976562 166.464844 C 303.273438 165.945312 288.976562 163.097656 285.539062 162.40625 L 285.382812 163.234375 L 283.335938 173.140625 C 283.335938 173.140625 297.863281 181.097656 314.265625 176.652344 C 314.265625 176.652344 314.75 167.074219 314.976562 164.359375 C 315.253906 160.980469 316.609375 150.902344 316.609375 150.898438 L 316.382812 151.714844 Z M 244.121094 138.917969 L 249.011719 138.917969 L 249.011719 134.21875 L 244.121094 134.21875 Z M 325.972656 75.84375 L 322.339844 79.230469 L 320.757812 77.707031 C 320.492188 77.453125 320.074219 77.460938 319.824219 77.722656 C 319.570312 77.984375 319.578125 78.402344 319.839844 78.65625 L 322.324219 81.050781 L 326.875 76.808594 C 327.140625 76.558594 327.15625 76.144531 326.90625 75.875 C 326.660156 75.609375 326.242188 75.59375 325.972656 75.84375 Z M 331.449219 78.359375 C 331.449219 82.820312 327.828125 86.4375 323.363281 86.4375 C 318.894531 86.4375 315.273438 82.820312 315.273438 78.359375 C 315.273438 73.894531 318.894531 70.277344 323.363281 70.277344 C 327.828125 70.277344 331.449219 73.894531 331.449219 78.359375 Z M 329.992188 78.359375 C 329.992188 74.699219 327.023438 71.730469 323.363281 71.730469 C 319.699219 71.730469 316.730469 74.699219 316.730469 78.359375 C 316.730469 82.015625 319.699219 84.984375 323.363281 84.984375 C 327.023438 84.984375 329.992188 82.019531 329.992188 78.359375 Z M 149.734375 126.386719 C 149.238281 126.386719 148.839844 126.789062 148.839844 127.28125 L 148.839844 130.191406 C 148.839844 130.683594 149.238281 131.085938 149.734375 131.085938 C 150.230469 131.085938 150.628906 130.683594 150.628906 130.191406 L 150.628906 127.28125 C 150.628906 126.789062 150.230469 126.386719 149.734375 126.386719 Z M 174.875 281.25 C 172.605469 280.152344 169.3125 278.601562 167.371094 276.28125 C 167.261719 276.148438 167.15625 276.011719 167.058594 275.878906 L 165.578125 284.867188 L 161.050781 284.867188 L 162.71875 274.492188 L 156.472656 274.492188 C 156.929688 279.105469 155.527344 280.617188 156.589844 284.867188 L 177.191406 284.867188 C 177.191406 284.867188 177.679688 282.601562 174.875 281.25 Z M 227.414062 48.148438 C 227.15625 46.082031 225.835938 44.414062 224.074219 43.605469 C 224.078125 43.597656 224.078125 43.578125 224.078125 43.578125 C 219.996094 41.816406 216.007812 40.660156 212.050781 40.09375 L 212.117188 40.953125 C 212.308594 43.691406 210.339844 46.113281 207.425781 46.308594 C 204.511719 46.507812 201.992188 44.449219 201.804688 41.710938 L 201.820312 39.976562 C 197.988281 40.445312 194.144531 41.476562 190.234375 43.105469 C 190.226562 43.109375 190.222656 43.113281 190.214844 43.117188 C 188.835938 43.59375 187.644531 44.605469 186.984375 46.042969 L 183.179688 53.667969 L 227.96875 53.667969 C 227.808594 51.824219 227.644531 49.984375 227.414062 48.148438 Z M 196.175781 124.535156 C 194.992188 126.757812 194.3125 129.292969 194.296875 131.980469 L 210.308594 131.980469 L 210.066406 131.738281 Z M 218.59375 85.441406 L 229.566406 85.441406 L 229.566406 74.25 L 218.59375 74.25 Z M 218.59375 85.441406 " fill-opacity="1" fill-rule="nonzero"/><g clip-path="url(#1d361e62d4)"><path fill="#293237" d="M 130.976562 207.320312 C 131.0625 207.1875 131.246094 207.148438 131.378906 207.238281 L 133.402344 208.5625 C 133.4375 208.585938 133.464844 208.613281 133.488281 208.648438 L 135.546875 211.773438 C 135.636719 211.910156 135.601562 212.089844 135.464844 212.175781 C 135.414062 212.210938 135.359375 212.226562 135.304688 212.226562 C 135.210938 212.226562 135.117188 212.179688 135.0625 212.09375 L 133.035156 209.015625 L 131.058594 207.722656 C 130.925781 207.636719 130.886719 207.457031 130.976562 207.320312 Z M 125.746094 212.816406 L 129.542969 212.816406 C 129.25 212.78125 128.882812 212.605469 128.605469 212.105469 C 128.476562 211.863281 128.292969 211.503906 128.101562 211.125 C 127.128906 211.613281 126.0625 212.117188 125.164062 212.460938 C 125.269531 212.664062 125.480469 212.816406 125.746094 212.816406 Z M 125.996094 208.53125 L 128.082031 208.425781 C 128.488281 208.402344 128.886719 208.664062 129.023438 209.054688 L 129.703125 211.054688 C 129.742188 211.167969 129.84375 211.234375 129.957031 211.246094 L 130.144531 211.90625 C 130.191406 212.332031 130.28125 212.632812 129.902344 212.785156 C 129.867188 212.800781 129.824219 212.808594 129.773438 212.816406 L 131.84375 212.816406 C 131.589844 212.757812 131.304688 212.609375 131.03125 212.289062 C 130.8125 212.027344 130.484375 211.613281 130.15625 211.1875 C 130.25 211.117188 130.296875 210.988281 130.253906 210.867188 L 129.574219 208.863281 C 129.347656 208.230469 128.726562 207.820312 128.054688 207.84375 L 125.964844 207.949219 C 125.804688 207.957031 125.683594 208.09375 125.691406 208.253906 C 125.699219 208.414062 125.808594 208.539062 125.996094 208.53125 Z M 110.339844 163.582031 C 110.339844 163.585938 110.335938 163.585938 110.335938 163.589844 C 110.277344 163.707031 110.226562 163.828125 110.164062 163.933594 C 110.230469 163.824219 110.28125 163.699219 110.339844 163.582031 Z M 112.511719 176.179688 C 112.511719 176.285156 112.5 176.390625 112.492188 176.496094 C 112.15625 176.53125 111.890625 176.804688 111.890625 177.152344 C 111.890625 177.523438 112.191406 177.824219 112.5625 177.824219 C 112.933594 177.824219 113.234375 177.523438 113.234375 177.152344 C 113.234375 176.894531 113.085938 176.679688 112.871094 176.566406 C 112.882812 176.4375 112.894531 176.308594 112.894531 176.179688 C 112.894531 175.019531 112.429688 173.917969 111.632812 173.101562 L 111.660156 173.714844 C 112.203125 174.410156 112.511719 175.273438 112.511719 176.179688 Z M 112.792969 193.0625 C 112.800781 193.148438 113.5625 201.921875 112.023438 205.136719 C 111.980469 205.21875 111.984375 205.316406 112.027344 205.394531 C 112.066406 205.476562 112.148438 205.535156 112.238281 205.546875 L 118.089844 206.476562 C 118.105469 206.480469 118.121094 206.480469 118.136719 206.480469 C 118.277344 206.480469 118.398438 206.378906 118.421875 206.238281 C 118.449219 206.078125 118.339844 205.929688 118.179688 205.902344 L 112.699219 205.03125 C 114.109375 201.460938 113.402344 193.363281 113.371094 193.007812 C 113.359375 192.847656 113.210938 192.726562 113.054688 192.746094 C 112.894531 192.761719 112.777344 192.902344 112.792969 193.0625 Z M 305.226562 115.277344 C 304.664062 117.984375 304.855469 118.417969 305.019531 119.269531 C 305.1875 120.117188 306.207031 120.804688 306.207031 120.804688 C 307.179688 118.324219 308.796875 119.671875 308.796875 119.671875 C 314.066406 111.515625 308.199219 110.792969 308.199219 110.792969 C 302.191406 104.585938 301.964844 108.996094 301.964844 108.996094 C 294.601562 104.617188 295.625 109.304688 295.625 109.304688 C 292.425781 109.984375 294.429688 111.980469 294.429688 111.980469 C 291.09375 115.390625 305.226562 115.277344 305.226562 115.277344 Z M 305.148438 157.386719 C 305.171875 157.390625 305.195312 157.394531 305.214844 157.394531 C 305.347656 157.394531 305.46875 157.300781 305.5 157.167969 L 309.457031 140.082031 C 309.492188 139.925781 309.394531 139.769531 309.238281 139.730469 C 309.082031 139.695312 308.925781 139.792969 308.890625 139.949219 L 304.933594 157.035156 C 304.894531 157.191406 304.992188 157.347656 305.148438 157.386719 Z M 285.925781 139.757812 L 290.855469 156.007812 C 290.988281 156.445312 290.792969 156.878906 290.445312 157.105469 L 302.550781 157.101562 L 302.550781 155.335938 L 291.753906 155.335938 L 291.957031 156.007812 L 289.46875 147.796875 L 290.636719 142.273438 C 290.671875 142.117188 290.570312 141.960938 290.414062 141.929688 C 290.257812 141.894531 290.101562 141.996094 290.066406 142.152344 L 289.117188 146.640625 L 287.03125 139.757812 C 286.90625 139.347656 286.527344 139.066406 286.097656 139.066406 L 284.992188 139.066406 C 285.421875 139.066406 285.800781 139.347656 285.925781 139.757812 Z M 306.132812 123.605469 L 306.152344 125.414062 C 306.429688 124.886719 306.691406 124.265625 306.917969 123.664062 C 306.464844 123.707031 306.132812 123.605469 306.132812 123.605469 Z M 99.871094 167.4375 C 103.070312 167.429688 108.511719 167.179688 110.335938 163.589844 C 110.488281 163.28125 110.621094 162.953125 110.722656 162.597656 C 110.742188 162.519531 110.777344 162.449219 110.792969 162.371094 C 110.703125 162.246094 110.605469 162.136719 110.511719 162.019531 C 109.597656 160.871094 108.453125 160.003906 107.195312 159.429688 C 107.175781 159.421875 107.15625 159.414062 107.136719 159.40625 C 106.859375 159.28125 106.574219 159.171875 106.289062 159.078125 C 106.230469 159.058594 106.171875 159.042969 106.117188 159.023438 C 105.855469 158.945312 105.59375 158.878906 105.328125 158.820312 C 105.261719 158.808594 105.199219 158.792969 105.132812 158.78125 C 104.84375 158.726562 104.550781 158.683594 104.257812 158.660156 C 104.226562 158.65625 104.195312 158.648438 104.164062 158.648438 C 103.824219 158.621094 103.484375 158.613281 103.144531 158.625 C 102.609375 158.644531 102.074219 158.710938 101.542969 158.824219 C 99.386719 159.453125 97.804688 161.46875 97.804688 163.820312 L 97.804688 168.109375 C 98.625 168.222656 99.34375 168.636719 99.859375 169.238281 C 99.894531 168.539062 99.890625 167.90625 99.871094 167.4375 Z M 232.167969 39.925781 L 231.644531 38.945312 C 231.566406 38.804688 231.390625 38.75 231.25 38.828125 C 231.109375 38.902344 231.054688 39.078125 231.132812 39.21875 L 231.734375 40.34375 C 231.785156 40.441406 231.882812 40.5 231.992188 40.5 C 232.003906 40.5 233.609375 40.515625 234.527344 41.828125 C 234.582031 41.90625 234.671875 41.953125 234.765625 41.953125 C 234.820312 41.953125 234.882812 41.933594 234.929688 41.898438 C 235.0625 41.804688 235.097656 41.625 235.003906 41.492188 C 234.09375 40.195312 232.671875 39.964844 232.167969 39.925781 Z M 306.019531 264.636719 C 301.769531 265.527344 301.078125 268.191406 301.078125 268.191406 L 322.230469 268.191406 L 320.464844 257.773438 L 321.972656 257.773438 L 314.238281 204.394531 L 312.574219 177.066406 C 296.878906 180.554688 283.335938 173.140625 283.335938 173.140625 L 283.371094 172.976562 L 264.917969 190.230469 C 261.402344 194.445312 263.980469 200.296875 263.980469 200.296875 L 276.398438 242.671875 L 278.820312 242.671875 C 278.898438 243.742188 278.859375 244.800781 278.570312 245.609375 C 277.386719 248.96875 274.113281 248.894531 272.34375 249.265625 C 268.09375 250.152344 267.402344 252.820312 267.402344 252.820312 L 288.554688 252.820312 L 286.832031 242.671875 L 289.988281 242.671875 L 280.613281 200.0625 C 285.878906 196.9375 290.195312 194.046875 293.746094 191.386719 L 292.859375 184.570312 C 292.835938 184.410156 292.949219 184.261719 293.109375 184.242188 C 293.269531 184.214844 293.414062 184.332031 293.4375 184.492188 L 295.03125 196.71875 C 295.050781 196.851562 294.96875 196.972656 294.851562 197.019531 L 296.195312 205.796875 L 308.847656 257.773438 L 312.46875 257.773438 C 312.574219 258.929688 312.558594 260.101562 312.246094 260.980469 C 311.0625 264.339844 307.789062 264.265625 306.019531 264.636719 Z M 216.628906 21.316406 C 216.667969 17.714844 214.722656 15.960938 211.09375 15.789062 C 211.09375 15.789062 202.902344 15.089844 201.078125 14.980469 C 198.484375 14.816406 198.375 17.0625 199.148438 20.097656 C 199.191406 20.273438 199.257812 20.421875 199.332031 20.558594 C 199.101562 21.019531 198.910156 21.5 198.765625 22.007812 C 198.753906 22.050781 198.746094 22.09375 198.734375 22.132812 C 198.679688 22.347656 198.625 22.558594 198.582031 22.78125 C 198.535156 23.046875 198.5 23.316406 198.476562 23.59375 C 198.449219 23.917969 198.445312 24.238281 198.457031 24.554688 C 198.460938 24.65625 198.472656 24.75 198.476562 24.847656 C 198.492188 25.070312 198.515625 25.292969 198.550781 25.511719 C 198.566406 25.613281 198.582031 25.71875 198.601562 25.820312 C 198.644531 26.042969 198.695312 26.257812 198.757812 26.472656 C 198.78125 26.558594 198.800781 26.644531 198.828125 26.730469 C 198.917969 27.019531 199.03125 27.300781 199.152344 27.574219 C 199.195312 26.632812 199.390625 24 200.269531 21.285156 C 202.023438 21.078125 203.570312 22.003906 206.234375 22.660156 C 208.414062 23.199219 211.429688 22.933594 212.253906 22.117188 C 211.316406 25.996094 211.800781 29.808594 211.800781 29.808594 C 211.929688 29.8125 212.042969 29.847656 212.140625 29.90625 C 212.367188 28.859375 212.710938 27.8125 213.195312 27.851562 C 213.628906 27.890625 214 28.167969 214.269531 28.589844 C 214.277344 28.605469 214.289062 28.617188 214.296875 28.628906 C 214.339844 28.699219 214.375 28.769531 214.414062 28.84375 C 214.433594 28.886719 214.453125 28.933594 214.472656 28.976562 C 214.5 29.042969 214.527344 29.109375 214.550781 29.179688 C 214.589844 29.292969 214.621094 29.414062 214.648438 29.535156 C 214.65625 29.582031 214.664062 29.632812 214.671875 29.679688 C 214.6875 29.78125 214.699219 29.886719 214.707031 29.996094 C 214.710938 30.042969 214.714844 30.089844 214.714844 30.136719 C 214.722656 30.289062 214.722656 30.445312 214.707031 30.605469 C 214.613281 31.722656 213.832031 32.617188 212.734375 32.894531 C 212.550781 32.941406 212.375 32.910156 212.226562 32.824219 C 212.078125 32.738281 211.957031 32.59375 211.886719 32.417969 L 211.777344 32.75 L 211.550781 33.441406 L 211.566406 33.652344 C 212.667969 33.460938 217.105469 32.4375 216.601562 28.414062 C 216.601562 28.414062 220.082031 24.425781 216.628906 21.316406 Z M 210.417969 115.980469 C 204.25 115.980469 198.886719 119.449219 196.175781 124.535156 L 210.53125 131.980469 L 214.707031 116.558594 C 213.34375 116.183594 211.90625 115.980469 210.417969 115.980469 Z M 107.003906 204.402344 C 107.371094 198.171875 106.347656 192.519531 103.980469 188.96875 L 104.183594 184.042969 C 104.191406 183.882812 104.066406 183.746094 103.90625 183.738281 C 103.902344 183.738281 103.898438 183.738281 103.894531 183.738281 C 103.738281 183.738281 103.609375 183.859375 103.601562 184.019531 L 103.394531 189.039062 C 103.390625 189.101562 103.40625 189.164062 103.441406 189.214844 C 105.734375 192.589844 106.734375 198.179688 106.394531 204.3125 Z M 120.335938 266.765625 C 120.320312 266.765625 120.308594 266.757812 120.296875 266.757812 L 119.203125 274.492188 L 140.039062 274.492188 L 140.613281 266.699219 C 140.5625 266.738281 140.503906 266.765625 140.4375 266.765625 Z M 95.085938 168.378906 L 95.085938 164.5625 C 95.085938 164.472656 95.097656 164.386719 95.101562 164.296875 C 94.546875 165.695312 94.34375 167.210938 94.527344 168.710938 C 94.703125 168.582031 94.886719 168.46875 95.085938 168.378906 Z M 142.066406 212.839844 L 214.835938 212.839844 L 214.835938 216.207031 L 203.773438 216.207031 L 214.832031 284.867188 L 210.304688 284.867188 L 199.007812 216.207031 L 176.875 216.207031 L 165.578125 284.867188 L 161.050781 284.867188 L 162.71875 274.492188 L 147.746094 274.492188 L 145.390625 266.765625 L 163.964844 266.765625 L 164.058594 266.183594 L 145.300781 266.183594 C 145.269531 266.183594 145.242188 266.191406 145.214844 266.199219 L 141.539062 254.128906 L 140.644531 266.269531 C 140.59375 266.214844 140.519531 266.183594 140.4375 266.183594 L 120.378906 266.183594 L 124.164062 239.351562 C 124.175781 239.355469 124.1875 239.367188 124.203125 239.367188 C 124.285156 239.367188 124.367188 239.332031 124.421875 239.265625 L 128.046875 235.070312 C 128.152344 234.949219 128.140625 234.765625 128.015625 234.660156 C 127.894531 234.554688 127.710938 234.566406 127.605469 234.691406 L 123.980469 238.886719 C 123.933594 238.941406 123.914062 239.007812 123.914062 239.078125 L 102.835938 239.191406 L 102.820312 239.132812 C 102.6875 239.152344 102.558594 239.171875 102.425781 239.191406 C 101.546875 239.304688 100.683594 239.359375 99.832031 239.378906 L 107.160156 284.867188 L 102.632812 284.867188 L 95.074219 238.949219 C 90.179688 237.859375 86.554688 234.746094 85.878906 229.453125 C 85.304688 224.949219 86.992188 219.867188 90.148438 216.207031 L 69.203125 216.207031 L 57.90625 284.867188 L 53.375 284.867188 L 64.4375 216.207031 L 52.84375 216.207031 L 52.84375 212.839844 L 98.847656 212.839844 C 98.191406 212.421875 97.640625 211.84375 97.261719 211.128906 L 87.835938 193.386719 C 87.785156 193.292969 87.734375 193.1875 87.6875 193.09375 C 87.621094 192.945312 87.683594 192.773438 87.832031 192.707031 C 87.976562 192.636719 88.148438 192.699219 88.21875 192.847656 C 88.257812 192.933594 88.304688 193.03125 88.347656 193.113281 L 97.777344 210.855469 C 98.300781 211.84375 99.195312 212.546875 100.238281 212.839844 L 141.457031 212.839844 L 138.03125 212.816406 L 132.355469 212.816406 C 132.4375 212.792969 132.507812 212.765625 132.558594 212.734375 C 132.847656 212.542969 132.8125 212.316406 132.714844 212.015625 C 132.683594 212.023438 132.65625 212.035156 132.625 212.035156 C 132.519531 212.035156 132.417969 211.980469 132.367188 211.878906 L 130.613281 208.464844 L 127.90625 207.277344 C 127.761719 207.214844 127.695312 207.042969 127.757812 206.894531 C 127.824219 206.746094 127.996094 206.683594 128.140625 206.746094 L 130.941406 207.972656 C 131 208 131.050781 208.046875 131.082031 208.105469 L 132.882812 211.613281 C 132.9375 211.714844 132.921875 211.832031 132.855469 211.921875 C 133.074219 212.109375 133.277344 212.285156 133.429688 212.410156 C 134.214844 213.050781 134.910156 212.792969 135.132812 212.582031 C 135.183594 212.53125 135.222656 212.480469 135.25 212.425781 C 136.023438 213.042969 136.707031 212.792969 136.921875 212.582031 C 137.265625 212.253906 137.039062 211.964844 136.800781 211.527344 L 135.015625 209.253906 C 135.933594 209.609375 136.777344 210.113281 137.515625 210.742188 L 147.171875 210.738281 L 147.136719 210.753906 C 145.464844 211.042969 143.792969 211.429688 142.125 211.933594 L 142.121094 211.933594 L 142.121094 212.816406 Z M 100.304688 216.207031 L 97.347656 216.207031 C 98.296875 216.246094 99.296875 216.246094 100.304688 216.207031 Z M 112.6875 217.972656 C 112.6875 217.8125 112.558594 217.683594 112.398438 217.683594 C 112.398438 217.683594 112.394531 217.683594 112.394531 217.683594 C 105.378906 217.730469 105.378906 217.738281 105.351562 218.09375 C 105.335938 218.246094 105.453125 218.386719 105.601562 218.410156 C 105.617188 218.414062 105.636719 218.414062 105.652344 218.414062 C 105.695312 218.414062 105.734375 218.40625 105.773438 218.386719 C 106.023438 218.363281 107.167969 218.300781 112.398438 218.265625 C 112.5625 218.265625 112.691406 218.132812 112.6875 217.972656 Z M 142.230469 222.832031 C 142.144531 222.695312 141.96875 222.652344 141.832031 222.734375 C 141.691406 222.820312 141.648438 223 141.734375 223.136719 C 142.773438 224.835938 143.21875 227 143.050781 229.570312 L 141.355469 252.628906 C 141.34375 252.789062 141.464844 252.929688 141.625 252.941406 C 141.632812 252.941406 141.640625 252.941406 141.648438 252.941406 C 141.796875 252.941406 141.925781 252.824219 141.9375 252.671875 L 143.632812 229.609375 C 143.804688 226.917969 143.332031 224.636719 142.230469 222.832031 Z M 111.257812 216.207031 C 111.746094 216.710938 112.210938 217.238281 112.632812 217.796875 L 135.554688 219.300781 C 135.738281 219.3125 135.917969 219.335938 136.097656 219.359375 L 147.34375 220.109375 C 152.117188 220.421875 154.964844 223.832031 156.019531 228.492188 L 164.253906 264.96875 L 172.109375 216.207031 Z M 89.277344 186.46875 C 90.023438 185.792969 90.921875 185.296875 91.917969 184.996094 C 94.453125 184.242188 96.390625 183.765625 98.101562 183.507812 L 98.789062 179.214844 L 99.046875 175.988281 L 98.902344 175.628906 L 98.394531 174.5 C 98.070312 174.605469 97.726562 174.679688 97.367188 174.679688 L 96.445312 174.679688 C 95.117188 174.679688 93.980469 173.890625 93.457031 172.761719 L 90.414062 174.128906 C 86.824219 175.746094 85.226562 179.960938 86.839844 183.546875 C 87.390625 184.769531 88.25 185.753906 89.277344 186.46875 Z M 89.277344 186.46875 " fill-opacity="1" fill-rule="nonzero"/></g></svg>