<svg xmlns="http://www.w3.org/2000/svg" xmlns:xlink="http://www.w3.org/1999/xlink" width="540" zoomAndPan="magnify" viewBox="0 0 404.88 299.999988" height="400" preserveAspectRatio="xMidYMid meet" version="1.0"><defs><clipPath id="1657b6b15d"><path d="M 281 244 L 363 244 L 363 271.773438 L 281 271.773438 Z M 281 244 " clip-rule="nonzero"/></clipPath><clipPath id="7c4ea38139"><path d="M 28.289062 112 L 70 112 L 70 151 L 28.289062 151 Z M 28.289062 112 " clip-rule="nonzero"/></clipPath></defs><g clip-path="url(#1657b6b15d)"><path fill="#000000" d="M 356.546875 250.898438 C 358.425781 252.921875 362.425781 260.546875 362.425781 260.546875 L 359.46875 262.691406 C 359.46875 262.691406 356.074219 257.605469 355.375 257.914062 C 354.675781 258.222656 355.375 265.660156 354.417969 266.359375 L 347.210938 271.574219 C 347.097656 269.808594 347.414062 268.125 348.167969 266.523438 C 349.246094 264.378906 350.359375 259.953125 347.539062 253.28125 C 347.167969 252.421875 346.738281 251.519531 346.238281 250.578125 L 352.738281 244.554688 C 352.738281 244.554688 353.539062 246.351562 354.609375 248.179688 C 355.160156 249.152344 355.808594 250.058594 356.546875 250.898438 Z M 301.472656 256.925781 C 301.679688 254.824219 302.09375 252.894531 302.09375 252.894531 L 293.277344 253.972656 C 293.128906 255.03125 292.949219 256.011719 292.734375 256.925781 C 291.09375 263.984375 287.558594 266.910156 285.449219 268.011719 C 283.898438 268.867188 282.648438 270.042969 281.707031 271.539062 L 290.613281 271.539062 C 291.777344 271.539062 295.601562 265.109375 296.351562 265.273438 C 297.101562 265.4375 296.851562 271.539062 296.851562 271.539062 L 300.507812 271.539062 C 300.507812 271.539062 301.757812 263.027344 301.421875 260.289062 C 301.332031 259.175781 301.347656 258.066406 301.472656 256.957031 Z M 301.472656 256.925781 " fill-opacity="1" fill-rule="nonzero"/></g><path fill="#a66735" d="M 346.238281 250.578125 L 352.738281 244.554688 C 352.738281 244.554688 353.539062 246.351562 354.609375 248.179688 L 347.539062 253.34375 C 347.167969 252.421875 346.738281 251.519531 346.238281 250.578125 Z M 292.734375 256.957031 L 301.472656 256.957031 C 301.679688 254.859375 302.09375 252.929688 302.09375 252.929688 L 293.277344 254.007812 C 293.128906 255.066406 292.949219 256.046875 292.734375 256.957031 Z M 292.734375 256.957031 " fill-opacity="1" fill-rule="nonzero"/><path fill="#000000" d="M 372.710938 154.179688 C 372.445312 154.535156 372.117188 154.820312 371.730469 155.039062 C 368.722656 156.699219 363.308594 153.09375 360.832031 153.207031 C 358.066406 153.34375 356.746094 156.96875 350.210938 154.394531 C 343.675781 151.820312 345.203125 141.6875 345.597656 137.867188 C 345.996094 134.042969 343.617188 132.132812 339.5625 132.261719 C 335.511719 132.390625 331.15625 130.160156 333.019531 123.707031 C 334.746094 117.585938 330.175781 114.238281 326.984375 114.875 C 327.71875 118.230469 327.371094 122.148438 324.304688 124.824219 C 320.519531 128.113281 318.664062 127.890625 317.5625 126.269531 C 317.148438 125.667969 316.011719 124.179688 314.734375 122.550781 C 312.605469 119.804688 310.105469 116.65625 310.105469 116.65625 C 310.105469 116.65625 306.136719 116.40625 306.050781 113.351562 C 306.039062 112.75 306.152344 112.175781 306.386719 111.628906 C 307.363281 109.226562 310.457031 107.152344 314.761719 106.789062 C 319.0625 106.429688 322.949219 108.054688 325.105469 110.605469 C 325.578125 110.027344 326.117188 109.519531 326.714844 109.082031 C 327.316406 108.640625 327.964844 108.28125 328.65625 108.003906 C 329.347656 107.726562 330.0625 107.539062 330.800781 107.441406 C 331.539062 107.34375 332.28125 107.339844 333.019531 107.425781 C 334.429688 107.527344 335.683594 108.015625 336.789062 108.898438 C 337 109.074219 337.195312 109.257812 337.382812 109.457031 C 338.910156 111.113281 339.511719 113.425781 340.476562 115.199219 C 342.0625 118.09375 344.703125 117.894531 348.789062 116.648438 C 352.875 115.398438 361.125 115.976562 362.902344 122.792969 C 364.675781 129.609375 359.917969 137.625 368.402344 139.5625 C 376.886719 141.5 375.351562 150.75 372.710938 154.179688 Z M 372.710938 154.179688 " fill-opacity="1" fill-rule="nonzero"/><path fill="#000000" d="M 186.128906 250.785156 C 185.957031 251.25 181.929688 262.113281 174.75 264.75 L 174.449219 263.941406 C 176.089844 263.277344 177.527344 262.308594 178.757812 261.039062 C 178.117188 259.386719 177.597656 257.699219 177.1875 255.976562 C 176.757812 253.816406 177.765625 253.523438 178.34375 253.394531 C 178.921875 253.265625 180.363281 253.972656 180.65625 256.285156 C 180.710938 257.585938 180.421875 258.800781 179.792969 259.9375 C 182.125 257.085938 183.957031 253.941406 185.292969 250.511719 Z M 194.042969 251.027344 C 194.8125 249.847656 195.226562 249.125 195.242188 249.097656 L 194.484375 248.667969 C 194.433594 248.761719 189.226562 257.90625 181.164062 264.164062 L 181.699219 264.851562 C 185.457031 261.847656 188.757812 258.402344 191.605469 254.523438 C 192.648438 254.804688 195.75 255.5625 196.519531 254.804688 C 197.449219 253.945312 195.734375 252.566406 192.890625 253.628906 C 192.566406 253.761719 192.25 253.910156 191.941406 254.074219 C 192.449219 253.386719 192.898438 252.75 193.292969 252.171875 C 194.5625 252.222656 197.335938 252.25 197.878906 251.421875 C 198.5625 250.390625 196.605469 249.402344 194.042969 251.027344 Z M 194.042969 251.027344 " fill-opacity="1" fill-rule="nonzero"/><path fill="#000000" d="M 124.175781 263.941406 L 123.882812 264.75 C 116.695312 262.113281 112.675781 251.25 112.496094 250.785156 L 113.355469 250.492188 C 114.691406 253.925781 116.527344 257.066406 118.859375 259.917969 C 118.226562 258.785156 117.941406 257.566406 117.996094 256.269531 C 118.289062 253.953125 119.71875 253.238281 120.304688 253.378906 C 120.890625 253.515625 121.902344 253.816406 121.460938 255.960938 C 121.054688 257.683594 120.53125 259.371094 119.890625 261.023438 C 121.113281 262.296875 122.542969 263.269531 124.175781 263.941406 Z M 104.183594 248.667969 L 103.425781 249.097656 C 103.425781 249.097656 103.855469 249.847656 104.625 251.027344 C 102.039062 249.402344 100.105469 250.355469 100.820312 251.433594 C 101.363281 252.292969 104.148438 252.234375 105.40625 252.179688 C 105.804688 252.757812 106.269531 253.394531 106.761719 254.082031 C 106.453125 253.917969 106.136719 253.769531 105.8125 253.636719 C 102.96875 252.578125 101.253906 253.917969 102.183594 254.816406 C 102.949219 255.574219 106.054688 254.816406 107.097656 254.53125 C 109.945312 258.414062 113.25 261.855469 117.011719 264.859375 L 117.539062 264.171875 C 109.441406 257.929688 104.234375 248.789062 104.183594 248.667969 Z M 104.183594 248.667969 " fill-opacity="1" fill-rule="nonzero"/><path fill="#26b1d8" d="M 241.445312 54.847656 C 255.988281 42.746094 271.074219 48.71875 271.074219 48.71875 C 271.074219 48.71875 273.773438 38.976562 287.785156 37.089844 C 301.792969 35.207031 307.714844 51.355469 307.714844 51.355469 C 323.882812 44.898438 330.890625 60.496094 330.890625 60.496094 L 229.054688 60.496094 C 229.597656 53.507812 241.445312 54.847656 241.445312 54.847656 Z M 53.335938 59.953125 L 157.59375 59.953125 C 157.59375 59.953125 151.429688 47.851562 137.1875 53.929688 C 137.1875 53.929688 129.425781 40.035156 113.625 48.246094 C 113.625 48.246094 107.527344 32.753906 90.449219 34.894531 C 74.0625 36.910156 70.964844 51.214844 70.964844 51.214844 C 70.964844 51.214844 55.050781 50.519531 53.335938 59.953125 Z M 53.335938 59.953125 " fill-opacity="1" fill-rule="nonzero"/><path fill="#000000" d="M 119.683594 132.976562 C 119.683594 132.886719 119.71875 132.808594 119.78125 132.746094 C 119.84375 132.679688 119.921875 132.648438 120.011719 132.648438 L 268.214844 132.648438 C 268.3125 132.632812 268.402344 132.65625 268.476562 132.722656 C 268.554688 132.789062 268.59375 132.871094 268.59375 132.972656 C 268.59375 133.074219 268.554688 133.15625 268.476562 133.222656 C 268.402344 133.285156 268.3125 133.3125 268.214844 133.292969 L 120.011719 133.292969 C 119.925781 133.292969 119.847656 133.265625 119.785156 133.203125 C 119.71875 133.140625 119.6875 133.066406 119.683594 132.976562 Z M 268.214844 141.265625 L 120.011719 141.265625 C 119.914062 141.25 119.824219 141.273438 119.746094 141.339844 C 119.671875 141.40625 119.632812 141.488281 119.632812 141.589844 C 119.632812 141.6875 119.671875 141.773438 119.746094 141.835938 C 119.824219 141.902344 119.914062 141.925781 120.011719 141.910156 L 268.214844 141.910156 C 268.3125 141.925781 268.402344 141.902344 268.476562 141.835938 C 268.554688 141.773438 268.59375 141.6875 268.59375 141.589844 C 268.59375 141.488281 268.554688 141.40625 268.476562 141.339844 C 268.402344 141.273438 268.3125 141.25 268.214844 141.265625 Z M 268.214844 149.875 L 120.011719 149.875 C 119.921875 149.875 119.84375 149.90625 119.78125 149.96875 C 119.71875 150.035156 119.683594 150.109375 119.683594 150.199219 C 119.683594 150.289062 119.71875 150.367188 119.78125 150.429688 C 119.847656 150.492188 119.921875 150.523438 120.011719 150.519531 L 268.214844 150.519531 C 268.304688 150.523438 268.378906 150.492188 268.445312 150.429688 C 268.507812 150.367188 268.542969 150.289062 268.539062 150.199219 C 268.539062 150.109375 268.507812 150.035156 268.445312 149.96875 C 268.382812 149.90625 268.304688 149.875 268.214844 149.875 Z M 268.214844 158.480469 L 120.011719 158.480469 C 119.914062 158.464844 119.824219 158.488281 119.746094 158.554688 C 119.671875 158.621094 119.632812 158.703125 119.632812 158.804688 C 119.632812 158.90625 119.671875 158.988281 119.746094 159.054688 C 119.824219 159.121094 119.914062 159.144531 120.011719 159.128906 L 268.214844 159.128906 C 268.3125 159.144531 268.402344 159.121094 268.476562 159.054688 C 268.554688 158.988281 268.59375 158.90625 268.59375 158.804688 C 268.59375 158.703125 268.554688 158.621094 268.476562 158.554688 C 268.402344 158.488281 268.3125 158.464844 268.214844 158.480469 Z M 268.214844 167.089844 L 120.011719 167.089844 C 119.921875 167.085938 119.847656 167.117188 119.78125 167.179688 C 119.71875 167.242188 119.683594 167.320312 119.683594 167.410156 C 119.683594 167.5 119.71875 167.574219 119.78125 167.640625 C 119.84375 167.703125 119.921875 167.734375 120.011719 167.734375 L 268.214844 167.734375 C 268.304688 167.734375 268.382812 167.703125 268.445312 167.640625 C 268.507812 167.574219 268.539062 167.5 268.539062 167.410156 C 268.535156 167.324219 268.503906 167.25 268.4375 167.191406 C 268.375 167.132812 268.300781 167.105469 268.214844 167.105469 Z M 268.214844 175.699219 L 120.011719 175.699219 C 119.914062 175.683594 119.824219 175.707031 119.746094 175.773438 C 119.671875 175.835938 119.632812 175.921875 119.632812 176.019531 C 119.632812 176.121094 119.671875 176.203125 119.746094 176.269531 C 119.824219 176.335938 119.914062 176.359375 120.011719 176.34375 L 268.214844 176.34375 C 268.3125 176.359375 268.402344 176.335938 268.476562 176.269531 C 268.554688 176.203125 268.59375 176.121094 268.59375 176.019531 C 268.59375 175.921875 268.554688 175.835938 268.476562 175.773438 C 268.402344 175.707031 268.3125 175.683594 268.214844 175.699219 Z M 268.214844 184.304688 L 120.011719 184.304688 C 119.914062 184.289062 119.824219 184.3125 119.746094 184.378906 C 119.671875 184.445312 119.632812 184.527344 119.632812 184.628906 C 119.632812 184.730469 119.671875 184.8125 119.746094 184.878906 C 119.824219 184.945312 119.914062 184.96875 120.011719 184.953125 L 268.214844 184.953125 C 268.3125 184.96875 268.402344 184.945312 268.476562 184.878906 C 268.554688 184.8125 268.59375 184.730469 268.59375 184.628906 C 268.59375 184.527344 268.554688 184.445312 268.476562 184.378906 C 268.402344 184.3125 268.3125 184.289062 268.214844 184.304688 Z M 268.214844 184.304688 " fill-opacity="1" fill-rule="nonzero"/><path fill="#26b1d8" d="M 280.695312 103.191406 L 280.695312 109.71875 L 107.617188 109.71875 L 107.617188 103.191406 C 107.617188 102.535156 107.679688 101.886719 107.808594 101.242188 C 107.9375 100.601562 108.128906 99.976562 108.378906 99.371094 C 108.632812 98.765625 108.941406 98.1875 109.304688 97.644531 C 109.671875 97.097656 110.085938 96.59375 110.550781 96.132812 C 111.015625 95.667969 111.519531 95.253906 112.066406 94.890625 C 112.613281 94.523438 113.1875 94.21875 113.796875 93.964844 C 114.402344 93.714844 115.027344 93.527344 115.671875 93.398438 C 116.316406 93.269531 116.96875 93.207031 117.625 93.207031 L 270.6875 93.207031 C 271.34375 93.207031 271.996094 93.269531 272.640625 93.398438 C 273.285156 93.527344 273.910156 93.714844 274.515625 93.964844 C 275.121094 94.21875 275.699219 94.523438 276.246094 94.890625 C 276.792969 95.253906 277.296875 95.667969 277.761719 96.132812 C 278.226562 96.59375 278.640625 97.097656 279.007812 97.644531 C 279.371094 98.1875 279.679688 98.765625 279.933594 99.371094 C 280.183594 99.976562 280.375 100.601562 280.503906 101.242188 C 280.632812 101.886719 280.695312 102.535156 280.695312 103.191406 Z M 280.695312 103.191406 " fill-opacity="1" fill-rule="nonzero"/><path fill="#ffffff" d="M 123.554688 101.566406 C 123.554688 101.828125 123.503906 102.082031 123.40625 102.324219 C 123.304688 102.566406 123.160156 102.78125 122.976562 102.964844 C 122.789062 103.152344 122.574219 103.292969 122.332031 103.394531 C 122.089844 103.496094 121.835938 103.546875 121.574219 103.546875 C 121.308594 103.546875 121.058594 103.496094 120.8125 103.394531 C 120.570312 103.292969 120.355469 103.152344 120.171875 102.964844 C 119.984375 102.78125 119.84375 102.566406 119.742188 102.324219 C 119.640625 102.082031 119.589844 101.828125 119.589844 101.566406 C 119.589844 101.300781 119.640625 101.050781 119.742188 100.808594 C 119.84375 100.566406 119.984375 100.351562 120.171875 100.164062 C 120.355469 99.980469 120.570312 99.835938 120.8125 99.734375 C 121.058594 99.636719 121.308594 99.585938 121.574219 99.585938 C 121.835938 99.585938 122.089844 99.636719 122.332031 99.734375 C 122.574219 99.835938 122.789062 99.980469 122.976562 100.164062 C 123.160156 100.351562 123.304688 100.566406 123.40625 100.808594 C 123.503906 101.050781 123.554688 101.300781 123.554688 101.566406 Z M 129.089844 99.585938 C 128.828125 99.585938 128.574219 99.636719 128.332031 99.738281 C 128.089844 99.839844 127.878906 99.984375 127.691406 100.171875 C 127.507812 100.355469 127.363281 100.570312 127.265625 100.8125 C 127.164062 101.054688 127.117188 101.308594 127.117188 101.570312 C 127.117188 101.832031 127.167969 102.085938 127.269531 102.328125 C 127.371094 102.570312 127.515625 102.78125 127.699219 102.96875 C 127.886719 103.152344 128.101562 103.296875 128.34375 103.394531 C 128.585938 103.496094 128.839844 103.546875 129.101562 103.546875 C 129.363281 103.542969 129.617188 103.496094 129.859375 103.394531 C 130.101562 103.292969 130.316406 103.148438 130.503906 102.964844 C 130.6875 102.777344 130.832031 102.566406 130.933594 102.320312 C 131.03125 102.078125 131.082031 101.828125 131.082031 101.566406 C 131.082031 101.300781 131.03125 101.042969 130.925781 100.796875 C 130.824219 100.550781 130.675781 100.335938 130.488281 100.148438 C 130.296875 99.964844 130.078125 99.820312 129.828125 99.722656 C 129.582031 99.625 129.324219 99.578125 129.054688 99.585938 Z M 136.617188 99.585938 C 136.355469 99.585938 136.101562 99.636719 135.859375 99.734375 C 135.617188 99.835938 135.402344 99.980469 135.214844 100.164062 C 135.03125 100.351562 134.886719 100.566406 134.785156 100.808594 C 134.683594 101.050781 134.632812 101.300781 134.632812 101.566406 C 134.632812 101.828125 134.683594 102.082031 134.785156 102.324219 C 134.886719 102.566406 135.03125 102.78125 135.214844 102.964844 C 135.402344 103.152344 135.617188 103.292969 135.859375 103.394531 C 136.101562 103.496094 136.355469 103.546875 136.617188 103.546875 C 136.878906 103.546875 137.132812 103.496094 137.375 103.394531 C 137.621094 103.292969 137.832031 103.152344 138.019531 102.964844 C 138.207031 102.78125 138.347656 102.566406 138.449219 102.324219 C 138.550781 102.082031 138.601562 101.828125 138.601562 101.566406 C 138.597656 101.300781 138.546875 101.046875 138.445312 100.800781 C 138.339844 100.554688 138.195312 100.339844 138.003906 100.15625 C 137.816406 99.96875 137.597656 99.828125 137.351562 99.726562 C 137.105469 99.628906 136.847656 99.582031 136.582031 99.585938 Z M 136.617188 99.585938 " fill-opacity="1" fill-rule="nonzero"/><path fill="#26b1d8" d="M 190.84375 122.042969 L 190.84375 149.410156 C 189.960938 149.386719 189.085938 149.28125 188.21875 149.089844 C 187.355469 148.898438 186.519531 148.625 185.707031 148.269531 C 184.894531 147.917969 184.125 147.488281 183.394531 146.984375 C 182.667969 146.484375 181.992188 145.914062 181.375 145.28125 C 180.757812 144.648438 180.207031 143.964844 179.71875 143.222656 C 179.234375 142.484375 178.824219 141.703125 178.492188 140.886719 C 178.160156 140.066406 177.90625 139.222656 177.738281 138.355469 C 177.566406 137.488281 177.480469 136.609375 177.480469 135.726562 C 177.480469 134.84375 177.566406 133.964844 177.738281 133.097656 C 177.90625 132.230469 178.160156 131.386719 178.492188 130.566406 C 178.824219 129.75 179.234375 128.96875 179.71875 128.230469 C 180.207031 127.488281 180.757812 126.804688 181.375 126.171875 C 181.992188 125.539062 182.667969 124.96875 183.394531 124.46875 C 184.125 123.964844 184.894531 123.535156 185.707031 123.183594 C 186.519531 122.828125 187.355469 122.554688 188.21875 122.363281 C 189.085938 122.171875 189.960938 122.066406 190.84375 122.042969 Z M 190.84375 122.042969 " fill-opacity="1" fill-rule="nonzero"/><path fill="#000000" d="M 65.929688 264.636719 L 45.316406 264.636719 C 45.164062 264.636719 45.019531 264.601562 44.882812 264.535156 C 44.742188 264.46875 44.628906 264.371094 44.535156 264.25 C 44.441406 264.128906 44.378906 263.996094 44.347656 263.84375 C 44.316406 263.695312 44.320312 263.546875 44.359375 263.398438 L 45.585938 258.765625 L 46.164062 251.535156 L 55.644531 251.535156 L 55.136719 257.855469 L 66.171875 263.59375 C 66.285156 263.652344 66.367188 263.738281 66.421875 263.851562 C 66.476562 263.96875 66.488281 264.085938 66.460938 264.210938 C 66.429688 264.332031 66.367188 264.433594 66.269531 264.515625 C 66.171875 264.59375 66.058594 264.632812 65.929688 264.636719 Z M 88.957031 263.59375 L 77.691406 257.734375 L 77.027344 251.535156 L 67.515625 251.535156 L 68.3125 258.914062 L 67.128906 263.398438 C 67.089844 263.546875 67.085938 263.695312 67.117188 263.84375 C 67.148438 263.996094 67.210938 264.128906 67.304688 264.25 C 67.398438 264.371094 67.511719 264.46875 67.648438 264.535156 C 67.789062 264.601562 67.933594 264.636719 68.085938 264.636719 L 88.699219 264.636719 C 88.828125 264.640625 88.941406 264.601562 89.042969 264.523438 C 89.144531 264.445312 89.210938 264.34375 89.242188 264.21875 C 89.273438 264.09375 89.261719 263.972656 89.210938 263.855469 C 89.15625 263.742188 89.074219 263.652344 88.957031 263.59375 Z M 88.957031 263.59375 " fill-opacity="1" fill-rule="nonzero"/><path fill="#ffffff" d="M 64.722656 143.761719 L 74.007812 187.964844 L 81.078125 253.078125 L 66.492188 253.078125 L 61.1875 196.796875 L 47.507812 153.117188 Z M 64.722656 143.761719 " fill-opacity="1" fill-rule="nonzero"/><path fill="#000000" d="M 81.078125 253.378906 L 66.492188 253.378906 C 66.304688 253.378906 66.207031 253.285156 66.191406 253.101562 L 60.878906 196.824219 L 47.214844 153.238281 C 47.167969 153.082031 47.214844 152.964844 47.359375 152.886719 L 64.601562 143.496094 C 64.695312 143.457031 64.789062 143.457031 64.878906 143.496094 C 64.96875 143.539062 65.023438 143.613281 65.042969 143.710938 L 74.328125 187.914062 L 81.40625 253.050781 C 81.417969 253.136719 81.394531 253.214844 81.335938 253.28125 C 81.265625 253.355469 81.179688 253.386719 81.078125 253.378906 Z M 66.765625 252.765625 L 80.742188 252.765625 L 73.699219 188 L 64.507812 144.226562 L 47.878906 153.300781 L 61.484375 196.703125 Z M 66.765625 252.765625 " fill-opacity="1" fill-rule="nonzero"/><path fill="#dcb07b" d="M 101.269531 120.496094 L 100.097656 125.410156 L 71.34375 134.742188 L 47.207031 117.121094 L 58.136719 110.378906 L 73.949219 122.792969 Z M 101.269531 120.496094 " fill-opacity="1" fill-rule="nonzero"/><path fill="#ffffff" d="M 43.945312 253.078125 L 47.480469 192.605469 L 38.421875 155.519531 L 61.1875 146.699219 L 66.492188 188.628906 L 57.871094 253.078125 Z M 43.945312 253.078125 " fill-opacity="1" fill-rule="nonzero"/><path fill="#000000" d="M 57.871094 253.378906 L 43.945312 253.378906 C 43.859375 253.378906 43.785156 253.347656 43.722656 253.28125 C 43.660156 253.21875 43.632812 253.144531 43.636719 253.058594 L 47.171875 192.628906 L 38.117188 155.617188 C 38.078125 155.441406 38.140625 155.320312 38.308594 155.253906 L 61.078125 146.429688 C 61.167969 146.390625 61.253906 146.390625 61.34375 146.429688 C 61.425781 146.484375 61.476562 146.558594 61.492188 146.65625 L 66.792969 188.59375 L 66.792969 188.671875 L 58.171875 253.121094 C 58.148438 253.292969 58.046875 253.378906 57.871094 253.378906 Z M 44.238281 252.765625 L 57.601562 252.765625 L 66.222656 188.628906 L 60.929688 147.09375 L 38.78125 155.703125 L 47.773438 192.527344 C 47.777344 192.558594 47.777344 192.589844 47.773438 192.621094 Z M 44.238281 252.765625 " fill-opacity="1" fill-rule="nonzero"/><path fill="#26b1d8" d="M 84.140625 136.945312 L 52 167.046875 C 51.625 167.398438 51.195312 167.667969 50.710938 167.847656 C 50.230469 168.03125 49.730469 168.113281 49.214844 168.09375 C 48.699219 168.078125 48.207031 167.960938 47.738281 167.75 C 47.269531 167.535156 46.859375 167.242188 46.507812 166.867188 L 31.136719 150.390625 L 30.066406 149.238281 C 29.714844 148.863281 29.453125 148.4375 29.269531 147.957031 C 29.089844 147.476562 29.007812 146.980469 29.027344 146.472656 C 29.042969 145.960938 29.15625 145.46875 29.371094 145.003906 C 29.582031 144.539062 29.875 144.128906 30.246094 143.78125 L 62.40625 113.652344 C 62.78125 113.300781 63.210938 113.035156 63.691406 112.851562 C 64.171875 112.671875 64.671875 112.589844 65.1875 112.609375 C 65.699219 112.625 66.191406 112.742188 66.660156 112.957031 C 67.128906 113.167969 67.539062 113.464844 67.886719 113.839844 L 69.070312 115.105469 L 84.328125 131.460938 C 84.679688 131.835938 84.949219 132.265625 85.128906 132.746094 C 85.308594 133.230469 85.390625 133.726562 85.375 134.242188 C 85.355469 134.757812 85.242188 135.246094 85.027344 135.714844 C 84.8125 136.183594 84.515625 136.59375 84.140625 136.945312 Z M 84.140625 136.945312 " fill-opacity="1" fill-rule="nonzero"/><g clip-path="url(#7c4ea38139)"><path fill="#000000" d="M 31.136719 150.691406 C 31.046875 150.691406 30.972656 150.660156 30.910156 150.597656 L 29.84375 149.445312 C 29.65625 149.242188 29.492188 149.027344 29.347656 148.792969 C 29.203125 148.5625 29.082031 148.316406 28.988281 148.0625 C 28.890625 147.804688 28.820312 147.542969 28.777344 147.273438 C 28.730469 147.003906 28.714844 146.730469 28.722656 146.457031 C 28.734375 146.183594 28.769531 145.914062 28.832031 145.648438 C 28.894531 145.382812 28.980469 145.125 29.09375 144.875 C 29.207031 144.628906 29.34375 144.390625 29.503906 144.167969 C 29.660156 143.949219 29.839844 143.742188 30.039062 143.554688 L 62.1875 113.425781 C 63.039062 112.644531 64.042969 112.269531 65.199219 112.308594 C 66.355469 112.339844 67.328125 112.78125 68.113281 113.632812 L 69.292969 114.898438 C 69.355469 114.957031 69.382812 115.03125 69.382812 115.113281 C 69.382812 115.199219 69.355469 115.269531 69.292969 115.328125 L 31.359375 150.621094 C 31.292969 150.679688 31.21875 150.703125 31.136719 150.691406 Z M 65.050781 112.929688 C 64.109375 112.925781 63.296875 113.246094 62.613281 113.890625 L 30.445312 144.003906 C 30.101562 144.328125 29.835938 144.703125 29.640625 145.132812 C 29.449219 145.5625 29.34375 146.011719 29.328125 146.484375 C 29.3125 146.953125 29.386719 147.410156 29.550781 147.851562 C 29.71875 148.292969 29.960938 148.683594 30.28125 149.03125 L 31.144531 149.960938 L 68.636719 115.105469 L 67.664062 114.0625 C 66.996094 113.339844 66.167969 112.960938 65.179688 112.929688 Z M 65.050781 112.929688 " fill-opacity="1" fill-rule="nonzero"/></g><path fill="#ffffff" d="M 58.664062 121.011719 C 58.816406 121.171875 58.890625 121.363281 58.886719 121.585938 C 58.882812 121.808594 58.800781 121.996094 58.640625 122.152344 C 58.480469 122.304688 58.289062 122.378906 58.066406 122.375 C 57.84375 122.371094 57.652344 122.289062 57.5 122.128906 C 57.347656 121.96875 57.273438 121.78125 57.28125 121.558594 C 57.289062 121.339844 57.375 121.152344 57.535156 121.003906 C 57.699219 120.851562 57.890625 120.78125 58.109375 120.792969 C 58.332031 120.804688 58.515625 120.890625 58.664062 121.054688 Z M 60.25 118.429688 C 60.097656 118.585938 60.019531 118.769531 60.019531 118.988281 C 60.019531 119.207031 60.097656 119.390625 60.25 119.546875 C 60.40625 119.703125 60.589844 119.78125 60.808594 119.78125 C 61.03125 119.78125 61.214844 119.703125 61.371094 119.546875 C 61.527344 119.394531 61.605469 119.207031 61.605469 118.988281 C 61.605469 118.769531 61.527344 118.582031 61.371094 118.429688 C 61.214844 118.273438 61.03125 118.195312 60.808594 118.195312 C 60.589844 118.195312 60.40625 118.273438 60.25 118.429688 Z M 62.957031 115.914062 C 62.800781 116.070312 62.722656 116.253906 62.71875 116.476562 C 62.71875 116.695312 62.796875 116.882812 62.949219 117.039062 C 63.105469 117.195312 63.292969 117.273438 63.511719 117.273438 C 63.734375 117.273438 63.921875 117.195312 64.074219 117.039062 C 64.230469 116.882812 64.308594 116.695312 64.304688 116.476562 C 64.304688 116.253906 64.226562 116.070312 64.070312 115.914062 C 63.910156 115.765625 63.726562 115.691406 63.507812 115.695312 C 63.289062 115.703125 63.105469 115.785156 62.957031 115.941406 Z M 62.957031 115.914062 " fill-opacity="1" fill-rule="nonzero"/><path fill="#26b1d8" d="M 95.105469 104.214844 L 114.332031 120.503906 L 89.328125 128.730469 Z M 95.105469 104.214844 " fill-opacity="1" fill-rule="nonzero"/><path fill="#dcb07b" d="M 102.863281 125.855469 C 102.675781 126.65625 101.761719 126.847656 101.320312 126.898438 C 100.914062 127.351562 100.40625 127.585938 99.796875 127.597656 C 99.304688 128.097656 98.710938 128.308594 98.011719 128.234375 C 97.5625 128.691406 97.023438 128.867188 96.390625 128.757812 C 95.523438 128.957031 94.660156 128.933594 93.804688 128.6875 C 93.265625 128.566406 92.742188 128.398438 92.234375 128.191406 L 88.785156 129.050781 L 95.925781 125.273438 L 96.003906 123.066406 C 96.019531 122.585938 96.234375 122.222656 96.648438 121.976562 C 96.921875 121.832031 97.210938 121.792969 97.511719 121.855469 C 97.617188 121.625 97.777344 121.449219 97.992188 121.320312 C 98.390625 121.132812 98.796875 121.097656 99.21875 121.21875 C 99.378906 120.949219 99.601562 120.757812 99.890625 120.640625 C 100.21875 120.511719 100.554688 120.492188 100.898438 120.582031 C 101.1875 120.296875 101.53125 120.167969 101.933594 120.203125 C 102.28125 120.210938 102.59375 120.316406 102.878906 120.511719 C 103.164062 120.710938 103.367188 120.972656 103.496094 121.296875 C 103.726562 122.191406 103.027344 125.253906 102.863281 125.855469 Z M 102.863281 125.855469 " fill-opacity="1" fill-rule="nonzero"/><path fill="#000000" d="M 114.710938 245.992188 C 114.710938 246.289062 114.652344 246.578125 114.539062 246.855469 C 114.425781 247.132812 114.261719 247.375 114.050781 247.585938 C 113.835938 247.796875 113.59375 247.960938 113.316406 248.074219 C 113.039062 248.191406 112.75 248.246094 112.453125 248.246094 C 112.152344 248.246094 111.863281 248.191406 111.585938 248.074219 C 111.3125 247.960938 111.066406 247.796875 110.855469 247.585938 C 110.644531 247.375 110.480469 247.132812 110.363281 246.855469 C 110.25 246.578125 110.191406 246.289062 110.191406 245.992188 C 110.191406 245.691406 110.25 245.40625 110.363281 245.128906 C 110.480469 244.851562 110.644531 244.609375 110.855469 244.398438 C 111.066406 244.183594 111.3125 244.023438 111.585938 243.90625 C 111.863281 243.792969 112.152344 243.738281 112.453125 243.738281 C 112.75 243.738281 113.039062 243.792969 113.316406 243.90625 C 113.59375 244.023438 113.835938 244.183594 114.050781 244.398438 C 114.261719 244.609375 114.425781 244.851562 114.539062 245.128906 C 114.652344 245.40625 114.710938 245.691406 114.710938 245.992188 Z M 103.441406 242.34375 C 103.167969 242.34375 102.90625 242.394531 102.652344 242.5 C 102.398438 242.605469 102.175781 242.753906 101.980469 242.949219 C 101.789062 243.144531 101.640625 243.367188 101.535156 243.621094 C 101.433594 243.875 101.378906 244.136719 101.382812 244.410156 C 101.382812 244.683594 101.4375 244.949219 101.542969 245.199219 C 101.652344 245.453125 101.800781 245.675781 102 245.867188 C 102.195312 246.058594 102.417969 246.207031 102.671875 246.308594 C 102.925781 246.410156 103.191406 246.460938 103.464844 246.457031 C 103.738281 246.453125 104.003906 246.398438 104.253906 246.289062 C 104.507812 246.183594 104.730469 246.03125 104.921875 245.832031 C 105.109375 245.636719 105.257812 245.410156 105.359375 245.15625 C 105.460938 244.902344 105.507812 244.636719 105.503906 244.363281 C 105.5 244.09375 105.441406 243.835938 105.335938 243.589844 C 105.230469 243.339844 105.082031 243.121094 104.886719 242.933594 C 104.695312 242.742188 104.472656 242.597656 104.222656 242.496094 C 103.972656 242.394531 103.710938 242.34375 103.441406 242.34375 Z M 103.441406 242.34375 " fill-opacity="1" fill-rule="nonzero"/><path fill="#26b1d8" d="M 108.953125 246.601562 C 108.953125 246.601562 112.453125 244.777344 115.945312 245.878906 C 115.945312 245.878906 116.890625 250.984375 113.355469 251.363281 C 109.296875 251.792969 108.953125 246.601562 108.953125 246.601562 Z M 104.253906 249.28125 C 107.476562 248.9375 106.613281 244.296875 106.613281 244.296875 C 105.554688 243.988281 104.472656 243.890625 103.375 244.003906 C 102.273438 244.117188 101.238281 244.433594 100.261719 244.949219 C 100.261719 244.949219 100.570312 249.675781 104.253906 249.28125 Z M 104.253906 249.28125 " fill-opacity="1" fill-rule="nonzero"/><path fill="#000000" d="M 186.171875 243.738281 C 186.472656 243.738281 186.761719 243.792969 187.039062 243.90625 C 187.3125 244.023438 187.558594 244.183594 187.769531 244.398438 C 187.980469 244.609375 188.144531 244.851562 188.257812 245.128906 C 188.375 245.40625 188.429688 245.691406 188.429688 245.992188 C 188.429688 246.289062 188.375 246.578125 188.257812 246.855469 C 188.144531 247.132812 187.980469 247.375 187.769531 247.585938 C 187.558594 247.796875 187.3125 247.960938 187.039062 248.074219 C 186.761719 248.191406 186.472656 248.246094 186.171875 248.246094 C 185.875 248.246094 185.585938 248.191406 185.308594 248.074219 C 185.03125 247.960938 184.789062 247.796875 184.574219 247.585938 C 184.363281 247.375 184.199219 247.132812 184.085938 246.855469 C 183.972656 246.578125 183.914062 246.289062 183.914062 245.992188 C 183.914062 245.691406 183.972656 245.40625 184.085938 245.128906 C 184.199219 244.851562 184.363281 244.609375 184.574219 244.398438 C 184.789062 244.183594 185.03125 244.023438 185.308594 243.90625 C 185.585938 243.792969 185.875 243.738281 186.171875 243.738281 Z M 193.121094 244.398438 C 193.121094 244.671875 193.175781 244.933594 193.277344 245.1875 C 193.382812 245.4375 193.53125 245.660156 193.726562 245.855469 C 193.917969 246.046875 194.140625 246.195312 194.394531 246.300781 C 194.644531 246.40625 194.910156 246.457031 195.183594 246.457031 C 195.457031 246.457031 195.71875 246.40625 195.96875 246.300781 C 196.222656 246.195312 196.445312 246.046875 196.640625 245.855469 C 196.832031 245.660156 196.980469 245.4375 197.085938 245.1875 C 197.191406 244.933594 197.242188 244.671875 197.242188 244.398438 C 197.242188 244.125 197.191406 243.863281 197.085938 243.613281 C 196.980469 243.359375 196.832031 243.136719 196.640625 242.945312 C 196.445312 242.75 196.222656 242.601562 195.96875 242.5 C 195.71875 242.394531 195.457031 242.34375 195.183594 242.34375 C 194.910156 242.34375 194.652344 242.394531 194.402344 242.496094 C 194.152344 242.597656 193.929688 242.742188 193.738281 242.933594 C 193.542969 243.121094 193.394531 243.339844 193.289062 243.589844 C 193.183594 243.835938 193.125 244.09375 193.121094 244.363281 Z M 193.121094 244.398438 " fill-opacity="1" fill-rule="nonzero"/><path fill="#26b1d8" d="M 185.285156 251.363281 C 181.734375 250.984375 182.699219 245.878906 182.699219 245.878906 C 186.148438 244.777344 189.683594 246.601562 189.683594 246.601562 C 189.683594 246.601562 189.328125 251.792969 185.285156 251.363281 Z M 198.363281 244.949219 C 197.386719 244.433594 196.347656 244.117188 195.25 244.003906 C 194.152344 243.890625 193.070312 243.988281 192.007812 244.296875 C 192.007812 244.296875 191.148438 248.9375 194.371094 249.28125 C 198.054688 249.675781 198.363281 244.949219 198.363281 244.949219 Z M 198.363281 244.949219 " fill-opacity="1" fill-rule="nonzero"/><path fill="#26b1d8" d="M 258.179688 265.136719 L 258.117188 265.601562 L 222.382812 265.601562 L 222.332031 265.117188 C 221.710938 258.765625 224.382812 255.332031 226.527344 252.578125 C 227.390625 251.570312 228.121094 250.472656 228.71875 249.289062 C 229.859375 246.875 230.613281 244.347656 230.988281 241.707031 C 231.359375 239.066406 231.335938 236.425781 230.910156 233.792969 C 230.046875 228.214844 230.460938 220.0625 234.203125 215.441406 C 235.070312 214.347656 236.125 213.480469 237.371094 212.847656 C 238.613281 212.210938 239.9375 211.863281 241.332031 211.800781 C 244.289062 211.609375 246.582031 212.574219 248.152344 214.667969 C 251.488281 219.132812 250.503906 227.398438 249.238281 230.824219 C 248.753906 232.070312 248.507812 233.359375 248.496094 234.691406 C 248.488281 236.027344 248.71875 237.320312 249.1875 238.570312 C 250.757812 240.394531 252.136719 242.347656 253.328125 244.433594 C 254.523438 246.519531 255.503906 248.703125 256.273438 250.980469 C 257.042969 253.253906 257.589844 255.585938 257.910156 257.964844 C 258.230469 260.347656 258.320312 262.738281 258.179688 265.136719 Z M 125.03125 251.734375 C 123.933594 253.707031 123.199219 255.808594 122.828125 258.03125 C 122.453125 260.257812 122.464844 262.484375 122.859375 264.707031 L 122.925781 265.042969 L 133.359375 265.042969 L 133.359375 265.136719 L 170.515625 265.136719 L 170.558594 264.757812 C 170.816406 261.738281 170.652344 258.742188 170.066406 255.769531 C 169.445312 252.316406 168.378906 249.007812 166.871094 245.839844 C 165.363281 242.667969 163.46875 239.753906 161.179688 237.089844 C 160.679688 235.769531 160.425781 234.398438 160.425781 232.984375 C 160.425781 231.570312 160.679688 230.203125 161.179688 228.878906 C 162.457031 225.4375 163.480469 216.679688 160.058594 212.101562 C 158.445312 209.941406 156.085938 208.953125 153.042969 209.15625 C 151.597656 209.21875 150.230469 209.578125 148.945312 210.234375 C 147.65625 210.890625 146.566406 211.785156 145.667969 212.917969 C 141.78125 217.722656 141.359375 226.210938 142.222656 232.019531 C 142.808594 235.675781 142.667969 239.304688 141.789062 242.902344 C 138.859375 240.878906 138.515625 238.882812 138.074219 236.308594 C 137.945312 235.542969 137.808594 234.757812 137.601562 233.90625 C 136.472656 229.414062 131.78125 226.160156 127.753906 227.148438 C 126.691406 227.492188 125.753906 228.050781 124.945312 228.820312 C 124.136719 229.59375 123.535156 230.5 123.140625 231.546875 C 122.835938 232.261719 122.613281 233.003906 122.484375 233.773438 C 122.351562 234.539062 122.308594 235.3125 122.359375 236.089844 C 122.410156 236.867188 122.550781 237.625 122.78125 238.371094 C 123.007812 239.113281 123.324219 239.820312 123.71875 240.492188 C 126.761719 245.585938 125.183594 251.25 125.03125 251.734375 Z M 125.03125 251.734375 " fill-opacity="1" fill-rule="nonzero"/><path fill="#000000" d="M 174.230469 255.617188 C 173.605469 252.144531 172.539062 248.8125 171.023438 245.625 C 169.511719 242.4375 167.605469 239.503906 165.308594 236.824219 C 164.839844 235.542969 164.609375 234.21875 164.621094 232.855469 C 164.632812 231.488281 164.878906 230.171875 165.371094 228.894531 C 166.671875 225.394531 167.707031 216.492188 164.214844 211.816406 C 163.660156 211.0625 162.988281 210.433594 162.195312 209.933594 C 161.40625 209.433594 160.546875 209.09375 159.628906 208.917969 C 159.589844 208.90625 159.554688 208.90625 159.515625 208.917969 C 158.574219 208.746094 157.628906 208.699219 156.675781 208.777344 C 155.726562 208.859375 154.800781 209.0625 153.902344 209.390625 C 153.003906 209.71875 152.167969 210.160156 151.386719 210.710938 C 150.609375 211.261719 149.914062 211.90625 149.308594 212.644531 C 145.351562 217.535156 144.953125 226.125 145.816406 231.996094 C 146.367188 235.457031 146.265625 238.902344 145.507812 242.324219 C 143.039062 240.472656 142.730469 238.675781 142.308594 236.214844 C 142.179688 235.445312 142.039062 234.65625 141.824219 233.800781 C 140.660156 229.144531 135.789062 225.824219 131.601562 226.8125 C 130.484375 227.164062 129.5 227.742188 128.652344 228.546875 C 127.804688 229.351562 127.175781 230.296875 126.761719 231.390625 C 126.445312 232.132812 126.214844 232.898438 126.078125 233.6875 C 125.941406 234.480469 125.898438 235.28125 125.949219 236.082031 C 126 236.882812 126.148438 237.671875 126.382812 238.4375 C 126.621094 239.207031 126.945312 239.9375 127.359375 240.628906 C 130.238281 245.585938 128.738281 251.011719 128.582031 251.550781 C 127.46875 253.5625 126.722656 255.695312 126.34375 257.960938 C 125.964844 260.226562 125.976562 262.488281 126.375 264.75 L 126.453125 265.085938 C 126.484375 265.253906 126.589844 265.339844 126.761719 265.34375 L 139.644531 265.34375 C 139.691406 265.355469 139.742188 265.355469 139.789062 265.34375 C 139.835938 265.355469 139.882812 265.355469 139.929688 265.34375 L 174.351562 265.429688 C 174.542969 265.429688 174.652344 265.335938 174.671875 265.144531 L 174.722656 264.773438 C 174.980469 261.699219 174.816406 258.644531 174.230469 255.617188 Z M 154.738281 251.628906 L 168.535156 242.417969 C 169.277344 243.65625 169.953125 244.929688 170.558594 246.242188 L 155.1875 256.132812 C 155.058594 254.746094 154.894531 253.238281 154.738281 251.628906 Z M 163.6875 212.195312 C 167.042969 216.679688 166.023438 225.28125 164.765625 228.671875 C 164.25 230.035156 163.992188 231.441406 163.992188 232.898438 C 163.992188 234.355469 164.25 235.761719 164.765625 237.125 L 164.816406 237.203125 C 166.085938 238.675781 167.234375 240.234375 168.265625 241.878906 L 154.714844 250.898438 C 153.566406 238.234375 153.351562 220.046875 159.707031 209.578125 C 161.359375 209.953125 162.6875 210.828125 163.6875 212.195312 Z M 148.988281 214.238281 L 154.523438 221.527344 C 154.578125 221.597656 154.652344 221.636719 154.738281 221.640625 C 154.566406 222.550781 154.410156 223.472656 154.273438 224.410156 L 148.066406 216.277344 C 148.039062 216.234375 148 216.207031 147.953125 216.191406 C 148.25 215.511719 148.59375 214.863281 148.988281 214.238281 Z M 156.945312 209.425781 C 157.628906 209.382812 158.3125 209.40625 158.988281 209.492188 C 156.984375 213.078125 155.613281 216.886719 154.878906 220.925781 L 149.367188 213.667969 C 149.507812 213.46875 149.652344 213.253906 149.808594 213.066406 C 150.671875 211.960938 151.726562 211.089844 152.976562 210.445312 C 154.222656 209.804688 155.546875 209.449219 156.945312 209.382812 Z M 141.660156 236.265625 C 142.109375 238.847656 142.460938 240.964844 145.515625 243.066406 C 145.613281 243.121094 145.714844 243.121094 145.816406 243.066406 C 145.921875 243.023438 145.988281 242.949219 146.015625 242.839844 C 146.894531 239.203125 147.039062 235.535156 146.445312 231.839844 C 145.800781 227.425781 145.875 221.449219 147.6875 216.765625 L 153.851562 224.859375 C 153.917969 224.945312 154.003906 224.988281 154.109375 224.988281 C 154.128906 224.992188 154.148438 224.992188 154.171875 224.988281 C 152.953125 233.914062 153.308594 243.71875 154.066406 251.390625 C 154.046875 251.453125 154.046875 251.519531 154.066406 251.585938 C 154.230469 253.378906 154.421875 255.03125 154.601562 256.5625 C 154.535156 256.671875 154.535156 256.78125 154.601562 256.890625 C 155.09375 260.832031 155.574219 263.648438 155.757812 264.636719 L 140.03125 264.636719 C 139.871094 256.582031 139.027344 248.597656 137.496094 240.6875 L 137.546875 240.6875 C 138.332031 239.683594 140.601562 236.523438 140.996094 233.371094 C 141.058594 233.554688 141.117188 233.734375 141.160156 233.921875 C 141.410156 234.722656 141.539062 235.5 141.660156 236.265625 Z M 139.230469 230.195312 C 139.675781 230.710938 140.058594 231.269531 140.386719 231.867188 C 140.753906 234.914062 138.460938 238.425781 137.382812 239.878906 C 137.167969 238.914062 136.929688 237.960938 136.679688 237.03125 C 137.703125 235.507812 139.222656 232.785156 139.238281 230.195312 Z M 138.539062 229.5 C 138.832031 231.855469 137.488281 234.527344 136.445312 236.203125 C 135.382812 232.589844 134.023438 229.429688 132.261719 227.277344 C 133.425781 227.15625 134.554688 227.289062 135.65625 227.679688 C 136.757812 228.070312 137.722656 228.675781 138.546875 229.5 Z M 127.917969 240.234375 C 127.535156 239.589844 127.234375 238.90625 127.011719 238.191406 C 126.789062 237.476562 126.65625 236.742188 126.605469 235.996094 C 126.558594 235.246094 126.597656 234.503906 126.722656 233.765625 C 126.851562 233.027344 127.0625 232.3125 127.359375 231.625 C 127.722656 230.660156 128.269531 229.8125 129.003906 229.089844 C 129.742188 228.363281 130.59375 227.828125 131.566406 227.476562 C 136.738281 233.5 138.546875 249.074219 139.160156 258.171875 C 137.722656 256.511719 133.988281 252.644531 129.261719 251.457031 C 129.589844 250.027344 130.652344 244.941406 127.917969 240.234375 Z M 137.195312 264.628906 L 127.003906 264.628906 L 127.003906 264.542969 C 126.636719 262.398438 126.628906 260.257812 126.972656 258.113281 C 127.320312 255.964844 128.007812 253.933594 129.03125 252.015625 C 134.496094 253.367188 138.808594 258.6875 139.230469 259.222656 C 139.386719 261.890625 139.445312 263.855469 139.460938 264.628906 Z M 174.085938 264.628906 L 174.085938 264.722656 L 156.5 264.679688 C 156.34375 263.820312 155.835938 260.953125 155.324219 256.855469 L 170.84375 246.84375 C 172.105469 249.695312 173.007812 252.65625 173.558594 255.726562 C 174.152344 258.667969 174.328125 261.632812 174.085938 264.621094 Z M 174.085938 264.628906 " fill-opacity="1" fill-rule="nonzero"/><path fill="#000000" d="M 272.652344 230.59375 C 273.097656 230.488281 273.546875 230.476562 274 230.550781 C 274.449219 230.625 274.871094 230.785156 275.257812 231.027344 C 275.644531 231.269531 275.972656 231.578125 276.238281 231.949219 C 276.503906 232.320312 276.6875 232.730469 276.789062 233.175781 C 276.890625 233.621094 276.90625 234.066406 276.828125 234.519531 C 276.753906 234.96875 276.59375 235.386719 276.351562 235.773438 C 276.109375 236.160156 275.800781 236.488281 275.429688 236.753906 C 275.054688 237.015625 274.644531 237.199219 274.199219 237.304688 C 273.753906 237.40625 273.304688 237.417969 272.855469 237.34375 C 272.402344 237.265625 271.984375 237.105469 271.597656 236.863281 C 271.207031 236.621094 270.882812 236.3125 270.617188 235.941406 C 270.351562 235.570312 270.167969 235.160156 270.066406 234.714844 C 269.964844 234.269531 269.953125 233.824219 270.027344 233.375 C 270.105469 232.925781 270.261719 232.507812 270.507812 232.121094 C 270.75 231.734375 271.054688 231.40625 271.425781 231.144531 C 271.800781 230.878906 272.207031 230.695312 272.652344 230.59375 Z M 272.652344 230.59375 " fill-opacity="1" fill-rule="nonzero"/><path fill="#000000" d="M 275.050781 241.058594 C 274.957031 241.800781 272.324219 259.582031 262.609375 266.023438 L 262.34375 264.601562 C 264.558594 263.058594 266.351562 261.128906 267.730469 258.808594 C 266.207031 256.59375 264.847656 254.285156 263.644531 251.878906 C 262.246094 248.824219 263.644531 248.050781 264.445312 247.636719 C 265.246094 247.222656 267.644531 247.789062 268.867188 251.078125 C 269.394531 252.980469 269.394531 254.882812 268.867188 256.785156 C 271.328125 251.753906 272.949219 246.464844 273.738281 240.921875 Z M 275.050781 241.058594 " fill-opacity="1" fill-rule="nonzero"/><path fill="#000000" d="M 253.78125 238.433594 C 253.339844 237.226562 253.128906 235.980469 253.140625 234.695312 C 253.152344 233.410156 253.386719 232.167969 253.851562 230.96875 C 255.144531 227.484375 256.136719 219.082031 252.722656 214.511719 C 252.316406 213.96875 251.847656 213.492188 251.316406 213.074219 C 250.78125 212.65625 250.203125 212.316406 249.582031 212.054688 C 248.957031 211.789062 248.308594 211.613281 247.636719 211.523438 C 246.96875 211.429688 246.296875 211.429688 245.625 211.515625 C 244.183594 211.578125 242.816406 211.9375 241.53125 212.59375 C 240.246094 213.25 239.15625 214.144531 238.261719 215.277344 C 234.460938 219.976562 234.074219 228.191406 234.902344 233.878906 C 235.320312 236.476562 235.34375 239.078125 234.976562 241.683594 C 234.605469 244.289062 233.859375 246.78125 232.738281 249.160156 C 232.148438 250.316406 231.433594 251.390625 230.589844 252.378906 C 228.410156 255.183594 225.683594 258.671875 226.277344 265.152344 L 226.332031 265.625 C 226.351562 265.816406 226.457031 265.914062 226.648438 265.917969 L 262.386719 265.917969 C 262.578125 265.921875 262.683594 265.824219 262.703125 265.636719 L 262.765625 265.171875 C 262.910156 262.757812 262.828125 260.355469 262.511719 257.960938 C 262.191406 255.5625 261.648438 253.21875 260.878906 250.929688 C 260.109375 248.636719 259.128906 246.441406 257.933594 244.339844 C 256.738281 242.238281 255.355469 240.269531 253.78125 238.433594 Z M 244.1875 253.832031 L 255.636719 241.929688 C 256.253906 242.789062 256.816406 243.710938 257.359375 244.605469 L 244.554688 257.15625 C 244.425781 256.132812 244.289062 255.039062 244.152344 253.886719 C 244.164062 253.871094 244.175781 253.851562 244.1875 253.832031 Z M 252.203125 214.925781 C 255.472656 219.289062 254.496094 227.398438 253.246094 230.773438 C 252.742188 232.054688 252.488281 233.382812 252.480469 234.757812 C 252.472656 236.132812 252.714844 237.464844 253.203125 238.753906 L 253.253906 238.839844 C 253.980469 239.699219 254.644531 240.558594 255.253906 241.421875 L 244.046875 253.101562 C 243.097656 244.8125 242.253906 233.664062 243.074219 224.386719 C 243.082031 224.355469 243.082031 224.328125 243.074219 224.300781 C 243.503906 219.566406 244.367188 215.328125 245.867188 212.25 C 246.464844 212.179688 247.0625 212.1875 247.65625 212.269531 C 248.253906 212.355469 248.828125 212.511719 249.382812 212.746094 C 249.9375 212.976562 250.453125 213.277344 250.933594 213.640625 C 251.410156 214.007812 251.832031 214.425781 252.203125 214.898438 Z M 236.832031 219.089844 L 242.375 224.394531 C 242.289062 225.375 242.21875 226.417969 242.167969 227.476562 L 236.238281 221.554688 C 236.183594 221.503906 236.121094 221.480469 236.046875 221.476562 C 236.253906 220.65625 236.515625 219.851562 236.832031 219.066406 Z M 238.773438 215.707031 C 239.550781 214.730469 240.492188 213.941406 241.59375 213.34375 C 242.695312 212.746094 243.871094 212.386719 245.117188 212.265625 C 243.613281 215.898438 242.730469 219.671875 242.460938 223.59375 L 237.195312 218.539062 C 237.195312 218.539062 237.117188 218.539062 237.082031 218.488281 C 237.523438 217.480469 238.085938 216.542969 238.773438 215.683594 Z M 227.011719 265.09375 C 226.398438 258.859375 229.03125 255.488281 231.140625 252.773438 C 232.023438 251.75 232.765625 250.628906 233.367188 249.417969 C 234.515625 246.984375 235.28125 244.433594 235.65625 241.769531 C 236.035156 239.105469 236.011719 236.441406 235.582031 233.785156 C 235 229.863281 235.117188 225.964844 235.933594 222.085938 L 242.167969 228.320312 C 242.003906 233.527344 242.128906 238.730469 242.539062 243.925781 C 243.402344 255.324219 245.125 265.074219 245.125 265.171875 C 245.125 265.265625 245.167969 265.238281 245.1875 265.273438 L 227.011719 265.273438 Z M 262.214844 265.09375 L 262.214844 265.273438 L 245.667969 265.273438 C 245.714844 265.207031 245.730469 265.136719 245.710938 265.058594 C 245.710938 264.957031 245.203125 262.191406 244.632812 257.914062 L 257.625 245.183594 C 259.308594 248.21875 260.539062 251.429688 261.3125 254.816406 C 262.082031 258.203125 262.371094 261.628906 262.167969 265.09375 Z M 262.214844 265.09375 " fill-opacity="1" fill-rule="nonzero"/><path fill="#ffffff" d="M 129.046875 136.496094 L 139.394531 136.496094 L 139.394531 146.828125 L 129.046875 146.828125 Z M 129.046875 136.496094 " fill-opacity="1" fill-rule="nonzero"/><path fill="#000000" d="M 139.402344 147.09375 L 129.054688 147.09375 C 128.972656 147.09375 128.898438 147.0625 128.839844 147.003906 C 128.78125 146.945312 128.75 146.875 128.746094 146.792969 L 128.746094 136.460938 C 128.746094 136.378906 128.777344 136.304688 128.835938 136.246094 C 128.898438 136.1875 128.972656 136.160156 129.054688 136.160156 L 139.402344 136.160156 C 139.484375 136.160156 139.554688 136.191406 139.617188 136.25 C 139.675781 136.308594 139.703125 136.378906 139.703125 136.460938 L 139.703125 146.792969 C 139.703125 146.875 139.675781 146.945312 139.617188 147.003906 C 139.554688 147.0625 139.484375 147.09375 139.402344 147.09375 Z M 129.359375 146.492188 L 139.074219 146.492188 L 139.074219 136.765625 L 129.359375 136.765625 Z M 129.359375 146.492188 " fill-opacity="1" fill-rule="nonzero"/><path fill="#ffffff" d="M 236.839844 165.222656 L 229.675781 165.222656 L 233.253906 159.023438 L 236.839844 152.835938 L 240.417969 159.023438 L 244.003906 165.222656 Z M 236.839844 165.222656 " fill-opacity="1" fill-rule="nonzero"/><path fill="#000000" d="M 244.003906 165.53125 L 229.675781 165.53125 C 229.554688 165.535156 229.46875 165.480469 229.410156 165.378906 C 229.351562 165.273438 229.351562 165.171875 229.410156 165.066406 L 236.574219 152.679688 C 236.601562 152.636719 236.640625 152.597656 236.6875 152.574219 C 236.734375 152.546875 236.78125 152.535156 236.835938 152.535156 C 236.890625 152.535156 236.941406 152.546875 236.988281 152.574219 C 237.03125 152.597656 237.070312 152.636719 237.097656 152.679688 L 244.253906 165.066406 C 244.308594 165.171875 244.308594 165.273438 244.253906 165.378906 C 244.199219 165.472656 244.113281 165.523438 244.003906 165.53125 Z M 230.210938 164.921875 L 243.480469 164.921875 L 236.847656 153.445312 Z M 230.210938 164.921875 " fill-opacity="1" fill-rule="nonzero"/><path fill="#26b1d8" d="M 156.117188 174.792969 L 148.464844 167.148438 L 156.117188 159.507812 L 163.773438 167.148438 Z M 243.96875 132.871094 L 236.316406 125.230469 L 228.660156 132.871094 L 236.316406 140.515625 Z M 213.648438 181.320312 L 206.75 169.40625 L 203.304688 175.363281 L 199.855469 181.320312 Z M 213.648438 181.320312 " fill-opacity="1" fill-rule="nonzero"/><path fill="#000000" d="M 270.980469 214.855469 L 116.746094 214.855469 C 116.121094 214.851562 115.503906 214.789062 114.894531 214.664062 C 114.28125 214.539062 113.6875 214.355469 113.113281 214.113281 C 112.539062 213.875 111.992188 213.578125 111.476562 213.230469 C 110.957031 212.882812 110.480469 212.488281 110.039062 212.046875 C 109.597656 211.605469 109.207031 211.125 108.859375 210.605469 C 108.515625 210.089844 108.222656 209.542969 107.984375 208.964844 C 107.746094 208.390625 107.566406 207.796875 107.445312 207.1875 C 107.324219 206.574219 107.261719 205.957031 107.261719 205.335938 L 107.261719 102.746094 C 107.265625 102.125 107.328125 101.507812 107.453125 100.902344 C 107.578125 100.292969 107.761719 99.703125 108 99.128906 C 108.238281 98.558594 108.53125 98.011719 108.878906 97.5 C 109.222656 96.984375 109.617188 96.503906 110.058594 96.066406 C 110.496094 95.628906 110.972656 95.234375 111.492188 94.890625 C 112.007812 94.542969 112.550781 94.25 113.125 94.011719 C 113.699219 93.773438 114.289062 93.589844 114.898438 93.46875 C 115.507812 93.34375 116.125 93.28125 116.746094 93.277344 L 270.980469 93.277344 C 271.605469 93.277344 272.222656 93.335938 272.835938 93.457031 C 273.445312 93.582031 274.039062 93.761719 274.617188 93.996094 C 275.191406 94.234375 275.742188 94.527344 276.261719 94.871094 C 276.78125 95.21875 277.261719 95.609375 277.703125 96.046875 C 278.144531 96.488281 278.539062 96.964844 278.886719 97.480469 C 279.238281 98 279.53125 98.542969 279.773438 99.117188 C 280.015625 99.691406 280.199219 100.285156 280.324219 100.894531 C 280.449219 101.503906 280.511719 102.121094 280.515625 102.746094 L 280.515625 205.335938 C 280.515625 205.960938 280.453125 206.578125 280.332031 207.191406 C 280.207031 207.804688 280.027344 208.402344 279.789062 208.976562 C 279.546875 209.554688 279.253906 210.101562 278.90625 210.625 C 278.558594 211.144531 278.164062 211.625 277.722656 212.066406 C 277.277344 212.507812 276.796875 212.902344 276.277344 213.25 C 275.757812 213.597656 275.207031 213.890625 274.628906 214.128906 C 274.050781 214.367188 273.453125 214.550781 272.839844 214.671875 C 272.226562 214.792969 271.605469 214.855469 270.980469 214.855469 Z M 116.746094 93.84375 C 116.160156 93.84375 115.582031 93.902344 115.007812 94.015625 C 114.433594 94.128906 113.875 94.300781 113.335938 94.523438 C 112.792969 94.746094 112.28125 95.023438 111.792969 95.347656 C 111.308594 95.671875 110.859375 96.039062 110.445312 96.453125 C 110.03125 96.867188 109.660156 97.316406 109.335938 97.800781 C 109.011719 98.289062 108.734375 98.800781 108.511719 99.339844 C 108.289062 99.878906 108.117188 100.4375 108.003906 101.007812 C 107.890625 101.582031 107.832031 102.160156 107.832031 102.746094 L 107.832031 205.335938 C 107.832031 205.917969 107.890625 206.5 108.003906 207.070312 C 108.121094 207.644531 108.289062 208.199219 108.515625 208.738281 C 108.738281 209.277344 109.011719 209.792969 109.339844 210.277344 C 109.664062 210.761719 110.03125 211.210938 110.445312 211.625 C 110.859375 212.039062 111.308594 212.40625 111.796875 212.730469 C 112.28125 213.054688 112.796875 213.332031 113.335938 213.554688 C 113.875 213.777344 114.433594 213.949219 115.007812 214.0625 C 115.582031 214.175781 116.160156 214.234375 116.746094 214.238281 L 270.980469 214.238281 C 271.566406 214.234375 272.148438 214.179688 272.722656 214.0625 C 273.296875 213.949219 273.851562 213.78125 274.394531 213.554688 C 274.933594 213.332031 275.449219 213.058594 275.9375 212.730469 C 276.421875 212.40625 276.875 212.039062 277.289062 211.625 C 277.703125 211.210938 278.070312 210.761719 278.398438 210.273438 C 278.722656 209.789062 278.996094 209.277344 279.222656 208.734375 C 279.445312 208.195312 279.617188 207.636719 279.730469 207.066406 C 279.847656 206.492188 279.902344 205.910156 279.902344 205.328125 L 279.902344 102.746094 C 279.902344 102.160156 279.84375 101.582031 279.730469 101.007812 C 279.613281 100.433594 279.445312 99.878906 279.21875 99.339844 C 278.996094 98.800781 278.71875 98.285156 278.394531 97.800781 C 278.070312 97.316406 277.699219 96.867188 277.285156 96.453125 C 276.871094 96.039062 276.421875 95.671875 275.933594 95.347656 C 275.445312 95.023438 274.933594 94.746094 274.390625 94.523438 C 273.851562 94.300781 273.292969 94.128906 272.71875 94.015625 C 272.144531 93.902344 271.566406 93.84375 270.980469 93.84375 Z M 116.746094 93.84375 " fill-opacity="1" fill-rule="nonzero"/><path fill="#000000" d="M 174.613281 71.539062 C 174.613281 71.539062 168.128906 64.585938 177.527344 58.628906 C 177.527344 58.628906 175.421875 51.34375 182.058594 50.878906 C 188.699219 50.414062 185.949219 58.316406 185.949219 58.316406 C 185.949219 58.316406 190 61.390625 190.164062 65.929688 L 186.277344 74.785156 Z M 174.613281 71.539062 " fill-opacity="1" fill-rule="nonzero"/><path fill="#26b1d8" d="M 192.085938 71.652344 C 192.085938 71.652344 201.871094 71.496094 206.046875 72.453125 C 210.21875 73.410156 218.511719 82.703125 218.511719 82.703125 L 210.691406 86.554688 L 211.175781 88.789062 L 198.183594 91.375 C 196.125 90.503906 193.988281 90.183594 191.769531 90.410156 C 190.703125 90.445312 189.703125 90.714844 188.761719 91.21875 C 187.824219 91.722656 187.046875 92.40625 186.429688 93.277344 L 176.492188 93.277344 L 171.242188 99.058594 L 161.757812 91.054688 C 161.757812 91.054688 169.457031 80.320312 170.894531 77.917969 C 172.335938 75.515625 176.671875 74.070312 176.671875 74.070312 Z M 192.085938 71.652344 " fill-opacity="1" fill-rule="nonzero"/><path fill="#ffffff" d="M 171.316406 98.886719 C 170.933594 99.183594 170.605469 99.527344 170.332031 99.929688 C 170.0625 100.328125 169.859375 100.761719 169.730469 101.230469 C 169.597656 101.695312 169.546875 102.167969 169.570312 102.652344 C 169.59375 103.136719 169.695312 103.601562 169.871094 104.054688 C 171 107.410156 177.25 125.1875 177.414062 125.988281 C 178.214844 126.46875 184.3125 130.636719 183.027344 131.433594 C 181.742188 132.234375 177.09375 129.1875 177.09375 129.1875 C 177.09375 129.1875 178.050781 130.316406 179.820312 132.71875 C 181.585938 135.121094 183.664062 138.160156 182.40625 138.484375 C 181.148438 138.8125 179.515625 137.039062 177.914062 136.765625 C 176.308594 136.488281 174.707031 135.964844 173.421875 133.078125 C 172.488281 130.691406 171.792969 128.234375 171.335938 125.710938 C 171.335938 125.710938 158.824219 102.46875 159.464844 99.765625 C 160.101562 97.0625 163.472656 92.398438 163.472656 92.398438 Z M 171.316406 98.886719 " fill-opacity="1" fill-rule="nonzero"/><path fill="#000000" d="M 182.050781 138.804688 C 181.21875 138.695312 180.460938 138.394531 179.785156 137.898438 C 179.175781 137.511719 178.523438 137.226562 177.828125 137.039062 C 176.101562 136.695312 174.421875 136.179688 173.101562 133.164062 C 172.15625 130.773438 171.460938 128.3125 171.007812 125.78125 C 169.601562 123.199219 158.480469 102.398438 159.128906 99.652344 C 159.773438 96.910156 163.050781 92.355469 163.1875 92.164062 C 163.246094 92.085938 163.324219 92.042969 163.421875 92.035156 C 163.515625 92.019531 163.597656 92.039062 163.671875 92.105469 L 171.523438 98.671875 C 171.605469 98.742188 171.644531 98.832031 171.644531 98.941406 C 171.640625 99.042969 171.59375 99.128906 171.507812 99.1875 C 171.152344 99.460938 170.851562 99.78125 170.601562 100.148438 C 170.351562 100.519531 170.167969 100.917969 170.046875 101.347656 C 169.929688 101.777344 169.878906 102.214844 169.90625 102.660156 C 169.929688 103.105469 170.023438 103.535156 170.1875 103.949219 C 170.609375 105.230469 171.828125 108.726562 173.113281 112.421875 C 175.59375 119.554688 177.421875 124.773438 177.699219 125.78125 C 178.558594 126.320312 183.515625 129.636719 183.535156 131.117188 C 183.535156 131.378906 183.421875 131.578125 183.199219 131.710938 C 182.25 132.304688 180.058594 131.296875 178.5 130.429688 C 178.921875 130.96875 179.457031 131.667969 180.085938 132.519531 C 182.515625 135.84375 183.355469 137.460938 183.050781 138.289062 C 182.953125 138.566406 182.757812 138.734375 182.464844 138.796875 C 182.328125 138.816406 182.191406 138.816406 182.050781 138.804688 Z M 163.515625 92.792969 C 162.78125 93.84375 160.300781 97.511719 159.765625 99.757812 C 159.316406 101.667969 166.601562 116.183594 171.601562 125.46875 C 171.609375 125.503906 171.609375 125.539062 171.601562 125.574219 C 172.054688 128.070312 172.742188 130.5 173.664062 132.863281 C 174.863281 135.542969 176.300781 136.03125 177.921875 136.359375 C 178.695312 136.5625 179.414062 136.886719 180.078125 137.332031 C 180.941406 137.8125 181.679688 138.269531 182.265625 138.125 C 182.371094 138.125 182.386719 138.054688 182.398438 138.019531 C 182.59375 137.476562 181.628906 135.738281 179.515625 132.855469 C 177.792969 130.496094 176.820312 129.414062 176.808594 129.351562 C 176.742188 129.292969 176.707031 129.21875 176.703125 129.132812 C 176.695312 129.042969 176.722656 128.96875 176.78125 128.898438 C 176.839844 128.832031 176.910156 128.796875 177 128.792969 C 177.089844 128.785156 177.164062 128.8125 177.234375 128.871094 C 179.09375 130.082031 182.058594 131.574219 182.820312 131.109375 C 183.09375 130.453125 178.921875 127.242188 177.207031 126.21875 C 177.125 126.167969 177.074219 126.097656 177.050781 126.003906 C 176.964844 125.53125 174.464844 118.351562 172.457031 112.582031 C 171.171875 108.882812 169.957031 105.394531 169.523438 104.105469 C 169.359375 103.65625 169.261719 103.191406 169.238281 102.714844 C 169.210938 102.238281 169.253906 101.765625 169.367188 101.300781 C 169.484375 100.835938 169.664062 100.398438 169.910156 99.988281 C 170.152344 99.574219 170.453125 99.210938 170.808594 98.886719 Z M 163.515625 92.792969 " fill-opacity="1" fill-rule="nonzero"/><path fill="#ffffff" d="M 174.765625 71.34375 C 174.765625 71.34375 179.894531 71.023438 180.863281 65.902344 C 180.863281 65.902344 185.355469 69.90625 186.3125 69.585938 C 187.269531 69.269531 186.3125 63.972656 188.714844 64.621094 C 191.121094 65.265625 190.648438 70.058594 190.648438 70.058594 L 194.8125 73.925781 C 194.675781 74.609375 194.433594 75.253906 194.089844 75.859375 C 193.742188 76.464844 193.3125 77.003906 192.789062 77.46875 C 192.269531 77.933594 191.691406 78.304688 191.050781 78.582031 C 190.410156 78.859375 189.738281 79.027344 189.042969 79.089844 L 187.441406 76.507812 C 187.441406 76.507812 186.492188 79.949219 182.949219 79.503906 C 179.40625 79.054688 174.765625 71.34375 174.765625 71.34375 Z M 174.765625 71.34375 " fill-opacity="1" fill-rule="nonzero"/><path fill="#000000" d="M 183.59375 79.871094 C 183.363281 79.886719 183.136719 79.886719 182.90625 79.871094 C 179.257812 79.375 174.679688 71.867188 174.480469 71.550781 C 174.421875 71.441406 174.421875 71.335938 174.480469 71.230469 C 174.539062 71.121094 174.625 71.058594 174.75 71.050781 C 175.449219 71 176.125 70.835938 176.769531 70.5625 C 177.417969 70.289062 178.003906 69.917969 178.527344 69.453125 C 179.050781 68.984375 179.484375 68.445312 179.832031 67.835938 C 180.175781 67.222656 180.414062 66.574219 180.542969 65.882812 C 180.554688 65.828125 180.582031 65.777344 180.621094 65.730469 C 180.660156 65.6875 180.707031 65.65625 180.761719 65.636719 C 180.816406 65.617188 180.875 65.613281 180.929688 65.625 C 180.988281 65.632812 181.039062 65.65625 181.085938 65.695312 C 183.164062 67.546875 185.707031 69.429688 186.214844 69.3125 C 186.429688 68.785156 186.542969 68.242188 186.550781 67.675781 C 186.679688 66.445312 186.828125 65.042969 187.613281 64.5 C 187.988281 64.257812 188.386719 64.207031 188.8125 64.34375 C 191.214844 64.980469 191.0625 69.078125 190.992188 69.972656 L 195.042969 73.710938 C 195.09375 73.773438 195.117188 73.84375 195.113281 73.925781 C 194.964844 74.636719 194.707031 75.308594 194.34375 75.9375 C 193.980469 76.570312 193.527344 77.125 192.984375 77.613281 C 192.441406 78.097656 191.835938 78.488281 191.167969 78.777344 C 190.5 79.070312 189.804688 79.253906 189.078125 79.320312 C 188.941406 79.335938 188.835938 79.285156 188.769531 79.167969 L 187.507812 77.160156 C 187.351562 77.554688 187.140625 77.917969 186.878906 78.246094 C 186.613281 78.578125 186.308594 78.863281 185.960938 79.105469 C 185.613281 79.347656 185.238281 79.53125 184.835938 79.664062 C 184.433594 79.792969 184.019531 79.863281 183.59375 79.871094 Z M 175.285156 71.59375 C 176.308594 73.183594 180.09375 78.789062 182.964844 79.175781 C 186.15625 79.613281 187.0625 76.507812 187.09375 76.371094 C 187.132812 76.230469 187.222656 76.152344 187.363281 76.132812 C 187.507812 76.109375 187.613281 76.160156 187.691406 76.285156 L 189.183594 78.675781 C 189.808594 78.609375 190.410156 78.449219 190.988281 78.195312 C 191.5625 77.941406 192.085938 77.605469 192.558594 77.183594 C 193.027344 76.765625 193.421875 76.285156 193.742188 75.746094 C 194.0625 75.203125 194.292969 74.625 194.433594 74.011719 L 190.398438 70.292969 C 190.316406 70.21875 190.285156 70.132812 190.292969 70.023438 C 190.292969 69.972656 190.714844 65.488281 188.613281 64.929688 C 188.382812 64.84375 188.160156 64.863281 187.949219 64.988281 C 187.414062 65.359375 187.277344 66.652344 187.164062 67.691406 C 187.050781 68.734375 186.957031 69.699219 186.386719 69.886719 C 185.457031 70.207031 182.585938 67.863281 181.035156 66.503906 C 180.855469 67.160156 180.582031 67.777344 180.222656 68.355469 C 179.863281 68.933594 179.425781 69.449219 178.917969 69.902344 C 178.40625 70.351562 177.839844 70.722656 177.222656 71.011719 C 176.605469 71.296875 175.957031 71.492188 175.285156 71.59375 Z M 175.285156 71.59375 " fill-opacity="1" fill-rule="nonzero"/><path fill="#ffffff" d="M 184.871094 93.5 C 186.867188 91.796875 189.167969 90.761719 191.769531 90.390625 C 196.078125 89.753906 198.183594 91.355469 198.183594 91.355469 L 211.175781 88.773438 L 210.691406 86.535156 L 217.105469 81.570312 C 217.105469 81.570312 224.003906 87.808594 225.289062 89.574219 C 225.574219 89.933594 225.738281 90.34375 225.789062 90.804688 C 225.835938 91.261719 225.753906 91.695312 225.550781 92.109375 C 225.34375 92.519531 225.042969 92.84375 224.648438 93.082031 C 224.253906 93.320312 223.824219 93.433594 223.367188 93.421875 Z M 184.871094 93.5 " fill-opacity="1" fill-rule="nonzero"/><path fill="#000000" d="M 184.871094 93.828125 C 184.722656 93.828125 184.617188 93.757812 184.5625 93.621094 C 184.507812 93.480469 184.535156 93.359375 184.648438 93.257812 C 186.6875 91.5 189.046875 90.4375 191.714844 90.074219 C 195.585938 89.496094 197.75 90.660156 198.25 91.003906 L 210.785156 88.558594 L 210.371094 86.648438 C 210.339844 86.511719 210.382812 86.402344 210.492188 86.320312 L 216.90625 81.351562 C 217.046875 81.230469 217.191406 81.230469 217.332031 81.351562 C 217.613281 81.601562 224.226562 87.636719 225.554688 89.410156 C 225.875 89.820312 226.0625 90.285156 226.113281 90.800781 C 226.167969 91.320312 226.078125 91.8125 225.847656 92.277344 C 225.609375 92.742188 225.265625 93.109375 224.820312 93.378906 C 224.371094 93.648438 223.886719 93.78125 223.363281 93.773438 L 184.871094 93.835938 Z M 193.734375 90.574219 C 193.089844 90.574219 192.449219 90.621094 191.8125 90.71875 C 189.597656 91.039062 187.585938 91.855469 185.777344 93.164062 L 223.339844 93.113281 C 223.742188 93.128906 224.121094 93.039062 224.472656 92.839844 C 224.824219 92.636719 225.097656 92.359375 225.289062 92 C 225.464844 91.644531 225.53125 91.265625 225.488281 90.871094 C 225.445312 90.472656 225.300781 90.121094 225.054688 89.804688 C 223.925781 88.265625 218.269531 83.082031 217.125 82.058594 L 211.089844 86.726562 L 211.527344 88.765625 C 211.546875 88.855469 211.53125 88.9375 211.484375 89.015625 C 211.433594 89.089844 211.367188 89.132812 211.277344 89.152344 L 198.277344 91.734375 C 198.183594 91.753906 198.09375 91.734375 198.019531 91.675781 C 196.703125 90.871094 195.273438 90.503906 193.734375 90.574219 Z M 193.734375 90.574219 " fill-opacity="1" fill-rule="nonzero"/><path fill="#ffffff" d="M 171.316406 98.878906 L 178.457031 91.175781 " fill-opacity="1" fill-rule="nonzero"/><path fill="#000000" d="M 171.316406 99.207031 C 171.234375 99.203125 171.160156 99.175781 171.09375 99.121094 C 171.03125 99.058594 171 98.980469 171 98.890625 C 171 98.804688 171.03125 98.726562 171.09375 98.664062 L 178.234375 90.917969 C 178.296875 90.859375 178.375 90.828125 178.460938 90.828125 C 178.550781 90.828125 178.625 90.859375 178.691406 90.917969 C 178.75 90.980469 178.78125 91.054688 178.78125 91.144531 C 178.78125 91.234375 178.75 91.308594 178.691406 91.375 L 171.550781 99.121094 C 171.484375 99.183594 171.410156 99.210938 171.316406 99.207031 Z M 171.316406 99.207031 " fill-opacity="1" fill-rule="nonzero"/><path fill="#ffffff" d="M 39.34375 151.234375 C 39.253906 151.234375 39.179688 151.203125 39.117188 151.140625 C 39.054688 151.082031 39.023438 151.007812 39.023438 150.925781 C 39.023438 150.839844 39.054688 150.765625 39.117188 150.707031 L 69.929688 122.398438 C 69.988281 122.332031 70.0625 122.300781 70.148438 122.300781 C 70.234375 122.300781 70.304688 122.332031 70.363281 122.398438 C 70.421875 122.457031 70.449219 122.527344 70.449219 122.613281 C 70.449219 122.695312 70.421875 122.765625 70.363281 122.828125 L 39.550781 151.15625 C 39.488281 151.207031 39.421875 151.234375 39.34375 151.234375 Z M 42.066406 154.082031 L 72.863281 125.769531 C 72.921875 125.710938 72.949219 125.640625 72.949219 125.554688 C 72.949219 125.472656 72.921875 125.402344 72.863281 125.339844 C 72.804688 125.277344 72.734375 125.246094 72.648438 125.246094 C 72.5625 125.246094 72.488281 125.277344 72.429688 125.339844 L 41.652344 153.628906 C 41.59375 153.6875 41.5625 153.761719 41.5625 153.847656 C 41.5625 153.933594 41.59375 154.003906 41.652344 154.066406 C 41.71875 154.128906 41.796875 154.160156 41.886719 154.160156 C 41.953125 154.152344 42.015625 154.128906 42.066406 154.082031 Z M 44.585938 156.847656 L 75.378906 128.535156 C 75.441406 128.476562 75.472656 128.40625 75.472656 128.320312 C 75.472656 128.234375 75.441406 128.160156 75.378906 128.105469 C 75.320312 128.042969 75.25 128.011719 75.164062 128.011719 C 75.078125 128.011719 75.007812 128.042969 74.949219 128.105469 L 44.171875 156.398438 C 44.109375 156.457031 44.078125 156.527344 44.078125 156.613281 C 44.078125 156.699219 44.109375 156.769531 44.171875 156.828125 C 44.230469 156.890625 44.308594 156.925781 44.394531 156.925781 C 44.464844 156.917969 44.53125 156.894531 44.585938 156.847656 Z M 47.171875 159.886719 L 77.949219 131.597656 C 78.011719 131.542969 78.042969 131.472656 78.046875 131.386719 C 78.050781 131.304688 78.023438 131.230469 77.964844 131.167969 C 77.910156 131.105469 77.839844 131.074219 77.753906 131.070312 C 77.671875 131.066406 77.597656 131.09375 77.535156 131.152344 L 46.738281 159.4375 C 46.675781 159.496094 46.644531 159.566406 46.644531 159.652344 C 46.644531 159.738281 46.675781 159.808594 46.738281 159.867188 C 46.796875 159.9375 46.875 159.972656 46.964844 159.972656 C 47.039062 159.964844 47.101562 159.9375 47.152344 159.886719 Z M 47.171875 159.886719 " fill-opacity="1" fill-rule="nonzero"/><path fill="#dcb07b" d="M 56.800781 99.894531 C 56.59375 100.769531 56.191406 101.539062 55.589844 102.207031 C 54.988281 102.871094 54.261719 103.351562 53.414062 103.648438 L 55.136719 111.84375 L 44 113.203125 L 43.378906 104.277344 C 42.34375 103.691406 38.203125 101.09375 38.800781 97.511719 C 39.488281 93.386719 41.480469 90.28125 49.636719 86.613281 L 49.914062 86.492188 L 50.128906 86.707031 C 50.429688 87.027344 57.914062 94.585938 56.800781 99.894531 Z M 56.800781 99.894531 " fill-opacity="1" fill-rule="nonzero"/><path fill="#000000" d="M 43.78125 99.859375 C 43.78125 99.859375 44.878906 102.625 43.421875 104.484375 C 43.421875 104.484375 29.679688 100.480469 36.316406 90.332031 C 36.316406 90.332031 41.707031 80.390625 47.722656 81.84375 C 53.742188 83.300781 56.050781 88.5 52.859375 90.554688 C 49.671875 92.613281 44.445312 95.515625 44.445312 95.515625 L 45.480469 97.796875 L 44.859375 98.414062 C 44.859375 98.414062 41.75 96.546875 41.335938 97.796875 C 40.921875 99.042969 41.707031 100.894531 43.78125 99.859375 Z M 43.78125 99.859375 " fill-opacity="1" fill-rule="nonzero"/><path fill="#dcb07b" d="M 72.371094 147.308594 C 72.738281 147.886719 73.027344 148.503906 73.234375 149.160156 C 73.390625 149.617188 73.335938 150.050781 73.078125 150.460938 C 72.75 150.871094 72.332031 151.132812 71.820312 151.25 C 71.769531 151.59375 71.613281 151.882812 71.355469 152.113281 C 71.03125 152.375 70.664062 152.519531 70.25 152.542969 C 70.222656 152.917969 70.070312 153.238281 69.792969 153.496094 C 69.324219 153.871094 68.789062 154.03125 68.191406 153.980469 C 68.128906 154.285156 67.972656 154.53125 67.722656 154.71875 C 67.46875 154.910156 67.179688 155 66.863281 154.996094 C 66.691406 154.996094 66.519531 154.976562 66.355469 154.933594 C 64.734375 154.6875 62.628906 150.699219 61.964844 149.367188 L 55.585938 149.769531 L 55.585938 141.800781 L 64.929688 143.023438 C 65.746094 142.546875 66.617188 142.222656 67.546875 142.054688 C 68.476562 141.890625 69.40625 141.886719 70.335938 142.050781 L 70.449219 142.050781 C 72.191406 143.238281 73.511719 144.785156 74.414062 146.6875 L 74.59375 147.085938 L 74.207031 147.273438 C 73.601562 147.535156 72.988281 147.546875 72.371094 147.308594 Z M 72.371094 147.308594 " fill-opacity="1" fill-rule="nonzero"/><path fill="#000000" d="M 46.558594 138.175781 L 61.742188 141.929688 L 61.742188 152.957031 L 38.945312 148.582031 C 38.378906 148.472656 37.84375 148.28125 37.339844 148 C 36.835938 147.714844 36.390625 147.363281 36.003906 146.9375 C 35.613281 146.511719 35.300781 146.035156 35.070312 145.507812 C 34.835938 144.980469 34.691406 144.429688 34.636719 143.855469 L 32.375 119.039062 C 32.324219 118.449219 32.425781 117.882812 32.683594 117.347656 C 32.941406 116.8125 33.320312 116.378906 33.816406 116.050781 L 43.914062 109.320312 L 44.144531 109.441406 C 47.328125 111.070312 49.851562 111.464844 51.644531 110.605469 C 52.207031 110.3125 52.683594 109.921875 53.078125 109.425781 C 53.46875 108.929688 53.742188 108.375 53.894531 107.761719 L 53.980469 107.351562 L 54.40625 107.410156 C 60.621094 108.425781 63.121094 112.660156 63.207031 112.816406 L 63.386719 113.117188 L 45.542969 129.800781 Z M 46.558594 138.175781 " fill-opacity="1" fill-rule="nonzero"/><path fill="#26b1d8" d="M 325.347656 110.078125 C 326.117188 110.648438 326.695312 111.375 327.085938 112.25 C 327.472656 113.125 327.621094 114.039062 327.527344 114.992188 C 327.527344 114.992188 327.527344 115.941406 326.449219 115.457031 C 325.371094 114.976562 324.484375 111.40625 324.578125 110.628906 C 324.675781 109.855469 325.070312 110.011719 325.347656 110.078125 Z M 325.347656 110.078125 " fill-opacity="1" fill-rule="nonzero"/><path fill="#a66735" d="M 297.164062 185.355469 C 296.851562 186.140625 296.46875 186.890625 296.015625 187.601562 C 295.25 188.808594 291.964844 192.269531 290.84375 192.585938 C 289.722656 192.90625 289.4375 193.328125 288.515625 193.34375 C 287.59375 193.363281 287.972656 192.699219 287.972656 192.699219 C 287.972656 192.699219 286.636719 193.6875 286.207031 193.222656 C 285.773438 192.757812 286.863281 191.933594 286.863281 191.933594 C 286.59375 192.105469 286.308594 192.152344 286 192.070312 C 285.535156 191.898438 285.671875 191.484375 286.863281 190.5625 C 287.8125 189.832031 288.710938 189.042969 289.558594 188.195312 C 290.621094 187.199219 290.75 186.390625 289.90625 186.714844 C 289.058594 187.042969 286.894531 187.679688 286.949219 187.277344 C 287 186.871094 289.535156 185.65625 290.535156 184.882812 C 291.515625 184.269531 292.5625 183.804688 293.671875 183.488281 Z M 297.164062 185.355469 " fill-opacity="1" fill-rule="nonzero"/><path fill="#a66735" d="M 302.09375 182.023438 C 301.910156 181.285156 301.960938 180.558594 302.242188 179.847656 C 302.707031 178.832031 304.914062 181.871094 304.914062 181.871094 L 305.5 184.402344 Z M 302.09375 182.023438 " fill-opacity="1" fill-rule="nonzero"/><path fill="#ffffff" d="M 358.003906 243.074219 L 343.582031 252.914062 C 343.582031 252.914062 336.039062 243.648438 329.339844 235.128906 C 324.882812 229.445312 320.792969 224.101562 319.597656 222.0625 C 317.183594 217.945312 313.734375 201.675781 312.5 195.582031 C 312.207031 194.136719 312.035156 193.257812 312.035156 193.257812 L 313.804688 188.308594 L 317.25 178.695312 L 317.511719 177.980469 C 319.183594 177.148438 320.925781 176.496094 322.734375 176.023438 C 323.464844 175.835938 324.207031 175.703125 324.957031 175.636719 C 327.210938 175.441406 329.269531 175.972656 329.898438 178.261719 C 329.898438 178.390625 329.96875 178.539062 329.992188 178.675781 C 330.125 179.363281 330.261719 180.234375 330.40625 181.257812 C 331.65625 189.867188 333.398438 208.96875 333.949219 211.113281 C 334.554688 213.496094 358.003906 243.074219 358.003906 243.074219 Z M 358.003906 243.074219 " fill-opacity="1" fill-rule="nonzero"/><path fill="#000000" d="M 343.582031 253.238281 C 343.476562 253.238281 343.394531 253.199219 343.332031 253.121094 C 343.253906 253.023438 335.703125 243.753906 329.089844 235.335938 C 323.632812 228.386719 320.339844 223.972656 319.3125 222.226562 C 316.914062 218.128906 313.519531 202.28125 312.171875 195.652344 C 311.878906 194.195312 311.714844 193.320312 311.714844 193.320312 C 311.699219 193.261719 311.699219 193.203125 311.714844 193.148438 L 317.175781 177.867188 C 317.203125 177.785156 317.253906 177.726562 317.328125 177.6875 C 319.027344 176.84375 320.796875 176.183594 322.632812 175.707031 C 323.378906 175.515625 324.136719 175.382812 324.90625 175.3125 C 328.519531 175 329.769531 176.695312 330.191406 178.167969 L 330.296875 178.617188 C 330.425781 179.304688 330.5625 180.183594 330.710938 181.199219 C 331.332031 185.503906 332.070312 192.390625 332.726562 198.457031 C 333.382812 204.527344 333.976562 209.957031 334.246094 211.015625 C 334.734375 212.917969 351.738281 234.644531 358.253906 242.867188 C 358.308594 242.941406 358.332031 243.023438 358.316406 243.117188 C 358.304688 243.214844 358.257812 243.289062 358.175781 243.339844 L 343.753906 253.179688 C 343.703125 253.214844 343.644531 253.234375 343.582031 253.238281 Z M 312.363281 193.285156 C 312.414062 193.542969 312.570312 194.34375 312.8125 195.523438 C 314.148438 202.117188 317.519531 217.902344 319.871094 221.898438 C 320.882812 223.621094 324.183594 228.007812 329.597656 234.929688 C 335.632812 242.601562 342.425781 250.976562 343.632812 252.464844 L 357.523438 242.996094 C 354.996094 239.8125 334.246094 213.523438 333.605469 211.1875 C 333.332031 210.085938 332.742188 204.734375 332.082031 198.535156 C 331.425781 192.507812 330.675781 185.625 330.0625 181.320312 C 329.917969 180.304688 329.777344 179.433594 329.648438 178.738281 C 329.648438 178.609375 329.589844 178.46875 329.554688 178.347656 C 329.054688 176.550781 327.511719 175.765625 324.960938 175.964844 C 324.226562 176.027344 323.503906 176.152344 322.796875 176.34375 C 321.050781 176.800781 319.363281 177.421875 317.742188 178.210938 Z M 312.363281 193.285156 " fill-opacity="1" fill-rule="nonzero"/><path fill="#ffffff" d="M 328.21875 178.503906 C 330.15625 186.054688 317.664062 207.136719 314.320312 212.9375 C 310.976562 218.738281 303.414062 254.695312 303.414062 254.695312 L 284.066406 254.695312 C 284.066406 254.695312 289.699219 228.207031 293.394531 215.957031 C 297.09375 203.707031 309.777344 173.984375 309.777344 173.984375 C 309.777344 173.984375 326.285156 170.953125 328.21875 178.503906 Z M 328.21875 178.503906 " fill-opacity="1" fill-rule="nonzero"/><path fill="#000000" d="M 303.414062 255.054688 L 284.066406 255.054688 C 283.964844 255.054688 283.875 255.015625 283.808594 254.9375 C 283.742188 254.855469 283.722656 254.761719 283.75 254.660156 C 283.800781 254.394531 289.421875 227.976562 293.078125 215.820312 C 296.734375 203.664062 309.320312 174.105469 309.457031 173.8125 C 309.503906 173.703125 309.585938 173.640625 309.699219 173.613281 C 310.390625 173.496094 326.554688 170.664062 328.546875 178.425781 C 330.433594 185.777344 319.292969 205.007812 315.105469 212.257812 L 314.613281 213.117188 C 311.335938 218.796875 303.820312 254.4375 303.75 254.824219 C 303.695312 254.984375 303.582031 255.0625 303.414062 255.054688 Z M 284.449219 254.402344 L 303.121094 254.402344 C 303.871094 250.882812 310.792969 218.34375 314.011719 212.765625 L 314.5 211.902344 C 318.261719 205.414062 329.691406 185.667969 327.871094 178.574219 C 326.148438 171.796875 311.707031 173.933594 309.957031 174.21875 C 308.933594 176.621094 297.179688 204.347656 293.679688 215.992188 C 290.300781 227.328125 285.1875 251.042969 284.472656 254.402344 Z M 284.449219 254.402344 " fill-opacity="1" fill-rule="nonzero"/><path fill="#26b1d8" d="M 329.339844 178.453125 C 324.242188 180.914062 306.234375 182.328125 306.242188 178.503906 C 306.242188 178.382812 306.242188 178.246094 306.242188 178.109375 C 301.734375 182.507812 297.308594 186.5625 297.308594 186.5625 L 293.1875 183.34375 C 293.1875 183.34375 302.105469 171.558594 304.328125 165.886719 C 303.65625 162.125 303.09375 158.84375 303.25 158.027344 C 303.605469 156.15625 308.171875 146.363281 312.042969 141.09375 C 314.25 137.988281 317.066406 135.59375 320.484375 133.90625 C 321.273438 134.242188 322.003906 134.675781 322.679688 135.199219 C 323.359375 135.726562 323.960938 136.328125 324.484375 137.003906 C 325.007812 137.683594 325.4375 138.414062 325.773438 139.203125 C 326.109375 139.988281 326.339844 140.808594 326.46875 141.652344 C 327.519531 147.628906 327.328125 160.589844 327.328125 162.554688 C 327.328125 164.515625 329.339844 178.453125 329.339844 178.453125 Z M 329.339844 178.453125 " fill-opacity="1" fill-rule="nonzero"/><path fill="#000000" d="M 321.769531 189.816406 L 287.816406 174.078125 C 287.617188 173.980469 287.445312 173.851562 287.296875 173.683594 C 287.148438 173.519531 287.035156 173.332031 286.957031 173.125 C 286.882812 172.917969 286.847656 172.703125 286.855469 172.480469 C 286.863281 172.257812 286.910156 172.046875 287 171.839844 L 295.542969 153.480469 C 295.640625 153.28125 295.773438 153.109375 295.9375 152.960938 C 296.101562 152.808594 296.289062 152.699219 296.5 152.621094 C 296.707031 152.546875 296.921875 152.511719 297.144531 152.519531 C 297.367188 152.523438 297.582031 152.574219 297.785156 152.664062 L 331.734375 168.398438 C 331.933594 168.496094 332.109375 168.628906 332.257812 168.792969 C 332.40625 168.957031 332.519531 169.144531 332.59375 169.351562 C 332.671875 169.5625 332.707031 169.777344 332.699219 170 C 332.691406 170.222656 332.644531 170.433594 332.554688 170.636719 L 324.011719 188.996094 C 323.914062 189.195312 323.78125 189.371094 323.617188 189.519531 C 323.449219 189.667969 323.261719 189.78125 323.054688 189.855469 C 322.84375 189.933594 322.628906 189.96875 322.40625 189.960938 C 322.1875 189.953125 321.972656 189.90625 321.769531 189.816406 Z M 321.769531 189.816406 " fill-opacity="1" fill-rule="nonzero"/><path fill="#ffffff" d="M 289.558594 172.175781 L 297.449219 155.21875 L 329.992188 170.335938 L 322.105469 187.285156 Z M 289.558594 172.175781 " fill-opacity="1" fill-rule="nonzero"/><path fill="#000000" d="M 306.992188 180.578125 L 292.863281 174.019531 L 306.207031 164.664062 L 307.585938 180.15625 L 317.292969 173.347656 L 318.414062 185.898438 Z M 311.835938 169.621094 C 312.128906 169.757812 312.4375 169.832031 312.757812 169.847656 C 313.082031 169.863281 313.394531 169.816406 313.699219 169.707031 C 314 169.597656 314.273438 169.433594 314.511719 169.214844 C 314.75 168.996094 314.9375 168.742188 315.074219 168.453125 C 315.210938 168.160156 315.285156 167.851562 315.300781 167.53125 C 315.3125 167.207031 315.265625 166.898438 315.15625 166.59375 C 315.042969 166.289062 314.878906 166.019531 314.664062 165.78125 C 314.445312 165.546875 314.1875 165.359375 313.898438 165.222656 C 313.605469 165.085938 313.296875 165.011719 312.972656 164.996094 C 312.652344 164.984375 312.339844 165.03125 312.035156 165.144531 C 311.734375 165.253906 311.460938 165.417969 311.226562 165.636719 C 310.988281 165.855469 310.800781 166.109375 310.664062 166.402344 C 310.53125 166.691406 310.453125 167 310.441406 167.320312 C 310.425781 167.640625 310.476562 167.949219 310.585938 168.253906 C 310.695312 168.554688 310.859375 168.824219 311.074219 169.0625 C 311.292969 169.296875 311.546875 169.484375 311.835938 169.621094 Z M 311.835938 169.621094 " fill-opacity="1" fill-rule="nonzero"/><path fill="#a66735" d="M 312.019531 180.914062 C 310.140625 182.824219 306.734375 185.390625 306.035156 185.289062 C 305.335938 185.183594 303.671875 183.730469 302.585938 182.757812 C 301.5 181.785156 302.34375 181.371094 303.386719 181.035156 C 304.429688 180.699219 306.269531 179.726562 305.550781 179.65625 C 304.835938 179.589844 301.855469 179.105469 302.105469 178.546875 C 302.355469 177.988281 304.777344 178.167969 305.992188 177.851562 C 307.207031 177.53125 308.933594 177.300781 308.933594 177.300781 C 308.933594 177.300781 313.890625 179.003906 312.019531 180.914062 Z M 312.019531 180.914062 " fill-opacity="1" fill-rule="nonzero"/><path fill="#26b1d8" d="M 336.132812 159.800781 C 337.363281 164.015625 336.996094 167.261719 332.882812 170.25 C 328.769531 173.234375 312.035156 181.621094 312.035156 181.621094 L 308.414062 177.085938 C 308.414062 177.085938 326.019531 163.75 326.371094 163.054688 C 326.726562 162.355469 321.976562 154.617188 320.339844 150.40625 C 318.699219 146.199219 317.371094 139.683594 320.691406 137.140625 C 327.777344 131.703125 334.898438 155.589844 336.132812 159.800781 Z M 336.132812 159.800781 " fill-opacity="1" fill-rule="nonzero"/><path fill="#a66735" d="M 320.476562 133.90625 C 320.476562 133.90625 311.640625 142.988281 312.414062 140.59375 C 312.847656 139.277344 312.097656 136.125 311.347656 133.5625 C 310.742188 131.539062 310.148438 129.902344 310.105469 129.792969 C 309.175781 129.832031 308.332031 129.585938 307.570312 129.050781 C 305.105469 127.25 305.457031 124.746094 305.75 123.308594 C 306.191406 121.121094 307.042969 119.675781 308.113281 117.394531 C 309.792969 113.796875 310.363281 113.609375 310.363281 113.609375 C 310.664062 112.910156 314.0625 113.394531 314.671875 116.679688 C 315.285156 119.96875 315.46875 122.171875 316.871094 121.113281 C 318.277344 120.054688 320.699219 121.554688 319.949219 123.929688 C 319.773438 124.4375 319.488281 124.867188 319.085938 125.226562 C 318.6875 125.585938 318.222656 125.824219 317.699219 125.945312 C 318.417969 128.667969 319.34375 131.324219 320.476562 133.90625 Z M 320.476562 133.90625 " fill-opacity="1" fill-rule="nonzero"/><path fill="#000000" d="M 292.949219 255.132812 L 292.886719 255.132812 C 292.800781 255.113281 292.730469 255.066406 292.679688 254.992188 C 292.628906 254.917969 292.613281 254.835938 292.628906 254.746094 C 292.921875 253.214844 299.871094 217.121094 302.742188 210.671875 C 305.613281 204.226562 313.949219 187.050781 314.054688 186.878906 C 314.089844 186.796875 314.15625 186.742188 314.242188 186.710938 C 314.328125 186.683594 314.410156 186.691406 314.492188 186.734375 C 314.574219 186.769531 314.632812 186.832031 314.660156 186.917969 C 314.6875 187.003906 314.683594 187.085938 314.640625 187.164062 C 314.554688 187.335938 306.191406 204.535156 303.335938 210.941406 C 300.484375 217.34375 293.34375 254.496094 293.277344 254.839844 C 293.253906 255.039062 293.144531 255.132812 292.949219 255.132812 Z M 292.949219 255.132812 " fill-opacity="1" fill-rule="nonzero"/><path fill="#000000" d="M 350.296875 248.050781 C 350.195312 248.050781 350.113281 248.011719 350.046875 247.9375 C 349.140625 246.894531 327.847656 222.355469 326.15625 216.828125 C 324.46875 211.300781 322.476562 197.535156 322.457031 197.398438 C 322.441406 197.3125 322.457031 197.234375 322.507812 197.160156 C 322.554688 197.085938 322.621094 197.039062 322.707031 197.019531 C 322.800781 197.007812 322.882812 197.027344 322.953125 197.082031 C 323.027344 197.132812 323.074219 197.207031 323.089844 197.296875 C 323.089844 197.433594 325.105469 211.1875 326.761719 216.628906 C 328.417969 222.070312 350.296875 247.238281 350.511719 247.5 C 350.605469 247.601562 350.621094 247.71875 350.566406 247.847656 C 350.507812 247.972656 350.410156 248.039062 350.269531 248.039062 Z M 350.296875 248.050781 " fill-opacity="1" fill-rule="nonzero"/><path fill="#000000" d="M 154.703125 55.949219 L 50.445312 55.949219 C 50.34375 55.949219 50.261719 55.910156 50.195312 55.832031 C 50.132812 55.753906 50.109375 55.667969 50.128906 55.570312 C 50.859375 51.578125 54.214844 48.753906 59.84375 47.410156 C 62.480469 46.808594 65.148438 46.523438 67.855469 46.550781 C 68.597656 43.90625 69.789062 41.480469 71.429688 39.277344 C 74.019531 35.730469 78.941406 31.28125 87.519531 30.203125 C 103.261719 28.300781 109.875 41.214844 110.890625 43.453125 C 119.039062 39.335938 125.023438 41.136719 128.625 43.382812 C 130.992188 44.882812 132.929688 46.816406 134.4375 49.175781 C 148.601562 43.339844 154.929688 55.355469 155 55.476562 C 155.058594 55.582031 155.058594 55.691406 155 55.796875 C 154.929688 55.90625 154.832031 55.957031 154.703125 55.949219 Z M 50.84375 55.304688 L 154.152344 55.304688 C 152.851562 53.128906 146.78125 44.632812 134.425781 49.875 C 134.25 49.949219 134.117188 49.902344 134.023438 49.734375 C 132.546875 47.355469 130.625 45.414062 128.253906 43.917969 C 123.167969 40.75 117.324219 40.835938 110.882812 44.183594 C 110.796875 44.21875 110.710938 44.21875 110.625 44.183594 C 110.53125 44.152344 110.46875 44.09375 110.433594 44.003906 C 110.375 43.855469 104.21875 28.792969 87.605469 30.882812 C 79.269531 31.898438 74.5 36.222656 71.964844 39.65625 C 70.316406 41.867188 69.136719 44.300781 68.421875 46.964844 C 68.386719 47.144531 68.277344 47.226562 68.09375 47.214844 C 67.941406 47.238281 52.859375 46.652344 50.84375 55.304688 Z M 336.210938 56.011719 L 234.347656 56.011719 C 234.253906 56.011719 234.175781 55.976562 234.109375 55.910156 C 234.046875 55.839844 234.015625 55.761719 234.019531 55.667969 C 234.066406 54.921875 234.257812 54.21875 234.601562 53.554688 C 234.945312 52.890625 235.40625 52.324219 235.988281 51.855469 C 239.296875 49.125 245.589844 49.605469 246.632812 49.710938 C 247.628906 48.855469 248.675781 48.066406 249.769531 47.34375 C 250.867188 46.621094 252.003906 45.96875 253.179688 45.390625 C 254.359375 44.808594 255.566406 44.304688 256.808594 43.875 C 258.050781 43.445312 259.3125 43.097656 260.597656 42.828125 C 261.882812 42.558594 263.179688 42.367188 264.488281 42.261719 C 265.796875 42.152344 267.105469 42.128906 268.417969 42.183594 C 269.730469 42.242188 271.03125 42.382812 272.328125 42.601562 C 273.621094 42.824219 274.898438 43.121094 276.152344 43.503906 C 276.792969 41.78125 280.464844 33.664062 293.015625 31.96875 C 306.027344 30.246094 312.25 43.890625 313.171875 46.128906 C 329.226562 39.949219 336.390625 55.398438 336.453125 55.597656 C 336.507812 55.699219 336.507812 55.800781 336.453125 55.898438 C 336.382812 55.980469 336.292969 56.019531 336.183594 56.011719 Z M 234.726562 55.367188 L 335.640625 55.367188 C 334.339844 52.785156 327.425781 41.121094 313.105469 46.84375 C 313.019531 46.878906 312.9375 46.878906 312.855469 46.84375 C 312.773438 46.804688 312.714844 46.742188 312.683594 46.652344 C 312.621094 46.5 306.648438 30.773438 293.09375 32.605469 C 285.972656 33.570312 281.886719 36.609375 279.707031 38.992188 C 278.328125 40.445312 277.3125 42.113281 276.664062 44.003906 C 276.632812 44.09375 276.578125 44.160156 276.488281 44.199219 C 276.402344 44.242188 276.316406 44.242188 276.230469 44.199219 C 276.074219 44.140625 261.144531 38.441406 246.917969 50.277344 C 246.847656 50.332031 246.765625 50.355469 246.675781 50.347656 C 246.609375 50.347656 239.695312 49.597656 236.332031 52.335938 C 235.382812 53.128906 234.839844 54.136719 234.703125 55.367188 Z M 234.726562 55.367188 " fill-opacity="1" fill-rule="nonzero"/><path fill="#26b1d8" d="M 274 242.203125 C 268.617188 242.867188 268.246094 235 268.246094 235 C 273.015625 232.148438 278.835938 233.640625 278.835938 233.640625 C 278.835938 233.640625 280.136719 241.4375 274 242.203125 Z M 274 242.203125 " fill-opacity="1" fill-rule="nonzero"/></svg>