<svg xmlns="http://www.w3.org/2000/svg" xmlns:xlink="http://www.w3.org/1999/xlink" width="540" zoomAndPan="magnify" viewBox="0 0 404.88 299.999988" height="400" preserveAspectRatio="xMidYMid meet" version="1.0"><defs><clipPath id="7fa699cfeb"><path d="M 263 35.703125 L 327 35.703125 L 327 112 L 263 112 Z M 263 35.703125 " clip-rule="nonzero"/></clipPath><clipPath id="35b9bb87cd"><path d="M 313 228 L 332 228 L 332 264.386719 L 313 264.386719 Z M 313 228 " clip-rule="nonzero"/></clipPath></defs><path fill="#ffffff" d="M 147.097656 113.292969 L 171.015625 113.292969 L 171.015625 136.65625 L 147.097656 136.65625 Z M 171.082031 136.65625 L 195 136.65625 L 195 113.292969 L 171.097656 113.292969 Z M 123.113281 160.230469 L 147.03125 160.230469 L 147.03125 136.855469 L 123.097656 136.855469 Z M 171.082031 160.230469 L 195 160.230469 L 195 136.855469 L 171.089844 136.855469 Z M 195.066406 160.230469 L 218.980469 160.230469 L 218.980469 136.855469 L 195.089844 136.855469 Z M 123.066406 183.617188 L 123.066406 206.992188 L 146.980469 206.992188 L 146.980469 160.425781 L 123.089844 160.425781 Z M 147.046875 183.617188 L 147.046875 206.992188 L 171.007812 206.992188 L 171.007812 160.425781 L 147.089844 160.425781 Z M 195.015625 183.617188 L 195.015625 206.992188 L 218.933594 206.992188 L 218.933594 160.425781 L 195.082031 160.425781 Z M 219 160.4375 L 219 207 L 242.914062 207 L 242.914062 160.425781 Z M 99.097656 206.992188 L 123.007812 206.992188 L 123.007812 183.617188 L 99.097656 183.617188 Z M 99.097656 206.992188 " fill-opacity="1" fill-rule="nonzero"/><path fill="#26b1d8" d="M 123.007812 160.425781 L 123.007812 183.792969 L 99.097656 183.792969 L 99.097656 160.425781 Z M 171.089844 183.609375 L 171.089844 206.984375 L 195 206.984375 L 195 183.617188 Z M 147.105469 136.847656 L 147.105469 160.230469 L 171.007812 160.230469 L 171.007812 136.855469 Z M 147.105469 136.847656 " fill-opacity="1" fill-rule="nonzero"/><path fill="#26b1d8" d="M 156.609375 62.785156 L 156.609375 86.152344 L 132.714844 86.152344 L 132.714844 62.785156 Z M 99.636719 87.625 L 102.445312 90.554688 L 99.851562 95.078125 L 95.796875 94.25 C 93.792969 96.300781 91.40625 97.679688 88.628906 98.390625 L 87.46875 102.414062 L 82.269531 102.414062 L 80.910156 98.324219 C 78.210938 97.605469 75.878906 96.246094 73.921875 94.25 L 69.871094 95.078125 L 67.273438 90.554688 L 70.085938 87.632812 C 69.707031 86.28125 69.519531 84.898438 69.515625 83.492188 C 69.511719 82.132812 69.691406 80.792969 70.042969 79.476562 L 67.15625 76.167969 L 69.804688 71.679688 L 73.890625 72.722656 C 75.878906 70.683594 78.25 69.300781 81.003906 68.582031 L 82.160156 64.574219 L 87.371094 64.574219 L 88.675781 68.574219 C 91.441406 69.285156 93.816406 70.667969 95.804688 72.714844 L 99.808594 71.6875 L 102.457031 76.175781 L 99.636719 79.355469 C 100.402344 82.113281 100.402344 84.875 99.636719 87.632812 Z M 93.351562 83.410156 C 93.347656 82.851562 93.289062 82.292969 93.179688 81.746094 C 93.066406 81.195312 92.902344 80.660156 92.683594 80.144531 C 92.46875 79.628906 92.203125 79.136719 91.890625 78.671875 C 91.578125 78.207031 91.222656 77.773438 90.824219 77.378906 C 90.425781 76.984375 89.992188 76.632812 89.527344 76.324219 C 89.058594 76.011719 88.566406 75.75 88.046875 75.539062 C 87.527344 75.324219 86.996094 75.164062 86.445312 75.058594 C 85.894531 74.949219 85.339844 74.898438 84.777344 74.898438 C 84.21875 74.902344 83.664062 74.957031 83.113281 75.070312 C 82.566406 75.179688 82.03125 75.34375 81.515625 75.558594 C 81 75.777344 80.507812 76.039062 80.042969 76.351562 C 79.578125 76.667969 79.148438 77.023438 78.75 77.417969 C 78.355469 77.816406 78.003906 78.25 77.691406 78.714844 C 77.382812 79.183594 77.121094 79.675781 76.90625 80.195312 C 76.695312 80.714844 76.53125 81.25 76.425781 81.800781 C 76.316406 82.347656 76.261719 82.90625 76.265625 83.464844 C 76.265625 84.027344 76.320312 84.582031 76.429688 85.132812 C 76.539062 85.683594 76.703125 86.21875 76.917969 86.734375 C 77.132812 87.253906 77.394531 87.746094 77.707031 88.210938 C 78.019531 88.675781 78.375 89.109375 78.769531 89.503906 C 79.167969 89.902344 79.597656 90.253906 80.066406 90.566406 C 80.53125 90.878906 81.023438 91.140625 81.539062 91.355469 C 82.058594 91.570312 82.59375 91.730469 83.140625 91.839844 C 83.691406 91.949219 84.246094 92.003906 84.808594 92.003906 C 85.371094 92.003906 85.925781 91.949219 86.476562 91.839844 C 87.03125 91.726562 87.566406 91.5625 88.085938 91.347656 C 88.605469 91.132812 89.097656 90.867188 89.5625 90.550781 C 90.03125 90.238281 90.464844 89.882812 90.859375 89.484375 C 91.257812 89.082031 91.609375 88.648438 91.921875 88.179688 C 92.234375 87.710938 92.496094 87.214844 92.710938 86.695312 C 92.921875 86.175781 93.082031 85.636719 93.191406 85.085938 C 93.300781 84.53125 93.351562 83.972656 93.351562 83.410156 Z M 93.351562 83.410156 " fill-opacity="1" fill-rule="nonzero"/><path fill="#ffffff" d="M 375.3125 244.183594 L 366.925781 249.515625 L 361.371094 241.707031 L 369.753906 236.375 Z M 375.3125 244.183594 " fill-opacity="1" fill-rule="nonzero"/><path fill="#000000" d="M 366.925781 249.824219 C 366.816406 249.824219 366.734375 249.78125 366.671875 249.691406 L 361.121094 241.867188 C 361.066406 241.792969 361.046875 241.714844 361.0625 241.625 C 361.078125 241.539062 361.125 241.472656 361.203125 241.425781 L 369.589844 236.101562 C 369.660156 236.058594 369.734375 236.042969 369.816406 236.058594 C 369.898438 236.074219 369.964844 236.117188 370.011719 236.1875 L 375.5625 243.992188 C 375.609375 244.066406 375.628906 244.144531 375.609375 244.230469 C 375.59375 244.316406 375.550781 244.382812 375.476562 244.433594 L 367.09375 249.757812 C 367.042969 249.796875 366.988281 249.816406 366.925781 249.824219 Z M 361.816406 241.792969 L 367.007812 249.09375 L 374.867188 244.125 L 369.671875 236.824219 Z M 361.816406 241.792969 " fill-opacity="1" fill-rule="nonzero"/><path fill="#a36357" d="M 79.140625 188.628906 C 76.488281 187.800781 74.832031 183.542969 74.832031 183.542969 C 75.1875 182.039062 75.882812 180.234375 76.488281 177.632812 C 75.917969 176.804688 74.003906 173.726562 74.914062 172.101562 C 75.15625 171.75 75.476562 171.488281 75.867188 171.316406 C 76.261719 171.148438 76.667969 171.09375 77.089844 171.15625 L 78.238281 164.683594 L 93.234375 168.09375 L 93.234375 168.417969 C 93.308594 168.863281 94.886719 179.378906 90.554688 183.0625 C 89.074219 184.332031 87.105469 184.644531 84.691406 183.992188 L 84.617188 186.476562 C 84.617188 186.476562 81.796875 189.4375 79.140625 188.628906 Z M 79.140625 188.628906 " fill-opacity="1" fill-rule="nonzero"/><path fill="#000000" d="M 75.039062 163.804688 C 74.964844 163.765625 74.894531 163.722656 74.824219 163.671875 C 74.460938 163.441406 74.117188 163.191406 73.78125 162.917969 C 72.246094 161.703125 69.960938 159.359375 71.085938 156.84375 C 72.742188 153.183594 77.949219 153.027344 78.851562 153.53125 C 80.234375 154.308594 81.011719 154.929688 81.480469 158.605469 C 81.53125 159.003906 81.574219 159.433594 81.621094 159.914062 C 81.621094 159.988281 81.621094 160.0625 81.621094 160.144531 C 83.214844 159.941406 84.800781 159.964844 86.386719 160.210938 C 89.347656 160.808594 97.136719 164.171875 93.359375 170.046875 C 91.945312 170.355469 90.523438 170.421875 89.089844 170.242188 C 87.652344 170.0625 86.289062 169.652344 84.996094 169.003906 C 84.996094 169.003906 83.476562 168.101562 83.136719 170.132812 C 82.765625 171.878906 82.273438 173.589844 81.65625 175.265625 C 81.65625 175.265625 80.183594 175.421875 79.464844 173.453125 C 78.746094 171.480469 75.0625 171.488281 74.824219 173.972656 C 74.824219 173.972656 71.996094 169.558594 75.039062 163.804688 Z M 75.039062 163.804688 " fill-opacity="1" fill-rule="nonzero"/><path fill="#ffffff" d="M 82.128906 160.296875 L 81.730469 160.394531 C 79.242188 161.09375 77.039062 162.304688 75.113281 164.027344 L 74.847656 164.261719 L 74.578125 164.039062 C 74.203125 163.796875 73.839844 163.539062 73.492188 163.257812 L 73.121094 162.960938 L 73.417969 162.597656 C 74.445312 161.398438 75.648438 160.414062 77.027344 159.652344 C 78.410156 158.886719 79.878906 158.390625 81.441406 158.160156 L 81.921875 158.078125 L 81.988281 158.566406 C 82.035156 158.945312 82.078125 159.394531 82.128906 159.890625 Z M 82.128906 160.296875 " fill-opacity="1" fill-rule="nonzero"/><path fill="#000000" d="M 74.867188 164.574219 C 74.804688 164.574219 74.75 164.558594 74.699219 164.527344 L 74.402344 164.335938 C 74.15625 164.179688 73.765625 163.90625 73.292969 163.507812 L 72.929688 163.210938 C 72.859375 163.15625 72.824219 163.089844 72.816406 163.003906 C 72.804688 162.917969 72.828125 162.84375 72.882812 162.777344 L 73.179688 162.40625 C 74.21875 161.175781 75.441406 160.164062 76.851562 159.375 C 78.257812 158.585938 79.757812 158.070312 81.351562 157.828125 L 81.828125 157.746094 C 81.917969 157.734375 81.996094 157.753906 82.070312 157.804688 C 82.136719 157.855469 82.179688 157.925781 82.191406 158.011719 L 82.25 158.5 C 82.300781 158.878906 82.351562 159.328125 82.398438 159.839844 L 82.398438 160.246094 C 82.417969 160.421875 82.34375 160.53125 82.167969 160.570312 L 81.773438 160.667969 C 79.34375 161.363281 77.1875 162.550781 75.304688 164.234375 L 75.039062 164.476562 C 74.992188 164.527344 74.933594 164.5625 74.867188 164.574219 Z M 73.558594 162.917969 L 73.683594 163.027344 C 74.128906 163.375 74.511719 163.632812 74.742188 163.789062 L 74.839844 163.847656 L 74.933594 163.773438 C 76.886719 162.015625 79.128906 160.78125 81.65625 160.0625 L 81.789062 160.0625 L 81.789062 159.898438 C 81.738281 159.394531 81.695312 158.960938 81.648438 158.589844 L 81.648438 158.425781 L 81.480469 158.425781 C 79.964844 158.660156 78.535156 159.152344 77.195312 159.898438 C 75.855469 160.648438 74.6875 161.609375 73.691406 162.777344 Z M 73.558594 162.917969 " fill-opacity="1" fill-rule="nonzero"/><path fill="#ffffff" d="M 267.519531 257.050781 L 258.332031 257.050781 L 257.859375 247.3125 L 267.074219 247.3125 Z M 267.519531 257.050781 " fill-opacity="1" fill-rule="nonzero"/><path fill="#ffffff" d="M 221.15625 247.3125 L 218.578125 257.050781 L 209.414062 257.050781 L 212 247.3125 Z M 221.15625 247.3125 " fill-opacity="1" fill-rule="nonzero"/><path fill="#000000" d="M 267.519531 257.363281 L 258.332031 257.363281 C 258.246094 257.363281 258.175781 257.335938 258.113281 257.277344 C 258.054688 257.222656 258.023438 257.152344 258.015625 257.066406 L 257.546875 247.332031 C 257.542969 247.242188 257.570312 247.164062 257.628906 247.097656 C 257.691406 247.035156 257.769531 247.003906 257.859375 247.007812 L 267.074219 247.007812 C 267.15625 247.003906 267.226562 247.03125 267.289062 247.089844 C 267.351562 247.144531 267.382812 247.214844 267.386719 247.296875 L 267.859375 257.035156 C 267.867188 257.125 267.839844 257.203125 267.777344 257.265625 C 267.707031 257.34375 267.621094 257.375 267.519531 257.363281 Z M 258.628906 256.769531 L 267.222656 256.769531 L 266.785156 247.660156 L 258.183594 247.660156 Z M 218.578125 257.390625 L 209.414062 257.390625 C 209.3125 257.386719 209.234375 257.34375 209.171875 257.265625 C 209.105469 257.1875 209.085938 257.101562 209.117188 257 L 211.703125 247.265625 C 211.742188 247.105469 211.839844 247.027344 212 247.03125 L 221.15625 247.03125 C 221.257812 247.03125 221.339844 247.066406 221.40625 247.148438 C 221.464844 247.230469 221.484375 247.320312 221.464844 247.421875 L 218.875 257.15625 C 218.824219 257.296875 218.722656 257.367188 218.578125 257.363281 Z M 209.820312 256.769531 L 218.335938 256.769531 L 220.761719 247.660156 L 212.242188 247.660156 Z M 209.820312 256.769531 " fill-opacity="1" fill-rule="nonzero"/><path fill="#000000" d="M 269.03125 259.964844 C 269.074219 260.121094 269.078125 260.28125 269.046875 260.441406 C 269.011719 260.601562 268.945312 260.746094 268.847656 260.875 C 268.746094 261.003906 268.625 261.105469 268.480469 261.179688 C 268.332031 261.25 268.179688 261.289062 268.015625 261.289062 L 246.089844 261.289062 C 245.957031 261.285156 245.835938 261.242188 245.734375 261.15625 C 245.628906 261.074219 245.558594 260.964844 245.527344 260.835938 C 245.496094 260.703125 245.507812 260.578125 245.5625 260.453125 C 245.613281 260.332031 245.699219 260.238281 245.820312 260.171875 L 258.222656 253.707031 C 262.410156 257.488281 267.386719 253.707031 267.386719 253.707031 Z M 219.410156 253.707031 C 219.410156 253.707031 214.449219 257.488281 210.257812 253.707031 L 197.851562 260.171875 C 197.734375 260.238281 197.648438 260.328125 197.59375 260.453125 C 197.539062 260.574219 197.527344 260.699219 197.558594 260.832031 C 197.589844 260.960938 197.65625 261.070312 197.761719 261.15625 C 197.863281 261.238281 197.984375 261.285156 198.117188 261.289062 L 220.039062 261.289062 C 220.203125 261.289062 220.359375 261.25 220.503906 261.179688 C 220.648438 261.105469 220.773438 261.003906 220.871094 260.875 C 220.972656 260.746094 221.039062 260.601562 221.070312 260.441406 C 221.101562 260.28125 221.097656 260.121094 221.058594 259.964844 Z M 219.410156 253.707031 " fill-opacity="1" fill-rule="nonzero"/><path fill="#ffffff" d="M 171.089844 160.425781 L 195.007812 160.425781 L 195.007812 183.792969 L 171.089844 183.792969 Z M 171.089844 160.425781 " fill-opacity="1" fill-rule="nonzero"/><path fill="#26b1d8" d="M 155.394531 231.683594 L 179.300781 231.683594 L 179.300781 255.046875 L 155.394531 255.046875 Z M 155.394531 231.683594 " fill-opacity="1" fill-rule="nonzero"/><path fill="#000000" d="M 208.84375 213.65625 L 208.84375 237.03125 L 184.933594 237.03125 L 184.933594 213.65625 Z M 175 250.425781 L 175 227.0625 C 175 226.976562 174.96875 226.902344 174.910156 226.839844 C 174.847656 226.777344 174.773438 226.746094 174.6875 226.746094 L 150.769531 226.746094 C 150.683594 226.75 150.613281 226.78125 150.550781 226.84375 C 150.492188 226.902344 150.464844 226.976562 150.464844 227.0625 L 150.464844 250.425781 C 150.464844 250.511719 150.492188 250.585938 150.550781 250.644531 C 150.613281 250.707031 150.683594 250.738281 150.769531 250.742188 L 174.6875 250.742188 C 174.773438 250.742188 174.847656 250.710938 174.910156 250.648438 C 174.96875 250.585938 175 250.511719 175 250.425781 Z M 151.082031 227.367188 L 174.382812 227.367188 L 174.382812 250.144531 L 151.082031 250.144531 Z M 151.082031 227.367188 " fill-opacity="1" fill-rule="nonzero"/><path fill="#000000" d="M 243 160.113281 L 219.3125 160.113281 L 219.3125 136.855469 C 219.3125 136.773438 219.28125 136.699219 219.222656 136.640625 C 219.160156 136.582031 219.089844 136.550781 219.007812 136.550781 L 195.320312 136.550781 L 195.320312 113.292969 C 195.320312 113.207031 195.292969 113.132812 195.230469 113.074219 C 195.171875 113.011719 195.101562 112.980469 195.015625 112.976562 L 147.097656 112.976562 C 147.011719 112.976562 146.9375 113.007812 146.878906 113.070312 C 146.816406 113.132812 146.789062 113.207031 146.792969 113.292969 L 146.792969 136.550781 L 123.097656 136.550781 C 123.011719 136.550781 122.9375 136.578125 122.878906 136.636719 C 122.816406 136.699219 122.785156 136.769531 122.785156 136.855469 L 122.785156 160.230469 C 122.78125 160.257812 122.78125 160.285156 122.785156 160.3125 C 122.777344 160.351562 122.777344 160.390625 122.785156 160.425781 L 122.785156 183.3125 L 99.089844 183.3125 C 99.003906 183.316406 98.933594 183.34375 98.875 183.40625 C 98.816406 183.464844 98.785156 183.535156 98.785156 183.617188 L 98.785156 206.992188 C 98.785156 207.074219 98.816406 207.148438 98.875 207.207031 C 98.933594 207.265625 99.003906 207.296875 99.089844 207.296875 L 171.039062 207.296875 C 171.125 207.296875 171.195312 207.265625 171.253906 207.207031 C 171.3125 207.148438 171.34375 207.074219 171.347656 206.992188 L 171.347656 184.105469 L 194.742188 184.105469 L 194.742188 206.992188 C 194.746094 207.078125 194.777344 207.148438 194.835938 207.210938 C 194.898438 207.269531 194.972656 207.296875 195.054688 207.296875 L 242.964844 207.296875 C 243.050781 207.296875 243.121094 207.269531 243.183594 207.207031 C 243.242188 207.148438 243.269531 207.078125 243.269531 206.992188 L 243.269531 160.425781 C 243.277344 160.238281 243.1875 160.132812 243 160.113281 Z M 242.710938 160.726562 L 242.710938 183.304688 L 219.394531 183.304688 L 219.394531 160.726562 Z M 194.742188 137.160156 L 194.742188 159.898438 L 171.402344 159.898438 L 171.402344 137.171875 Z M 170.757812 160.113281 L 147.320312 160.113281 L 147.320312 136.972656 L 170.757812 136.972656 Z M 123.378906 160.734375 L 146.691406 160.734375 L 146.691406 183.3125 L 123.402344 183.3125 Z M 147.363281 160.734375 L 170.652344 160.734375 L 170.652344 183.3125 L 147.402344 183.3125 Z M 195.328125 160.734375 L 218.726562 160.734375 L 218.726562 183.3125 L 195.394531 183.3125 Z M 195.328125 137.171875 L 218.726562 137.171875 L 218.726562 159.898438 L 195.402344 159.898438 Z M 171.347656 113.597656 L 194.742188 113.597656 L 194.742188 136.351562 L 171.402344 136.351562 Z M 147.363281 113.597656 L 170.652344 113.597656 L 170.652344 136.351562 L 147.410156 136.351562 Z M 123.378906 137.171875 L 146.675781 137.171875 L 146.675781 159.898438 L 123.402344 159.898438 Z M 122.675781 206.71875 L 99.402344 206.71875 L 99.402344 183.910156 L 122.699219 183.910156 Z M 123.378906 206.71875 L 123.378906 184.105469 L 146.691406 184.105469 L 146.691406 206.675781 Z M 147.363281 206.71875 L 147.363281 184.105469 L 170.652344 184.105469 L 170.652344 206.675781 Z M 194.652344 183.535156 L 171.394531 183.535156 L 171.394531 160.726562 L 194.691406 160.726562 Z M 195.355469 206.71875 L 195.355469 184.105469 L 218.726562 184.105469 L 218.726562 206.675781 Z M 219.335938 206.71875 L 219.335938 184.105469 L 242.710938 184.105469 L 242.710938 206.675781 Z M 219.335938 206.71875 " fill-opacity="1" fill-rule="nonzero"/><path fill="#26b1d8" d="M 287.765625 67.082031 L 284.199219 70.800781 L 287.507812 76.523438 L 292.628906 75.445312 C 295.171875 78.039062 298.203125 79.78125 301.726562 80.671875 L 303.1875 85.769531 L 309.804688 85.769531 L 311.523438 80.585938 C 314.9375 79.679688 317.882812 77.96875 320.359375 75.445312 L 325.492188 76.515625 L 328.800781 70.792969 L 325.238281 67.082031 C 326.203125 63.628906 326.222656 60.171875 325.296875 56.710938 L 328.949219 52.570312 L 325.59375 46.875 L 320.414062 48.199219 C 317.882812 45.601562 314.863281 43.851562 311.351562 42.949219 L 309.878906 37.863281 L 303.261719 37.863281 L 301.609375 42.933594 C 298.132812 43.832031 295.136719 45.5625 292.621094 48.125 L 287.542969 46.824219 L 284.183594 52.519531 L 287.75 56.570312 C 287.277344 58.269531 287.042969 60.003906 287.046875 61.769531 C 287.039062 63.574219 287.28125 65.34375 287.765625 67.082031 Z M 295.730469 61.742188 C 295.730469 61.03125 295.796875 60.328125 295.9375 59.628906 C 296.074219 58.929688 296.28125 58.253906 296.554688 57.597656 C 296.824219 56.9375 297.160156 56.3125 297.554688 55.722656 C 297.949219 55.128906 298.398438 54.582031 298.898438 54.078125 C 299.402344 53.578125 299.949219 53.128906 300.539062 52.730469 C 301.132812 52.335938 301.753906 52.003906 302.410156 51.730469 C 303.070312 51.457031 303.746094 51.253906 304.441406 51.113281 C 305.140625 50.976562 305.84375 50.90625 306.554688 50.90625 C 307.265625 50.90625 307.96875 50.976562 308.667969 51.113281 C 309.363281 51.253906 310.039062 51.457031 310.699219 51.730469 C 311.355469 52.003906 311.976562 52.335938 312.570312 52.730469 C 313.160156 53.128906 313.707031 53.578125 314.210938 54.078125 C 314.710938 54.582031 315.160156 55.128906 315.554688 55.722656 C 315.949219 56.3125 316.285156 56.9375 316.554688 57.597656 C 316.828125 58.253906 317.035156 58.929688 317.171875 59.628906 C 317.3125 60.328125 317.378906 61.03125 317.378906 61.742188 C 317.378906 62.453125 317.3125 63.160156 317.171875 63.859375 C 317.035156 64.554688 316.828125 65.234375 316.554688 65.890625 C 316.285156 66.546875 315.949219 67.171875 315.554688 67.765625 C 315.160156 68.355469 314.710938 68.902344 314.210938 69.40625 C 313.707031 69.910156 313.160156 70.359375 312.570312 70.753906 C 311.976562 71.148438 311.355469 71.484375 310.699219 71.757812 C 310.039062 72.027344 309.363281 72.234375 308.667969 72.371094 C 307.96875 72.511719 307.265625 72.582031 306.554688 72.582031 C 305.84375 72.582031 305.140625 72.511719 304.441406 72.371094 C 303.746094 72.234375 303.070312 72.027344 302.410156 71.757812 C 301.753906 71.484375 301.132812 71.148438 300.539062 70.753906 C 299.949219 70.359375 299.402344 69.910156 298.898438 69.40625 C 298.398438 68.902344 297.949219 68.355469 297.554688 67.765625 C 297.160156 67.171875 296.824219 66.546875 296.554688 65.890625 C 296.28125 65.234375 296.074219 64.554688 295.9375 63.859375 C 295.796875 63.160156 295.730469 62.453125 295.730469 61.742188 Z M 295.730469 61.742188 " fill-opacity="1" fill-rule="nonzero"/><path fill="#000000" d="M 196.460938 46.113281 L 196.460938 69.476562 L 172.554688 69.476562 L 172.554688 46.113281 Z M 152.769531 94.488281 L 152.769531 71.097656 C 152.769531 71.015625 152.738281 70.941406 152.675781 70.882812 C 152.613281 70.824219 152.542969 70.792969 152.457031 70.792969 L 128.582031 70.792969 C 128.496094 70.796875 128.425781 70.824219 128.367188 70.886719 C 128.308594 70.945312 128.277344 71.015625 128.273438 71.097656 L 128.273438 94.488281 C 128.277344 94.574219 128.308594 94.644531 128.367188 94.703125 C 128.425781 94.761719 128.496094 94.792969 128.582031 94.796875 L 152.496094 94.796875 C 152.675781 94.773438 152.769531 94.667969 152.769531 94.488281 Z M 128.855469 71.414062 L 152.152344 71.414062 L 152.152344 94.15625 L 128.855469 94.15625 Z M 80.132812 100.789062 L 85.34375 100.789062 C 85.5 100.789062 85.59375 100.714844 85.632812 100.566406 L 86.742188 96.707031 C 89.445312 95.992188 91.789062 94.644531 93.773438 92.667969 L 97.660156 93.496094 C 97.804688 93.523438 97.914062 93.472656 97.988281 93.347656 L 100.585938 88.824219 C 100.660156 88.6875 100.644531 88.566406 100.535156 88.453125 L 97.847656 85.65625 C 98.566406 82.953125 98.566406 80.25 97.847656 77.550781 L 100.542969 74.484375 C 100.628906 74.363281 100.628906 74.242188 100.542969 74.121094 L 97.980469 69.59375 C 97.898438 69.460938 97.785156 69.414062 97.632812 69.453125 L 93.773438 70.476562 C 91.800781 68.511719 89.476562 67.167969 86.792969 66.4375 L 85.574219 62.5625 C 85.53125 62.417969 85.429688 62.34375 85.277344 62.347656 L 80.035156 62.347656 C 79.878906 62.347656 79.777344 62.421875 79.738281 62.570312 L 78.621094 66.414062 C 75.9375 67.148438 73.617188 68.503906 71.65625 70.476562 L 67.746094 69.476562 C 67.597656 69.441406 67.480469 69.488281 67.398438 69.617188 L 64.761719 74.113281 C 64.667969 74.234375 64.667969 74.355469 64.761719 74.476562 L 67.539062 77.632812 C 66.832031 80.304688 66.832031 82.976562 67.539062 85.644531 L 64.898438 88.421875 C 64.792969 88.535156 64.78125 88.660156 64.859375 88.792969 L 67.449219 93.3125 C 67.523438 93.441406 67.632812 93.492188 67.777344 93.460938 L 71.671875 92.632812 C 73.605469 94.566406 75.890625 95.898438 78.519531 96.632812 L 79.820312 100.558594 C 79.867188 100.703125 79.964844 100.773438 80.117188 100.773438 Z M 71.722656 92.003906 L 67.894531 92.832031 L 65.527344 88.691406 L 68.207031 85.929688 C 68.292969 85.84375 68.316406 85.746094 68.28125 85.628906 C 67.90625 84.292969 67.71875 82.929688 67.71875 81.539062 C 67.710938 80.207031 67.875 78.898438 68.207031 77.605469 C 68.234375 77.5 68.210938 77.40625 68.140625 77.324219 L 65.40625 74.203125 L 67.820312 70.113281 L 71.683594 71.097656 C 71.796875 71.128906 71.898438 71.101562 71.980469 71.015625 C 73.929688 69.019531 76.257812 67.667969 78.960938 66.96875 C 79.078125 66.941406 79.152344 66.867188 79.183594 66.753906 L 80.28125 62.96875 L 85.03125 62.96875 L 86.269531 66.753906 C 86.308594 66.859375 86.378906 66.925781 86.484375 66.960938 C 89.1875 67.652344 91.519531 68.996094 93.472656 70.992188 C 93.554688 71.082031 93.65625 71.109375 93.773438 71.074219 L 97.550781 70.113281 L 99.964844 74.203125 L 97.304688 77.234375 C 97.230469 77.316406 97.210938 77.410156 97.238281 77.515625 C 97.988281 80.21875 97.988281 82.925781 97.238281 85.628906 C 97.203125 85.742188 97.230469 85.84375 97.3125 85.929688 L 99.933594 88.691406 L 97.566406 92.832031 L 93.730469 92.003906 C 93.621094 91.976562 93.527344 92.003906 93.449219 92.089844 C 91.480469 94.101562 89.128906 95.453125 86.402344 96.144531 C 86.285156 96.171875 86.210938 96.246094 86.179688 96.359375 L 85.085938 100.160156 L 80.339844 100.160156 L 79.058594 96.285156 C 79.023438 96.179688 78.949219 96.113281 78.84375 96.078125 C 76.195312 95.375 73.914062 94.046875 71.996094 92.089844 C 71.933594 92.027344 71.859375 92 71.773438 91.996094 Z M 91.570312 81.488281 C 91.570312 80.910156 91.515625 80.332031 91.402344 79.761719 C 91.289062 79.195312 91.121094 78.640625 90.898438 78.101562 C 90.675781 77.566406 90.40625 77.054688 90.082031 76.574219 C 89.761719 76.089844 89.394531 75.640625 88.984375 75.230469 C 88.574219 74.820312 88.128906 74.453125 87.644531 74.128906 C 87.164062 73.804688 86.65625 73.53125 86.117188 73.308594 C 85.582031 73.085938 85.03125 72.917969 84.460938 72.804688 C 83.890625 72.691406 83.316406 72.632812 82.734375 72.632812 C 82.15625 72.628906 81.582031 72.6875 81.011719 72.796875 C 80.441406 72.910156 79.890625 73.078125 79.351562 73.300781 C 78.816406 73.519531 78.304688 73.792969 77.820312 74.113281 C 77.339844 74.433594 76.890625 74.800781 76.480469 75.210938 C 76.070312 75.621094 75.699219 76.066406 75.378906 76.550781 C 75.054688 77.03125 74.78125 77.542969 74.554688 78.078125 C 74.332031 78.613281 74.164062 79.167969 74.046875 79.738281 C 73.933594 80.304688 73.875 80.882812 73.875 81.460938 C 73.871094 82.042969 73.925781 82.621094 74.039062 83.191406 C 74.148438 83.761719 74.316406 84.3125 74.535156 84.851562 C 74.753906 85.390625 75.027344 85.902344 75.347656 86.386719 C 75.667969 86.871094 76.03125 87.316406 76.441406 87.730469 C 76.851562 88.144531 77.296875 88.511719 77.777344 88.835938 C 78.257812 89.160156 78.765625 89.4375 79.300781 89.660156 C 79.835938 89.886719 80.386719 90.054688 80.957031 90.171875 C 81.527344 90.289062 82.101562 90.347656 82.679688 90.347656 C 83.261719 90.347656 83.835938 90.292969 84.40625 90.179688 C 84.976562 90.0625 85.527344 89.894531 86.0625 89.671875 C 86.601562 89.449219 87.109375 89.179688 87.59375 88.855469 C 88.074219 88.53125 88.523438 88.164062 88.933594 87.753906 C 89.34375 87.34375 89.710938 86.898438 90.035156 86.414062 C 90.355469 85.929688 90.628906 85.421875 90.851562 84.886719 C 91.074219 84.347656 91.242188 83.792969 91.359375 83.226562 C 91.472656 82.65625 91.527344 82.078125 91.53125 81.5 Z M 90.953125 81.488281 C 90.953125 82.035156 90.898438 82.570312 90.792969 83.105469 C 90.6875 83.636719 90.53125 84.15625 90.320312 84.660156 C 90.113281 85.160156 89.859375 85.636719 89.558594 86.089844 C 89.257812 86.542969 88.914062 86.960938 88.527344 87.34375 C 88.144531 87.730469 87.726562 88.074219 87.277344 88.375 C 86.824219 88.675781 86.347656 88.929688 85.847656 89.140625 C 85.34375 89.347656 84.828125 89.503906 84.292969 89.609375 C 83.761719 89.714844 83.222656 89.769531 82.679688 89.769531 C 82.136719 89.769531 81.601562 89.714844 81.066406 89.609375 C 80.535156 89.503906 80.019531 89.347656 79.515625 89.140625 C 79.015625 88.929688 78.539062 88.675781 78.085938 88.375 C 77.636719 88.074219 77.21875 87.730469 76.832031 87.34375 C 76.449219 86.960938 76.105469 86.542969 75.804688 86.089844 C 75.503906 85.636719 75.25 85.160156 75.039062 84.660156 C 74.832031 84.15625 74.675781 83.636719 74.570312 83.105469 C 74.464844 82.570312 74.410156 82.035156 74.410156 81.488281 C 74.410156 80.945312 74.464844 80.40625 74.570312 79.875 C 74.675781 79.339844 74.832031 78.824219 75.039062 78.320312 C 75.25 77.820312 75.503906 77.34375 75.804688 76.890625 C 76.105469 76.4375 76.449219 76.019531 76.832031 75.636719 C 77.21875 75.25 77.636719 74.90625 78.085938 74.605469 C 78.539062 74.304688 79.015625 74.046875 79.515625 73.839844 C 80.019531 73.632812 80.535156 73.476562 81.066406 73.371094 C 81.601562 73.261719 82.136719 73.210938 82.679688 73.210938 C 83.222656 73.214844 83.757812 73.269531 84.289062 73.375 C 84.820312 73.484375 85.335938 73.644531 85.835938 73.851562 C 86.335938 74.0625 86.808594 74.320312 87.257812 74.621094 C 87.707031 74.925781 88.125 75.269531 88.503906 75.652344 C 88.886719 76.039062 89.226562 76.457031 89.527344 76.90625 C 89.828125 77.359375 90.082031 77.835938 90.285156 78.335938 C 90.492188 78.839844 90.648438 79.355469 90.753906 79.886719 C 90.859375 80.417969 90.910156 80.957031 90.910156 81.5 Z M 103.363281 127.9375 C 103.21875 127.941406 103.117188 127.871094 103.066406 127.730469 L 102.238281 125.246094 C 100.582031 124.773438 99.136719 123.933594 97.90625 122.722656 L 95.484375 123.226562 C 95.339844 123.253906 95.226562 123.207031 95.152344 123.078125 L 93.5 120.1875 C 93.421875 120.050781 93.4375 119.929688 93.546875 119.816406 L 95.203125 118.078125 C 94.769531 116.386719 94.769531 114.699219 95.203125 113.011719 L 93.472656 111.046875 C 93.386719 110.925781 93.386719 110.804688 93.472656 110.683594 L 95.128906 107.8125 C 95.207031 107.679688 95.320312 107.632812 95.46875 107.671875 L 97.949219 108.292969 C 99.191406 107.0625 100.65625 106.210938 102.339844 105.742188 L 103.035156 103.339844 C 103.078125 103.191406 103.179688 103.117188 103.332031 103.117188 L 106.640625 103.117188 C 106.789062 103.117188 106.890625 103.1875 106.9375 103.332031 L 107.765625 105.734375 C 109.453125 106.199219 110.921875 107.046875 112.171875 108.273438 L 114.5625 107.671875 C 114.710938 107.632812 114.828125 107.679688 114.910156 107.8125 L 116.5625 110.683594 C 116.648438 110.804688 116.648438 110.925781 116.5625 111.046875 L 114.910156 112.960938 C 115.351562 114.667969 115.351562 116.378906 114.910156 118.085938 L 116.5625 119.824219 C 116.679688 119.9375 116.691406 120.0625 116.605469 120.195312 L 114.953125 123.085938 C 114.875 123.214844 114.765625 123.265625 114.621094 123.234375 L 112.1875 122.730469 C 110.933594 123.96875 109.457031 124.820312 107.757812 125.28125 L 107.0625 127.691406 C 107.019531 127.839844 106.921875 127.914062 106.765625 127.914062 Z M 98.03125 122.101562 C 98.117188 122.101562 98.1875 122.132812 98.246094 122.191406 C 99.460938 123.425781 100.90625 124.269531 102.578125 124.71875 C 102.6875 124.746094 102.757812 124.8125 102.792969 124.917969 L 103.621094 127.316406 L 106.492188 127.316406 L 107.160156 124.964844 C 107.195312 124.855469 107.269531 124.78125 107.382812 124.75 C 109.101562 124.316406 110.582031 123.46875 111.824219 122.199219 C 111.90625 122.121094 112.003906 122.089844 112.113281 122.109375 L 114.488281 122.605469 L 115.910156 120.121094 L 114.257812 118.417969 C 114.179688 118.332031 114.152344 118.230469 114.183594 118.117188 C 114.417969 117.269531 114.53125 116.402344 114.519531 115.519531 C 114.519531 114.65625 114.40625 113.808594 114.183594 112.976562 C 114.144531 112.871094 114.167969 112.777344 114.25 112.695312 L 115.902344 110.816406 L 114.4375 108.332031 L 112.105469 108.929688 C 111.988281 108.964844 111.890625 108.9375 111.808594 108.847656 C 110.574219 107.585938 109.101562 106.734375 107.390625 106.296875 C 107.285156 106.269531 107.214844 106.203125 107.175781 106.097656 L 106.410156 103.746094 L 103.53125 103.746094 L 102.851562 106.082031 C 102.820312 106.195312 102.746094 106.269531 102.628906 106.296875 C 100.921875 106.738281 99.457031 107.589844 98.230469 108.855469 C 98.144531 108.941406 98.046875 108.96875 97.929688 108.9375 L 95.542969 108.324219 L 94.085938 110.808594 L 95.738281 112.746094 C 95.808594 112.828125 95.832031 112.921875 95.804688 113.027344 C 95.339844 114.714844 95.339844 116.40625 95.804688 118.09375 C 95.839844 118.207031 95.816406 118.308594 95.730469 118.390625 L 94.078125 120.097656 L 95.507812 122.582031 L 97.882812 122.085938 Z M 104.996094 121.273438 C 104.613281 121.273438 104.238281 121.238281 103.863281 121.164062 C 103.492188 121.089844 103.128906 120.976562 102.777344 120.832031 C 102.425781 120.6875 102.09375 120.507812 101.777344 120.296875 C 101.460938 120.085938 101.167969 119.84375 100.902344 119.574219 C 100.632812 119.308594 100.390625 119.015625 100.179688 118.699219 C 99.96875 118.382812 99.792969 118.046875 99.644531 117.695312 C 99.5 117.34375 99.390625 116.980469 99.316406 116.609375 C 99.242188 116.234375 99.203125 115.859375 99.203125 115.476562 C 99.203125 115.097656 99.242188 114.71875 99.316406 114.347656 C 99.390625 113.972656 99.5 113.613281 99.644531 113.261719 C 99.792969 112.910156 99.96875 112.574219 100.179688 112.257812 C 100.390625 111.941406 100.632812 111.648438 100.902344 111.378906 C 101.167969 111.109375 101.460938 110.871094 101.777344 110.660156 C 102.09375 110.449219 102.425781 110.269531 102.777344 110.125 C 103.128906 109.976562 103.492188 109.867188 103.863281 109.792969 C 104.238281 109.71875 104.613281 109.683594 104.996094 109.683594 C 105.375 109.683594 105.75 109.71875 106.125 109.792969 C 106.496094 109.867188 106.859375 109.976562 107.210938 110.125 C 107.5625 110.269531 107.894531 110.449219 108.210938 110.660156 C 108.527344 110.871094 108.820312 111.109375 109.085938 111.378906 C 109.355469 111.648438 109.597656 111.941406 109.808594 112.257812 C 110.019531 112.574219 110.195312 112.910156 110.34375 113.261719 C 110.488281 113.613281 110.597656 113.972656 110.671875 114.347656 C 110.746094 114.71875 110.785156 115.097656 110.785156 115.476562 C 110.78125 115.859375 110.746094 116.234375 110.671875 116.605469 C 110.597656 116.980469 110.484375 117.34375 110.339844 117.691406 C 110.195312 118.042969 110.015625 118.378906 109.804688 118.695312 C 109.59375 119.007812 109.351562 119.300781 109.085938 119.570312 C 108.816406 119.839844 108.523438 120.078125 108.207031 120.289062 C 107.890625 120.5 107.558594 120.679688 107.207031 120.824219 C 106.855469 120.96875 106.496094 121.078125 106.121094 121.152344 C 105.75 121.226562 105.375 121.265625 104.996094 121.265625 Z M 104.996094 110.34375 C 104.65625 110.34375 104.320312 110.378906 103.988281 110.445312 C 103.65625 110.507812 103.335938 110.609375 103.023438 110.738281 C 102.710938 110.867188 102.414062 111.027344 102.132812 111.214844 C 101.851562 111.402344 101.589844 111.617188 101.351562 111.855469 C 101.113281 112.09375 100.898438 112.355469 100.710938 112.636719 C 100.523438 112.917969 100.363281 113.214844 100.234375 113.527344 C 100.105469 113.839844 100.007812 114.164062 99.941406 114.496094 C 99.875 114.828125 99.84375 115.164062 99.84375 115.503906 C 99.84375 115.839844 99.875 116.175781 99.941406 116.507812 C 100.007812 116.839844 100.105469 117.164062 100.234375 117.476562 C 100.363281 117.789062 100.523438 118.085938 100.710938 118.367188 C 100.898438 118.648438 101.113281 118.910156 101.351562 119.148438 C 101.589844 119.390625 101.851562 119.601562 102.132812 119.792969 C 102.414062 119.980469 102.710938 120.136719 103.023438 120.269531 C 103.335938 120.398438 103.65625 120.496094 103.988281 120.5625 C 104.320312 120.628906 104.65625 120.660156 104.996094 120.660156 C 105.332031 120.660156 105.667969 120.628906 106 120.5625 C 106.332031 120.496094 106.652344 120.398438 106.964844 120.269531 C 107.277344 120.136719 107.574219 119.980469 107.855469 119.792969 C 108.136719 119.601562 108.398438 119.390625 108.636719 119.148438 C 108.875 118.910156 109.089844 118.648438 109.277344 118.367188 C 109.464844 118.085938 109.625 117.789062 109.753906 117.476562 C 109.882812 117.164062 109.980469 116.839844 110.046875 116.507812 C 110.113281 116.175781 110.148438 115.839844 110.148438 115.503906 C 110.148438 115.164062 110.113281 114.828125 110.050781 114.496094 C 109.984375 114.164062 109.886719 113.839844 109.757812 113.527344 C 109.628906 113.210938 109.46875 112.914062 109.28125 112.632812 C 109.09375 112.351562 108.878906 112.089844 108.640625 111.851562 C 108.402344 111.609375 108.140625 111.394531 107.859375 111.207031 C 107.578125 111.019531 107.28125 110.859375 106.96875 110.730469 C 106.65625 110.601562 106.332031 110.5 106 110.433594 C 105.667969 110.371094 105.332031 110.335938 104.996094 110.335938 Z M 104.996094 110.34375 " fill-opacity="1" fill-rule="nonzero"/><g clip-path="url(#7fa699cfeb)"><path fill="#000000" d="M 306.554688 84.265625 L 299.9375 84.265625 C 299.785156 84.257812 299.683594 84.179688 299.640625 84.03125 L 298.226562 79.0625 C 294.78125 78.160156 291.796875 76.445312 289.277344 73.921875 L 284.316406 74.957031 C 284.167969 74.988281 284.054688 74.9375 283.976562 74.808594 L 280.667969 69.078125 C 280.59375 68.945312 280.609375 68.820312 280.710938 68.707031 L 284.160156 65.121094 C 283.695312 63.421875 283.460938 61.691406 283.464844 59.929688 C 283.464844 58.191406 283.691406 56.484375 284.132812 54.804688 L 280.75 50.90625 C 280.652344 50.792969 280.636719 50.671875 280.710938 50.539062 L 284.058594 44.851562 C 284.136719 44.722656 284.25 44.675781 284.398438 44.710938 L 289.304688 45.960938 C 291.808594 43.457031 294.773438 41.746094 298.195312 40.828125 L 299.773438 35.917969 C 299.820312 35.777344 299.921875 35.703125 300.070312 35.703125 L 306.6875 35.703125 C 306.84375 35.703125 306.941406 35.777344 306.984375 35.925781 L 308.414062 40.84375 C 311.828125 41.765625 314.78125 43.480469 317.273438 45.988281 L 322.285156 44.710938 C 322.433594 44.675781 322.546875 44.722656 322.625 44.851562 L 325.980469 50.539062 C 326.054688 50.671875 326.039062 50.792969 325.941406 50.90625 L 322.390625 54.945312 C 322.824219 56.585938 323.039062 58.257812 323.039062 59.953125 C 323.035156 61.71875 322.804688 63.453125 322.34375 65.15625 L 325.78125 68.730469 C 325.890625 68.84375 325.910156 68.96875 325.832031 69.105469 L 322.523438 74.832031 C 322.449219 74.960938 322.339844 75.011719 322.195312 74.980469 L 317.230469 73.949219 C 314.769531 76.414062 311.863281 78.109375 308.507812 79.03125 L 306.851562 84.058594 C 306.804688 84.199219 306.703125 84.269531 306.554688 84.265625 Z M 300.1875 83.625 L 306.332031 83.625 L 307.984375 78.660156 C 308.019531 78.554688 308.09375 78.488281 308.199219 78.460938 C 311.570312 77.558594 314.476562 75.863281 316.925781 73.375 C 317.003906 73.300781 317.097656 73.269531 317.207031 73.285156 L 322.101562 74.328125 L 325.164062 68.996094 L 321.753906 65.453125 C 321.671875 65.367188 321.644531 65.269531 321.679688 65.15625 C 322.636719 61.757812 322.65625 58.355469 321.738281 54.945312 C 321.703125 54.839844 321.722656 54.746094 321.804688 54.664062 L 325.3125 50.664062 L 322.195312 45.367188 L 317.230469 46.632812 C 317.113281 46.667969 317.015625 46.640625 316.933594 46.550781 C 314.449219 44.007812 311.484375 42.289062 308.042969 41.398438 C 307.925781 41.371094 307.855469 41.300781 307.828125 41.183594 L 306.449219 36.324219 L 300.300781 36.324219 L 298.714844 41.183594 C 298.679688 41.289062 298.605469 41.355469 298.5 41.382812 C 295.058594 42.273438 292.097656 43.984375 289.609375 46.527344 C 289.527344 46.613281 289.425781 46.640625 289.3125 46.609375 L 284.457031 45.367188 L 281.339844 50.664062 L 284.746094 54.546875 C 284.816406 54.628906 284.839844 54.722656 284.8125 54.828125 C 283.851562 58.269531 283.851562 61.714844 284.8125 65.15625 C 284.839844 65.265625 284.816406 65.367188 284.738281 65.453125 L 281.332031 68.996094 L 284.390625 74.328125 L 289.3125 73.300781 C 289.421875 73.28125 289.515625 73.3125 289.59375 73.394531 C 292.097656 75.941406 295.078125 77.65625 298.539062 78.535156 C 298.65625 78.5625 298.730469 78.632812 298.765625 78.75 Z M 303.320312 71.042969 C 302.589844 71.042969 301.863281 70.96875 301.148438 70.828125 C 300.429688 70.683594 299.734375 70.472656 299.058594 70.191406 C 298.382812 69.910156 297.738281 69.566406 297.132812 69.160156 C 296.523438 68.753906 295.960938 68.292969 295.441406 67.773438 C 294.925781 67.253906 294.464844 66.691406 294.058594 66.082031 C 293.652344 65.472656 293.308594 64.832031 293.027344 64.15625 C 292.75 63.476562 292.539062 62.78125 292.394531 62.0625 C 292.253906 61.34375 292.179688 60.617188 292.179688 59.886719 C 292.179688 59.152344 292.253906 58.429688 292.394531 57.710938 C 292.539062 56.992188 292.75 56.292969 293.03125 55.617188 C 293.3125 54.941406 293.652344 54.296875 294.0625 53.6875 C 294.46875 53.082031 294.929688 52.515625 295.445312 52 C 295.964844 51.480469 296.527344 51.019531 297.136719 50.613281 C 297.746094 50.207031 298.386719 49.863281 299.0625 49.582031 C 299.738281 49.304688 300.433594 49.09375 301.152344 48.949219 C 301.871094 48.808594 302.59375 48.734375 303.328125 48.734375 C 304.058594 48.738281 304.78125 48.808594 305.5 48.953125 C 306.21875 49.09375 306.914062 49.308594 307.589844 49.585938 C 308.265625 49.867188 308.90625 50.210938 309.515625 50.621094 C 310.125 51.027344 310.6875 51.488281 311.203125 52.007812 C 311.71875 52.527344 312.179688 53.089844 312.585938 53.699219 C 312.992188 54.308594 313.335938 54.949219 313.617188 55.628906 C 313.894531 56.304688 314.105469 57.003906 314.25 57.71875 C 314.390625 58.4375 314.460938 59.164062 314.460938 59.898438 C 314.460938 60.628906 314.386719 61.351562 314.242188 62.070312 C 314.097656 62.789062 313.886719 63.484375 313.605469 64.160156 C 313.324219 64.835938 312.980469 65.476562 312.574219 66.085938 C 312.167969 66.691406 311.707031 67.253906 311.191406 67.773438 C 310.671875 68.289062 310.109375 68.75 309.503906 69.160156 C 308.894531 69.566406 308.253906 69.910156 307.578125 70.1875 C 306.90625 70.46875 306.207031 70.679688 305.492188 70.824219 C 304.777344 70.96875 304.050781 71.039062 303.320312 71.042969 Z M 303.320312 49.367188 C 302.628906 49.363281 301.945312 49.433594 301.269531 49.566406 C 300.589844 49.699219 299.933594 49.898438 299.292969 50.164062 C 298.65625 50.429688 298.050781 50.753906 297.472656 51.136719 C 296.898438 51.519531 296.367188 51.957031 295.878906 52.445312 C 295.390625 52.933594 294.953125 53.464844 294.570312 54.039062 C 294.1875 54.617188 293.859375 55.222656 293.597656 55.859375 C 293.332031 56.5 293.132812 57.160156 292.996094 57.835938 C 292.859375 58.515625 292.792969 59.199219 292.792969 59.890625 C 292.792969 60.582031 292.859375 61.269531 292.996094 61.945312 C 293.128906 62.625 293.328125 63.285156 293.59375 63.921875 C 293.855469 64.5625 294.179688 65.167969 294.5625 65.746094 C 294.945312 66.320312 295.382812 66.851562 295.871094 67.339844 C 296.359375 67.832031 296.890625 68.265625 297.464844 68.652344 C 298.039062 69.035156 298.644531 69.359375 299.285156 69.625 C 299.921875 69.890625 300.578125 70.089844 301.257812 70.226562 C 301.933594 70.359375 302.621094 70.429688 303.308594 70.429688 C 304 70.429688 304.683594 70.363281 305.363281 70.226562 C 306.039062 70.09375 306.699219 69.890625 307.335938 69.628906 C 307.976562 69.363281 308.582031 69.039062 309.15625 68.65625 C 309.730469 68.269531 310.261719 67.832031 310.75 67.34375 C 311.238281 66.855469 311.675781 66.324219 312.058594 65.75 C 312.441406 65.171875 312.765625 64.566406 313.03125 63.929688 C 313.296875 63.289062 313.496094 62.628906 313.628906 61.953125 C 313.765625 61.273438 313.832031 60.589844 313.832031 59.898438 C 313.832031 59.207031 313.761719 58.523438 313.628906 57.84375 C 313.492188 57.167969 313.292969 56.507812 313.027344 55.871094 C 312.765625 55.234375 312.441406 54.625 312.054688 54.050781 C 311.671875 53.476562 311.238281 52.945312 310.75 52.457031 C 310.261719 51.96875 309.730469 51.53125 309.15625 51.148438 C 308.585938 50.765625 307.980469 50.4375 307.339844 50.171875 C 306.703125 49.910156 306.046875 49.707031 305.371094 49.570312 C 304.695312 49.4375 304.011719 49.367188 303.320312 49.367188 Z M 280.082031 111.046875 L 275.863281 111.046875 C 275.707031 111.050781 275.609375 110.976562 275.566406 110.824219 L 274.679688 107.738281 C 272.5 107.136719 270.609375 106.03125 269.015625 104.425781 L 265.890625 105.078125 C 265.746094 105.105469 265.632812 105.058594 265.558594 104.929688 L 263.457031 101.261719 C 263.386719 101.128906 263.398438 101.007812 263.5 100.898438 L 265.660156 98.644531 C 265.375 97.558594 265.234375 96.457031 265.238281 95.332031 C 265.234375 94.234375 265.371094 93.152344 265.652344 92.089844 L 263.484375 89.605469 C 263.394531 89.484375 263.394531 89.367188 263.484375 89.25 L 265.625 85.605469 C 265.707031 85.476562 265.824219 85.429688 265.972656 85.464844 L 269.042969 86.292969 C 270.632812 84.710938 272.511719 83.625 274.671875 83.039062 L 275.683594 79.957031 C 275.726562 79.8125 275.828125 79.742188 275.980469 79.742188 L 280.199219 79.742188 C 280.351562 79.746094 280.449219 79.820312 280.496094 79.964844 L 281.386719 83.046875 C 283.542969 83.640625 285.414062 84.726562 286.996094 86.308594 L 290.136719 85.480469 C 290.289062 85.441406 290.40625 85.488281 290.484375 85.621094 L 292.628906 89.265625 C 292.710938 89.382812 292.710938 89.503906 292.628906 89.621094 L 290.394531 92.164062 C 290.953125 94.316406 290.953125 96.472656 290.394531 98.628906 L 292.554688 100.871094 C 292.664062 100.980469 292.679688 101.101562 292.601562 101.238281 L 290.492188 104.90625 C 290.417969 105.03125 290.308594 105.082031 290.164062 105.054688 L 286.945312 104.425781 C 285.382812 105.976562 283.542969 107.050781 281.421875 107.644531 L 280.378906 110.800781 C 280.34375 110.960938 280.246094 111.042969 280.082031 111.046875 Z M 276.097656 110.410156 L 279.859375 110.410156 L 280.882812 107.304688 C 280.917969 107.199219 280.992188 107.132812 281.097656 107.105469 C 283.234375 106.539062 285.074219 105.464844 286.625 103.886719 C 286.703125 103.808594 286.796875 103.777344 286.90625 103.796875 L 289.972656 104.441406 L 291.84375 101.128906 L 289.726562 98.925781 C 289.644531 98.839844 289.621094 98.742188 289.652344 98.628906 C 290.246094 96.472656 290.246094 94.316406 289.652344 92.164062 C 289.625 92.050781 289.648438 91.957031 289.726562 91.871094 L 291.910156 89.390625 L 290.03125 86.210938 L 286.945312 87.039062 C 286.832031 87.0625 286.734375 87.035156 286.648438 86.953125 C 285.082031 85.34375 283.207031 84.253906 281.03125 83.683594 C 280.917969 83.65625 280.84375 83.585938 280.808594 83.46875 L 279.925781 80.414062 L 276.160156 80.414062 L 275.167969 83.445312 C 275.132812 83.550781 275.0625 83.617188 274.953125 83.644531 C 272.773438 84.203125 270.894531 85.289062 269.324219 86.90625 C 269.238281 86.984375 269.136719 87.011719 269.023438 86.988281 L 266.015625 86.210938 L 264.097656 89.453125 L 266.222656 91.871094 C 266.300781 91.957031 266.324219 92.050781 266.289062 92.164062 C 265.691406 94.34375 265.691406 96.523438 266.289062 98.703125 C 266.320312 98.816406 266.296875 98.917969 266.210938 99 L 264.097656 101.203125 L 265.964844 104.515625 L 269.03125 103.871094 C 269.144531 103.851562 269.242188 103.882812 269.324219 103.960938 C 270.90625 105.578125 272.792969 106.664062 274.988281 107.214844 C 275.097656 107.25 275.171875 107.320312 275.210938 107.429688 Z M 278.015625 102.59375 C 277.539062 102.59375 277.070312 102.546875 276.605469 102.457031 C 276.136719 102.363281 275.6875 102.226562 275.246094 102.042969 C 274.808594 101.863281 274.390625 101.640625 273.996094 101.375 C 273.601562 101.113281 273.238281 100.8125 272.902344 100.476562 C 272.566406 100.140625 272.265625 99.777344 272 99.378906 C 271.738281 98.984375 271.515625 98.570312 271.332031 98.128906 C 271.148438 97.691406 271.011719 97.238281 270.917969 96.773438 C 270.824219 96.308594 270.777344 95.835938 270.777344 95.359375 C 270.777344 94.886719 270.824219 94.414062 270.914062 93.949219 C 271.007812 93.484375 271.144531 93.03125 271.324219 92.589844 C 271.503906 92.152344 271.726562 91.734375 271.988281 91.335938 C 272.253906 90.941406 272.550781 90.574219 272.886719 90.238281 C 273.222656 89.902344 273.585938 89.601562 273.980469 89.335938 C 274.375 89.070312 274.789062 88.847656 275.226562 88.664062 C 275.664062 88.480469 276.117188 88.34375 276.582031 88.25 C 277.046875 88.15625 277.519531 88.105469 277.992188 88.105469 C 278.46875 88.105469 278.9375 88.148438 279.402344 88.238281 C 279.871094 88.332031 280.320312 88.46875 280.761719 88.648438 C 281.199219 88.828125 281.617188 89.050781 282.011719 89.3125 C 282.410156 89.574219 282.773438 89.875 283.113281 90.207031 C 283.449219 90.542969 283.75 90.90625 284.015625 91.300781 C 284.28125 91.695312 284.503906 92.113281 284.6875 92.550781 C 284.871094 92.988281 285.011719 93.441406 285.105469 93.90625 C 285.199219 94.371094 285.25 94.839844 285.25 95.316406 C 285.25 95.792969 285.207031 96.265625 285.113281 96.734375 C 285.023438 97.199219 284.886719 97.65625 284.703125 98.097656 C 284.523438 98.535156 284.300781 98.957031 284.039062 99.351562 C 283.773438 99.75 283.472656 100.117188 283.136719 100.453125 C 282.800781 100.789062 282.4375 101.09375 282.039062 101.359375 C 281.644531 101.625 281.226562 101.847656 280.789062 102.03125 C 280.347656 102.214844 279.894531 102.351562 279.429688 102.445312 C 278.960938 102.539062 278.492188 102.585938 278.015625 102.585938 Z M 278.015625 88.734375 C 277.578125 88.734375 277.148438 88.777344 276.722656 88.863281 C 276.296875 88.945312 275.882812 89.074219 275.484375 89.238281 C 275.082031 89.40625 274.699219 89.609375 274.339844 89.851562 C 273.976562 90.09375 273.644531 90.367188 273.335938 90.675781 C 273.027344 90.980469 272.753906 91.316406 272.511719 91.679688 C 272.273438 92.039062 272.066406 92.421875 271.902344 92.824219 C 271.734375 93.226562 271.609375 93.640625 271.523438 94.066406 C 271.441406 94.492188 271.398438 94.921875 271.398438 95.359375 C 271.398438 95.792969 271.441406 96.222656 271.523438 96.652344 C 271.609375 97.078125 271.734375 97.492188 271.902344 97.894531 C 272.066406 98.296875 272.273438 98.675781 272.511719 99.039062 C 272.753906 99.398438 273.027344 99.734375 273.335938 100.042969 C 273.644531 100.347656 273.976562 100.625 274.339844 100.867188 C 274.699219 101.105469 275.082031 101.3125 275.484375 101.476562 C 275.882812 101.644531 276.296875 101.769531 276.722656 101.855469 C 277.148438 101.941406 277.578125 101.980469 278.015625 101.980469 C 278.449219 101.980469 278.878906 101.941406 279.304688 101.855469 C 279.730469 101.769531 280.144531 101.644531 280.546875 101.476562 C 280.949219 101.3125 281.328125 101.105469 281.691406 100.867188 C 282.050781 100.625 282.386719 100.347656 282.691406 100.042969 C 283 99.734375 283.273438 99.398438 283.515625 99.039062 C 283.757812 98.675781 283.960938 98.296875 284.125 97.894531 C 284.292969 97.492188 284.417969 97.078125 284.503906 96.652344 C 284.589844 96.222656 284.628906 95.792969 284.628906 95.359375 C 284.632812 94.921875 284.59375 94.488281 284.511719 94.058594 C 284.429688 93.632812 284.304688 93.214844 284.140625 92.8125 C 283.972656 92.40625 283.769531 92.023438 283.53125 91.660156 C 283.289062 91.292969 283.015625 90.957031 282.707031 90.648438 C 282.398438 90.339844 282.066406 90.0625 281.703125 89.816406 C 281.339844 89.574219 280.957031 89.371094 280.554688 89.203125 C 280.152344 89.035156 279.738281 88.90625 279.308594 88.820312 C 278.882812 88.734375 278.449219 88.691406 278.015625 88.691406 Z M 278.015625 88.734375 " fill-opacity="1" fill-rule="nonzero"/></g><path fill="#ffffff" d="M 273.886719 146.003906 L 269.421875 188.132812 L 270.597656 249.539062 L 255.320312 249.539062 L 249.679688 186.714844 C 249.679688 186.714844 252.03125 145.070312 252.03125 144.367188 Z M 273.886719 146.003906 " fill-opacity="1" fill-rule="nonzero"/><path fill="#000000" d="M 270.597656 249.855469 L 255.320312 249.855469 C 255.132812 249.855469 255.027344 249.761719 255.007812 249.574219 L 249.367188 186.75 C 249.367188 186.285156 251.714844 145.050781 251.714844 144.367188 C 251.722656 144.289062 251.753906 144.222656 251.804688 144.167969 C 251.875 144.105469 251.953125 144.074219 252.046875 144.082031 L 273.902344 145.738281 C 273.988281 145.75 274.058594 145.785156 274.121094 145.847656 C 274.171875 145.914062 274.195312 145.992188 274.183594 146.078125 L 269.71875 188.207031 L 270.902344 249.582031 C 270.902344 249.667969 270.871094 249.742188 270.8125 249.804688 C 270.746094 249.847656 270.671875 249.863281 270.597656 249.855469 Z M 255.601562 249.234375 L 270.28125 249.234375 L 269.109375 188.132812 L 273.546875 146.292969 L 252.328125 144.695312 C 252.136719 148.628906 250.078125 185.109375 249.988281 186.730469 Z M 255.601562 249.234375 " fill-opacity="1" fill-rule="nonzero"/><path fill="#26b1d8" d="M 224.058594 155.203125 L 234.636719 155.203125 L 234.636719 166.695312 L 224.058594 166.695312 Z M 224.058594 155.203125 " fill-opacity="1" fill-rule="nonzero"/><path fill="#26b1d8" d="M 185.164062 118.308594 L 195.742188 118.308594 L 195.742188 129.074219 L 185.164062 129.074219 Z M 185.164062 118.308594 " fill-opacity="1" fill-rule="nonzero"/><path fill="#ffffff" d="M 230.304688 179.769531 L 240.882812 145.324219 L 265.003906 145.324219 L 224.648438 249.425781 L 209.132812 249.425781 Z M 230.304688 179.769531 " fill-opacity="1" fill-rule="nonzero"/><path fill="#000000" d="M 224.648438 249.738281 L 209.132812 249.738281 C 209.027344 249.738281 208.945312 249.699219 208.882812 249.617188 C 208.804688 249.53125 208.777344 249.429688 208.800781 249.316406 L 229.957031 179.667969 L 240.535156 145.226562 C 240.582031 145.082031 240.679688 145.011719 240.832031 145.011719 L 264.957031 145.011719 C 265.0625 145.011719 265.148438 145.054688 265.210938 145.144531 C 265.257812 145.238281 265.257812 145.335938 265.210938 145.433594 L 224.9375 249.539062 C 224.882812 249.667969 224.785156 249.734375 224.648438 249.738281 Z M 209.554688 249.117188 L 224.441406 249.117188 L 264.542969 145.625 L 241.097656 145.625 L 230.585938 179.84375 Z M 209.554688 249.117188 " fill-opacity="1" fill-rule="nonzero"/><path fill="#ffffff" d="M 218.675781 139.464844 L 218.632812 139.71875 C 218.460938 140.871094 216.808594 150.9375 212.421875 151.0625 L 212.375 151.0625 C 208.089844 151.0625 193.558594 136.226562 191.292969 133.882812 L 185.644531 133.882812 L 178.203125 124.941406 L 178.457031 124.636719 C 178.945312 124.101562 179.550781 123.800781 180.269531 123.742188 C 180.855469 123.726562 181.371094 123.90625 181.824219 124.277344 C 182.097656 124.035156 182.410156 123.875 182.765625 123.796875 C 183.617188 123.660156 184.394531 123.839844 185.097656 124.335938 C 185.296875 124.191406 185.519531 124.09375 185.761719 124.046875 C 186.628906 123.960938 187.382812 124.210938 188.027344 124.800781 L 188.109375 124.859375 L 188.886719 126.226562 C 189.410156 126.054688 189.902344 126.125 190.359375 126.433594 C 190.867188 126.804688 191.316406 127.238281 191.707031 127.730469 C 192.734375 127.617188 196.230469 127.359375 198.191406 129.320312 C 199.953125 131.085938 206.75 137.21875 208.835938 139.097656 L 210.25 132.054688 Z M 218.675781 139.464844 " fill-opacity="1" fill-rule="nonzero"/><path fill="#000000" d="M 212.433594 151.371094 C 208.046875 151.371094 194.15625 137.292969 191.160156 134.199219 L 185.644531 134.199219 C 185.546875 134.195312 185.46875 134.15625 185.40625 134.082031 L 177.960938 125.140625 C 177.847656 125.003906 177.847656 124.871094 177.960938 124.734375 L 178.226562 124.4375 C 178.765625 123.824219 179.441406 123.492188 180.253906 123.433594 C 180.824219 123.414062 181.34375 123.5625 181.816406 123.890625 C 182.085938 123.699219 182.378906 123.566406 182.699219 123.492188 C 183.5625 123.335938 184.359375 123.496094 185.089844 123.972656 C 185.28125 123.859375 185.484375 123.78125 185.703125 123.742188 C 186.652344 123.648438 187.480469 123.925781 188.183594 124.570312 L 188.257812 124.625 C 188.296875 124.652344 188.324219 124.683594 188.339844 124.726562 L 189.011719 125.886719 C 189.546875 125.785156 190.042969 125.886719 190.5 126.191406 C 190.988281 126.542969 191.425781 126.957031 191.804688 127.425781 C 193.039062 127.300781 196.421875 127.160156 198.371094 129.082031 C 200.066406 130.738281 206.519531 136.605469 208.609375 138.488281 L 209.910156 131.980469 C 209.929688 131.859375 210 131.78125 210.117188 131.746094 C 210.226562 131.710938 210.324219 131.730469 210.414062 131.804688 L 218.859375 139.257812 C 218.945312 139.332031 218.984375 139.425781 218.964844 139.539062 L 218.925781 139.796875 C 218.652344 141.683594 216.964844 151.246094 212.433594 151.371094 Z M 185.777344 133.578125 L 191.292969 133.578125 C 191.378906 133.578125 191.453125 133.609375 191.515625 133.667969 C 199.140625 141.550781 209.171875 150.757812 212.375 150.757812 C 215.765625 150.65625 217.707031 143.746094 218.328125 139.671875 L 218.328125 139.589844 L 210.457031 132.640625 L 209.125 139.199219 C 209.101562 139.316406 209.03125 139.394531 208.917969 139.429688 C 208.804688 139.464844 208.699219 139.441406 208.609375 139.363281 C 206.570312 137.519531 199.746094 131.367188 197.949219 129.570312 C 196.15625 127.773438 192.722656 127.964844 191.730469 128.078125 C 191.617188 128.09375 191.523438 128.054688 191.449219 127.964844 C 191.078125 127.496094 190.652344 127.082031 190.167969 126.730469 C 189.792969 126.476562 189.390625 126.417969 188.960938 126.554688 C 188.804688 126.605469 188.679688 126.558594 188.597656 126.414062 L 187.828125 125.082031 C 187.253906 124.554688 186.578125 124.324219 185.800781 124.386719 C 185.605469 124.417969 185.429688 124.496094 185.273438 124.617188 C 185.152344 124.699219 185.035156 124.699219 184.917969 124.617188 C 184.285156 124.167969 183.585938 124 182.816406 124.113281 C 182.503906 124.175781 182.226562 124.316406 181.988281 124.527344 C 181.859375 124.640625 181.730469 124.640625 181.601562 124.527344 C 181.203125 124.199219 180.75 124.042969 180.234375 124.054688 C 179.597656 124.117188 179.070312 124.394531 178.65625 124.882812 L 178.566406 124.984375 Z M 185.777344 133.578125 " fill-opacity="1" fill-rule="nonzero"/><path fill="#26b1d8" d="M 274.003906 145.425781 C 260.316406 163.144531 238.625 153.125 238.625 153.125 L 222.414062 133.0625 L 218.417969 140.589844 L 208.3125 136.589844 L 211.019531 124.710938 C 211.332031 123.214844 211.953125 121.855469 212.878906 120.640625 C 213.804688 119.425781 214.945312 118.464844 216.300781 117.761719 L 230.757812 112.945312 C 239.457031 112.480469 244.15625 115.0625 244.15625 115.0625 C 244.636719 115.503906 255.246094 122.011719 255.246094 122.011719 L 253.59375 125.320312 C 261.871094 133.757812 274.003906 145.425781 274.003906 145.425781 Z M 274.003906 145.425781 " fill-opacity="1" fill-rule="nonzero"/><path fill="#ffffff" d="M 230.1875 114.929688 L 230.1875 115.03125 L 230.128906 115.121094 C 229.207031 116.539062 227.941406 117.507812 226.335938 118.027344 C 225.328125 118.261719 224.3125 118.371094 223.28125 118.359375 C 222.6875 118.363281 222.09375 118.332031 221.503906 118.269531 L 221.222656 118.269531 L 219.617188 114.128906 C 217.285156 115.082031 215.285156 115.015625 213.664062 113.9375 C 208.941406 110.800781 209.207031 100.167969 209.214844 99.722656 L 209.214844 99.398438 L 223.6875 94.191406 L 225.621094 100.476562 C 226.035156 100.363281 226.445312 100.367188 226.855469 100.488281 C 227.265625 100.609375 227.613281 100.828125 227.898438 101.144531 C 229.011719 102.644531 227.476562 105.90625 227.011719 106.816406 C 230.230469 114.601562 230.210938 114.773438 230.1875 114.929688 Z M 230.1875 114.929688 " fill-opacity="1" fill-rule="nonzero"/><path fill="#000000" d="M 223.273438 118.664062 C 222.667969 118.667969 222.066406 118.636719 221.464844 118.574219 L 221.183594 118.574219 C 221.054688 118.566406 220.96875 118.5 220.925781 118.382812 L 219.4375 114.574219 C 217.128906 115.402344 215.128906 115.328125 213.480469 114.234375 C 208.609375 111 208.882812 100.210938 208.902344 99.753906 L 208.902344 99.433594 C 208.90625 99.292969 208.976562 99.199219 209.105469 99.152344 L 223.570312 93.933594 C 223.652344 93.898438 223.730469 93.898438 223.8125 93.933594 C 223.890625 93.976562 223.941406 94.039062 223.96875 94.125 L 225.828125 100.160156 C 226.257812 100.082031 226.679688 100.113281 227.089844 100.261719 C 227.503906 100.410156 227.847656 100.652344 228.128906 100.988281 C 229.269531 102.519531 228.011719 105.507812 227.300781 106.859375 C 230.511719 114.59375 230.484375 114.75 230.453125 114.996094 L 230.453125 115.097656 C 230.445312 115.140625 230.429688 115.183594 230.402344 115.222656 L 230.351562 115.3125 C 229.394531 116.804688 228.066406 117.816406 226.375 118.351562 C 225.355469 118.582031 224.320312 118.6875 223.273438 118.664062 Z M 221.4375 117.945312 L 221.527344 117.945312 C 221.660156 117.945312 222.355469 118.027344 223.273438 118.027344 C 224.28125 118.042969 225.273438 117.9375 226.25 117.703125 C 227.78125 117.210938 228.984375 116.289062 229.855469 114.941406 L 229.855469 114.875 C 229.855469 114.609375 228.863281 112.15625 226.691406 106.925781 C 226.652344 106.835938 226.652344 106.75 226.691406 106.660156 C 227.65625 104.78125 228.402344 102.386719 227.609375 101.320312 C 227.355469 101.050781 227.050781 100.863281 226.691406 100.765625 C 226.335938 100.664062 225.980469 100.664062 225.621094 100.765625 C 225.445312 100.796875 225.332031 100.726562 225.285156 100.550781 L 223.449219 94.570312 L 209.488281 99.613281 L 209.488281 99.722656 C 209.488281 100.160156 209.207031 110.617188 213.796875 113.671875 C 215.328125 114.691406 217.238281 114.75 219.460938 113.839844 C 219.542969 113.804688 219.621094 113.804688 219.703125 113.839844 C 219.78125 113.875 219.835938 113.929688 219.867188 114.011719 Z M 230.171875 115.03125 Z M 230.171875 115.03125 " fill-opacity="1" fill-rule="nonzero"/><path fill="#000000" d="M 228.246094 103.796875 C 227.691406 101.195312 224.25 101.964844 223.738281 104.136719 C 223.222656 106.304688 221.667969 106.320312 221.667969 106.320312 C 220.800781 104.636719 220.058594 102.898438 219.445312 101.105469 C 218.824219 99.007812 217.335938 100.160156 217.335938 100.160156 C 215.683594 102.40625 214.027344 103.140625 212.621094 103.273438 C 212.214844 103.304688 211.816406 103.273438 211.417969 103.1875 C 211.019531 103.101562 210.644531 102.957031 210.285156 102.761719 C 209.929688 102.5625 209.609375 102.320312 209.324219 102.03125 C 209.039062 101.738281 208.800781 101.414062 208.609375 101.054688 C 205.734375 95.820312 211.96875 92.003906 214.722656 91.121094 C 216.882812 90.40625 221.984375 89.519531 225.761719 92.320312 C 231.511719 96.535156 228.246094 103.796875 228.246094 103.796875 Z M 228.246094 103.796875 " fill-opacity="1" fill-rule="nonzero"/><path fill="#a36357" d="M 60.640625 255.023438 L 59.203125 255.023438 L 58.375 260.121094 L 37.699219 258.242188 L 43.8125 252.828125 L 45.878906 252.679688 L 45.671875 251.3125 L 57.324219 245.882812 L 61.949219 250.277344 Z M 60.640625 255.023438 " fill-opacity="1" fill-rule="nonzero"/><path fill="#000000" d="M 47.773438 252.835938 C 47.773438 252.835938 41.519531 252.835938 40.503906 258.410156 L 26.726562 260.824219 C 26.59375 260.851562 26.464844 260.828125 26.347656 260.765625 C 26.226562 260.703125 26.140625 260.609375 26.085938 260.484375 C 26.03125 260.363281 26.019531 260.234375 26.050781 260.105469 C 26.085938 259.972656 26.15625 259.867188 26.261719 259.78125 L 43.628906 246.4375 C 43.757812 246.335938 43.902344 246.269531 44.0625 246.238281 C 44.226562 246.203125 44.382812 246.210938 44.542969 246.253906 C 44.699219 246.292969 44.839844 246.371094 44.964844 246.476562 C 45.085938 246.585938 45.179688 246.714844 45.242188 246.867188 Z M 47.773438 252.835938 " fill-opacity="1" fill-rule="nonzero"/><path fill="#26b1d8" d="M 150.800781 196.925781 L 140.488281 199.277344 L 138.191406 189.199219 L 148.503906 186.847656 Z M 150.800781 196.925781 " fill-opacity="1" fill-rule="nonzero"/><path fill="#a36357" d="M 142.722656 199.332031 L 142.832031 199.847656 L 131.890625 200.824219 L 105.878906 219.800781 C 105.472656 220.097656 105.023438 220.316406 104.539062 220.453125 C 104.054688 220.59375 103.5625 220.644531 103.058594 220.609375 C 102.558594 220.574219 102.074219 220.457031 101.613281 220.25 C 101.15625 220.046875 100.742188 219.769531 100.378906 219.417969 L 88.933594 208.359375 L 97.847656 199.945312 L 105.679688 207.785156 L 126.214844 196.460938 L 130.09375 192.046875 C 130.972656 191.046875 132.039062 190.324219 133.292969 189.878906 L 142.847656 186.484375 L 142.730469 187.261719 C 142.613281 187.792969 142.417969 188.296875 142.148438 188.769531 C 141.878906 189.242188 141.542969 189.664062 141.140625 190.035156 C 140.742188 190.402344 140.296875 190.707031 139.804688 190.9375 C 139.3125 191.171875 138.796875 191.328125 138.257812 191.402344 L 135.636719 193.8125 C 135.476562 194.425781 135.570312 194.996094 135.917969 195.523438 C 136.4375 196.238281 137.570312 196.617188 139.222656 196.617188 C 139.628906 196.609375 140.019531 196.667969 140.402344 196.796875 C 140.785156 196.921875 141.132812 197.109375 141.453125 197.355469 C 141.769531 197.605469 142.039062 197.898438 142.257812 198.234375 C 142.476562 198.574219 142.628906 198.941406 142.722656 199.332031 Z M 142.722656 199.332031 " fill-opacity="1" fill-rule="nonzero"/><path fill="#ffffff" d="M 75.980469 224.835938 C 75.980469 224.835938 105.621094 233.363281 116.753906 246.0625 C 119.152344 248.796875 117.351562 256.132812 112.179688 256.132812 L 66.820312 253.078125 Z M 75.980469 224.835938 " fill-opacity="1" fill-rule="nonzero"/><path fill="#000000" d="M 112.179688 256.445312 L 66.792969 253.382812 C 66.695312 253.375 66.617188 253.332031 66.5625 253.25 C 66.515625 253.160156 66.515625 253.066406 66.5625 252.976562 L 75.652344 224.742188 C 75.714844 224.558594 75.84375 224.492188 76.03125 224.535156 C 76.328125 224.628906 105.886719 233.238281 116.953125 245.855469 C 118.300781 247.386719 118.457031 250.300781 117.332031 252.785156 C 117.132812 253.3125 116.863281 253.800781 116.519531 254.246094 C 116.175781 254.691406 115.773438 255.074219 115.3125 255.402344 C 114.855469 255.726562 114.359375 255.980469 113.824219 256.15625 C 113.292969 256.335938 112.742188 256.429688 112.179688 256.445312 Z M 67.234375 252.792969 L 112.199219 255.824219 C 112.703125 255.808594 113.195312 255.722656 113.671875 255.558594 C 114.152344 255.398438 114.597656 255.167969 115.007812 254.875 C 115.417969 254.578125 115.773438 254.230469 116.082031 253.828125 C 116.386719 253.425781 116.628906 252.988281 116.804688 252.511719 C 117.8125 250.277344 117.695312 247.585938 116.523438 246.253906 C 106.160156 234.414062 79.265625 226.132812 76.179688 225.222656 Z M 67.234375 252.792969 " fill-opacity="1" fill-rule="nonzero"/><path fill="#26b1d8" d="M 101.042969 201.957031 L 92.265625 214.261719 L 86.957031 209.160156 L 85.574219 228.824219 L 51.800781 229.554688 L 56.152344 217.027344 L 47.433594 210.890625 L 51.386719 201.585938 L 49.433594 200.847656 L 56.09375 189.621094 C 56.714844 188.566406 57.53125 187.695312 58.546875 187.003906 C 59.558594 186.316406 60.671875 185.878906 61.882812 185.6875 L 74.824219 183.609375 L 74.988281 183.890625 C 74.988281 183.941406 77.472656 188.1875 80.53125 188.503906 C 81.855469 188.636719 83.128906 188.015625 84.335938 186.640625 L 84.65625 186.277344 L 93.9375 195.085938 Z M 101.042969 201.957031 " fill-opacity="1" fill-rule="nonzero"/><path fill="#ffffff" d="M 67.523438 227.65625 C 78.132812 228.371094 104.183594 242.957031 108.1875 249.316406 C 108.992188 250.539062 109.550781 251.859375 109.871094 253.285156 C 110.1875 254.714844 110.242188 256.152344 110.03125 257.597656 C 109.953125 258.085938 109.789062 258.550781 109.546875 258.980469 C 109.300781 259.414062 108.992188 259.789062 108.609375 260.109375 C 108.230469 260.429688 107.808594 260.671875 107.339844 260.839844 C 106.875 261.007812 106.390625 261.089844 105.894531 261.082031 L 54.148438 261.082031 C 52.976562 257.082031 55.554688 249.550781 55.554688 249.550781 C 40.511719 242.023438 53.074219 227.070312 53.074219 227.070312 Z M 67.523438 227.65625 " fill-opacity="1" fill-rule="nonzero"/><path fill="#000000" d="M 105.929688 261.390625 L 54.148438 261.390625 C 53.992188 261.390625 53.894531 261.316406 53.851562 261.164062 C 52.769531 257.488281 54.726562 251.082031 55.183594 249.699219 C 51.179688 247.636719 48.789062 244.847656 48.078125 241.417969 C 46.632812 234.382812 52.59375 227.175781 52.851562 226.878906 C 52.914062 226.796875 52.996094 226.757812 53.097656 226.765625 L 67.554688 227.367188 C 78.132812 228.070312 104.488281 242.824219 108.46875 249.160156 C 109.28125 250.40625 109.847656 251.753906 110.167969 253.207031 C 110.492188 254.660156 110.546875 256.125 110.335938 257.597656 C 110.253906 258.125 110.085938 258.621094 109.828125 259.085938 C 109.570312 259.554688 109.238281 259.960938 108.832031 260.308594 C 108.429688 260.65625 107.976562 260.921875 107.476562 261.109375 C 106.976562 261.296875 106.460938 261.386719 105.929688 261.390625 Z M 54.363281 260.769531 L 105.929688 260.769531 C 106.386719 260.769531 106.828125 260.6875 107.253906 260.53125 C 107.683594 260.375 108.070312 260.148438 108.417969 259.851562 C 108.765625 259.554688 109.054688 259.210938 109.277344 258.8125 C 109.503906 258.414062 109.652344 257.988281 109.726562 257.539062 C 109.925781 256.128906 109.867188 254.730469 109.554688 253.339844 C 109.242188 251.949219 108.691406 250.660156 107.90625 249.476562 C 103.976562 243.222656 77.933594 228.667969 67.480469 227.949219 L 53.191406 227.351562 C 52.429688 228.3125 47.351562 234.984375 48.648438 241.253906 C 49.335938 244.566406 51.691406 247.253906 55.65625 249.242188 C 55.816406 249.324219 55.867188 249.453125 55.8125 249.625 C 55.804688 249.714844 53.378906 256.851562 54.363281 260.769531 Z M 54.363281 260.769531 " fill-opacity="1" fill-rule="nonzero"/><path fill="#a36357" d="M 90.058594 236.070312 C 89.910156 236.210938 89.738281 236.296875 89.535156 236.332031 C 89.335938 236.363281 89.144531 236.335938 88.957031 236.253906 L 73.765625 229.488281 L 47.847656 220.265625 C 47.574219 220.167969 47.316406 220.042969 47.066406 219.894531 C 46.820312 219.742188 46.589844 219.570312 46.378906 219.375 C 46.164062 219.175781 45.976562 218.960938 45.804688 218.726562 C 45.636719 218.492188 45.492188 218.242188 45.375 217.976562 C 45.257812 217.714844 45.167969 217.441406 45.105469 217.15625 C 45.042969 216.875 45.007812 216.589844 45.003906 216.300781 C 44.996094 216.011719 45.019531 215.722656 45.074219 215.4375 C 45.125 215.152344 45.207031 214.878906 45.316406 214.609375 L 50.71875 201.296875 L 61.105469 205.691406 L 57.796875 212.894531 L 76.816406 224.386719 L 82.550781 225.257812 C 83.226562 225.363281 83.859375 225.59375 84.445312 225.953125 C 85.035156 226.3125 85.527344 226.769531 85.929688 227.328125 L 89.058594 231.671875 L 90.289062 234.984375 C 90.363281 235.171875 90.375 235.367188 90.335938 235.5625 C 90.292969 235.757812 90.199219 235.929688 90.058594 236.070312 Z M 90.058594 236.070312 " fill-opacity="1" fill-rule="nonzero"/><path fill="#000000" d="M 378.28125 246.230469 C 378.410156 246.34375 378.503906 246.484375 378.566406 246.644531 C 378.628906 246.804688 378.652344 246.96875 378.636719 247.140625 C 378.621094 247.3125 378.566406 247.472656 378.476562 247.617188 C 378.386719 247.765625 378.269531 247.882812 378.125 247.976562 L 358.707031 260.304688 C 358.585938 260.378906 358.457031 260.40625 358.316406 260.394531 C 358.175781 260.378906 358.054688 260.320312 357.953125 260.226562 C 357.851562 260.128906 357.789062 260.007812 357.769531 259.871094 C 357.746094 259.730469 357.769531 259.601562 357.839844 259.476562 L 365.199219 246.757812 C 371.027344 247.761719 373.3125 241.609375 373.3125 241.609375 Z M 378.28125 246.230469 " fill-opacity="1" fill-rule="nonzero"/><path fill="#000000" d="M 321.417969 122.308594 C 323.964844 119.445312 321.035156 114.714844 321.324219 110.914062 C 322.234375 99.019531 334.261719 98.851562 334.261719 98.851562 C 344.746094 100.003906 345.191406 109.226562 345.34375 113.472656 C 345.648438 121.8125 348.972656 123.410156 351.371094 126.25 C 353.769531 129.089844 355.910156 136.449219 350.941406 140.183594 C 339.75 148.597656 321.324219 146.195312 317.820312 138.222656 C 315.691406 133.402344 317.058594 127.21875 321.417969 122.308594 Z M 321.417969 122.308594 " fill-opacity="1" fill-rule="nonzero"/><path fill="#f4e3e0" d="M 327.742188 128.660156 L 328.910156 121.695312 C 326.601562 121.398438 325.015625 120.429688 324.195312 118.816406 C 321.789062 114.078125 326.925781 105.476562 327.148438 105.113281 L 327.898438 103.851562 L 327.992188 105.320312 C 328.339844 111.113281 336.574219 111.792969 336.660156 111.792969 C 337.113281 111.765625 337.542969 111.863281 337.941406 112.085938 C 338.339844 112.308594 338.644531 112.621094 338.859375 113.027344 C 339.585938 114.683594 337.578125 117.464844 336.964844 118.242188 L 339.246094 128.683594 Z M 327.742188 128.660156 " fill-opacity="1" fill-rule="nonzero"/><path fill="#f4e3e0" d="M 325.964844 143.453125 L 313.246094 157.164062 C 312.777344 157.675781 312.222656 158.070312 311.589844 158.347656 C 310.953125 158.625 310.289062 158.761719 309.597656 158.761719 C 309.421875 158.777344 309.246094 158.777344 309.070312 158.761719 C 308.289062 158.683594 307.566406 158.433594 306.902344 158.015625 C 306.242188 157.59375 305.707031 157.046875 305.304688 156.371094 L 295.464844 139.945312 L 300.179688 136.988281 L 308.761719 147.75 L 313.839844 139.761719 Z M 325.964844 143.453125 " fill-opacity="1" fill-rule="nonzero"/><path fill="#26b1d8" d="M 372.300781 238.238281 L 361.660156 244.722656 L 333.679688 204.195312 L 332.65625 200.152344 L 329.40625 209.179688 L 329.695312 228.3125 L 315.488281 230.878906 L 314.171875 206.164062 L 319.5625 167.347656 L 324.054688 166.28125 L 323.226562 163.183594 L 342.664062 162.722656 C 347.75 175.222656 348.90625 199.980469 348.90625 199.980469 Z M 372.300781 238.238281 " fill-opacity="1" fill-rule="nonzero"/><path fill="#ffffff" d="M 347.738281 172.820312 L 347.738281 173.179688 L 347.402344 173.253906 C 347.261719 173.253906 333.464844 176.28125 329.429688 176.835938 C 327.867188 177.046875 326.292969 177.152344 324.714844 177.152344 C 321.691406 177.167969 318.710938 176.808594 315.777344 176.074219 L 315.386719 175.96875 L 320.257812 144.855469 L 311.871094 141.796875 L 317.902344 131.210938 C 318.507812 130.132812 319.363281 129.320312 320.464844 128.765625 C 322.945312 127.5 325.277344 125.585938 327.636719 124.046875 C 330.035156 128.445312 335.078125 126.878906 338.46875 124.691406 L 338.726562 124.527344 L 338.980469 124.703125 C 349.542969 132.003906 347.839844 171.15625 347.738281 172.820312 Z M 347.738281 172.820312 " fill-opacity="1" fill-rule="nonzero"/><path fill="#000000" d="M 324.722656 177.457031 C 321.671875 177.476562 318.664062 177.113281 315.703125 176.375 L 315.3125 176.265625 C 315.136719 176.214844 315.0625 176.101562 315.089844 175.917969 L 319.917969 145.0625 L 311.773438 142.097656 C 311.679688 142.066406 311.617188 142 311.589844 141.90625 C 311.550781 141.820312 311.550781 141.734375 311.589844 141.648438 L 317.621094 131.058594 C 318.261719 129.929688 319.160156 129.074219 320.316406 128.484375 C 321.957031 127.597656 323.527344 126.589844 325.023438 125.472656 C 325.847656 124.910156 326.675781 124.320312 327.453125 123.816406 C 327.535156 123.777344 327.617188 123.777344 327.703125 123.816406 C 327.789062 123.839844 327.855469 123.886719 327.898438 123.964844 C 328.203125 124.578125 328.617188 125.101562 329.144531 125.535156 C 329.671875 125.96875 330.265625 126.273438 330.925781 126.449219 C 333.753906 127.160156 337.023438 125.320312 338.296875 124.503906 L 338.550781 124.335938 C 338.664062 124.257812 338.777344 124.257812 338.890625 124.335938 L 339.148438 124.511719 C 349.839844 131.90625 348.136719 171.234375 348.0625 172.90625 L 348.0625 173.253906 C 348.058594 173.414062 347.972656 173.511719 347.816406 173.542969 L 347.476562 173.617188 C 347.34375 173.617188 333.5 176.65625 329.480469 177.210938 C 327.898438 177.398438 326.316406 177.480469 324.722656 177.457031 Z M 315.742188 175.738281 L 315.867188 175.777344 C 318.773438 176.5 321.726562 176.855469 324.722656 176.835938 C 326.289062 176.84375 327.847656 176.738281 329.398438 176.53125 C 333.390625 175.976562 347.203125 172.972656 347.34375 172.945312 L 347.449219 172.945312 L 347.449219 172.832031 C 347.523438 171.175781 349.21875 132.1875 338.800781 124.984375 L 338.71875 124.925781 L 338.644531 124.984375 C 337.296875 125.8125 333.847656 127.78125 330.777344 127.011719 C 330.089844 126.835938 329.464844 126.53125 328.898438 126.101562 C 328.335938 125.667969 327.878906 125.144531 327.527344 124.527344 C 326.816406 125.007812 326.089844 125.519531 325.386719 126.019531 C 323.867188 127.15625 322.273438 128.179688 320.605469 129.082031 C 319.558594 129.613281 318.746094 130.386719 318.167969 131.40625 L 312.320312 141.675781 L 320.359375 144.605469 C 320.519531 144.664062 320.585938 144.777344 320.566406 144.945312 Z M 347.738281 173.144531 Z M 347.738281 173.144531 " fill-opacity="1" fill-rule="nonzero"/><path fill="#26b1d8" d="M 283.125 120.253906 L 317.59375 120.253906 L 317.59375 155.378906 L 283.125 155.378906 Z M 283.125 120.253906 " fill-opacity="1" fill-rule="nonzero"/><path fill="#f4e3e0" d="M 342.84375 146.351562 L 336.039062 159.167969 C 335.773438 159.671875 335.414062 160.089844 334.960938 160.429688 C 334.507812 160.773438 334.003906 161 333.449219 161.113281 C 333.191406 161.167969 332.933594 161.195312 332.671875 161.199219 C 331.785156 161.199219 330.992188 160.921875 330.296875 160.371094 L 312.34375 145.972656 L 308.894531 145.234375 L 303.703125 142.636719 L 303.644531 142.476562 C 303.410156 141.996094 303.410156 141.511719 303.644531 141.027344 C 303.707031 140.9375 303.785156 140.855469 303.875 140.789062 C 303.648438 140.367188 303.59375 139.925781 303.71875 139.464844 C 303.78125 139.300781 303.882812 139.164062 304.023438 139.058594 C 303.980469 138.722656 304.035156 138.40625 304.183594 138.105469 C 304.335938 137.800781 304.558594 137.566406 304.851562 137.402344 C 304.582031 137.027344 304.519531 136.621094 304.660156 136.183594 C 304.777344 135.929688 305.066406 135.628906 305.785156 135.628906 C 305.925781 135.628906 306.167969 135.628906 309.492188 137.683594 L 310.871094 138.3125 L 310.210938 137.210938 C 309.984375 137.132812 309.78125 137.019531 309.597656 136.867188 C 309.410156 136.71875 309.257812 136.539062 309.136719 136.335938 C 309.015625 136.132812 308.929688 135.914062 308.882812 135.679688 C 308.839844 135.445312 308.832031 135.210938 308.871094 134.976562 L 308.96875 134.496094 L 312.277344 135.40625 L 312.367188 135.488281 C 313.6875 136.820312 314.875 138.265625 315.925781 139.820312 L 315.925781 139.886719 L 316.371094 141.003906 L 329.546875 149.390625 L 333.515625 141.691406 Z M 342.84375 146.351562 " fill-opacity="1" fill-rule="nonzero"/><path fill="#000000" d="M 252.90625 156.28125 C 247.871094 156.238281 243.015625 155.28125 238.34375 153.40625 C 238.175781 153.3125 238.132812 153.179688 238.210938 153.003906 C 238.289062 152.832031 238.417969 152.773438 238.597656 152.835938 C 238.820312 152.941406 261.085938 162.636719 273.707031 145.484375 C 273.757812 145.414062 273.824219 145.375 273.910156 145.363281 C 273.992188 145.351562 274.070312 145.375 274.136719 145.425781 C 274.207031 145.472656 274.25 145.539062 274.261719 145.625 C 274.273438 145.710938 274.253906 145.789062 274.203125 145.855469 C 268.148438 154.101562 259.945312 156.28125 252.90625 156.28125 Z M 252.90625 156.28125 " fill-opacity="1" fill-rule="nonzero"/><path fill="#ffffff" d="M 268.769531 135.480469 C 268.792969 136.152344 268.679688 136.796875 268.4375 137.421875 C 268.191406 138.046875 267.828125 138.59375 267.355469 139.066406 L 246.015625 160.210938 L 242.46875 164.351562 L 236.191406 168.863281 L 225.277344 168.863281 C 224.773438 168.871094 224.402344 168.652344 224.160156 168.210938 C 223.90625 167.777344 223.90625 167.34375 224.160156 166.910156 C 224.503906 166.367188 224.992188 166.03125 225.621094 165.902344 L 232.933594 164.433594 L 235.289062 161.488281 L 233.058594 160.269531 C 232.796875 160.132812 232.605469 159.925781 232.484375 159.65625 C 232.367188 159.386719 232.34375 159.109375 232.414062 158.820312 C 232.488281 158.535156 232.640625 158.300781 232.875 158.121094 C 233.109375 157.9375 233.375 157.851562 233.667969 157.851562 L 238.757812 157.925781 L 254.832031 136.277344 L 246.324219 130.597656 L 254.417969 121.886719 L 267.03125 132.046875 C 267.546875 132.472656 267.953125 132.984375 268.253906 133.582031 C 268.558594 134.179688 268.726562 134.8125 268.769531 135.480469 Z M 268.769531 135.480469 " fill-opacity="1" fill-rule="nonzero"/><path fill="#000000" d="M 236.199219 169.144531 L 225.277344 169.144531 C 224.988281 169.144531 224.71875 169.070312 224.472656 168.921875 C 224.222656 168.777344 224.03125 168.578125 223.890625 168.324219 C 223.75 168.070312 223.6875 167.800781 223.695312 167.511719 C 223.703125 167.222656 223.78125 166.957031 223.9375 166.710938 C 224.324219 166.09375 224.875 165.710938 225.589844 165.5625 L 232.785156 164.121094 L 234.851562 161.554688 L 232.941406 160.519531 C 232.613281 160.347656 232.378906 160.09375 232.230469 159.753906 C 232.082031 159.417969 232.058594 159.070312 232.15625 158.714844 C 232.246094 158.359375 232.4375 158.074219 232.726562 157.851562 C 233.011719 157.628906 233.339844 157.519531 233.703125 157.523438 L 238.664062 157.585938 L 254.453125 136.324219 L 246.183594 130.828125 C 246.105469 130.773438 246.058594 130.699219 246.042969 130.605469 C 246.035156 130.511719 246.0625 130.425781 246.125 130.355469 L 254.230469 121.644531 C 254.289062 121.589844 254.359375 121.5625 254.441406 121.5625 C 254.523438 121.5625 254.59375 121.589844 254.652344 121.644531 L 267.28125 131.746094 C 267.546875 131.976562 267.792969 132.230469 268.007812 132.507812 C 268.222656 132.789062 268.410156 133.085938 268.5625 133.402344 C 268.71875 133.722656 268.839844 134.050781 268.921875 134.394531 C 269.007812 134.738281 269.058594 135.085938 269.074219 135.4375 C 269.085938 135.792969 269.0625 136.140625 269.003906 136.492188 C 268.945312 136.839844 268.851562 137.175781 268.722656 137.503906 C 268.59375 137.835938 268.429688 138.144531 268.238281 138.441406 C 268.042969 138.734375 267.820312 139.007812 267.570312 139.257812 L 246.242188 160.402344 L 242.710938 164.519531 L 236.375 169.089844 C 236.320312 169.125 236.265625 169.144531 236.199219 169.144531 Z M 233.71875 158.132812 C 233.496094 158.132812 233.296875 158.199219 233.121094 158.335938 C 232.945312 158.472656 232.828125 158.648438 232.773438 158.863281 C 232.714844 159.078125 232.730469 159.289062 232.816406 159.492188 C 232.90625 159.699219 233.046875 159.855469 233.238281 159.964844 L 235.472656 161.179688 C 235.558594 161.222656 235.613281 161.292969 235.628906 161.386719 C 235.648438 161.484375 235.625 161.570312 235.5625 161.644531 L 233.207031 164.601562 C 233.160156 164.660156 233.097656 164.695312 233.023438 164.707031 L 225.714844 166.171875 C 225.179688 166.277344 224.761719 166.550781 224.457031 167 C 224.253906 167.324219 224.246094 167.652344 224.433594 167.988281 C 224.617188 168.320312 224.902344 168.484375 225.285156 168.484375 L 236.09375 168.484375 L 242.296875 164.039062 L 245.792969 159.988281 L 267.132812 138.816406 C 267.570312 138.382812 267.90625 137.875 268.136719 137.300781 C 268.367188 136.722656 268.472656 136.125 268.453125 135.507812 C 268.429688 134.878906 268.277344 134.285156 268.003906 133.722656 C 267.730469 133.160156 267.359375 132.675781 266.882812 132.269531 L 254.476562 122.332031 L 246.84375 130.503906 L 255.054688 135.988281 C 255.128906 136.035156 255.171875 136.101562 255.1875 136.183594 C 255.203125 136.273438 255.183594 136.355469 255.128906 136.425781 L 239.054688 158.085938 C 238.988281 158.167969 238.902344 158.210938 238.796875 158.207031 Z M 233.71875 158.132812 " fill-opacity="1" fill-rule="nonzero"/><g clip-path="url(#35b9bb87cd)"><path fill="#000000" d="M 331.902344 263.136719 C 331.976562 263.824219 322.410156 263.964844 318.96875 264.039062 C 315.527344 264.113281 313.039062 264.378906 313.179688 262.820312 C 313.261719 261.785156 316.03125 260.917969 318.28125 260.378906 C 320.386719 259.878906 322.398438 259.128906 324.320312 258.136719 L 324.988281 257.789062 C 325.167969 254.964844 324.878906 252.1875 324.128906 249.460938 C 323.378906 246.730469 322.203125 244.199219 320.605469 241.867188 C 316.882812 238.472656 315.476562 230.878906 315.476562 230.878906 L 329.710938 228.253906 C 329.710938 228.253906 330.089844 234.605469 328.726562 239.101562 C 328.519531 241.203125 327.378906 253.40625 328.609375 257.6875 C 328.875 259.203125 331.851562 262.6875 331.902344 263.136719 Z M 331.902344 263.136719 " fill-opacity="1" fill-rule="nonzero"/></g></svg>