<svg xmlns="http://www.w3.org/2000/svg" xmlns:xlink="http://www.w3.org/1999/xlink" width="540" zoomAndPan="magnify" viewBox="0 0 404.88 299.999988" height="400" preserveAspectRatio="xMidYMid meet" version="1.0"><defs><clipPath id="9cefc1456d"><path d="M 326 154 L 374.890625 154 L 374.890625 241 L 326 241 Z M 326 154 " clip-rule="nonzero"/></clipPath><clipPath id="255e827ac8"><path d="M 241 231 L 249 231 L 249 252.597656 L 241 252.597656 Z M 241 231 " clip-rule="nonzero"/></clipPath><clipPath id="e68349e5ca"><path d="M 167 235 L 237 235 L 237 252.597656 L 167 252.597656 Z M 167 235 " clip-rule="nonzero"/></clipPath><clipPath id="9c98e2cb1d"><path d="M 167 235 L 238 235 L 238 252.597656 L 167 252.597656 Z M 167 235 " clip-rule="nonzero"/></clipPath><clipPath id="83cd2a5f0b"><path d="M 142 212 L 226 212 L 226 252.597656 L 142 252.597656 Z M 142 212 " clip-rule="nonzero"/></clipPath><clipPath id="bd1568b27f"><path d="M 269 47.15625 L 300 47.15625 L 300 78 L 269 78 Z M 269 47.15625 " clip-rule="nonzero"/></clipPath></defs><path fill="#ffffff" d="M 112.660156 241.152344 L 111.394531 245.332031 C 108.941406 247.144531 102.710938 245.957031 102.710938 245.957031 L 104.40625 240.914062 Z M 71.167969 245.925781 L 72.863281 240.777344 L 64.953125 240.21875 L 63.257812 244.914062 C 64.742188 247.136719 71.167969 245.925781 71.167969 245.925781 Z M 71.167969 245.925781 " fill-opacity="1" fill-rule="nonzero"/><path fill="#000000" d="M 338.230469 238.726562 C 338.230469 238.726562 335.859375 249.746094 335.683594 250.238281 C 335.503906 250.730469 318.316406 251.027344 318.628906 249.925781 C 318.941406 248.824219 326.371094 245.984375 326.371094 245.984375 L 327.636719 237.9375 Z M 361.742188 238.886719 L 362.054688 246.296875 C 362.054688 246.296875 354.949219 248.664062 354.628906 249.925781 C 354.304688 251.1875 373.105469 250.238281 373.105469 250.238281 L 372.792969 238.566406 Z M 361.742188 238.886719 " fill-opacity="1" fill-rule="nonzero"/><path fill="#26b1d8" d="M 150.796875 68.101562 L 150.796875 86.023438 C 150.796875 86.164062 150.765625 86.296875 150.710938 86.425781 C 150.65625 86.554688 150.578125 86.664062 150.476562 86.761719 C 150.378906 86.859375 150.261719 86.933594 150.132812 86.980469 C 150 87.03125 149.867188 87.054688 149.726562 87.050781 L 117.277344 87.050781 C 117.070312 87.050781 116.878906 87.105469 116.707031 87.21875 L 100.496094 97.886719 C 100.304688 98.011719 100.097656 98.070312 99.871094 98.054688 C 99.640625 98.042969 99.441406 97.964844 99.265625 97.820312 C 99.089844 97.671875 98.976562 97.488281 98.925781 97.265625 C 98.875 97.046875 98.894531 96.832031 98.984375 96.621094 L 102.4375 88.484375 C 102.503906 88.324219 102.53125 88.160156 102.515625 87.988281 C 102.496094 87.816406 102.441406 87.65625 102.347656 87.511719 C 102.25 87.371094 102.125 87.257812 101.976562 87.175781 C 101.824219 87.09375 101.660156 87.050781 101.488281 87.050781 L 93.746094 87.050781 C 93.609375 87.050781 93.476562 87.023438 93.351562 86.972656 C 93.226562 86.921875 93.113281 86.847656 93.015625 86.75 C 92.921875 86.652344 92.84375 86.542969 92.792969 86.417969 C 92.738281 86.292969 92.710938 86.160156 92.710938 86.023438 L 92.710938 68.101562 C 92.710938 67.964844 92.738281 67.832031 92.792969 67.707031 C 92.84375 67.582031 92.921875 67.46875 93.015625 67.375 C 93.113281 67.277344 93.226562 67.203125 93.351562 67.152344 C 93.476562 67.101562 93.609375 67.074219 93.746094 67.074219 L 149.769531 67.074219 C 150.050781 67.078125 150.292969 67.175781 150.492188 67.378906 C 150.691406 67.578125 150.792969 67.816406 150.796875 68.101562 Z M 150.796875 68.101562 " fill-opacity="1" fill-rule="nonzero"/><path fill="#f2dcd1" d="M 308.460938 140.269531 C 304.546875 139.566406 295.667969 135.421875 294.242188 134.480469 C 293.847656 134.273438 293.542969 133.976562 293.332031 133.589844 C 293.117188 133.199219 293.027344 132.785156 293.0625 132.34375 C 291.875 131.757812 292.824219 130.453125 292.824219 130.453125 C 292.722656 130.371094 292.628906 130.28125 292.550781 130.179688 C 292.46875 130.074219 292.402344 129.964844 292.351562 129.84375 C 292.300781 129.726562 292.265625 129.601562 292.242188 129.472656 C 292.222656 129.34375 292.21875 129.214844 292.230469 129.085938 C 292.242188 128.957031 292.269531 128.832031 292.3125 128.707031 C 292.355469 128.585938 292.414062 128.46875 292.488281 128.363281 C 292.558594 128.253906 292.644531 128.15625 292.742188 128.070312 C 292.839844 127.984375 292.945312 127.910156 293.0625 127.851562 C 295.941406 129.34375 298.980469 130.371094 302.179688 130.925781 C 302.179688 130.925781 297.5625 125.246094 298.511719 124.773438 C 299.460938 124.296875 305.734375 130.214844 306.914062 131.285156 C 308.09375 132.351562 312.246094 132.582031 312.246094 132.582031 Z M 308.460938 140.269531 " fill-opacity="1" fill-rule="nonzero"/><g clip-path="url(#9cefc1456d)"><path fill="#e5bfa7" d="M 357.515625 239.574219 L 352.074219 208.203125 C 345.496094 225.429688 339.671875 240.074219 339.671875 240.074219 L 326.566406 238.777344 L 335.054688 164.164062 L 370.425781 154.949219 C 370.144531 157.332031 368.601562 162.527344 366.351562 169.226562 L 366.714844 168.277344 L 374.296875 239.414062 Z M 357.515625 239.574219 " fill-opacity="1" fill-rule="nonzero"/></g><path fill="#26b1d8" d="M 337.457031 112.351562 C 337.457031 112.351562 333.90625 110.816406 336.277344 107.027344 C 338.644531 103.234375 343.144531 102.058594 343.617188 97.800781 C 344.09375 93.542969 334.492188 86.777344 334.492188 86.777344 C 334.492188 86.777344 334.851562 80.15625 344.679688 80.632812 C 354.507812 81.105469 354.746094 90.570312 353.921875 96.953125 C 353.101562 103.335938 352.496094 105 355.933594 108.910156 C 359.375 112.816406 359.957031 118.015625 357.945312 120.378906 C 355.933594 122.746094 349.066406 123.464844 349.066406 123.464844 L 341.011719 120.863281 Z M 337.457031 112.351562 " fill-opacity="1" fill-rule="nonzero"/><path fill="#26b1d8" d="M 295.921875 239.292969 C 296.910156 241.074219 297.570312 242.964844 297.90625 244.972656 C 298.242188 246.976562 298.234375 248.984375 297.882812 250.984375 L 297.816406 251.292969 L 288.417969 251.292969 L 288.417969 251.375 L 254.933594 251.375 L 254.890625 251.035156 C 254.660156 248.3125 254.808594 245.613281 255.332031 242.929688 C 255.886719 239.8125 256.847656 236.824219 258.203125 233.960938 C 259.5625 231.097656 261.273438 228.464844 263.335938 226.058594 C 263.792969 224.867188 264.019531 223.636719 264.019531 222.363281 C 264.019531 221.085938 263.792969 219.855469 263.335938 218.664062 C 262.191406 215.554688 261.257812 207.644531 264.347656 203.539062 C 264.707031 203.058594 265.125 202.632812 265.601562 202.261719 C 266.078125 201.890625 266.59375 201.589844 267.148438 201.355469 C 267.703125 201.121094 268.28125 200.964844 268.878906 200.886719 C 269.472656 200.804688 270.070312 200.804688 270.667969 200.886719 C 271.972656 200.941406 273.203125 201.265625 274.363281 201.859375 C 275.523438 202.449219 276.507812 203.257812 277.316406 204.277344 C 280.820312 208.609375 281.167969 216.265625 280.398438 221.496094 C 279.863281 224.792969 279.996094 228.0625 280.789062 231.308594 C 283.417969 229.484375 283.734375 227.6875 284.132812 225.371094 C 284.25 224.683594 284.371094 223.972656 284.566406 223.210938 C 285.574219 219.15625 289.800781 216.257812 293.425781 217.121094 C 294.386719 217.429688 295.234375 217.929688 295.960938 218.625 C 296.691406 219.320312 297.234375 220.136719 297.585938 221.082031 C 298.148438 222.390625 298.386719 223.753906 298.292969 225.175781 C 298.199219 226.597656 297.789062 227.921875 297.058594 229.144531 C 294.359375 233.75 295.777344 238.828125 295.921875 239.292969 Z M 295.921875 239.292969 " fill-opacity="1" fill-rule="nonzero"/><path fill="#26b1d8" d="M 274.394531 192.09375 L 173.578125 192.09375 C 173.203125 192.09375 172.832031 192.054688 172.460938 191.984375 C 172.09375 191.910156 171.734375 191.800781 171.386719 191.65625 C 171.039062 191.511719 170.710938 191.335938 170.394531 191.128906 C 170.082031 190.917969 169.792969 190.683594 169.527344 190.417969 C 169.261719 190.152344 169.023438 189.863281 168.816406 189.550781 C 168.605469 189.238281 168.429688 188.90625 168.285156 188.558594 C 168.140625 188.210938 168.035156 187.855469 167.960938 187.484375 C 167.886719 187.117188 167.851562 186.746094 167.851562 186.371094 L 167.851562 90.398438 C 167.851562 90.023438 167.886719 89.652344 167.960938 89.28125 C 168.035156 88.914062 168.140625 88.554688 168.285156 88.207031 C 168.429688 87.859375 168.605469 87.53125 168.816406 87.21875 C 169.023438 86.90625 169.261719 86.617188 169.527344 86.347656 C 169.792969 86.082031 170.082031 85.84375 170.394531 85.636719 C 170.707031 85.425781 171.039062 85.25 171.386719 85.105469 C 171.734375 84.960938 172.09375 84.851562 172.460938 84.777344 C 172.832031 84.707031 173.203125 84.667969 173.578125 84.667969 L 274.394531 84.667969 C 274.773438 84.667969 275.144531 84.703125 275.515625 84.777344 C 275.886719 84.851562 276.242188 84.960938 276.59375 85.105469 C 276.941406 85.246094 277.269531 85.425781 277.582031 85.632812 C 277.898438 85.84375 278.1875 86.082031 278.453125 86.347656 C 278.71875 86.613281 278.957031 86.902344 279.167969 87.214844 C 279.375 87.527344 279.554688 87.859375 279.699219 88.207031 C 279.839844 88.554688 279.949219 88.910156 280.023438 89.28125 C 280.097656 89.648438 280.132812 90.023438 280.132812 90.398438 L 280.132812 186.371094 C 280.132812 186.746094 280.097656 187.117188 280.023438 187.488281 C 279.949219 187.855469 279.839844 188.214844 279.695312 188.558594 C 279.550781 188.90625 279.375 189.238281 279.164062 189.550781 C 278.953125 189.863281 278.71875 190.152344 278.449219 190.417969 C 278.183594 190.683594 277.894531 190.921875 277.582031 191.128906 C 277.269531 191.335938 276.9375 191.511719 276.589844 191.65625 C 276.242188 191.800781 275.882812 191.910156 275.515625 191.984375 C 275.144531 192.054688 274.773438 192.09375 274.394531 192.09375 Z M 274.394531 192.09375 " fill-opacity="1" fill-rule="nonzero"/><path fill="#000000" d="M 268.71875 187.675781 L 167.902344 187.675781 C 167.503906 187.675781 167.109375 187.636719 166.722656 187.558594 C 166.332031 187.480469 165.953125 187.367188 165.585938 187.214844 C 165.21875 187.0625 164.871094 186.878906 164.539062 186.660156 C 164.210938 186.4375 163.90625 186.1875 163.625 185.90625 C 163.34375 185.628906 163.09375 185.324219 162.871094 184.992188 C 162.652344 184.664062 162.464844 184.316406 162.3125 183.949219 C 162.160156 183.582031 162.042969 183.207031 161.964844 182.816406 C 161.886719 182.429688 161.847656 182.035156 161.847656 181.636719 L 161.847656 85.660156 C 161.847656 85.261719 161.886719 84.871094 161.964844 84.480469 C 162.042969 84.09375 162.160156 83.714844 162.3125 83.347656 C 162.464844 82.984375 162.652344 82.632812 162.871094 82.304688 C 163.09375 81.976562 163.34375 81.671875 163.625 81.390625 C 163.90625 81.109375 164.210938 80.859375 164.539062 80.640625 C 164.871094 80.417969 165.21875 80.234375 165.585938 80.082031 C 165.953125 79.929688 166.332031 79.816406 166.722656 79.738281 C 167.109375 79.660156 167.503906 79.621094 167.902344 79.621094 L 268.71875 79.621094 C 269.113281 79.621094 269.507812 79.660156 269.898438 79.738281 C 270.285156 79.816406 270.664062 79.929688 271.03125 80.082031 C 271.398438 80.234375 271.746094 80.417969 272.078125 80.640625 C 272.40625 80.859375 272.710938 81.109375 272.992188 81.390625 C 273.273438 81.671875 273.527344 81.976562 273.746094 82.304688 C 273.96875 82.632812 274.152344 82.984375 274.304688 83.347656 C 274.457031 83.714844 274.574219 84.09375 274.652344 84.480469 C 274.730469 84.871094 274.769531 85.261719 274.769531 85.660156 L 274.769531 181.636719 C 274.769531 182.035156 274.730469 182.429688 274.652344 182.816406 C 274.574219 183.207031 274.457031 183.582031 274.304688 183.949219 C 274.152344 184.316406 273.96875 184.664062 273.746094 184.992188 C 273.527344 185.324219 273.273438 185.628906 272.992188 185.90625 C 272.710938 186.1875 272.40625 186.4375 272.078125 186.660156 C 271.746094 186.878906 271.398438 187.0625 271.03125 187.214844 C 270.664062 187.367188 270.285156 187.480469 269.898438 187.558594 C 269.507812 187.636719 269.113281 187.675781 268.71875 187.675781 Z M 167.902344 80.226562 C 167.542969 80.222656 167.1875 80.257812 166.835938 80.324219 C 166.488281 80.394531 166.144531 80.496094 165.816406 80.632812 C 165.484375 80.765625 165.167969 80.933594 164.871094 81.132812 C 164.574219 81.332031 164.300781 81.554688 164.046875 81.808594 C 163.792969 82.0625 163.566406 82.335938 163.367188 82.632812 C 163.171875 82.929688 163.003906 83.246094 162.867188 83.574219 C 162.730469 83.90625 162.628906 84.246094 162.558594 84.597656 C 162.492188 84.949219 162.457031 85.300781 162.460938 85.660156 L 162.460938 181.636719 C 162.460938 181.992188 162.496094 182.34375 162.566406 182.691406 C 162.636719 183.039062 162.738281 183.378906 162.875 183.707031 C 163.011719 184.035156 163.179688 184.34375 163.375 184.640625 C 163.574219 184.933594 163.796875 185.207031 164.050781 185.457031 C 164.300781 185.707031 164.574219 185.933594 164.871094 186.128906 C 165.164062 186.328125 165.476562 186.492188 165.804688 186.628906 C 166.132812 186.765625 166.472656 186.867188 166.820312 186.9375 C 167.167969 187.003906 167.519531 187.039062 167.875 187.039062 L 268.71875 187.039062 C 269.074219 187.039062 269.425781 187.003906 269.773438 186.933594 C 270.121094 186.863281 270.457031 186.761719 270.785156 186.625 C 271.113281 186.492188 271.425781 186.324219 271.722656 186.128906 C 272.015625 185.929688 272.289062 185.707031 272.542969 185.457031 C 272.792969 185.203125 273.015625 184.933594 273.214844 184.636719 C 273.414062 184.34375 273.578125 184.03125 273.714844 183.703125 C 273.851562 183.378906 273.957031 183.039062 274.027344 182.691406 C 274.097656 182.34375 274.132812 181.992188 274.132812 181.636719 L 274.132812 85.660156 C 274.132812 85.304688 274.101562 84.949219 274.03125 84.601562 C 273.964844 84.25 273.859375 83.914062 273.726562 83.582031 C 273.589844 83.253906 273.421875 82.941406 273.226562 82.644531 C 273.027344 82.347656 272.804688 82.074219 272.554688 81.820312 C 272.300781 81.566406 272.027344 81.34375 271.730469 81.144531 C 271.4375 80.945312 271.125 80.777344 270.792969 80.640625 C 270.464844 80.503906 270.125 80.402344 269.777344 80.332031 C 269.425781 80.261719 269.074219 80.226562 268.71875 80.226562 Z M 167.902344 80.226562 " fill-opacity="1" fill-rule="nonzero"/><path fill="#ffffff" d="M 46.875 202.800781 L 38.917969 205.34375 C 38.539062 205.46875 38.148438 205.511719 37.75 205.480469 C 37.351562 205.445312 36.976562 205.339844 36.621094 205.15625 C 36.265625 204.972656 35.960938 204.730469 35.703125 204.421875 C 35.445312 204.117188 35.253906 203.777344 35.132812 203.394531 L 31.347656 191.464844 C 31.234375 191.109375 31.191406 190.742188 31.214844 190.371094 C 31.238281 189.996094 31.332031 189.640625 31.488281 189.296875 C 31.644531 188.957031 31.855469 188.660156 32.125 188.398438 C 32.394531 188.136719 32.699219 187.933594 33.046875 187.785156 L 40.449219 184.640625 Z M 46.875 202.800781 " fill-opacity="1" fill-rule="nonzero"/><path fill="#000000" d="M 37.996094 205.820312 C 37.457031 205.816406 36.945312 205.691406 36.464844 205.445312 C 35.644531 205.023438 35.09375 204.371094 34.820312 203.488281 L 31.050781 191.558594 C 30.925781 191.164062 30.871094 190.761719 30.898438 190.347656 C 30.921875 189.933594 31.019531 189.539062 31.191406 189.160156 C 31.367188 188.785156 31.601562 188.453125 31.898438 188.164062 C 32.195312 187.875 32.535156 187.648438 32.917969 187.488281 L 40.320312 184.34375 C 40.40625 184.308594 40.488281 184.308594 40.574219 184.34375 C 40.65625 184.382812 40.714844 184.445312 40.746094 184.53125 L 47.171875 202.691406 C 47.210938 202.773438 47.210938 202.855469 47.171875 202.9375 C 47.132812 203.019531 47.070312 203.074219 46.984375 203.097656 L 39.039062 205.640625 C 38.699219 205.757812 38.351562 205.816406 37.996094 205.820312 Z M 40.226562 185.0625 L 33.171875 188.074219 C 32.863281 188.203125 32.589844 188.386719 32.347656 188.617188 C 32.105469 188.851562 31.914062 189.121094 31.773438 189.425781 C 31.632812 189.730469 31.554688 190.046875 31.53125 190.382812 C 31.511719 190.71875 31.550781 191.042969 31.652344 191.363281 L 35.421875 203.300781 C 35.652344 204.007812 36.101562 204.527344 36.765625 204.863281 C 37.425781 205.210938 38.113281 205.265625 38.828125 205.03125 L 46.464844 202.582031 Z M 40.226562 185.0625 " fill-opacity="1" fill-rule="nonzero"/><path fill="#ffffff" d="M 212.855469 126.316406 L 236.546875 129.402344 L 219.492188 146.433594 L 205.273438 148.128906 L 205.988281 131.335938 Z M 212.855469 126.316406 " fill-opacity="1" fill-rule="nonzero"/><path fill="#000000" d="M 205.273438 148.402344 C 205.195312 148.398438 205.125 148.371094 205.0625 148.316406 C 204.988281 148.25 204.957031 148.167969 204.960938 148.070312 L 205.664062 131.265625 C 205.675781 131.167969 205.71875 131.085938 205.800781 131.027344 L 212.667969 126.050781 C 212.738281 126.007812 212.816406 125.992188 212.898438 126 L 236.589844 129.070312 C 236.71875 129.089844 236.804688 129.164062 236.84375 129.292969 C 236.894531 129.417969 236.867188 129.523438 236.765625 129.613281 L 219.714844 146.648438 C 219.660156 146.699219 219.601562 146.730469 219.527344 146.738281 L 205.316406 148.4375 Z M 206.300781 131.445312 L 205.613281 147.714844 L 219.332031 146.121094 L 235.859375 129.621094 L 212.941406 126.644531 Z M 206.300781 131.445312 " fill-opacity="1" fill-rule="nonzero"/><path fill="#000000" d="M 74.519531 135.066406 C 74.519531 135.066406 72.382812 129.976562 76.21875 126.316406 C 80.054688 122.652344 83.085938 122.167969 84.984375 117.082031 C 86.886719 111.996094 86.878906 104.421875 97.660156 104.542969 C 108.441406 104.660156 107.609375 113.867188 106.777344 117.320312 C 105.945312 120.769531 105 125.601562 107.011719 129.511719 C 109.023438 133.421875 108.195312 140.269531 105.238281 140.746094 C 102.285156 141.21875 74.519531 135.066406 74.519531 135.066406 Z M 74.519531 135.066406 " fill-opacity="1" fill-rule="nonzero"/><path fill="#000000" d="M 107.285156 246.195312 C 105.757812 246.195312 104.296875 245.886719 102.90625 245.261719 C 102.738281 245.175781 102.6875 245.042969 102.753906 244.863281 L 104.527344 240.015625 C 104.574219 239.859375 104.679688 239.789062 104.839844 239.8125 L 112.660156 240.285156 C 112.761719 240.285156 112.84375 240.328125 112.90625 240.414062 C 112.945312 240.507812 112.945312 240.597656 112.90625 240.691406 L 111.605469 245.066406 C 111.578125 245.15625 111.519531 245.222656 111.4375 245.261719 C 110.121094 245.878906 108.738281 246.191406 107.285156 246.195312 Z M 103.449219 244.804688 C 104.675781 245.304688 105.949219 245.550781 107.273438 245.539062 C 108.597656 245.527344 109.871094 245.265625 111.089844 244.746094 L 112.234375 240.894531 L 105.0625 240.472656 Z M 103.449219 244.804688 " fill-opacity="1" fill-rule="nonzero"/><path fill="#ffffff" d="M 87.761719 171.152344 C 87.761719 171.152344 109.246094 197.773438 110.679688 202.820312 C 112.113281 207.863281 115.890625 240.835938 115.890625 240.835938 L 102.191406 241.152344 C 102.191406 241.152344 97.097656 210.703125 94.933594 207.550781 C 92.769531 204.394531 91.300781 203.605469 91.300781 203.605469 L 79.417969 177.898438 Z M 87.761719 171.152344 " fill-opacity="1" fill-rule="nonzero"/><path fill="#000000" d="M 102.191406 241.464844 C 102.015625 241.460938 101.910156 241.375 101.878906 241.203125 C 101.828125 240.894531 96.785156 210.796875 94.671875 207.734375 C 92.558594 204.675781 91.15625 203.894531 91.140625 203.886719 C 91.085938 203.851562 91.042969 203.804688 91.011719 203.742188 L 79.128906 178.027344 C 79.0625 177.875 79.09375 177.75 79.222656 177.644531 L 87.59375 170.863281 C 87.660156 170.808594 87.734375 170.789062 87.820312 170.792969 C 87.910156 170.804688 87.984375 170.84375 88.042969 170.914062 C 88.890625 172 109.578125 197.636719 110.960938 202.691406 C 112.34375 207.746094 116.054688 239.414062 116.179688 240.753906 C 116.195312 240.847656 116.171875 240.929688 116.105469 240.996094 C 116.042969 241.070312 115.96875 241.105469 115.875 241.109375 Z M 91.503906 203.386719 C 92.964844 204.503906 94.179688 205.84375 95.148438 207.40625 C 97.285156 210.457031 101.878906 237.632812 102.421875 240.863281 L 115.535156 240.558594 C 115.128906 237.019531 111.699219 207.625 110.375 202.9375 C 109.050781 198.25 89.910156 174.339844 87.761719 171.601562 L 79.832031 177.984375 Z M 91.503906 203.386719 " fill-opacity="1" fill-rule="nonzero"/><path fill="#26b1d8" d="M 97.726562 128.441406 C 97.726562 128.441406 105.425781 135.539062 108.984375 137.769531 C 112.539062 140 112.539062 140.847656 116.324219 142.390625 C 120.109375 143.933594 134.210938 149.960938 134.210938 149.960938 C 134.210938 149.960938 130.425781 154.8125 126.273438 155.167969 C 126.273438 155.167969 110.875 150.929688 108.03125 149.605469 C 105.695312 148.394531 103.484375 146.980469 101.402344 145.367188 C 100.324219 147.792969 98.863281 149.960938 97.023438 151.878906 C 93.824219 155.269531 87.777344 171.160156 87.777344 171.160156 L 66.941406 163.945312 L 71.4375 155.898438 C 71.4375 155.898438 61.726562 151.167969 63.382812 147.265625 C 65.039062 143.367188 72.855469 135.191406 74.640625 133.300781 C 76.421875 131.410156 80.792969 123.71875 90.621094 124.195312 C 90.621094 124.1875 92.753906 128.679688 97.726562 128.441406 Z M 97.726562 128.441406 " fill-opacity="1" fill-rule="nonzero"/><path fill="#ffffff" d="M 87.761719 171.152344 C 87.761719 171.152344 90.453125 194.621094 91.242188 203.605469 C 92.03125 212.59375 74.179688 240.675781 74.179688 240.675781 L 60.445312 239.886719 L 75.921875 204.277344 C 75.921875 204.277344 66.152344 188.753906 63.773438 180.578125 C 61.398438 172.40625 66.941406 163.933594 66.941406 163.933594 Z M 87.761719 171.152344 " fill-opacity="1" fill-rule="nonzero"/><path fill="#000000" d="M 74.179688 240.996094 L 60.445312 240.210938 C 60.335938 240.203125 60.25 240.152344 60.191406 240.058594 C 60.144531 239.957031 60.144531 239.859375 60.191406 239.761719 L 75.582031 204.269531 C 74.589844 202.683594 65.710938 188.394531 63.46875 180.664062 C 61.089844 172.421875 66.617188 163.851562 66.667969 163.765625 C 66.757812 163.621094 66.882812 163.582031 67.042969 163.636719 L 87.890625 170.855469 C 88.011719 170.902344 88.082031 170.988281 88.101562 171.117188 C 88.101562 171.355469 90.792969 194.6875 91.574219 203.582031 C 92.355469 212.476562 75.199219 239.699219 74.46875 240.84375 C 74.402344 240.953125 74.308594 241.003906 74.179688 240.996094 Z M 60.9375 239.625 L 74.027344 240.378906 C 75.460938 238.097656 91.683594 212.09375 90.9375 203.65625 C 90.191406 195.222656 87.753906 173.710938 87.492188 171.4375 L 67.074219 164.367188 C 66.226562 165.714844 61.984375 173.277344 64.089844 180.535156 C 66.414062 188.609375 76.109375 203.964844 76.210938 204.125 C 76.257812 204.222656 76.257812 204.320312 76.210938 204.421875 Z M 60.9375 239.625 " fill-opacity="1" fill-rule="nonzero"/><path fill="#ffffff" d="M 103.175781 111.996094 C 103.175781 111.996094 106.851562 125.367188 97.847656 124.3125 L 97.726562 128.453125 C 97.726562 128.453125 93.941406 129.164062 90.621094 124.210938 L 92.992188 119.601562 C 92.476562 119.347656 92.078125 118.976562 91.800781 118.476562 C 91.519531 117.980469 91.402344 117.445312 91.453125 116.878906 C 91.691406 114.980469 93.152344 115.183594 93.152344 115.183594 C 93.152344 115.183594 98.203125 117.082031 103.175781 111.996094 Z M 103.175781 111.996094 " fill-opacity="1" fill-rule="nonzero"/><path fill="#000000" d="M 97.191406 128.800781 C 95.953125 128.800781 93.007812 128.332031 90.402344 124.355469 C 90.34375 124.25 90.34375 124.148438 90.402344 124.042969 L 92.625 119.703125 C 92.117188 119.40625 91.730469 118.996094 91.464844 118.472656 C 91.199219 117.949219 91.097656 117.394531 91.15625 116.808594 C 91.203125 116.148438 91.484375 115.613281 92.007812 115.199219 C 92.367188 114.929688 92.773438 114.824219 93.21875 114.878906 C 93.484375 114.96875 98.253906 116.648438 103.015625 111.773438 C 103.101562 111.691406 103.203125 111.660156 103.320312 111.6875 C 103.4375 111.726562 103.515625 111.800781 103.550781 111.917969 C 103.636719 112.230469 105.648438 119.710938 102.703125 123.085938 C 102.128906 123.707031 101.441406 124.160156 100.640625 124.4375 C 99.839844 124.714844 99.023438 124.789062 98.1875 124.652344 L 98.074219 128.453125 C 98.074219 128.625 97.984375 128.726562 97.8125 128.757812 C 97.605469 128.789062 97.402344 128.804688 97.191406 128.800781 Z M 90.996094 124.160156 C 93.667969 128.0625 96.5625 128.207031 97.421875 128.15625 L 97.53125 124.3125 C 97.53125 124.21875 97.570312 124.140625 97.640625 124.078125 C 97.714844 124.015625 97.796875 123.988281 97.886719 124 C 99.796875 124.230469 101.285156 123.789062 102.191406 122.6875 C 104.457031 120.066406 103.40625 114.402344 103.042969 112.640625 C 98.175781 117.242188 93.230469 115.574219 93.042969 115.511719 C 92.789062 115.507812 92.558594 115.578125 92.355469 115.726562 C 92.007812 116.042969 91.824219 116.433594 91.800781 116.902344 C 91.757812 117.40625 91.859375 117.875 92.109375 118.3125 C 92.355469 118.753906 92.707031 119.082031 93.160156 119.304688 C 93.242188 119.339844 93.300781 119.398438 93.332031 119.480469 C 93.359375 119.566406 93.359375 119.652344 93.332031 119.734375 Z M 90.996094 124.160156 " fill-opacity="1" fill-rule="nonzero"/><path fill="#000000" d="M 67.390625 246.195312 C 65.863281 246.195312 64.402344 245.882812 63.011719 245.261719 C 62.839844 245.175781 62.789062 245.042969 62.855469 244.863281 L 64.632812 240.015625 C 64.679688 239.851562 64.785156 239.785156 64.953125 239.8125 L 72.761719 240.285156 C 72.867188 240.285156 72.949219 240.328125 73.007812 240.414062 C 73.054688 240.507812 73.054688 240.597656 73.007812 240.691406 L 71.710938 245.066406 C 71.683594 245.160156 71.628906 245.226562 71.539062 245.261719 C 70.226562 245.882812 68.84375 246.191406 67.390625 246.195312 Z M 63.554688 244.804688 C 64.78125 245.304688 66.054688 245.550781 67.378906 245.539062 C 68.703125 245.527344 69.972656 245.265625 71.191406 244.746094 L 72.339844 240.894531 L 65.140625 240.472656 Z M 63.554688 244.804688 " fill-opacity="1" fill-rule="nonzero"/><path fill="#000000" d="M 111.179688 244.972656 C 111.179688 244.972656 121.292969 249.542969 122.011719 250.511719 C 122.734375 251.476562 100.578125 250.75 100.578125 250.75 L 102.742188 244.972656 C 104.078125 245.609375 105.484375 245.925781 106.960938 245.925781 C 108.441406 245.925781 109.847656 245.609375 111.179688 244.972656 Z M 62.796875 244.972656 L 60.625 250.75 C 60.625 250.75 82.789062 251.46875 82.066406 250.511719 C 81.34375 249.554688 71.226562 244.972656 71.226562 244.972656 C 69.898438 245.601562 68.5 245.914062 67.027344 245.914062 C 65.558594 245.914062 64.160156 245.601562 62.832031 244.972656 Z M 62.796875 244.972656 " fill-opacity="1" fill-rule="nonzero"/><path fill="#ffffff" d="M 212.855469 126.316406 C 212.238281 126.757812 211.742188 127.308594 211.371094 127.96875 C 211 128.632812 210.785156 129.339844 210.726562 130.097656 C 210.488281 132.699219 214.96875 133.410156 214.96875 133.410156 C 214.96875 133.410156 212.601562 134.835938 213.074219 136.964844 C 213.550781 139.09375 217.109375 140.035156 217.109375 140.035156 C 217.109375 140.035156 214.730469 141.21875 215.207031 143.585938 C 215.683594 145.953125 219.449219 146.425781 219.449219 146.425781 L 45.140625 204.15625 L 38.75 184.511719 Z M 212.855469 126.316406 " fill-opacity="1" fill-rule="nonzero"/><path fill="#000000" d="M 45.140625 204.480469 C 45.09375 204.488281 45.046875 204.488281 44.996094 204.480469 C 44.921875 204.4375 44.871094 204.375 44.84375 204.292969 L 38.445312 184.625 C 38.417969 184.539062 38.421875 184.457031 38.460938 184.378906 C 38.5 184.296875 38.5625 184.246094 38.648438 184.214844 L 212.753906 126.007812 C 212.929688 125.957031 213.058594 126.015625 213.136719 126.179688 C 213.214844 126.347656 213.179688 126.484375 213.023438 126.585938 C 212.453125 127.003906 211.992188 127.523438 211.644531 128.140625 C 211.296875 128.761719 211.097656 129.421875 211.039062 130.128906 C 210.835938 132.402344 214.996094 133.089844 215.035156 133.097656 C 215.1875 133.117188 215.277344 133.203125 215.300781 133.351562 C 215.328125 133.496094 215.277344 133.605469 215.15625 133.683594 C 215.15625 133.683594 212.992188 135.015625 213.40625 136.894531 C 213.824219 138.777344 217.167969 139.71875 217.203125 139.726562 C 217.351562 139.761719 217.429688 139.851562 217.445312 140.003906 C 217.460938 140.15625 217.398438 140.261719 217.261719 140.320312 C 217.175781 140.363281 215.121094 141.433594 215.5625 143.527344 C 216.003906 145.621094 219.519531 146.070312 219.550781 146.070312 C 219.722656 146.085938 219.816406 146.179688 219.832031 146.351562 C 219.855469 146.523438 219.78125 146.632812 219.613281 146.679688 L 45.242188 204.464844 Z M 39.148438 184.726562 L 45.320312 203.757812 L 218.253906 146.496094 C 217.03125 146.136719 215.230469 145.339844 214.859375 143.644531 C 214.742188 142.964844 214.816406 142.308594 215.085938 141.671875 C 215.355469 141.039062 215.773438 140.523438 216.34375 140.136719 C 215.25 139.738281 213.117188 138.753906 212.726562 137.03125 C 212.628906 136.367188 212.710938 135.722656 212.972656 135.101562 C 213.230469 134.480469 213.636719 133.96875 214.179688 133.574219 C 212.855469 133.242188 210.15625 132.285156 210.359375 130.070312 C 210.449219 128.949219 210.847656 127.949219 211.546875 127.070312 Z M 39.148438 184.726562 " fill-opacity="1" fill-rule="nonzero"/><path fill="#ffffff" d="M 95.046875 158.179688 C 95.046875 158.179688 101.996094 161.808594 103.339844 162.832031 C 104.679688 163.859375 105.46875 169.140625 104.753906 169.617188 C 104.042969 170.089844 103.652344 168.589844 103.652344 168.589844 C 103.652344 168.589844 103.730469 170.640625 103.023438 170.792969 C 102.320312 170.945312 102.175781 168.667969 102.175781 168.667969 C 102.175781 168.667969 102.175781 170.792969 101.707031 170.792969 C 101.242188 170.792969 100.996094 168.351562 100.996094 168.351562 C 100.996094 168.351562 100.996094 169.539062 100.519531 169.769531 C 100.042969 169.996094 99.671875 168.074219 99.179688 166.148438 C 98.6875 164.222656 93.175781 162.28125 93.175781 162.28125 Z M 95.046875 158.179688 " fill-opacity="1" fill-rule="nonzero"/><path fill="#000000" d="M 102.949219 171.125 C 102.804688 171.125 102.683594 171.082031 102.574219 170.988281 C 102.433594 170.878906 102.328125 170.742188 102.25 170.582031 C 102.066406 171.117188 101.792969 171.117188 101.683594 171.117188 C 101.574219 171.117188 101.15625 171.117188 100.835938 169.871094 C 100.769531 169.949219 100.6875 170.011719 100.597656 170.058594 C 100.453125 170.121094 100.308594 170.121094 100.164062 170.058594 C 99.679688 169.828125 99.40625 168.769531 98.933594 166.757812 L 98.796875 166.207031 C 98.449219 164.730469 94.5 163.078125 93.007812 162.570312 C 92.917969 162.539062 92.851562 162.480469 92.8125 162.390625 C 92.773438 162.308594 92.773438 162.222656 92.8125 162.136719 L 94.707031 158.035156 C 94.742188 157.953125 94.804688 157.898438 94.890625 157.871094 C 94.976562 157.832031 95.0625 157.832031 95.148438 157.871094 C 95.425781 158.015625 102.132812 161.527344 103.484375 162.554688 C 104.695312 163.476562 105.339844 167.011719 105.289062 168.625 C 105.289062 169.292969 105.136719 169.683594 104.882812 169.851562 C 104.667969 170.015625 104.433594 170.046875 104.179688 169.953125 C 104.0625 169.902344 103.957031 169.832031 103.863281 169.742188 C 103.769531 170.351562 103.550781 170.972656 103.015625 171.082031 Z M 102.191406 168.351562 C 102.277344 168.351562 102.351562 168.378906 102.410156 168.4375 C 102.472656 168.496094 102.507812 168.566406 102.515625 168.648438 C 102.5 169.308594 102.664062 169.921875 103.007812 170.488281 C 103.226562 170.4375 103.414062 169.523438 103.378906 168.597656 C 103.375 168.515625 103.394531 168.441406 103.449219 168.378906 C 103.5 168.3125 103.566406 168.273438 103.648438 168.261719 C 103.726562 168.25 103.804688 168.269531 103.871094 168.3125 C 103.9375 168.359375 103.980469 168.425781 104 168.503906 C 104.085938 168.828125 104.304688 169.308594 104.5 169.351562 C 104.542969 169.371094 104.585938 169.371094 104.628906 169.351562 C 104.789062 168.8125 104.820312 168.269531 104.714844 167.714844 C 104.558594 165.925781 103.933594 163.65625 103.183594 163.085938 C 102.039062 162.238281 96.574219 159.324219 95.242188 158.617188 L 93.628906 162.09375 C 94.925781 162.570312 99.058594 164.214844 99.5 166.070312 L 99.636719 166.621094 C 99.824219 167.585938 100.105469 168.515625 100.484375 169.421875 C 100.652344 169.085938 100.730469 168.726562 100.714844 168.351562 C 100.714844 168.265625 100.746094 168.195312 100.804688 168.132812 C 100.863281 168.074219 100.9375 168.042969 101.019531 168.039062 C 101.105469 168.03125 101.179688 168.054688 101.246094 168.109375 C 101.308594 168.164062 101.34375 168.234375 101.351562 168.320312 C 101.402344 169 101.53125 169.667969 101.734375 170.320312 C 101.855469 169.773438 101.910156 169.222656 101.902344 168.667969 C 101.902344 168.582031 101.933594 168.507812 101.992188 168.449219 C 102.050781 168.386719 102.125 168.355469 102.210938 168.351562 Z M 102.191406 168.351562 " fill-opacity="1" fill-rule="nonzero"/><path fill="#ffffff" d="M 133.597656 150.84375 C 135.800781 150.789062 137.984375 150.949219 140.152344 151.320312 C 142.207031 151.871094 144.574219 154.074219 143.785156 154.3125 C 142.996094 154.550781 140.542969 153.683594 139.277344 153.210938 C 138.011719 152.734375 135.882812 153.210938 134.183594 153.445312 C 132.949219 153.582031 131.710938 153.582031 130.476562 153.445312 Z M 133.597656 150.84375 " fill-opacity="1" fill-rule="nonzero"/><path fill="#000000" d="M 143.4375 154.675781 C 142.910156 154.675781 141.738281 154.488281 139.191406 153.507812 C 138.21875 153.140625 136.59375 153.394531 135.160156 153.625 L 134.3125 153.761719 C 133.050781 153.898438 131.789062 153.898438 130.527344 153.761719 C 130.382812 153.75 130.292969 153.675781 130.25 153.539062 C 130.207031 153.402344 130.242188 153.289062 130.355469 153.199219 L 133.4375 150.597656 C 133.496094 150.554688 133.558594 150.527344 133.632812 150.523438 C 135.863281 150.464844 138.078125 150.628906 140.28125 151.003906 C 141.976562 151.472656 144.285156 153.234375 144.304688 154.109375 C 144.304688 154.226562 144.269531 154.335938 144.199219 154.433594 C 144.125 154.527344 144.03125 154.589844 143.914062 154.617188 C 143.757812 154.671875 143.601562 154.691406 143.4375 154.675781 Z M 137.84375 152.691406 C 138.355469 152.675781 138.859375 152.75 139.347656 152.914062 C 142.199219 153.980469 143.199219 154.066406 143.539062 154.023438 C 142.621094 152.847656 141.449219 152.046875 140.015625 151.625 C 137.914062 151.265625 135.796875 151.109375 133.667969 151.15625 L 131.257812 153.191406 C 132.21875 153.257812 133.175781 153.238281 134.132812 153.132812 L 134.984375 152.996094 C 135.929688 152.824219 136.882812 152.722656 137.84375 152.691406 Z M 137.84375 152.691406 " fill-opacity="1" fill-rule="nonzero"/><path fill="#ffffff" d="M 214.984375 133.410156 L 41.414062 192.566406 " fill-opacity="1" fill-rule="nonzero"/><path fill="#ffffff" d="M 216.886719 140.035156 L 43.546875 199.011719 " fill-opacity="1" fill-rule="nonzero"/><path fill="#000000" d="M 41.414062 192.882812 C 41.261719 192.886719 41.160156 192.816406 41.109375 192.667969 C 41.082031 192.585938 41.085938 192.503906 41.128906 192.421875 C 41.167969 192.34375 41.230469 192.289062 41.3125 192.261719 L 214.882812 133.113281 C 214.96875 133.085938 215.050781 133.085938 215.128906 133.125 C 215.210938 133.164062 215.261719 133.226562 215.292969 133.308594 C 215.320312 133.394531 215.316406 133.472656 215.277344 133.554688 C 215.234375 133.632812 215.171875 133.683594 215.085938 133.707031 L 41.515625 192.863281 C 41.484375 192.878906 41.449219 192.882812 41.414062 192.882812 Z M 43.621094 199.316406 L 216.988281 140.339844 C 217.070312 140.308594 217.132812 140.253906 217.171875 140.175781 C 217.207031 140.097656 217.210938 140.015625 217.183594 139.933594 C 217.15625 139.851562 217.101562 139.789062 217.023438 139.75 C 216.949219 139.714844 216.867188 139.707031 216.785156 139.738281 L 43.445312 198.714844 C 43.359375 198.742188 43.296875 198.792969 43.257812 198.871094 C 43.21875 198.949219 43.210938 199.03125 43.242188 199.113281 C 43.289062 199.261719 43.390625 199.332031 43.546875 199.332031 Z M 43.621094 199.316406 " fill-opacity="1" fill-rule="nonzero"/><path fill="#26b1d8" d="M 51.378906 180.59375 L 58.332031 199.425781 L 48.148438 202.820312 L 41.671875 183.851562 Z M 51.378906 180.59375 " fill-opacity="1" fill-rule="nonzero"/><path fill="#000000" d="M 236.546875 129.402344 L 228.847656 136.972656 C 225.886719 135.429688 225.527344 128.09375 225.527344 128.09375 Z M 236.546875 129.402344 " fill-opacity="1" fill-rule="nonzero"/><path fill="#ffffff" d="M 265.957031 118.667969 C 258.648438 131.148438 253.972656 129.765625 246.222656 127.484375 L 245.695312 127.332031 C 242.65625 126.433594 240.28125 126.484375 238.632812 127.390625 C 237.773438 127.855469 237.179688 128.546875 236.851562 129.46875 C 236.816406 129.632812 236.714844 129.710938 236.546875 129.707031 L 236.46875 129.707031 C 236.386719 129.683594 236.320312 129.636719 236.273438 129.5625 C 236.226562 129.488281 236.214844 129.410156 236.230469 129.324219 C 236.589844 128.226562 237.277344 127.40625 238.292969 126.859375 C 240.101562 125.824219 242.65625 125.78125 245.875 126.730469 L 246.402344 126.882812 C 254.132812 129.148438 258.378906 130.394531 265.40625 118.378906 C 265.449219 118.304688 265.515625 118.253906 265.601562 118.234375 C 265.683594 118.210938 265.765625 118.222656 265.839844 118.269531 C 265.996094 118.367188 266.035156 118.5 265.957031 118.667969 Z M 267.171875 100.445312 C 267.152344 100.363281 267.105469 100.296875 267.027344 100.253906 C 266.953125 100.207031 266.875 100.195312 266.789062 100.21875 C 257.453125 102.574219 249.371094 109.984375 244.523438 114.410156 C 242.511719 116.242188 240.441406 118.140625 239.976562 117.972656 C 239.507812 117.800781 239.515625 116.871094 239.753906 115.546875 C 239.957031 114.402344 240.171875 113.214844 239.628906 112.460938 C 239.34375 112.074219 238.964844 111.855469 238.488281 111.800781 C 236.851562 111.535156 235.585938 112.535156 234.484375 113.4375 C 233.542969 114.183594 232.734375 114.835938 231.878906 114.648438 C 231.285156 114.511719 231.285156 113.996094 231.429688 112.84375 C 231.664062 111.96875 231.554688 111.140625 231.097656 110.359375 C 230.652344 109.886719 230.105469 109.65625 229.457031 109.671875 C 227.363281 109.519531 224.992188 111.453125 222.914062 113.15625 C 221.386719 114.402344 219.941406 115.589844 219.019531 115.589844 C 218.890625 115.601562 218.785156 115.5625 218.695312 115.472656 C 218.382812 115.113281 218.5 113.988281 218.609375 112.925781 C 218.78125 111.402344 218.957031 109.671875 218.160156 108.6875 C 217.765625 108.238281 217.265625 108.011719 216.667969 108.007812 C 214.707031 107.917969 212.5 110.636719 210.164062 113.554688 C 207.695312 116.640625 205.164062 119.847656 202.941406 119.601562 C 202.710938 119.609375 202.542969 119.511719 202.429688 119.3125 C 201.847656 118.210938 203.867188 114.386719 205.65625 111.011719 C 207.847656 106.875 209.902344 102.957031 209.171875 101.242188 C 208.984375 100.8125 208.660156 100.546875 208.203125 100.445312 C 203.558594 99.21875 182.042969 120.449219 181.125 121.347656 C 181.066406 121.410156 181.035156 121.484375 181.035156 121.570312 C 181.035156 121.660156 181.066406 121.734375 181.125 121.796875 C 181.1875 121.863281 181.265625 121.894531 181.355469 121.890625 C 181.441406 121.890625 181.515625 121.859375 181.574219 121.796875 C 187.730469 115.714844 204.496094 100.132812 208.042969 101.058594 C 208.300781 101.109375 208.484375 101.261719 208.585938 101.507812 C 209.214844 102.929688 207.023438 107.066406 205.097656 110.714844 C 202.964844 114.734375 201.125 118.210938 201.871094 119.617188 C 202.089844 120.007812 202.425781 120.214844 202.871094 120.234375 C 205.417969 120.5 208.078125 117.167969 210.65625 113.953125 C 212.753906 111.339844 214.902344 108.636719 216.539062 108.636719 L 216.625 108.636719 C 217.039062 108.632812 217.390625 108.785156 217.667969 109.09375 C 218.296875 109.839844 218.125 111.425781 217.980469 112.824219 C 217.835938 114.222656 217.710938 115.316406 218.226562 115.886719 C 218.4375 116.121094 218.703125 116.230469 219.019531 116.21875 C 220.171875 116.21875 221.632812 115.019531 223.320312 113.671875 C 225.308594 112.046875 227.566406 110.214844 229.414062 110.332031 C 229.878906 110.3125 230.277344 110.464844 230.605469 110.789062 C 230.921875 111.433594 230.984375 112.101562 230.792969 112.792969 C 230.671875 113.785156 230.519531 115.019531 231.742188 115.335938 C 232.964844 115.648438 233.855469 114.816406 234.882812 113.996094 C 235.910156 113.171875 237.03125 112.300781 238.386719 112.496094 C 238.6875 112.523438 238.925781 112.65625 239.109375 112.894531 C 239.492188 113.4375 239.304688 114.488281 239.109375 115.503906 C 238.871094 116.835938 238.625 118.21875 239.730469 118.632812 C 240.527344 118.929688 241.824219 117.785156 244.941406 114.945312 C 249.746094 110.5625 257.777344 103.21875 266.925781 100.894531 C 267.035156 100.882812 267.113281 100.828125 267.164062 100.734375 C 267.21875 100.640625 267.21875 100.542969 267.171875 100.445312 Z M 250.816406 155.304688 C 246.835938 153.132812 239.78125 151.503906 228.609375 156.066406 C 228.445312 156.160156 228.398438 156.292969 228.46875 156.46875 C 228.539062 156.644531 228.664062 156.707031 228.847656 156.660156 C 239.753906 152.191406 246.671875 153.761719 250.507812 155.863281 C 251.328125 156.28125 252.09375 156.78125 252.804688 157.363281 C 253.511719 157.949219 254.152344 158.601562 254.71875 159.324219 C 255.285156 160.046875 255.769531 160.820312 256.167969 161.648438 C 256.566406 162.476562 256.871094 163.335938 257.078125 164.230469 C 258.15625 170.023438 253.292969 174.117188 242.648438 176.398438 C 235.359375 177.957031 222.601562 178.324219 217.304688 172.921875 C 215.078125 170.667969 214.410156 167.589844 215.308594 163.773438 C 218.746094 149.105469 236.078125 152.148438 236.257812 152.183594 C 236.34375 152.199219 236.425781 152.183594 236.496094 152.132812 C 236.570312 152.082031 236.613281 152.015625 236.632812 151.929688 C 236.648438 151.84375 236.628906 151.761719 236.582031 151.691406 C 236.53125 151.617188 236.460938 151.574219 236.375 151.554688 C 236.199219 151.554688 218.269531 148.367188 214.6875 163.628906 C 213.738281 167.664062 214.46875 170.945312 216.84375 173.371094 C 220.238281 176.863281 226.664062 178.035156 232.785156 178.035156 C 236.152344 178.039062 239.480469 177.703125 242.777344 177.027344 C 253.683594 174.695312 258.84375 170.242188 257.714844 164.113281 C 257.496094 163.171875 257.175781 162.265625 256.757812 161.394531 C 256.339844 160.527344 255.832031 159.710938 255.238281 158.949219 C 254.640625 158.1875 253.96875 157.5 253.226562 156.886719 C 252.480469 156.269531 251.675781 155.742188 250.816406 155.304688 Z M 229.109375 172.761719 L 229.203125 172.761719 C 229.316406 172.761719 229.402344 172.714844 229.46875 172.625 C 229.542969 172.515625 237.308594 161.347656 245.847656 159.507812 C 245.933594 159.488281 246 159.441406 246.046875 159.367188 C 246.097656 159.292969 246.113281 159.214844 246.097656 159.128906 C 246.078125 159.042969 246.03125 158.972656 245.957031 158.925781 C 245.882812 158.878906 245.800781 158.863281 245.714844 158.882812 C 238.167969 160.519531 231.453125 168.871094 229.5 171.488281 L 229.28125 162.503906 C 229.28125 162.414062 229.25 162.339844 229.183594 162.277344 C 229.121094 162.214844 229.046875 162.1875 228.957031 162.1875 C 228.871094 162.191406 228.796875 162.226562 228.734375 162.292969 C 228.671875 162.355469 228.644531 162.429688 228.644531 162.519531 L 228.882812 172.457031 C 228.886719 172.609375 228.964844 172.710938 229.109375 172.761719 Z M 229.109375 172.761719 " fill-opacity="1" fill-rule="nonzero"/><path fill="#ffffff" d="M 236.65625 242.820312 L 244.296875 242.820312 L 243.992188 250.453125 L 236.417969 250.765625 Z M 236.65625 242.820312 " fill-opacity="1" fill-rule="nonzero"/><path fill="#000000" d="M 236.425781 251.085938 C 236.339844 251.089844 236.265625 251.058594 236.207031 250.996094 C 236.136719 250.929688 236.105469 250.851562 236.113281 250.757812 L 236.34375 242.8125 C 236.34375 242.726562 236.375 242.652344 236.433594 242.589844 C 236.496094 242.53125 236.570312 242.5 236.65625 242.5 L 244.296875 242.5 C 244.386719 242.503906 244.460938 242.535156 244.523438 242.601562 C 244.585938 242.664062 244.617188 242.742188 244.617188 242.828125 L 244.3125 250.460938 C 244.304688 250.652344 244.203125 250.753906 244.007812 250.765625 L 236.4375 251.078125 Z M 236.972656 243.132812 L 236.757812 250.433594 L 243.695312 250.15625 L 243.972656 243.152344 Z M 236.972656 243.132812 " fill-opacity="1" fill-rule="nonzero"/><g clip-path="url(#255e827ac8)"><path fill="#000000" d="M 241.578125 250.511719 C 241.578125 250.511719 244.976562 246.273438 241.816406 242.558594 L 247.757812 231.953125 C 247.816406 231.84375 247.898438 231.769531 248.007812 231.71875 C 248.121094 231.671875 248.234375 231.664062 248.347656 231.699219 C 248.464844 231.730469 248.558594 231.796875 248.628906 231.894531 C 248.695312 231.992188 248.726562 232.101562 248.71875 232.222656 L 248.191406 251.242188 C 248.1875 251.382812 248.148438 251.515625 248.082031 251.640625 C 248.015625 251.765625 247.921875 251.867188 247.808594 251.949219 C 247.691406 252.03125 247.566406 252.085938 247.425781 252.109375 C 247.285156 252.132812 247.148438 252.128906 247.011719 252.089844 Z M 241.578125 250.511719 " fill-opacity="1" fill-rule="nonzero"/></g><g clip-path="url(#e68349e5ca)"><path fill="#ffffff" d="M 167.976562 235.46875 L 203.96875 237.011719 L 236.859375 242.3125 L 236.859375 252.230469 L 168.105469 252.230469 Z M 167.976562 235.46875 " fill-opacity="1" fill-rule="nonzero"/></g><g clip-path="url(#9c98e2cb1d)"><path fill="#000000" d="M 236.859375 252.554688 L 168.105469 252.554688 C 168.015625 252.554688 167.9375 252.523438 167.875 252.460938 C 167.8125 252.398438 167.78125 252.320312 167.78125 252.230469 L 167.671875 235.476562 C 167.667969 235.382812 167.703125 235.304688 167.773438 235.242188 C 167.839844 235.179688 167.914062 235.152344 168.003906 235.15625 L 203.992188 236.699219 L 236.929688 242 C 237.105469 242.027344 237.199219 242.132812 237.199219 242.3125 L 237.199219 252.230469 C 237.199219 252.324219 237.167969 252.402344 237.097656 252.464844 C 237.03125 252.53125 236.953125 252.558594 236.859375 252.554688 Z M 168.402344 251.917969 L 236.546875 251.917969 L 236.546875 242.59375 L 203.917969 237.335938 L 168.265625 235.808594 Z M 168.402344 251.917969 " fill-opacity="1" fill-rule="nonzero"/></g><path fill="#ffffff" d="M 221.921875 240.191406 L 225.1875 247.824219 L 217.550781 247.746094 L 213.957031 240.191406 Z M 221.921875 240.191406 " fill-opacity="1" fill-rule="nonzero"/><path fill="#000000" d="M 225.1875 248.144531 L 217.550781 248.0625 C 217.417969 248.0625 217.324219 248.003906 217.269531 247.882812 L 213.671875 240.328125 C 213.609375 240.226562 213.609375 240.125 213.671875 240.023438 C 213.734375 239.921875 213.824219 239.871094 213.941406 239.871094 L 221.902344 239.871094 C 222.042969 239.871094 222.140625 239.9375 222.191406 240.066406 L 225.460938 247.695312 C 225.515625 247.796875 225.515625 247.894531 225.460938 247.992188 C 225.398438 248.09375 225.308594 248.144531 225.1875 248.144531 Z M 217.753906 247.425781 L 224.703125 247.5 L 221.707031 240.472656 L 214.460938 240.472656 Z M 217.753906 247.425781 " fill-opacity="1" fill-rule="nonzero"/><path fill="#000000" d="M 216.402344 245.332031 C 216.402344 245.332031 220.734375 248.613281 224.375 245.332031 L 235.152344 250.945312 C 235.261719 250.996094 235.34375 251.078125 235.394531 251.183594 C 235.445312 251.292969 235.457031 251.40625 235.425781 251.523438 C 235.398438 251.640625 235.335938 251.734375 235.242188 251.808594 C 235.144531 251.878906 235.035156 251.914062 234.917969 251.910156 L 215.867188 251.910156 C 215.730469 251.90625 215.597656 251.871094 215.476562 251.804688 C 215.351562 251.738281 215.25 251.648438 215.167969 251.539062 C 215.082031 251.425781 215.03125 251.300781 215.003906 251.164062 C 214.976562 251.027344 214.984375 250.890625 215.019531 250.757812 Z M 216.402344 245.332031 " fill-opacity="1" fill-rule="nonzero"/><g clip-path="url(#83cd2a5f0b)"><path fill="#ffffff" d="M 169.300781 231.0625 L 197.949219 213.890625 C 198.386719 213.628906 198.84375 213.414062 199.320312 213.242188 C 199.800781 213.070312 200.289062 212.949219 200.792969 212.875 C 201.296875 212.804688 201.800781 212.78125 202.308594 212.808594 C 202.816406 212.835938 203.316406 212.914062 203.808594 213.042969 C 204.300781 213.167969 204.777344 213.34375 205.234375 213.566406 C 205.691406 213.789062 206.121094 214.054688 206.527344 214.363281 C 206.929688 214.671875 207.300781 215.015625 207.636719 215.398438 C 207.96875 215.777344 208.265625 216.191406 208.519531 216.628906 L 225.222656 241.71875 L 215.035156 245.195312 L 202.941406 233.621094 L 173.527344 252.273438 L 147.445312 252.273438 C 137.503906 248.308594 145.238281 232.644531 145.238281 232.644531 Z M 169.300781 231.0625 " fill-opacity="1" fill-rule="nonzero"/><path fill="#000000" d="M 173.496094 252.554688 L 147.445312 252.554688 C 147.402344 252.5625 147.363281 252.5625 147.324219 252.554688 C 146.269531 252.164062 145.339844 251.570312 144.539062 250.777344 C 143.742188 249.984375 143.140625 249.0625 142.742188 248.011719 C 140.382812 241.863281 144.761719 232.867188 144.949219 232.492188 C 145.003906 232.386719 145.089844 232.324219 145.210938 232.316406 L 169.199219 230.773438 L 197.78125 213.644531 C 198.234375 213.371094 198.710938 213.144531 199.210938 212.96875 C 199.710938 212.789062 200.222656 212.660156 200.75 212.585938 C 201.273438 212.507812 201.800781 212.484375 202.332031 212.511719 C 202.859375 212.542969 203.382812 212.621094 203.894531 212.753906 C 204.410156 212.886719 204.90625 213.070312 205.382812 213.300781 C 205.859375 213.53125 206.3125 213.808594 206.734375 214.128906 C 207.15625 214.449219 207.542969 214.808594 207.890625 215.207031 C 208.242188 215.605469 208.550781 216.035156 208.816406 216.496094 L 225.511719 241.574219 C 225.554688 241.667969 225.554688 241.761719 225.511719 241.855469 C 225.472656 241.953125 225.40625 242.015625 225.308594 242.050781 L 215.121094 245.515625 C 215 245.554688 214.894531 245.53125 214.800781 245.449219 L 202.914062 234.054688 L 173.714844 252.527344 C 173.644531 252.566406 173.570312 252.574219 173.496094 252.554688 Z M 147.503906 251.917969 L 173.402344 251.917969 L 202.738281 233.359375 C 202.867188 233.25 202.996094 233.25 203.128906 233.359375 L 215.085938 244.832031 L 224.738281 241.558594 L 208.296875 216.808594 C 208.054688 216.382812 207.769531 215.988281 207.445312 215.617188 C 207.125 215.25 206.765625 214.917969 206.378906 214.621094 C 205.988281 214.324219 205.570312 214.070312 205.128906 213.855469 C 204.691406 213.640625 204.230469 213.472656 203.757812 213.351562 C 203.28125 213.230469 202.800781 213.15625 202.3125 213.128906 C 201.820312 213.105469 201.335938 213.128906 200.847656 213.199219 C 200.363281 213.273438 199.890625 213.390625 199.429688 213.558594 C 198.96875 213.722656 198.53125 213.933594 198.109375 214.1875 L 169.460938 231.359375 C 169.417969 231.386719 169.371094 231.398438 169.316406 231.398438 L 145.484375 232.910156 C 144.898438 234.164062 141.289062 242.3125 143.378906 247.753906 C 143.734375 248.710938 144.273438 249.554688 144.992188 250.277344 C 145.714844 251.003906 146.550781 251.550781 147.503906 251.917969 Z M 147.503906 251.917969 " fill-opacity="1" fill-rule="nonzero"/></g><path fill="#e5bfa7" d="M 153.84375 201.113281 C 153.84375 201.113281 152.519531 187.886719 155.277344 181.375 C 157.910156 175.179688 166.433594 179.5 166.433594 179.5 C 169.964844 195.382812 162.460938 192.296875 162.460938 192.296875 C 162.460938 192.296875 162.902344 200.894531 162.902344 201.113281 Z M 153.84375 201.113281 " fill-opacity="1" fill-rule="nonzero"/><path fill="#e5bfa7" d="M 141.816406 209.5 C 136.953125 209.941406 130.882812 209.832031 130.882812 209.832031 C 124.941406 209.390625 126.136719 205.53125 126.136719 205.53125 L 131.324219 176.746094 C 131.105469 175.644531 130.882812 174.101562 130.882812 174.101562 L 131.214844 169.582031 C 131.160156 169.363281 131.148438 169.140625 131.171875 168.917969 C 131.199219 168.691406 131.261719 168.480469 131.363281 168.277344 C 131.460938 168.074219 131.59375 167.898438 131.757812 167.742188 C 131.925781 167.589844 132.109375 167.464844 132.316406 167.378906 L 132.980469 170.242188 L 133.3125 166.851562 C 133.304688 166.042969 133.589844 165.355469 134.160156 164.78125 C 134.214844 164.742188 134.273438 164.730469 134.339844 164.753906 C 134.402344 164.773438 134.445312 164.820312 134.464844 164.882812 L 134.847656 166.632812 L 135.289062 168.835938 L 135.398438 167.625 L 135.398438 165.859375 C 135.398438 165.011719 136.359375 164.527344 136.765625 164.375 C 136.882812 164.335938 136.953125 164.375 136.976562 164.496094 L 137.714844 168.394531 L 137.273438 170.820312 L 138.488281 168.945312 C 138.488281 166.742188 139.820312 166.519531 139.820312 166.519531 L 140.042969 169.605469 L 139.191406 171.617188 C 139.046875 171.972656 139.105469 172.292969 139.371094 172.574219 C 139.632812 172.855469 139.945312 172.9375 140.3125 172.820312 L 143.539062 171.769531 L 136.265625 177.542969 L 135.601562 201.800781 L 142.011719 200.476562 Z M 180.667969 203.65625 L 191.234375 199.503906 C 191.640625 199.34375 192.003906 199.121094 192.328125 198.832031 C 192.652344 198.542969 192.914062 198.207031 193.117188 197.824219 C 193.324219 197.441406 193.453125 197.03125 193.511719 196.601562 C 193.570312 196.171875 193.554688 195.746094 193.460938 195.324219 L 186.523438 164.511719 L 186.082031 162.085938 L 183.214844 156.789062 L 180.777344 153.261719 C 180.507812 152.78125 180.132812 152.414062 179.648438 152.148438 C 179.570312 152.097656 179.492188 152.101562 179.417969 152.15625 C 179.339844 152.214844 179.316406 152.289062 179.34375 152.378906 L 179.675781 153.703125 L 180.777344 156.125 L 178.128906 152.820312 C 177.796875 152.0625 177.230469 151.570312 176.429688 151.34375 C 176.261719 151.300781 176.117188 151.34375 176 151.472656 C 175.882812 151.601562 175.851562 151.746094 175.90625 151.914062 L 176.574219 153.921875 L 179.664062 158.769531 L 175.03125 153.921875 C 174.851562 153.539062 174.597656 153.214844 174.265625 152.953125 C 173.933594 152.6875 173.5625 152.515625 173.148438 152.429688 C 172.96875 152.386719 172.820312 152.4375 172.699219 152.570312 C 172.578125 152.707031 172.550781 152.859375 172.613281 153.03125 L 173.460938 155.464844 L 176.769531 159.875 L 173.460938 157.226562 C 173.246094 156.824219 172.941406 156.503906 172.550781 156.269531 C 172.160156 156.035156 171.734375 155.914062 171.277344 155.914062 C 171.203125 155.90625 171.132812 155.921875 171.066406 155.953125 C 170.996094 155.984375 170.941406 156.027344 170.898438 156.089844 C 170.855469 156.152344 170.828125 156.21875 170.820312 156.292969 C 170.8125 156.367188 170.824219 156.4375 170.855469 156.507812 L 172.136719 159.433594 L 175.335938 161.390625 L 170.242188 163.085938 L 180.167969 164.78125 L 185.257812 192.566406 L 178.851562 193.890625 Z M 180.667969 203.65625 " fill-opacity="1" fill-rule="nonzero"/><path fill="#000000" d="M 160.695312 190.753906 C 160.695312 190.753906 155.601562 194.941406 152.078125 190.753906 C 152.078125 190.753906 146.339844 180.164062 155.832031 177.296875 C 158.492188 176.464844 161.0625 175.414062 163.546875 174.144531 C 164.175781 173.789062 164.847656 173.558594 165.5625 173.460938 C 166.277344 173.363281 166.988281 173.402344 167.6875 173.574219 C 169.835938 174.125 172.210938 175.515625 170.40625 179.0625 C 167.316406 185.113281 162.238281 185.242188 162.238281 185.242188 C 162.238281 185.242188 159.363281 183.917969 159.363281 185.902344 C 159.382812 186.503906 159.550781 187.058594 159.867188 187.570312 C 160.183594 188.082031 160.605469 188.480469 161.136719 188.769531 Z M 160.695312 190.753906 " fill-opacity="1" fill-rule="nonzero"/><path fill="#26b1d8" d="M 163.121094 197.144531 L 172.390625 194.941406 L 182.332031 192.515625 L 184.316406 202.886719 L 174.707031 206.964844 L 170.097656 232.542969 C 170.097656 232.542969 158.757812 233.484375 155.667969 235.496094 C 144.921875 242.464844 140.949219 238.496094 140.949219 238.496094 L 144.480469 211.8125 L 138.691406 211.8125 L 138.914062 200.34375 L 153.265625 198.136719 C 153.265625 198.136719 156.519531 202.886719 163.121094 197.144531 Z M 163.121094 197.144531 " fill-opacity="1" fill-rule="nonzero"/><path fill="#000000" d="M 293.84375 229.238281 C 294.214844 228.613281 294.507812 227.953125 294.722656 227.257812 C 294.9375 226.5625 295.070312 225.851562 295.117188 225.128906 C 295.164062 224.402344 295.125 223.679688 295 222.964844 C 294.878906 222.246094 294.671875 221.554688 294.386719 220.886719 C 294.011719 219.898438 293.441406 219.039062 292.671875 218.3125 C 291.902344 217.585938 291.015625 217.0625 290.007812 216.742188 C 286.832031 215.996094 283.214844 217.996094 281.519531 221.15625 C 281.183594 221.761719 280.929688 222.398438 280.761719 223.066406 C 280.566406 223.855469 280.441406 224.589844 280.328125 225.246094 C 279.957031 227.441406 279.675781 229.050781 277.496094 230.703125 C 276.816406 227.648438 276.726562 224.570312 277.222656 221.480469 C 277.996094 216.179688 277.636719 208.429688 274.074219 204.023438 C 273.527344 203.351562 272.898438 202.765625 272.195312 202.265625 C 271.492188 201.761719 270.730469 201.363281 269.921875 201.066406 C 269.109375 200.765625 268.269531 200.582031 267.410156 200.507812 C 266.546875 200.433594 265.6875 200.476562 264.839844 200.632812 L 264.746094 200.632812 C 263.914062 200.792969 263.136719 201.097656 262.421875 201.550781 C 261.707031 202.003906 261.097656 202.570312 260.59375 203.25 C 257.4375 207.488281 258.378906 215.511719 259.550781 218.683594 C 259.988281 219.824219 260.210938 221.007812 260.222656 222.234375 C 260.234375 223.457031 260.027344 224.644531 259.609375 225.796875 C 257.539062 228.214844 255.820312 230.863281 254.457031 233.738281 C 253.09375 236.617188 252.128906 239.621094 251.5625 242.753906 C 251.03125 245.464844 250.882812 248.199219 251.113281 250.953125 L 251.15625 251.292969 C 251.175781 251.480469 251.28125 251.570312 251.46875 251.570312 L 282.484375 251.496094 C 282.527344 251.507812 282.570312 251.507812 282.613281 251.496094 C 282.65625 251.507812 282.703125 251.507812 282.75 251.496094 L 294.34375 251.496094 C 294.515625 251.492188 294.621094 251.410156 294.65625 251.242188 L 294.726562 250.933594 C 295.089844 248.902344 295.101562 246.867188 294.765625 244.832031 C 294.429688 242.792969 293.761719 240.871094 292.765625 239.066406 C 292.308594 237.417969 292.171875 235.746094 292.355469 234.046875 C 292.542969 232.347656 293.039062 230.746094 293.84375 229.238281 Z M 293.84375 221.140625 C 294.386719 222.402344 294.613281 223.71875 294.523438 225.089844 C 294.433594 226.457031 294.042969 227.734375 293.34375 228.914062 C 292.511719 230.457031 291.992188 232.097656 291.78125 233.835938 C 291.570312 235.574219 291.683594 237.292969 292.121094 238.988281 C 287.945312 240.046875 284.589844 243.457031 283.265625 244.984375 C 283.816406 236.777344 285.429688 222.820312 290.058594 217.417969 C 290.921875 217.738281 291.679688 218.226562 292.332031 218.875 C 292.984375 219.523438 293.476562 220.28125 293.800781 221.140625 Z M 282.144531 221.394531 C 282.425781 220.875 282.761719 220.390625 283.148438 219.945312 C 283.148438 222.261719 284.523438 224.675781 285.429688 226.050781 C 285.210938 226.898438 284.996094 227.695312 284.8125 228.550781 C 283.84375 227.320312 281.773438 224.117188 282.144531 221.394531 Z M 289.386719 217.273438 C 287.640625 219.691406 286.398438 222.339844 285.660156 225.226562 C 284.726562 223.726562 283.554688 221.359375 283.808594 219.292969 C 284.539062 218.566406 285.386719 218.03125 286.355469 217.675781 C 287.320312 217.324219 288.316406 217.191406 289.34375 217.273438 Z M 276.652344 221.386719 C 276.117188 224.726562 276.246094 228.039062 277.042969 231.324219 C 277.070312 231.433594 277.136719 231.503906 277.238281 231.542969 C 277.34375 231.585938 277.441406 231.570312 277.527344 231.5 C 280.285156 229.601562 280.609375 227.730469 281.015625 225.355469 C 281.128906 224.710938 281.246094 223.980469 281.441406 223.21875 C 281.441406 223.089844 281.519531 222.964844 281.550781 222.84375 C 281.917969 225.644531 283.910156 228.433594 284.617188 229.324219 C 283.238281 236.4375 282.480469 243.621094 282.339844 250.867188 L 268.234375 250.867188 C 268.394531 249.960938 268.828125 247.476562 269.269531 243.929688 C 269.328125 243.828125 269.328125 243.722656 269.269531 243.617188 C 269.4375 242.253906 269.601562 240.753906 269.753906 239.140625 C 269.773438 239.078125 269.773438 239.015625 269.753906 238.953125 C 270.398438 232.054688 270.746094 223.234375 269.660156 215.214844 C 269.761719 215.207031 269.847656 215.167969 269.914062 215.085938 L 275.441406 207.828125 C 277.105469 212.070312 277.171875 217.425781 276.59375 221.386719 Z M 256.679688 230.941406 L 269.097656 239.210938 C 268.964844 240.640625 268.820312 241.980469 268.667969 243.21875 L 254.898438 234.332031 C 255.429688 233.171875 256.023438 232.039062 256.679688 230.941406 Z M 275.203125 207.203125 C 275.171875 207.222656 275.140625 207.25 275.117188 207.277344 L 269.566406 214.5625 C 269.445312 213.714844 269.3125 212.941406 269.160156 212.152344 C 269.234375 212.140625 269.296875 212.101562 269.34375 212.042969 L 274.3125 205.507812 C 274.65625 206.050781 274.960938 206.617188 275.226562 207.203125 Z M 266.476562 201.121094 L 267.128906 201.121094 C 268.386719 201.175781 269.574219 201.488281 270.695312 202.058594 C 271.816406 202.632812 272.765625 203.410156 273.546875 204.394531 C 273.683594 204.566406 273.808594 204.742188 273.9375 204.921875 L 269.015625 211.398438 C 268.351562 207.792969 267.125 204.386719 265.339844 201.183594 C 265.726562 201.132812 266.113281 201.113281 266.5 201.121094 Z M 260.09375 226.21875 C 260.117188 226.195312 260.132812 226.167969 260.144531 226.136719 C 260.609375 224.90625 260.839844 223.632812 260.839844 222.320312 C 260.839844 221.003906 260.609375 219.734375 260.144531 218.503906 C 259.015625 215.441406 258.089844 207.710938 261.113281 203.675781 C 262.011719 202.441406 263.210938 201.660156 264.703125 201.324219 C 270.40625 210.738281 270.21875 227.085938 269.191406 238.488281 L 257.039062 230.398438 C 257.960938 228.929688 258.988281 227.535156 260.117188 226.21875 Z M 251.714844 250.910156 C 251.496094 248.222656 251.644531 245.554688 252.164062 242.90625 C 252.664062 240.148438 253.480469 237.488281 254.609375 234.925781 L 268.582031 243.914062 C 268.125 247.570312 267.664062 250.136719 267.519531 250.925781 L 251.722656 250.925781 Z M 294.089844 250.832031 L 294.089844 250.894531 L 282.945312 250.894531 C 282.945312 250.179688 283.011719 248.425781 283.15625 246.058594 C 283.570312 245.535156 287.398438 240.804688 292.296875 239.582031 C 293.222656 241.304688 293.839844 243.128906 294.152344 245.054688 C 294.460938 246.984375 294.449219 248.910156 294.113281 250.832031 Z M 294.089844 250.832031 " fill-opacity="1" fill-rule="nonzero"/><path fill="#000000" d="M 96.726562 95.699219 C 96.40625 95.691406 96.125 95.585938 95.875 95.382812 C 95.636719 95.195312 95.480469 94.949219 95.410156 94.65625 C 95.335938 94.359375 95.363281 94.070312 95.488281 93.789062 L 98.949219 85.660156 C 99.046875 85.425781 99.027344 85.199219 98.882812 84.988281 C 98.746094 84.769531 98.546875 84.664062 98.289062 84.667969 L 90.527344 84.667969 C 90.351562 84.667969 90.179688 84.632812 90.011719 84.566406 C 89.847656 84.496094 89.703125 84.398438 89.574219 84.273438 C 89.449219 84.144531 89.351562 84 89.28125 83.835938 C 89.214844 83.671875 89.179688 83.5 89.179688 83.320312 L 89.179688 65.429688 C 89.183594 65.253906 89.222656 65.085938 89.292969 64.925781 C 89.363281 64.761719 89.460938 64.621094 89.585938 64.496094 C 89.710938 64.375 89.855469 64.28125 90.019531 64.214844 C 90.183594 64.148438 90.351562 64.113281 90.527344 64.113281 L 146.550781 64.113281 C 146.730469 64.113281 146.902344 64.148438 147.070312 64.21875 C 147.234375 64.285156 147.378906 64.382812 147.507812 64.511719 C 147.632812 64.636719 147.730469 64.78125 147.800781 64.949219 C 147.867188 65.113281 147.902344 65.285156 147.902344 65.464844 L 147.902344 83.34375 C 147.902344 83.523438 147.867188 83.695312 147.800781 83.859375 C 147.730469 84.027344 147.632812 84.171875 147.507812 84.296875 C 147.378906 84.425781 147.234375 84.523438 147.070312 84.589844 C 146.902344 84.660156 146.730469 84.691406 146.550781 84.691406 L 114.074219 84.691406 C 113.933594 84.695312 113.804688 84.734375 113.683594 84.8125 L 97.472656 95.488281 C 97.246094 95.632812 96.996094 95.703125 96.726562 95.699219 Z M 90.527344 64.71875 C 90.332031 64.71875 90.164062 64.785156 90.023438 64.925781 C 89.886719 65.066406 89.816406 65.234375 89.816406 65.429688 L 89.816406 83.34375 C 89.820312 83.539062 89.890625 83.707031 90.027344 83.847656 C 90.167969 83.984375 90.332031 84.054688 90.527344 84.058594 L 98.289062 84.058594 C 98.769531 84.058594 99.148438 84.257812 99.417969 84.660156 C 99.6875 85.0625 99.726562 85.484375 99.535156 85.929688 L 96.070312 94.070312 C 96.019531 94.214844 96.011719 94.359375 96.054688 94.507812 C 96.09375 94.65625 96.171875 94.777344 96.292969 94.871094 C 96.414062 94.96875 96.546875 95.019531 96.703125 95.03125 C 96.855469 95.039062 96.996094 95 97.125 94.917969 L 113.320312 84.277344 C 113.542969 84.128906 113.789062 84.058594 114.058594 84.058594 L 146.542969 84.058594 C 146.742188 84.058594 146.910156 83.988281 147.046875 83.847656 C 147.1875 83.710938 147.257812 83.542969 147.257812 83.34375 L 147.257812 65.429688 C 147.257812 65.230469 147.191406 65.0625 147.050781 64.921875 C 146.910156 64.785156 146.742188 64.714844 146.542969 64.71875 Z M 90.527344 64.71875 " fill-opacity="1" fill-rule="nonzero"/><path fill="#f2dcd1" d="M 343.738281 98.988281 C 342.039062 102.058594 338.527344 104.421875 338.527344 104.421875 C 329.519531 103.480469 334.492188 86.796875 334.492188 86.796875 C 340.417969 89.398438 345.394531 95.910156 343.738281 98.988281 Z M 343.738281 98.988281 " fill-opacity="1" fill-rule="nonzero"/><path fill="#ffffff" d="M 349.304688 109.398438 C 349.894531 112.507812 350.996094 115.425781 352.597656 118.148438 C 354.730469 121.542969 357.929688 120.398438 357.929688 120.398438 L 370.425781 154.949219 L 335.085938 164.164062 L 337.695312 140.855469 C 336.976562 142.289062 336.023438 143.546875 334.839844 144.625 C 333.65625 145.707031 332.320312 146.542969 330.828125 147.128906 C 325.972656 148.902344 305.957031 145.113281 305.957031 145.113281 L 312.230469 132.574219 L 326.445312 133.421875 C 326.445312 133.421875 334.375 119.691406 336.515625 114.378906 C 338.210938 110.136719 343.304688 108.152344 345.375 107.519531 C 346.089844 107.273438 346.808594 107.273438 347.523438 107.519531 C 347.964844 107.65625 348.339844 107.894531 348.660156 108.226562 C 348.976562 108.5625 349.191406 108.953125 349.304688 109.398438 Z M 349.304688 109.398438 " fill-opacity="1" fill-rule="nonzero"/><path fill="#000000" d="M 335.085938 164.484375 C 335 164.484375 334.925781 164.453125 334.867188 164.390625 C 334.804688 164.328125 334.773438 164.25 334.773438 164.164062 L 337.210938 142.382812 C 336.460938 143.539062 335.550781 144.554688 334.480469 145.425781 C 333.40625 146.292969 332.226562 146.976562 330.9375 147.46875 C 326.054688 149.25 306.710938 145.628906 305.894531 145.46875 C 305.789062 145.453125 305.710938 145.398438 305.667969 145.296875 C 305.621094 145.207031 305.621094 145.113281 305.667969 145.019531 L 311.949219 132.480469 C 312.007812 132.351562 312.105469 132.292969 312.246094 132.300781 L 326.269531 133.148438 C 327.183594 131.554688 334.246094 119.234375 336.21875 114.316406 C 337.914062 109.976562 343.136719 107.941406 345.273438 107.273438 C 346.070312 107.019531 346.859375 107.035156 347.640625 107.324219 C 348.128906 107.476562 348.542969 107.734375 348.894531 108.101562 C 349.246094 108.46875 349.484375 108.898438 349.613281 109.390625 L 349.679688 109.679688 C 350.269531 112.652344 351.339844 115.441406 352.886719 118.046875 C 354.855469 121.210938 357.71875 120.210938 357.835938 120.167969 C 357.917969 120.136719 358 120.136719 358.082031 120.167969 C 358.160156 120.207031 358.21875 120.265625 358.253906 120.347656 L 370.6875 154.835938 C 370.71875 154.921875 370.71875 155.007812 370.6875 155.089844 C 370.640625 155.171875 370.574219 155.226562 370.484375 155.253906 L 335.191406 164.476562 Z M 337.695312 140.550781 L 337.777344 140.550781 C 337.953125 140.597656 338.03125 140.710938 338.015625 140.890625 L 335.46875 163.738281 L 369.976562 154.71875 L 357.761719 120.804688 C 357.238281 120.925781 356.707031 120.957031 356.175781 120.90625 C 355.640625 120.851562 355.128906 120.714844 354.640625 120.492188 C 354.148438 120.269531 353.710938 119.972656 353.320312 119.605469 C 352.925781 119.238281 352.605469 118.820312 352.351562 118.34375 C 350.769531 115.679688 349.671875 112.824219 349.066406 109.78125 L 349 109.492188 C 348.898438 109.105469 348.703125 108.765625 348.421875 108.476562 C 348.140625 108.1875 347.808594 107.988281 347.421875 107.875 C 346.773438 107.652344 346.125 107.652344 345.476562 107.875 C 343.414062 108.519531 338.449219 110.417969 336.820312 114.546875 C 334.699219 119.828125 326.804688 133.496094 326.726562 133.632812 C 326.660156 133.746094 326.5625 133.796875 326.429688 133.785156 L 312.433594 132.9375 L 306.441406 144.917969 C 309.324219 145.441406 326.386719 148.453125 330.726562 146.859375 C 332.175781 146.285156 333.476562 145.476562 334.628906 144.425781 C 335.78125 143.375 336.710938 142.152344 337.414062 140.761719 C 337.460938 140.628906 337.550781 140.558594 337.695312 140.550781 Z M 337.695312 140.550781 " fill-opacity="1" fill-rule="nonzero"/><path fill="#000000" d="M 337.457031 112.671875 C 337.28125 112.675781 337.179688 112.589844 337.152344 112.417969 C 337.035156 111.675781 337.039062 110.933594 337.160156 110.191406 C 337.277344 109.449219 337.511719 108.742188 337.855469 108.074219 C 338.199219 107.40625 338.636719 106.808594 339.171875 106.277344 C 339.703125 105.746094 340.308594 105.3125 340.980469 104.972656 C 342.082031 104.402344 343.214844 103.890625 344.375 103.4375 C 348.160156 101.894531 351.734375 100.4375 353.585938 94.960938 C 353.613281 94.878906 353.667969 94.816406 353.746094 94.78125 C 353.828125 94.742188 353.910156 94.738281 353.992188 94.765625 C 354.074219 94.792969 354.132812 94.847656 354.171875 94.925781 C 354.210938 95.003906 354.214844 95.082031 354.1875 95.164062 C 352.242188 100.90625 348.363281 102.480469 344.613281 104.007812 C 343.453125 104.449219 342.320312 104.953125 341.214844 105.515625 C 340.601562 105.824219 340.050781 106.21875 339.5625 106.699219 C 339.070312 107.183594 338.667969 107.726562 338.355469 108.335938 C 338.039062 108.945312 337.824219 109.589844 337.714844 110.265625 C 337.601562 110.945312 337.597656 111.621094 337.703125 112.300781 C 337.71875 112.386719 337.703125 112.464844 337.65625 112.535156 C 337.605469 112.609375 337.539062 112.652344 337.457031 112.671875 Z M 338.695312 104.695312 C 338.976562 104.515625 345.484375 100.269531 347.40625 98.257812 C 347.582031 98.0625 347.796875 97.851562 348.03125 97.613281 C 350.273438 95.382812 354.941406 90.738281 351.960938 83.480469 C 351.929688 83.398438 351.875 83.34375 351.796875 83.308594 C 351.714844 83.277344 351.636719 83.277344 351.554688 83.3125 C 351.472656 83.34375 351.414062 83.398438 351.378906 83.480469 C 351.34375 83.5625 351.34375 83.644531 351.378906 83.726562 C 354.1875 90.585938 349.890625 94.867188 347.589844 97.164062 C 347.34375 97.402344 347.125 97.625 346.9375 97.816406 C 345.09375 99.777344 338.449219 104.117188 338.347656 104.160156 C 338.273438 104.207031 338.230469 104.277344 338.210938 104.363281 C 338.191406 104.449219 338.207031 104.527344 338.253906 104.601562 C 338.320312 104.695312 338.410156 104.742188 338.527344 104.746094 C 338.585938 104.746094 338.644531 104.726562 338.695312 104.695312 Z M 338.695312 104.695312 " fill-opacity="1" fill-rule="nonzero"/><path fill="#26b1d8" d="M 82.726562 141.457031 L 78.621094 144.925781 L 95.402344 157.550781 L 92.203125 164.164062 C 88.101562 164.164062 71.4375 155.878906 71.4375 155.878906 " fill-opacity="1" fill-rule="nonzero"/><path fill="#000000" d="M 351.988281 208.5 L 351.878906 208.5 C 351.796875 208.46875 351.734375 208.414062 351.699219 208.335938 C 351.664062 208.253906 351.660156 208.175781 351.691406 208.09375 L 366.375 168.183594 C 366.40625 168.101562 366.460938 168.042969 366.542969 168.003906 C 366.621094 167.96875 366.703125 167.964844 366.785156 167.996094 C 366.867188 168.027344 366.925781 168.082031 366.960938 168.160156 C 366.996094 168.242188 367 168.320312 366.96875 168.402344 L 352.285156 208.3125 C 352.226562 208.4375 352.128906 208.5 351.988281 208.5 Z M 351.988281 208.5 " fill-opacity="1" fill-rule="nonzero"/><path fill="#000000" d="M 92.203125 164.484375 C 88.066406 164.484375 71.980469 156.515625 71.292969 156.175781 C 71.199219 156.144531 71.136719 156.085938 71.097656 155.992188 C 71.058594 155.902344 71.0625 155.8125 71.109375 155.726562 C 71.152344 155.636719 71.222656 155.582031 71.320312 155.558594 C 71.414062 155.535156 71.503906 155.550781 71.582031 155.609375 C 71.746094 155.683594 87.710938 163.597656 92.007812 163.851562 L 94.960938 157.644531 L 78.425781 145.179688 C 78.339844 145.121094 78.296875 145.039062 78.296875 144.933594 C 78.289062 144.820312 78.332031 144.730469 78.425781 144.664062 L 82.53125 141.1875 C 82.597656 141.125 82.671875 141.09375 82.757812 141.09375 C 82.84375 141.09375 82.921875 141.125 82.984375 141.1875 C 83.042969 141.246094 83.074219 141.320312 83.074219 141.40625 C 83.074219 141.492188 83.042969 141.566406 82.984375 141.628906 L 79.179688 144.847656 L 95.605469 157.226562 C 95.746094 157.332031 95.777344 157.460938 95.699219 157.617188 L 92.539062 164.242188 C 92.5 164.421875 92.386719 164.503906 92.203125 164.484375 Z M 92.203125 164.484375 " fill-opacity="1" fill-rule="nonzero"/><g clip-path="url(#bd1568b27f)"><path fill="#000000" d="M 284.878906 77.585938 C 283.894531 77.566406 282.921875 77.449219 281.957031 77.238281 C 280.996094 77.03125 280.0625 76.730469 279.15625 76.339844 C 278.253906 75.945312 277.394531 75.472656 276.582031 74.914062 C 275.769531 74.359375 275.019531 73.726562 274.332031 73.023438 C 273.640625 72.320312 273.023438 71.558594 272.484375 70.738281 C 271.941406 69.914062 271.484375 69.046875 271.109375 68.136719 C 270.738281 67.226562 270.457031 66.289062 270.265625 65.324219 C 270.074219 64.355469 269.976562 63.382812 269.976562 62.398438 C 269.972656 61.414062 270.066406 60.4375 270.253906 59.472656 C 270.441406 58.503906 270.722656 57.566406 271.09375 56.65625 C 271.460938 55.742188 271.917969 54.875 272.457031 54.050781 C 272.996094 53.226562 273.605469 52.460938 274.292969 51.757812 C 274.980469 51.050781 275.730469 50.417969 276.539062 49.859375 C 277.351562 49.296875 278.207031 48.820312 279.109375 48.425781 C 280.011719 48.03125 280.945312 47.730469 281.90625 47.515625 C 282.871094 47.300781 283.84375 47.183594 284.828125 47.15625 L 284.878906 47.15625 C 285.863281 47.179688 286.839844 47.296875 287.800781 47.503906 C 288.761719 47.714844 289.695312 48.015625 290.601562 48.40625 C 291.503906 48.796875 292.363281 49.273438 293.175781 49.832031 C 293.988281 50.386719 294.738281 51.019531 295.429688 51.722656 C 296.117188 52.425781 296.734375 53.1875 297.273438 54.007812 C 297.816406 54.832031 298.273438 55.699219 298.648438 56.609375 C 299.019531 57.519531 299.300781 58.457031 299.492188 59.421875 C 299.683594 60.390625 299.78125 61.363281 299.78125 62.347656 C 299.785156 63.332031 299.691406 64.308594 299.503906 65.273438 C 299.316406 66.238281 299.035156 67.179688 298.667969 68.089844 C 298.296875 69.003906 297.839844 69.871094 297.304688 70.695312 C 296.765625 71.519531 296.152344 72.285156 295.464844 72.988281 C 294.777344 73.695312 294.027344 74.328125 293.21875 74.886719 C 292.40625 75.449219 291.550781 75.925781 290.648438 76.320312 C 289.746094 76.714844 288.8125 77.015625 287.851562 77.230469 C 286.886719 77.445312 285.914062 77.5625 284.929688 77.585938 Z M 284.878906 47.792969 L 284.828125 47.792969 C 283.882812 47.816406 282.953125 47.933594 282.03125 48.136719 C 281.109375 48.34375 280.214844 48.632812 279.351562 49.011719 C 278.488281 49.390625 277.667969 49.847656 276.890625 50.382812 C 276.113281 50.921875 275.398438 51.527344 274.738281 52.203125 C 274.082031 52.878906 273.496094 53.613281 272.980469 54.402344 C 272.460938 55.191406 272.027344 56.023438 271.671875 56.894531 C 271.320312 57.769531 271.050781 58.667969 270.871094 59.59375 C 270.691406 60.519531 270.601562 61.453125 270.605469 62.398438 C 270.605469 63.339844 270.699219 64.273438 270.882812 65.199219 C 271.066406 66.125 271.335938 67.023438 271.691406 67.894531 C 272.050781 68.769531 272.488281 69.597656 273.007812 70.386719 C 273.523438 71.171875 274.113281 71.902344 274.777344 72.578125 C 275.4375 73.25 276.15625 73.855469 276.933594 74.390625 C 277.710938 74.921875 278.53125 75.378906 279.398438 75.753906 C 280.265625 76.128906 281.160156 76.417969 282.082031 76.617188 C 283.003906 76.820312 283.933594 76.929688 284.878906 76.953125 L 284.929688 76.953125 C 285.875 76.925781 286.804688 76.8125 287.726562 76.609375 C 288.648438 76.402344 289.542969 76.113281 290.40625 75.734375 C 291.269531 75.355469 292.089844 74.898438 292.867188 74.363281 C 293.644531 73.824219 294.359375 73.21875 295.019531 72.542969 C 295.675781 71.867188 296.261719 71.132812 296.78125 70.34375 C 297.296875 69.554688 297.730469 68.722656 298.085938 67.847656 C 298.441406 66.976562 298.707031 66.074219 298.886719 65.152344 C 299.066406 64.226562 299.15625 63.289062 299.152344 62.347656 C 299.152344 61.40625 299.058594 60.472656 298.875 59.546875 C 298.695312 58.621094 298.421875 57.722656 298.066406 56.851562 C 297.707031 55.976562 297.269531 55.148438 296.75 54.359375 C 296.234375 53.570312 295.644531 52.839844 294.984375 52.167969 C 294.324219 51.496094 293.601562 50.890625 292.824219 50.355469 C 292.046875 49.824219 291.226562 49.367188 290.359375 48.992188 C 289.492188 48.617188 288.601562 48.328125 287.675781 48.128906 C 286.753906 47.925781 285.824219 47.816406 284.878906 47.792969 Z M 284.878906 47.792969 " fill-opacity="1" fill-rule="nonzero"/></g><path fill="#000000" d="M 305.140625 112.035156 C 304.304688 112.035156 303.476562 111.957031 302.65625 111.792969 C 301.835938 111.628906 301.039062 111.386719 300.269531 111.070312 C 299.496094 110.75 298.761719 110.355469 298.066406 109.894531 C 297.371094 109.429688 296.730469 108.902344 296.136719 108.3125 C 295.546875 107.722656 295.019531 107.078125 294.554688 106.382812 C 294.089844 105.691406 293.699219 104.957031 293.378906 104.1875 C 293.058594 103.414062 292.816406 102.617188 292.652344 101.800781 C 292.488281 100.980469 292.410156 100.152344 292.410156 99.320312 C 292.410156 98.484375 292.488281 97.65625 292.652344 96.835938 C 292.816406 96.019531 293.058594 95.222656 293.378906 94.453125 C 293.699219 93.679688 294.089844 92.949219 294.554688 92.253906 C 295.019531 91.558594 295.546875 90.917969 296.136719 90.324219 C 296.730469 89.734375 297.371094 89.207031 298.066406 88.742188 C 298.761719 88.28125 299.496094 87.886719 300.269531 87.570312 C 301.039062 87.25 301.835938 87.007812 302.65625 86.84375 C 303.476562 86.683594 304.304688 86.601562 305.140625 86.601562 C 305.976562 86.601562 306.804688 86.683594 307.625 86.84375 C 308.445312 87.007812 309.242188 87.25 310.011719 87.570312 C 310.785156 87.886719 311.519531 88.28125 312.214844 88.742188 C 312.910156 89.207031 313.554688 89.734375 314.144531 90.324219 C 314.734375 90.917969 315.261719 91.558594 315.726562 92.253906 C 316.191406 92.949219 316.585938 93.679688 316.902344 94.453125 C 317.222656 95.222656 317.464844 96.019531 317.628906 96.835938 C 317.792969 97.65625 317.875 98.484375 317.875 99.320312 C 317.875 100.152344 317.792969 100.980469 317.628906 101.800781 C 317.464844 102.617188 317.222656 103.414062 316.902344 104.1875 C 316.585938 104.957031 316.191406 105.691406 315.726562 106.382812 C 315.261719 107.078125 314.734375 107.722656 314.144531 108.3125 C 313.554688 108.902344 312.910156 109.429688 312.214844 109.894531 C 311.519531 110.355469 310.785156 110.75 310.011719 111.070312 C 309.242188 111.386719 308.445312 111.628906 307.625 111.792969 C 306.804688 111.957031 305.976562 112.035156 305.140625 112.035156 Z M 305.140625 87.226562 C 304.347656 87.226562 303.558594 87.304688 302.78125 87.460938 C 302 87.617188 301.242188 87.84375 300.507812 88.148438 C 299.773438 88.453125 299.078125 88.824219 298.417969 89.265625 C 297.753906 89.707031 297.144531 90.207031 296.582031 90.769531 C 296.019531 91.332031 295.519531 91.941406 295.078125 92.601562 C 294.636719 93.261719 294.261719 93.957031 293.957031 94.691406 C 293.652344 95.425781 293.425781 96.179688 293.269531 96.960938 C 293.113281 97.738281 293.035156 98.523438 293.035156 99.320312 C 293.035156 100.113281 293.113281 100.898438 293.269531 101.675781 C 293.425781 102.457031 293.652344 103.210938 293.957031 103.945312 C 294.261719 104.679688 294.636719 105.375 295.078125 106.035156 C 295.519531 106.695312 296.019531 107.308594 296.582031 107.867188 C 297.144531 108.429688 297.753906 108.929688 298.414062 109.371094 C 299.078125 109.8125 299.773438 110.183594 300.507812 110.488281 C 301.242188 110.792969 302 111.023438 302.78125 111.175781 C 303.558594 111.332031 304.347656 111.410156 305.140625 111.410156 C 305.9375 111.410156 306.722656 111.332031 307.503906 111.175781 C 308.28125 111.023438 309.039062 110.792969 309.773438 110.488281 C 310.507812 110.183594 311.203125 109.8125 311.867188 109.371094 C 312.527344 108.929688 313.136719 108.429688 313.699219 107.867188 C 314.261719 107.308594 314.765625 106.695312 315.207031 106.035156 C 315.648438 105.375 316.019531 104.679688 316.324219 103.945312 C 316.628906 103.210938 316.859375 102.457031 317.011719 101.675781 C 317.167969 100.898438 317.246094 100.113281 317.246094 99.320312 C 317.246094 98.523438 317.164062 97.738281 317.011719 96.960938 C 316.855469 96.183594 316.625 95.425781 316.320312 94.695312 C 316.015625 93.960938 315.640625 93.265625 315.199219 92.605469 C 314.757812 91.945312 314.257812 91.335938 313.695312 90.773438 C 313.132812 90.214844 312.523438 89.710938 311.863281 89.269531 C 311.203125 88.828125 310.503906 88.457031 309.769531 88.152344 C 309.035156 87.847656 308.28125 87.617188 307.5 87.464844 C 306.722656 87.308594 305.933594 87.230469 305.140625 87.226562 Z M 305.140625 87.226562 " fill-opacity="1" fill-rule="nonzero"/><path fill="#26b1d8" d="M 305.140625 96.078125 L 309.386719 93.839844 L 308.535156 98.574219 L 311.972656 101.964844 L 307.21875 102.660156 L 305.089844 106.957031 L 302.96875 102.660156 L 298.214844 101.964844 L 301.652344 98.574219 L 300.804688 93.839844 Z M 305.140625 96.078125 " fill-opacity="1" fill-rule="nonzero"/><path fill="#000000" d="M 284.90625 70.71875 C 278.410156 67.371094 274.515625 59.699219 278.859375 57.265625 C 282.714844 55.144531 284.871094 60.46875 284.871094 60.46875 C 284.871094 60.46875 286.992188 55.128906 290.863281 57.222656 C 295.226562 59.585938 291.382812 67.328125 284.90625 70.71875 Z M 284.90625 70.71875 " fill-opacity="1" fill-rule="nonzero"/></svg>