<svg xmlns="http://www.w3.org/2000/svg" xmlns:xlink="http://www.w3.org/1999/xlink" width="540" zoomAndPan="magnify" viewBox="0 0 404.88 299.999988" height="400" preserveAspectRatio="xMidYMid meet" version="1.0"><defs><clipPath id="9cda49e90f"><path d="M 65 261 L 108 261 L 108 274.714844 L 65 274.714844 Z M 65 261 " clip-rule="nonzero"/></clipPath><clipPath id="74c0335243"><path d="M 199 25.039062 L 257 25.039062 L 257 61 L 199 61 Z M 199 25.039062 " clip-rule="nonzero"/></clipPath></defs><path fill="#000000" d="M 332.40625 268.925781 L 313.820312 268.925781 C 313.703125 268.929688 313.601562 268.894531 313.507812 268.820312 C 313.417969 268.75 313.355469 268.660156 313.328125 268.546875 C 313.300781 268.433594 313.3125 268.324219 313.359375 268.21875 C 313.410156 268.113281 313.488281 268.035156 313.589844 267.980469 L 323.65625 262.714844 L 323.65625 257.074219 L 332.257812 257.074219 L 332.257812 264.050781 L 333.238281 267.804688 C 333.273438 267.933594 333.277344 268.066406 333.253906 268.203125 C 333.226562 268.335938 333.171875 268.457031 333.09375 268.566406 C 333.011719 268.675781 332.910156 268.761719 332.789062 268.824219 C 332.667969 268.886719 332.539062 268.921875 332.40625 268.925781 Z M 332.40625 268.925781 " fill-opacity="1" fill-rule="nonzero"/><path fill="#000000" d="M 349.351562 251.550781 L 333.578125 261.429688 C 333.480469 261.492188 333.375 261.519531 333.257812 261.507812 C 333.140625 261.496094 333.042969 261.453125 332.957031 261.371094 C 332.875 261.289062 332.824219 261.191406 332.8125 261.074219 C 332.796875 260.957031 332.820312 260.851562 332.878906 260.75 L 338.558594 251.089844 L 335.699219 246.402344 L 342.988281 241.839844 L 346.105469 246.960938 L 349.496094 250.140625 C 349.59375 250.234375 349.667969 250.347656 349.71875 250.480469 C 349.765625 250.609375 349.78125 250.742188 349.769531 250.882812 C 349.753906 251.019531 349.710938 251.148438 349.640625 251.265625 C 349.566406 251.382812 349.46875 251.476562 349.351562 251.550781 Z M 349.351562 251.550781 " fill-opacity="1" fill-rule="nonzero"/><path fill="#ffffff" d="M 150.523438 247.132812 L 147.015625 254.019531 L 140.5625 253.097656 L 143.335938 247.152344 Z M 109.222656 247.21875 L 106.800781 253.105469 L 113.289062 254.019531 L 116.789062 247.132812 Z M 109.222656 247.21875 " fill-opacity="1" fill-rule="nonzero"/><path fill="#26b1d8" d="M 192.945312 118.972656 L 87.570312 118.972656 L 87.570312 64.777344 L 192.945312 64.777344 Z M 105.246094 50.824219 C 105.007812 50.824219 104.78125 50.867188 104.5625 50.960938 C 104.339844 51.050781 104.148438 51.179688 103.980469 51.347656 C 103.8125 51.515625 103.683594 51.710938 103.589844 51.929688 C 103.5 52.148438 103.453125 52.375 103.453125 52.613281 C 103.453125 52.851562 103.5 53.078125 103.589844 53.300781 C 103.683594 53.519531 103.8125 53.710938 103.980469 53.878906 C 104.148438 54.046875 104.339844 54.175781 104.5625 54.269531 C 104.78125 54.359375 105.007812 54.40625 105.246094 54.40625 C 105.484375 54.40625 105.710938 54.359375 105.933594 54.269531 C 106.152344 54.175781 106.34375 54.046875 106.511719 53.878906 C 106.679688 53.710938 106.8125 53.519531 106.902344 53.300781 C 106.992188 53.078125 107.039062 52.851562 107.039062 52.613281 C 107.039062 52.375 106.992188 52.148438 106.902344 51.929688 C 106.8125 51.710938 106.679688 51.515625 106.511719 51.347656 C 106.34375 51.179688 106.152344 51.050781 105.933594 50.960938 C 105.710938 50.867188 105.484375 50.824219 105.246094 50.824219 Z M 97.902344 50.824219 C 97.664062 50.824219 97.433594 50.867188 97.214844 50.957031 C 96.996094 51.046875 96.800781 51.175781 96.632812 51.34375 C 96.464844 51.511719 96.332031 51.703125 96.242188 51.921875 C 96.148438 52.144531 96.105469 52.371094 96.101562 52.609375 C 96.101562 52.847656 96.148438 53.074219 96.238281 53.296875 C 96.328125 53.515625 96.457031 53.710938 96.625 53.878906 C 96.792969 54.046875 96.988281 54.175781 97.207031 54.265625 C 97.425781 54.359375 97.65625 54.40625 97.890625 54.40625 C 98.128906 54.40625 98.359375 54.359375 98.578125 54.269531 C 98.796875 54.179688 98.992188 54.050781 99.160156 53.882812 C 99.328125 53.714844 99.457031 53.519531 99.550781 53.300781 C 99.640625 53.082031 99.6875 52.851562 99.6875 52.613281 C 99.6875 52.378906 99.640625 52.148438 99.550781 51.929688 C 99.460938 51.710938 99.332031 51.519531 99.164062 51.351562 C 98.996094 51.183594 98.804688 51.054688 98.585938 50.960938 C 98.367188 50.871094 98.140625 50.824219 97.902344 50.824219 Z M 90.550781 50.824219 C 90.3125 50.824219 90.085938 50.867188 89.863281 50.960938 C 89.644531 51.050781 89.453125 51.179688 89.285156 51.347656 C 89.117188 51.515625 88.988281 51.710938 88.894531 51.929688 C 88.804688 52.148438 88.757812 52.375 88.757812 52.613281 C 88.757812 52.851562 88.804688 53.078125 88.894531 53.300781 C 88.988281 53.519531 89.117188 53.710938 89.285156 53.878906 C 89.453125 54.046875 89.644531 54.175781 89.863281 54.269531 C 90.085938 54.359375 90.3125 54.40625 90.550781 54.40625 C 90.789062 54.40625 91.015625 54.359375 91.234375 54.269531 C 91.457031 54.175781 91.648438 54.046875 91.816406 53.878906 C 91.984375 53.710938 92.113281 53.519531 92.207031 53.300781 C 92.296875 53.078125 92.34375 52.851562 92.34375 52.613281 C 92.34375 52.375 92.296875 52.148438 92.207031 51.925781 C 92.117188 51.707031 91.988281 51.515625 91.820312 51.34375 C 91.652344 51.175781 91.457031 51.046875 91.238281 50.957031 C 91.015625 50.867188 90.789062 50.824219 90.550781 50.824219 Z M 90.550781 50.824219 " fill-opacity="1" fill-rule="nonzero"/><g clip-path="url(#9cda49e90f)"><path fill="#000000" d="M 85.265625 274.039062 L 66.601562 273.464844 C 66.460938 273.460938 66.328125 273.429688 66.207031 273.363281 C 66.082031 273.296875 65.980469 273.210938 65.898438 273.097656 C 65.816406 272.984375 65.761719 272.859375 65.742188 272.722656 C 65.71875 272.582031 65.726562 272.449219 65.765625 272.3125 L 66.992188 268.144531 L 67.738281 261.605469 L 76.34375 261.867188 L 75.707031 267.589844 L 85.539062 273.09375 C 85.769531 273.226562 85.851562 273.417969 85.773438 273.675781 C 85.699219 273.929688 85.53125 274.050781 85.265625 274.039062 Z M 107.34375 273.761719 L 97.308594 268.136719 L 96.875 262.492188 L 88.269531 262.230469 L 88.78125 268.917969 L 87.585938 272.953125 C 87.546875 273.085938 87.539062 273.222656 87.5625 273.359375 C 87.585938 273.496094 87.636719 273.621094 87.71875 273.734375 C 87.800781 273.84375 87.902344 273.933594 88.023438 274 C 88.148438 274.066406 88.277344 274.101562 88.417969 274.105469 L 107.089844 274.675781 C 107.332031 274.667969 107.484375 274.546875 107.550781 274.3125 C 107.613281 274.078125 107.546875 273.894531 107.34375 273.761719 Z M 107.34375 273.761719 " fill-opacity="1" fill-rule="nonzero"/></g><path fill="#ffffff" d="M 65.960938 176.695312 L 72.652344 173.371094 L 72.332031 172.222656 L 75.699219 171.863281 L 86.796875 166.378906 L 86.914062 170.699219 L 94.347656 169.917969 L 100.445312 203.636719 C 100.601562 204.527344 100.679688 205.417969 100.683594 206.320312 L 100.882812 264.511719 L 86.894531 264.089844 L 84.457031 225.746094 L 78.277344 263.375 L 78.21875 263.722656 L 64.839844 263.316406 L 69.75 208.195312 L 65.996094 176.984375 Z M 65.960938 176.695312 " fill-opacity="1" fill-rule="nonzero"/><path fill="#000000" d="M 100.988281 206.351562 C 100.984375 205.433594 100.898438 204.523438 100.734375 203.625 L 94.644531 169.910156 C 94.617188 169.738281 94.515625 169.664062 94.339844 169.679688 L 87.207031 170.421875 L 87.09375 166.410156 C 87.089844 166.308594 87.046875 166.230469 86.960938 166.179688 C 86.871094 166.128906 86.78125 166.125 86.691406 166.171875 L 75.640625 171.632812 L 72.324219 171.976562 C 72.238281 171.992188 72.167969 172.035156 72.117188 172.101562 C 72.066406 172.171875 72.054688 172.25 72.078125 172.332031 L 72.347656 173.261719 L 65.835938 176.480469 C 65.71875 176.539062 65.667969 176.632812 65.6875 176.761719 L 69.46875 208.207031 L 64.554688 263.332031 C 64.550781 263.40625 64.574219 263.476562 64.621094 263.539062 C 64.675781 263.597656 64.742188 263.628906 64.824219 263.628906 L 78.203125 264.035156 C 78.367188 264.042969 78.460938 263.964844 78.484375 263.804688 L 84.351562 228.242188 L 86.625 264.140625 C 86.636719 264.3125 86.726562 264.402344 86.902344 264.40625 L 100.890625 264.832031 C 100.96875 264.832031 101.035156 264.804688 101.089844 264.75 C 101.148438 264.695312 101.179688 264.628906 101.179688 264.550781 Z M 87.175781 263.820312 L 84.761719 225.746094 C 85.390625 217.734375 86.378906 205.609375 86.527344 205.035156 C 86.765625 204.179688 83.996094 192.765625 83.4375 190.484375 C 83.421875 190.410156 83.378906 190.351562 83.316406 190.308594 C 83.25 190.269531 83.179688 190.257812 83.105469 190.273438 C 83.03125 190.292969 82.972656 190.335938 82.933594 190.402344 C 82.890625 190.46875 82.882812 190.539062 82.902344 190.613281 C 84.15625 195.769531 86.113281 204.203125 85.988281 204.886719 C 85.757812 205.703125 84.34375 223.621094 84.179688 225.691406 L 77.964844 263.410156 L 65.113281 263.027344 L 69.996094 208.140625 L 66.28125 176.933594 L 66.28125 176.84375 L 72.820312 173.617188 C 72.957031 173.546875 73.003906 173.4375 72.964844 173.289062 L 72.734375 172.449219 L 75.75 172.167969 L 75.847656 172.167969 L 86.527344 166.824219 L 86.632812 170.703125 C 86.636719 170.785156 86.667969 170.851562 86.730469 170.902344 C 86.789062 170.957031 86.859375 170.980469 86.9375 170.972656 L 94.125 170.230469 L 100.167969 203.667969 C 100.335938 204.554688 100.421875 205.449219 100.429688 206.351562 L 100.652344 264.230469 Z M 87.175781 263.820312 " fill-opacity="1" fill-rule="nonzero"/><path fill="#26b1d8" d="M 193.15625 211.417969 L 302.097656 211.417969 L 302.097656 267.425781 L 193.15625 267.425781 Z M 193.15625 211.417969 " fill-opacity="1" fill-rule="nonzero"/><path fill="#000000" d="M 187.964844 115.101562 L 82.589844 115.101562 C 82.511719 115.101562 82.445312 115.074219 82.390625 115.023438 C 82.335938 114.96875 82.308594 114.902344 82.308594 114.824219 L 82.308594 60.632812 C 82.308594 60.554688 82.335938 60.488281 82.390625 60.433594 C 82.445312 60.382812 82.511719 60.355469 82.589844 60.355469 L 187.964844 60.355469 C 188.042969 60.355469 188.109375 60.382812 188.164062 60.433594 C 188.21875 60.488281 188.25 60.554688 188.25 60.632812 L 188.25 114.824219 C 188.25 114.902344 188.21875 114.96875 188.164062 115.023438 C 188.109375 115.074219 188.042969 115.101562 187.964844 115.101562 Z M 82.863281 114.542969 L 187.675781 114.542969 L 187.675781 60.914062 L 82.863281 60.914062 Z M 187.964844 57.382812 L 82.589844 57.382812 C 82.511719 57.386719 82.445312 57.359375 82.390625 57.308594 C 82.335938 57.253906 82.308594 57.1875 82.308594 57.109375 L 82.308594 48.117188 C 82.308594 48.039062 82.335938 47.972656 82.390625 47.917969 C 82.445312 47.863281 82.511719 47.835938 82.589844 47.835938 L 187.964844 47.835938 C 188.042969 47.835938 188.109375 47.863281 188.164062 47.917969 C 188.21875 47.972656 188.25 48.039062 188.25 48.117188 L 188.25 57.109375 C 188.25 57.1875 188.21875 57.253906 188.164062 57.308594 C 188.109375 57.359375 188.042969 57.386719 187.964844 57.382812 Z M 82.863281 56.828125 L 187.675781 56.828125 L 187.675781 48.394531 L 82.863281 48.394531 Z M 82.863281 56.828125 " fill-opacity="1" fill-rule="nonzero"/><path fill="#ffffff" d="M 309.316406 80.589844 L 309.316406 172.910156 C 309.316406 173.550781 309.253906 174.1875 309.125 174.8125 C 309 175.441406 308.816406 176.050781 308.570312 176.640625 C 308.324219 177.234375 308.023438 177.796875 307.667969 178.328125 C 307.3125 178.859375 306.90625 179.351562 306.453125 179.804688 C 306 180.257812 305.507812 180.660156 304.976562 181.015625 C 304.441406 181.371094 303.878906 181.671875 303.289062 181.917969 C 302.695312 182.164062 302.085938 182.347656 301.460938 182.472656 C 300.832031 182.597656 300.195312 182.660156 299.554688 182.660156 L 149.097656 182.660156 C 148.453125 182.664062 147.820312 182.601562 147.1875 182.476562 C 146.558594 182.355469 145.949219 182.167969 145.355469 181.925781 C 144.761719 181.679688 144.199219 181.382812 143.664062 181.027344 C 143.128906 180.671875 142.636719 180.265625 142.179688 179.8125 C 141.726562 179.363281 141.320312 178.867188 140.960938 178.335938 C 140.605469 177.804688 140.304688 177.242188 140.054688 176.648438 C 139.808594 176.058594 139.625 175.445312 139.496094 174.816406 C 139.371094 174.1875 139.308594 173.554688 139.304688 172.910156 L 139.304688 80.589844 C 139.308594 79.949219 139.371094 79.316406 139.496094 78.6875 C 139.621094 78.0625 139.808594 77.453125 140.054688 76.859375 C 140.300781 76.269531 140.601562 75.707031 140.957031 75.175781 C 141.3125 74.644531 141.71875 74.152344 142.171875 73.699219 C 142.621094 73.246094 143.117188 72.84375 143.648438 72.488281 C 144.179688 72.132812 144.742188 71.832031 145.335938 71.585938 C 145.925781 71.339844 146.535156 71.15625 147.164062 71.03125 C 147.792969 70.90625 148.425781 70.84375 149.066406 70.84375 L 299.554688 70.84375 C 300.195312 70.84375 300.832031 70.90625 301.460938 71.03125 C 302.085938 71.15625 302.695312 71.339844 303.289062 71.585938 C 303.878906 71.832031 304.441406 72.132812 304.976562 72.488281 C 305.507812 72.84375 306 73.246094 306.453125 73.699219 C 306.90625 74.152344 307.3125 74.644531 307.667969 75.175781 C 308.023438 75.707031 308.324219 76.269531 308.570312 76.859375 C 308.816406 77.453125 309 78.0625 309.125 78.6875 C 309.253906 79.316406 309.316406 79.949219 309.316406 80.589844 Z M 309.316406 80.589844 " fill-opacity="1" fill-rule="nonzero"/><path fill="#000000" d="M 299.554688 182.929688 L 149.097656 182.929688 C 148.4375 182.925781 147.785156 182.863281 147.140625 182.734375 C 146.492188 182.605469 145.867188 182.414062 145.257812 182.160156 C 144.648438 181.910156 144.070312 181.597656 143.523438 181.234375 C 142.976562 180.867188 142.46875 180.453125 142.003906 179.984375 C 141.539062 179.519531 141.125 179.015625 140.757812 178.464844 C 140.390625 177.917969 140.082031 177.339844 139.828125 176.734375 C 139.578125 176.125 139.386719 175.5 139.257812 174.851562 C 139.128906 174.207031 139.0625 173.554688 139.0625 172.898438 L 139.0625 80.589844 C 139.0625 79.933594 139.128906 79.28125 139.257812 78.636719 C 139.386719 77.988281 139.578125 77.363281 139.828125 76.753906 C 140.082031 76.144531 140.390625 75.570312 140.757812 75.019531 C 141.125 74.472656 141.539062 73.96875 142.003906 73.503906 C 142.46875 73.035156 142.976562 72.621094 143.523438 72.253906 C 144.070312 71.890625 144.648438 71.578125 145.257812 71.328125 C 145.867188 71.074219 146.492188 70.882812 147.140625 70.753906 C 147.785156 70.625 148.4375 70.558594 149.097656 70.558594 L 299.554688 70.558594 C 300.214844 70.558594 300.867188 70.625 301.515625 70.753906 C 302.160156 70.882812 302.789062 71.074219 303.394531 71.324219 C 304.003906 71.578125 304.582031 71.886719 305.128906 72.253906 C 305.675781 72.617188 306.183594 73.035156 306.648438 73.5 C 307.117188 73.964844 307.53125 74.472656 307.898438 75.019531 C 308.265625 75.566406 308.574219 76.144531 308.824219 76.753906 C 309.078125 77.363281 309.269531 77.988281 309.398438 78.632812 C 309.527344 79.28125 309.589844 79.933594 309.589844 80.589844 L 309.589844 172.910156 C 309.589844 173.570312 309.523438 174.222656 309.394531 174.867188 C 309.265625 175.511719 309.074219 176.136719 308.820312 176.746094 C 308.570312 177.351562 308.257812 177.929688 307.894531 178.476562 C 307.527344 179.023438 307.109375 179.527344 306.644531 179.992188 C 306.179688 180.457031 305.671875 180.875 305.125 181.238281 C 304.578125 181.605469 304 181.914062 303.390625 182.164062 C 302.785156 182.417969 302.15625 182.605469 301.511719 182.734375 C 300.867188 182.863281 300.214844 182.929688 299.554688 182.929688 Z M 149.097656 71.109375 C 148.472656 71.109375 147.859375 71.171875 147.246094 71.292969 C 146.636719 71.414062 146.046875 71.59375 145.46875 71.832031 C 144.894531 72.070312 144.351562 72.363281 143.832031 72.707031 C 143.316406 73.054688 142.835938 73.445312 142.398438 73.886719 C 141.957031 74.328125 141.5625 74.804688 141.21875 75.320312 C 140.871094 75.839844 140.582031 76.382812 140.34375 76.960938 C 140.105469 77.535156 139.921875 78.125 139.800781 78.734375 C 139.679688 79.347656 139.621094 79.960938 139.617188 80.582031 L 139.617188 172.910156 C 139.621094 173.535156 139.679688 174.148438 139.800781 174.757812 C 139.921875 175.371094 140.105469 175.960938 140.34375 176.535156 C 140.582031 177.109375 140.871094 177.65625 141.21875 178.171875 C 141.5625 178.691406 141.957031 179.167969 142.398438 179.609375 C 142.835938 180.046875 143.316406 180.441406 143.832031 180.789062 C 144.351562 181.132812 144.894531 181.425781 145.46875 181.664062 C 146.046875 181.902344 146.636719 182.082031 147.246094 182.203125 C 147.859375 182.324219 148.472656 182.386719 149.097656 182.386719 L 299.554688 182.386719 C 300.179688 182.386719 300.792969 182.324219 301.40625 182.203125 C 302.015625 182.082031 302.609375 181.902344 303.183594 181.664062 C 303.757812 181.425781 304.304688 181.132812 304.820312 180.789062 C 305.335938 180.441406 305.816406 180.050781 306.257812 179.609375 C 306.695312 179.167969 307.089844 178.691406 307.433594 178.171875 C 307.78125 177.65625 308.074219 177.109375 308.3125 176.535156 C 308.550781 175.960938 308.730469 175.371094 308.851562 174.757812 C 308.972656 174.148438 309.035156 173.535156 309.035156 172.910156 L 309.035156 80.589844 C 309.035156 79.96875 308.972656 79.351562 308.851562 78.742188 C 308.730469 78.132812 308.550781 77.539062 308.3125 76.964844 C 308.074219 76.390625 307.78125 75.84375 307.4375 75.324219 C 307.089844 74.808594 306.699219 74.328125 306.257812 73.890625 C 305.820312 73.449219 305.339844 73.054688 304.824219 72.710938 C 304.304688 72.363281 303.757812 72.070312 303.183594 71.832031 C 302.609375 71.59375 302.015625 71.414062 301.40625 71.292969 C 300.796875 71.171875 300.179688 71.109375 299.554688 71.109375 Z M 149.097656 71.109375 " fill-opacity="1" fill-rule="nonzero"/><path fill="#000000" d="M 157.964844 115.515625 C 160.683594 109.785156 162.796875 85.511719 162.796875 85.511719 L 178.785156 84.605469 L 178.785156 115.515625 Z M 272 142.882812 L 272 111.980469 L 256.011719 112.878906 C 256.011719 112.878906 253.898438 137.15625 251.1875 142.882812 Z M 236.75 113.421875 L 236.75 92.703125 L 226.03125 93.3125 C 226.03125 93.3125 224.621094 109.585938 222.800781 113.421875 Z M 236.75 113.421875 " fill-opacity="1" fill-rule="nonzero"/><path fill="#000000" d="M 147.230469 254.429688 L 140.019531 253.394531 L 143.097656 246.757812 L 151.125 246.757812 Z M 141.105469 252.808594 L 146.808594 253.617188 L 149.921875 247.496094 L 143.566406 247.496094 Z M 113.46875 254.429688 L 106.28125 253.394531 L 108.96875 246.847656 L 117.363281 246.753906 Z M 107.34375 252.800781 L 113.058594 253.617188 L 116.171875 247.503906 L 109.484375 247.585938 Z M 107.34375 252.800781 " fill-opacity="1" fill-rule="nonzero"/><path fill="#000000" d="M 140.792969 251.828125 C 140.792969 251.828125 144.511719 254.734375 147.773438 251.769531 L 157.511719 256.835938 C 157.71875 256.953125 157.792969 257.125 157.738281 257.355469 C 157.679688 257.585938 157.535156 257.707031 157.296875 257.710938 L 140.050781 257.710938 C 139.507812 257.710938 138.230469 256.910156 138.371094 256.390625 Z M 105.007812 256.492188 C 104.898438 256.621094 105.75 257.710938 106.332031 257.710938 L 123.519531 257.710938 C 123.753906 257.707031 123.902344 257.585938 123.960938 257.355469 C 124.015625 257.125 123.941406 256.953125 123.734375 256.835938 L 114.03125 251.769531 C 110.746094 254.738281 106.835938 251.769531 106.835938 251.769531 Z M 105.007812 256.492188 " fill-opacity="1" fill-rule="nonzero"/><path fill="#000000" d="M 191.199219 134.449219 C 192.6875 131.269531 193.882812 117.789062 193.882812 117.789062 L 202.757812 117.285156 L 202.757812 134.449219 Z M 191.199219 134.449219 " fill-opacity="1" fill-rule="nonzero"/><path fill="#26b1d8" d="M 191.15625 117.246094 L 202.714844 117.246094 C 202.714844 117.246094 203.136719 125.949219 200.203125 130.972656 L 186.21875 133.238281 C 186.21875 133.238281 189.402344 132.042969 191.15625 117.246094 Z M 191.15625 117.246094 " fill-opacity="1" fill-rule="nonzero"/><path fill="#c7876d" d="M 199.191406 122.382812 L 195.601562 127.085938 L 192.121094 129.613281 L 183.90625 152.0625 L 166.972656 156.625 L 165.851562 145.804688 L 177.9375 143.476562 L 185.832031 127.769531 L 186.175781 122.160156 L 188.457031 116.148438 L 188.53125 116.082031 C 188.855469 115.804688 189.226562 115.707031 189.644531 115.792969 C 189.796875 115.832031 189.929688 115.898438 190.046875 116 L 190.402344 114.972656 L 190.558594 114.914062 C 190.761719 114.832031 191.800781 114.453125 192.351562 114.914062 C 192.4375 114.980469 192.507812 115.0625 192.558594 115.160156 C 192.925781 114.921875 193.320312 114.855469 193.742188 114.964844 C 193.972656 115.078125 194.152344 115.242188 194.285156 115.460938 C 194.421875 115.679688 194.488281 115.914062 194.484375 116.171875 L 194.484375 116.347656 C 194.738281 116.292969 194.984375 116.3125 195.226562 116.398438 C 195.710938 116.632812 195.976562 117.019531 196.023438 117.550781 L 196.023438 117.617188 L 195.28125 122.367188 L 194.828125 123.703125 C 195.808594 122.878906 197.300781 121.9375 198.65625 122.21875 Z M 199.191406 122.382812 " fill-opacity="1" fill-rule="nonzero"/><path fill="#ffffff" d="M 157.660156 178.855469 L 169.308594 206.222656 C 169.914062 207.648438 170.199219 209.132812 170.164062 210.675781 C 170.128906 212.222656 169.78125 213.695312 169.113281 215.089844 L 151.832031 249.613281 L 140.5625 249.613281 L 154.730469 215.066406 L 141.828125 187.648438 Z M 157.660156 178.855469 " fill-opacity="1" fill-rule="nonzero"/><path fill="#000000" d="M 151.832031 249.894531 L 140.5625 249.894531 C 140.464844 249.890625 140.386719 249.851562 140.332031 249.769531 C 140.285156 249.683594 140.285156 249.59375 140.332031 249.507812 L 154.457031 215.074219 L 141.574219 187.773438 C 141.539062 187.707031 141.535156 187.640625 141.558594 187.570312 C 141.582031 187.5 141.625 187.449219 141.691406 187.417969 L 157.527344 178.625 C 157.601562 178.585938 157.675781 178.585938 157.75 178.625 C 157.828125 178.652344 157.886719 178.703125 157.917969 178.78125 L 169.5625 206.140625 C 170.183594 207.601562 170.476562 209.125 170.441406 210.710938 C 170.410156 212.296875 170.050781 213.804688 169.367188 215.238281 L 152.085938 249.769531 C 152.023438 249.859375 151.941406 249.898438 151.832031 249.894531 Z M 140.980469 249.339844 L 151.660156 249.339844 L 168.863281 214.964844 C 169.507812 213.605469 169.847656 212.179688 169.878906 210.675781 C 169.910156 209.175781 169.628906 207.730469 169.039062 206.351562 L 157.519531 179.265625 L 142.191406 187.773438 L 154.984375 214.957031 C 155.019531 215.03125 155.019531 215.105469 154.984375 215.179688 Z M 140.980469 249.339844 " fill-opacity="1" fill-rule="nonzero"/><path fill="#000000" d="M 139.9375 155.65625 C 139.53125 155.5625 130.132812 148.570312 135.550781 141.269531 C 135.550781 141.269531 140.144531 136.886719 140.980469 132.925781 C 141.8125 128.964844 144.511719 122.710938 151.199219 122.917969 C 151.199219 122.917969 159.546875 123.125 157.667969 132.09375 C 157.667969 132.09375 155.371094 136.472656 156.417969 139.183594 C 157.464844 141.894531 159.125 145.023438 157.90625 147.945312 C 156.6875 150.863281 153.289062 158.792969 139.9375 155.65625 Z M 139.9375 155.65625 " fill-opacity="1" fill-rule="nonzero"/><path fill="#c7876d" d="M 158.828125 137.988281 C 158.675781 138.632812 158.308594 139.113281 157.71875 139.421875 C 156.121094 140.269531 154.992188 140.660156 154.277344 140.625 L 155.175781 148.570312 L 144.652344 148.167969 L 147.105469 137.222656 C 146.472656 136.78125 144.703125 135.421875 144.71875 133.96875 C 144.75 133.558594 144.882812 133.183594 145.117188 132.847656 C 145.351562 132.511719 145.660156 132.261719 146.035156 132.09375 L 146.121094 132.042969 L 146.21875 132.042969 C 146.648438 132.054688 147.058594 132.15625 147.445312 132.339844 C 147.34375 131.234375 147.589844 130.214844 148.1875 129.277344 C 148.675781 128.667969 149.304688 128.351562 150.085938 128.335938 C 150.855469 128.320312 151.585938 128.144531 152.28125 127.816406 C 152.980469 127.488281 153.578125 127.03125 154.078125 126.445312 L 154.394531 125.992188 L 154.6875 126.460938 C 154.917969 126.796875 159.753906 134.515625 158.828125 137.988281 Z M 158.828125 137.988281 " fill-opacity="1" fill-rule="nonzero"/><path fill="#ffffff" d="M 154.789062 182.855469 L 143.289062 216.011719 C 142.941406 217.0625 142.445312 218.035156 141.804688 218.9375 L 118.375 249.613281 L 106.636719 249.613281 L 126.960938 211.089844 L 133.03125 186.816406 Z M 154.789062 182.855469 " fill-opacity="1" fill-rule="nonzero"/><path fill="#000000" d="M 118.375 249.894531 L 106.636719 249.894531 C 106.53125 249.894531 106.449219 249.847656 106.398438 249.753906 C 106.347656 249.664062 106.347656 249.574219 106.398438 249.488281 L 126.714844 210.957031 L 132.757812 186.75 C 132.785156 186.628906 132.859375 186.558594 132.980469 186.539062 L 154.738281 182.570312 C 154.84375 182.550781 154.933594 182.578125 155.007812 182.660156 C 155.070312 182.742188 155.089844 182.835938 155.058594 182.9375 L 143.558594 216.085938 C 143.179688 217.152344 142.660156 218.140625 141.996094 219.058594 L 118.597656 249.746094 C 118.550781 249.835938 118.476562 249.886719 118.375 249.894531 Z M 107.105469 249.339844 L 118.253906 249.339844 L 141.535156 218.761719 C 142.171875 217.882812 142.667969 216.929688 143.023438 215.90625 L 154.367188 183.210938 L 133.253906 187.03125 L 127.226562 211.136719 Z M 107.105469 249.339844 " fill-opacity="1" fill-rule="nonzero"/><path fill="#26b1d8" d="M 176.90625 156.445312 L 166.496094 158.355469 C 166.015625 159.839844 163.160156 168.558594 162.59375 171.605469 C 161.621094 176.804688 162.527344 183.105469 162.535156 183.167969 L 162.582031 183.492188 L 128.898438 192.449219 L 133.539062 169.941406 L 125.667969 161.765625 L 133.894531 147.328125 C 134.445312 146.546875 135.128906 145.902344 135.9375 145.398438 C 136.75 144.894531 137.625 144.566406 138.570312 144.414062 L 145.304688 143.351562 L 145.4375 143.484375 C 147.527344 145.574219 149.460938 146.457031 151.171875 146.207031 C 153.347656 145.839844 154.464844 143.605469 154.46875 143.582031 L 154.589844 143.34375 L 154.851562 143.34375 L 167.261719 144.914062 L 174.464844 144.035156 Z M 176.90625 156.445312 " fill-opacity="1" fill-rule="nonzero"/><path fill="#000000" d="M 155.347656 181.003906 C 154.789062 177.132812 157.636719 162.34375 157.636719 162.34375 L 167.96875 161.757812 L 167.96875 172.832031 C 167.96875 175.058594 169.367188 181.746094 169.367188 181.746094 Z M 155.347656 181.003906 " fill-opacity="1" fill-rule="nonzero"/><path fill="#ffffff" d="M 154.464844 161.714844 L 167.925781 161.714844 C 167.925781 161.714844 168.410156 171.847656 164.996094 177.699219 L 148.710938 180.34375 C 148.710938 180.34375 152.417969 178.96875 154.464844 161.714844 Z M 154.464844 161.714844 " fill-opacity="1" fill-rule="nonzero"/><path fill="#000000" d="M 148.710938 180.609375 C 148.5625 180.613281 148.472656 180.542969 148.441406 180.402344 C 148.398438 180.238281 148.457031 180.128906 148.613281 180.066406 C 148.613281 180.066406 152.203125 178.375 154.1875 161.675781 C 154.210938 161.515625 154.300781 161.433594 154.464844 161.429688 L 167.925781 161.429688 C 168 161.429688 168.0625 161.457031 168.117188 161.507812 C 168.171875 161.5625 168.199219 161.625 168.199219 161.699219 C 168.199219 162.113281 168.652344 171.992188 165.226562 177.839844 C 165.1875 177.917969 165.121094 177.960938 165.035156 177.972656 L 148.746094 180.609375 Z M 154.714844 161.988281 C 153.230469 174.257812 150.894531 178.476562 149.644531 179.898438 L 164.816406 177.445312 C 167.792969 172.242188 167.695312 163.609375 167.648438 161.988281 Z M 154.714844 161.988281 " fill-opacity="1" fill-rule="nonzero"/><path fill="#c7876d" d="M 161.605469 167.128906 C 161.707031 167.5 161.660156 167.847656 161.472656 168.179688 C 161.222656 168.554688 160.871094 168.785156 160.425781 168.863281 L 160.328125 168.863281 L 158.039062 168.03125 L 151.660156 169.679688 L 124.601562 177.371094 C 123.941406 177.558594 123.28125 177.554688 122.625 177.359375 C 121.964844 177.164062 121.414062 176.804688 120.964844 176.285156 C 120.515625 175.765625 120.242188 175.164062 120.144531 174.484375 C 120.046875 173.804688 120.140625 173.152344 120.425781 172.527344 C 125.746094 160.792969 126.082031 160.792969 126.4375 160.792969 L 126.484375 160.792969 L 135.300781 163.183594 L 135.054688 163.601562 C 134.3125 164.863281 133.515625 166.269531 133.113281 167.011719 C 135.417969 166.671875 143.894531 165.078125 149.726562 163.949219 L 152.851562 161.453125 L 158.253906 159.730469 L 161.136719 160.613281 L 161.183594 160.613281 C 161.859375 161.058594 161.710938 162.183594 161.597656 162.679688 C 161.882812 162.984375 162.042969 163.34375 162.089844 163.753906 C 162.132812 164.167969 162.050781 164.550781 161.835938 164.910156 C 162.042969 165.265625 162.125 165.648438 162.082031 166.058594 C 162.039062 166.464844 161.878906 166.824219 161.605469 167.128906 Z M 161.605469 167.128906 " fill-opacity="1" fill-rule="nonzero"/><path fill="#26b1d8" d="M 230.96875 55.445312 L 230.96875 55.40625 L 210.601562 57.101562 L 219.722656 37.78125 L 231.390625 54.539062 L 238.023438 40.480469 L 247.457031 54.070312 Z M 229.371094 39.796875 C 229.792969 39.761719 230.191406 39.644531 230.566406 39.453125 C 230.941406 39.257812 231.265625 38.996094 231.539062 38.675781 C 231.808594 38.351562 232.007812 37.988281 232.136719 37.585938 C 232.265625 37.183594 232.308594 36.769531 232.273438 36.347656 C 232.234375 35.925781 232.117188 35.53125 231.921875 35.15625 C 231.726562 34.78125 231.46875 34.457031 231.144531 34.1875 C 230.816406 33.914062 230.453125 33.714844 230.050781 33.589844 C 229.648438 33.464844 229.234375 33.421875 228.8125 33.460938 C 228.390625 33.496094 227.996094 33.617188 227.621094 33.8125 C 227.246094 34.007812 226.925781 34.269531 226.652344 34.597656 C 226.382812 34.921875 226.1875 35.285156 226.0625 35.691406 C 225.9375 36.09375 225.894531 36.507812 225.9375 36.925781 C 225.972656 37.34375 226.089844 37.738281 226.285156 38.109375 C 226.480469 38.480469 226.738281 38.800781 227.0625 39.070312 C 227.382812 39.339844 227.742188 39.535156 228.144531 39.660156 C 228.542969 39.789062 228.953125 39.832031 229.371094 39.796875 Z M 229.371094 39.796875 " fill-opacity="1" fill-rule="nonzero"/><path fill="#ffffff" d="M 252.085938 81.511719 L 288.917969 81.558594 L 288.917969 102.898438 L 252.085938 102.855469 Z M 252.085938 81.511719 " fill-opacity="1" fill-rule="nonzero"/><path fill="#000000" d="M 288.898438 103.167969 L 252.0625 103.121094 C 251.988281 103.121094 251.917969 103.09375 251.863281 103.039062 C 251.808594 102.988281 251.78125 102.921875 251.78125 102.847656 L 251.78125 81.503906 C 251.785156 81.328125 251.878906 81.234375 252.058594 81.230469 L 288.890625 81.273438 C 288.964844 81.273438 289.03125 81.300781 289.085938 81.355469 C 289.140625 81.410156 289.171875 81.472656 289.171875 81.550781 L 289.171875 102.890625 C 289.171875 102.96875 289.144531 103.03125 289.089844 103.085938 C 289.039062 103.140625 288.972656 103.167969 288.898438 103.167969 Z M 252.339844 102.5625 L 288.613281 102.609375 L 288.613281 81.800781 L 252.339844 81.757812 Z M 252.339844 102.5625 " fill-opacity="1" fill-rule="nonzero"/><path fill="#26b1d8" d="M 269.191406 100.886719 L 257.804688 100.886719 L 263.511719 91.03125 L 268.847656 100.304688 L 275.894531 88.132812 L 283.246094 100.890625 Z M 269.390625 90.085938 C 269.6875 90.09375 269.976562 90.042969 270.25 89.933594 C 270.527344 89.824219 270.773438 89.667969 270.988281 89.460938 C 271.199219 89.253906 271.367188 89.015625 271.484375 88.742188 C 271.601562 88.46875 271.664062 88.1875 271.667969 87.890625 C 271.671875 87.59375 271.617188 87.304688 271.507812 87.03125 C 271.394531 86.753906 271.238281 86.511719 271.027344 86.296875 C 270.820312 86.085938 270.582031 85.921875 270.308594 85.808594 C 270.035156 85.691406 269.75 85.632812 269.453125 85.628906 C 269.15625 85.628906 268.867188 85.683594 268.59375 85.796875 C 268.320312 85.90625 268.074219 86.066406 267.863281 86.277344 C 267.652344 86.488281 267.492188 86.726562 267.378906 87.003906 C 267.261719 87.277344 267.207031 87.5625 267.207031 87.859375 C 267.203125 88.152344 267.253906 88.433594 267.363281 88.707031 C 267.46875 88.980469 267.628906 89.21875 267.832031 89.429688 C 268.039062 89.640625 268.277344 89.800781 268.546875 89.914062 C 268.816406 90.03125 269.097656 90.085938 269.390625 90.085938 Z M 269.390625 90.085938 " fill-opacity="1" fill-rule="nonzero"/><path fill="#ffffff" d="M 322.066406 69.074219 C 322.066406 69.984375 321.976562 70.882812 321.796875 71.777344 C 321.621094 72.667969 321.359375 73.535156 321.007812 74.375 C 320.660156 75.21875 320.234375 76.015625 319.730469 76.773438 C 319.222656 77.53125 318.648438 78.230469 318.003906 78.871094 C 317.359375 79.515625 316.660156 80.089844 315.902344 80.597656 C 315.148438 81.101562 314.347656 81.527344 313.507812 81.878906 C 312.664062 82.226562 311.800781 82.488281 310.90625 82.664062 C 310.011719 82.84375 309.113281 82.933594 308.203125 82.933594 C 307.292969 82.933594 306.390625 82.84375 305.496094 82.664062 C 304.605469 82.488281 303.738281 82.226562 302.894531 81.878906 C 302.054688 81.527344 301.257812 81.101562 300.5 80.597656 C 299.742188 80.089844 299.042969 79.515625 298.398438 78.871094 C 297.753906 78.230469 297.179688 77.53125 296.675781 76.773438 C 296.167969 76.015625 295.742188 75.21875 295.394531 74.375 C 295.046875 73.535156 294.78125 72.667969 294.605469 71.777344 C 294.425781 70.882812 294.339844 69.984375 294.339844 69.074219 C 294.339844 68.164062 294.425781 67.261719 294.605469 66.371094 C 294.78125 65.476562 295.046875 64.609375 295.394531 63.769531 C 295.742188 62.929688 296.167969 62.128906 296.675781 61.375 C 297.179688 60.617188 297.753906 59.917969 298.398438 59.273438 C 299.042969 58.628906 299.742188 58.054688 300.5 57.550781 C 301.257812 57.046875 302.054688 56.617188 302.894531 56.269531 C 303.738281 55.921875 304.605469 55.660156 305.496094 55.480469 C 306.390625 55.304688 307.292969 55.214844 308.203125 55.214844 C 309.113281 55.214844 310.011719 55.304688 310.90625 55.480469 C 311.800781 55.660156 312.664062 55.921875 313.507812 56.269531 C 314.347656 56.617188 315.148438 57.046875 315.902344 57.550781 C 316.660156 58.054688 317.359375 58.628906 318.003906 59.273438 C 318.648438 59.917969 319.222656 60.617188 319.730469 61.375 C 320.234375 62.128906 320.660156 62.929688 321.007812 63.769531 C 321.359375 64.609375 321.621094 65.476562 321.796875 66.371094 C 321.976562 67.261719 322.066406 68.164062 322.066406 69.074219 Z M 322.066406 69.074219 " fill-opacity="1" fill-rule="nonzero"/><path fill="#000000" d="M 308.203125 83.199219 C 307.273438 83.199219 306.355469 83.109375 305.445312 82.929688 C 304.535156 82.746094 303.652344 82.480469 302.796875 82.125 C 301.941406 81.769531 301.125 81.335938 300.355469 80.820312 C 299.582031 80.304688 298.871094 79.71875 298.214844 79.0625 C 297.558594 78.410156 296.972656 77.695312 296.457031 76.925781 C 295.941406 76.152344 295.507812 75.339844 295.152344 74.484375 C 294.796875 73.628906 294.53125 72.746094 294.347656 71.835938 C 294.167969 70.925781 294.078125 70.007812 294.078125 69.082031 C 294.078125 68.152344 294.167969 67.234375 294.347656 66.328125 C 294.53125 65.417969 294.796875 64.535156 295.152344 63.679688 C 295.507812 62.820312 295.941406 62.007812 296.457031 61.238281 C 296.972656 60.464844 297.558594 59.753906 298.214844 59.097656 C 298.871094 58.441406 299.582031 57.855469 300.355469 57.339844 C 301.125 56.828125 301.941406 56.390625 302.796875 56.035156 C 303.652344 55.683594 304.535156 55.414062 305.445312 55.234375 C 306.355469 55.050781 307.273438 54.960938 308.203125 54.960938 C 309.128906 54.960938 310.046875 55.050781 310.957031 55.234375 C 311.867188 55.414062 312.75 55.683594 313.605469 56.035156 C 314.464844 56.390625 315.277344 56.828125 316.046875 57.339844 C 316.820312 57.855469 317.53125 58.441406 318.1875 59.097656 C 318.84375 59.753906 319.429688 60.464844 319.945312 61.238281 C 320.460938 62.007812 320.894531 62.820312 321.25 63.679688 C 321.605469 64.535156 321.871094 65.417969 322.054688 66.328125 C 322.234375 67.234375 322.324219 68.152344 322.324219 69.082031 C 322.324219 70.007812 322.234375 70.925781 322.054688 71.835938 C 321.871094 72.746094 321.605469 73.628906 321.25 74.484375 C 320.894531 75.339844 320.460938 76.152344 319.945312 76.925781 C 319.429688 77.695312 318.84375 78.410156 318.1875 79.0625 C 317.53125 79.71875 316.820312 80.304688 316.046875 80.820312 C 315.277344 81.335938 314.464844 81.769531 313.605469 82.125 C 312.75 82.480469 311.867188 82.746094 310.957031 82.929688 C 310.046875 83.109375 309.128906 83.199219 308.203125 83.199219 Z M 308.203125 55.496094 C 307.308594 55.496094 306.425781 55.585938 305.550781 55.757812 C 304.675781 55.933594 303.828125 56.191406 303.003906 56.53125 C 302.179688 56.871094 301.398438 57.289062 300.65625 57.785156 C 299.914062 58.28125 299.230469 58.84375 298.597656 59.472656 C 297.96875 60.105469 297.40625 60.789062 296.910156 61.53125 C 296.414062 62.273438 295.996094 63.054688 295.65625 63.878906 C 295.3125 64.703125 295.054688 65.550781 294.882812 66.425781 C 294.707031 67.300781 294.621094 68.183594 294.621094 69.074219 C 294.621094 69.964844 294.707031 70.847656 294.882812 71.722656 C 295.054688 72.597656 295.3125 73.445312 295.65625 74.269531 C 295.996094 75.09375 296.414062 75.875 296.910156 76.617188 C 297.40625 77.355469 297.96875 78.042969 298.597656 78.671875 C 299.230469 79.304688 299.914062 79.867188 300.65625 80.363281 C 301.398438 80.855469 302.179688 81.273438 303.003906 81.617188 C 303.828125 81.957031 304.675781 82.214844 305.550781 82.386719 C 306.425781 82.5625 307.308594 82.648438 308.203125 82.648438 C 309.09375 82.648438 309.976562 82.5625 310.851562 82.386719 C 311.726562 82.214844 312.574219 81.957031 313.398438 81.617188 C 314.222656 81.273438 315.003906 80.855469 315.746094 80.363281 C 316.488281 79.867188 317.175781 79.304688 317.804688 78.671875 C 318.433594 78.042969 319 77.355469 319.492188 76.617188 C 319.988281 75.875 320.40625 75.09375 320.75 74.269531 C 321.089844 73.445312 321.347656 72.597656 321.523438 71.722656 C 321.695312 70.847656 321.78125 69.964844 321.78125 69.074219 C 321.78125 68.183594 321.695312 67.300781 321.519531 66.425781 C 321.34375 65.550781 321.085938 64.703125 320.746094 63.882812 C 320.402344 63.058594 319.984375 62.277344 319.488281 61.535156 C 318.992188 60.796875 318.429688 60.109375 317.800781 59.480469 C 317.167969 58.851562 316.484375 58.289062 315.742188 57.792969 C 315 57.296875 314.21875 56.878906 313.394531 56.539062 C 312.574219 56.199219 311.722656 55.941406 310.851562 55.765625 C 309.976562 55.59375 309.09375 55.503906 308.203125 55.503906 Z M 308.203125 55.496094 " fill-opacity="1" fill-rule="nonzero"/><path fill="#26b1d8" d="M 308.046875 65.164062 L 312.796875 62.667969 L 311.886719 67.953125 L 315.722656 71.667969 L 310.425781 72.410156 L 308.046875 77.261719 L 305.675781 72.453125 L 300.367188 71.710938 L 304.210938 67.996094 L 303.304688 62.710938 Z M 308.046875 65.164062 " fill-opacity="1" fill-rule="nonzero"/><path fill="#3e0e08" d="M 306.394531 141.648438 L 298.21875 145.203125 C 297.742188 145.40625 297.25 145.507812 296.730469 145.515625 C 296.054688 145.515625 295.421875 145.347656 294.835938 145.011719 C 294.25 144.671875 293.785156 144.210938 293.445312 143.625 L 284.398438 128.164062 C 283.480469 128.066406 282.585938 127.863281 281.714844 127.554688 C 279.859375 126.9375 278.90625 124.921875 278.789062 124.664062 C 278.6875 124.476562 278.621094 124.277344 278.597656 124.0625 C 278.570312 123.851562 278.582031 123.644531 278.636719 123.4375 C 278.691406 123.230469 278.777344 123.039062 278.902344 122.867188 C 279.027344 122.695312 279.179688 122.550781 279.359375 122.433594 C 279.363281 121.699219 279.664062 121.113281 280.257812 120.679688 C 280.296875 120.316406 280.421875 119.980469 280.628906 119.679688 C 280.839844 119.375 281.105469 119.140625 281.433594 118.972656 C 280.71875 118.457031 279.960938 118.007812 279.167969 117.625 C 276.445312 116.265625 277.472656 114.015625 277.480469 113.992188 L 277.65625 113.628906 L 282.488281 115.859375 L 286.339844 118.695312 L 296.746094 134.828125 L 302.394531 132.414062 Z M 306.394531 141.648438 " fill-opacity="1" fill-rule="nonzero"/><path fill="#ffffff" d="M 338.894531 167.480469 L 334.5 198.175781 L 333.699219 260.640625 L 319.328125 260.640625 L 320.324219 198.378906 L 323.722656 166.054688 Z M 338.894531 167.480469 " fill-opacity="1" fill-rule="nonzero"/><path fill="#000000" d="M 333.699219 260.945312 L 319.328125 260.945312 C 319.25 260.945312 319.183594 260.917969 319.128906 260.863281 C 319.074219 260.808594 319.046875 260.742188 319.046875 260.664062 L 320.050781 198.398438 L 323.441406 166.054688 C 323.445312 165.976562 323.480469 165.910156 323.539062 165.863281 C 323.597656 165.8125 323.667969 165.792969 323.746094 165.800781 L 338.917969 167.199219 C 338.996094 167.203125 339.058594 167.238281 339.109375 167.300781 C 339.15625 167.367188 339.175781 167.4375 339.167969 167.515625 L 334.804688 198.242188 L 334.011719 260.664062 C 334.011719 260.746094 333.984375 260.820312 333.921875 260.875 C 333.855469 260.933594 333.78125 260.957031 333.699219 260.945312 Z M 319.613281 260.386719 L 333.421875 260.386719 L 334.21875 198.175781 L 338.574219 167.710938 L 323.96875 166.367188 L 320.601562 198.421875 Z M 319.613281 260.386719 " fill-opacity="1" fill-rule="nonzero"/><path fill="#ffffff" d="M 334.597656 165.980469 L 323.722656 198.808594 L 343.480469 242.308594 L 333.074219 250.289062 L 309.207031 201.988281 C 308.078125 199.714844 307.695312 197.320312 308.054688 194.808594 L 312.3125 164.65625 Z M 334.597656 165.980469 " fill-opacity="1" fill-rule="nonzero"/><path fill="#000000" d="M 333.105469 250.570312 L 333.035156 250.570312 C 332.953125 250.550781 332.890625 250.5 332.851562 250.421875 L 308.988281 202.121094 C 307.835938 199.800781 307.441406 197.355469 307.808594 194.789062 L 312.066406 164.625 C 312.089844 164.457031 312.1875 164.378906 312.355469 164.390625 L 334.613281 165.6875 C 334.703125 165.695312 334.773438 165.734375 334.828125 165.808594 C 334.878906 165.886719 334.890625 165.964844 334.867188 166.054688 L 324.019531 198.75 L 343.726562 242.191406 C 343.792969 242.324219 343.765625 242.441406 343.644531 242.53125 L 333.238281 250.511719 C 333.199219 250.542969 333.152344 250.5625 333.105469 250.570312 Z M 312.578125 164.976562 L 308.359375 194.878906 C 308.007812 197.332031 308.382812 199.671875 309.488281 201.890625 L 333.199219 249.867188 L 343.140625 242.21875 L 323.460938 198.917969 C 323.4375 198.851562 323.4375 198.785156 323.460938 198.71875 L 334.21875 166.222656 Z M 312.578125 164.976562 " fill-opacity="1" fill-rule="nonzero"/><path fill="#3e0e08" d="M 332.777344 119.976562 L 333.058594 131.996094 L 323.136719 131.253906 L 323.878906 121.453125 C 322.867188 121.542969 320.628906 121.527344 319.128906 119.863281 C 317.367188 117.917969 317.25 114.417969 318.78125 109.460938 C 319.679688 106.539062 321.164062 104.765625 323.1875 104.183594 C 327.054688 103.078125 331.421875 106.734375 331.75 107.007812 C 332.078125 107.28125 333.980469 109.25 332.777344 119.976562 Z M 332.777344 119.976562 " fill-opacity="1" fill-rule="nonzero"/><path fill="#26b1d8" d="M 347.875 153.777344 C 347.800781 154.269531 347.25 154.921875 343.785156 156.089844 C 342.386719 156.5625 340.996094 156.949219 340.394531 157.113281 L 340.292969 172.71875 L 339.734375 172.480469 C 339.675781 172.480469 333.789062 170.09375 323.738281 173.140625 C 322.769531 173.4375 321.777344 173.582031 320.765625 173.582031 C 315.210938 173.582031 310.871094 169.1875 310.65625 168.964844 L 310.527344 168.832031 L 312.503906 146.160156 L 312.058594 141.449219 L 304.105469 144.488281 L 299.214844 132.375 L 315.867188 125.296875 C 317.121094 124.757812 318.425781 124.570312 319.78125 124.730469 L 332.101562 126.140625 C 333.761719 126.332031 335.199219 127 336.410156 128.148438 C 346.738281 137.988281 348.058594 152.699219 347.875 153.777344 Z M 347.875 153.777344 " fill-opacity="1" fill-rule="nonzero"/><path fill="#ffffff" d="M 319.863281 101.175781 C 327.8125 96.375 334.804688 104.71875 334.804688 104.71875 C 338.425781 107.691406 335.75 115.121094 333.410156 117.089844 C 333.054688 117.289062 332.683594 117.445312 332.292969 117.558594 C 331.621094 117.464844 331.015625 117.214844 330.46875 116.8125 C 329.921875 116.414062 329.503906 115.90625 329.214844 115.292969 C 329.617188 113.695312 329.214844 112.515625 328.816406 112.105469 C 326.398438 109.765625 325.425781 113.300781 325.425781 113.300781 L 324.027344 113.300781 L 323.828125 109.707031 C 316.832031 106.71875 317.851562 102.394531 319.863281 101.175781 Z M 319.863281 101.175781 " fill-opacity="1" fill-rule="nonzero"/><path fill="#000000" d="M 332.285156 117.84375 L 332.25 117.84375 C 331.527344 117.742188 330.875 117.476562 330.292969 117.042969 C 329.707031 116.609375 329.261719 116.0625 328.957031 115.40625 C 328.933594 115.34375 328.933594 115.285156 328.957031 115.226562 C 329.335938 113.695312 328.957031 112.617188 328.628906 112.304688 C 328.027344 111.71875 327.492188 111.488281 327.03125 111.613281 C 326.132812 111.859375 325.707031 113.359375 325.699219 113.375 C 325.660156 113.507812 325.570312 113.574219 325.433594 113.578125 L 324.035156 113.578125 C 323.859375 113.578125 323.765625 113.492188 323.753906 113.316406 L 323.566406 109.898438 C 319.039062 107.90625 318.207031 105.5 318.117188 104.230469 C 318.0625 103.574219 318.175781 102.949219 318.464844 102.359375 C 318.757812 101.769531 319.179688 101.292969 319.730469 100.9375 C 327.796875 96.03125 334.953125 104.460938 335.027344 104.539062 C 335.664062 105.117188 336.140625 105.800781 336.464844 106.59375 C 336.785156 107.386719 336.917969 108.210938 336.863281 109.066406 C 336.863281 112.320312 335.148438 116.019531 333.59375 117.308594 C 333.214844 117.535156 332.808594 117.707031 332.382812 117.828125 Z M 329.507812 115.261719 C 329.773438 115.800781 330.152344 116.25 330.636719 116.605469 C 331.121094 116.960938 331.660156 117.183594 332.257812 117.277344 C 332.59375 117.183594 332.917969 117.046875 333.222656 116.875 C 334.710938 115.671875 336.300781 112.171875 336.292969 109.074219 C 336.335938 108.292969 336.210938 107.542969 335.917969 106.816406 C 335.625 106.09375 335.191406 105.464844 334.621094 104.933594 C 333.335938 103.492188 331.847656 102.304688 330.160156 101.367188 C 326.613281 99.449219 323.203125 99.464844 320 101.414062 C 319.535156 101.714844 319.179688 102.113281 318.9375 102.609375 C 318.695312 103.109375 318.601562 103.632812 318.652344 104.183594 C 318.734375 105.34375 319.53125 107.574219 323.921875 109.453125 C 324.027344 109.496094 324.082031 109.574219 324.085938 109.691406 L 324.273438 113.019531 L 325.210938 113.019531 C 325.371094 112.535156 325.886719 111.339844 326.859375 111.078125 C 327.265625 111.011719 327.65625 111.050781 328.039062 111.199219 C 328.421875 111.347656 328.742188 111.582031 328.992188 111.90625 C 329.511719 112.394531 329.878906 113.652344 329.507812 115.261719 Z M 329.507812 115.261719 " fill-opacity="1" fill-rule="nonzero"/><path fill="#000000" d="M 297.496094 263.144531 L 188.589844 263.144531 C 188.511719 263.140625 188.449219 263.113281 188.394531 263.058594 C 188.339844 263.003906 188.316406 262.9375 188.316406 262.863281 L 188.316406 206.855469 C 188.320312 206.675781 188.410156 206.585938 188.589844 206.582031 L 297.496094 206.582031 C 297.574219 206.582031 297.640625 206.609375 297.695312 206.660156 C 297.75 206.714844 297.777344 206.78125 297.78125 206.855469 L 297.78125 262.863281 C 297.78125 262.941406 297.753906 263.007812 297.695312 263.0625 C 297.640625 263.117188 297.574219 263.144531 297.496094 263.144531 Z M 188.871094 262.585938 L 297.222656 262.585938 L 297.222656 207.136719 L 188.871094 207.136719 Z M 297.496094 203.496094 L 188.589844 203.496094 C 188.511719 203.496094 188.449219 203.464844 188.394531 203.410156 C 188.339844 203.355469 188.316406 203.292969 188.316406 203.214844 L 188.316406 193.925781 C 188.316406 193.851562 188.34375 193.785156 188.394531 193.730469 C 188.449219 193.675781 188.511719 193.644531 188.589844 193.644531 L 297.496094 193.644531 C 297.574219 193.644531 297.640625 193.671875 297.695312 193.726562 C 297.753906 193.78125 297.78125 193.847656 297.78125 193.925781 L 297.78125 203.214844 C 297.78125 203.292969 297.753906 203.359375 297.695312 203.414062 C 297.640625 203.46875 297.574219 203.496094 297.496094 203.496094 Z M 188.871094 202.941406 L 297.222656 202.941406 L 297.222656 194.203125 L 188.871094 194.203125 Z M 188.871094 202.941406 " fill-opacity="1" fill-rule="nonzero"/><path fill="#26b1d8" d="M 210.535156 198.570312 C 210.535156 198.808594 210.488281 199.035156 210.398438 199.253906 C 210.308594 199.472656 210.179688 199.664062 210.011719 199.832031 C 209.84375 200 209.652344 200.128906 209.433594 200.21875 C 209.214844 200.308594 208.984375 200.355469 208.75 200.355469 C 208.511719 200.355469 208.285156 200.308594 208.066406 200.21875 C 207.847656 200.128906 207.65625 200 207.488281 199.832031 C 207.320312 199.664062 207.191406 199.472656 207.101562 199.253906 C 207.011719 199.035156 206.964844 198.808594 206.964844 198.570312 C 206.964844 198.335938 207.011719 198.105469 207.101562 197.886719 C 207.191406 197.667969 207.320312 197.476562 207.488281 197.308594 C 207.65625 197.140625 207.847656 197.011719 208.066406 196.921875 C 208.285156 196.832031 208.511719 196.789062 208.75 196.789062 C 208.984375 196.789062 209.214844 196.832031 209.433594 196.921875 C 209.652344 197.011719 209.84375 197.140625 210.011719 197.308594 C 210.179688 197.476562 210.308594 197.667969 210.398438 197.886719 C 210.488281 198.105469 210.535156 198.335938 210.535156 198.570312 Z M 201.441406 196.789062 C 201.207031 196.785156 200.976562 196.832031 200.757812 196.921875 C 200.539062 197.011719 200.347656 197.136719 200.179688 197.304688 C 200.011719 197.472656 199.878906 197.664062 199.789062 197.882812 C 199.699219 198.101562 199.652344 198.328125 199.652344 198.566406 C 199.652344 198.800781 199.695312 199.03125 199.785156 199.25 C 199.875 199.46875 200.003906 199.660156 200.171875 199.828125 C 200.339844 199.996094 200.53125 200.125 200.75 200.21875 C 200.96875 200.308594 201.195312 200.355469 201.433594 200.355469 C 201.667969 200.355469 201.898438 200.308594 202.117188 200.21875 C 202.335938 200.128906 202.527344 200 202.695312 199.832031 C 202.863281 199.664062 202.992188 199.472656 203.082031 199.253906 C 203.175781 199.035156 203.21875 198.808594 203.21875 198.570312 C 203.21875 198.335938 203.175781 198.109375 203.085938 197.890625 C 202.992188 197.671875 202.867188 197.480469 202.699219 197.3125 C 202.53125 197.144531 202.339844 197.015625 202.121094 196.925781 C 201.90625 196.835938 201.679688 196.789062 201.441406 196.789062 Z M 194.128906 196.789062 C 193.890625 196.789062 193.664062 196.832031 193.445312 196.921875 C 193.226562 197.011719 193.035156 197.140625 192.867188 197.308594 C 192.699219 197.476562 192.570312 197.667969 192.480469 197.886719 C 192.390625 198.105469 192.34375 198.335938 192.34375 198.570312 C 192.34375 198.808594 192.390625 199.035156 192.480469 199.253906 C 192.570312 199.472656 192.699219 199.664062 192.867188 199.832031 C 193.035156 200 193.226562 200.128906 193.445312 200.21875 C 193.664062 200.308594 193.890625 200.355469 194.128906 200.355469 C 194.363281 200.355469 194.59375 200.308594 194.8125 200.21875 C 195.03125 200.128906 195.222656 200 195.390625 199.832031 C 195.558594 199.664062 195.6875 199.472656 195.777344 199.253906 C 195.867188 199.035156 195.914062 198.808594 195.914062 198.570312 C 195.914062 198.335938 195.867188 198.105469 195.777344 197.886719 C 195.6875 197.667969 195.558594 197.476562 195.390625 197.308594 C 195.222656 197.140625 195.03125 197.011719 194.8125 196.921875 C 194.59375 196.832031 194.363281 196.789062 194.128906 196.789062 Z M 194.128906 196.789062 " fill-opacity="1" fill-rule="nonzero"/><path fill="#ffffff" d="M 71.484375 131.300781 L 73.773438 122.714844 C 73.074219 122.234375 70.226562 119.148438 70.242188 117.632812 C 70.242188 116.890625 72.054688 116.890625 72.949219 116.355469 L 73.042969 116.304688 L 73.148438 116.304688 C 73.582031 116.316406 73.996094 116.414062 74.390625 116.59375 C 74.300781 115.460938 74.570312 114.417969 75.191406 113.464844 C 75.667969 112.871094 77.421875 113.28125 77.164062 112.484375 C 76.054688 109.15625 81.230469 110.613281 81.28125 110.542969 L 81.621094 110.046875 L 81.949219 110.558594 C 82.164062 110.894531 87.152344 118.898438 86.21875 122.492188 C 86.058594 123.164062 85.671875 123.65625 85.066406 123.980469 C 83.996094 124.644531 82.835938 125.0625 81.585938 125.226562 L 81.527344 125.226562 L 82.457031 131.730469 Z M 71.484375 131.300781 " fill-opacity="1" fill-rule="nonzero"/><path fill="#000000" d="M 82.457031 132.042969 L 71.484375 131.617188 C 71.394531 131.613281 71.324219 131.578125 71.269531 131.507812 C 71.214844 131.433594 71.199219 131.355469 71.222656 131.269531 L 73.453125 122.859375 C 72.539062 122.113281 69.945312 119.230469 69.96875 117.65625 C 69.96875 116.964844 70.800781 116.757812 71.601562 116.550781 C 72.023438 116.46875 72.425781 116.332031 72.808594 116.140625 L 72.902344 116.089844 C 72.949219 116.074219 72.996094 116.074219 73.042969 116.089844 L 73.148438 116.089844 C 73.480469 116.09375 73.800781 116.144531 74.113281 116.246094 C 74.082031 115.179688 74.367188 114.210938 74.96875 113.332031 C 75.332031 113 75.757812 112.835938 76.25 112.832031 C 76.480469 112.820312 76.699219 112.765625 76.910156 112.671875 C 76.753906 112.351562 76.6875 112.015625 76.714844 111.660156 C 76.742188 111.304688 76.859375 110.984375 77.066406 110.695312 C 77.9375 109.691406 80.1875 110.105469 81.042969 110.261719 L 81.140625 110.261719 L 81.390625 109.90625 C 81.449219 109.824219 81.523438 109.785156 81.621094 109.785156 C 81.722656 109.789062 81.796875 109.832031 81.851562 109.914062 L 82.171875 110.425781 C 82.394531 110.769531 87.472656 118.867188 86.476562 122.582031 C 86.300781 123.335938 85.867188 123.894531 85.183594 124.253906 C 84.144531 124.875 83.027344 125.300781 81.839844 125.527344 L 82.722656 131.722656 C 82.742188 131.808594 82.71875 131.882812 82.65625 131.945312 C 82.605469 132.007812 82.535156 132.039062 82.457031 132.042969 Z M 71.839844 131.078125 L 82.136719 131.46875 L 81.25 125.28125 C 81.242188 125.195312 81.265625 125.121094 81.324219 125.058594 C 81.378906 124.988281 81.453125 124.953125 81.542969 124.960938 C 82.757812 124.800781 83.886719 124.394531 84.929688 123.75 C 85.472656 123.460938 85.8125 123.015625 85.949219 122.417969 C 86.691406 119.632812 83.503906 113.503906 81.710938 110.707031 L 81.617188 110.550781 L 81.511719 110.699219 C 81.398438 110.855469 81.273438 110.835938 80.945312 110.773438 C 80.253906 110.648438 78.160156 110.253906 77.488281 111.019531 C 77.210938 111.46875 77.191406 111.925781 77.429688 112.394531 C 77.503906 112.578125 77.488281 112.753906 77.386719 112.921875 C 77.207031 113.21875 76.785156 113.28125 76.335938 113.347656 C 75.890625 113.414062 75.558594 113.457031 75.410156 113.644531 C 74.820312 114.550781 74.570312 115.539062 74.664062 116.617188 C 74.667969 116.71875 74.625 116.796875 74.539062 116.855469 C 74.445312 116.910156 74.355469 116.910156 74.265625 116.855469 C 73.90625 116.691406 73.535156 116.601562 73.140625 116.59375 L 73.074219 116.59375 C 72.644531 116.8125 72.195312 116.96875 71.722656 117.0625 C 71.15625 117.210938 70.511719 117.375 70.511719 117.632812 C 70.511719 118.992188 73.238281 122.019531 73.914062 122.480469 C 74.023438 122.554688 74.058594 122.65625 74.027344 122.785156 Z M 71.839844 131.078125 " fill-opacity="1" fill-rule="nonzero"/><path fill="#26b1d8" d="M 82.476562 128.328125 L 89.167969 129.777344 C 89.765625 129.90625 90.339844 130.113281 90.890625 130.386719 C 91.4375 130.660156 91.945312 131 92.410156 131.402344 C 92.875 131.804688 93.28125 132.257812 93.632812 132.757812 C 93.984375 133.261719 94.265625 133.800781 94.484375 134.375 L 98.511719 145.105469 L 94.609375 160.125 L 94.800781 166.171875 L 96.535156 178.277344 L 65.535156 184.140625 L 64.050781 152.1875 L 61.253906 149.429688 L 59.253906 143.003906 C 58.984375 142.234375 58.851562 141.441406 58.851562 140.628906 C 58.855469 139.8125 58.992188 139.023438 59.265625 138.257812 C 59.542969 137.488281 59.933594 136.789062 60.449219 136.160156 C 60.964844 135.527344 61.570312 135 62.265625 134.578125 L 72.480469 128.328125 C 78.628906 133.921875 82.476562 128.328125 82.476562 128.328125 Z M 82.476562 128.328125 " fill-opacity="1" fill-rule="nonzero"/><path fill="#ffffff" d="M 61.144531 149.132812 C 64.058594 147.824219 67.996094 145.921875 68.457031 145.648438 L 69.640625 145.007812 L 72.660156 153.589844 L 84.164062 128.773438 C 84.042969 128.242188 83.816406 127.761719 83.480469 127.335938 C 83.144531 126.90625 82.734375 126.570312 82.246094 126.328125 L 77.734375 124.300781 L 78.300781 123.890625 C 79.660156 122.925781 82.144531 123.183594 82.566406 123.238281 C 83.75 123.050781 86.113281 121.304688 86.929688 120.644531 L 87.125 120.488281 L 87.347656 120.589844 C 89.605469 121.640625 90.246094 127.582031 90.246094 128.214844 L 90.246094 128.328125 L 78.039062 164.113281 C 77.878906 164.597656 77.652344 165.050781 77.355469 165.46875 C 77.058594 165.882812 76.707031 166.246094 76.300781 166.558594 C 75.894531 166.867188 75.449219 167.113281 74.96875 167.289062 C 74.488281 167.464844 73.996094 167.566406 73.484375 167.589844 L 73.148438 167.589844 C 72.664062 167.59375 72.191406 167.53125 71.726562 167.398438 C 71.261719 167.265625 70.824219 167.070312 70.414062 166.816406 C 70.007812 166.558594 69.640625 166.246094 69.320312 165.886719 C 69 165.523438 68.738281 165.125 68.53125 164.6875 Z M 61.144531 149.132812 " fill-opacity="1" fill-rule="nonzero"/><path fill="#000000" d="M 73.148438 167.875 C 72.640625 167.875 72.140625 167.808594 71.652344 167.667969 C 71.164062 167.527344 70.703125 167.324219 70.273438 167.050781 C 69.839844 166.78125 69.457031 166.453125 69.121094 166.074219 C 68.78125 165.691406 68.503906 165.273438 68.289062 164.8125 L 60.855469 149.273438 C 60.828125 149.203125 60.828125 149.128906 60.855469 149.058594 C 60.882812 148.984375 60.933594 148.933594 61.003906 148.894531 C 63.976562 147.574219 67.855469 145.683594 68.289062 145.433594 L 69.476562 144.785156 C 69.550781 144.746094 69.628906 144.738281 69.710938 144.769531 C 69.792969 144.796875 69.847656 144.855469 69.878906 144.933594 L 72.695312 152.847656 L 83.84375 128.78125 C 83.734375 128.3125 83.527344 127.890625 83.226562 127.511719 C 82.929688 127.132812 82.566406 126.835938 82.136719 126.617188 L 77.609375 124.550781 C 77.507812 124.507812 77.453125 124.433594 77.445312 124.320312 C 77.433594 124.214844 77.46875 124.128906 77.558594 124.070312 L 78.121094 123.667969 C 79.527344 122.664062 81.964844 122.925781 82.542969 122.925781 C 83.5625 122.738281 85.644531 121.28125 86.738281 120.398438 L 86.929688 120.242188 C 87.027344 120.183594 87.125 120.183594 87.21875 120.242188 L 87.449219 120.339844 C 89.808594 121.417969 90.425781 127.070312 90.535156 128.199219 L 90.535156 128.28125 C 90.542969 128.320312 90.542969 128.363281 90.535156 128.402344 L 78.308594 164.203125 C 78.140625 164.714844 77.898438 165.191406 77.585938 165.628906 C 77.269531 166.070312 76.898438 166.453125 76.472656 166.78125 C 76.042969 167.105469 75.574219 167.363281 75.066406 167.546875 C 74.558594 167.734375 74.039062 167.839844 73.5 167.867188 Z M 61.515625 149.296875 L 68.785156 164.582031 C 68.996094 165.015625 69.265625 165.410156 69.597656 165.765625 C 69.925781 166.117188 70.300781 166.417969 70.71875 166.660156 C 71.136719 166.902344 71.578125 167.078125 72.050781 167.1875 C 72.519531 167.300781 72.996094 167.339844 73.480469 167.308594 C 73.960938 167.277344 74.429688 167.175781 74.882812 167.003906 C 75.335938 166.832031 75.75 166.601562 76.132812 166.304688 C 76.515625 166.011719 76.847656 165.667969 77.128906 165.273438 C 77.410156 164.878906 77.625 164.453125 77.78125 163.996094 L 89.992188 128.238281 C 89.777344 125.859375 88.953125 121.625 87.234375 120.84375 L 87.160156 120.84375 L 87.109375 120.886719 C 87.109375 120.886719 84.136719 123.304688 82.613281 123.542969 L 82.53125 123.542969 C 82.253906 123.542969 79.757812 123.222656 78.464844 124.152344 L 78.292969 124.269531 L 82.359375 126.097656 C 82.882812 126.355469 83.324219 126.714844 83.6875 127.171875 C 84.050781 127.628906 84.296875 128.144531 84.425781 128.714844 C 84.453125 128.78125 84.453125 128.847656 84.425781 128.914062 L 72.910156 153.671875 C 72.855469 153.78125 72.769531 153.832031 72.652344 153.828125 C 72.523438 153.824219 72.4375 153.765625 72.398438 153.644531 L 69.492188 145.46875 L 68.59375 145.953125 C 68.132812 146.160156 64.378906 147.996094 61.523438 149.289062 Z M 61.515625 149.296875 " fill-opacity="1" fill-rule="nonzero"/><path fill="#ffffff" d="M 69.121094 164.640625 L 69.214844 164.308594 L 73.335938 164.921875 L 76.65625 164.179688 L 92.855469 155.144531 L 90.089844 146.292969 L 98.265625 144.273438 L 102.226562 156.378906 C 102.324219 156.695312 102.390625 157.019531 102.425781 157.351562 C 102.460938 157.679688 102.460938 158.011719 102.429688 158.339844 C 102.398438 158.671875 102.339844 158.996094 102.246094 159.316406 C 102.152344 159.632812 102.027344 159.941406 101.875 160.234375 C 101.71875 160.527344 101.539062 160.804688 101.332031 161.0625 C 101.125 161.324219 100.894531 161.558594 100.640625 161.773438 C 100.386719 161.988281 100.113281 162.175781 99.824219 162.335938 C 99.53125 162.5 99.230469 162.628906 98.914062 162.730469 L 79.273438 169.195312 C 77.574219 170.109375 75.761719 170.605469 73.832031 170.683594 L 73.347656 170.683594 C 73.074219 170.71875 72.804688 170.707031 72.535156 170.652344 C 72.261719 170.601562 72.007812 170.503906 71.769531 170.363281 C 71.53125 170.226562 71.320312 170.054688 71.140625 169.847656 C 70.957031 169.636719 70.816406 169.40625 70.710938 169.152344 C 70.160156 168.949219 69.734375 168.597656 69.433594 168.097656 C 69.246094 167.757812 69.191406 167.398438 69.269531 167.019531 C 68.914062 166.246094 68.863281 165.453125 69.121094 164.640625 Z M 69.121094 164.640625 " fill-opacity="1" fill-rule="nonzero"/><path fill="#000000" d="M 73.832031 170.921875 C 73.667969 170.921875 73.5 170.921875 73.335938 170.921875 C 73.042969 170.957031 72.753906 170.945312 72.46875 170.886719 C 72.179688 170.832031 71.90625 170.730469 71.652344 170.585938 C 71.398438 170.445312 71.171875 170.261719 70.972656 170.046875 C 70.773438 169.832031 70.617188 169.589844 70.496094 169.324219 C 69.941406 169.109375 69.507812 168.75 69.195312 168.246094 C 68.984375 167.878906 68.914062 167.488281 68.980469 167.070312 C 68.632812 166.257812 68.589844 165.425781 68.851562 164.582031 L 68.949219 164.238281 C 68.992188 164.082031 69.09375 164.019531 69.253906 164.046875 L 73.320312 164.65625 L 76.5625 163.914062 L 92.527344 154.996094 L 89.820312 146.363281 C 89.792969 146.289062 89.792969 146.21875 89.820312 146.144531 C 89.863281 146.074219 89.921875 146.027344 90 146.003906 L 98.140625 143.984375 C 98.304688 143.949219 98.417969 144.007812 98.472656 144.167969 L 102.4375 156.273438 C 102.539062 156.609375 102.605469 156.949219 102.640625 157.296875 C 102.675781 157.644531 102.675781 157.992188 102.644531 158.339844 C 102.609375 158.691406 102.546875 159.03125 102.445312 159.367188 C 102.347656 159.703125 102.214844 160.023438 102.054688 160.332031 C 101.890625 160.644531 101.699219 160.933594 101.480469 161.207031 C 101.261719 161.480469 101.019531 161.730469 100.753906 161.953125 C 100.484375 162.179688 100.199219 162.375 99.894531 162.546875 C 99.585938 162.714844 99.269531 162.855469 98.933594 162.960938 L 79.355469 169.417969 C 77.632812 170.355469 75.792969 170.855469 73.832031 170.921875 Z M 73.328125 170.355469 L 73.832031 170.355469 C 75.710938 170.273438 77.480469 169.792969 79.140625 168.90625 L 98.785156 162.457031 C 99.085938 162.359375 99.371094 162.238281 99.648438 162.085938 C 99.921875 161.933594 100.179688 161.753906 100.417969 161.554688 C 100.660156 161.351562 100.878906 161.128906 101.074219 160.882812 C 101.269531 160.636719 101.441406 160.375 101.585938 160.097656 C 101.734375 159.820312 101.851562 159.53125 101.9375 159.230469 C 102.027344 158.929688 102.085938 158.621094 102.113281 158.308594 C 102.144531 157.996094 102.140625 157.683594 102.109375 157.371094 C 102.078125 157.058594 102.015625 156.753906 101.921875 156.453125 L 98.042969 144.5625 L 90.4375 146.449219 L 93.121094 155.078125 C 93.171875 155.222656 93.128906 155.332031 92.996094 155.40625 L 76.796875 164.425781 L 76.722656 164.425781 L 73.394531 165.167969 C 73.359375 165.175781 73.324219 165.175781 73.289062 165.167969 L 69.433594 164.617188 L 69.433594 164.722656 C 69.191406 165.464844 69.238281 166.1875 69.566406 166.894531 C 69.582031 166.953125 69.582031 167.011719 69.566406 167.070312 C 69.5 167.382812 69.546875 167.675781 69.699219 167.957031 C 69.976562 168.378906 70.355469 168.675781 70.835938 168.839844 C 70.917969 168.871094 70.972656 168.929688 71 169.011719 C 71.195312 169.46875 71.507812 169.824219 71.9375 170.074219 C 72.371094 170.324219 72.832031 170.417969 73.328125 170.355469 Z M 69.121094 164.640625 Z M 69.121094 164.640625 " fill-opacity="1" fill-rule="nonzero"/><path fill="#000000" d="M 83.109375 111.851562 C 83.160156 111.964844 83.308594 112.203125 83.109375 112.238281 C 82.910156 112.277344 82.835938 112.023438 82.769531 111.949219 C 82.480469 111.621094 82.125 111.398438 81.703125 111.289062 C 81.195312 111.125 80.675781 111.03125 80.144531 111.011719 C 79.957031 111.007812 79.777344 111.035156 79.601562 111.097656 C 79.421875 111.160156 79.265625 111.25 79.121094 111.371094 C 78.976562 111.488281 78.859375 111.628906 78.769531 111.792969 C 78.679688 111.957031 78.617188 112.128906 78.589844 112.3125 C 78.554688 112.527344 78.507812 112.730469 78.484375 112.847656 C 78.359375 113.539062 78.269531 114.246094 78.152344 114.9375 C 78.046875 115.789062 77.785156 116.589844 77.371094 117.34375 C 77.042969 117.878906 76.546875 118.445312 75.882812 118.300781 C 74.730469 118.058594 73.878906 116.132812 72.570312 116.949219 C 71.699219 117.5 71.402344 119.484375 72.398438 120.152344 C 72.648438 120.316406 72.921875 120.429688 73.214844 120.496094 C 73.488281 120.515625 73.75 120.585938 73.996094 120.703125 C 74.539062 121.082031 73.832031 121.1875 73.550781 121.132812 C 74.113281 122.300781 74.441406 123.445312 73.667969 124.542969 C 72.882812 125.511719 71.890625 126.171875 70.695312 126.527344 C 69.414062 127.007812 68.121094 127.027344 66.824219 126.59375 C 66.53125 126.460938 66.253906 126.484375 65.992188 126.667969 C 65.65625 126.867188 65.300781 127.019531 64.925781 127.125 C 64.441406 127.257812 63.945312 127.339844 63.441406 127.367188 C 62.460938 127.449219 61.542969 127.25 60.683594 126.773438 C 59.714844 126.257812 59.011719 125.5 58.566406 124.5 C 58.371094 123.894531 58.316406 123.273438 58.402344 122.640625 C 58.402344 122.203125 58.644531 121.542969 58.402344 121.15625 C 58.15625 120.769531 57.65625 120.613281 57.316406 120.414062 C 56.929688 120.207031 56.601562 119.925781 56.34375 119.574219 C 54.855469 117.640625 55.210938 114.972656 56.15625 112.96875 C 56.347656 112.523438 56.59375 112.113281 56.898438 111.738281 C 57.203125 111.363281 57.550781 111.035156 57.941406 110.753906 C 58.335938 110.472656 58.757812 110.25 59.214844 110.085938 C 59.667969 109.917969 60.132812 109.816406 60.617188 109.78125 C 61.800781 109.679688 62.949219 109.839844 64.066406 110.253906 C 65.074219 110.613281 66.296875 111.28125 67.335938 110.929688 C 68.375 110.582031 68.824219 109.5625 69.386719 108.785156 C 70.050781 107.921875 70.890625 107.289062 71.898438 106.882812 C 72.898438 106.519531 73.925781 106.363281 74.984375 106.417969 C 76.046875 106.46875 77.054688 106.726562 78.011719 107.1875 C 79.082031 107.578125 80.074219 108.117188 80.984375 108.804688 C 81.472656 109.320312 81.898438 109.882812 82.261719 110.492188 C 82.582031 110.929688 82.863281 111.386719 83.109375 111.867188 " fill-opacity="1" fill-rule="nonzero"/><path fill="#000000" d="M 195.226562 158.316406 C 195.234375 158.140625 195.324219 158.046875 195.503906 158.042969 L 208.503906 158.042969 C 208.589844 158.027344 208.667969 158.050781 208.734375 158.105469 C 208.800781 158.164062 208.832031 158.234375 208.832031 158.320312 C 208.832031 158.410156 208.800781 158.480469 208.734375 158.535156 C 208.667969 158.59375 208.589844 158.613281 208.503906 158.601562 L 195.503906 158.601562 C 195.425781 158.597656 195.363281 158.570312 195.308594 158.515625 C 195.253906 158.460938 195.226562 158.394531 195.226562 158.316406 Z M 230.820312 160.28125 L 195.503906 160.28125 C 195.34375 160.304688 195.265625 160.398438 195.265625 160.558594 C 195.265625 160.71875 195.34375 160.8125 195.503906 160.835938 L 230.820312 160.835938 C 230.90625 160.851562 230.980469 160.828125 231.046875 160.773438 C 231.113281 160.71875 231.148438 160.644531 231.148438 160.558594 C 231.148438 160.472656 231.113281 160.398438 231.046875 160.34375 C 230.980469 160.285156 230.90625 160.265625 230.820312 160.28125 Z M 230.820312 162.507812 L 195.503906 162.507812 C 195.34375 162.535156 195.265625 162.628906 195.265625 162.789062 C 195.265625 162.945312 195.34375 163.039062 195.503906 163.066406 L 230.820312 163.066406 C 230.90625 163.082031 230.980469 163.058594 231.046875 163.003906 C 231.113281 162.945312 231.148438 162.875 231.148438 162.789062 C 231.148438 162.699219 231.113281 162.628906 231.046875 162.570312 C 230.980469 162.515625 230.90625 162.496094 230.820312 162.507812 Z M 230.820312 164.738281 L 195.503906 164.738281 C 195.425781 164.738281 195.363281 164.769531 195.308594 164.824219 C 195.253906 164.878906 195.226562 164.945312 195.226562 165.019531 C 195.226562 165.097656 195.253906 165.160156 195.308594 165.214844 C 195.363281 165.269531 195.425781 165.296875 195.503906 165.296875 L 230.820312 165.296875 C 230.898438 165.296875 230.964844 165.269531 231.019531 165.21875 C 231.074219 165.164062 231.101562 165.097656 231.101562 165.019531 C 231.101562 164.941406 231.074219 164.875 231.019531 164.820312 C 230.964844 164.765625 230.898438 164.738281 230.820312 164.738281 Z M 230.820312 166.96875 L 195.503906 166.96875 C 195.425781 166.96875 195.363281 166.992188 195.308594 167.046875 C 195.253906 167.101562 195.226562 167.167969 195.226562 167.242188 C 195.226562 167.320312 195.253906 167.382812 195.308594 167.4375 C 195.363281 167.492188 195.425781 167.523438 195.503906 167.523438 L 230.820312 167.523438 C 230.898438 167.523438 230.964844 167.496094 231.019531 167.441406 C 231.074219 167.386719 231.101562 167.320312 231.101562 167.242188 C 231.101562 167.164062 231.074219 167.097656 231.019531 167.046875 C 230.964844 166.992188 230.898438 166.964844 230.820312 166.96875 Z M 230.820312 169.195312 L 195.503906 169.195312 C 195.425781 169.195312 195.363281 169.222656 195.308594 169.277344 C 195.253906 169.332031 195.226562 169.394531 195.226562 169.472656 C 195.226562 169.546875 195.253906 169.613281 195.308594 169.667969 C 195.363281 169.722656 195.425781 169.75 195.503906 169.753906 L 230.820312 169.753906 C 230.898438 169.753906 230.964844 169.726562 231.019531 169.671875 C 231.074219 169.617188 231.101562 169.550781 231.101562 169.472656 C 231.101562 169.394531 231.074219 169.328125 231.019531 169.273438 C 230.964844 169.21875 230.898438 169.195312 230.820312 169.195312 Z M 230.820312 171.425781 L 195.503906 171.425781 C 195.34375 171.453125 195.265625 171.542969 195.265625 171.703125 C 195.265625 171.863281 195.34375 171.957031 195.503906 171.984375 L 230.820312 171.984375 C 230.90625 171.996094 230.980469 171.976562 231.046875 171.917969 C 231.113281 171.863281 231.148438 171.792969 231.148438 171.703125 C 231.148438 171.617188 231.113281 171.546875 231.046875 171.488281 C 230.980469 171.433594 230.90625 171.410156 230.820312 171.425781 Z M 239.390625 158.601562 L 252.390625 158.601562 C 252.550781 158.574219 252.628906 158.480469 252.628906 158.320312 C 252.628906 158.160156 252.550781 158.070312 252.390625 158.042969 L 239.390625 158.042969 C 239.230469 158.070312 239.152344 158.160156 239.152344 158.320312 C 239.152344 158.480469 239.230469 158.574219 239.390625 158.601562 Z M 239.390625 160.828125 L 274.707031 160.828125 C 274.863281 160.804688 274.941406 160.710938 274.941406 160.550781 C 274.941406 160.390625 274.863281 160.296875 274.707031 160.273438 L 239.390625 160.273438 C 239.230469 160.296875 239.152344 160.390625 239.152344 160.550781 C 239.152344 160.710938 239.230469 160.804688 239.390625 160.828125 Z M 274.707031 162.507812 L 239.390625 162.507812 C 239.234375 162.535156 239.152344 162.628906 239.152344 162.789062 C 239.152344 162.945312 239.234375 163.039062 239.390625 163.066406 L 274.707031 163.066406 C 274.863281 163.039062 274.941406 162.945312 274.941406 162.789062 C 274.941406 162.628906 274.863281 162.535156 274.707031 162.507812 Z M 274.707031 164.738281 L 239.390625 164.738281 C 239.3125 164.738281 239.246094 164.765625 239.191406 164.820312 C 239.140625 164.875 239.113281 164.941406 239.117188 165.019531 C 239.113281 165.097656 239.140625 165.164062 239.195312 165.21875 C 239.246094 165.269531 239.3125 165.296875 239.390625 165.296875 L 274.707031 165.296875 C 274.78125 165.296875 274.847656 165.269531 274.902344 165.214844 C 274.953125 165.160156 274.980469 165.097656 274.980469 165.019531 C 274.980469 164.945312 274.953125 164.878906 274.902344 164.824219 C 274.847656 164.769531 274.78125 164.738281 274.707031 164.738281 Z M 274.707031 166.96875 L 239.390625 166.96875 C 239.3125 166.964844 239.246094 166.992188 239.195312 167.046875 C 239.140625 167.101562 239.113281 167.164062 239.117188 167.242188 C 239.113281 167.320312 239.140625 167.386719 239.191406 167.441406 C 239.246094 167.496094 239.3125 167.523438 239.390625 167.523438 L 274.707031 167.523438 C 274.78125 167.523438 274.847656 167.492188 274.902344 167.4375 C 274.953125 167.382812 274.980469 167.320312 274.980469 167.242188 C 274.980469 167.167969 274.953125 167.101562 274.902344 167.046875 C 274.847656 166.992188 274.78125 166.96875 274.707031 166.96875 Z M 274.707031 169.195312 L 239.390625 169.195312 C 239.3125 169.195312 239.246094 169.21875 239.195312 169.273438 C 239.140625 169.328125 239.113281 169.394531 239.117188 169.472656 C 239.113281 169.546875 239.140625 169.613281 239.191406 169.671875 C 239.246094 169.726562 239.3125 169.753906 239.390625 169.753906 L 274.707031 169.753906 C 274.78125 169.75 274.847656 169.722656 274.902344 169.667969 C 274.953125 169.613281 274.980469 169.546875 274.980469 169.472656 C 274.980469 169.394531 274.953125 169.332031 274.902344 169.277344 C 274.847656 169.222656 274.78125 169.195312 274.707031 169.195312 Z M 274.707031 171.425781 L 239.390625 171.425781 C 239.230469 171.453125 239.152344 171.542969 239.152344 171.703125 C 239.152344 171.863281 239.230469 171.957031 239.390625 171.984375 L 274.707031 171.984375 C 274.863281 171.957031 274.941406 171.863281 274.941406 171.703125 C 274.941406 171.542969 274.863281 171.453125 274.707031 171.425781 Z M 274.707031 171.425781 " fill-opacity="1" fill-rule="nonzero"/><path fill="#000000" d="M 286.675781 100.945312 L 254.285156 100.90625 C 254.210938 100.90625 254.144531 100.875 254.09375 100.820312 C 254.039062 100.765625 254.011719 100.703125 254.011719 100.625 L 254.011719 83.734375 C 254.011719 83.65625 254.039062 83.589844 254.09375 83.535156 C 254.144531 83.480469 254.210938 83.453125 254.285156 83.453125 L 286.675781 83.496094 C 286.75 83.496094 286.816406 83.519531 286.871094 83.574219 C 286.925781 83.628906 286.953125 83.695312 286.949219 83.773438 L 286.949219 100.660156 C 286.949219 100.738281 286.921875 100.804688 286.867188 100.863281 C 286.8125 100.917969 286.746094 100.945312 286.667969 100.945312 Z M 254.570312 100.351562 L 286.398438 100.386719 L 286.398438 84.039062 L 254.578125 83.996094 Z M 254.570312 100.351562 " fill-opacity="1" fill-rule="nonzero"/><path fill="#ffffff" d="M 215.441406 225.046875 C 215.441406 225.527344 215.394531 226.003906 215.296875 226.476562 C 215.203125 226.949219 215.066406 227.410156 214.882812 227.855469 C 214.695312 228.300781 214.46875 228.722656 214.203125 229.121094 C 213.933594 229.523438 213.628906 229.894531 213.289062 230.234375 C 212.949219 230.574219 212.578125 230.878906 212.179688 231.144531 C 211.777344 231.414062 211.355469 231.640625 210.910156 231.824219 C 210.464844 232.007812 210.003906 232.148438 209.53125 232.242188 C 209.058594 232.335938 208.582031 232.382812 208.101562 232.378906 C 207.617188 232.378906 207.140625 232.332031 206.667969 232.238281 C 206.195312 232.144531 205.738281 232.003906 205.292969 231.820312 C 204.847656 231.636719 204.425781 231.410156 204.023438 231.144531 C 203.625 230.875 203.253906 230.570312 202.914062 230.230469 C 202.570312 229.890625 202.269531 229.519531 202 229.117188 C 201.734375 228.71875 201.507812 228.292969 201.324219 227.847656 C 201.140625 227.402344 201 226.945312 200.90625 226.472656 C 200.8125 226 200.765625 225.523438 200.765625 225.042969 C 200.765625 224.558594 200.8125 224.082031 200.90625 223.609375 C 201.003906 223.136719 201.140625 222.679688 201.328125 222.234375 C 201.511719 221.789062 201.738281 221.367188 202.003906 220.96875 C 202.273438 220.566406 202.578125 220.195312 202.917969 219.855469 C 203.261719 219.515625 203.632812 219.210938 204.03125 218.945312 C 204.433594 218.675781 204.855469 218.453125 205.300781 218.269531 C 205.746094 218.085938 206.207031 217.945312 206.679688 217.851562 C 207.152344 217.757812 207.628906 217.710938 208.109375 217.710938 C 208.59375 217.710938 209.070312 217.757812 209.542969 217.851562 C 210.011719 217.949219 210.472656 218.085938 210.917969 218.269531 C 211.363281 218.457031 211.785156 218.679688 212.183594 218.949219 C 212.585938 219.214844 212.957031 219.519531 213.296875 219.859375 C 213.636719 220.203125 213.941406 220.570312 214.207031 220.972656 C 214.472656 221.371094 214.699219 221.796875 214.882812 222.242188 C 215.066406 222.683594 215.207031 223.144531 215.300781 223.617188 C 215.394531 224.089844 215.441406 224.566406 215.441406 225.046875 Z M 219.566406 223.203125 L 232.558594 223.203125 C 232.644531 223.21875 232.722656 223.195312 232.789062 223.140625 C 232.855469 223.082031 232.886719 223.011719 232.886719 222.925781 C 232.886719 222.839844 232.855469 222.765625 232.789062 222.710938 C 232.722656 222.652344 232.644531 222.632812 232.558594 222.644531 L 219.585938 222.644531 C 219.5 222.632812 219.425781 222.652344 219.359375 222.710938 C 219.292969 222.765625 219.257812 222.839844 219.257812 222.925781 C 219.257812 223.011719 219.292969 223.082031 219.359375 223.140625 C 219.425781 223.195312 219.5 223.21875 219.585938 223.203125 Z M 254.875 224.875 L 219.585938 224.875 C 219.5 224.863281 219.425781 224.882812 219.359375 224.9375 C 219.292969 224.996094 219.257812 225.066406 219.257812 225.15625 C 219.257812 225.242188 219.292969 225.3125 219.359375 225.371094 C 219.425781 225.425781 219.5 225.445312 219.585938 225.433594 L 254.894531 225.433594 C 254.980469 225.445312 255.058594 225.425781 255.125 225.371094 C 255.191406 225.3125 255.222656 225.242188 255.222656 225.15625 C 255.222656 225.066406 255.191406 224.996094 255.125 224.9375 C 255.058594 224.882812 254.980469 224.863281 254.894531 224.875 Z M 287.714844 254.859375 L 280.363281 242.101562 L 273.316406 254.273438 L 267.980469 244.992188 L 262.269531 254.84375 L 273.660156 254.84375 Z M 273.851562 244.046875 C 274.148438 244.054688 274.433594 244 274.710938 243.894531 C 274.988281 243.785156 275.234375 243.628906 275.445312 243.421875 C 275.660156 243.214844 275.824219 242.976562 275.945312 242.703125 C 276.0625 242.429688 276.121094 242.144531 276.125 241.847656 C 276.128906 241.550781 276.078125 241.265625 275.964844 240.988281 C 275.855469 240.714844 275.695312 240.46875 275.488281 240.257812 C 275.28125 240.046875 275.039062 239.882812 274.765625 239.765625 C 274.492188 239.648438 274.207031 239.589844 273.910156 239.589844 C 273.613281 239.585938 273.328125 239.640625 273.054688 239.753906 C 272.777344 239.867188 272.535156 240.027344 272.324219 240.238281 C 272.113281 240.445312 271.953125 240.6875 271.835938 240.960938 C 271.722656 241.234375 271.667969 241.519531 271.667969 241.816406 C 271.660156 242.109375 271.714844 242.394531 271.820312 242.667969 C 271.929688 242.9375 272.085938 243.179688 272.292969 243.390625 C 272.496094 243.597656 272.734375 243.761719 273.007812 243.875 C 273.277344 243.988281 273.558594 244.046875 273.851562 244.046875 Z M 273.851562 244.046875 " fill-opacity="1" fill-rule="nonzero"/><path fill="#000000" d="M 205.640625 57.445312 C 205.574219 57.441406 205.515625 57.421875 205.464844 57.378906 C 205.40625 57.328125 205.375 57.265625 205.367188 57.191406 L 203.332031 32.738281 C 203.324219 32.660156 203.34375 32.589844 203.390625 32.527344 C 203.441406 32.472656 203.507812 32.441406 203.582031 32.433594 L 250.464844 28.523438 C 250.546875 28.503906 250.621094 28.519531 250.6875 28.5625 C 250.753906 28.609375 250.796875 28.671875 250.808594 28.753906 L 252.808594 53.277344 C 252.816406 53.351562 252.792969 53.417969 252.75 53.476562 C 252.695312 53.535156 252.632812 53.566406 252.554688 53.574219 L 205.671875 57.480469 Z M 203.902344 32.96875 L 205.902344 56.863281 L 252.234375 53.007812 L 250.234375 29.101562 Z M 203.902344 32.96875 " fill-opacity="1" fill-rule="nonzero"/><path fill="#000000" d="M 340.394531 157.394531 C 340.320312 157.386719 340.257812 157.355469 340.207031 157.296875 C 340.15625 157.238281 340.136719 157.167969 340.144531 157.089844 C 340.144531 156.980469 340.976562 145.535156 337.914062 139.667969 C 337.875 139.597656 337.867188 139.527344 337.890625 139.453125 C 337.914062 139.375 337.960938 139.320312 338.03125 139.289062 C 338.195312 139.207031 338.316406 139.25 338.402344 139.40625 C 341.519531 145.425781 340.707031 156.660156 340.671875 157.136719 C 340.660156 157.308594 340.570312 157.398438 340.394531 157.394531 Z M 340.394531 157.394531 " fill-opacity="1" fill-rule="nonzero"/><path fill="#26b1d8" d="M 157.890625 84.53125 L 178.703125 84.53125 C 178.703125 84.53125 179.445312 100.207031 174.175781 109.257812 L 148.96875 113.332031 C 148.96875 113.332031 154.722656 111.234375 157.890625 84.53125 Z M 242.207031 140.699219 L 267.398438 136.628906 C 272.675781 127.582031 271.925781 111.898438 271.925781 111.898438 L 251.113281 111.898438 C 247.9375 138.589844 242.207031 140.699219 242.207031 140.699219 Z M 216.785156 111.980469 L 233.667969 109.25 C 237.203125 103.167969 236.683594 92.660156 236.683594 92.660156 L 222.746094 92.660156 C 220.621094 110.542969 216.785156 111.980469 216.785156 111.980469 Z M 216.785156 111.980469 " fill-opacity="1" fill-rule="nonzero"/><g clip-path="url(#74c0335243)"><path fill="#000000" d="M 202.699219 60.9375 C 202.628906 60.933594 202.566406 60.910156 202.511719 60.871094 C 202.457031 60.816406 202.425781 60.753906 202.417969 60.675781 L 199.835938 29.785156 C 199.832031 29.710938 199.855469 29.640625 199.90625 29.582031 C 199.957031 29.523438 200.019531 29.488281 200.097656 29.480469 L 253.417969 25.023438 C 253.496094 25.015625 253.566406 25.039062 253.625 25.089844 C 253.683594 25.140625 253.714844 25.203125 253.722656 25.277344 L 256.300781 56.171875 C 256.304688 56.25 256.28125 56.316406 256.230469 56.375 C 256.179688 56.433594 256.117188 56.464844 256.042969 56.472656 L 202.722656 60.929688 Z M 200.417969 30.015625 L 202.953125 60.347656 L 255.730469 55.957031 L 253.1875 25.617188 Z M 200.417969 30.015625 " fill-opacity="1" fill-rule="nonzero"/></g></svg>