<svg xmlns="http://www.w3.org/2000/svg" xmlns:xlink="http://www.w3.org/1999/xlink" width="540" zoomAndPan="magnify" viewBox="0 0 404.88 299.999988" height="400" preserveAspectRatio="xMidYMid meet" version="1.0"><defs><clipPath id="2276deb731"><path d="M 191.070312 14.90625 L 346.953125 14.90625 L 346.953125 162.824219 L 191.070312 162.824219 Z M 191.070312 14.90625 " clip-rule="nonzero"/></clipPath><clipPath id="45c1d94770"><path d="M 57.707031 16 L 342 16 L 342 284.800781 L 57.707031 284.800781 Z M 57.707031 16 " clip-rule="nonzero"/></clipPath></defs><path fill="#ffffff" d="M 208.539062 143.09375 C 208.320312 144.605469 208.320312 145.898438 208.429688 146.816406 C 208.589844 148.597656 208.699219 150.058594 209.78125 151.027344 C 210.425781 151.621094 211.183594 151.839844 211.667969 151.890625 L 211.667969 153.78125 C 211.5625 155.777344 212.695312 157.398438 213.992188 157.777344 C 215.664062 158.207031 218.09375 156.589844 218.3125 153.78125 C 218.09375 152.917969 217.878906 151.785156 217.824219 150.488281 C 217.769531 148.871094 218.039062 147.464844 218.3125 146.492188 C 219.226562 146.117188 219.605469 145.199219 219.335938 144.605469 C 219.121094 144.066406 218.417969 143.902344 218.3125 143.902344 C 217.609375 143.6875 216.582031 143.308594 215.503906 142.5 C 214.691406 141.851562 214.097656 141.203125 213.773438 140.664062 C 213.503906 141.09375 212.75 142.066406 211.398438 142.660156 C 210.15625 143.253906 209.023438 143.199219 208.539062 143.09375 Z M 130.460938 159.234375 L 117.882812 228.925781 C 119.230469 229.304688 121.011719 229.683594 123.066406 229.84375 C 125.332031 230.007812 127.222656 229.792969 128.679688 229.519531 C 130.839844 220.9375 132.945312 211.976562 134.890625 202.582031 C 137.050781 192.054688 138.886719 181.90625 140.398438 172.191406 C 141.316406 190.976562 142.179688 209.710938 143.097656 228.496094 C 144.394531 228.820312 145.90625 229.035156 147.578125 229.199219 C 150.117188 229.359375 152.382812 229.144531 154.113281 228.875 C 154.597656 219.210938 154.8125 209.117188 154.8125 198.589844 C 154.757812 184.445312 154.21875 171.003906 153.300781 158.371094 C 149.792969 158.910156 145.796875 159.34375 141.421875 159.503906 C 137.425781 159.613281 133.757812 159.503906 130.460938 159.234375 Z M 147.523438 113.023438 C 146.875 113.832031 146.769531 114.644531 146.714844 115.019531 C 146.066406 114.75 145.3125 115.074219 145.039062 115.777344 C 144.769531 116.425781 145.09375 117.179688 145.796875 117.449219 C 145.851562 117.992188 145.90625 119.285156 144.988281 120.257812 C 144.285156 121.011719 143.367188 121.230469 142.070312 121.445312 C 140.828125 121.660156 139.75 121.605469 139.101562 121.554688 L 139.101562 124.683594 C 139.75 125.007812 140.992188 125.441406 142.609375 125.441406 C 144.121094 125.441406 145.3125 125.007812 146.011719 124.683594 L 146.011719 122.199219 C 147.523438 122.363281 148.28125 121.929688 148.605469 121.660156 C 149.683594 120.742188 149.578125 119.070312 149.414062 115.9375 C 149.304688 114.265625 149.144531 112.914062 148.980469 112 C 148.550781 112.050781 148.011719 112.375 147.523438 113.023438 Z M 228.351562 163.28125 L 221.875 164.578125 L 193.09375 171.273438 L 190.070312 175.539062 L 190.613281 178.289062 L 231.917969 178.558594 L 232.617188 174.671875 Z M 219.824219 183.417969 L 204.972656 184.335938 C 195.742188 183.3125 193.367188 186.605469 192.125 188.007812 C 190.882812 189.410156 190.125 194.703125 190.125 194.703125 L 190.449219 212.355469 L 190.070312 228.550781 L 199.574219 228.980469 L 200.980469 195.1875 L 204.109375 195.996094 L 205.136719 228.980469 L 214.746094 228.980469 L 214.746094 195.996094 L 220.578125 195.621094 L 226.085938 191.460938 L 228.082031 184.824219 Z M 167.773438 178.613281 L 167.773438 232.328125 L 169.609375 232.328125 L 169.609375 181.90625 L 242.769531 181.90625 L 242.769531 232.328125 L 261.503906 232.328125 L 261.503906 178.613281 Z M 213.828125 125.65625 L 162.695312 125.65625 L 162.695312 90.027344 L 213.828125 90.027344 Z M 163.074219 135.375 C 162.101562 135.375 161.292969 136.183594 161.292969 137.15625 L 161.292969 148.652344 C 161.292969 149.625 162.101562 150.433594 163.074219 150.433594 L 195.742188 150.433594 C 195.902344 150.433594 196.011719 150.488281 196.117188 150.597656 L 198.820312 153.996094 L 198.710938 150.921875 C 198.710938 150.8125 198.765625 150.652344 198.820312 150.597656 C 198.925781 150.488281 199.035156 150.433594 199.144531 150.433594 C 200.113281 150.433594 200.925781 149.625 200.925781 148.652344 L 200.925781 137.15625 C 200.925781 136.183594 200.113281 135.375 199.144531 135.375 L 163.074219 135.375 " fill-opacity="1" fill-rule="nonzero"/><path fill="#0f0e0c" d="M 162.914062 125.171875 L 213.128906 125.171875 L 213.128906 90.457031 L 162.914062 90.457031 Z M 213.613281 126.140625 L 162.480469 126.140625 C 162.210938 126.140625 161.996094 125.925781 161.996094 125.65625 L 161.996094 90.027344 C 161.996094 89.757812 162.210938 89.539062 162.480469 89.539062 L 213.613281 89.539062 C 213.882812 89.539062 214.097656 89.757812 214.097656 90.027344 L 214.097656 125.65625 C 214.046875 125.925781 213.828125 126.140625 213.613281 126.140625 Z M 201.625 211.707031 L 204.433594 197.996094 L 204.433594 197.832031 L 221.496094 197.832031 L 221.496094 197.996094 L 224.683594 211.707031 Z M 231 232.167969 L 223.007812 197.886719 L 227.273438 197.886719 C 227.867188 197.671875 228.300781 197.183594 228.351562 196.644531 C 228.460938 195.835938 227.707031 194.917969 226.519531 194.808594 C 225.222656 194.59375 223.925781 194.433594 222.683594 194.214844 L 202.492188 194.214844 L 200.222656 195.296875 L 200.925781 197.886719 L 203.03125 197.886719 L 199.519531 215 C 199.464844 215.378906 199.683594 215.753906 200.0625 215.808594 L 200.222656 215.808594 C 200.546875 215.808594 200.816406 215.59375 200.925781 215.269531 L 201.355469 213.164062 L 225.113281 213.164062 L 229.648438 232.542969 C 229.703125 232.867188 230.027344 233.085938 230.351562 233.085938 L 230.511719 233.085938 C 230.835938 232.921875 231.054688 232.542969 231 232.167969 " fill-opacity="1" fill-rule="nonzero"/><g clip-path="url(#2276deb731)"><path fill="#26b1d8" d="M 258.15625 38.257812 C 244.445312 30.535156 231.753906 27.296875 223.222656 25.839844 C 223.816406 23.574219 224.359375 21.304688 224.953125 19.035156 C 221.117188 17.527344 215.609375 15.796875 208.863281 15.152344 C 201.679688 14.503906 195.6875 15.257812 191.582031 16.121094 C 192.125 32.914062 192.609375 49.699219 193.148438 66.488281 C 196.28125 66.542969 199.789062 66.8125 203.570312 67.351562 C 206.808594 67.839844 209.78125 68.433594 212.480469 69.082031 C 218.582031 70.59375 226.679688 73.292969 235.425781 78.3125 C 242.824219 82.578125 248.492188 87.273438 252.597656 91.214844 C 263.394531 80.632812 274.195312 70.050781 284.992188 59.523438 C 279.378906 53.425781 270.578125 45.273438 258.15625 38.257812 Z M 346.761719 162.582031 L 279.753906 158.425781 C 280.027344 150.542969 279.484375 136.183594 272.574219 120.203125 C 266.472656 106.058594 258.050781 96.503906 252.542969 91.269531 C 268.417969 75.722656 284.238281 60.226562 300.113281 44.679688 C 309.722656 53.910156 325.976562 71.996094 336.664062 99.632812 C 346.925781 126.085938 347.410156 149.40625 346.761719 162.578125 " fill-opacity="1" fill-rule="nonzero"/></g><path fill="#26b1d8" d="M 226.789062 129.058594 L 226.789062 139.097656 L 229.054688 136.613281 L 241.257812 136.613281 L 241.257812 129.058594 Z M 162.964844 148.113281 L 199.953125 148.113281 C 199.035156 146.007812 197.523438 143.472656 195.632812 143.417969 C 193.472656 143.363281 192.824219 146.492188 190.558594 146.710938 C 186.832031 147.085938 184.886719 138.558594 181.109375 138.828125 C 177.921875 139.042969 176.035156 143.09375 174.414062 145.359375 C 174.144531 145.738281 173.875 146.117188 173.496094 146.332031 C 170.6875 148.222656 167.828125 142.390625 164.800781 143.847656 C 163.507812 144.550781 163.074219 146.546875 162.964844 148.113281 Z M 187.371094 112.214844 L 182.730469 112.214844 L 182.730469 119.015625 L 187.371094 119.015625 Z M 193.90625 110.324219 L 189.261719 110.324219 L 189.261719 119.015625 L 193.90625 119.015625 Z M 200.277344 106.382812 L 195.632812 106.382812 L 195.632812 119.015625 L 200.277344 119.015625 Z M 206.917969 98.824219 L 202.273438 98.824219 L 202.273438 118.960938 L 206.917969 118.960938 Z M 180.460938 118.636719 L 175.816406 118.636719 L 175.816406 106.921875 L 180.460938 106.921875 L 180.460938 118.636719 " fill-opacity="1" fill-rule="nonzero"/><path fill="#ffffff" d="M 174.519531 107.246094 C 177.003906 103.792969 178.355469 102.117188 178.625 102.28125 C 178.839844 102.390625 178.246094 103.902344 176.789062 106.707031 C 177.058594 106.761719 179.703125 107.246094 179.8125 108.382812 C 179.867188 108.707031 179.652344 109.027344 178.515625 110.214844 C 177.707031 111.082031 177.003906 111.78125 176.464844 112.269531 C 176.085938 111.945312 175.65625 111.621094 175.0625 111.296875 C 174.628906 110.972656 174.144531 110.808594 173.710938 110.648438 C 173.65625 110.109375 173.605469 109.351562 173.496094 108.382812 C 173.226562 105.953125 172.957031 104.816406 173.171875 104.765625 C 173.28125 104.710938 173.605469 105.140625 174.519531 107.246094 " fill-opacity="1" fill-rule="nonzero"/><g clip-path="url(#45c1d94770)"><path fill="#0f0e0c" d="M 229.488281 134.78125 L 239.207031 134.78125 L 239.207031 134.292969 L 229.488281 134.292969 Z M 229.488281 133.320312 L 239.207031 133.320312 L 239.207031 132.835938 L 229.488281 132.835938 Z M 239.207031 131.378906 L 229.488281 131.378906 L 229.488281 131.863281 L 239.207031 131.863281 Z M 164.046875 141.90625 C 166.042969 141.203125 168.042969 140.988281 170.039062 141.148438 C 172.902344 141.417969 174.519531 142.554688 176.085938 143.632812 C 177.597656 144.660156 179.003906 145.683594 181.324219 145.683594 L 181.378906 145.683594 C 183.644531 145.683594 185.050781 144.710938 186.5625 143.6875 C 188.183594 142.605469 189.800781 141.472656 192.769531 141.203125 C 194.660156 141.042969 196.550781 141.257812 198.496094 141.851562 C 198.765625 141.90625 198.980469 141.796875 199.089844 141.527344 C 199.144531 141.257812 199.035156 141.042969 198.765625 140.933594 C 196.714844 140.285156 194.660156 140.070312 192.664062 140.230469 C 189.476562 140.5 187.640625 141.796875 186.023438 142.878906 C 184.5625 143.847656 183.324219 144.765625 181.324219 144.710938 C 179.328125 144.710938 178.085938 143.847656 176.628906 142.824219 C 175.0625 141.742188 173.226562 140.449219 170.09375 140.179688 C 167.988281 139.960938 165.882812 140.230469 163.722656 140.988281 C 163.453125 141.09375 163.34375 141.3125 163.453125 141.582031 C 163.5625 141.851562 163.832031 142.011719 164.046875 141.90625 Z M 199.195312 135.375 L 163.074219 135.375 C 162.101562 135.375 161.292969 136.183594 161.292969 137.15625 L 161.292969 148.652344 C 161.292969 149.625 162.101562 150.433594 163.074219 150.433594 L 195.742188 150.433594 C 195.902344 150.433594 196.011719 150.488281 196.117188 150.597656 L 198.820312 153.996094 L 198.710938 150.921875 C 198.710938 150.8125 198.765625 150.652344 198.820312 150.597656 C 198.925781 150.488281 199.035156 150.433594 199.144531 150.433594 C 200.113281 150.433594 200.925781 149.625 200.925781 148.652344 L 200.925781 137.15625 C 200.980469 136.128906 200.167969 135.375 199.195312 135.375 Z M 163.074219 134.402344 L 199.195312 134.402344 C 200.707031 134.402344 201.949219 135.644531 201.949219 137.15625 L 201.949219 148.652344 C 201.949219 150.003906 200.980469 151.136719 199.683594 151.351562 L 199.789062 155.402344 C 199.789062 155.617188 199.683594 155.777344 199.464844 155.832031 C 199.414062 155.832031 199.359375 155.886719 199.304688 155.886719 C 199.144531 155.886719 199.035156 155.832031 198.925781 155.726562 L 195.472656 151.40625 L 163.019531 151.40625 C 161.507812 151.40625 160.265625 150.164062 160.265625 148.652344 L 160.265625 137.15625 C 160.320312 135.644531 161.5625 134.402344 163.074219 134.402344 Z M 214.207031 228.605469 L 214.207031 227.523438 L 205.460938 227.523438 C 205.460938 227.902344 205.515625 228.226562 205.515625 228.605469 Z M 211.398438 226.550781 L 214.152344 226.550781 L 214.097656 194 C 214.097656 193.730469 214.316406 193.515625 214.585938 193.515625 C 214.855469 193.515625 215.070312 193.730469 215.070312 194 L 215.070312 195.621094 C 217.015625 195.835938 218.957031 195.566406 220.632812 194.808594 C 222.628906 193.945312 224.089844 192.488281 225.113281 190.976562 L 215.015625 191.085938 C 214.585938 191.085938 213.074219 191.085938 211.992188 192.21875 C 211.453125 192.757812 211.183594 193.40625 211.074219 193.835938 Z M 203.730469 195.511719 C 203.679688 194.484375 203.625 193.460938 203.460938 192.433594 L 203.460938 192.378906 C 203.460938 192.164062 203.410156 191.949219 203.355469 191.679688 C 202.382812 191.246094 201.140625 190.921875 200.167969 191.410156 C 198.980469 192.054688 198.601562 193.785156 198.496094 195.1875 C 198.007812 199.777344 197.628906 211.761719 197.46875 226.605469 L 199.195312 226.605469 L 200.546875 193.730469 C 200.546875 193.460938 200.816406 193.242188 201.03125 193.296875 C 201.300781 193.296875 201.519531 193.515625 201.464844 193.785156 L 201.410156 194.972656 Z M 199.089844 228.605469 L 199.144531 227.523438 L 190.558594 227.523438 C 190.558594 227.902344 190.558594 228.226562 190.503906 228.605469 Z M 215.070312 196.589844 L 215.125 227.039062 L 215.125 229.089844 C 215.125 229.199219 215.070312 229.359375 214.964844 229.414062 C 214.855469 229.519531 214.746094 229.574219 214.640625 229.574219 L 214.152344 229.574219 L 214.152344 232.382812 L 201.625 232.382812 C 201.789062 232.003906 202.003906 231.464844 202.492188 231.085938 C 203.085938 230.601562 203.679688 230.4375 204.324219 230.277344 C 204.8125 230.113281 205.460938 229.898438 206.160156 229.628906 L 204.972656 229.628906 C 204.703125 229.628906 204.542969 229.414062 204.488281 229.199219 C 204.21875 223.636719 203.894531 218.128906 203.515625 212.839844 C 203.300781 209.816406 203.410156 206.738281 203.515625 203.71875 C 203.625 201.394531 203.679688 198.964844 203.625 196.589844 L 201.25 195.996094 L 199.898438 229.199219 C 199.898438 229.46875 199.683594 229.628906 199.414062 229.628906 L 198.546875 229.628906 L 198.546875 232.4375 L 186.023438 232.4375 C 186.183594 232.058594 186.398438 231.519531 186.886719 231.140625 C 187.480469 230.65625 188.074219 230.492188 188.722656 230.332031 C 189.207031 230.167969 189.855469 229.953125 190.558594 229.683594 L 189.855469 229.683594 C 189.746094 229.683594 189.585938 229.628906 189.53125 229.519531 C 189.421875 229.414062 189.371094 229.304688 189.421875 229.199219 C 189.855469 219.425781 189.910156 209.925781 189.695312 200.964844 L 189.695312 200.316406 C 189.53125 194.539062 189.371094 189.574219 192.933594 186.441406 C 195.363281 184.230469 199.195312 183.417969 203.894531 184.121094 C 204.164062 184.175781 204.324219 184.390625 204.273438 184.660156 C 204.21875 184.929688 204.003906 185.09375 203.730469 185.039062 C 200.65625 184.605469 196.335938 184.550781 193.527344 187.144531 C 190.339844 190.003906 190.449219 194.808594 190.613281 200.316406 L 190.613281 200.964844 C 190.828125 209.167969 190.773438 217.859375 190.449219 226.769531 L 196.390625 226.769531 C 196.550781 211.921875 196.929688 199.882812 197.414062 195.242188 C 197.523438 194.160156 197.792969 191.679688 199.628906 190.761719 C 200.601562 190.273438 201.789062 190.273438 203.191406 190.816406 C 203.136719 189.464844 203.355469 187.792969 204.488281 186.386719 C 205.621094 184.929688 207.566406 184.066406 210.101562 183.851562 C 210.375 183.851562 210.589844 184.011719 210.589844 184.28125 C 210.589844 184.550781 210.425781 184.769531 210.15625 184.769531 C 207.890625 184.929688 206.160156 185.6875 205.191406 186.929688 C 204.164062 188.277344 204.054688 189.949219 204.164062 191.191406 C 204.324219 191.355469 204.324219 191.515625 204.273438 191.734375 C 204.273438 191.734375 204.273438 191.785156 204.21875 191.785156 C 204.21875 192.003906 204.273438 192.164062 204.273438 192.328125 L 204.273438 192.433594 C 204.757812 196.214844 204.597656 200.046875 204.488281 203.769531 C 204.378906 206.738281 204.273438 209.816406 204.488281 212.785156 C 204.8125 217.320312 205.082031 221.964844 205.296875 226.714844 L 210.375 226.714844 L 209.996094 193.945312 L 209.996094 193.835938 C 210.210938 193.027344 210.644531 192.328125 211.183594 191.734375 C 212.585938 190.328125 214.367188 190.328125 214.910156 190.328125 L 225.601562 190.222656 C 227.058594 187.683594 227.382812 185.144531 227.4375 184.984375 C 227.488281 184.714844 227.707031 184.550781 227.976562 184.550781 C 228.246094 184.605469 228.40625 184.824219 228.40625 185.09375 C 228.40625 185.308594 228.03125 188.007812 226.410156 190.816406 C 226.410156 190.867188 226.355469 190.921875 226.300781 190.976562 C 225.167969 192.867188 223.492188 194.703125 221.011719 195.78125 C 219.550781 196.429688 217.988281 196.753906 216.367188 196.753906 C 215.933594 196.644531 215.503906 196.589844 215.070312 196.589844 Z M 261.074219 179.101562 L 168.257812 179.101562 L 168.257812 231.84375 L 169.175781 231.84375 L 169.175781 181.90625 C 169.175781 181.636719 169.390625 181.421875 169.660156 181.421875 L 242.824219 181.421875 C 243.09375 181.421875 243.308594 181.636719 243.308594 181.90625 L 243.308594 231.84375 L 261.128906 231.84375 Z M 191.042969 178.183594 L 195.578125 178.183594 L 193.367188 172.136719 C 192.769531 172.785156 192.230469 173.484375 191.691406 174.1875 C 190.71875 175.429688 190.613281 175.753906 190.558594 176.078125 C 190.394531 176.832031 190.71875 177.589844 191.042969 178.183594 Z M 229 163.660156 C 229.703125 165.441406 230.296875 166.792969 230.566406 167.441406 L 230.835938 168.035156 C 232.671875 172.40625 233.265625 173.917969 233.050781 176.023438 C 232.996094 176.726562 232.835938 177.425781 232.566406 178.128906 L 261.558594 178.128906 C 261.828125 178.128906 262.046875 178.34375 262.046875 178.613281 L 262.046875 232.328125 C 262.046875 232.597656 261.828125 232.8125 261.558594 232.8125 L 242.824219 232.8125 C 242.554688 232.8125 242.339844 232.597656 242.339844 232.328125 L 242.339844 182.394531 L 170.09375 182.394531 L 170.09375 232.328125 C 170.09375 232.597656 169.878906 232.8125 169.609375 232.8125 L 167.773438 232.8125 C 167.503906 232.8125 167.285156 232.597656 167.285156 232.328125 L 167.285156 178.613281 C 167.285156 178.34375 167.503906 178.128906 167.773438 178.128906 L 189.964844 178.128906 C 189.585938 177.320312 189.476562 176.5625 189.640625 175.808594 C 189.746094 175.320312 189.964844 174.890625 190.9375 173.539062 C 191.53125 172.730469 192.175781 171.972656 192.824219 171.21875 C 192.878906 171.164062 192.933594 171.109375 193.042969 171.109375 L 189.101562 160.152344 C 195.796875 160.097656 202.4375 160.097656 209.132812 160.042969 C 210.96875 165.875 212.804688 171.757812 214.640625 177.589844 L 226.464844 177.695312 L 226.464844 178.074219 L 231.648438 178.074219 C 231.917969 177.371094 232.078125 176.617188 232.1875 175.859375 C 232.347656 173.972656 231.753906 172.566406 230.027344 168.355469 L 229.757812 167.761719 C 229.488281 167.0625 228.894531 165.710938 228.191406 163.984375 C 228.082031 163.769531 228.191406 163.445312 228.460938 163.390625 C 228.625 163.335938 228.894531 163.445312 229 163.660156 Z M 222.628906 144.441406 C 222.253906 143.6875 221.335938 142.660156 219.011719 142.121094 C 218.3125 139.476562 216.367188 137.480469 214.046875 137.15625 C 212.046875 136.832031 210.480469 137.855469 210.050781 138.125 C 207.511719 139.855469 207.351562 142.878906 207.351562 143.199219 C 207.511719 143.847656 207.726562 144.441406 207.890625 145.089844 C 207.890625 145.683594 207.890625 146.277344 207.945312 146.871094 C 208.105469 148.707031 208.214844 150.273438 209.457031 151.40625 C 209.941406 151.839844 210.535156 152.164062 211.183594 152.324219 L 211.183594 153.835938 C 211.183594 154.105469 211.398438 154.320312 211.667969 154.320312 C 211.9375 154.320312 212.15625 154.105469 212.15625 153.835938 L 212.15625 151.945312 C 212.15625 151.730469 211.992188 151.515625 211.777344 151.460938 C 211.128906 151.351562 210.535156 151.082031 210.101562 150.703125 C 209.132812 149.839844 209.078125 148.546875 208.914062 146.765625 C 208.808594 145.738281 208.863281 144.660156 208.96875 143.578125 C 209.671875 143.632812 210.644531 143.523438 211.617188 143.09375 C 212.585938 142.660156 213.34375 142.011719 213.773438 141.472656 C 214.207031 142.011719 214.691406 142.445312 215.234375 142.878906 C 216.097656 143.578125 217.121094 144.066406 218.203125 144.335938 C 218.203125 144.335938 218.742188 144.441406 218.851562 144.765625 C 219.011719 145.144531 218.742188 145.792969 218.09375 146.0625 C 217.988281 146.117188 217.878906 146.222656 217.824219 146.386719 C 217.445312 147.734375 217.285156 149.140625 217.339844 150.542969 C 217.394531 151.675781 217.554688 152.808594 217.824219 153.945312 C 217.878906 154.160156 218.09375 154.269531 218.257812 154.269531 L 218.363281 154.269531 C 218.582031 154.214844 218.6875 154.050781 218.6875 153.890625 C 219.984375 154.050781 222.414062 154.589844 224.734375 156.480469 C 225.761719 157.34375 226.570312 158.261719 227.164062 159.179688 C 228.515625 158.75 228.839844 158.316406 228.894531 157.992188 C 229 157.289062 227.707031 157.019531 227.003906 155.671875 C 226.195312 154.160156 227.21875 153.242188 226.464844 152 C 225.601562 150.542969 224.035156 151.246094 223.0625 149.839844 C 221.980469 148.222656 223.65625 146.386719 222.628906 144.441406 Z M 208.808594 94.5625 C 205.785156 93.75 202.867188 93.699219 200.222656 94.453125 C 196.660156 95.425781 194.824219 97.421875 193.148438 99.203125 C 191.636719 100.824219 190.339844 102.226562 188.019531 102.496094 C 185.589844 102.820312 183.917969 101.6875 181.917969 100.390625 C 179.8125 98.988281 177.4375 97.421875 173.820312 97.585938 C 171.28125 97.691406 168.796875 98.664062 166.367188 100.390625 C 166.152344 100.554688 166.097656 100.824219 166.261719 101.039062 C 166.421875 101.253906 166.691406 101.308594 166.910156 101.148438 C 169.175781 99.527344 171.496094 98.664062 173.875 98.554688 C 177.167969 98.394531 179.328125 99.851562 181.433594 101.203125 C 183.269531 102.390625 184.996094 103.523438 187.265625 103.523438 C 187.535156 103.523438 187.859375 103.523438 188.183594 103.46875 C 190.828125 103.144531 192.285156 101.578125 193.851562 99.851562 C 195.472656 98.070312 197.199219 96.289062 200.492188 95.371094 C 202.976562 94.667969 205.730469 94.722656 208.589844 95.480469 C 208.863281 95.53125 209.078125 95.371094 209.1875 95.15625 C 209.1875 94.886719 209.023438 94.617188 208.808594 94.5625 Z M 186.347656 118.746094 L 181.703125 118.746094 C 181.433594 118.746094 181.214844 118.960938 181.214844 119.230469 C 181.214844 119.5 181.433594 119.71875 181.703125 119.71875 L 186.347656 119.71875 C 186.617188 119.71875 186.832031 119.5 186.832031 119.230469 C 186.832031 118.960938 186.617188 118.746094 186.347656 118.746094 Z M 192.824219 118.746094 L 188.183594 118.746094 C 187.910156 118.746094 187.695312 118.960938 187.695312 119.230469 C 187.695312 119.5 187.910156 119.71875 188.183594 119.71875 L 192.824219 119.71875 C 193.09375 119.71875 193.3125 119.5 193.3125 119.230469 C 193.3125 118.960938 193.09375 118.746094 192.824219 118.746094 Z M 199.25 118.746094 L 194.605469 118.746094 C 194.335938 118.746094 194.121094 118.960938 194.121094 119.230469 C 194.121094 119.5 194.335938 119.71875 194.605469 119.71875 L 199.25 119.71875 C 199.519531 119.71875 199.738281 119.5 199.738281 119.230469 C 199.738281 118.960938 199.464844 118.746094 199.25 118.746094 Z M 201.25 119.664062 L 205.890625 119.664062 C 206.160156 119.664062 206.378906 119.449219 206.378906 119.179688 C 206.378906 118.90625 206.160156 118.691406 205.890625 118.691406 L 201.25 118.691406 C 200.976562 118.691406 200.761719 118.90625 200.761719 119.179688 C 200.761719 119.449219 200.976562 119.664062 201.25 119.664062 Z M 185.859375 111.351562 L 182.1875 111.351562 L 182.1875 117.234375 L 185.859375 117.234375 Z M 186.832031 117.667969 C 186.832031 117.9375 186.617188 118.152344 186.347656 118.152344 L 181.703125 118.152344 C 181.433594 118.152344 181.214844 117.9375 181.214844 117.667969 L 181.214844 110.863281 C 181.214844 110.59375 181.433594 110.378906 181.703125 110.378906 L 186.347656 110.378906 C 186.617188 110.378906 186.832031 110.59375 186.832031 110.863281 Z M 192.394531 109.460938 L 188.722656 109.460938 L 188.722656 117.179688 L 192.394531 117.179688 Z M 193.3125 117.667969 C 193.3125 117.9375 193.09375 118.152344 192.824219 118.152344 L 188.183594 118.152344 C 187.910156 118.152344 187.695312 117.9375 187.695312 117.667969 L 187.695312 108.976562 C 187.695312 108.707031 187.910156 108.488281 188.183594 108.488281 L 192.824219 108.488281 C 193.09375 108.488281 193.3125 108.707031 193.3125 108.976562 Z M 198.765625 105.519531 L 195.09375 105.519531 L 195.09375 117.179688 L 198.765625 117.179688 Z M 199.683594 117.667969 C 199.683594 117.9375 199.464844 118.152344 199.195312 118.152344 L 194.554688 118.152344 C 194.285156 118.152344 194.066406 117.9375 194.066406 117.667969 L 194.066406 105.035156 C 194.066406 104.765625 194.285156 104.546875 194.554688 104.546875 L 199.195312 104.546875 C 199.464844 104.546875 199.683594 104.765625 199.683594 105.035156 Z M 201.734375 117.179688 L 205.40625 117.179688 L 205.40625 97.960938 L 201.734375 97.960938 Z M 200.761719 117.667969 L 200.761719 97.53125 C 200.761719 97.261719 200.976562 97.042969 201.25 97.042969 L 205.890625 97.042969 C 206.160156 97.042969 206.378906 97.261719 206.378906 97.53125 L 206.378906 117.667969 C 206.378906 117.9375 206.160156 118.152344 205.890625 118.152344 L 201.25 118.152344 C 200.976562 118.152344 200.761719 117.9375 200.761719 117.667969 Z M 130.515625 158.75 C 130.246094 158.695312 130.03125 158.855469 129.976562 159.125 L 117.394531 228.820312 C 117.339844 229.035156 117.503906 229.304688 117.71875 229.359375 L 119.664062 229.84375 C 119.664062 230.332031 119.664062 230.816406 119.609375 231.304688 C 120.257812 231.574219 121.121094 231.898438 122.09375 232.058594 C 123.550781 232.328125 124.847656 232.328125 125.765625 232.273438 C 125.925781 231.625 126.144531 230.925781 126.304688 230.277344 C 127.113281 230.222656 127.925781 230.113281 128.734375 229.953125 C 128.898438 229.898438 129.058594 229.792969 129.113281 229.628906 C 131.378906 220.722656 133.433594 211.652344 135.320312 202.691406 C 137.105469 194.109375 138.722656 185.417969 140.128906 176.726562 L 142.609375 228.496094 C 142.609375 228.710938 142.773438 228.875 142.988281 228.925781 C 143.636719 229.089844 144.339844 229.199219 145.039062 229.304688 L 145.039062 232.273438 C 149.738281 232.273438 154.488281 232.21875 159.1875 232.21875 C 159.078125 231.734375 158.917969 231.03125 158.324219 230.601562 C 157.675781 230.0625 156.867188 230.167969 156.109375 230.167969 C 155.300781 230.167969 154.21875 230.007812 152.871094 229.414062 C 153.300781 229.359375 153.789062 229.304688 154.21875 229.199219 C 154.4375 229.144531 154.597656 228.980469 154.597656 228.765625 C 155.082031 218.722656 155.300781 208.523438 155.300781 198.425781 C 155.246094 185.039062 154.757812 171.488281 153.789062 158.15625 C 153.789062 157.882812 153.570312 157.722656 153.300781 157.722656 C 153.03125 157.722656 152.871094 157.9375 152.871094 158.207031 C 153.839844 171.542969 154.328125 185.039062 154.382812 198.371094 C 154.4375 208.304688 154.21875 218.347656 153.734375 228.28125 C 151.734375 228.605469 149.683594 228.710938 147.6875 228.550781 C 146.335938 228.441406 144.933594 228.28125 143.582031 227.957031 L 140.882812 172.027344 C 140.882812 171.8125 140.667969 171.597656 140.453125 171.597656 C 140.179688 171.597656 140.019531 171.757812 139.964844 171.972656 C 138.398438 182.125 136.507812 192.328125 134.457031 202.367188 C 132.621094 211.21875 130.570312 220.183594 128.355469 228.980469 C 126.628906 229.25 124.902344 229.359375 123.117188 229.25 C 121.554688 229.144531 119.988281 228.875 118.421875 228.496094 L 130.894531 159.179688 C 130.949219 159.070312 130.785156 158.800781 130.515625 158.75 Z M 149.953125 106.4375 C 149.304688 106.167969 148.820312 106.816406 147.253906 107.03125 C 146.175781 107.195312 145.796875 106.976562 144.554688 106.921875 C 143.746094 106.871094 141.261719 106.761719 139.210938 108.109375 C 138.617188 108.488281 137.589844 109.300781 136.832031 110.863281 C 136.457031 111.082031 135.914062 111.402344 135.589844 112.050781 C 134.996094 113.347656 136.023438 114.75 137.210938 117.558594 C 137.589844 118.421875 138.074219 119.71875 138.5625 121.390625 L 138.5625 124.628906 C 138.5625 124.898438 138.777344 125.117188 139.046875 125.117188 C 139.316406 125.117188 139.535156 124.898438 139.535156 124.628906 L 139.535156 121.984375 C 140.398438 122.039062 141.261719 121.984375 142.125 121.824219 C 143.476562 121.605469 144.5 121.390625 145.3125 120.472656 C 146.230469 119.449219 146.28125 118.042969 146.230469 117.289062 C 146.230469 117.125 146.121094 116.964844 145.957031 116.910156 C 145.527344 116.75 145.3125 116.261719 145.472656 115.832031 C 145.527344 115.613281 145.6875 115.453125 145.90625 115.398438 C 146.121094 115.292969 146.335938 115.292969 146.550781 115.398438 C 146.714844 115.453125 146.824219 115.453125 146.984375 115.34375 C 147.09375 115.292969 147.199219 115.128906 147.199219 114.96875 C 147.253906 114.535156 147.417969 113.886719 147.902344 113.238281 C 148.0625 113.023438 148.28125 112.808594 148.550781 112.644531 C 148.710938 113.726562 148.820312 114.804688 148.875 115.886719 C 149.089844 118.960938 149.144531 120.527344 148.226562 121.230469 C 147.742188 121.660156 146.984375 121.824219 146.011719 121.660156 C 145.90625 121.660156 145.742188 121.660156 145.632812 121.769531 C 145.527344 121.878906 145.472656 121.984375 145.472656 122.09375 L 145.472656 124.578125 C 145.472656 124.847656 145.6875 125.0625 145.957031 125.0625 C 146.230469 125.0625 146.445312 124.847656 146.445312 124.578125 L 146.445312 122.578125 C 147.46875 122.632812 148.28125 122.363281 148.875 121.878906 C 150.117188 120.796875 150.007812 118.90625 149.847656 115.722656 C 149.792969 114.480469 149.628906 113.238281 149.414062 112.050781 C 149.953125 111.457031 150.601562 110.539062 150.765625 109.300781 C 150.871094 108.542969 150.816406 106.816406 149.953125 106.4375 Z M 330.511719 101.742188 C 322.628906 81.335938 310.15625 62.546875 294.386719 47.269531 L 272.738281 68.488281 L 247.46875 93.210938 L 247.898438 93.644531 C 248.167969 93.914062 248.4375 94.183594 248.710938 94.398438 C 248.925781 94.617188 249.085938 94.832031 249.304688 94.992188 C 249.628906 95.316406 249.949219 95.695312 250.273438 96.019531 C 250.4375 96.179688 250.546875 96.34375 250.707031 96.503906 C 251.085938 96.882812 251.460938 97.316406 251.785156 97.746094 L 252.109375 98.070312 C 252.542969 98.554688 252.921875 98.988281 253.351562 99.472656 C 253.40625 99.527344 253.460938 99.582031 253.515625 99.691406 C 254.433594 100.769531 255.351562 101.902344 256.214844 103.035156 C 256.269531 103.089844 256.269531 103.144531 256.324219 103.199219 C 256.699219 103.683594 257.078125 104.222656 257.457031 104.710938 C 257.5625 104.816406 257.671875 104.980469 257.726562 105.089844 C 258.050781 105.519531 258.375 106.007812 258.699219 106.4375 C 258.804688 106.601562 258.859375 106.707031 258.96875 106.871094 C 259.292969 107.355469 259.617188 107.789062 259.886719 108.273438 C 259.941406 108.382812 260.046875 108.488281 260.101562 108.597656 C 260.425781 109.136719 260.804688 109.675781 261.128906 110.214844 C 261.128906 110.269531 261.183594 110.324219 261.183594 110.324219 C 270.253906 125.007812 275.003906 142.175781 274.464844 159.9375 L 340.554688 164.039062 C 341.578125 142.984375 338.125 121.445312 330.511719 101.742188 Z M 278.566406 61.523438 C 270.902344 53.265625 262.046875 46.246094 252.21875 40.683594 C 241.527344 34.691406 229.972656 30.535156 217.878906 28.375 L 215.394531 38.148438 L 207.296875 70.753906 C 208.160156 70.96875 209.023438 71.238281 209.886719 71.457031 C 210.210938 71.5625 210.480469 71.617188 210.804688 71.726562 C 211.292969 71.886719 211.832031 72.050781 212.316406 72.210938 C 212.75 72.320312 213.179688 72.480469 213.613281 72.644531 C 213.828125 72.699219 213.992188 72.75 214.207031 72.859375 C 215.234375 73.238281 216.257812 73.5625 217.285156 73.992188 C 217.554688 74.101562 217.769531 74.210938 218.039062 74.261719 C 218.582031 74.480469 219.066406 74.695312 219.605469 74.910156 C 219.824219 74.964844 219.984375 75.074219 220.199219 75.179688 C 221.117188 75.558594 222.035156 75.992188 222.953125 76.367188 C 223.222656 76.53125 223.546875 76.636719 223.816406 76.800781 C 224.25 77.015625 224.734375 77.230469 225.167969 77.449219 C 225.546875 77.664062 225.921875 77.828125 226.300781 78.042969 C 226.894531 78.367188 227.488281 78.636719 228.082031 78.960938 C 228.515625 79.230469 229 79.445312 229.433594 79.714844 C 229.59375 79.824219 229.8125 79.929688 229.972656 79.984375 C 230.136719 80.09375 230.351562 80.203125 230.511719 80.308594 C 230.835938 80.527344 231.160156 80.6875 231.484375 80.902344 C 231.808594 81.121094 232.132812 81.28125 232.457031 81.496094 C 233.105469 81.875 233.699219 82.308594 234.347656 82.683594 C 234.5625 82.792969 234.726562 82.953125 234.941406 83.0625 L 236.398438 84.035156 C 236.613281 84.195312 236.832031 84.359375 237.046875 84.464844 C 237.53125 84.789062 238.019531 85.167969 238.449219 85.492188 C 238.613281 85.601562 238.828125 85.761719 238.992188 85.871094 L 240.933594 87.328125 L 240.988281 87.382812 L 242.769531 88.839844 C 242.984375 89 243.148438 89.164062 243.363281 89.324219 C 243.796875 89.703125 244.171875 90.027344 244.605469 90.40625 C 244.820312 90.621094 245.039062 90.78125 245.253906 91 C 245.6875 91.375 246.0625 91.753906 246.496094 92.132812 C 246.65625 92.292969 246.820312 92.402344 246.925781 92.5625 Z M 217.070312 27.730469 L 218.6875 21.304688 C 213.667969 19.363281 208.429688 18.121094 203.085938 17.632812 C 197.46875 17.09375 191.855469 17.417969 186.292969 18.550781 L 187.804688 68.054688 C 193.960938 68.21875 200.167969 69.082031 206.214844 70.539062 L 206.324219 70.539062 Z M 341.523438 164.632812 C 341.523438 164.742188 341.472656 164.847656 341.363281 164.957031 C 341.253906 165.011719 341.148438 165.0625 341.039062 165.0625 L 340.984375 165.0625 L 312.800781 163.335938 C 312.207031 176.023438 309.667969 188.546875 305.296875 200.585938 C 293.6875 232.597656 270.308594 258.242188 239.476562 272.707031 C 222.253906 280.753906 203.894531 284.800781 185.429688 284.800781 C 170.796875 284.800781 156.109375 282.261719 141.964844 277.136719 C 109.945312 265.527344 84.296875 242.152344 69.828125 211.328125 C 55.359375 180.503906 53.789062 145.847656 65.402344 113.832031 C 74.472656 88.675781 90.832031 67.460938 112.699219 52.347656 C 134.078125 37.554688 159.078125 29.671875 184.996094 29.617188 C 185.265625 29.617188 185.480469 29.832031 185.480469 30.101562 C 185.480469 30.375 185.265625 30.589844 184.996094 30.589844 C 132.027344 30.699219 84.351562 64.277344 66.316406 114.105469 C 42.5625 179.75 76.632812 252.464844 142.285156 276.21875 C 174.089844 287.714844 208.484375 286.152344 239.097656 271.792969 C 269.714844 257.429688 292.929688 232.003906 304.429688 200.207031 C 308.75 188.222656 311.289062 175.808594 311.882812 163.175781 L 274.464844 160.855469 C 274.25 166.253906 273.492188 171.757812 272.25 177.210938 C 272.195312 177.480469 271.925781 177.644531 271.710938 177.535156 C 271.441406 177.480469 271.277344 177.210938 271.386719 176.996094 C 272.683594 171.433594 273.382812 165.929688 273.601562 160.421875 L 273.601562 160.367188 C 274.03125 147.359375 271.601562 134.238281 266.472656 122.308594 C 264.746094 118.261719 262.695312 114.375 260.425781 110.648438 C 260.425781 110.59375 260.371094 110.59375 260.371094 110.542969 C 260.046875 110 259.671875 109.40625 259.292969 108.867188 C 259.238281 108.8125 259.183594 108.707031 259.128906 108.652344 C 258.804688 108.113281 258.429688 107.625 258.050781 107.085938 C 257.996094 107.03125 257.941406 106.925781 257.886719 106.871094 C 257.078125 105.683594 256.214844 104.550781 255.351562 103.359375 C 255.351562 103.308594 255.296875 103.308594 255.296875 103.253906 C 254.863281 102.714844 254.488281 102.226562 254.054688 101.6875 C 253.945312 101.578125 253.839844 101.472656 253.785156 101.363281 C 253.40625 100.933594 253.082031 100.5 252.703125 100.066406 C 252.597656 99.90625 252.488281 99.796875 252.328125 99.636719 C 252.003906 99.257812 251.625 98.828125 251.300781 98.449219 C 251.191406 98.285156 251.03125 98.179688 250.921875 98.015625 C 250.597656 97.640625 250.222656 97.261719 249.898438 96.882812 L 249.410156 96.398438 L 248.4375 95.425781 C 248.222656 95.210938 248.0625 94.992188 247.84375 94.832031 L 247.144531 94.128906 C 246.875 93.859375 246.601562 93.589844 246.28125 93.320312 C 245.738281 92.835938 245.199219 92.292969 244.660156 91.808594 C 244.496094 91.648438 244.28125 91.484375 244.121094 91.324219 L 242.824219 90.1875 C 242.609375 90.027344 242.445312 89.863281 242.230469 89.703125 C 241.742188 89.269531 241.257812 88.894531 240.773438 88.515625 C 240.664062 88.40625 240.503906 88.300781 240.394531 88.191406 C 239.746094 87.707031 239.152344 87.21875 238.503906 86.734375 C 238.34375 86.625 238.234375 86.519531 238.074219 86.410156 C 237.585938 86.03125 237.046875 85.65625 236.5625 85.277344 C 236.34375 85.113281 236.128906 84.953125 235.914062 84.84375 C 235.425781 84.519531 234.996094 84.195312 234.507812 83.871094 C 234.292969 83.710938 234.078125 83.601562 233.859375 83.441406 C 233.265625 83.007812 232.617188 82.632812 231.972656 82.253906 C 231.648438 82.039062 231.324219 81.875 231.054688 81.714844 C 230.730469 81.496094 230.351562 81.28125 230.027344 81.066406 C 229.703125 80.851562 229.324219 80.6875 229 80.472656 C 228.515625 80.203125 228.03125 79.933594 227.597656 79.664062 C 227.058594 79.390625 226.519531 79.070312 225.921875 78.796875 C 225.546875 78.582031 225.113281 78.367188 224.734375 78.203125 L 223.441406 77.558594 C 223.117188 77.394531 222.792969 77.285156 222.523438 77.125 C 221.710938 76.746094 220.847656 76.371094 220.039062 76.046875 C 219.769531 75.9375 219.5 75.828125 219.28125 75.722656 C 218.796875 75.503906 218.257812 75.289062 217.769531 75.128906 L 216.960938 74.804688 C 216.527344 74.640625 216.042969 74.480469 215.609375 74.316406 C 215.179688 74.15625 214.746094 74.046875 214.367188 73.886719 C 214.046875 73.777344 213.667969 73.671875 213.34375 73.507812 C 212.910156 73.347656 212.480469 73.238281 212.101562 73.074219 C 211.5625 72.914062 210.96875 72.753906 210.425781 72.535156 C 210.15625 72.480469 209.941406 72.375 209.671875 72.320312 C 208.753906 72.050781 207.835938 71.835938 206.863281 71.566406 C 203.949219 70.863281 200.980469 70.269531 198.007812 69.835938 C 194.605469 69.351562 191.097656 69.082031 187.640625 68.972656 L 187.535156 68.972656 C 174.089844 68.648438 160.699219 71.457031 148.171875 77.339844 C 126.574219 87.328125 110.433594 105.035156 102.386719 127.167969 C 91.535156 157.183594 97.796875 190.871094 118.691406 215 C 118.855469 215.214844 118.855469 215.484375 118.636719 215.648438 C 118.53125 215.703125 118.421875 215.757812 118.3125 215.757812 C 118.207031 215.757812 118.042969 215.703125 117.9375 215.59375 C 96.769531 191.191406 90.453125 157.183594 101.46875 126.84375 C 109.566406 104.441406 125.925781 86.570312 147.46875 76.476562 C 159.996094 70.59375 173.386719 67.785156 186.832031 68.003906 L 185.265625 18.121094 C 185.265625 17.90625 185.429688 17.6875 185.644531 17.636719 C 191.367188 16.449219 197.253906 16.125 203.085938 16.664062 C 208.644531 17.203125 214.097656 18.496094 219.335938 20.550781 C 219.550781 20.65625 219.660156 20.875 219.605469 21.089844 L 218.09375 27.460938 C 230.296875 29.617188 241.90625 33.773438 252.652344 39.875 C 262.53125 45.4375 271.496094 52.507812 279.214844 60.875 L 294.0625 46.355469 C 294.226562 46.191406 294.550781 46.191406 294.710938 46.355469 C 310.695312 61.738281 323.382812 80.796875 331.375 101.472656 C 339.09375 121.390625 342.605469 143.203125 341.523438 164.632812 Z M 168.527344 112.863281 C 168.257812 112.863281 168.042969 113.078125 168.042969 113.347656 L 168.042969 115.832031 C 168.042969 116.101562 168.257812 116.316406 168.527344 116.316406 C 168.796875 116.316406 169.015625 116.101562 169.015625 115.832031 L 169.015625 113.78125 L 170.308594 113.78125 C 170.578125 113.78125 170.796875 113.5625 170.796875 113.292969 C 170.796875 113.023438 170.578125 112.808594 170.308594 112.808594 Z M 177.492188 106.328125 C 177.921875 106.4375 178.464844 106.601562 178.894531 106.816406 L 178.894531 105.519531 L 177.867188 105.519531 C 177.761719 105.789062 177.652344 106.058594 177.492188 106.328125 Z M 179.867188 117.667969 C 179.867188 117.9375 179.652344 118.152344 179.382812 118.152344 L 175.492188 118.152344 C 175.222656 118.152344 175.007812 117.9375 175.007812 117.667969 C 175.007812 117.398438 175.222656 117.179688 175.492188 117.179688 L 178.949219 117.179688 L 178.949219 110.433594 C 178.300781 111.132812 177.597656 111.835938 176.898438 112.539062 C 176.789062 112.644531 176.679688 112.644531 176.574219 112.644531 C 176.464844 112.644531 176.304688 112.59375 176.25 112.484375 C 176.085938 112.320312 176.085938 112 176.25 111.835938 C 176.953125 111.1875 177.597656 110.488281 178.246094 109.785156 C 178.839844 109.136719 179.433594 108.488281 179.382812 108.328125 C 179.328125 107.839844 177.976562 107.300781 176.734375 107.085938 C 176.574219 107.085938 176.464844 106.976562 176.410156 106.816406 C 176.355469 106.707031 176.355469 106.546875 176.410156 106.382812 C 177.003906 105.195312 177.4375 104.332031 177.707031 103.738281 C 177.113281 104.441406 176.25 105.574219 174.953125 107.410156 C 174.84375 107.570312 174.683594 107.625 174.519531 107.625 C 174.359375 107.625 174.199219 107.515625 174.144531 107.355469 C 174.035156 107.085938 173.925781 106.871094 173.820312 106.652344 C 173.875 107.085938 173.925781 107.625 174.035156 108.273438 C 174.144531 109.027344 174.199219 109.839844 174.25 110.59375 C 174.25 110.863281 174.089844 111.082031 173.820312 111.082031 C 173.550781 111.082031 173.332031 110.917969 173.332031 110.648438 C 173.28125 109.894531 173.226562 109.136719 173.117188 108.382812 C 173.007812 107.515625 172.957031 106.816406 172.847656 106.222656 C 172.632812 104.765625 172.578125 104.386719 173.117188 104.222656 C 173.496094 104.117188 173.765625 104.277344 174.359375 105.464844 L 174.359375 105.035156 C 174.359375 104.765625 174.574219 104.546875 174.84375 104.546875 L 175.925781 104.546875 C 178.300781 101.417969 178.570312 101.523438 178.949219 101.796875 C 179.328125 102.011719 179.488281 102.28125 178.410156 104.546875 L 179.433594 104.546875 C 179.703125 104.546875 179.921875 104.765625 179.921875 105.035156 L 179.921875 107.410156 C 180.191406 107.625 180.351562 107.949219 180.351562 108.273438 C 180.40625 108.597656 180.296875 108.921875 179.921875 109.40625 Z M 179.867188 119.179688 C 179.867188 119.449219 179.652344 119.664062 179.382812 119.664062 L 174.738281 119.664062 C 174.46875 119.664062 174.25 119.449219 174.25 119.179688 C 174.25 118.90625 174.46875 118.691406 174.738281 118.691406 L 179.382812 118.691406 C 179.652344 118.746094 179.867188 118.960938 179.867188 119.179688 " fill-opacity="1" fill-rule="nonzero"/></g><path fill="#26b1d8" d="M 139.046875 124.628906 C 136.78125 124.738281 131.972656 125.386719 128.574219 129.003906 C 127.601562 130.082031 126.414062 131.648438 124.738281 137.316406 C 123.714844 140.664062 122.523438 145.414062 121.824219 151.40625 C 122.6875 152.109375 123.929688 152.972656 125.550781 153.671875 C 127.492188 154.484375 129.21875 154.808594 130.460938 154.914062 L 130.460938 159.179688 C 133.757812 159.449219 137.425781 159.558594 141.421875 159.394531 C 145.796875 159.234375 149.792969 158.800781 153.300781 158.261719 C 152.871094 150.703125 152.4375 143.199219 152.007812 135.644531 C 155.625 134.726562 158.59375 133.808594 160.753906 133.105469 C 166.3125 131.269531 167.503906 130.351562 168.257812 129.757812 C 169.445312 128.789062 170.417969 127.597656 172.738281 123.117188 C 174.035156 120.636719 175.710938 117.234375 177.492188 113.078125 C 177.003906 112.539062 176.140625 111.726562 174.898438 111.027344 C 173.820312 110.488281 172.902344 110.214844 172.199219 110.109375 C 169.285156 114.589844 166.367188 119.070312 163.398438 123.496094 C 160.589844 124.089844 157.1875 124.578125 153.355469 124.738281 C 150.601562 124.847656 148.117188 124.738281 145.90625 124.523438 C 145.257812 124.792969 144.070312 125.222656 142.503906 125.277344 C 140.9375 125.386719 139.75 124.953125 139.046875 124.628906 Z M 205.40625 181.90625 C 205.40625 182.175781 205.296875 182.71875 204.972656 183.3125 C 204.648438 183.90625 204.21875 184.230469 203.949219 184.390625 C 207.511719 184.175781 211.34375 184.011719 215.449219 184.121094 C 219.984375 184.175781 224.140625 184.5 228.03125 184.929688 L 227.058594 181.960938 C 219.824219 181.90625 212.640625 181.90625 205.40625 181.90625 Z M 214.585938 157.507812 C 216.421875 157.722656 218.363281 156.101562 218.3125 153.835938 C 219.390625 153.945312 222.199219 154.375 224.789062 156.480469 C 227.8125 158.964844 228.675781 162.148438 228.949219 163.175781 L 221.820312 164.632812 L 224.683594 173.863281 L 213.503906 174.402344 L 209.078125 160.207031 L 200.222656 160.261719 C 201.355469 159.125 203.085938 157.5625 205.460938 156.265625 C 207.890625 154.914062 210.101562 154.269531 211.667969 153.945312 C 211.617188 155.726562 212.964844 157.34375 214.585938 157.507812 " fill-opacity="1" fill-rule="nonzero"/></svg>